<?xml version="1.0" encoding="utf-8"?>
<!-- Generator: Adobe Illustrator 16.0.0, SVG Export Plug-In . SVG Version: 6.00 Build 0)  -->
<!DOCTYPE svg PUBLIC "-//W3C//DTD SVG 1.1//EN" "http://www.w3.org/Graphics/SVG/1.1/DTD/svg11.dtd">
<svg id="imglanding" version="1.1" id="Calque_1" xmlns="http://www.w3.org/2000/svg" xmlns:xlink="http://www.w3.org/1999/xlink" x="0px" y="0px"
	 width="112.45px" height="2050px" viewBox="0 0 112.45 2050" enable-background="new 0 0 112.45 2050" xml:space="preserve">

	<path fill="#023047" stroke="#000000" stroke-miterlimit="10" d="M44.025,55.798c2.688,0,5.581-0.899,8.192-0.927c6.759-0.072,5.135,1.965,7,0.437l-0.375,2.074
		c-2.209,1.44-3.116,3.349-6.068,4.141c-2.952,0.792-6.012,1.188-9.18,1.188c-8.352,0-15.037-2.592-20.052-7.776
		c-5.017-5.184-7.524-11.903-7.524-20.16c0-8.448,2.543-15.3,7.632-20.556c5.087-5.256,11.952-7.884,20.592-7.884
		c5.616,0,9.731,1.321,12.348,3.96c2.616,2.64,3.924,6.672,3.924,12.096v23.976h-5.832l-1.224-3.6l-0.216-0.072
		c-1.249,1.344-2.869,2.424-4.86,3.24c-1.992,0.816-4.116,1.224-6.372,1.224c-3.697,0-6.648-1.104-8.856-3.312
		c-2.208-2.207-3.312-5.112-3.312-8.712c0-4.032,1.476-7.139,4.428-9.324c2.952-2.184,7.188-3.276,12.708-3.276h5.472
		c0.047-0.144,0.072-0.299,0.072-0.468c0-0.168,0-0.42,0-0.756c0-2.88-0.673-4.896-2.016-6.048
		c-1.344-1.152-3.648-1.728-6.912-1.728c-6.24,0-11.16,1.861-14.76,5.58c-3.6,3.72-5.4,8.748-5.4,15.084
		c0,6.48,1.836,11.7,5.508,15.66S37.641,55.798,44.025,55.798z M47.841,28.51c-3.36,0-5.844,0.468-7.452,1.404
		c-1.609,0.936-2.412,2.46-2.412,4.572c0,1.92,0.54,3.396,1.62,4.428c1.08,1.033,2.628,1.548,4.644,1.548
		c1.872,0,3.647-0.407,5.328-1.224c1.68-0.816,2.855-1.775,3.528-2.88V28.51H47.841z"/>

<path fill="none" stroke="#023047" stroke-width="6" stroke-linecap="round" stroke-miterlimit="10" d="M49.986,58.969
	c12.647-2.491,26.438,1.314,35.19,15.318c22.024,35.235,1.979,76.422-17.031,103.723c-20.441,29.356-50.309,67.518-35.395,112.81
	c12.309,37.378,38.52,62.154,54.435,96.346c19.053,40.932,23.324,88.299,7.516,132.381c-7.979,22.253-18.669,42.302-29.378,62.121
	c-12.402,22.956-25.19,45.213-29.909,73.872c-4.334,26.322-2.466,53.434,4.368,78.647c7.224,26.654,19.038,49.016,30.202,72.592
	c19.853,41.925,38.8,90.037,35.825,142.014c-3.052,53.316-24.224,102.214-40.652,149.328
	c-15.128,43.386-31.75,91.975-17.833,140.123c10.764,37.241,32.354,66.012,44.306,102.45
	c13.604,41.473,18.386,89.852,15.385,135.079c-3.05,45.972-13.636,92.548-36.815,126.767c-9.288,13.71-20.573,24.167-30.061,37.496
	c-10.533,14.798-15.562,34.936-15.404,55.75c0.202,26.631,5.57,50.816,14.176,74.427c7.833,21.487,16.27,42.38,22.06,65.167
	c9.18,36.127,16.164,78.369,7.272,116.014c-9.029,38.229-69.666,45.903-58.261,74.663"/>
<path fill="none" stroke="#023047" stroke-width="7" stroke-miterlimit="10" d="M53.813,61.19"/>
</svg>
