<svg width="517" height="400" viewBox="0 0 517 400" fill="none" xmlns="http://www.w3.org/2000/svg">
<path d="M140.41 207.096H0L10.3813 90.4688H151.98L140.41 207.096Z" fill="#F5F5F5"/>
<path d="M15.4386 187.528C15.3094 187.528 16.7654 169.969 18.678 148.351C20.5905 126.733 22.2446 109.174 22.3653 109.174C22.4859 109.174 21.0385 126.723 19.1259 148.351C17.2134 169.979 15.5593 187.538 15.4386 187.528Z" fill="#E0E0E0"/>
<path d="M40.9997 113.142C38.6576 113.4 36.3039 113.488 33.9525 113.403C31.601 113.488 29.2474 113.4 26.9053 113.142C29.247 112.877 31.601 112.79 33.9525 112.88C36.3039 112.79 38.658 112.877 40.9997 113.142Z" fill="#E0E0E0"/>
<path d="M100.97 113.142C100.97 113.282 88.4003 113.403 72.9016 113.403C57.4029 113.403 44.8247 113.282 44.8247 113.142C44.8247 113.001 57.3943 112.88 72.9016 112.88C88.409 112.88 100.97 112.991 100.97 113.142Z" fill="#E0E0E0"/>
<path d="M39.3366 154.58C36.9949 154.844 34.6409 154.932 32.2894 154.841C29.938 154.932 27.5839 154.844 25.2422 154.58C27.5843 154.321 29.938 154.234 32.2894 154.318C34.6409 154.234 36.9946 154.321 39.3366 154.58Z" fill="#E0E0E0"/>
<path d="M99.307 154.579C99.307 154.73 86.7375 154.84 71.2388 154.84C55.74 154.84 43.1619 154.73 43.1619 154.579C43.1619 154.428 55.7314 154.318 71.2388 154.318C86.7461 154.318 99.307 154.438 99.307 154.579Z" fill="#E0E0E0"/>
<path d="M80.1818 173.736C80.1818 173.886 67.6122 173.997 52.1135 173.997C36.6148 173.997 24.0366 173.886 24.0366 173.736C24.0366 173.585 36.6062 173.475 52.1135 173.475C67.6208 173.475 80.1818 173.545 80.1818 173.736Z" fill="#E0E0E0"/>
<path d="M47.211 124.844C47.211 124.985 42.7742 125.106 37.295 125.106C31.8157 125.106 27.3789 124.985 27.3789 124.844C27.3789 124.704 31.8243 124.573 37.295 124.573C42.7656 124.573 47.211 124.694 47.211 124.844Z" fill="#E0E0E0"/>
<path d="M46.7116 141.992C46.7116 142.143 42.2661 142.253 36.7955 142.253C31.3248 142.253 26.8794 142.143 26.8794 141.992C26.8794 141.841 31.3162 141.731 36.7955 141.731C42.2747 141.731 46.7116 141.852 46.7116 141.992Z" fill="#E0E0E0"/>
<path d="M63.4769 166.513C63.4769 166.654 59.0315 166.774 53.5608 166.774C48.0902 166.774 43.6448 166.654 43.6448 166.513C43.6448 166.372 48.0816 166.252 53.5608 166.252C59.0401 166.252 63.4769 166.362 63.4769 166.513Z" fill="#E0E0E0"/>
<path d="M119.338 124.844C119.338 124.985 108 125.106 94.0091 125.106C80.0181 125.106 68.6719 124.985 68.6719 124.844C68.6719 124.704 80.0181 124.573 94.0091 124.573C108 124.573 119.338 124.694 119.338 124.844Z" fill="#E0E0E0"/>
<path d="M103.718 142.987C103.718 143.137 92.3805 143.248 78.3894 143.248C64.3984 143.248 53.0608 143.137 53.0608 142.987C53.0608 142.836 64.3984 142.726 78.3894 142.726C92.3805 142.726 103.718 142.846 103.718 142.987Z" fill="#E0E0E0"/>
<path d="M121.155 166.513C121.155 166.654 109.809 166.774 95.8265 166.774C81.8441 166.774 70.4893 166.654 70.4893 166.513C70.4893 166.372 81.8355 166.252 95.8265 166.252C109.818 166.252 121.155 166.362 121.155 166.513Z" fill="#E0E0E0"/>
<path d="M74.9005 187.529C74.9005 187.669 63.5543 187.79 49.5632 187.79C35.5722 187.79 24.2346 187.669 24.2346 187.529C24.2346 187.388 35.5722 187.268 49.5632 187.268C63.5543 187.268 74.9005 187.378 74.9005 187.529Z" fill="#E0E0E0"/>
<path d="M130.925 187.529C130.925 187.669 119.579 187.79 105.597 187.79C91.6141 187.79 80.2593 187.669 80.2593 187.529C80.2593 187.388 91.5969 187.268 105.597 187.268C119.596 187.268 130.925 187.378 130.925 187.529Z" fill="#E0E0E0"/>
<path d="M74.8915 194.358C74.8915 194.509 63.5539 194.619 49.5628 194.619C35.5718 194.619 24.2256 194.509 24.2256 194.358C24.2256 194.208 35.5718 194.097 49.5628 194.097C63.5539 194.097 74.8915 194.218 74.8915 194.358Z" fill="#E0E0E0"/>
<path d="M77.3556 129.767C77.3556 129.908 66.018 130.028 52.027 130.028C38.0359 130.028 26.6897 129.908 26.6897 129.767C26.6897 129.626 38.0359 129.506 52.027 129.506C66.018 129.506 77.3556 129.616 77.3556 129.767Z" fill="#E0E0E0"/>
<path d="M63.8471 124.905C61.6808 125.163 59.5019 125.251 57.3255 125.166C55.1461 125.251 52.9644 125.163 50.7952 124.905C52.964 124.64 55.1461 124.553 57.3255 124.644C59.5019 124.553 61.6812 124.64 63.8471 124.905Z" fill="#E0E0E0"/>
<path d="M37.6826 160.215C35.5134 160.474 33.3316 160.561 31.1523 160.477C28.9758 160.561 26.797 160.474 24.6306 160.215C26.797 159.957 28.9758 159.869 31.1523 159.954C33.3316 159.869 35.5134 159.957 37.6826 160.215Z" fill="#E0E0E0"/>
<path d="M37.3728 166.514C35.2064 166.772 33.0275 166.86 30.8511 166.775C28.6718 166.86 26.49 166.772 24.3208 166.514C26.4897 166.249 28.6718 166.162 30.8511 166.252C33.0275 166.162 35.2068 166.249 37.3728 166.514Z" fill="#E0E0E0"/>
<path d="M150.43 102.806C150.43 102.956 118.855 103.067 79.9148 103.067C40.9742 103.067 9.38232 102.956 9.38232 102.806C9.38232 102.655 40.957 102.544 79.9148 102.544C118.873 102.544 150.43 102.665 150.43 102.806Z" fill="#E0E0E0"/>
<path d="M18.9018 99.1989C19.8249 99.1989 20.5731 98.3264 20.5731 97.2501C20.5731 96.1738 19.8249 95.3013 18.9018 95.3013C17.9787 95.3013 17.2305 96.1738 17.2305 97.2501C17.2305 98.3264 17.9787 99.1989 18.9018 99.1989Z" fill="white"/>
<path d="M26.0781 99.1989C27.0011 99.1989 27.7494 98.3264 27.7494 97.2501C27.7494 96.1738 27.0011 95.3013 26.0781 95.3013C25.155 95.3013 24.4067 96.1738 24.4067 97.2501C24.4067 98.3264 25.155 99.1989 26.0781 99.1989Z" fill="white"/>
<path d="M33.2548 99.1989C34.1779 99.1989 34.9262 98.3264 34.9262 97.2501C34.9262 96.1738 34.1779 95.3013 33.2548 95.3013C32.3318 95.3013 31.5835 96.1738 31.5835 97.2501C31.5835 98.3264 32.3318 99.1989 33.2548 99.1989Z" fill="white"/>
<path d="M504.997 148.784H364.586L374.967 32.166H516.567L504.997 148.784Z" fill="#F5F5F5"/>
<path d="M380.024 129.214C379.903 129.214 381.351 111.655 383.263 90.037C385.176 68.4192 386.83 50.8598 386.951 50.9201C387.071 50.9803 385.624 68.4695 383.711 90.0973C381.799 111.725 380.145 129.224 380.024 129.214Z" fill="#E0E0E0"/>
<path d="M405.586 54.8271C400.892 55.1753 396.185 55.1753 391.491 54.8271C396.185 54.4789 400.892 54.4789 405.586 54.8271Z" fill="#E0E0E0"/>
<path d="M465.564 54.8271C465.564 54.9677 452.995 55.0883 437.487 55.0883C421.98 55.0883 409.41 54.9677 409.41 54.8271C409.41 54.6865 421.98 54.5659 437.487 54.5659C452.995 54.5659 465.564 54.6865 465.564 54.8271Z" fill="#E0E0E0"/>
<path d="M403.932 96.2753C399.235 96.6234 394.525 96.6234 389.829 96.2753C394.525 95.9271 399.235 95.9271 403.932 96.2753Z" fill="#E0E0E0"/>
<path d="M463.945 96.2753C463.945 96.4159 451.375 96.5365 435.868 96.5365C420.361 96.5365 407.791 96.4159 407.791 96.2753C407.791 96.1347 420.361 96.0142 435.868 96.0142C451.375 96.0142 463.945 96.1246 463.945 96.2753Z" fill="#E0E0E0"/>
<path d="M444.776 115.382C444.776 115.523 432.207 115.643 416.699 115.643C401.192 115.643 388.623 115.523 388.623 115.382C388.623 115.242 401.192 115.121 416.699 115.121C432.207 115.121 444.776 115.232 444.776 115.382Z" fill="#E0E0E0"/>
<path d="M411.806 66.5303C411.806 66.6709 407.36 66.7914 401.89 66.7914C396.419 66.7914 391.974 66.6709 391.974 66.5303C391.974 66.3897 396.41 66.249 401.916 66.249C407.421 66.249 411.806 66.3796 411.806 66.5303Z" fill="#E0E0E0"/>
<path d="M411.297 83.6777C411.297 83.8284 406.86 83.9389 401.381 83.9389C395.902 83.9389 391.465 83.8284 391.465 83.6777C391.465 83.527 395.902 83.4165 401.381 83.4165C406.86 83.4165 411.297 83.5371 411.297 83.6777Z" fill="#E0E0E0"/>
<path d="M428.062 108.2C428.062 108.34 423.626 108.461 418.146 108.461C412.667 108.461 408.23 108.34 408.23 108.2C408.23 108.059 412.667 107.938 418.146 107.938C423.626 107.938 428.062 108.059 428.062 108.2Z" fill="#E0E0E0"/>
<path d="M483.949 66.5302C483.949 66.6708 472.603 66.7914 458.612 66.7914C444.621 66.7914 433.283 66.6708 433.283 66.5302C433.283 66.3896 444.621 66.269 458.612 66.269C472.603 66.269 483.949 66.3795 483.949 66.5302Z" fill="#E0E0E0"/>
<path d="M468.313 84.6733C468.313 84.824 456.967 84.9345 442.976 84.9345C428.985 84.9345 417.647 84.824 417.647 84.6733C417.647 84.5226 428.985 84.4121 442.976 84.4121C456.967 84.4121 468.313 84.5326 468.313 84.6733Z" fill="#E0E0E0"/>
<path d="M485.741 108.2C485.741 108.34 474.404 108.461 460.413 108.461C446.422 108.461 435.084 108.34 435.084 108.2C435.084 108.059 446.422 107.938 460.413 107.938C474.404 107.938 485.741 108.059 485.741 108.2Z" fill="#E0E0E0"/>
<path d="M439.487 129.215C439.487 129.355 428.14 129.476 414.158 129.476C400.176 129.476 388.821 129.355 388.821 129.215C388.821 129.074 400.158 128.954 414.158 128.954C428.158 128.954 439.487 129.064 439.487 129.215Z" fill="#E0E0E0"/>
<path d="M495.511 129.215C495.511 129.355 484.173 129.476 470.182 129.476C456.191 129.476 444.845 129.355 444.845 129.215C444.845 129.074 456.191 128.954 470.182 128.954C484.173 128.954 495.511 129.064 495.511 129.215Z" fill="#E0E0E0"/>
<path d="M439.478 136.046C439.478 136.197 428.141 136.307 414.149 136.307C400.158 136.307 388.821 136.197 388.821 136.046C388.821 135.895 400.158 135.785 414.149 135.785C428.141 135.785 439.478 135.905 439.478 136.046Z" fill="#E0E0E0"/>
<path d="M441.95 71.4526C441.95 71.5932 430.603 71.7138 416.612 71.7138C402.621 71.7138 391.284 71.5932 391.284 71.4526C391.284 71.3119 402.621 71.1914 416.612 71.1914C430.603 71.1914 441.95 71.2718 441.95 71.4526Z" fill="#E0E0E0"/>
<path d="M428.433 66.5913C424.09 66.9395 419.732 66.9395 415.39 66.5913C419.732 66.243 424.09 66.243 428.433 66.5913Z" fill="#E0E0E0"/>
<path d="M402.269 101.9C397.924 102.249 393.563 102.249 389.217 101.9C393.563 101.552 397.924 101.552 402.269 101.9Z" fill="#E0E0E0"/>
<path d="M401.958 108.2C397.616 108.548 393.257 108.548 388.915 108.2C393.257 107.851 397.616 107.851 401.958 108.2Z" fill="#E0E0E0"/>
<path d="M515.024 44.4912C515.024 44.6418 483.441 44.7523 444.501 44.7523C405.56 44.7523 373.977 44.6418 373.977 44.4912C373.977 44.3405 405.543 44.23 444.501 44.23C483.458 44.23 515.024 44.3505 515.024 44.4912Z" fill="#E0E0E0"/>
<path d="M383.488 40.8844C384.411 40.8844 385.159 40.0119 385.159 38.9356C385.159 37.8593 384.411 36.9868 383.488 36.9868C382.565 36.9868 381.816 37.8593 381.816 38.9356C381.816 40.0119 382.565 40.8844 383.488 40.8844Z" fill="white"/>
<path d="M390.664 40.8844C391.587 40.8844 392.335 40.0119 392.335 38.9356C392.335 37.8593 391.587 36.9868 390.664 36.9868C389.741 36.9868 388.993 37.8593 388.993 38.9356C388.993 40.0119 389.741 40.8844 390.664 40.8844Z" fill="white"/>
<path d="M397.841 40.8844C398.764 40.8844 399.512 40.0119 399.512 38.9356C399.512 37.8593 398.764 36.9868 397.841 36.9868C396.917 36.9868 396.169 37.8593 396.169 38.9356C396.169 40.0119 396.917 40.8844 397.841 40.8844Z" fill="white"/>
<path d="M210.503 72.6386H123.051L129.512 0H217.706L210.503 72.6386Z" fill="#EBEBEB"/>
<path d="M132.665 60.4437C132.544 60.4437 133.406 49.5042 134.595 36.0433C135.784 22.5824 136.852 11.6731 136.981 11.6831C137.11 11.6932 136.24 22.6327 135.043 36.0935C133.845 49.5544 132.785 60.4638 132.665 60.4437Z" fill="#E0E0E0"/>
<path d="M148.629 14.1137C145.71 14.462 142.769 14.462 139.85 14.1137C142.769 13.7655 145.71 13.7655 148.629 14.1137Z" fill="#E0E0E0"/>
<path d="M185.941 14.1137C185.941 14.2644 178.11 14.3749 168.452 14.3749C158.795 14.3749 150.964 14.2644 150.964 14.1137C150.964 13.963 158.795 13.8525 168.452 13.8525C178.11 13.8525 185.941 14.0133 185.941 14.1137Z" fill="#E0E0E0"/>
<path d="M147.552 39.9306C144.633 40.2789 141.692 40.2789 138.773 39.9306C141.692 39.5824 144.633 39.5824 147.552 39.9306Z" fill="#E0E0E0"/>
<path d="M184.908 39.9306C184.908 40.0713 177.076 40.1918 167.419 40.1918C157.761 40.1918 149.93 40.0713 149.93 39.9306C149.93 39.79 157.761 39.6694 167.419 39.6694C177.076 39.6694 184.908 39.79 184.908 39.9306Z" fill="#E0E0E0"/>
<path d="M172.993 51.8242C172.993 51.9748 165.162 52.0853 155.504 52.0853C145.847 52.0853 138.024 51.9748 138.024 51.8242C138.024 51.6735 145.847 51.563 155.504 51.563C165.162 51.563 172.993 51.6835 172.993 51.8242Z" fill="#E0E0E0"/>
<path d="M152.455 21.4073C150.404 21.6657 148.339 21.753 146.278 21.6684C144.219 21.7532 142.157 21.6659 140.109 21.4073C142.157 21.1425 144.219 21.0552 146.278 21.1461C148.339 21.0555 150.404 21.1428 152.455 21.4073Z" fill="#E0E0E0"/>
<path d="M152.144 32.0951C150.093 32.3596 148.029 32.4469 145.967 32.3563C143.905 32.4469 141.841 32.3596 139.79 32.0951C141.841 31.8367 143.905 31.7494 145.967 31.834C148.029 31.7494 150.093 31.8367 152.144 32.0951Z" fill="#E0E0E0"/>
<path d="M162.586 47.3544C160.535 47.6189 158.471 47.7062 156.409 47.6156C154.347 47.7062 152.283 47.6189 150.232 47.3544C152.283 47.096 154.347 47.0087 156.409 47.0932C158.471 47.0087 160.535 47.096 162.586 47.3544Z" fill="#E0E0E0"/>
<path d="M197.391 21.4072C197.391 21.5478 190.327 21.6684 181.617 21.6684C172.907 21.6684 165.86 21.5478 165.86 21.4072C165.86 21.2665 172.924 21.146 181.643 21.146C190.361 21.146 197.391 21.2565 197.391 21.4072Z" fill="#E0E0E0"/>
<path d="M187.647 32.7084C187.647 32.8491 180.583 32.9696 171.873 32.9696C163.163 32.9696 156.099 32.8491 156.099 32.7084C156.099 32.5678 163.163 32.4473 171.873 32.4473C180.583 32.4473 187.647 32.5678 187.647 32.7084Z" fill="#E0E0E0"/>
<path d="M198.511 47.354C198.511 47.5046 191.447 47.6151 182.737 47.6151C174.027 47.6151 166.954 47.5046 166.954 47.354C166.954 47.2033 174.018 47.0928 182.737 47.0928C191.455 47.0928 198.511 47.2133 198.511 47.354Z" fill="#E0E0E0"/>
<path d="M169.702 60.4428C169.702 60.5935 162.638 60.704 153.919 60.704C145.2 60.704 138.145 60.5935 138.145 60.4428C138.145 60.2921 145.209 60.1816 153.919 60.1816C162.629 60.1816 169.702 60.3022 169.702 60.4428Z" fill="#E0E0E0"/>
<path d="M204.628 60.4428C204.628 60.5935 197.564 60.704 188.854 60.704C180.144 60.704 173.071 60.5935 173.071 60.4428C173.071 60.2921 180.135 60.1816 188.854 60.1816C197.572 60.1816 204.628 60.3022 204.628 60.4428Z" fill="#E0E0E0"/>
<path d="M169.693 64.7031C169.693 64.8538 162.629 64.9643 153.919 64.9643C145.209 64.9643 138.145 64.8538 138.145 64.7031C138.145 64.5524 145.2 64.4419 153.919 64.4419C162.637 64.4419 169.693 64.5625 169.693 64.7031Z" fill="#E0E0E0"/>
<path d="M171.227 24.4707C171.227 24.6213 164.163 24.7318 155.453 24.7318C146.743 24.7318 139.678 24.6213 139.678 24.4707C139.678 24.32 146.743 24.2095 155.453 24.2095C164.163 24.2095 171.227 24.33 171.227 24.4707Z" fill="#E0E0E0"/>
<path d="M162.818 21.447C160.116 21.7951 157.388 21.7951 154.686 21.447C157.388 21.099 160.116 21.099 162.818 21.447Z" fill="#E0E0E0"/>
<path d="M146.519 43.436C143.819 43.7843 141.094 43.7843 138.395 43.436C141.094 43.0877 143.819 43.0877 146.519 43.436Z" fill="#E0E0E0"/>
<path d="M146.329 47.3538C143.626 47.7018 140.899 47.7018 138.196 47.3538C140.899 47.0058 143.626 47.0058 146.329 47.3538Z" fill="#E0E0E0"/>
<path d="M216.741 7.685C216.741 7.82564 197.081 7.94619 172.803 7.94619C148.526 7.94619 128.866 7.82564 128.866 7.685C128.866 7.54437 148.526 7.42383 172.803 7.42383C197.081 7.42383 216.741 7.53432 216.741 7.685Z" fill="#E0E0E0"/>
<path d="M135.861 4.21893C135.855 4.45872 135.787 4.69078 135.667 4.88588C135.547 5.08098 135.381 5.23038 135.188 5.31527C134.996 5.40015 134.786 5.41672 134.586 5.36289C134.385 5.30906 134.203 5.18724 134.062 5.01277C133.92 4.8383 133.826 4.61899 133.792 4.38246C133.757 4.14594 133.784 3.90278 133.867 3.68362C133.951 3.46447 134.089 3.27912 134.263 3.15093C134.437 3.02273 134.639 2.95743 134.845 2.96325C134.982 2.96714 135.118 3.00279 135.244 3.06815C135.37 3.1335 135.483 3.22725 135.578 3.34401C135.672 3.46076 135.746 3.59818 135.795 3.74835C135.843 3.89852 135.866 4.05846 135.861 4.21893Z" fill="white"/>
<path d="M140.333 4.21906C140.326 4.45759 140.259 4.68852 140.14 4.88305C140.022 5.07759 139.857 5.22711 139.666 5.31298C139.475 5.39884 139.266 5.41725 139.067 5.36591C138.867 5.31457 138.684 5.19575 138.542 5.02427C138.399 4.85279 138.303 4.63624 138.266 4.40161C138.228 4.16699 138.251 3.92469 138.331 3.70491C138.411 3.48514 138.544 3.29763 138.715 3.16576C138.885 3.0339 139.085 2.96351 139.29 2.96338C139.43 2.96329 139.568 2.99601 139.697 3.05959C139.826 3.12318 139.942 3.21632 140.04 3.33348C140.137 3.45064 140.213 3.58942 140.263 3.74156C140.314 3.8937 140.337 4.05609 140.333 4.21906Z" fill="white"/>
<path d="M144.804 4.21906C144.797 4.45759 144.73 4.68852 144.612 4.88305C144.493 5.07759 144.328 5.22711 144.137 5.31298C143.946 5.39884 143.738 5.41725 143.538 5.36591C143.338 5.31457 143.155 5.19575 143.013 5.02427C142.871 4.85279 142.775 4.63624 142.737 4.40161C142.7 4.16699 142.722 3.92469 142.802 3.70491C142.882 3.48514 143.015 3.29763 143.186 3.16576C143.357 3.0339 143.557 2.96351 143.761 2.96338C143.901 2.96329 144.04 2.99601 144.168 3.05959C144.297 3.12318 144.414 3.21632 144.511 3.33348C144.608 3.45064 144.684 3.58942 144.735 3.74156C144.785 3.8937 144.808 4.05609 144.804 4.21906Z" fill="white"/>
<path d="M448.179 199.402H404.138V365.614H448.179V199.402Z" fill="#EBEBEB"/>
<path d="M485.569 199.433H448.179V365.584H485.569V199.433Z" fill="#E0E0E0"/>
<path d="M442.907 206.132H407.576V241.934H442.907V206.132Z" fill="#E0E0E0"/>
<path d="M442.907 245.994H407.576V281.796H442.907V245.994Z" fill="#E0E0E0"/>
<path d="M442.907 285.853H407.576V321.655H442.907V285.853Z" fill="#E0E0E0"/>
<path d="M442.907 325.724H407.576V361.526H442.907V325.724Z" fill="#E0E0E0"/>
<path d="M425.245 212.741C425.247 213.026 425.176 213.305 425.041 213.542C424.907 213.78 424.715 213.965 424.49 214.076C424.265 214.186 424.017 214.216 423.778 214.162C423.538 214.107 423.318 213.971 423.145 213.771C422.972 213.57 422.854 213.314 422.805 213.035C422.757 212.756 422.781 212.467 422.874 212.204C422.967 211.941 423.125 211.716 423.328 211.558C423.53 211.399 423.769 211.315 424.013 211.315C424.338 211.315 424.65 211.465 424.881 211.732C425.112 211.999 425.243 212.362 425.245 212.741Z" fill="#FAFAFA"/>
<path d="M425.245 253.095C425.247 253.379 425.176 253.658 425.041 253.896C424.907 254.133 424.715 254.319 424.49 254.429C424.265 254.539 424.017 254.569 423.778 254.515C423.538 254.461 423.318 254.325 423.145 254.124C422.972 253.924 422.854 253.668 422.805 253.389C422.757 253.11 422.781 252.821 422.874 252.558C422.967 252.295 423.125 252.07 423.328 251.911C423.53 251.753 423.769 251.668 424.013 251.668C424.338 251.668 424.65 251.818 424.881 252.086C425.112 252.353 425.243 252.716 425.245 253.095Z" fill="#FAFAFA"/>
<path d="M425.245 293.397C425.245 293.681 425.173 293.959 425.037 294.195C424.902 294.431 424.71 294.615 424.484 294.724C424.259 294.833 424.012 294.861 423.773 294.806C423.534 294.75 423.314 294.614 423.142 294.413C422.97 294.212 422.852 293.956 422.805 293.677C422.757 293.399 422.782 293.11 422.875 292.847C422.968 292.585 423.126 292.36 423.329 292.203C423.531 292.045 423.769 291.96 424.013 291.96C424.34 291.96 424.653 292.112 424.884 292.381C425.115 292.651 425.245 293.016 425.245 293.397Z" fill="#FAFAFA"/>
<path d="M425.245 333.719C425.247 334.003 425.176 334.282 425.041 334.52C424.907 334.757 424.715 334.943 424.49 335.053C424.265 335.164 424.017 335.193 423.778 335.139C423.538 335.085 423.318 334.949 423.145 334.748C422.972 334.548 422.854 334.292 422.805 334.013C422.757 333.734 422.781 333.445 422.874 333.182C422.967 332.919 423.125 332.694 423.328 332.535C423.53 332.377 423.769 332.292 424.013 332.292C424.338 332.292 424.65 332.442 424.881 332.71C425.112 332.977 425.243 333.34 425.245 333.719Z" fill="#FAFAFA"/>
<path d="M409.23 365.613H404.138V398.954H409.23V365.613Z" fill="#E0E0E0"/>
<path d="M447.998 365.613H442.906V398.954H447.998V365.613Z" fill="#E0E0E0"/>
<path d="M485.018 365.613H479.927V398.954H485.018V365.613Z" fill="#E0E0E0"/>
<path d="M34.1677 389.542C32.8668 388.246 29.9549 384.128 32.1948 379.336C33.0564 377.588 34.7794 376.714 36.356 375.94C37.9811 375.301 39.5145 374.38 40.9048 373.208C43.3773 370.767 44.0579 366.709 45.6948 363.454C47.5816 359.727 51.0965 356.924 54.8097 357.125C59.057 357.346 62.5634 361.375 64.2089 365.965C65.8544 370.556 65.8716 375.659 65.9319 380.622C65.9319 383.364 65.8457 386.458 64.1055 388.316C62.5117 390.024 60.0994 390.044 57.9284 389.964L34.6674 389.14" fill="#F5F5F5"/>
<path d="M78.5961 315.377H17.5059L28.5161 391.531C28.7394 393.116 29.3436 394.594 30.2586 395.795C31.1735 396.995 32.3617 397.868 33.6852 398.312L33.9006 398.382C34.079 398.447 34.2602 398.5 34.4433 398.543C34.8792 398.66 35.3232 398.731 35.7701 398.754V398.824L36.0716 398.774H63.2956C63.7991 398.771 64.3012 398.71 64.7946 398.593C66.3815 398.313 67.8456 397.433 68.9617 396.088C70.0777 394.743 70.7839 393.008 70.9717 391.15L76.2614 338.672L76.5026 336.583L78.5961 315.799V315.377ZM67.069 363.957H60.8058L61.4347 341.857H68.6973L67.069 363.957ZM69.309 341.857H75.3396L73.0997 363.957H67.6462L69.309 341.857ZM51.398 388.458L51.0189 369.261H60.0476L59.4963 388.458H51.398ZM41.637 369.261H50.4159L50.8035 388.458H42.9207L41.637 369.261ZM42.3176 388.458H34.9602C34.2624 383.274 33.3492 376.534 32.3757 369.261H41.0425L42.3176 388.458ZM41.2838 363.957L39.802 341.857H49.8645L50.3039 363.957H41.2838ZM50.9155 363.957L50.4762 341.857H60.8144L60.1769 363.957H50.9155ZM50.3642 336.553L49.9593 316.08H61.5639L60.9781 336.553H50.3642ZM49.7611 336.553H39.4229L38.0531 316.08H49.3304L49.7611 336.553ZM38.8371 336.553H27.9302C27.5425 333.73 27.1721 331.048 26.8447 328.647C25.7075 320.37 25.2768 317.255 25.0441 316.08H37.4931L38.8371 336.553ZM39.1989 341.857L40.6721 363.957H31.652C31.3505 361.717 31.0403 359.446 30.7302 357.176C30.0237 351.962 29.3173 346.739 28.6539 341.857H39.1989ZM31.0403 363.957H25.1389L21.9513 341.857H28.0164L31.0403 363.957ZM31.7554 369.261C32.6169 375.901 33.5387 382.45 34.3399 388.458H28.6711L25.897 369.261H31.7554ZM60.0993 388.458L60.6507 369.261H66.6813L65.2685 388.458H60.0993ZM61.6156 336.583L62.2014 316.11H70.6185L69.1194 336.583H61.6156ZM24.4928 316.11C24.734 317.597 25.8454 325.653 27.3444 336.583H21.2104L18.2468 316.11H24.4928ZM70.6271 388.437H65.9232L67.3361 369.241H72.5827L70.6271 388.437ZM75.8737 336.533H69.7225L71.2302 316.06H77.9414L75.8737 336.533Z" fill="#E0E0E0"/>
<path d="M261.643 181.651H166.101L173.166 102.292H269.518L261.643 181.651Z" fill="#263238"/>
<path d="M256.784 181.651H161.233L168.298 102.292H264.65L256.784 181.651Z" fill="#455A64"/>
<path d="M253.235 178.055H164.576L171.133 104.422H260.541L253.235 178.055Z" fill="#F5F5F5"/>
<path d="M174.191 165.779C174.061 165.779 174.94 154.679 176.155 141.037C177.37 127.395 178.438 116.325 178.558 116.345C178.679 116.365 177.809 127.395 176.594 141.087C175.379 154.779 174.311 165.789 174.191 165.779Z" fill="#263238"/>
<path d="M190.327 118.808C187.368 119.156 184.386 119.156 181.427 118.808C184.386 118.459 187.368 118.459 190.327 118.808Z" fill="#263238"/>
<path d="M228.199 118.808C228.199 118.948 220.265 119.069 210.469 119.069C200.674 119.069 192.748 118.948 192.748 118.808C192.748 118.667 200.682 118.546 210.469 118.546C220.256 118.546 228.199 118.667 228.199 118.808Z" fill="#219EBC"/>
<path d="M189.284 144.976C186.322 145.324 183.338 145.324 180.376 144.976C183.338 144.627 186.322 144.627 189.284 144.976Z" fill="#263238"/>
<path d="M227.149 144.976C227.149 145.126 219.214 145.237 209.427 145.237C199.64 145.237 191.697 145.126 191.697 144.976C191.697 144.825 199.632 144.714 209.427 144.714C219.223 144.714 227.149 144.835 227.149 144.976Z" fill="#219EBC"/>
<path d="M215.069 157.04C215.069 157.181 207.135 157.301 197.348 157.301C187.561 157.301 179.618 157.181 179.618 157.04C179.618 156.899 187.552 156.779 197.348 156.779C207.143 156.779 215.069 156.899 215.069 157.04Z" fill="#219EBC"/>
<path d="M194.29 126.19C192.211 126.461 190.117 126.552 188.026 126.461C185.936 126.552 183.842 126.461 181.763 126.19C183.843 125.932 185.936 125.845 188.026 125.929C190.117 125.845 192.21 125.932 194.29 126.19Z" fill="#219EBC"/>
<path d="M193.937 137.031C191.857 137.289 189.764 137.376 187.674 137.292C185.583 137.376 183.49 137.289 181.41 137.031C183.49 136.766 185.583 136.679 187.674 136.769C189.764 136.679 191.857 136.766 193.937 137.031Z" fill="#219EBC"/>
<path d="M204.525 152.509C202.445 152.768 200.352 152.855 198.262 152.771C196.171 152.855 194.078 152.768 191.998 152.509C194.078 152.245 196.171 152.157 198.262 152.248C200.352 152.158 202.445 152.245 204.525 152.509Z" fill="#219EBC"/>
<path d="M239.804 126.191C239.804 126.342 232.645 126.463 223.815 126.463C214.984 126.463 207.816 126.342 207.816 126.191C207.816 126.041 214.975 125.93 223.815 125.93C232.654 125.93 239.804 126.051 239.804 126.191Z" fill="#263238"/>
<path d="M229.931 137.653C229.931 137.803 222.772 137.914 213.942 137.914C205.111 137.914 197.943 137.803 197.943 137.653C197.943 137.502 205.102 137.392 213.942 137.392C222.781 137.392 229.931 137.512 229.931 137.653Z" fill="#263238"/>
<path d="M240.941 152.509C240.941 152.65 233.782 152.77 224.951 152.77C216.121 152.77 208.936 152.64 208.936 152.509C208.936 152.379 216.095 152.248 224.934 152.248C233.773 152.248 240.941 152.359 240.941 152.509Z" fill="#263238"/>
<path d="M211.736 165.78C211.736 165.921 204.568 166.041 195.737 166.041C186.907 166.041 179.739 165.921 179.739 165.78C179.739 165.64 186.907 165.519 195.737 165.519C204.568 165.519 211.736 165.63 211.736 165.78Z" fill="#263238"/>
<path d="M247.11 165.78C247.11 165.921 239.951 166.041 231.12 166.041C222.29 166.041 215.122 165.921 215.122 165.78C215.122 165.64 222.281 165.519 231.12 165.519C239.959 165.519 247.11 165.63 247.11 165.78Z" fill="#263238"/>
<path d="M211.727 170.09C211.727 170.24 204.568 170.351 195.737 170.351C186.907 170.351 179.739 170.24 179.739 170.09C179.739 169.939 186.898 169.829 195.737 169.829C204.576 169.829 211.727 169.949 211.727 170.09Z" fill="#263238"/>
<path d="M213.286 129.304C213.286 129.445 206.127 129.565 197.296 129.565C188.466 129.565 181.298 129.445 181.298 129.304C181.298 129.164 188.457 129.043 197.296 129.043C206.136 129.043 213.286 129.164 213.286 129.304Z" fill="#263238"/>
<path d="M204.757 126.241C202.017 126.589 199.252 126.589 196.512 126.241C199.252 125.879 202.017 125.879 204.757 126.241Z" fill="#455A64"/>
<path d="M188.259 148.532C185.522 148.88 182.76 148.88 180.023 148.532C182.76 148.183 185.522 148.183 188.259 148.532Z" fill="#455A64"/>
<path d="M188.035 152.509C185.298 152.857 182.536 152.857 179.799 152.509C182.536 152.161 185.298 152.161 188.035 152.509Z" fill="#455A64"/>
<path d="M259.429 112.287C259.429 112.428 239.493 112.549 214.897 112.549C190.301 112.549 170.365 112.428 170.365 112.287C170.365 112.147 190.301 112.016 214.897 112.016C239.493 112.016 259.429 112.137 259.429 112.287Z" fill="#263238"/>
<path d="M177.43 108.772C177.43 109.017 177.367 109.256 177.25 109.459C177.134 109.663 176.968 109.821 176.773 109.914C176.579 110.007 176.366 110.031 176.16 109.983C175.954 109.934 175.765 109.816 175.618 109.642C175.47 109.468 175.37 109.247 175.33 109.007C175.29 108.766 175.312 108.518 175.393 108.292C175.475 108.066 175.612 107.874 175.788 107.74C175.963 107.605 176.169 107.534 176.379 107.536C176.517 107.536 176.655 107.568 176.783 107.63C176.911 107.693 177.027 107.784 177.125 107.899C177.223 108.014 177.3 108.15 177.352 108.3C177.404 108.45 177.431 108.61 177.43 108.772Z" fill="white"/>
<path d="M181.961 108.772C181.961 109.017 181.899 109.256 181.782 109.459C181.665 109.663 181.499 109.821 181.305 109.914C181.111 110.007 180.897 110.031 180.692 109.983C180.486 109.934 180.297 109.816 180.149 109.642C180.001 109.468 179.901 109.247 179.861 109.007C179.821 108.766 179.843 108.518 179.925 108.292C180.006 108.066 180.144 107.874 180.319 107.74C180.494 107.605 180.7 107.534 180.91 107.536C181.049 107.536 181.186 107.568 181.314 107.63C181.442 107.693 181.559 107.784 181.656 107.899C181.754 108.014 181.831 108.15 181.884 108.3C181.936 108.45 181.962 108.61 181.961 108.772Z" fill="white"/>
<path d="M186.536 108.772C186.536 109.017 186.474 109.256 186.357 109.459C186.24 109.663 186.074 109.821 185.88 109.914C185.686 110.007 185.473 110.031 185.267 109.983C185.061 109.934 184.872 109.816 184.724 109.642C184.576 109.468 184.476 109.247 184.436 109.007C184.396 108.766 184.419 108.518 184.5 108.292C184.582 108.066 184.719 107.874 184.894 107.74C185.07 107.605 185.275 107.534 185.485 107.536C185.624 107.536 185.761 107.568 185.89 107.63C186.018 107.693 186.134 107.784 186.232 107.899C186.329 108.014 186.407 108.15 186.459 108.3C186.511 108.45 186.537 108.61 186.536 108.772Z" fill="white"/>
<path d="M387.158 184.062H286.653L294.079 100.574H395.446L387.158 184.062Z" fill="#263238"/>
<path d="M382.04 184.062H281.535L288.97 100.574H390.328L382.04 184.062Z" fill="#455A64"/>
<path d="M378.319 180.275H285.059L291.951 102.814H386.003L378.319 180.275Z" fill="#EBEBEB"/>
<path d="M295.217 166.192C295.096 166.192 296.026 154.519 297.293 140.164C298.559 125.809 299.696 114.176 299.817 114.196C299.938 114.216 299.007 125.859 297.741 140.224C296.474 154.589 295.337 166.202 295.217 166.192Z" fill="#263238"/>
<path d="M312.198 116.788C309.083 117.137 305.947 117.137 302.833 116.788C305.947 116.427 309.084 116.427 312.198 116.788Z" fill="#263238"/>
<path d="M352.033 116.788C352.033 116.929 343.685 117.049 333.381 117.049C323.078 117.049 314.738 116.929 314.738 116.788C314.738 116.648 323.086 116.517 333.381 116.517C343.677 116.517 352.033 116.638 352.033 116.788Z" fill="#219EBC"/>
<path d="M311.094 144.313C307.98 144.661 304.844 144.661 301.73 144.313C304.844 143.965 307.98 143.965 311.094 144.313Z" fill="#263238"/>
<path d="M350.931 144.313C350.931 144.454 342.575 144.574 332.279 144.574C321.984 144.574 313.636 144.454 313.636 144.313C313.636 144.172 321.984 144.052 332.279 144.052C342.575 144.052 350.931 144.172 350.931 144.313Z" fill="#219EBC"/>
<path d="M338.224 157C338.224 157.151 329.876 157.262 319.581 157.262C309.286 157.262 300.929 157.151 300.929 157C300.929 156.85 309.277 156.739 319.581 156.739C329.885 156.739 338.224 156.86 338.224 157Z" fill="#219EBC"/>
<path d="M316.324 124.512C311.938 124.86 307.537 124.86 303.151 124.512C307.537 124.164 311.938 124.164 316.324 124.512Z" fill="#219EBC"/>
<path d="M315.988 135.945C311.603 136.306 307.201 136.306 302.816 135.945C307.201 135.597 311.603 135.597 315.988 135.945Z" fill="#219EBC"/>
<path d="M327.127 152.239C322.742 152.587 318.341 152.587 313.955 152.239C318.341 151.89 322.742 151.89 327.127 152.239Z" fill="#219EBC"/>
<path d="M364.242 124.512C364.242 124.663 356.712 124.773 347.416 124.773C338.12 124.773 330.591 124.663 330.591 124.512C330.591 124.361 338.12 124.251 347.416 124.251C356.712 124.251 364.242 124.412 364.242 124.512Z" fill="#263238"/>
<path d="M353.861 136.568C353.861 136.718 346.322 136.829 337.035 136.829C327.748 136.829 320.21 136.718 320.21 136.568C320.21 136.417 327.739 136.307 337.035 136.307C346.331 136.307 353.861 136.467 353.861 136.568Z" fill="#263238"/>
<path d="M365.439 152.239C365.439 152.379 357.901 152.5 348.613 152.5C339.326 152.5 331.788 152.379 331.788 152.239C331.788 152.098 339.318 151.978 348.613 151.978C357.909 151.978 365.439 152.088 365.439 152.239Z" fill="#263238"/>
<path d="M334.717 166.192C334.717 166.332 327.188 166.453 317.892 166.453C308.596 166.453 301.066 166.332 301.066 166.192C301.066 166.051 308.605 165.931 317.892 165.931C327.179 165.931 334.717 166.051 334.717 166.192Z" fill="#263238"/>
<path d="M371.926 166.192C371.926 166.332 364.388 166.453 355.101 166.453C345.814 166.453 338.275 166.332 338.275 166.192C338.275 166.051 345.805 165.931 355.101 165.931C364.397 165.931 371.926 166.051 371.926 166.192Z" fill="#263238"/>
<path d="M334.717 170.722C334.717 170.863 327.188 170.983 317.892 170.983C308.596 170.983 301.066 170.863 301.066 170.722C301.066 170.581 308.596 170.461 317.892 170.461C327.188 170.461 334.717 170.592 334.717 170.722Z" fill="#263238"/>
<path d="M336.345 127.828C336.345 127.968 328.815 128.089 319.52 128.089C310.224 128.089 302.694 127.968 302.694 127.828C302.694 127.687 310.224 127.566 319.52 127.566C328.815 127.566 336.345 127.687 336.345 127.828Z" fill="#263238"/>
<path d="M327.369 124.594C324.488 124.942 321.583 124.942 318.702 124.594C321.583 124.246 324.488 124.246 327.369 124.594Z" fill="#455A64"/>
<path d="M309.992 148.049C307.111 148.397 304.207 148.397 301.325 148.049C304.207 147.701 307.111 147.701 309.992 148.049Z" fill="#455A64"/>
<path d="M309.785 152.239C306.904 152.587 303.999 152.587 301.118 152.239C303.999 151.89 306.904 151.89 309.785 152.239Z" fill="#455A64"/>
<path d="M384.884 109.917C384.884 110.068 363.915 110.179 338.043 110.179C312.172 110.179 291.202 110.068 291.202 109.917C291.202 109.767 312.172 109.656 338.043 109.656C363.915 109.656 384.884 109.777 384.884 109.917Z" fill="#263238"/>
<path d="M298.628 106.23C298.628 106.487 298.563 106.737 298.441 106.95C298.319 107.164 298.146 107.33 297.942 107.428C297.739 107.526 297.516 107.551 297.3 107.501C297.085 107.451 296.887 107.328 296.731 107.147C296.576 106.966 296.47 106.735 296.427 106.483C296.384 106.232 296.406 105.971 296.49 105.735C296.574 105.498 296.717 105.295 296.9 105.153C297.082 105.011 297.297 104.935 297.517 104.935C297.663 104.933 297.808 104.966 297.944 105.031C298.079 105.095 298.202 105.191 298.306 105.311C298.409 105.432 298.491 105.575 298.546 105.733C298.602 105.891 298.63 106.06 298.628 106.23Z" fill="white"/>
<path d="M303.392 106.23C303.392 106.487 303.327 106.737 303.205 106.95C303.083 107.164 302.909 107.33 302.706 107.428C302.503 107.526 302.28 107.551 302.064 107.501C301.849 107.451 301.651 107.328 301.495 107.147C301.34 106.966 301.234 106.735 301.191 106.483C301.148 106.232 301.17 105.971 301.254 105.735C301.338 105.498 301.481 105.295 301.664 105.153C301.846 105.011 302.061 104.935 302.281 104.935C302.427 104.933 302.572 104.966 302.708 105.031C302.843 105.095 302.966 105.191 303.069 105.311C303.173 105.432 303.255 105.575 303.31 105.733C303.366 105.891 303.394 106.06 303.392 106.23Z" fill="white"/>
<path d="M308.165 106.23C308.165 106.487 308.1 106.737 307.978 106.95C307.855 107.164 307.682 107.33 307.479 107.428C307.276 107.526 307.052 107.551 306.837 107.501C306.621 107.451 306.423 107.328 306.268 107.147C306.112 106.966 306.006 106.735 305.963 106.483C305.921 106.232 305.943 105.971 306.027 105.735C306.111 105.498 306.253 105.295 306.436 105.153C306.619 105.011 306.834 104.935 307.054 104.935C307.2 104.933 307.345 104.966 307.48 105.031C307.616 105.095 307.739 105.191 307.842 105.311C307.945 105.432 308.027 105.575 308.083 105.733C308.138 105.891 308.166 106.06 308.165 106.23Z" fill="white"/>
<path d="M329.815 85.2352H233.834L240.933 5.51465H337.724L329.815 85.2352Z" fill="#263238"/>
<path d="M324.93 85.2352H228.948L236.047 5.51465H332.839L324.93 85.2352Z" fill="#455A64"/>
<path d="M321.364 81.6289H232.309L238.891 7.6543H328.704L321.364 81.6289Z" fill="#FAFAFA"/>
<path d="M242.096 69.263C241.975 69.263 242.862 58.1126 244.077 44.4106C245.292 30.7086 246.369 19.5883 246.498 19.6084C246.627 19.6285 245.731 30.7488 244.517 44.4608C243.302 58.1729 242.225 69.263 242.096 69.263Z" fill="#263238"/>
<path d="M258.317 22.0498C255.344 22.398 252.348 22.398 249.375 22.0498C252.348 21.7015 255.344 21.7015 258.317 22.0498Z" fill="#263238"/>
<path d="M296.354 22.0498C296.354 22.1904 288.385 22.311 278.546 22.311C268.708 22.311 260.739 22.1904 260.739 22.0498C260.739 21.9091 268.708 21.7886 278.546 21.7886C288.385 21.7886 296.354 21.879 296.354 22.0498Z" fill="#219EBC"/>
<path d="M257.258 48.3183C254.285 48.6665 251.289 48.6665 248.315 48.3183C251.289 47.9701 254.285 47.9701 257.258 48.3183Z" fill="#263238"/>
<path d="M295.303 48.3183C295.303 48.459 287.326 48.5795 277.496 48.5795C267.666 48.5795 259.688 48.459 259.688 48.3183C259.688 48.1777 267.657 48.0571 277.496 48.0571C287.334 48.0571 295.303 48.1676 295.303 48.3183Z" fill="#219EBC"/>
<path d="M283.173 60.4336C283.173 60.5742 275.195 60.6947 265.365 60.6947C255.535 60.6947 247.557 60.5742 247.557 60.4336C247.557 60.2929 255.526 60.1724 265.365 60.1724C275.204 60.1724 283.173 60.2929 283.173 60.4336Z" fill="#219EBC"/>
<path d="M262.255 29.4531C258.067 29.8013 253.864 29.8013 249.677 29.4531C253.864 29.1048 258.067 29.1048 262.255 29.4531Z" fill="#219EBC"/>
<path d="M261.936 40.3325C257.749 40.6807 253.546 40.6807 249.358 40.3325C253.546 39.9842 257.749 39.9842 261.936 40.3325Z" fill="#219EBC"/>
<path d="M272.567 55.8823C268.38 56.2305 264.177 56.2305 259.989 55.8823C264.177 55.534 268.38 55.534 272.567 55.8823Z" fill="#219EBC"/>
<path d="M308.011 29.4531C308.011 29.5937 300.817 29.7143 291.944 29.7143C283.07 29.7143 275.876 29.5937 275.876 29.4531C275.876 29.3124 283.061 29.1919 291.944 29.1919C300.826 29.1919 308.011 29.3024 308.011 29.4531Z" fill="#263238"/>
<path d="M298.094 40.9648C298.094 41.1054 290.9 41.226 282.027 41.226C273.153 41.226 265.959 41.1054 265.959 40.9648C265.959 40.8242 273.153 40.7036 282.027 40.7036C290.9 40.7036 298.094 40.8141 298.094 40.9648Z" fill="#263238"/>
<path d="M309.156 55.8823C309.156 56.0229 301.962 56.1435 293.089 56.1435C284.215 56.1435 277.021 56.0229 277.021 55.8823C277.021 55.7416 284.215 55.6211 293.089 55.6211C301.962 55.6211 309.156 55.7316 309.156 55.8823Z" fill="#263238"/>
<path d="M279.813 69.2631C279.813 69.4038 272.619 69.5243 263.745 69.5243C254.872 69.5243 247.704 69.3535 247.704 69.2631C247.704 69.1727 254.898 69.002 263.771 69.002C272.645 69.002 279.813 69.0622 279.813 69.2631Z" fill="#263238"/>
<path d="M315.351 69.2631C315.351 69.4038 308.157 69.5243 299.284 69.5243C290.41 69.5243 283.216 69.4038 283.216 69.2631C283.216 69.1225 290.41 69.002 299.284 69.002C308.157 69.002 315.351 69.0622 315.351 69.2631Z" fill="#263238"/>
<path d="M279.813 73.5424C279.813 73.6931 272.619 73.8036 263.746 73.8036C254.872 73.8036 247.678 73.6931 247.678 73.5424C247.678 73.3917 254.872 73.2812 263.746 73.2812C272.619 73.2812 279.813 73.4018 279.813 73.5424Z" fill="#263238"/>
<path d="M281.372 32.5771C281.372 32.7177 274.179 32.8383 265.305 32.8383C256.431 32.8383 249.238 32.7177 249.238 32.5771C249.238 32.4365 256.431 32.3159 265.305 32.3159C274.179 32.3159 281.372 32.4264 281.372 32.5771Z" fill="#263238"/>
<path d="M272.809 29.4936C270.057 29.8418 267.281 29.8418 264.53 29.4936C267.281 29.1454 270.057 29.1454 272.809 29.4936Z" fill="#455A64"/>
<path d="M256.208 51.8842C253.456 52.2325 250.68 52.2325 247.928 51.8842C250.68 51.536 253.456 51.536 256.208 51.8842Z" fill="#455A64"/>
<path d="M256.017 55.8823C253.266 56.2305 250.49 56.2305 247.738 55.8823C250.49 55.534 253.266 55.534 256.017 55.8823Z" fill="#455A64"/>
<path d="M327.722 15.4697C327.722 15.6204 307.7 15.7409 283 15.7409C258.301 15.7409 238.227 15.6204 238.227 15.4697C238.227 15.319 258.249 15.2085 282.966 15.2085C307.683 15.2085 327.722 15.329 327.722 15.4697Z" fill="#263238"/>
<path d="M244.301 13.1792C244.887 13.1792 245.361 12.626 245.361 11.9436C245.361 11.2612 244.887 10.708 244.301 10.708C243.716 10.708 243.242 11.2612 243.242 11.9436C243.242 12.626 243.716 13.1792 244.301 13.1792Z" fill="white"/>
<path d="M248.849 13.1792C249.434 13.1792 249.909 12.626 249.909 11.9436C249.909 11.2612 249.434 10.708 248.849 10.708C248.264 10.708 247.79 11.2612 247.79 11.9436C247.79 12.626 248.264 13.1792 248.849 13.1792Z" fill="white"/>
<path d="M253.399 13.1792C253.984 13.1792 254.458 12.626 254.458 11.9436C254.458 11.2612 253.984 10.708 253.399 10.708C252.814 10.708 252.339 11.2612 252.339 11.9436C252.339 12.626 252.814 13.1792 253.399 13.1792Z" fill="white"/>
<path d="M167.221 386.389H159.743V398.282H167.221V386.389Z" fill="#263238"/>
<path d="M207.307 247.601H273.652V243.834H207.307V247.601Z" fill="#263238"/>
<path d="M283.931 247.6L296.38 193.224H244.568L233.3 247.6H283.931Z" fill="#263238"/>
<path d="M236.409 243.491H282.69L293.459 195.735H246.937L236.409 243.491Z" fill="#F5F5F5"/>
<path d="M248.091 204.987L245.222 218.508H275.909L279.183 204.987H248.091Z" fill="#E0E0E0"/>
<path d="M272.688 203.2C272.688 203.35 267.312 203.461 260.67 203.461C254.027 203.461 248.651 203.35 248.651 203.2C248.651 203.049 254.027 202.938 260.67 202.938C267.312 202.938 272.688 203.059 272.688 203.2Z" fill="#455A64"/>
<path d="M258.722 207.57C255.499 207.918 252.254 207.918 249.03 207.57C252.254 207.222 255.499 207.222 258.722 207.57Z" fill="#263238"/>
<path d="M266.493 207.359C264.401 207.707 262.278 207.707 260.187 207.359C262.278 207.011 264.401 207.011 266.493 207.359Z" fill="#263238"/>
<path d="M275.272 210.021C275.272 210.172 269.336 210.292 262.013 210.292C254.69 210.292 248.754 210.172 248.754 210.021C248.754 209.87 254.69 209.76 262.013 209.76C269.336 209.76 275.272 209.9 275.272 210.021Z" fill="#455A64"/>
<path d="M256.801 212.26C253.937 212.611 251.05 212.611 248.186 212.26C251.05 211.91 253.937 211.91 256.801 212.26Z" fill="#219EBC"/>
<path d="M272.894 215.465C272.894 215.606 267.389 215.726 260.601 215.726C253.812 215.726 248.298 215.606 248.298 215.465C248.298 215.325 253.803 215.204 260.601 215.204C267.398 215.204 272.894 215.315 272.894 215.465Z" fill="#455A64"/>
<path d="M254.794 222.386C251.642 222.731 248.469 222.731 245.317 222.386C248.469 222.04 251.642 222.04 254.794 222.386Z" fill="#455A64"/>
<path d="M262.927 222.437C261.857 222.68 260.765 222.758 259.679 222.668C258.592 222.745 257.501 222.644 256.439 222.366C257.508 222.123 258.601 222.045 259.687 222.135C260.774 222.058 261.864 222.159 262.927 222.437Z" fill="#263238"/>
<path d="M267.519 222.176C267.519 222.327 266.898 222.437 266.14 222.437C265.382 222.437 264.77 222.327 264.77 222.176C264.77 222.026 265.391 221.915 266.14 221.915C266.89 221.915 267.519 222.036 267.519 222.176Z" fill="#263238"/>
<path d="M248.488 225.159C248.488 225.309 247.807 225.42 246.971 225.42C246.136 225.42 245.464 225.309 245.464 225.159C245.464 225.008 246.144 224.897 246.971 224.897C247.798 224.897 248.488 225.018 248.488 225.159Z" fill="#219EBC"/>
<path d="M257.534 225.159C255.137 225.507 252.712 225.507 250.314 225.159C252.712 224.81 255.137 224.81 257.534 225.159Z" fill="#263238"/>
<path d="M279.106 224.838C279.106 224.989 274.798 225.1 269.465 225.1C264.133 225.1 259.816 224.989 259.816 224.838C259.816 224.688 264.124 224.577 269.465 224.577C274.807 224.577 279.106 224.698 279.106 224.838Z" fill="#455A64"/>
<path d="M248.022 228.042C248.022 228.183 247.333 228.304 246.472 228.304C245.61 228.304 244.921 228.183 244.921 228.042C244.921 227.902 245.61 227.781 246.472 227.781C247.333 227.781 248.022 227.892 248.022 228.042Z" fill="#263238"/>
<path d="M252.778 227.981C252.181 228.24 251.54 228.33 250.908 228.242C250.273 228.329 249.63 228.24 249.03 227.981C249.631 227.729 250.273 227.639 250.908 227.72C251.54 227.639 252.18 227.728 252.778 227.981Z" fill="#263238"/>
<path d="M266.95 227.721C262.903 228.069 258.84 228.069 254.794 227.721C258.84 227.372 262.903 227.372 266.95 227.721Z" fill="#455A64"/>
<path d="M259.455 232.733C257.009 232.991 254.552 233.079 252.097 232.994C249.643 233.079 247.186 232.992 244.74 232.733C247.185 232.468 249.643 232.381 252.097 232.472C254.552 232.381 257.009 232.469 259.455 232.733Z" fill="#455A64"/>
<path d="M268.044 232.512C265.831 232.86 263.588 232.86 261.376 232.512C263.588 232.164 265.831 232.164 268.044 232.512Z" fill="#219EBC"/>
<path d="M280.803 232.512C277.122 232.86 273.422 232.86 269.741 232.512C273.422 232.164 277.122 232.164 280.803 232.512Z" fill="#263238"/>
<path d="M277.857 202.989C277.857 203.139 277.34 203.25 276.711 203.25C276.082 203.25 275.565 203.139 275.565 202.989C275.565 202.838 276.082 202.728 276.711 202.728C277.34 202.728 277.857 202.868 277.857 202.989Z" fill="#263238"/>
<path d="M254.519 201.181C252.855 201.529 251.151 201.529 249.487 201.181C251.151 200.832 252.855 200.832 254.519 201.181Z" fill="#219EBC"/>
<path d="M292.683 199.171H246.161L246.945 195.735H293.467L292.683 199.171Z" fill="#EBEBEB"/>
<path d="M248.902 198.066C249.182 198.066 249.41 197.801 249.41 197.474C249.41 197.146 249.182 196.881 248.902 196.881C248.621 196.881 248.393 197.146 248.393 197.474C248.393 197.801 248.621 198.066 248.902 198.066Z" fill="#FAFAFA"/>
<path d="M250.65 198.066C250.931 198.066 251.158 197.801 251.158 197.474C251.158 197.146 250.931 196.881 250.65 196.881C250.369 196.881 250.142 197.146 250.142 197.474C250.142 197.801 250.369 198.066 250.65 198.066Z" fill="#FAFAFA"/>
<path d="M252.399 198.066C252.68 198.066 252.907 197.801 252.907 197.474C252.907 197.146 252.68 196.881 252.399 196.881C252.118 196.881 251.891 197.146 251.891 197.474C251.891 197.801 252.118 198.066 252.399 198.066Z" fill="#FAFAFA"/>
<path d="M349.38 252.664H239.071V327.713H349.38V252.664Z" fill="#263238"/>
<path d="M289.323 252.664H239.071V327.713H289.323V252.664Z" fill="#455A64"/>
<path d="M284.206 278.149C284.193 278.022 284.193 277.894 284.206 277.767V276.672C284.206 275.668 284.206 274.291 284.163 272.503C284.163 268.877 284.111 263.693 284.076 257.305L284.24 257.495L243.818 257.566L244.042 257.305V262.719C244.042 264.507 244.042 266.285 244.042 268.023C244.042 271.509 244.042 274.894 244.042 278.129L243.835 277.888L272.791 277.998L281.199 278.068H283.456H284.051H284.257H284.076H283.508H281.294L272.928 278.129L243.835 278.249H243.62V277.998C243.62 274.764 243.62 271.378 243.62 267.892V257.325L243.844 257.063L284.266 257.134H284.43V257.325C284.387 263.764 284.361 268.987 284.335 272.634C284.335 274.402 284.335 275.788 284.335 276.763V277.827C284.214 278.038 284.206 278.209 284.206 278.149Z" fill="#263238"/>
<path d="M265.71 267.731C265.597 267.161 265.324 266.652 264.934 266.285C264.725 266.114 264.482 266.005 264.229 265.968C263.975 265.932 263.717 265.968 263.478 266.074C263.191 266.203 262.943 266.43 262.768 266.726C262.593 267.021 262.498 267.372 262.496 267.731C262.5 268.09 262.596 268.439 262.771 268.734C262.946 269.029 263.192 269.257 263.478 269.389C263.718 269.491 263.976 269.524 264.229 269.485C264.483 269.447 264.724 269.338 264.934 269.168C265.321 268.797 265.594 268.289 265.71 267.721C265.71 267.721 265.787 267.902 265.71 268.233C265.64 268.715 265.423 269.151 265.098 269.459C264.851 269.694 264.557 269.851 264.243 269.916C263.93 269.981 263.607 269.952 263.306 269.831C262.929 269.68 262.602 269.396 262.37 269.017C262.138 268.639 262.014 268.186 262.014 267.721C262.014 267.256 262.138 266.803 262.37 266.425C262.602 266.047 262.929 265.762 263.306 265.612C263.606 265.489 263.929 265.458 264.242 265.521C264.556 265.584 264.85 265.74 265.098 265.973C265.423 266.281 265.64 266.717 265.71 267.199C265.796 267.55 265.735 267.731 265.71 267.731Z" fill="#263238"/>
<path d="M284.206 301.103C284.194 300.973 284.194 300.842 284.206 300.712V299.617C284.206 298.612 284.206 297.236 284.163 295.448C284.163 291.831 284.112 286.648 284.077 280.249L284.241 280.44L243.818 280.52L244.042 280.259V285.673C244.042 287.472 244.042 289.24 244.042 290.988C244.042 294.473 244.042 297.859 244.042 301.093L243.836 300.842L272.791 300.963L281.2 301.033H283.457H284.051H284.258H284.077H283.509H281.295L272.929 301.103L243.836 301.224H243.62V300.973C243.62 297.738 243.62 294.353 243.62 290.867V280.269C243.568 280.269 244.042 279.767 243.844 279.998L284.267 280.078H284.43V280.219C284.387 286.668 284.362 291.892 284.336 295.538C284.336 297.306 284.336 298.682 284.336 299.667V300.722C284.215 300.993 284.206 301.113 284.206 301.103Z" fill="#263238"/>
<path d="M265.71 290.675C265.588 290.118 265.317 289.621 264.934 289.258C264.705 289.067 264.434 288.953 264.153 288.929C263.872 288.904 263.59 288.97 263.339 289.119C263.087 289.268 262.876 289.495 262.727 289.775C262.579 290.054 262.499 290.376 262.496 290.705C262.498 291.064 262.593 291.415 262.768 291.71C262.943 292.006 263.191 292.233 263.478 292.362C263.717 292.468 263.975 292.505 264.229 292.468C264.482 292.431 264.725 292.322 264.934 292.151C265.323 291.783 265.595 291.274 265.71 290.705C265.71 290.705 265.787 290.886 265.71 291.217C265.64 291.699 265.423 292.135 265.098 292.443C264.851 292.678 264.557 292.835 264.243 292.9C263.93 292.965 263.607 292.936 263.306 292.814C262.929 292.664 262.602 292.379 262.37 292.001C262.138 291.623 262.014 291.17 262.014 290.705C262.014 290.24 262.138 289.787 262.37 289.409C262.602 289.03 262.929 288.746 263.306 288.595C263.607 288.474 263.93 288.445 264.243 288.51C264.557 288.575 264.851 288.732 265.098 288.967C265.423 289.275 265.64 289.711 265.71 290.193C265.796 290.494 265.735 290.675 265.71 290.675Z" fill="#263238"/>
<path d="M284.206 324.046C284.193 323.92 284.193 323.791 284.206 323.665V322.57C284.206 321.565 284.206 320.189 284.163 318.401C284.163 314.774 284.111 309.591 284.076 303.202L284.24 303.393L243.818 303.463L244.042 303.202V308.616C244.042 310.405 244.042 312.183 244.042 313.92C244.042 317.406 244.042 320.792 244.042 324.026L243.835 323.785L272.791 323.896L281.199 323.966H283.456H284.051H284.257H284.076H283.508H281.294L272.928 324.026L243.835 324.147H243.62V323.896C243.62 320.661 243.62 317.276 243.62 313.79V303.222L243.844 302.961L284.266 303.031H284.43V303.222C284.387 309.661 284.361 314.885 284.335 318.531C284.335 320.299 284.335 321.686 284.335 322.66V323.725C284.214 323.936 284.206 324.056 284.206 324.046Z" fill="#263238"/>
<path d="M265.71 313.63C265.597 313.06 265.324 312.551 264.934 312.183C264.725 312.012 264.482 311.904 264.229 311.867C263.975 311.83 263.717 311.866 263.478 311.972C263.191 312.101 262.943 312.329 262.768 312.624C262.593 312.92 262.498 313.27 262.496 313.63C262.499 313.959 262.579 314.28 262.727 314.56C262.876 314.84 263.087 315.066 263.339 315.215C263.59 315.365 263.872 315.431 264.153 315.406C264.434 315.381 264.705 315.267 264.934 315.076C265.321 314.706 265.594 314.198 265.71 313.63C265.71 313.63 265.787 313.811 265.71 314.142C265.64 314.624 265.423 315.059 265.098 315.368C264.851 315.602 264.557 315.76 264.243 315.825C263.93 315.89 263.607 315.86 263.306 315.739C262.929 315.589 262.602 315.304 262.37 314.926C262.138 314.548 262.014 314.095 262.014 313.63C262.014 313.165 262.138 312.712 262.37 312.334C262.602 311.955 262.929 311.671 263.306 311.52C263.606 311.398 263.929 311.367 264.242 311.43C264.556 311.493 264.85 311.649 265.098 311.882C265.423 312.19 265.64 312.626 265.71 313.107C265.796 313.449 265.735 313.63 265.71 313.63Z" fill="#263238"/>
<path d="M165.609 388.799L91.8892 388.729V252.664H165.609V388.799Z" fill="#263238"/>
<path d="M353.386 247.43H88.3313V254.562H353.386V247.43Z" fill="#263238"/>
<path d="M100.108 254.561H91.8892V398.914H100.108V254.561Z" fill="#263238"/>
<path d="M349.38 254.561H341.161V398.954H349.38V254.561Z" fill="#263238"/>
<path d="M297.542 254.561H289.323V398.954H297.542V254.561Z" fill="#263238"/>
<path d="M125.601 247.43C125.601 247.57 117.7 247.691 107.957 247.691C98.2129 247.691 90.3127 247.57 90.3127 247.43C90.3127 247.289 98.2129 247.168 107.957 247.168C117.7 247.168 125.601 247.279 125.601 247.43Z" fill="#455A64"/>
<path d="M203.103 391.883L203.31 381.566L186.726 380.983L186.286 396.052L187.311 396.162C191.877 396.624 210.572 398.111 213.648 397.167C217.094 396.082 203.103 391.883 203.103 391.883Z" fill="#219EBC"/>
<g opacity="0.4">
<path opacity="0.4" d="M209.926 394.224C209.926 394.224 214.828 396.052 214.182 396.986C213.536 397.92 194.608 397.227 186.286 396.082V395.65L208.367 396.655C208.367 396.655 208.935 394.234 209.926 394.224Z" fill="white"/>
</g>
<path d="M186.062 395.63H186.347L187.208 395.721L190.215 395.982C192.756 396.183 196.245 396.394 200.157 396.544C204.068 396.695 207.566 396.725 210.116 396.715H213.131H213.993H214.277H213.993H213.131H210.116C207.574 396.715 204.085 396.615 200.165 396.474C196.245 396.334 192.765 396.143 190.223 395.982L187.208 395.801H186.347L186.062 395.63Z" fill="#263238"/>
<path d="M208.384 396.957C208.532 396.378 208.737 395.822 208.996 395.299C209.308 394.821 209.663 394.383 210.055 393.993C209.553 394.232 209.124 394.644 208.826 395.173C208.527 395.702 208.373 396.324 208.384 396.957Z" fill="#263238"/>
<path d="M203.568 393.893C203.611 393.893 203.861 393.601 204.111 393.169C204.361 392.737 204.533 392.346 204.49 392.315C204.447 392.285 204.197 392.597 203.947 393.039C203.698 393.481 203.525 393.852 203.568 393.893Z" fill="#263238"/>
<path d="M202.249 393.018C202.249 393.018 202.551 392.867 202.844 392.576C203.137 392.285 203.343 392.014 203.309 391.963C203.275 391.913 203.007 392.114 202.715 392.405C202.422 392.697 202.215 392.968 202.249 393.018Z" fill="#263238"/>
<path d="M201.449 391.16C201.723 391.283 202.017 391.337 202.31 391.32C202.599 391.372 202.894 391.344 203.172 391.24C202.897 391.119 202.604 391.064 202.31 391.079C201.836 391.059 201.449 391.089 201.449 391.16Z" fill="#263238"/>
<path d="M201.182 389.864C201.464 390.09 201.796 390.216 202.138 390.226C202.474 390.302 202.822 390.26 203.137 390.105C202.814 390.028 202.485 389.991 202.155 389.995C201.836 389.909 201.509 389.865 201.182 389.864Z" fill="#263238"/>
<path d="M204.18 392.224C204.53 392.294 204.889 392.294 205.239 392.224C205.627 392.18 206.01 392.095 206.385 391.973C206.612 391.904 206.831 391.806 207.04 391.682C207.169 391.604 207.268 391.471 207.316 391.31C207.336 391.219 207.333 391.123 207.307 391.034C207.281 390.944 207.233 390.866 207.169 390.808C206.769 390.561 206.307 390.483 205.862 390.587C205.418 390.691 205.018 390.972 204.731 391.381C204.561 391.623 204.435 391.904 204.361 392.204C204.342 392.314 204.342 392.426 204.361 392.536C204.484 392.17 204.659 391.83 204.878 391.531C205.124 391.214 205.444 390.987 205.799 390.878C206.224 390.732 206.681 390.783 207.074 391.019C207.238 391.17 207.161 391.401 206.971 391.531C206.777 391.642 206.575 391.733 206.368 391.802C206.004 391.934 205.633 392.034 205.257 392.104C204.628 392.194 204.18 392.184 204.18 392.224Z" fill="#263238"/>
<path d="M204.447 392.295C204.585 392.041 204.637 391.737 204.594 391.441C204.571 391.112 204.479 390.795 204.327 390.517C204.243 390.331 204.12 390.172 203.969 390.056C203.818 389.94 203.645 389.871 203.465 389.854C203.356 389.876 203.258 389.948 203.194 390.053C203.129 390.158 203.103 390.289 203.121 390.417C203.142 390.616 203.201 390.808 203.293 390.979C203.422 391.259 203.585 391.515 203.775 391.743C203.936 391.971 204.139 392.153 204.37 392.275C204.37 392.275 204.163 392.044 203.879 391.632C203.716 391.399 203.574 391.146 203.457 390.879C203.319 390.607 203.224 390.135 203.5 390.085C203.775 390.035 204.025 390.386 204.18 390.638C204.327 390.884 204.424 391.165 204.465 391.461C204.484 391.739 204.478 392.019 204.447 392.295Z" fill="#263238"/>
<path d="M186.536 390.346C186.536 390.396 187.019 390.346 187.759 390.447C188.735 390.602 189.652 391.079 190.403 391.821C191.153 392.563 191.707 393.539 191.998 394.636C192.11 395.095 192.202 395.561 192.274 396.032C192.296 395.903 192.296 395.77 192.274 395.64C192.245 395.301 192.193 394.965 192.119 394.636C191.852 393.487 191.292 392.46 190.514 391.691C189.735 390.921 188.775 390.445 187.759 390.326C187.456 390.29 187.15 390.29 186.846 390.326C186.743 390.318 186.638 390.325 186.536 390.346Z" fill="#263238"/>
<path d="M188.466 382.36C188.32 383.677 188.237 385.001 188.216 386.328C188.136 387.666 188.122 389.007 188.173 390.347C188.318 389.03 188.402 387.706 188.422 386.379C188.507 385.041 188.521 383.7 188.466 382.36Z" fill="#263238"/>
<path d="M194.436 394.324C195.223 394.571 196.034 394.696 196.849 394.695C197.66 394.769 198.477 394.721 199.278 394.555C199.278 394.485 198.192 394.555 196.857 394.464C195.522 394.374 194.445 394.264 194.436 394.324Z" fill="#263238"/>
<path d="M191.188 394.205C191.188 394.205 191.266 394.476 191.369 394.767C191.473 395.058 191.524 395.33 191.584 395.32C191.645 395.31 191.679 395.018 191.584 394.687C191.49 394.355 191.223 394.164 191.188 394.205Z" fill="#263238"/>
<path d="M189.982 392.386C189.982 392.386 190.042 392.637 190.206 392.848C190.37 393.059 190.542 393.189 190.585 393.139C190.628 393.089 190.525 392.898 190.352 392.687C190.18 392.476 190.051 392.345 189.982 392.386Z" fill="#263238"/>
<path d="M188.259 391.511C188.259 391.582 188.491 391.582 188.733 391.692C188.974 391.803 189.146 391.953 189.189 391.913C189.232 391.873 189.103 391.602 188.802 391.471C188.5 391.341 188.259 391.451 188.259 391.511Z" fill="#263238"/>
<path d="M187.035 391.079C187.035 391.139 187.113 391.24 187.242 391.31C187.371 391.38 187.509 391.38 187.526 391.31C187.544 391.24 187.458 391.139 187.32 391.079C187.182 391.019 187.061 391.019 187.035 391.079Z" fill="#263238"/>
<g opacity="0.3">
<path opacity="0.3" d="M186.571 389.834L203.146 390.105L203.181 387.774L186.476 388.598L186.571 389.834Z" fill="black"/>
</g>
<path d="M229.258 393.491V383.164L212.665 383.094L212.571 398.162L213.596 398.242C218.17 398.554 236.857 399.468 239.95 398.403C243.344 397.248 229.258 393.491 229.258 393.491Z" fill="#219EBC"/>
<g opacity="0.4">
<path opacity="0.4" d="M236.133 395.61C236.133 395.61 241.07 397.298 240.441 398.242C239.812 399.186 220.884 399.096 212.536 398.242V397.81L234.625 398.142C234.625 398.142 235.168 395.661 236.133 395.61Z" fill="white"/>
</g>
<path d="M212.312 397.75H212.597L213.415 397.81L216.431 397.981C218.972 398.101 222.461 398.212 226.381 398.232C230.301 398.252 233.79 398.232 236.34 398.101L239.356 397.971L240.174 397.91H240.458H239.356L236.34 397.96C233.756 397.96 230.267 398.051 226.381 398.031C222.496 398.011 218.981 397.92 216.431 397.85L213.415 397.75H212.312Z" fill="#263238"/>
<path d="M234.66 398.403C234.79 397.819 234.981 397.255 235.229 396.725C235.528 396.232 235.875 395.78 236.263 395.379C235.744 395.599 235.314 396.036 235.057 396.605C234.736 397.125 234.594 397.767 234.66 398.403Z" fill="#263238"/>
<path d="M229.776 395.48C229.819 395.48 230.052 395.179 230.301 394.737C230.551 394.295 230.698 393.913 230.655 393.873C230.612 393.833 230.37 394.174 230.129 394.616C229.888 395.058 229.724 395.44 229.776 395.48Z" fill="#263238"/>
<path d="M228.432 394.645C228.432 394.645 228.733 394.484 229.018 394.193C229.302 393.902 229.509 393.61 229.474 393.56C229.44 393.51 229.173 393.721 228.888 394.012C228.604 394.304 228.397 394.595 228.432 394.645Z" fill="#263238"/>
<path d="M227.588 392.818C227.864 392.932 228.157 392.977 228.449 392.949C228.739 392.99 229.033 392.956 229.311 392.848C229.311 392.777 228.932 392.717 228.449 392.717C227.967 392.717 227.588 392.727 227.588 392.818Z" fill="#263238"/>
<path d="M227.303 391.521C227.59 391.741 227.926 391.857 228.268 391.853C228.607 391.932 228.958 391.879 229.268 391.702C228.943 391.644 228.614 391.617 228.286 391.622C227.961 391.555 227.633 391.521 227.303 391.521Z" fill="#263238"/>
<path d="M230.344 393.791C230.694 393.868 231.053 393.868 231.403 393.791C231.79 393.741 232.171 393.644 232.541 393.5C232.769 393.431 232.989 393.33 233.195 393.198C233.323 393.111 233.418 392.971 233.462 392.807C233.478 392.715 233.471 392.62 233.442 392.533C233.413 392.445 233.363 392.37 233.299 392.314C232.893 392.079 232.43 392.016 231.988 392.135C231.546 392.254 231.154 392.548 230.878 392.967C230.717 393.214 230.597 393.493 230.525 393.791C230.502 393.903 230.502 394.02 230.525 394.133C230.639 393.768 230.805 393.429 231.016 393.128C231.258 392.801 231.575 392.561 231.929 392.435C232.347 392.275 232.802 392.315 233.195 392.545C233.368 392.696 233.299 392.927 233.109 393.058C232.921 393.179 232.721 393.277 232.515 393.349C232.154 393.49 231.786 393.601 231.412 393.681C230.749 393.731 230.344 393.731 230.344 393.791Z" fill="#263238"/>
<path d="M230.62 393.862C230.745 393.599 230.787 393.294 230.74 392.998C230.711 392.671 230.613 392.357 230.456 392.084C230.368 391.904 230.243 391.753 230.093 391.642C229.943 391.532 229.772 391.466 229.594 391.451C229.541 391.463 229.489 391.488 229.443 391.523C229.398 391.558 229.358 391.604 229.328 391.657C229.297 391.711 229.276 391.771 229.266 391.833C229.255 391.896 229.256 391.961 229.267 392.024C229.292 392.221 229.354 392.41 229.448 392.576C229.586 392.851 229.754 393.105 229.948 393.33C230.275 393.711 230.542 393.862 230.551 393.832C230.559 393.802 230.344 393.611 230.051 393.219C229.882 392.985 229.732 392.733 229.603 392.466C229.457 392.205 229.362 391.732 229.603 391.682C229.844 391.632 230.137 391.963 230.301 392.205C230.452 392.446 230.555 392.724 230.602 393.018C230.628 393.298 230.634 393.581 230.62 393.862Z" fill="#263238"/>
<path d="M212.666 392.466C212.666 392.466 213.139 392.415 213.889 392.526C214.866 392.658 215.791 393.107 216.56 393.822C217.323 394.545 217.898 395.502 218.222 396.584C218.472 397.408 218.498 397.971 218.533 397.961C218.549 397.831 218.549 397.699 218.533 397.569C218.5 397.229 218.443 396.893 218.36 396.564C218.066 395.425 217.483 394.416 216.688 393.671C215.893 392.925 214.923 392.477 213.906 392.385C213.602 392.353 213.297 392.353 212.993 392.385C212.778 392.415 212.666 392.446 212.666 392.466Z" fill="#263238"/>
<path d="M214.415 384.419C214.294 385.754 214.243 387.095 214.26 388.437C214.201 389.776 214.215 391.118 214.303 392.455C214.418 391.12 214.469 389.779 214.458 388.437C214.516 387.098 214.502 385.756 214.415 384.419Z" fill="#263238"/>
<path d="M220.652 396.203C221.445 396.421 222.258 396.519 223.073 396.494C223.887 396.542 224.704 396.468 225.502 396.273C225.502 396.213 224.408 396.273 223.073 396.273C221.737 396.273 220.66 396.132 220.652 396.203Z" fill="#263238"/>
<path d="M217.396 396.173C217.396 396.223 217.491 396.444 217.594 396.735C217.697 397.026 217.766 397.288 217.827 397.278C217.887 397.267 217.913 396.976 217.783 396.645C217.654 396.313 217.439 396.132 217.396 396.173Z" fill="#263238"/>
<path d="M216.18 394.395C216.137 394.395 216.249 394.636 216.422 394.847C216.594 395.058 216.758 395.179 216.801 395.128C216.844 395.078 216.732 394.887 216.559 394.676C216.387 394.465 216.223 394.345 216.18 394.395Z" fill="#263238"/>
<path d="M214.432 393.57C214.432 393.641 214.665 393.641 214.906 393.741C215.148 393.842 215.328 393.992 215.372 393.952C215.415 393.912 215.277 393.641 214.975 393.52C214.674 393.4 214.415 393.51 214.432 393.57Z" fill="#263238"/>
<path d="M213.182 393.179C213.182 393.239 213.26 393.34 213.398 393.41C213.536 393.481 213.665 393.47 213.682 393.41C213.699 393.35 213.604 393.249 213.467 393.189C213.329 393.129 213.243 393.119 213.182 393.179Z" fill="#263238"/>
<g opacity="0.3">
<path opacity="0.3" d="M212.692 391.944L229.267 391.713L229.25 389.383L212.562 390.719L212.692 391.944Z" fill="black"/>
</g>
<path d="M192.627 216.721L199.27 240.037C201.062 246.335 205.783 247.42 211.477 247.42H248.428V237.746L214.674 232.131L206.627 208.163L192.627 216.721Z" fill="#FFBE9D"/>
<path d="M252.494 235.746L255.423 234.129C255.423 234.129 258.585 227.007 259.309 227.298C260.032 227.59 260.248 229.679 258.981 232.944L262.875 231.648C262.875 231.648 271.318 236.199 270.948 236.811C270.577 237.424 269.879 238.881 268.044 237.816C266.209 236.751 263.789 235.425 263.789 235.425L259.24 236.942L265.107 237.816L270.629 243.662C270.629 243.662 268.811 245.249 267.252 243.572L252.916 247.158L248.428 247.459V237.786L252.494 235.746Z" fill="#FFBE9D"/>
<path d="M267.251 243.542C267.191 243.542 266.924 243.09 266.39 242.437C266.085 242.063 265.734 241.744 265.347 241.493C264.861 241.221 264.335 241.061 263.797 241.021C262.34 240.905 260.897 240.619 259.489 240.167C260.948 240.109 262.409 240.224 263.848 240.508C264.451 240.551 265.039 240.747 265.571 241.081C265.986 241.373 266.351 241.751 266.648 242.196C266.948 242.574 267.156 243.039 267.251 243.542Z" fill="#EB996E"/>
<path d="M265.012 244.205C264.952 244.205 264.909 243.864 264.512 243.763C264.116 243.663 263.444 243.583 262.789 243.502C261.945 243.487 261.104 243.389 260.274 243.211C261.103 242.873 261.994 242.794 262.858 242.98C263.471 243.042 264.075 243.187 264.659 243.412C264.761 243.456 264.853 243.527 264.928 243.619C265.002 243.712 265.058 243.823 265.09 243.944C265.09 244.125 265.038 244.216 265.012 244.205Z" fill="#EB996E"/>
<path d="M161.431 120.818L159.424 168.212L176.827 170.121L177.792 158.669C177.792 158.669 183.926 160.437 185.787 153.817C186.984 149.588 188.044 116.458 188.044 116.458L161.431 120.818Z" fill="#FFBE9D"/>
<path d="M189.542 121.942C190.025 126.382 184.709 128.974 184.709 128.974L183.779 139.471C182.947 139.402 182.112 139.402 181.28 139.471C181.728 134.549 176.284 135.513 175.732 138.868C175.181 142.223 178.317 144.253 178.317 144.253C176.146 148.14 175.258 150.2 172.174 153.846C168.831 157.794 167.005 158.115 163.559 157.995L159.76 157.794C159.76 157.794 158.398 154.007 157.408 145.056C156.934 140.757 154.048 135.111 154.875 128.12C157.201 108.24 173.535 110.339 173.535 110.339C182.073 110.55 188.422 111.655 189.542 121.942Z" fill="#263238"/>
<path d="M177.059 110.853C180.746 110.963 184.572 111.305 187.811 113.364C191.05 115.423 193.549 119.672 192.885 123.902L191.042 124.293L190.283 122.706C190.283 123.55 190.283 124.394 190.283 125.238L187.044 126.292C186.557 123.067 185.583 119.969 184.167 117.141" fill="#263238"/>
<path d="M162.12 132.661C161.992 132.432 161.896 132.182 161.836 131.918C161.627 131.215 161.472 130.492 161.371 129.758C161.021 127.32 161.166 124.819 161.796 122.459C162.426 120.098 163.523 117.943 164.998 116.166C165.432 115.625 165.908 115.131 166.419 114.69C166.598 114.507 166.802 114.361 167.022 114.258C167.065 114.328 166.273 115.021 165.23 116.408C163.876 118.213 162.858 120.327 162.241 122.616C161.648 124.912 161.466 127.326 161.707 129.708C161.87 131.546 162.198 132.631 162.12 132.661Z" fill="#455A64"/>
<path d="M165.549 131.004C165.215 130.239 164.986 129.419 164.869 128.573C164.486 126.549 164.373 124.469 164.533 122.405C164.682 120.334 165.101 118.302 165.773 116.377C166.016 115.564 166.368 114.802 166.816 114.117C165.888 116.778 165.271 119.572 164.981 122.425C164.841 125.301 165.032 128.186 165.549 131.004Z" fill="#455A64"/>
<path d="M187.768 123.65C187.681 123.65 187.535 122.425 186.829 120.637C185.921 118.279 184.467 116.264 182.629 114.819C180.792 113.374 178.645 112.557 176.43 112.46C174.707 112.369 173.682 112.67 173.665 112.58C173.892 112.446 174.136 112.358 174.388 112.319C175.063 112.163 175.75 112.089 176.439 112.098C178.738 112.094 180.986 112.895 182.891 114.398C184.795 115.901 186.269 118.036 187.121 120.526C187.382 121.267 187.575 122.038 187.699 122.826C187.761 123.095 187.784 123.373 187.768 123.65Z" fill="#455A64"/>
<path d="M162.663 107.015C163.636 107.255 164.514 107.862 165.162 108.742C165.917 109.498 166.433 110.527 166.626 111.666C166.506 111.726 165.946 110.38 164.843 109.104C163.74 107.828 162.603 107.165 162.663 107.015Z" fill="#263238"/>
<path d="M166.721 107.035C166.85 107.085 166.583 108.15 166.635 109.466C166.687 110.782 166.997 111.806 166.876 111.877C166.392 111.212 166.145 110.356 166.187 109.486C166.084 108.619 166.276 107.739 166.721 107.035Z" fill="#455A64"/>
<path d="M189.5 211.638L192.334 222.859L210.374 213.346C209.728 210.995 206.739 200.528 201.036 183.913C199.474 179.358 196.933 175.348 193.657 172.271C190.382 169.194 186.481 167.152 182.332 166.343C176.644 165.133 170.882 164.461 165.102 164.334C154.987 164.465 140.118 171.838 138.102 183.42C136.568 192.24 138.041 207.821 138.041 226.746L139.359 262.91L191.188 264.919L189.5 211.638Z" fill="#219EBC"/>
<g opacity="0.3">
<path opacity="0.3" d="M138.067 218.388C144.373 219.895 150.843 218.388 157.27 217.936C161.164 217.665 165.489 217.173 168.573 219.945C171.02 222.155 172.019 225.882 172.709 229.398C175.396 242.789 175.879 251.769 176.482 265.501L145.286 267.711L138.067 218.388Z" fill="black"/>
</g>
<path d="M199.519 180.447C199.519 180.597 185.907 180.708 169.124 180.708C152.342 180.708 138.739 180.597 138.739 180.447C138.739 180.296 152.342 180.186 169.124 180.186C185.907 180.186 199.519 180.306 199.519 180.447Z" fill="#FAFAFA"/>
<path d="M203.301 190.603C203.301 190.744 188.5 190.864 170.262 190.864C152.023 190.864 137.222 190.744 137.222 190.603C137.222 190.462 152.006 190.342 170.262 190.342C188.517 190.342 203.301 190.462 203.301 190.603Z" fill="#FAFAFA"/>
<path d="M208.074 203.34C208.074 203.491 192.291 203.601 172.821 203.601C153.35 203.601 137.567 203.491 137.567 203.34C137.567 203.19 153.35 203.079 172.821 203.079C192.291 203.079 208.074 203.2 208.074 203.34Z" fill="#FAFAFA"/>
<path d="M189.121 217.082C189.121 217.223 184.184 217.344 178.11 217.344C172.037 217.344 167.092 217.223 167.092 217.082C167.092 216.942 172.019 216.821 178.11 216.821C184.201 216.821 189.121 216.932 189.121 217.082Z" fill="#FAFAFA"/>
<path d="M190.128 232C190.128 232.141 184.959 232.211 178.601 232.151C172.243 232.091 167.074 231.93 167.074 231.779C167.074 231.629 172.243 231.568 178.601 231.629C184.959 231.689 190.128 231.829 190.128 232Z" fill="#FAFAFA"/>
<path d="M190.628 244.104C190.33 244.167 190.026 244.184 189.724 244.154L187.251 244.094C185.166 244.044 182.289 243.974 179.11 243.974C175.931 243.974 173.079 244.034 170.968 244.084L168.496 244.144C168.193 244.19 167.886 244.19 167.583 244.144C167.877 244.044 168.181 243.99 168.487 243.984C169.064 243.913 169.909 243.843 170.951 243.773C173.036 243.622 175.922 243.501 179.11 243.501C182.297 243.501 185.183 243.632 187.26 243.783C188.302 243.853 189.146 243.933 189.732 244.004C190.033 243.995 190.334 244.029 190.628 244.104Z" fill="#FAFAFA"/>
<path d="M190.464 253.91C190.464 254.05 185.381 254.171 179.11 254.171C172.838 254.171 167.763 254.05 167.763 253.91C167.763 253.769 172.838 253.648 179.11 253.648C185.381 253.648 190.464 253.759 190.464 253.91Z" fill="#FAFAFA"/>
<path d="M192.006 170.491C192.006 170.642 182.03 170.752 169.727 170.752C157.425 170.752 147.44 170.642 147.44 170.491C147.44 170.34 157.416 170.23 169.727 170.23C182.039 170.23 192.006 170.351 192.006 170.491Z" fill="#FAFAFA"/>
<path d="M190.844 172.38C190.844 172.44 190.327 172.47 189.465 172.862C188.27 173.473 187.237 174.448 186.476 175.685C185.377 177.542 184.758 179.728 184.692 181.983C184.627 184.757 184.812 187.532 185.244 190.261C185.969 195.259 186.935 200.206 188.138 205.078C188.561 206.896 188.914 208.393 189.181 209.528C189.326 210.067 189.438 210.618 189.517 211.175C189.31 210.664 189.143 210.133 189.017 209.588C188.724 208.584 188.311 207.047 187.828 205.178C186.546 200.314 185.539 195.358 184.813 190.341C184.381 187.572 184.208 184.756 184.296 181.943C184.386 179.607 185.063 177.354 186.243 175.464C187.05 174.196 188.154 173.226 189.422 172.671C189.766 172.535 190.121 172.44 190.482 172.39C190.601 172.366 190.723 172.363 190.844 172.38Z" fill="#263238"/>
<path d="M209.797 210.474C208.994 211.128 208.144 211.699 207.256 212.181C205.653 213.186 203.405 214.442 200.889 215.768C198.373 217.094 196.064 218.199 194.376 218.952C193.478 219.404 192.55 219.77 191.602 220.047C192.455 219.493 193.342 219.012 194.255 218.61C195.909 217.767 198.201 216.601 200.708 215.295C203.215 213.99 205.472 212.734 207.109 211.85C207.977 211.321 208.875 210.861 209.797 210.474Z" fill="#263238"/>
<path d="M155.357 263.502L217.283 266.054C222.115 266.256 226.687 268.657 230.017 272.744C233.348 276.83 235.172 282.276 235.099 287.913L232.515 391.039L208.591 390.115L210.374 293.558L155.349 291.871L155.357 263.502Z" fill="#263238"/>
<path d="M129.77 263.502L191.705 266.054C196.537 266.256 201.108 268.657 204.439 272.744C207.769 276.83 209.594 282.276 209.521 287.913L206.936 391.039L182.693 388.799L184.813 293.558L129.787 291.871L129.77 263.502Z" fill="#263238"/>
<path d="M176.12 300.962H170.029V386.057H176.12V300.962Z" fill="#455A64"/>
<path d="M118.915 218.369V281.013C118.915 284.958 120.26 288.742 122.652 291.532C125.045 294.322 128.29 295.89 131.674 295.89H167.453V218.369C167.453 217.499 167.306 216.636 167.02 215.832C166.735 215.028 166.316 214.297 165.788 213.681C165.26 213.065 164.633 212.577 163.943 212.244C163.253 211.911 162.514 211.739 161.767 211.739H124.601C123.855 211.739 123.115 211.911 122.425 212.244C121.736 212.577 121.109 213.065 120.581 213.681C120.053 214.297 119.634 215.028 119.348 215.832C119.062 216.636 118.915 217.499 118.915 218.369Z" fill="#455A64"/>
<path d="M215.595 300.962H128.478C128.478 298.031 129.476 295.22 131.253 293.148C133.031 291.076 135.441 289.912 137.954 289.912H206.161C208.674 289.912 211.085 291.076 212.862 293.148C214.639 295.22 215.638 298.031 215.638 300.962H215.595Z" fill="#455A64"/>
<path d="M167.453 288.475C167.464 288.636 167.464 288.797 167.453 288.957C167.446 289.417 167.397 289.875 167.307 290.323C167.019 291.742 166.384 293.032 165.478 294.036C164.573 295.041 163.436 295.716 162.206 295.979C161.062 296.122 159.911 296.172 158.76 296.13H150.929C145.372 296.13 140.341 296.13 136.706 296.069L132.398 295.999L131.226 295.949C131.087 295.947 130.949 295.93 130.813 295.899C130.947 295.854 131.087 295.834 131.226 295.838L132.398 295.788L136.706 295.698C140.341 295.648 145.372 295.617 150.929 295.607H158.752C159.881 295.66 161.012 295.63 162.138 295.517C163.092 295.327 163.994 294.88 164.774 294.211C165.926 293.221 166.755 291.804 167.126 290.193C167.427 289.138 167.401 288.475 167.453 288.475Z" fill="#263238"/>
<path d="M178.42 301.183C176.647 301.447 174.857 301.534 173.07 301.444C171.287 301.534 169.5 301.447 167.729 301.183C169.5 300.924 171.287 300.837 173.07 300.921C174.857 300.837 176.646 300.924 178.42 301.183Z" fill="#263238"/>
<path d="M204.92 296.431C204.665 295.447 204.486 294.438 204.386 293.417C204.093 291.488 203.706 288.686 203.24 285.23C202.775 281.774 202.456 277.586 200.819 273.437C199.962 271.279 198.877 269.254 197.589 267.409C196.181 265.453 194.546 263.735 192.73 262.306C190.921 260.861 188.934 259.747 186.837 259.001C184.884 258.275 182.855 257.866 180.806 257.786C176.869 257.686 173.268 257.706 170.27 257.635C167.272 257.565 164.834 257.535 163.154 257.475C162.289 257.498 161.423 257.427 160.569 257.264C161.424 257.107 162.289 257.04 163.154 257.063C164.834 257.002 167.263 256.942 170.27 256.902C173.277 256.862 176.835 256.771 180.832 256.832C185.25 256.953 189.545 258.553 193.204 261.443C195.093 262.92 196.788 264.71 198.235 266.757C199.567 268.678 200.682 270.792 201.552 273.045C201.75 273.577 201.914 274.13 202.095 274.662L202.353 275.466C202.413 275.737 202.482 276.008 202.543 276.28C202.672 276.812 202.801 277.344 202.922 277.867C203.042 278.389 203.085 278.922 203.171 279.434C203.473 281.493 203.637 283.382 203.843 285.13C204.223 288.595 204.524 291.418 204.705 293.357C204.856 294.372 204.928 295.401 204.92 296.431Z" fill="#455A64"/>
<path d="M199.717 393.732H198.856C198.919 389.717 198.295 385.727 197.02 381.996C195.746 378.266 193.847 374.868 191.434 372.003C189.021 369.138 186.142 366.862 182.966 365.308C179.791 363.754 176.381 362.954 172.937 362.954C169.493 362.954 166.083 363.754 162.908 365.308C159.732 366.862 156.853 369.138 154.44 372.003C152.027 374.868 150.128 378.266 148.854 381.996C147.579 385.727 146.955 389.717 147.018 393.732H146.157C146.093 389.584 146.738 385.463 148.056 381.609C149.373 377.755 151.335 374.246 153.828 371.287C156.321 368.327 159.295 365.976 162.576 364.372C165.857 362.767 169.379 361.94 172.937 361.94C176.495 361.94 180.017 362.767 183.298 364.372C186.579 365.976 189.553 368.327 192.046 371.287C194.539 374.246 196.501 377.755 197.818 381.609C199.136 385.463 199.781 389.584 199.717 393.732Z" fill="#455A64"/>
<path d="M150.602 395.319C150.602 396.245 150.367 397.15 149.925 397.92C149.484 398.689 148.857 399.289 148.124 399.644C147.39 399.998 146.583 400.091 145.804 399.91C145.025 399.729 144.31 399.284 143.749 398.629C143.187 397.974 142.805 397.14 142.65 396.232C142.495 395.324 142.574 394.383 142.878 393.527C143.182 392.672 143.697 391.941 144.357 391.427C145.017 390.912 145.793 390.638 146.587 390.638C147.115 390.636 147.638 390.757 148.125 390.991C148.613 391.226 149.056 391.571 149.429 392.006C149.802 392.441 150.097 392.957 150.299 393.526C150.5 394.094 150.603 394.704 150.602 395.319Z" fill="#263238"/>
<path d="M203.499 394.676C203.499 395.602 203.263 396.507 202.822 397.277C202.381 398.046 201.754 398.646 201.021 399.001C200.287 399.355 199.48 399.448 198.701 399.267C197.922 399.086 197.207 398.641 196.645 397.986C196.084 397.331 195.702 396.497 195.547 395.589C195.392 394.681 195.471 393.74 195.775 392.884C196.079 392.029 196.594 391.298 197.254 390.784C197.914 390.269 198.69 389.995 199.484 389.995C200.549 389.995 201.57 390.488 202.323 391.366C203.076 392.244 203.499 393.434 203.499 394.676Z" fill="#263238"/>
<path d="M199.458 386.057C199.458 386.208 187.802 386.328 173.432 386.328C159.062 386.328 147.406 386.208 147.406 386.057C147.406 385.906 159.053 385.796 173.432 385.796C187.811 385.796 199.458 385.916 199.458 386.057Z" fill="#455A64"/>
<path d="M110.55 190.582C111.185 191.05 111.734 191.662 112.163 192.381C112.592 193.101 112.893 193.913 113.048 194.771C113.343 196.498 113.296 198.281 112.91 199.984C112.256 203.279 110.326 206.433 108.258 208.864C106.096 206.082 105.967 201.722 106.018 199.502C106.104 195.996 108.095 189.718 110.55 190.582Z" fill="#219EBC"/>
<path d="M110.516 214.771C110.45 213.797 110.606 212.82 110.968 211.938C111.329 211.056 111.883 210.301 112.575 209.749C113.277 209.208 114.064 208.836 114.891 208.653C115.718 208.47 116.567 208.481 117.39 208.684C117.777 208.731 118.149 208.876 118.483 209.108C118.816 209.341 119.102 209.655 119.32 210.03C119.472 210.415 119.533 210.841 119.497 211.263C119.461 211.685 119.328 212.088 119.113 212.431C118.669 213.115 118.073 213.646 117.39 213.968C115.142 215.213 112.773 215.977 110.498 214.791" fill="#219EBC"/>
<path d="M106.88 222.124C106.999 221.388 107.184 220.667 107.431 219.975C107.672 219.205 107.993 218.473 108.388 217.795C108.838 216.948 109.339 216.139 109.887 215.374C110.894 213.965 112.184 212.867 113.643 212.179C114.087 211.989 114.545 211.851 115.013 211.768C115.184 211.734 115.358 211.734 115.529 211.768C115.529 211.838 114.806 211.928 113.729 212.461C112.342 213.2 111.114 214.291 110.136 215.655C109.596 216.406 109.095 217.194 108.637 218.016C108.243 218.67 107.908 219.37 107.638 220.105C107.427 220.799 107.173 221.473 106.88 222.124Z" fill="#263238"/>
<path d="M109.396 195.515C109.428 195.892 109.428 196.272 109.396 196.65C109.396 197.373 109.309 198.428 109.232 199.724C109.068 202.325 108.801 205.912 108.439 209.87C108.077 213.827 107.647 217.384 107.293 219.915C107.113 221.201 106.966 222.236 106.845 222.929C106.801 223.304 106.729 223.673 106.63 224.034C106.627 223.653 106.656 223.273 106.716 222.899C106.811 222.115 106.923 221.08 107.061 219.885C107.354 217.303 107.741 213.737 108.112 209.779C108.482 205.821 108.767 202.315 108.973 199.663C109.085 198.418 109.18 197.383 109.249 196.59C109.275 196.228 109.324 195.868 109.396 195.515Z" fill="#263238"/>
<path d="M106.742 215.565C106.409 213.532 105.667 211.62 104.577 209.987C103.487 208.354 102.079 207.047 100.47 206.173C99.6084 205.741 98.5832 205.47 97.9284 206.173C97.2737 206.876 97.446 208.182 97.7906 209.136C98.5415 211.151 99.7877 212.861 101.372 214.05C102.956 215.239 104.806 215.853 106.69 215.816" fill="#219EBC"/>
<path d="M101.099 209.166C101.262 209.225 101.416 209.313 101.556 209.427C103.297 210.594 104.814 212.167 106.01 214.048C106.481 214.881 106.833 215.796 107.052 216.76C107.222 217.548 107.3 218.359 107.285 219.171C107.273 219.715 107.218 220.256 107.121 220.789C107.099 220.989 107.052 221.185 106.983 221.371C106.914 221.371 107.069 220.517 107.052 219.171C107.035 218.388 106.94 217.609 106.768 216.851C106.537 215.931 106.189 215.057 105.734 214.259C104.864 212.823 103.802 211.558 102.59 210.512C102.069 210.1 101.572 209.65 101.099 209.166Z" fill="#263238"/>
<path d="M106.458 247.428C103.601 247.425 100.862 246.1 98.8424 243.744C96.823 241.387 95.6887 238.192 95.6887 234.861V222.304H117.227V234.861C117.227 238.192 116.092 241.387 114.073 243.744C112.054 246.1 109.315 247.425 106.458 247.428Z" fill="#263238"/>
<path d="M117.235 228.483C117.148 228.611 117.05 228.729 116.942 228.834L116.081 229.768L112.798 233.003L112.721 233.073L112.626 233.013L106.415 228.663H106.596L100.746 233.003L100.66 233.073L100.574 232.993L96.9982 229.728L96.0161 228.804C95.8945 228.7 95.7845 228.578 95.6887 228.442C95.8291 228.509 95.9598 228.601 96.0764 228.714C96.3521 228.945 96.6967 229.236 97.1102 229.568L100.754 232.722H100.582L106.363 228.282L106.458 228.211L106.552 228.272L112.764 232.712H112.592L115.926 229.568L116.865 228.704C117.106 228.563 117.227 228.463 117.235 228.483Z" fill="#E0E0E0"/>
<path d="M117.235 225.971C117.148 226.1 117.05 226.218 116.942 226.323L116.081 227.257L112.833 230.522L112.755 230.592L112.661 230.532L106.415 226.152H106.595L100.78 230.542L100.694 230.612L100.608 230.532L97.0327 227.267L96.0505 226.343C95.9289 226.239 95.8189 226.118 95.7231 225.982C95.8635 226.048 95.9943 226.14 96.1108 226.253L97.1447 227.107L100.789 230.261H100.617L106.397 225.821L106.492 225.75L106.587 225.811L112.798 230.251H112.626L115.96 227.107L116.899 226.243C117.106 226.052 117.227 225.971 117.235 225.971Z" fill="#E0E0E0"/>
<path d="M117.235 230.995C117.235 230.995 117.14 231.135 116.942 231.356L116.081 232.28L112.833 235.545L112.755 235.625L112.66 235.555L106.414 231.226H106.595L100.78 235.615L100.694 235.686L100.608 235.615C99.1689 234.289 97.9542 233.184 97.0324 232.351L96.0503 231.416C95.8263 231.195 95.7143 231.075 95.7229 231.055C95.861 231.127 95.9912 231.218 96.1106 231.326C96.3862 231.567 96.7309 231.848 97.1444 232.19L100.789 235.334H100.616L106.397 230.894L106.492 230.824L106.587 230.894L112.798 235.324H112.626L115.96 232.17L116.899 231.316C116.998 231.192 117.111 231.084 117.235 230.995Z" fill="#E0E0E0"/>
<path d="M396.368 276.921C391.905 277.765 389.906 284.154 390.337 289.408C390.768 294.661 392.586 299.805 392.06 305.038C391.431 311.699 387.115 317.324 386.615 323.994C386.021 331.86 390.794 338.841 392.215 346.556C392.913 350.313 392.818 354.291 394.016 357.867C395.038 360.913 396.935 363.452 399.382 365.049C401.83 366.647 404.677 367.206 407.438 366.63C410.2 366.054 412.704 364.379 414.525 361.891C416.346 359.403 417.37 356.256 417.423 352.985C417.518 346.958 414.322 341.262 414.709 335.235C414.994 330.785 417.234 326.566 416.76 322.176C416.183 316.902 411.996 313.135 410.514 308.112C409.032 303.09 410.462 297.545 409.945 292.261C409.032 282.788 404.526 276.188 396.376 276.941" fill="#219EBC"/>
<path d="M373.571 322.8C372.805 331.58 376.156 341.887 380.007 349.491C383.926 357.129 389.832 363.111 396.867 366.568C397.651 366.95 398.633 367.271 399.296 366.649C399.533 366.348 399.71 365.991 399.815 365.602C399.921 365.214 399.953 364.803 399.908 364.398C399.965 355.079 397.429 345.989 392.681 338.493C387.932 330.996 381.227 325.497 373.571 322.82" fill="#219EBC"/>
<g opacity="0.2">
<path opacity="0.2" d="M373.571 322.8C372.805 331.58 376.156 341.887 380.007 349.491C383.926 357.129 389.832 363.111 396.867 366.568C397.651 366.95 398.633 367.271 399.296 366.649C399.533 366.348 399.71 365.991 399.815 365.602C399.921 365.214 399.953 364.803 399.908 364.398C399.965 355.079 397.429 345.989 392.681 338.493C387.932 330.996 381.227 325.497 373.571 322.82" fill="black"/>
</g>
<path d="M406.369 384.901C406.279 384.753 406.206 384.59 406.154 384.419L405.611 382.972C405.163 381.727 404.482 379.959 403.621 377.699C401.378 371.933 398.885 366.303 396.152 360.832C393.4 355.367 390.416 350.067 387.209 344.95C385.977 342.992 384.96 341.414 384.245 340.34C383.918 339.837 383.642 339.415 383.436 339.084C383.334 338.944 383.244 338.792 383.168 338.632C383.168 338.632 383.298 338.752 383.496 339.024L384.357 340.219C385.115 341.224 386.167 342.801 387.433 344.739C394.028 354.871 399.555 365.89 403.897 377.558C404.758 379.798 405.361 381.626 405.766 382.902L406.231 384.379C406.29 384.548 406.337 384.723 406.369 384.901Z" fill="#263238"/>
<path d="M401.519 301.212C401.567 301.49 401.596 301.772 401.605 302.056C401.605 302.648 401.691 303.452 401.751 304.477C401.872 306.616 402.035 309.65 402.242 313.367C402.647 320.881 403.216 331.258 403.914 342.71C404.611 354.161 405.283 364.538 405.783 372.042C406.024 375.759 406.223 378.783 406.369 380.933C406.429 381.937 406.472 382.751 406.507 383.343C406.528 383.628 406.528 383.913 406.507 384.197C406.507 384.197 406.464 383.906 406.404 383.353C406.343 382.801 406.274 381.957 406.18 380.943C406.007 378.803 405.766 375.779 405.464 372.072C404.887 364.569 404.155 354.212 403.466 342.75C402.776 331.288 402.268 320.911 401.915 313.367C401.768 309.64 401.648 306.616 401.562 304.467C401.562 303.462 401.51 302.638 401.493 302.036C401.48 301.761 401.488 301.485 401.519 301.212Z" fill="#263238"/>
<path d="M394.593 372.384H413.451V388.527C413.449 391.325 412.494 394.008 410.796 395.986C409.099 397.964 406.797 399.075 404.397 399.075C402.081 399.076 399.852 398.041 398.171 396.183C396.489 394.325 395.483 391.786 395.36 389.089L394.593 372.384Z" fill="#263238"/>
<path d="M299.085 159.562L344.056 188.603L342.368 192.3L297.793 162.716L299.085 159.562Z" fill="#219EBC"/>
<path d="M296.87 156.819L298.938 153.132L300.144 153.996L298.292 157.713L296.87 156.819Z" fill="#219EBC"/>
<path d="M338.947 184.011L341.256 185.558L333.727 241.592L330.16 241.642L338.947 184.011Z" fill="#219EBC"/>
<path d="M319.796 247.429C319.796 247.429 325.284 240.96 332.624 241.402C334.721 241.491 336.783 242.064 338.691 243.086C340.598 244.108 342.313 245.56 343.737 247.358L319.796 247.429Z" fill="#219EBC"/>
<path d="M296.914 182.224L279.106 170.229L284.275 159.852C284.95 158.489 285.848 157.294 286.919 156.335C287.99 155.376 289.212 154.673 290.516 154.265C291.821 153.858 293.181 153.753 294.519 153.959C295.858 154.164 297.149 154.675 298.318 155.463C300.678 157.053 302.4 159.671 303.106 162.741C303.812 165.811 303.444 169.083 302.083 171.837L296.914 182.224Z" fill="#219EBC"/>
</svg>
