<svg width="600" height="500" viewBox="0 0 600 500" fill="none" xmlns="http://www.w3.org/2000/svg">
<path d="M539.316 461.667H499.614V462.003H539.316V461.667Z" fill="#EBEBEB"/>
<path d="M397.049 465.323H386.632V465.659H397.049V465.323Z" fill="#EBEBEB"/>
<path d="M498.415 449.195H475.411V449.531H498.415V449.195Z" fill="#EBEBEB"/>
<path d="M114.66 451.453H62.8861V451.789H114.66V451.453Z" fill="#EBEBEB"/>
<path d="M132.929 451.453H125.341V451.789H132.929V451.453Z" fill="#EBEBEB"/>
<path d="M269.898 457.125H157.599V457.46H269.898V457.125Z" fill="#EBEBEB"/>
<path d="M284.103 380.097H52.6369C50.8236 380.093 49.0857 379.283 47.8046 377.844C46.5236 376.406 45.8041 374.456 45.8041 372.423V7.60732C45.8199 5.5859 46.5463 3.6531 47.8257 2.22873C49.1051 0.804357 50.834 0.00346279 52.6369 0H284.103C285.918 0 287.659 0.808563 288.943 2.24782C290.227 3.68707 290.948 5.63911 290.948 7.67452V372.423C290.948 374.458 290.227 376.41 288.943 377.849C287.659 379.289 285.918 380.097 284.103 380.097ZM52.6369 0.268811C50.9031 0.272371 49.2414 1.0471 48.0166 2.42295C46.7917 3.7988 46.1038 5.66335 46.1038 7.60732V372.423C46.1038 374.366 46.7917 376.231 48.0166 377.607C49.2414 378.983 50.9031 379.757 52.6369 379.761H284.103C285.838 379.757 287.501 378.983 288.728 377.608C289.954 376.232 290.645 374.368 290.648 372.423V7.60732C290.645 5.66212 289.954 3.7976 288.728 2.42213C287.501 1.04667 285.838 0.272364 284.103 0.268811H52.6369Z" fill="#EBEBEB"/>
<path d="M543.404 380.097H311.926C310.111 380.093 308.372 379.284 307.089 377.845C305.806 376.407 305.084 374.457 305.081 372.423V7.60732C305.1 5.58468 305.829 3.65188 307.11 2.22789C308.392 0.803887 310.122 0.00342503 311.926 0H543.404C545.205 0.0069951 546.931 0.809452 548.207 2.23344C549.484 3.65743 550.209 5.58822 550.225 7.60732V372.423C550.225 374.453 549.507 376.401 548.228 377.84C546.95 379.278 545.215 380.09 543.404 380.097ZM311.926 0.268811C310.191 0.272364 308.528 1.04667 307.301 2.42213C306.074 3.7976 305.384 5.66212 305.381 7.60732V372.423C305.384 374.368 306.074 376.232 307.301 377.608C308.528 378.983 310.191 379.757 311.926 379.761H543.404C545.139 379.757 546.802 378.983 548.029 377.608C549.255 376.232 549.946 374.368 549.949 372.423V7.60732C549.946 5.66212 549.255 3.7976 548.029 2.42213C546.802 1.04667 545.139 0.272364 543.404 0.268811H311.926Z" fill="#EBEBEB"/>
<path d="M599.373 440.042H0V440.377H599.373V440.042Z" fill="#EBEBEB"/>
<path d="M176.971 229.779H65.3918V441.534H176.971V229.779Z" fill="#F0F0F0"/>
<path d="M182.03 229.779H65.3918V245.571H182.03V229.779Z" fill="#E6E6E6"/>
<path d="M143.538 218.878H103.32L97.0028 175.345H149.868L143.538 218.878Z" fill="#EBEBEB"/>
<path d="M149.712 176.648L135.734 176.688L133.337 218.811L143.538 218.865L149.712 176.648Z" fill="#E0E0E0"/>
<path d="M152.061 142.778H95.5162C89.7762 142.778 85.123 147.995 85.123 154.431V164.995C85.123 171.431 89.7762 176.648 95.5162 176.648H152.061C157.801 176.648 162.454 171.431 162.454 164.995V154.431C162.454 147.995 157.801 142.778 152.061 142.778Z" fill="#EBEBEB"/>
<path d="M162.67 156.326V163.046C162.67 170.533 157.287 176.487 149.412 176.487H134.367C142.255 176.487 146.355 170.492 146.355 163.046V156.326C146.368 154.548 146.067 152.785 145.471 151.137C144.876 149.49 143.996 147.99 142.882 146.724C141.769 145.458 140.444 144.451 138.982 143.76C137.521 143.069 135.953 142.708 134.367 142.697H150.622C153.83 142.719 156.9 144.165 159.158 146.72C161.417 149.275 162.679 152.729 162.67 156.326Z" fill="#E0E0E0"/>
<path d="M130.651 187.75H116.146V197.064H130.651V187.75Z" fill="#E0E0E0"/>
<path d="M124.61 187.75H116.146V197.064H124.61V187.75Z" fill="#F5F5F5"/>
<path d="M162.095 224.456C162.095 225.19 161.965 225.916 161.715 226.594C161.464 227.271 161.096 227.887 160.633 228.405C160.17 228.923 159.62 229.334 159.015 229.613C158.41 229.893 157.762 230.036 157.108 230.034H89.7502C88.4276 230.034 87.1592 229.445 86.224 228.396C85.2888 227.348 84.7634 225.926 84.7634 224.443C84.7634 222.96 85.2888 221.538 86.224 220.489C87.1592 219.441 88.4276 218.852 89.7502 218.852H157.108C158.431 218.855 159.7 219.447 160.635 220.498C161.57 221.549 162.095 222.972 162.095 224.456Z" fill="#E0E0E0"/>
<path d="M135.854 224.456C135.854 225.19 135.725 225.916 135.474 226.594C135.223 227.271 134.856 227.887 134.393 228.405C133.929 228.923 133.38 229.334 132.775 229.613C132.17 229.893 131.522 230.036 130.867 230.034H89.7502C88.4276 230.034 87.1592 229.445 86.224 228.396C85.2888 227.348 84.7634 225.926 84.7634 224.443C84.7634 222.96 85.2888 221.538 86.224 220.489C87.1592 219.441 88.4276 218.852 89.7502 218.852H130.867C132.191 218.855 133.459 219.447 134.394 220.498C135.329 221.549 135.854 222.972 135.854 224.456Z" fill="#EBEBEB"/>
<path d="M130.987 159.78C130.984 162.025 130.187 164.177 128.772 165.764C127.356 167.351 125.437 168.244 123.435 168.248C122.717 168.247 122.003 168.134 121.313 167.912C119.743 167.4 118.363 166.331 117.381 164.865C116.398 163.398 115.868 161.614 115.868 159.78C115.868 157.947 116.398 156.162 117.381 154.696C118.363 153.23 119.743 152.16 121.313 151.649C122.002 151.42 122.717 151.307 123.435 151.313C125.437 151.316 127.356 152.21 128.772 153.797C130.187 155.384 130.984 157.536 130.987 159.78Z" fill="#E0E0E0"/>
<path d="M126.756 159.78C126.754 161.613 126.223 163.396 125.242 164.862C124.26 166.327 122.882 167.398 121.313 167.912C119.743 167.4 118.363 166.331 117.381 164.865C116.398 163.398 115.868 161.614 115.868 159.78C115.868 157.947 116.398 156.162 117.381 154.696C118.363 153.23 119.743 152.16 121.313 151.649C122.883 152.161 124.263 153.231 125.244 154.697C126.225 156.163 126.756 157.947 126.756 159.78Z" fill="#FAFAFA"/>
<path d="M135.339 176.742H111.172V187.575H135.339V176.742Z" fill="#E0E0E0"/>
<path d="M127.942 176.742H111.172V187.575H127.942V176.742Z" fill="#F5F5F5"/>
<path d="M139.75 163.301C141.504 163.301 142.927 161.707 142.927 159.74C142.927 157.772 141.504 156.178 139.75 156.178C137.995 156.178 136.573 157.772 136.573 159.74C136.573 161.707 137.995 163.301 139.75 163.301Z" fill="#E0E0E0"/>
<path d="M150.623 163.301C152.377 163.301 153.799 161.707 153.799 159.74C153.799 157.772 152.377 156.178 150.623 156.178C148.868 156.178 147.446 157.772 147.446 159.74C147.446 161.707 148.868 163.301 150.623 163.301Z" fill="#E0E0E0"/>
<path d="M97.0027 163.301C98.7572 163.301 100.179 161.707 100.179 159.74C100.179 157.772 98.7572 156.178 97.0027 156.178C95.2483 156.178 93.826 157.772 93.826 159.74C93.826 161.707 95.2483 163.301 97.0027 163.301Z" fill="#E0E0E0"/>
<path d="M142.843 190.949H130.76V195.182H142.843V190.949Z" fill="#FAFAFA"/>
<path d="M135.363 177.966H111.268C110.987 177.933 110.728 177.785 110.539 177.551C110.35 177.316 110.246 177.011 110.246 176.695C110.246 176.379 110.35 176.075 110.539 175.84C110.728 175.605 110.987 175.458 111.268 175.425H135.363C135.643 175.458 135.903 175.605 136.091 175.84C136.28 176.075 136.385 176.379 136.385 176.695C136.385 177.011 136.28 177.316 136.091 177.551C135.903 177.785 135.643 177.933 135.363 177.966Z" fill="#E0E0E0"/>
<path d="M139.75 164.565C138.899 164.565 138.067 164.282 137.359 163.752C136.651 163.222 136.1 162.468 135.774 161.587C135.448 160.705 135.363 159.735 135.529 158.799C135.695 157.863 136.105 157.003 136.707 156.328C137.309 155.653 138.076 155.194 138.91 155.008C139.745 154.822 140.61 154.917 141.397 155.282C142.183 155.648 142.855 156.266 143.328 157.059C143.801 157.853 144.053 158.786 144.053 159.74C144.053 161.02 143.6 162.247 142.793 163.152C141.986 164.057 140.891 164.565 139.75 164.565ZM139.75 157.455C139.347 157.455 138.953 157.589 138.618 157.84C138.283 158.091 138.021 158.448 137.867 158.866C137.713 159.283 137.673 159.743 137.751 160.186C137.83 160.629 138.024 161.036 138.309 161.356C138.594 161.675 138.957 161.893 139.352 161.981C139.748 162.069 140.157 162.024 140.53 161.851C140.902 161.678 141.22 161.385 141.444 161.01C141.668 160.634 141.788 160.192 141.788 159.74C141.788 159.134 141.573 158.553 141.191 158.125C140.809 157.696 140.29 157.455 139.75 157.455Z" fill="#FAFAFA"/>
<path d="M150.623 164.565C149.771 164.565 148.939 164.282 148.232 163.752C147.524 163.222 146.972 162.468 146.647 161.587C146.321 160.705 146.236 159.735 146.402 158.799C146.568 157.863 146.978 157.003 147.58 156.328C148.181 155.653 148.948 155.194 149.783 155.008C150.618 154.822 151.483 154.917 152.269 155.282C153.056 155.648 153.728 156.266 154.201 157.059C154.674 157.853 154.926 158.786 154.926 159.74C154.926 161.02 154.473 162.247 153.666 163.152C152.859 164.057 151.764 164.565 150.623 164.565ZM150.623 157.455C150.22 157.455 149.826 157.589 149.49 157.84C149.155 158.091 148.894 158.448 148.74 158.866C148.586 159.283 148.545 159.743 148.624 160.186C148.703 160.629 148.897 161.036 149.182 161.356C149.467 161.675 149.83 161.893 150.225 161.981C150.62 162.069 151.03 162.024 151.402 161.851C151.775 161.678 152.093 161.385 152.317 161.01C152.541 160.634 152.66 160.192 152.66 159.74C152.66 159.134 152.446 158.553 152.064 158.125C151.681 157.696 151.163 157.455 150.623 157.455Z" fill="#FAFAFA"/>
<path d="M97.0027 164.565C96.1516 164.565 95.3195 164.282 94.6118 163.752C93.9041 163.222 93.3525 162.468 93.0268 161.587C92.7011 160.705 92.6159 159.735 92.7819 158.799C92.948 157.863 93.3578 157.003 93.9597 156.328C94.5615 155.653 95.3284 155.194 96.1632 155.008C96.998 154.822 97.8632 154.917 98.6496 155.282C99.436 155.648 100.108 156.266 100.581 157.059C101.054 157.853 101.306 158.786 101.306 159.74C101.306 160.374 101.195 161.001 100.979 161.587C100.762 162.172 100.445 162.704 100.046 163.152C99.6462 163.6 99.1717 163.956 98.6496 164.198C98.1275 164.441 97.5679 164.565 97.0027 164.565ZM97.0027 157.455C96.5997 157.455 96.2057 157.589 95.8706 157.84C95.5354 158.091 95.2742 158.448 95.12 158.866C94.9657 159.283 94.9254 159.743 95.004 160.186C95.0826 160.629 95.2767 161.036 95.5617 161.356C95.8467 161.675 96.2099 161.893 96.6052 161.981C97.0005 162.069 97.4102 162.024 97.7826 161.851C98.155 161.678 98.4732 161.385 98.6972 161.01C98.9211 160.634 99.0406 160.192 99.0406 159.74C99.0406 159.134 98.8259 158.553 98.4437 158.125C98.0615 157.696 97.5432 157.455 97.0027 157.455Z" fill="#FAFAFA"/>
<path d="M123.327 157.039C123.032 157.023 122.752 156.885 122.542 156.651C122.332 156.418 122.206 156.106 122.188 155.775V151.541C122.172 151.364 122.189 151.184 122.239 151.014C122.288 150.844 122.369 150.688 122.476 150.555C122.582 150.423 122.713 150.317 122.859 150.244C123.004 150.171 123.162 150.134 123.321 150.134C123.481 150.134 123.638 150.171 123.784 150.244C123.929 150.317 124.06 150.423 124.167 150.555C124.273 150.688 124.354 150.844 124.404 151.014C124.453 151.184 124.47 151.364 124.454 151.541V155.775C124.454 156.11 124.335 156.432 124.124 156.669C123.913 156.905 123.626 157.039 123.327 157.039Z" fill="#E6E6E6"/>
<path d="M166.146 433.066H73.2196V255.907H166.146V433.066ZM74.4184 431.722H164.948V257.251H74.4184V431.722Z" fill="#E6E6E6"/>
<path d="M166.746 433.738H72.62V255.235H166.746V433.738ZM73.8187 432.394H165.547H73.8187ZM75.0175 431.05H164.348V257.923H75.0175V431.05Z" fill="#FAFAFA"/>
<path d="M86.5616 323.337H79.3811V347.974H86.5616V323.337Z" fill="#E0E0E0"/>
<path d="M504.864 403.403L503.881 403.538C503.881 402.987 497.887 347.235 510.139 301.686C522.318 256.404 513.927 227.548 513.843 227.265L514.778 226.916C514.862 227.198 523.349 256.391 511.074 301.995C498.882 347.33 504.792 402.852 504.864 403.403Z" fill="#E0E0E0"/>
<path d="M515.581 233.475C513.452 230.625 510.56 228.621 507.334 227.763L507.549 226.688C510.99 227.596 514.076 229.727 516.348 232.763L515.581 233.475Z" fill="#E0E0E0"/>
<path d="M519.784 238.131L516.966 239.916L517.449 240.875L520.267 239.091L519.784 238.131Z" fill="#E0E0E0"/>
<path d="M514.526 263.784C512.061 257.511 507.511 252.564 501.844 249.994L502.203 248.972C508.102 251.657 512.833 256.817 515.389 263.354L514.526 263.784Z" fill="#E0E0E0"/>
<path d="M511.865 298.62H510.882C510.851 296.378 510.377 294.171 509.494 292.158C508.611 290.145 507.341 288.377 505.775 286.981L506.386 286.107C508.068 287.609 509.431 289.511 510.379 291.674C511.326 293.838 511.833 296.21 511.865 298.62Z" fill="#E0E0E0"/>
<path d="M509.683 307.518L508.76 307.115C509.269 305.706 510.028 304.429 510.993 303.361C511.958 302.293 513.107 301.458 514.37 300.906L514.718 301.941C513.583 302.434 512.55 303.184 511.684 304.144C510.818 305.103 510.137 306.252 509.683 307.518Z" fill="#E0E0E0"/>
<path d="M503.282 364.022L502.527 363.323C503.725 361.697 504.636 355.515 505.128 352.195C505.236 351.402 505.344 350.73 505.416 350.232L506.387 350.447C506.315 350.918 506.207 351.59 506.099 352.369C505.368 357.329 504.553 362.315 503.282 364.022Z" fill="#E0E0E0"/>
<path d="M502.718 381.71C502.037 379.535 500.758 377.657 499.065 376.348C497.372 375.039 495.352 374.366 493.296 374.425V373.323C495.567 373.268 497.795 374.018 499.663 375.466C501.532 376.914 502.945 378.986 503.701 381.388L502.718 381.71Z" fill="#E0E0E0"/>
<path d="M510.273 393.332L503.316 402.062L504.049 402.796L511.006 394.066L510.273 393.332Z" fill="#E0E0E0"/>
<path d="M515.174 336.443C516.744 342.169 505.751 353.055 505.751 353.055C505.751 353.055 491.211 351.012 489.628 345.287C488.046 339.561 491.738 330.22 498.787 327.814C505.835 325.408 513.591 330.731 515.174 336.443Z" fill="#F0F0F0"/>
<path d="M527.365 267.049C525.974 273.124 515.569 277.438 515.569 277.438C515.569 277.438 508.305 268.03 509.707 261.955C511.11 255.879 516.9 249.186 521.695 250.597C526.49 252.009 528.755 260.973 527.365 267.049Z" fill="#EBEBEB"/>
<path d="M485.6 357.8C492.133 360.662 496.149 373.619 496.149 373.619C496.149 373.619 485.36 380.124 478.839 377.275C472.318 374.425 465.389 366.375 467.259 360.998C469.129 355.622 479.067 354.95 485.6 357.8Z" fill="#F5F5F5"/>
<path d="M499.877 286.497C501.2 287.743 502.716 288.704 504.349 289.333C505.175 289.629 506.058 289.667 506.902 289.445C507.746 289.222 508.521 288.747 509.144 288.07C510.546 286.269 510.175 283.473 509.288 281.35C507.549 277.035 501.1 269.711 496.161 271.807C489.089 274.791 496.749 283.85 499.877 286.497Z" fill="#E6E6E6"/>
<path d="M514.55 297.492C513.615 298.836 512.62 300.435 513.123 302.008C513.417 302.676 513.9 303.216 514.496 303.544C515.093 303.873 515.769 303.97 516.42 303.822C517.713 303.483 518.922 302.821 519.956 301.887C522.474 299.925 527.64 295.799 524.344 291.955C521.047 288.111 516.516 294.75 514.55 297.492Z" fill="#EBEBEB"/>
<path d="M493.452 242.681C492.902 242.705 492.373 242.925 491.941 243.31C491.51 243.694 491.2 244.222 491.055 244.818C490.839 246.162 491.87 247.506 492.877 248.326C495.382 250.49 502.91 256.39 504.589 250.692C506.219 245.369 496.785 242.265 493.452 242.681Z" fill="#E0E0E0"/>
<path d="M507.322 224.16C505.775 224.322 504.229 223.69 502.67 223.798C501.112 223.905 499.386 225.316 499.733 227.023C500.081 228.73 501.795 229.12 503.234 229.227C505.691 229.396 508.157 229.207 510.57 228.663C511.144 228.603 511.675 228.3 512.057 227.816C512.692 226.781 511.685 225.383 510.618 225.021C509.511 224.857 508.422 224.564 507.369 224.147L507.322 224.16Z" fill="#E6E6E6"/>
<path d="M522.498 236.136C524.056 236.136 525.555 235.437 527.125 235.437C528.695 235.437 530.481 236.7 530.242 238.434C530.002 240.168 528.3 240.679 526.873 240.894C524.43 241.25 521.956 241.25 519.513 240.894C518.936 240.874 518.388 240.61 517.978 240.154C517.295 239.173 518.206 237.708 519.261 237.265C520.356 237.021 521.425 236.648 522.45 236.149L522.498 236.136Z" fill="#F0F0F0"/>
<path d="M520.963 364.896C521.312 364.485 521.779 364.223 522.282 364.157C522.612 364.199 522.921 364.361 523.161 364.618C523.401 364.875 523.56 365.214 523.613 365.581C523.684 366.328 523.598 367.083 523.361 367.786C522.306 371.751 510.438 400.46 507.705 395.299C506.099 392.248 510.103 382.167 511.229 379.304C513.495 373.761 516.817 368.842 520.963 364.896Z" fill="#F0F0F0"/>
<path d="M513.867 225.249C514.802 222.884 515.821 220.397 517.691 218.878C519.561 217.36 522.558 217.239 523.924 219.335C525.447 221.674 523.924 225.236 521.587 226.486C519.249 227.735 516.528 227.359 513.963 226.956C513.963 226.526 513.963 226.109 513.903 225.612L513.867 225.249Z" fill="#E6E6E6"/>
<path d="M522.03 441.399C509.444 444.221 496.484 444.221 483.898 441.399L473.936 392.301H531.992L522.03 441.399Z" fill="#E6E6E6"/>
<path d="M484.409 116.251C491.301 68.6466 462.469 23.7918 420.011 16.0646C377.553 8.33736 337.548 40.6639 330.656 88.2678C323.764 135.872 352.596 180.727 395.054 188.454C437.511 196.181 477.517 163.854 484.409 116.251Z" fill="#F0F0F0"/>
<path d="M407.73 191.513C386.61 191.513 366.355 182.106 351.421 165.362C336.487 148.618 328.097 125.908 328.097 102.228C328.097 78.5481 336.487 55.8381 351.421 39.0939C366.355 22.3497 386.61 12.9429 407.73 12.9429V16.8675C387.775 17.2646 368.758 26.431 354.771 42.3935C340.785 58.356 332.948 79.8379 332.948 102.215C332.948 124.591 340.785 146.073 354.771 162.036C368.758 177.998 387.775 187.165 407.73 187.562V191.513Z" fill="white"/>
<path d="M407.729 191.513V187.575C417.839 187.776 427.884 185.717 437.276 181.519C446.669 177.32 455.221 171.065 462.434 163.12C469.648 155.175 475.377 145.698 479.288 135.244C483.199 124.789 485.213 113.565 485.213 102.228C485.213 90.8908 483.199 79.6672 479.288 69.2124C475.377 58.7576 469.648 49.281 462.434 41.3358C455.221 33.3907 446.669 27.1362 437.276 22.9374C427.884 18.7386 417.839 16.6798 407.729 16.8809V12.9429C428.849 12.9429 449.104 22.3497 464.038 39.0939C478.972 55.8381 487.362 78.5481 487.362 102.228C487.362 125.908 478.972 148.618 464.038 165.362C449.104 182.106 428.849 191.513 407.729 191.513Z" fill="white"/>
<path d="M448.427 102.242H444.927C444.927 73.3046 431.825 34.5959 406.795 16.5857L408.677 13.2793C434.773 32.0422 448.427 72.2428 448.427 102.242Z" fill="white"/>
<path d="M408.677 188.556L406.795 185.236C431.825 167.24 444.927 128.517 444.927 99.5801H448.427C448.427 129.579 434.773 169.78 408.677 188.556Z" fill="white"/>
<path d="M370.557 102.228H367.044C367.044 72.2152 380.698 32.0283 406.783 13.252L408.677 16.5583C383.599 34.5685 370.557 73.2905 370.557 102.228Z" fill="white"/>
<path d="M406.783 188.529C380.698 169.713 367.044 129.566 367.044 99.5669H370.557C370.557 128.491 383.647 167.213 408.677 185.223L406.783 188.529Z" fill="white"/>
<path d="M409.48 14.9053H405.979V189.537H409.48V14.9053Z" fill="white"/>
<path d="M473.661 53.7485H341.823V57.6732H473.661V53.7485Z" fill="white"/>
<path d="M485.576 101.745H329.895V105.669H485.576V101.745Z" fill="white"/>
<path d="M471.911 149.713H343.561V153.638H471.911V149.713Z" fill="white"/>
<path d="M299.687 500C428.052 500 532.112 493.188 532.112 484.785C532.112 476.382 428.052 469.57 299.687 469.57C171.322 469.57 67.2617 476.382 67.2617 484.785C67.2617 493.188 171.322 500 299.687 500Z" fill="#F5F5F5"/>
<path d="M277.21 483.508C277.21 484.814 277.556 486.091 278.203 487.176C278.85 488.262 279.77 489.108 280.846 489.607C281.923 490.106 283.107 490.236 284.249 489.98C285.391 489.724 286.439 489.094 287.262 488.17C288.085 487.246 288.644 486.069 288.87 484.788C289.096 483.507 288.978 482.179 288.53 480.974C288.083 479.768 287.327 478.738 286.357 478.015C285.388 477.291 284.249 476.907 283.084 476.909C282.312 476.909 281.547 477.08 280.833 477.412C280.12 477.744 279.472 478.23 278.926 478.843C278.381 479.456 277.948 480.183 277.654 480.984C277.359 481.785 277.209 482.642 277.21 483.508Z" fill="#263238"/>
<path d="M190.769 483.508C190.769 484.814 190.423 486.09 189.777 487.175C189.13 488.26 188.211 489.106 187.135 489.605C186.06 490.105 184.876 490.235 183.734 489.981C182.593 489.726 181.544 489.098 180.721 488.175C179.898 487.252 179.337 486.076 179.11 484.796C178.883 483.516 178.999 482.189 179.445 480.983C179.89 479.777 180.645 478.746 181.613 478.021C182.581 477.296 183.719 476.909 184.883 476.909C186.444 476.909 187.941 477.604 189.045 478.842C190.148 480.08 190.769 481.758 190.769 483.508Z" fill="#263238"/>
<path d="M241.751 481.398C241.751 482.703 241.406 483.979 240.759 485.064C240.113 486.149 239.193 486.995 238.118 487.494C237.042 487.994 235.859 488.125 234.717 487.87C233.575 487.615 232.527 486.987 231.704 486.064C230.88 485.141 230.32 483.965 230.093 482.685C229.866 481.405 229.982 480.078 230.428 478.872C230.873 477.666 231.628 476.636 232.595 475.911C233.563 475.185 234.701 474.798 235.865 474.798C236.638 474.798 237.404 474.969 238.118 475.301C238.832 475.632 239.481 476.118 240.027 476.731C240.574 477.344 241.007 478.071 241.303 478.872C241.599 479.673 241.751 480.531 241.751 481.398Z" fill="#263238"/>
<path d="M172.068 474.651C172.201 475.396 172.566 476.064 173.097 476.537C173.628 477.009 174.291 477.255 174.969 477.231L236.333 476.29L293.813 477.742C294.536 477.779 295.245 477.507 295.796 476.979C296.347 476.452 296.698 475.71 296.779 474.903C296.86 474.096 296.664 473.285 296.231 472.634C295.798 471.984 295.161 471.542 294.448 471.398L263.065 464.557C259.808 463.87 256.501 463.524 253.187 463.522H219.455C216.149 463.524 212.85 463.87 209.601 464.557L174.322 470.887C173.579 471.053 172.924 471.542 172.502 472.247C172.08 472.953 171.924 473.817 172.068 474.651Z" fill="#263238"/>
<path d="M246.774 406.118H225.904V473.495H246.774V406.118Z" fill="#263238"/>
<path d="M243.777 363.431H228.901V406.453H243.777V363.431Z" fill="#263238"/>
<path opacity="0.2" d="M243.777 371.401L228.889 375.608V363.431H243.777V371.401Z" fill="black"/>
<path d="M171.121 363.256V363.417H173.147C172.469 363.418 171.792 363.364 171.121 363.256Z" fill="#263238"/>
<path d="M328.876 346.939C326.641 342.696 323.457 339.178 319.64 336.734C315.822 334.29 311.503 333.004 307.107 333.002H253.295V193.611C253.301 193.503 253.301 193.395 253.295 193.288H253.547L251.293 176.366C250.918 173.509 249.988 170.779 248.569 168.368C247.15 165.958 245.277 163.926 243.082 162.415L225.724 150.534L216.637 120.803C216.08 118.997 215.035 117.43 213.647 116.32C212.26 115.21 210.598 114.611 208.894 114.607H187.172C185.277 114.608 183.441 115.347 181.978 116.698C180.516 118.049 179.517 119.928 179.153 122.013L174.358 149.647L164.936 160.695C162.035 164.084 160.306 168.52 160.057 173.208L159.17 189.78H159.325C159.22 190.671 159.168 191.569 159.17 192.468V347.665C159.168 351.444 160.377 355.098 162.578 357.96C164.778 360.822 167.823 362.702 171.157 363.256C171.824 363.364 172.497 363.418 173.171 363.418H320.497C322.219 363.429 323.914 362.927 325.406 361.963C326.898 360.998 328.135 359.606 328.989 357.929C329.843 356.252 330.284 354.35 330.266 352.419C330.248 350.488 329.773 348.597 328.888 346.939H328.876ZM178.038 175.936C177.93 176.877 177.822 177.818 177.714 178.732L175.077 179.485L167.884 181.554L168.388 173.181L168.544 170.762L178.565 160.601L179.009 164.189L179.213 165.91C179.213 165.91 178.613 170.775 178.038 175.936ZM215.271 178.624L214.276 165.332L215.127 162.993L215.295 162.563L216.194 160.023L220.893 162.563L228.505 169.834L230.195 180.157L215.271 178.624Z" fill="#219EBC"/>
<path opacity="0.3" d="M328.876 346.939C326.641 342.696 323.457 339.178 319.64 336.734C315.822 334.29 311.503 333.004 307.107 333.002H253.295V193.611C253.301 193.503 253.301 193.395 253.295 193.288H253.547L251.293 176.366C250.918 173.509 249.988 170.779 248.569 168.368C247.15 165.958 245.277 163.926 243.082 162.415L225.724 150.534L216.637 120.803C216.08 118.997 215.035 117.43 213.647 116.32C212.26 115.21 210.598 114.611 208.894 114.607H187.172C185.277 114.608 183.441 115.347 181.978 116.698C180.516 118.049 179.517 119.928 179.153 122.013L174.358 149.647L164.936 160.695C162.035 164.084 160.306 168.52 160.057 173.208L159.17 189.78H159.325C159.22 190.671 159.168 191.569 159.17 192.468V347.665C159.168 351.444 160.377 355.098 162.578 357.96C164.778 360.822 167.823 362.702 171.157 363.256C171.824 363.364 172.497 363.418 173.171 363.418H320.497C322.219 363.429 323.914 362.927 325.406 361.963C326.898 360.998 328.135 359.606 328.989 357.929C329.843 356.252 330.284 354.35 330.266 352.419C330.248 350.488 329.773 348.597 328.888 346.939H328.876ZM178.038 175.936C177.93 176.877 177.822 177.818 177.714 178.732L175.077 179.485L167.884 181.554L168.388 173.181L168.544 170.762L178.565 160.601L179.009 164.189L179.213 165.91C179.213 165.91 178.613 170.775 178.038 175.936ZM215.271 178.624L214.276 165.332L215.127 162.993L215.295 162.563L216.194 160.023L220.893 162.563L228.505 169.834L230.195 180.157L215.271 178.624Z" fill="black"/>
<path d="M239.102 307.787C255.345 300.099 291.847 305.166 308.845 310.475C310.551 311.061 312.389 310.927 314.012 310.097C315.635 309.268 316.932 307.801 317.656 305.973C318.987 302.209 316.169 290.623 311.89 289.279C292.051 283.07 252.984 285.247 233.971 294.225C229.872 296.161 228.086 301.04 229.836 304.575C230.762 306.289 232.216 307.564 233.924 308.156C235.632 308.748 237.475 308.617 239.102 307.787Z" fill="#219EBC"/>
<g opacity="0.3">
<path opacity="0.3" d="M239.102 307.787C255.345 300.099 291.847 305.166 308.845 310.475C310.551 311.061 312.389 310.927 314.012 310.097C315.635 309.268 316.932 307.801 317.656 305.973C318.987 302.209 316.169 290.623 311.89 289.279C292.051 283.07 252.984 285.247 233.971 294.225C229.872 296.161 228.086 301.04 229.836 304.575C230.762 306.289 232.216 307.564 233.924 308.156C235.632 308.748 237.475 308.617 239.102 307.787Z" fill="white"/>
</g>
<path d="M286.285 301.967H278.72V338.149H286.285V301.967Z" fill="#263238"/>
<path d="M286.285 301.967H278.72V363.431H286.285V301.967Z" fill="#263238"/>
<path d="M310.967 441.533L312.394 470.444L325.244 469.274L326.467 441.842L310.967 441.533Z" fill="#B55B52"/>
<path d="M327.486 468.818C327.427 468.805 327.372 468.775 327.328 468.73C327.283 468.685 327.251 468.627 327.234 468.562C327.22 468.496 327.226 468.426 327.249 468.363C327.273 468.301 327.314 468.248 327.366 468.213C327.546 468.078 331.777 465.054 333.887 465.592C334.278 465.687 334.621 465.947 334.846 466.318C334.993 466.514 335.08 466.758 335.096 467.015C335.111 467.271 335.053 467.526 334.93 467.742C334.45 468.522 332.856 468.925 331.334 469.006C330.049 469.072 328.761 469.009 327.486 468.818ZM328.421 468.32C330.758 468.522 333.899 468.32 334.415 467.393C334.486 467.272 334.558 467.07 334.319 466.667C334.254 466.55 334.166 466.45 334.062 466.376C333.959 466.302 333.841 466.254 333.719 466.237C333.532 466.21 333.343 466.21 333.156 466.237C331.489 466.604 329.897 467.31 328.457 468.32H328.421Z" fill="#219EBC"/>
<path d="M327.33 468.804C327.284 468.778 327.246 468.737 327.22 468.687C327.195 468.637 327.183 468.58 327.186 468.522C327.186 468.347 327.366 464.557 328.888 463.012C329.104 462.784 329.358 462.608 329.637 462.495C329.915 462.381 330.211 462.333 330.507 462.353C331.322 462.353 331.597 462.85 331.705 463.227C332.041 464.786 329.176 467.971 327.714 468.791C327.674 468.803 327.633 468.803 327.594 468.791C327.556 468.822 327.51 468.839 327.464 468.842C327.417 468.844 327.37 468.831 327.33 468.804ZM330.339 462.998C329.963 463.01 329.604 463.178 329.332 463.468C328.453 464.719 327.941 466.246 327.869 467.837C329.368 466.721 331.226 464.248 331.106 463.307C331.106 463.227 331.034 462.985 330.507 462.971H330.339V462.998Z" fill="#219EBC"/>
<path d="M326.131 466.936L312.537 467.661C312.288 467.676 312.05 467.784 311.862 467.97C311.675 468.155 311.55 468.407 311.506 468.683L309.576 481.169C309.493 481.702 309.601 482.251 309.877 482.694C310.154 483.138 310.576 483.44 311.051 483.535C311.178 483.555 311.307 483.555 311.434 483.535C316.337 483.186 320.677 482.648 326.778 482.325C333.971 481.936 332.197 482.997 340.672 482.675C345.779 482.487 346.426 475.954 344.268 475.726C334.307 474.866 333.132 471.573 329.14 467.796C328.264 467.109 327.194 466.803 326.131 466.936Z" fill="#263238"/>
<path opacity="0.1" d="M311.962 460.041L325.628 459.006L326.467 440.23L310.967 439.921L311.962 460.041Z" fill="black"/>
<path opacity="0.4" d="M306.879 333.096C306.879 333.351 306.987 333.62 307.047 333.876C306.786 330.31 306.298 326.771 305.584 323.284C301.185 304.105 255.405 300.906 236.68 300.436L214.168 303.204C214.168 303.204 212.07 323.365 217.429 336.214C222.787 349.063 306.879 333.096 306.879 333.096Z" fill="black"/>
<path d="M280.291 448.428L281.454 477.809L294.161 477.285L295.659 446.17L280.291 448.428Z" fill="#B55B52"/>
<path d="M296.162 473.307C296.102 473.3 296.045 473.271 295.999 473.225C295.954 473.179 295.923 473.118 295.911 473.051C295.894 472.988 295.896 472.92 295.915 472.857C295.935 472.795 295.971 472.741 296.019 472.702C296.198 472.554 300.322 469.368 302.444 469.812C302.842 469.88 303.199 470.121 303.439 470.484C303.589 470.68 303.683 470.923 303.706 471.18C303.73 471.437 303.683 471.696 303.571 471.922C303.115 472.715 301.545 473.186 299.974 473.334C298.706 473.451 297.43 473.442 296.162 473.307ZM297.085 472.769C299.423 472.863 302.552 472.54 303.079 471.586C303.163 471.465 303.223 471.264 302.971 470.874C302.904 470.757 302.814 470.658 302.709 470.586C302.603 470.514 302.483 470.47 302.36 470.457C302.169 470.43 301.976 470.43 301.784 470.457C300.102 470.889 298.508 471.673 297.085 472.769Z" fill="#219EBC"/>
<path d="M296.006 473.307C295.96 473.277 295.921 473.234 295.894 473.182C295.867 473.13 295.852 473.071 295.851 473.011C295.851 472.836 295.851 469.046 297.373 467.433C297.582 467.2 297.832 467.017 298.105 466.895C298.379 466.773 298.673 466.713 298.967 466.721C299.782 466.721 300.07 467.164 300.166 467.541C300.55 469.086 297.769 472.393 296.366 473.266C296.347 473.276 296.327 473.281 296.306 473.281C296.285 473.281 296.265 473.276 296.246 473.266C296.211 473.292 296.171 473.308 296.13 473.315C296.089 473.322 296.047 473.319 296.006 473.307ZM298.811 467.366C298.439 467.397 298.09 467.578 297.829 467.877C296.998 469.166 296.538 470.709 296.51 472.299C297.972 471.129 299.747 468.589 299.603 467.648C299.603 467.568 299.519 467.326 298.979 467.326H298.811V467.366Z" fill="#219EBC"/>
<path d="M294.748 471.479L281.19 472.823C280.942 472.842 280.707 472.957 280.526 473.148C280.345 473.339 280.228 473.595 280.195 473.871L278.685 486.478C278.651 486.744 278.664 487.015 278.723 487.275C278.783 487.535 278.887 487.779 279.031 487.994C279.175 488.208 279.354 488.389 279.56 488.526C279.766 488.662 279.994 488.752 280.231 488.79C280.359 488.81 280.488 488.81 280.615 488.79C285.506 488.226 289.821 487.513 295.911 486.935C303.103 486.25 301.353 487.392 309.804 486.707C314.899 486.304 315.331 479.718 313.149 479.61C303.175 479.167 301.893 475.928 297.781 472.326C296.897 471.635 295.817 471.334 294.748 471.479Z" fill="#263238"/>
<path opacity="0.1" d="M294.772 463.831L295.491 449.006L280.363 449.383L280.986 464.907L294.772 463.831Z" fill="black"/>
<path d="M249.771 298.741C249.771 298.741 329.644 291.887 335.182 316.053C340.72 340.219 328.457 454.114 328.457 454.114L308.701 455.982C308.701 455.982 306.112 388.779 305.741 333.189C305.741 333.189 221.66 349.063 216.29 336.267C210.92 323.472 213.029 303.257 213.029 303.257L249.771 298.741Z" fill="#219EBC"/>
<path d="M249.771 298.741C249.771 298.741 329.644 291.887 335.182 316.053C340.72 340.219 328.457 454.114 328.457 454.114L308.701 455.982C308.701 455.982 306.112 388.779 305.741 333.189C305.741 333.189 221.66 349.063 216.29 336.267C210.92 323.472 213.029 303.257 213.029 303.257L249.771 298.741Z" fill="#263238"/>
<path opacity="0.1" d="M249.771 298.741C249.771 298.741 329.644 291.887 335.182 316.053C340.72 340.219 328.457 454.114 328.457 454.114L308.701 455.982C308.701 455.982 306.112 388.779 305.741 333.189C305.741 333.189 221.66 349.063 216.29 336.267C210.92 323.472 213.029 303.257 213.029 303.257L249.771 298.741Z" fill="black"/>
<path d="M229.596 302.263C229.596 302.263 310.116 298.755 311.219 323.674C312.082 343.149 297.409 458.845 297.409 458.845L278.996 460.444C278.996 460.444 275.628 390.93 277.929 343.512C277.929 343.512 208.402 352.45 196.211 341.482C184.535 331.026 193.621 302.156 193.621 302.156L229.596 302.263Z" fill="#263238"/>
<path d="M261.615 242.049C271.606 251.832 283.079 259.529 295.491 264.777L297.493 265.624L298.548 259.522L274.189 231.848C274.189 231.848 253.978 189.215 242.375 191.594C228.601 194.416 261.615 242.049 261.615 242.049Z" fill="#219EBC"/>
<g opacity="0.1">
<path opacity="0.1" d="M261.615 242.049C271.606 251.832 283.079 259.529 295.491 264.777L297.493 265.624L298.548 259.522L274.189 231.848C274.189 231.848 253.978 189.215 242.375 191.594C228.601 194.416 261.615 242.049 261.615 242.049Z" fill="white"/>
</g>
<path d="M297.493 265.651L298.548 259.549L313.149 256.861C313.149 256.861 327.414 264.777 324.165 266.511H308.402L297.493 265.651Z" fill="#B55B52"/>
<path d="M256.532 300.488C244.772 303.975 232.592 305.336 220.449 304.52L194.293 302.787C193.657 296.765 189.642 283.54 184.115 249.468C182.737 232.305 178.445 226.861 183.396 200.921C183.392 200.872 183.392 200.822 183.396 200.773C183.242 199.698 183.28 198.598 183.509 197.54C183.739 196.481 184.154 195.485 184.731 194.608C185.309 193.732 186.036 192.994 186.871 192.437C187.706 191.88 188.632 191.515 189.594 191.365H189.738C193.598 190.639 198.452 189.859 203.235 189.456C212.341 188.598 221.48 188.284 230.615 188.515C233.656 188.768 236.682 189.217 239.677 189.859C241.706 190.182 243.62 191.108 245.222 192.54C246.824 193.972 248.055 195.859 248.788 198.004C253.067 211.727 254.542 244.616 256.532 300.488Z" fill="#219EBC"/>
<path d="M221.037 197.117C207.503 198.461 202.312 189.456 202.312 189.456C208.09 182.588 205.309 164.658 203.02 154.833L210.524 161.392L220.749 170.344C220.505 171.851 220.333 173.372 220.234 174.9C220.15 175.996 220.15 177.097 220.234 178.193V178.381C220.689 182.964 222.955 186.781 229.38 188.26C229.428 188.3 232.557 195.961 221.037 197.117Z" fill="#B55B52"/>
<path d="M205.729 170.169C203.944 167.815 201.684 165.972 199.136 164.793C197.002 163.825 194.713 163.328 192.579 162.374C190.369 161.555 188.53 159.805 187.448 157.495C187.074 156.485 186.925 155.388 187.015 154.298C187.105 153.209 187.431 152.161 187.964 151.245C186.216 150.277 184.742 148.783 183.708 146.931C182.809 144.968 183.229 142.092 185.039 141.259C184.106 139.888 183.462 138.297 183.157 136.607C182.852 134.917 182.893 133.171 183.277 131.501C183.748 129.992 184.54 128.635 185.585 127.546C186.629 126.457 187.894 125.67 189.27 125.251C190.149 125.021 190.968 124.563 191.661 123.914C192.354 123.265 192.903 122.443 193.262 121.515C193.885 119.647 193.909 117.577 194.653 115.762C195.053 114.797 195.645 113.947 196.384 113.278C197.122 112.609 197.988 112.139 198.914 111.904C199.841 111.669 200.803 111.675 201.726 111.922C202.65 112.169 203.511 112.651 204.243 113.33C204.496 112.288 204.931 111.312 205.521 110.459C206.111 109.606 206.846 108.891 207.683 108.357C208.556 107.83 209.532 107.554 210.524 107.554C211.516 107.554 212.492 107.83 213.365 108.357C214.235 108.891 214.942 109.706 215.395 110.695C215.848 111.685 216.026 112.803 215.906 113.908C216.328 113.158 216.967 112.595 217.717 112.313C218.466 112.032 219.279 112.049 220.018 112.362C221.519 112.993 222.74 114.257 223.423 115.883C224.083 117.494 224.628 119.162 225.053 120.87C225.483 122.585 226.272 124.161 227.354 125.466C228.257 126.408 229.391 127.023 230.61 127.232C231.829 127.441 233.075 127.233 234.187 126.636C234.489 127.277 234.61 128.005 234.535 128.725C234.46 129.444 234.193 130.122 233.768 130.668C233.366 131.224 232.823 131.631 232.211 131.832C231.598 132.034 230.945 132.022 230.339 131.797C230.762 132.509 231.038 133.319 231.145 134.167C231.252 135.014 231.188 135.878 230.958 136.694C230.728 137.511 230.337 138.259 229.815 138.884C229.294 139.508 228.653 139.994 227.942 140.305C223.854 139.512 219.91 142.482 218.004 146.608C216.098 150.734 215.523 155.479 214.072 159.847C212.622 164.215 209.781 169.255 205.729 170.169Z" fill="#263238"/>
<path opacity="0.2" d="M220.749 170.344C220.505 171.851 220.333 173.372 220.234 174.9C220.15 175.996 220.15 177.097 220.234 178.193V178.381C216.494 177.628 211.471 173.408 210.8 169.148C210.574 167.752 210.486 166.332 210.536 164.914L220.749 170.344Z" fill="black"/>
<path d="M199.507 188.421L203.643 186.553C208.331 191.471 213.973 195.101 220.126 197.158C217.556 199.224 215.595 202.101 214.492 205.424C199.891 200.41 199.507 188.421 199.507 188.421Z" fill="white"/>
<path d="M229.356 187.441L225.437 186.661C225.437 186.661 224.106 195.801 220.138 197.225C227.211 200.021 228.529 203.865 228.529 203.865C238.443 199.873 229.356 187.441 229.356 187.441Z" fill="white"/>
<path d="M194.904 139.848C194.879 135.155 196.516 130.644 199.456 127.304C202.396 123.965 206.399 122.071 210.584 122.039C223.303 121.596 232.521 138.759 234.834 150.748C235.487 153.85 235.37 157.093 234.497 160.126C233.624 163.159 232.027 165.866 229.88 167.955C227.733 170.044 225.118 171.434 222.317 171.976C219.515 172.518 216.635 172.191 213.988 171.029C205.789 167.562 202.9 160.385 197.05 148.651C195.659 145.978 194.919 142.942 194.904 139.848Z" fill="#B55B52"/>
<path d="M191.38 139.257C191.36 141.051 191.674 142.829 192.301 144.48C192.928 146.131 193.854 147.617 195.021 148.845C196.188 150.072 197.57 151.014 199.079 151.61C200.588 152.206 202.192 152.444 203.787 152.307C204.96 152.267 206.089 151.795 207 150.963C205.101 150.756 203.349 149.724 202.121 148.087C201.501 147.31 201.027 146.402 200.724 145.417C200.421 144.431 200.297 143.388 200.359 142.348C201.153 142.314 201.93 142.073 202.627 141.643C203.324 141.214 203.922 140.609 204.374 139.875C204.802 139.116 205.067 138.256 205.148 137.363C205.229 136.469 205.124 135.567 204.842 134.727C205.013 132.527 205.416 130.357 206.041 128.262C206.553 126.408 207.614 124.805 209.05 123.719C209.775 123.195 210.617 122.911 211.48 122.899C212.343 122.887 213.192 123.148 213.928 123.652C214.701 124.415 215.433 125.227 216.122 126.085C216.901 126.838 223.746 122.053 214.6 118.491C211.894 117.542 209.021 117.353 206.235 117.941C203.448 118.53 200.833 119.877 198.62 121.865C194.197 125.803 191.452 132.94 191.38 139.257Z" fill="#263238"/>
<path d="M229.368 153.302C229.368 153.302 226.096 153.517 217.561 156.595C219.371 159.458 221.9 161.38 226.275 159.807C227.406 159.466 228.373 158.641 228.969 157.511C229.565 156.381 229.742 155.034 229.464 153.759C229.44 153.611 229.404 153.45 229.368 153.302Z" fill="#263238"/>
<path d="M223.602 157.952C225.258 157.236 227.085 157.189 228.769 157.818C228.151 158.751 227.281 159.435 226.287 159.766C224.631 160.482 222.805 160.53 221.121 159.901C221.729 158.957 222.603 158.271 223.602 157.952Z" fill="#E83F3F"/>
<path d="M228.961 153.354C228.981 153.761 228.906 154.167 228.742 154.53C228.577 154.894 228.33 155.202 228.026 155.424C225.49 156.323 222.886 156.957 220.246 157.319C219.824 157.407 219.389 157.369 218.983 157.212C218.578 157.054 218.215 156.781 217.932 156.419C221.525 155.051 225.214 154.026 228.961 153.354Z" fill="white"/>
<path opacity="0.2" d="M226.12 150.25C226.91 150.098 227.662 149.755 228.322 149.244C228.983 148.734 229.536 148.068 229.944 147.293C227.078 145.611 224.432 143.494 222.08 141.003L226.12 150.25Z" fill="black"/>
<path d="M197.793 151.702C200.55 150.358 204.554 153.476 206.46 156.057C208.57 158.933 208.33 162.293 205.106 162.401C202.51 162.335 200.013 161.272 198.033 159.39C195.587 157.011 195.096 153.032 197.793 151.702Z" fill="#B55B52"/>
<path d="M215.391 142.737C215.966 142.455 216.829 143.114 217.201 144.081C217.572 145.049 217.453 146.003 216.877 146.299C216.302 146.595 215.547 145.977 215.055 145.036C214.564 144.095 214.803 143.019 215.391 142.737Z" fill="#263238"/>
<path d="M225.149 137.213C225.736 136.944 226.551 137.495 226.971 138.476C227.39 139.458 227.27 140.506 226.683 140.788C226.096 141.07 225.28 140.492 224.861 139.511C224.441 138.53 224.573 137.495 225.149 137.213Z" fill="#263238"/>
<path d="M221.948 133.854C222.034 133.9 222.128 133.924 222.224 133.924C222.319 133.924 222.413 133.9 222.499 133.854C223.112 133.409 223.808 133.126 224.533 133.029C225.258 132.931 225.993 133.02 226.683 133.289C226.748 133.326 226.819 133.348 226.892 133.353C226.965 133.359 227.038 133.348 227.107 133.322C227.176 133.296 227.24 133.255 227.295 133.2C227.35 133.146 227.394 133.081 227.426 133.007C227.487 132.852 227.491 132.676 227.437 132.517C227.383 132.359 227.276 132.23 227.139 132.16C226.282 131.802 225.363 131.671 224.454 131.779C223.545 131.886 222.671 132.228 221.9 132.778C221.772 132.87 221.681 133.013 221.645 133.179C221.609 133.344 221.632 133.519 221.708 133.666C221.775 133.747 221.857 133.811 221.948 133.854Z" fill="#263238"/>
<path d="M211.831 142.119C211.923 142.1 212.009 142.055 212.082 141.989C212.155 141.924 212.213 141.839 212.25 141.743C212.496 140.969 212.894 140.268 213.415 139.691C213.936 139.113 214.566 138.676 215.259 138.41C215.33 138.392 215.397 138.359 215.457 138.312C215.516 138.266 215.567 138.206 215.606 138.138C215.645 138.069 215.671 137.992 215.684 137.912C215.696 137.832 215.694 137.75 215.679 137.67C215.662 137.589 215.631 137.512 215.587 137.444C215.543 137.376 215.488 137.319 215.425 137.275C215.361 137.231 215.29 137.202 215.217 137.189C215.143 137.176 215.068 137.18 214.995 137.2C214.124 137.508 213.328 138.038 212.671 138.749C212.013 139.461 211.512 140.334 211.207 141.299C211.18 141.379 211.168 141.463 211.17 141.548C211.172 141.633 211.189 141.717 211.221 141.794C211.252 141.872 211.296 141.941 211.352 142C211.407 142.058 211.472 142.103 211.543 142.133C211.638 142.153 211.737 142.148 211.831 142.119Z" fill="#263238"/>
<path d="M196.403 226.041L197.913 222.466C199.891 217.762 208.222 199.026 212.298 197.05L213.785 195.988L219.371 205.639C218.4 206.566 207.743 237.412 205.201 243.863C204.81 244.85 204.477 245.865 204.207 246.901C202.516 254.024 191.8 264.777 184.607 244.468C182.821 240.181 181.179 235.96 179.704 231.7C178.949 229.482 178.266 227.399 177.582 225.208C177.462 224.818 177.211 224.025 176.887 222.963C173.567 212.332 173.003 200.115 182.054 193.892L188.143 191.593L196.403 226.041Z" fill="#219EBC"/>
<g opacity="0.1">
<path opacity="0.1" d="M196.403 226.041L197.913 222.466C199.891 217.762 208.222 199.026 212.298 197.05L213.785 195.988L219.371 205.639C218.4 206.566 207.743 237.412 205.201 243.863C204.81 244.85 204.477 245.865 204.207 246.901C202.516 254.024 191.8 264.777 184.607 244.468C182.821 240.181 181.179 235.96 179.704 231.7C178.949 229.482 178.266 227.399 177.582 225.208C177.462 224.818 177.211 224.025 176.887 222.963C173.567 212.332 173.003 200.115 182.054 193.892L188.143 191.593L196.403 226.041Z" fill="white"/>
</g>
<path d="M228.529 189.04C228.58 189.497 228.673 189.947 228.805 190.384C228.986 191.027 229.223 191.648 229.512 192.239C229.915 193.01 230.416 193.712 230.999 194.322L231.394 194.712C231.747 195.076 232.128 195.405 232.533 195.693C233.289 196.322 234.149 196.779 235.062 197.037C235.147 197.056 235.226 197.097 235.293 197.158C235.36 197.219 235.412 197.297 235.446 197.386C235.554 197.642 235.698 197.87 235.818 198.099C235.937 198.327 236.021 198.515 236.105 198.717C236.209 199.027 236.403 199.287 236.657 199.456C237.138 199.771 237.666 199.985 238.215 200.088C239.645 200.423 241.108 200.545 242.566 200.451C243.321 200.422 244.073 200.346 244.82 200.222C245.631 200.098 246.433 199.904 247.218 199.644C247.848 199.459 248.45 199.169 249.004 198.784C249.243 198.644 249.433 198.416 249.543 198.139C249.603 197.978 249.615 197.843 249.687 197.682L250.166 196.338C250.406 195.679 250.598 194.994 250.778 194.322C250.98 193.666 251.149 192.997 251.281 192.319C251.401 191.62 251.545 190.975 251.641 190.223C251.797 189.04 251.917 187.857 252.037 186.661C252.037 186.096 252.037 185.451 252.037 184.887C252.052 184.434 252.007 183.981 251.905 183.543C251.82 183.235 251.673 182.954 251.473 182.723C250.911 182.09 250.237 181.595 249.495 181.271C248.797 180.962 248.069 180.746 247.325 180.626C247.014 180.626 246.714 180.492 246.402 180.451C243.135 179.935 239.807 180.215 236.645 181.271C236.011 181.48 235.39 181.736 234.787 182.037C234.263 182.33 233.773 182.691 233.324 183.112C232.982 183.419 232.697 183.798 232.485 184.228C232.415 184.4 232.363 184.58 232.329 184.766C232.329 184.981 232.329 184.994 232.089 184.954C231.585 184.828 231.06 184.854 230.568 185.029C230.075 185.204 229.633 185.521 229.284 185.948C229.014 186.321 228.815 186.75 228.697 187.212C228.526 187.801 228.469 188.424 228.529 189.04ZM236.573 186.244C235.915 186.125 235.271 185.922 234.655 185.639C234.501 185.587 234.358 185.5 234.235 185.384C234.421 184.95 234.701 184.575 235.05 184.295C235.278 184.109 235.519 183.943 235.77 183.798C236.203 183.545 236.656 183.338 237.124 183.18C237.847 182.93 238.584 182.733 239.33 182.588C240.044 182.449 240.764 182.35 241.488 182.293C242.159 182.293 242.686 182.212 243.382 182.212C244.231 182.221 245.08 182.284 245.923 182.4C246.782 182.512 247.626 182.733 248.44 183.059C249.141 183.323 249.769 183.786 250.262 184.403H250.202L250.023 184.551C249.854 184.684 249.678 184.805 249.495 184.913C248.806 185.308 248.078 185.611 247.325 185.814L246.81 185.948L246.522 186.029C245.964 186.169 245.4 186.277 244.832 186.352C244.285 186.456 243.732 186.518 243.178 186.54L241.895 186.647H241.524C240.948 186.647 240.385 186.647 239.809 186.647C239.234 186.647 238.802 186.647 238.299 186.647C237.718 186.546 237.142 186.411 236.573 186.244ZM231.154 188.448C231.197 188.177 231.313 187.927 231.487 187.733C231.661 187.538 231.884 187.408 232.125 187.36H232.497C232.641 188.287 232.845 189.161 233.024 190.048C233.252 191.217 233.576 192.346 233.9 193.475C234.046 194.036 234.264 194.57 234.547 195.061L233.947 194.55C232.822 193.43 231.919 192.056 231.298 190.518C231.052 189.864 231.002 189.138 231.154 188.448Z" fill="white"/>
<path opacity="0.7" d="M233.648 185.882C234.942 187.078 237.759 187.67 242.363 187.374C246.966 187.078 249.711 186.124 250.862 184.78C251.164 184.366 251.309 183.836 251.267 183.303C251.224 182.77 250.997 182.277 250.634 181.93C250.286 181.676 249.916 181.46 249.531 181.285C248.833 180.976 248.105 180.76 247.361 180.64L246.438 180.452C243.169 179.946 239.841 180.234 236.681 181.299C236.047 181.503 235.426 181.755 234.822 182.051C234.512 182.227 234.212 182.425 233.923 182.643C233.69 182.814 233.494 183.042 233.35 183.309C233.206 183.577 233.118 183.877 233.091 184.188C233.065 184.499 233.101 184.813 233.197 185.106C233.294 185.399 233.448 185.665 233.648 185.882ZM234.223 185.385C234.406 184.948 234.687 184.573 235.038 184.296C235.266 184.11 235.507 183.944 235.757 183.799C236.194 183.543 236.652 183.336 237.124 183.18C237.844 182.934 238.577 182.737 239.318 182.589C240.032 182.45 240.752 182.351 241.476 182.293C242.106 182.253 242.739 182.253 243.37 182.293C244.219 182.291 245.068 182.349 245.911 182.468C246.765 182.585 247.605 182.806 248.416 183.127C249.12 183.384 249.749 183.848 250.238 184.471L250.047 184.632C249.882 184.761 249.71 184.878 249.531 184.981C248.84 185.372 248.113 185.674 247.361 185.882L246.834 186.03L246.546 186.097C245.995 186.232 245.431 186.339 244.868 186.433C244.305 186.527 243.765 186.581 243.202 186.621C242.638 186.662 242.351 186.702 241.919 186.715H241.535C240.972 186.715 240.409 186.715 239.833 186.715C239.258 186.715 238.826 186.715 238.323 186.635C237.739 186.565 237.159 186.461 236.585 186.326C235.931 186.205 235.292 186.002 234.679 185.721C234.506 185.649 234.35 185.534 234.223 185.385Z" fill="white"/>
<path d="M234.235 185.384C234.358 185.5 234.501 185.587 234.655 185.639C235.271 185.922 235.915 186.125 236.573 186.244C237.143 186.38 237.719 186.483 238.299 186.553C238.802 186.553 239.306 186.553 239.809 186.553C240.313 186.553 240.948 186.553 241.523 186.553H241.895L243.178 186.446C243.732 186.424 244.285 186.362 244.832 186.258C245.4 186.183 245.964 186.075 246.522 185.935L246.81 185.855L247.325 185.72C248.078 185.517 248.806 185.215 249.495 184.82C249.678 184.712 249.854 184.59 250.022 184.457L250.202 184.309H250.262C249.769 183.692 249.141 183.229 248.44 182.965C247.626 182.64 246.781 182.419 245.923 182.306C245.079 182.19 244.231 182.127 243.381 182.118C242.698 182.118 242.183 182.118 241.487 182.199C240.764 182.257 240.044 182.355 239.33 182.494C238.584 182.639 237.847 182.837 237.124 183.086C236.656 183.244 236.203 183.451 235.769 183.704C235.519 183.849 235.278 184.015 235.05 184.201C234.69 184.508 234.408 184.916 234.235 185.384Z" fill="#263238"/>
<path opacity="0.3" d="M234.175 183.785C234.324 183.577 234.493 183.388 234.678 183.221C236.396 181.947 238.369 181.171 240.42 180.963C241.567 180.768 242.727 180.701 243.885 180.761C245.883 180.77 247.854 181.285 249.651 182.266C249.848 182.407 250.033 182.569 250.202 182.75C250.388 182.947 250.502 183.216 250.52 183.502C250.537 183.788 250.458 184.072 250.298 184.296C250.236 184.37 250.168 184.437 250.094 184.497C248.32 182.549 243.681 182.481 242.147 182.508C240.612 182.535 236.033 183.341 234.463 185.492C234.38 185.451 234.303 185.397 234.235 185.331C234.056 185.127 233.951 184.856 233.94 184.571C233.929 184.285 234.013 184.005 234.175 183.785Z" fill="black"/>
<path d="M231.85 190.612L232.857 196.136L229.812 200.262C226.842 203.071 223.252 204.928 219.419 205.639C218.389 205.774 217.347 205.552 216.433 205.001C215.52 204.451 214.779 203.599 214.312 202.561L213.821 201.499C213.608 201.02 213.447 200.515 213.341 199.994C212.73 197.144 213.593 195.531 215.739 193.865L223.159 186.553C223.71 186.11 232.173 185.209 232.173 185.209C233.085 185.236 232.03 189.591 231.85 190.612Z" fill="#B55B52"/>
<path d="M216.146 301.967H208.582V338.149H216.146V301.967Z" fill="#263238"/>
<path d="M216.146 301.967H208.582V363.431H216.146V301.967Z" fill="#219EBC"/>
<path opacity="0.5" d="M216.146 301.967H208.582V363.431H216.146V301.967Z" fill="white"/>
<path d="M169.023 307.787C185.266 300.099 221.768 305.166 238.766 310.475C240.472 311.061 242.31 310.927 243.933 310.097C245.557 309.268 246.853 307.801 247.577 305.973C248.908 302.209 246.091 290.623 241.811 289.279C221.972 283.07 182.893 285.247 163.893 294.225C159.793 296.161 158.007 301.04 159.745 304.575C160.675 306.288 162.132 307.561 163.841 308.153C165.55 308.745 167.394 308.615 169.023 307.787Z" fill="#219EBC"/>
<g opacity="0.3">
<path opacity="0.3" d="M169.023 307.787C185.266 300.099 221.768 305.166 238.766 310.475C240.472 311.061 242.31 310.927 243.933 310.097C245.557 309.268 246.853 307.801 247.577 305.973C248.908 302.209 246.091 290.623 241.811 289.279C221.972 283.07 182.893 285.247 163.893 294.225C159.793 296.161 158.007 301.04 159.745 304.575C160.675 306.288 162.132 307.561 163.841 308.153C165.55 308.745 167.394 308.615 169.023 307.787Z" fill="white"/>
</g>
<path d="M424.225 114.673H268.244C267.935 114.673 267.63 114.603 267.347 114.466C267.063 114.329 266.808 114.129 266.597 113.877C266.386 113.625 266.223 113.327 266.118 113.001C266.014 112.676 265.97 112.33 265.99 111.985L267.536 92.1601C267.584 91.5267 267.842 90.9364 268.26 90.506C268.677 90.0755 269.223 89.836 269.79 89.835H425.771C426.086 89.8356 426.397 89.9094 426.685 90.0518C426.974 90.1942 427.232 90.402 427.445 90.6622C427.658 90.9224 427.821 91.2293 427.922 91.5635C428.024 91.8976 428.063 92.2518 428.037 92.6037L426.478 112.428C426.416 113.048 426.151 113.621 425.735 114.035C425.319 114.45 424.781 114.677 424.225 114.673Z" fill="#219EBC"/>
<path opacity="0.5" d="M424.225 114.673H268.244C267.935 114.673 267.63 114.603 267.347 114.466C267.063 114.329 266.808 114.129 266.597 113.877C266.386 113.625 266.223 113.327 266.118 113.001C266.014 112.676 265.97 112.33 265.99 111.985L267.536 92.1601C267.584 91.5267 267.842 90.9364 268.26 90.506C268.677 90.0755 269.223 89.836 269.79 89.835H425.771C426.086 89.8356 426.397 89.9094 426.685 90.0518C426.974 90.1942 427.232 90.402 427.445 90.6622C427.658 90.9224 427.821 91.2293 427.922 91.5635C428.024 91.8976 428.063 92.2518 428.037 92.6037L426.478 112.428C426.416 113.048 426.151 113.621 425.735 114.035C425.319 114.45 424.781 114.677 424.225 114.673Z" fill="white"/>
<path d="M286.971 101.287C286.955 101.415 286.947 101.507 286.947 101.563C286.947 102.043 287.199 102.283 287.703 102.283C288.015 102.283 288.295 102.199 288.543 102.031L288.807 103.135C288.399 103.391 287.883 103.519 287.259 103.519C286.707 103.519 286.263 103.367 285.927 103.063C285.591 102.759 285.423 102.339 285.423 101.803C285.423 101.627 285.439 101.459 285.471 101.299L286.083 98.2746H285.039L285.279 97.0746H286.323L286.611 95.6106H288.111L287.811 97.0746H289.539L289.299 98.2746H287.571L286.971 101.287ZM291.904 101.287C291.888 101.415 291.88 101.507 291.88 101.563C291.88 102.043 292.132 102.283 292.636 102.283C292.948 102.283 293.228 102.199 293.476 102.031L293.74 103.135C293.332 103.391 292.816 103.519 292.192 103.519C291.64 103.519 291.196 103.367 290.86 103.063C290.524 102.759 290.356 102.339 290.356 101.803C290.356 101.627 290.372 101.459 290.404 101.299L291.016 98.2746H289.972L290.212 97.0746H291.256L291.544 95.6106H293.044L292.744 97.0746H294.472L294.232 98.2746H292.504L291.904 101.287ZM299.534 96.9546C300.062 96.9546 300.538 97.0666 300.962 97.2906C301.394 97.5146 301.734 97.8386 301.982 98.2626C302.23 98.6866 302.354 99.1866 302.354 99.7626C302.354 100.475 302.194 101.119 301.874 101.695C301.562 102.263 301.13 102.711 300.578 103.039C300.034 103.359 299.426 103.519 298.754 103.519C298.25 103.519 297.81 103.431 297.434 103.255C297.058 103.079 296.766 102.823 296.558 102.487L295.91 105.763H294.41L296.15 97.0266H297.578L297.446 97.6986C298.006 97.2026 298.702 96.9546 299.534 96.9546ZM298.634 102.235C299.058 102.235 299.434 102.135 299.762 101.935C300.098 101.727 300.362 101.443 300.554 101.083C300.746 100.715 300.842 100.299 300.842 99.8346C300.842 99.3306 300.694 98.9386 300.398 98.6586C300.102 98.3706 299.686 98.2266 299.15 98.2266C298.726 98.2266 298.346 98.3306 298.01 98.5386C297.682 98.7386 297.422 99.0226 297.23 99.3906C297.038 99.7506 296.942 100.163 296.942 100.627C296.942 101.131 297.09 101.527 297.386 101.815C297.682 102.095 298.098 102.235 298.634 102.235ZM305.289 103.519C304.745 103.519 304.225 103.455 303.729 103.327C303.241 103.191 302.861 103.023 302.589 102.823L303.213 101.671C303.477 101.863 303.809 102.015 304.209 102.127C304.609 102.239 305.021 102.295 305.445 102.295C305.925 102.295 306.285 102.231 306.525 102.103C306.773 101.967 306.897 101.775 306.897 101.527C306.897 101.335 306.793 101.195 306.585 101.107C306.385 101.019 306.065 100.927 305.625 100.831C305.169 100.743 304.793 100.651 304.497 100.555C304.209 100.451 303.957 100.287 303.741 100.063C303.533 99.8306 303.429 99.5146 303.429 99.1146C303.429 98.4506 303.705 97.9266 304.257 97.5426C304.817 97.1506 305.557 96.9546 306.477 96.9546C306.917 96.9546 307.345 97.0066 307.761 97.1106C308.177 97.2066 308.517 97.3386 308.781 97.5066L308.229 98.6586C307.965 98.4906 307.665 98.3666 307.329 98.2866C307.001 98.2066 306.669 98.1666 306.333 98.1666C305.861 98.1666 305.501 98.2386 305.253 98.3826C305.013 98.5266 304.893 98.7146 304.893 98.9466C304.893 99.1546 304.997 99.3066 305.205 99.4026C305.421 99.4906 305.753 99.5826 306.201 99.6786C306.649 99.7666 307.017 99.8626 307.305 99.9666C307.593 100.063 307.841 100.223 308.049 100.447C308.257 100.671 308.361 100.975 308.361 101.359C308.361 102.047 308.081 102.579 307.521 102.955C306.961 103.331 306.217 103.519 305.289 103.519ZM310.804 98.9466C310.54 98.9466 310.316 98.8586 310.132 98.6826C309.956 98.5066 309.868 98.2826 309.868 98.0106C309.868 97.7066 309.968 97.4546 310.168 97.2546C310.368 97.0546 310.616 96.9546 310.912 96.9546C311.176 96.9546 311.396 97.0426 311.572 97.2186C311.748 97.3946 311.836 97.6186 311.836 97.8906C311.836 98.2026 311.732 98.4586 311.524 98.6586C311.324 98.8506 311.084 98.9466 310.804 98.9466ZM309.892 103.519C309.628 103.519 309.404 103.431 309.22 103.255C309.044 103.079 308.956 102.855 308.956 102.583C308.956 102.279 309.056 102.027 309.256 101.827C309.456 101.627 309.704 101.527 310 101.527C310.264 101.527 310.484 101.615 310.66 101.791C310.836 101.967 310.924 102.191 310.924 102.463C310.924 102.775 310.82 103.031 310.612 103.231C310.412 103.423 310.172 103.519 309.892 103.519ZM317.368 93.3306H318.784L312.616 104.635H311.2L317.368 93.3306ZM320.977 93.3306H322.393L316.225 104.635H314.809L320.977 93.3306ZM331.859 97.0266L328.283 103.435H326.807L325.943 99.0186L323.435 103.435H321.983L320.807 97.0266H322.175L322.991 101.743L325.667 97.0266H326.951L327.803 101.743L330.443 97.0266H331.859ZM342.804 97.0266L339.228 103.435H337.752L336.888 99.0186L334.38 103.435H332.928L331.752 97.0266H333.12L333.936 101.743L336.612 97.0266H337.896L338.748 101.743L341.388 97.0266H342.804ZM353.75 97.0266L350.174 103.435H348.698L347.834 99.0186L345.326 103.435H343.874L342.698 97.0266H344.066L344.882 101.743L347.558 97.0266H348.842L349.694 101.743L352.334 97.0266H353.75ZM353.674 103.519C353.41 103.519 353.186 103.431 353.002 103.255C352.826 103.079 352.738 102.855 352.738 102.583C352.738 102.279 352.838 102.027 353.038 101.827C353.238 101.627 353.486 101.527 353.782 101.527C354.046 101.527 354.266 101.615 354.442 101.791C354.618 101.967 354.706 102.191 354.706 102.463C354.706 102.775 354.602 103.031 354.394 103.231C354.194 103.423 353.954 103.519 353.674 103.519ZM356.603 103.519C356.339 103.519 356.115 103.431 355.931 103.255C355.755 103.079 355.667 102.855 355.667 102.583C355.667 102.279 355.767 102.027 355.967 101.827C356.167 101.627 356.415 101.527 356.711 101.527C356.975 101.527 357.195 101.615 357.371 101.791C357.547 101.967 357.635 102.191 357.635 102.463C357.635 102.775 357.531 103.031 357.323 103.231C357.123 103.423 356.883 103.519 356.603 103.519ZM359.533 103.519C359.269 103.519 359.045 103.431 358.861 103.255C358.685 103.079 358.597 102.855 358.597 102.583C358.597 102.279 358.697 102.027 358.897 101.827C359.097 101.627 359.345 101.527 359.641 101.527C359.905 101.527 360.125 101.615 360.301 101.791C360.477 101.967 360.565 102.191 360.565 102.463C360.565 102.775 360.461 103.031 360.253 103.231C360.053 103.423 359.813 103.519 359.533 103.519Z" fill="white"/>
<path d="M250.922 108.181C249.883 108.202 248.853 107.976 247.898 107.518C246.943 107.059 246.086 106.379 245.384 105.521C244.681 104.664 244.149 103.648 243.822 102.543C243.496 101.438 243.382 100.267 243.489 99.1087C243.717 96.7409 244.71 94.5483 246.28 92.9441C247.85 91.3399 249.889 90.4348 252.013 90.3993C253.051 90.3781 254.082 90.6042 255.038 91.0626C255.993 91.521 256.851 92.2013 257.554 93.0587C258.258 93.916 258.791 94.9309 259.119 96.0363C259.447 97.1418 259.562 98.3126 259.457 99.4716C259.226 101.841 258.231 104.033 256.659 105.637C255.087 107.241 253.047 108.146 250.922 108.181ZM252.013 94.4315C250.783 94.4519 249.603 94.9734 248.692 95.8985C247.781 96.8236 247.201 98.0889 247.062 99.4582C247.006 100.054 247.063 100.656 247.228 101.226C247.393 101.795 247.663 102.32 248.021 102.765C248.393 103.205 248.844 103.552 249.343 103.783C249.843 104.015 250.381 104.126 250.922 104.109C252.153 104.088 253.334 103.564 254.246 102.637C255.157 101.709 255.736 100.44 255.872 99.0684C255.929 98.4727 255.873 97.8703 255.707 97.3006C255.542 96.7308 255.272 96.2066 254.913 95.7621C254.54 95.3245 254.089 94.9798 253.589 94.7506C253.089 94.5213 252.552 94.4126 252.013 94.4315Z" fill="#219EBC"/>
<path d="M259.649 114.552C259.364 114.55 259.084 114.474 258.83 114.329C258.576 114.185 258.356 113.976 258.186 113.719L253.391 106.313C253.242 106.101 253.133 105.856 253.07 105.595C253.006 105.334 252.991 105.061 253.024 104.793C253.057 104.525 253.137 104.267 253.261 104.035C253.385 103.802 253.549 103.6 253.744 103.441C253.938 103.281 254.16 103.167 254.395 103.105C254.63 103.043 254.874 103.035 255.111 103.081C255.349 103.127 255.576 103.227 255.779 103.373C255.982 103.52 256.156 103.711 256.292 103.934L261.087 111.34C261.227 111.554 261.328 111.797 261.383 112.055C261.439 112.313 261.449 112.581 261.412 112.843C261.376 113.106 261.293 113.357 261.169 113.584C261.046 113.81 260.883 114.007 260.692 114.163C260.387 114.408 260.024 114.544 259.649 114.552Z" fill="#219EBC"/>
<g opacity="0.5">
<path opacity="0.5" d="M250.922 108.181C249.88 108.196 248.847 107.964 247.891 107.501C246.935 107.037 246.076 106.353 245.372 105.493C244.675 104.637 244.147 103.626 243.822 102.526C243.498 101.426 243.384 100.261 243.49 99.1087C243.718 96.7409 244.71 94.5483 246.28 92.9441C247.85 91.3399 249.889 90.4348 252.013 90.3993C253.052 90.3781 254.083 90.6042 255.038 91.0626C255.993 91.521 256.851 92.2013 257.554 93.0587C258.258 93.916 258.791 94.9309 259.119 96.0363C259.447 97.1417 259.562 98.3126 259.457 99.4716C259.226 101.841 258.231 104.033 256.659 105.637C255.087 107.241 253.047 108.146 250.922 108.181ZM252.013 94.4314C250.784 94.4519 249.603 94.9734 248.692 95.8985C247.781 96.8235 247.201 98.0889 247.062 99.4581C247.006 100.054 247.063 100.656 247.228 101.226C247.393 101.795 247.663 102.319 248.021 102.764C248.393 103.205 248.844 103.552 249.344 103.783C249.843 104.015 250.381 104.126 250.922 104.109C252.153 104.088 253.335 103.564 254.246 102.636C255.157 101.709 255.736 100.44 255.873 99.0684C255.929 98.4726 255.873 97.8702 255.708 97.3005C255.542 96.7308 255.272 96.2066 254.914 95.762C254.54 95.3244 254.089 94.9798 253.589 94.7506C253.09 94.5213 252.552 94.4126 252.013 94.4314Z" fill="white"/>
<path opacity="0.5" d="M259.649 114.551C259.364 114.549 259.084 114.473 258.83 114.328C258.576 114.184 258.356 113.975 258.186 113.718L253.391 106.312C253.242 106.1 253.133 105.855 253.07 105.594C253.006 105.333 252.991 105.06 253.024 104.792C253.057 104.524 253.137 104.266 253.261 104.034C253.385 103.801 253.549 103.599 253.744 103.44C253.938 103.28 254.16 103.166 254.395 103.104C254.63 103.042 254.874 103.034 255.111 103.08C255.349 103.126 255.576 103.226 255.779 103.372C255.982 103.519 256.156 103.71 256.292 103.933L261.087 111.339C261.227 111.553 261.328 111.796 261.383 112.054C261.439 112.312 261.449 112.58 261.412 112.842C261.376 113.105 261.293 113.356 261.169 113.583C261.046 113.809 260.883 114.006 260.692 114.162C260.387 114.407 260.024 114.543 259.649 114.551Z" fill="white"/>
</g>
<path opacity="0.1" d="M427.953 91.8379C427.719 91.74 427.471 91.6899 427.221 91.6901H271.3C270.732 91.6909 270.185 91.9298 269.765 92.3601C269.346 92.7903 269.086 93.3807 269.035 94.0153L267.488 113.84C267.464 114.068 267.464 114.298 267.488 114.526C267.007 114.351 266.592 113.998 266.313 113.524C266.034 113.05 265.908 112.484 265.954 111.918L267.5 92.0933C267.548 91.4598 267.807 90.8696 268.224 90.4391C268.641 90.0086 269.187 89.7691 269.754 89.7681H425.771C426.291 89.7796 426.792 89.9917 427.19 90.3686C427.587 90.7456 427.856 91.2644 427.953 91.8379Z" fill="black"/>
<path d="M194.017 283.339L178.685 490.485H183.337L208.474 283.339H194.017Z" fill="#219EBC"/>
<path d="M364.563 283.339L389.701 490.485H394.352L379.02 283.339H364.563Z" fill="#219EBC"/>
<path d="M208.186 490.646H212.838L240.013 283.339H225.556L208.186 490.646Z" fill="#219EBC"/>
<path d="M408.701 283.339H394.232L421.983 490.646H426.634L408.701 283.339Z" fill="#219EBC"/>
<path d="M422.031 280.073C421.993 278.721 421.479 277.441 420.6 276.513C419.721 275.586 418.55 275.088 417.344 275.127H168.472C167.873 275.092 167.273 275.194 166.71 275.428C166.147 275.661 165.632 276.02 165.197 276.483C164.761 276.946 164.414 277.504 164.178 278.123C163.941 278.741 163.818 279.407 163.818 280.08C163.818 280.753 163.941 281.419 164.178 282.037C164.414 282.656 164.761 283.214 165.197 283.677C165.632 284.14 166.147 284.5 166.71 284.733C167.273 284.966 167.873 285.068 168.472 285.033H417.344C417.942 285.053 418.538 284.94 419.097 284.701C419.657 284.463 420.169 284.103 420.604 283.642C421.039 283.182 421.389 282.629 421.634 282.017C421.879 281.405 422.014 280.744 422.031 280.073Z" fill="#219EBC"/>
<path opacity="0.5" d="M421.959 490.645H426.61L408.821 285.006H417.32C417.919 285.041 418.519 284.939 419.082 284.705C419.645 284.472 420.16 284.113 420.595 283.65C421.031 283.186 421.377 282.629 421.614 282.01C421.851 281.392 421.973 280.726 421.973 280.053C421.973 279.38 421.851 278.714 421.614 278.095C421.377 277.477 421.031 276.919 420.595 276.456C420.16 275.992 419.645 275.633 419.082 275.4C418.519 275.167 417.919 275.065 417.32 275.1H168.472C167.873 275.065 167.273 275.167 166.71 275.4C166.147 275.633 165.632 275.992 165.197 276.456C164.761 276.919 164.414 277.477 164.178 278.095C163.941 278.714 163.818 279.38 163.818 280.053C163.818 280.726 163.941 281.392 164.178 282.01C164.414 282.629 164.761 283.186 165.197 283.65C165.632 284.113 166.147 284.472 166.71 284.705C167.273 284.939 167.873 285.041 168.472 285.006H193.885L178.685 490.484H183.337L208.27 285.033H225.365L208.139 490.672H212.79L239.75 285.033H364.767L389.701 490.484H394.388L379.152 285.033H394.46L421.959 490.645Z" fill="white"/>
<path d="M315.642 271.23H318.867C319.029 271.23 319.185 271.157 319.299 271.029C319.414 270.9 319.478 270.726 319.478 270.544V266.74C319.463 266.57 319.392 266.413 319.279 266.299C319.166 266.184 319.019 266.121 318.867 266.122H316.553C316.419 266.121 316.287 266.17 316.181 266.263C316.074 266.356 315.998 266.486 315.966 266.633L315.055 270.437C315.041 270.533 315.046 270.632 315.069 270.726C315.092 270.82 315.133 270.907 315.188 270.982C315.244 271.057 315.313 271.118 315.392 271.161C315.47 271.204 315.555 271.227 315.642 271.23Z" fill="#219EBC"/>
<path d="M311.195 271.229H314.407C314.488 271.231 314.568 271.215 314.643 271.181C314.718 271.147 314.786 271.097 314.843 271.033C314.9 270.969 314.945 270.892 314.975 270.808C315.006 270.724 315.02 270.634 315.019 270.544V266.74C315.019 266.558 314.954 266.384 314.84 266.256C314.725 266.127 314.569 266.055 314.407 266.055H312.106C311.969 266.053 311.836 266.102 311.728 266.194C311.619 266.287 311.541 266.418 311.506 266.565L310.607 270.369C310.583 270.47 310.581 270.576 310.599 270.679C310.617 270.781 310.656 270.878 310.713 270.961C310.77 271.044 310.843 271.111 310.926 271.158C311.009 271.204 311.101 271.229 311.195 271.229Z" fill="#219EBC"/>
<path d="M306.759 271.229H309.972C310.134 271.229 310.29 271.157 310.404 271.028C310.519 270.9 310.583 270.726 310.583 270.544V266.74C310.583 266.558 310.519 266.384 310.404 266.256C310.29 266.127 310.134 266.055 309.972 266.055H307.67C307.534 266.053 307.401 266.102 307.292 266.194C307.184 266.287 307.106 266.418 307.071 266.565L306.172 270.369C306.148 270.47 306.145 270.576 306.164 270.678C306.182 270.781 306.221 270.877 306.278 270.96C306.334 271.043 306.407 271.111 306.491 271.157C306.574 271.204 306.666 271.229 306.759 271.229Z" fill="#219EBC"/>
<path d="M302.324 271.229H305.537C305.699 271.229 305.854 271.157 305.969 271.028C306.084 270.9 306.148 270.726 306.148 270.544V266.74C306.148 266.558 306.084 266.384 305.969 266.255C305.854 266.127 305.699 266.055 305.537 266.055H303.283C303.148 266.053 303.017 266.103 302.91 266.196C302.804 266.288 302.728 266.419 302.696 266.565L301.785 270.369C301.762 270.466 301.758 270.567 301.773 270.666C301.789 270.765 301.824 270.858 301.875 270.94C301.927 271.022 301.993 271.091 302.071 271.141C302.149 271.191 302.235 271.221 302.324 271.229Z" fill="#219EBC"/>
<path d="M297.889 271.229H301.101C301.263 271.229 301.419 271.157 301.534 271.028C301.648 270.9 301.713 270.725 301.713 270.544V266.74C301.713 266.558 301.648 266.384 301.534 266.255C301.419 266.127 301.263 266.055 301.101 266.055H298.788C298.653 266.053 298.521 266.103 298.415 266.196C298.308 266.288 298.233 266.419 298.2 266.565L297.289 270.369C297.265 270.471 297.263 270.578 297.282 270.682C297.301 270.785 297.341 270.882 297.399 270.966C297.457 271.049 297.531 271.116 297.616 271.162C297.701 271.207 297.794 271.231 297.889 271.229Z" fill="#219EBC"/>
<path d="M293.441 271.229H296.654C296.735 271.231 296.815 271.214 296.89 271.181C296.965 271.147 297.033 271.096 297.09 271.032C297.147 270.968 297.192 270.892 297.222 270.808C297.252 270.724 297.267 270.634 297.265 270.544V266.74C297.265 266.558 297.201 266.384 297.086 266.255C296.972 266.127 296.816 266.055 296.654 266.055H294.353C294.218 266.053 294.086 266.103 293.98 266.196C293.873 266.288 293.797 266.419 293.765 266.565L292.854 270.369C292.83 270.47 292.827 270.576 292.846 270.678C292.864 270.781 292.903 270.877 292.96 270.96C293.016 271.043 293.089 271.111 293.173 271.157C293.256 271.204 293.348 271.228 293.441 271.229Z" fill="#219EBC"/>
<path d="M289.006 271.229H292.219C292.381 271.229 292.536 271.157 292.651 271.028C292.766 270.9 292.83 270.726 292.83 270.544V266.74C292.83 266.558 292.766 266.384 292.651 266.256C292.536 266.127 292.381 266.055 292.219 266.055H289.917C289.781 266.053 289.647 266.102 289.539 266.194C289.43 266.287 289.352 266.418 289.318 266.565L288.419 270.369C288.395 270.47 288.392 270.576 288.41 270.678C288.429 270.781 288.468 270.877 288.524 270.96C288.581 271.043 288.654 271.111 288.737 271.157C288.821 271.204 288.913 271.229 289.006 271.229Z" fill="#219EBC"/>
<path d="M284.571 271.229H287.783C287.945 271.229 288.101 271.157 288.215 271.029C288.33 270.9 288.395 270.726 288.395 270.544V266.74C288.395 266.559 288.33 266.384 288.215 266.256C288.101 266.127 287.945 266.055 287.783 266.055H285.482C285.345 266.051 285.21 266.099 285.101 266.192C284.992 266.285 284.915 266.417 284.882 266.566L283.983 270.369C283.957 270.47 283.952 270.577 283.969 270.681C283.987 270.785 284.025 270.882 284.083 270.966C284.14 271.05 284.214 271.117 284.299 271.163C284.383 271.209 284.476 271.231 284.571 271.229Z" fill="#219EBC"/>
<path d="M280.135 271.229H283.348C283.51 271.229 283.666 271.157 283.78 271.028C283.895 270.9 283.959 270.725 283.959 270.544V266.74C283.959 266.558 283.895 266.384 283.78 266.255C283.666 266.127 283.51 266.055 283.348 266.055H281.034C280.899 266.053 280.768 266.103 280.661 266.196C280.555 266.288 280.479 266.419 280.447 266.565L279.536 270.369C279.512 270.471 279.509 270.578 279.528 270.682C279.547 270.785 279.587 270.882 279.645 270.966C279.703 271.049 279.778 271.116 279.863 271.162C279.948 271.207 280.041 271.231 280.135 271.229Z" fill="#219EBC"/>
<path d="M275.712 271.229H278.925C279.006 271.231 279.087 271.215 279.162 271.181C279.238 271.147 279.307 271.097 279.365 271.033C279.423 270.97 279.469 270.893 279.5 270.809C279.532 270.725 279.548 270.635 279.548 270.544V266.74C279.548 266.649 279.532 266.559 279.5 266.475C279.469 266.391 279.423 266.315 279.365 266.251C279.307 266.187 279.238 266.137 279.162 266.103C279.087 266.069 279.006 266.053 278.925 266.055H276.623C276.488 266.053 276.357 266.103 276.25 266.196C276.144 266.288 276.068 266.419 276.036 266.566L275.125 270.369C275.101 270.47 275.098 270.576 275.116 270.679C275.135 270.781 275.174 270.878 275.23 270.961C275.287 271.044 275.36 271.111 275.443 271.158C275.527 271.204 275.619 271.229 275.712 271.229Z" fill="#219EBC"/>
<path d="M271.253 271.229H274.513C274.675 271.229 274.831 271.157 274.946 271.029C275.06 270.9 275.125 270.726 275.125 270.544V266.74C275.11 266.57 275.039 266.413 274.926 266.299C274.813 266.184 274.666 266.121 274.513 266.122H272.116C271.979 266.12 271.846 266.169 271.738 266.262C271.629 266.354 271.551 266.485 271.516 266.633L270.617 270.437C270.603 270.537 270.609 270.641 270.635 270.739C270.66 270.837 270.705 270.927 270.766 271.003C270.827 271.079 270.902 271.139 270.987 271.178C271.071 271.217 271.162 271.235 271.253 271.229Z" fill="#219EBC"/>
<path d="M266.817 271.229H270.03C270.192 271.229 270.348 271.157 270.462 271.029C270.577 270.9 270.641 270.726 270.641 270.544V266.74C270.641 266.559 270.577 266.384 270.462 266.256C270.348 266.127 270.192 266.055 270.03 266.055H267.728C267.591 266.051 267.457 266.099 267.348 266.192C267.239 266.285 267.162 266.417 267.129 266.566L266.23 270.369C266.204 270.47 266.199 270.577 266.216 270.681C266.233 270.785 266.272 270.882 266.329 270.966C266.387 271.05 266.461 271.117 266.545 271.163C266.63 271.209 266.723 271.231 266.817 271.229Z" fill="#219EBC"/>
<path d="M262.382 271.229H265.594C265.757 271.229 265.912 271.157 266.027 271.028C266.141 270.9 266.206 270.725 266.206 270.544V266.74C266.206 266.558 266.141 266.384 266.027 266.255C265.912 266.127 265.757 266.055 265.594 266.055H263.281C263.146 266.053 263.015 266.103 262.908 266.196C262.801 266.288 262.726 266.419 262.693 266.565L261.782 270.369C261.758 270.471 261.756 270.578 261.775 270.682C261.794 270.785 261.834 270.882 261.892 270.966C261.95 271.049 262.024 271.116 262.109 271.162C262.194 271.207 262.288 271.231 262.382 271.229Z" fill="#219EBC"/>
<path d="M257.946 271.229H261.147C261.228 271.231 261.309 271.215 261.385 271.181C261.46 271.147 261.529 271.097 261.587 271.033C261.645 270.97 261.691 270.893 261.723 270.809C261.754 270.725 261.77 270.635 261.77 270.544V266.74C261.77 266.649 261.754 266.559 261.723 266.475C261.691 266.391 261.645 266.315 261.587 266.251C261.529 266.187 261.46 266.137 261.385 266.103C261.309 266.069 261.228 266.053 261.147 266.055H258.846C258.711 266.053 258.579 266.103 258.473 266.196C258.366 266.288 258.291 266.419 258.258 266.566L257.347 270.369C257.323 270.471 257.32 270.578 257.339 270.682C257.358 270.785 257.398 270.883 257.457 270.966C257.515 271.049 257.589 271.116 257.674 271.162C257.759 271.208 257.852 271.231 257.946 271.229Z" fill="#219EBC"/>
<path d="M253.499 271.229H256.712C256.874 271.229 257.029 271.157 257.144 271.028C257.259 270.9 257.323 270.726 257.323 270.544V266.74C257.323 266.558 257.259 266.384 257.144 266.256C257.029 266.127 256.874 266.055 256.712 266.055H254.41C254.274 266.053 254.141 266.102 254.032 266.194C253.923 266.287 253.846 266.418 253.811 266.565L252.912 270.369C252.888 270.47 252.885 270.576 252.904 270.678C252.922 270.781 252.961 270.877 253.018 270.96C253.074 271.043 253.147 271.111 253.231 271.157C253.314 271.204 253.406 271.229 253.499 271.229Z" fill="#219EBC"/>
<g opacity="0.6">
<path opacity="0.6" d="M315.642 271.23H318.867C319.029 271.23 319.184 271.157 319.299 271.029C319.414 270.9 319.478 270.726 319.478 270.544V266.74C319.463 266.57 319.392 266.413 319.279 266.299C319.166 266.184 319.019 266.121 318.867 266.122H316.553C316.418 266.121 316.287 266.17 316.18 266.263C316.074 266.356 315.998 266.486 315.966 266.633L315.055 270.437C315.041 270.533 315.046 270.632 315.069 270.726C315.092 270.82 315.133 270.907 315.188 270.982C315.244 271.057 315.313 271.118 315.391 271.161C315.47 271.204 315.555 271.227 315.642 271.23Z" fill="white"/>
<path opacity="0.6" d="M311.195 271.229H314.407C314.488 271.231 314.568 271.215 314.643 271.181C314.718 271.147 314.786 271.097 314.843 271.033C314.9 270.969 314.945 270.892 314.975 270.808C315.006 270.724 315.02 270.634 315.019 270.544V266.74C315.019 266.558 314.954 266.384 314.84 266.256C314.725 266.127 314.569 266.055 314.407 266.055H312.106C311.969 266.053 311.836 266.102 311.728 266.194C311.619 266.287 311.541 266.418 311.506 266.565L310.607 270.369C310.583 270.47 310.581 270.576 310.599 270.679C310.617 270.781 310.656 270.878 310.713 270.961C310.77 271.044 310.843 271.111 310.926 271.158C311.009 271.204 311.101 271.229 311.195 271.229Z" fill="white"/>
<path opacity="0.6" d="M306.759 271.229H309.972C310.134 271.229 310.29 271.157 310.404 271.028C310.519 270.9 310.583 270.726 310.583 270.544V266.74C310.583 266.558 310.519 266.384 310.404 266.256C310.29 266.127 310.134 266.055 309.972 266.055H307.67C307.534 266.053 307.401 266.102 307.292 266.194C307.184 266.287 307.106 266.418 307.071 266.565L306.172 270.369C306.148 270.47 306.145 270.576 306.164 270.678C306.182 270.781 306.221 270.877 306.278 270.96C306.334 271.043 306.407 271.111 306.491 271.157C306.574 271.204 306.666 271.229 306.759 271.229Z" fill="white"/>
<path opacity="0.6" d="M302.324 271.229H305.537C305.699 271.229 305.854 271.157 305.969 271.028C306.084 270.9 306.148 270.726 306.148 270.544V266.74C306.148 266.558 306.084 266.384 305.969 266.255C305.854 266.127 305.699 266.055 305.537 266.055H303.283C303.148 266.053 303.017 266.103 302.91 266.196C302.804 266.288 302.728 266.419 302.696 266.565L301.785 270.369C301.762 270.466 301.758 270.567 301.773 270.666C301.789 270.765 301.824 270.858 301.875 270.94C301.927 271.022 301.993 271.091 302.071 271.141C302.149 271.191 302.235 271.221 302.324 271.229Z" fill="white"/>
<path opacity="0.6" d="M297.889 271.229H301.101C301.263 271.229 301.419 271.157 301.534 271.029C301.648 270.9 301.713 270.726 301.713 270.544V266.74C301.713 266.558 301.648 266.384 301.534 266.255C301.419 266.127 301.263 266.055 301.101 266.055H298.788C298.653 266.053 298.521 266.103 298.415 266.196C298.308 266.288 298.233 266.419 298.2 266.565L297.289 270.369C297.265 270.471 297.263 270.578 297.282 270.682C297.301 270.785 297.341 270.883 297.399 270.966C297.457 271.049 297.531 271.116 297.616 271.162C297.701 271.208 297.794 271.231 297.889 271.229Z" fill="white"/>
<path opacity="0.6" d="M293.441 271.229H296.654C296.735 271.231 296.815 271.215 296.89 271.181C296.965 271.147 297.033 271.097 297.09 271.033C297.147 270.969 297.192 270.892 297.222 270.808C297.252 270.724 297.267 270.634 297.265 270.544V266.74C297.265 266.558 297.201 266.384 297.086 266.255C296.972 266.127 296.816 266.055 296.654 266.055H294.353C294.218 266.053 294.086 266.103 293.98 266.196C293.873 266.288 293.797 266.419 293.765 266.565L292.854 270.369C292.83 270.47 292.827 270.576 292.846 270.679C292.864 270.781 292.903 270.878 292.96 270.961C293.016 271.044 293.089 271.111 293.173 271.158C293.256 271.204 293.348 271.229 293.441 271.229Z" fill="white"/>
<path opacity="0.6" d="M289.006 271.229H292.218C292.381 271.229 292.536 271.157 292.651 271.028C292.765 270.9 292.83 270.726 292.83 270.544V266.74C292.83 266.558 292.765 266.384 292.651 266.256C292.536 266.127 292.381 266.055 292.218 266.055H289.917C289.78 266.053 289.647 266.102 289.539 266.194C289.43 266.287 289.352 266.418 289.317 266.565L288.418 270.369C288.395 270.47 288.392 270.576 288.41 270.678C288.428 270.781 288.467 270.877 288.524 270.96C288.581 271.043 288.654 271.111 288.737 271.157C288.821 271.204 288.913 271.229 289.006 271.229Z" fill="white"/>
<path opacity="0.6" d="M284.571 271.23H287.783C287.945 271.23 288.101 271.157 288.215 271.029C288.33 270.9 288.395 270.726 288.395 270.544V266.74C288.395 266.559 288.33 266.384 288.215 266.256C288.101 266.127 287.945 266.055 287.783 266.055H285.482C285.345 266.051 285.21 266.099 285.101 266.192C284.992 266.285 284.915 266.417 284.882 266.566L283.983 270.369C283.957 270.471 283.952 270.577 283.969 270.681C283.987 270.785 284.025 270.882 284.083 270.966C284.14 271.05 284.214 271.117 284.299 271.163C284.383 271.209 284.476 271.232 284.571 271.23Z" fill="white"/>
<path opacity="0.6" d="M280.135 271.229H283.348C283.51 271.229 283.665 271.157 283.78 271.029C283.895 270.9 283.959 270.726 283.959 270.544V266.74C283.959 266.558 283.895 266.384 283.78 266.255C283.665 266.127 283.51 266.055 283.348 266.055H281.034C280.899 266.053 280.768 266.103 280.661 266.196C280.555 266.288 280.479 266.419 280.447 266.565L279.536 270.369C279.512 270.471 279.509 270.578 279.528 270.682C279.547 270.785 279.587 270.883 279.645 270.966C279.703 271.049 279.778 271.116 279.863 271.162C279.948 271.208 280.041 271.231 280.135 271.229Z" fill="white"/>
<path opacity="0.6" d="M275.712 271.229H278.925C279.006 271.231 279.087 271.215 279.162 271.181C279.238 271.147 279.307 271.097 279.365 271.033C279.423 270.97 279.469 270.893 279.5 270.809C279.532 270.725 279.548 270.635 279.548 270.544V266.74C279.548 266.649 279.532 266.559 279.5 266.475C279.469 266.391 279.423 266.315 279.365 266.251C279.307 266.187 279.238 266.137 279.162 266.103C279.087 266.069 279.006 266.053 278.925 266.055H276.623C276.488 266.053 276.357 266.103 276.25 266.196C276.144 266.288 276.068 266.419 276.036 266.566L275.125 270.369C275.101 270.47 275.098 270.576 275.116 270.679C275.135 270.781 275.174 270.878 275.23 270.961C275.287 271.044 275.36 271.111 275.443 271.158C275.527 271.204 275.619 271.229 275.712 271.229Z" fill="white"/>
<path opacity="0.6" d="M271.253 271.229H274.513C274.675 271.229 274.831 271.157 274.946 271.029C275.06 270.9 275.125 270.726 275.125 270.544V266.74C275.11 266.57 275.039 266.413 274.926 266.299C274.813 266.184 274.666 266.121 274.513 266.122H272.116C271.979 266.12 271.846 266.169 271.738 266.262C271.629 266.354 271.551 266.485 271.516 266.633L270.617 270.437C270.603 270.537 270.609 270.641 270.635 270.739C270.66 270.837 270.705 270.927 270.766 271.003C270.827 271.079 270.902 271.139 270.987 271.178C271.071 271.217 271.162 271.235 271.253 271.229Z" fill="white"/>
<path opacity="0.6" d="M266.817 271.23H270.03C270.192 271.23 270.348 271.157 270.462 271.029C270.577 270.9 270.641 270.726 270.641 270.544V266.74C270.641 266.559 270.577 266.384 270.462 266.256C270.348 266.127 270.192 266.055 270.03 266.055H267.728C267.591 266.051 267.457 266.099 267.348 266.192C267.239 266.285 267.162 266.417 267.129 266.566L266.23 270.369C266.204 270.471 266.199 270.577 266.216 270.681C266.233 270.785 266.272 270.882 266.329 270.966C266.387 271.05 266.461 271.117 266.545 271.163C266.63 271.209 266.723 271.232 266.817 271.23Z" fill="white"/>
<path opacity="0.6" d="M262.382 271.229H265.594C265.757 271.229 265.912 271.157 266.027 271.029C266.141 270.9 266.206 270.726 266.206 270.544V266.74C266.206 266.558 266.141 266.384 266.027 266.255C265.912 266.127 265.757 266.055 265.594 266.055H263.281C263.146 266.053 263.015 266.103 262.908 266.196C262.801 266.288 262.726 266.419 262.693 266.565L261.782 270.369C261.758 270.471 261.756 270.578 261.775 270.682C261.794 270.785 261.834 270.883 261.892 270.966C261.95 271.049 262.024 271.116 262.109 271.162C262.194 271.208 262.288 271.231 262.382 271.229Z" fill="white"/>
<path opacity="0.6" d="M257.946 271.229H261.147C261.228 271.231 261.309 271.215 261.385 271.181C261.46 271.147 261.529 271.097 261.587 271.033C261.645 270.97 261.691 270.893 261.723 270.809C261.754 270.725 261.77 270.635 261.77 270.544V266.74C261.77 266.649 261.754 266.559 261.723 266.475C261.691 266.391 261.645 266.315 261.587 266.251C261.529 266.187 261.46 266.137 261.385 266.103C261.309 266.069 261.228 266.053 261.147 266.055H258.845C258.711 266.053 258.579 266.103 258.473 266.196C258.366 266.288 258.29 266.419 258.258 266.566L257.347 270.369C257.323 270.471 257.32 270.578 257.339 270.682C257.358 270.785 257.398 270.883 257.456 270.966C257.514 271.049 257.589 271.116 257.674 271.162C257.759 271.208 257.852 271.231 257.946 271.229Z" fill="white"/>
<path opacity="0.6" d="M253.499 271.229H256.712C256.874 271.229 257.029 271.157 257.144 271.028C257.259 270.9 257.323 270.726 257.323 270.544V266.74C257.323 266.558 257.259 266.384 257.144 266.256C257.029 266.127 256.874 266.055 256.712 266.055H254.41C254.274 266.053 254.141 266.102 254.032 266.194C253.923 266.287 253.846 266.418 253.811 266.565L252.912 270.369C252.888 270.47 252.885 270.576 252.904 270.678C252.922 270.781 252.961 270.877 253.018 270.96C253.074 271.043 253.147 271.111 253.231 271.157C253.314 271.204 253.406 271.229 253.499 271.229Z" fill="white"/>
</g>
<path d="M250.275 274.631H322.079V268.636H250.275V274.631Z" fill="#219EBC"/>
<path opacity="0.6" d="M250.275 274.631H322.079V268.636H250.275V274.631Z" fill="white"/>
<path d="M335.302 274.469H356.388V272.359C356.386 271.382 356.207 270.417 355.861 269.52C355.516 268.624 355.012 267.815 354.38 267.144C353.748 266.473 353 265.953 352.183 265.615C351.366 265.278 350.496 265.13 349.627 265.181L341.367 265.692C339.728 265.788 338.185 266.587 337.056 267.923C335.928 269.258 335.299 271.029 335.302 272.869V274.469Z" fill="#219EBC"/>
<path opacity="0.6" d="M335.302 274.469H356.388V272.359C356.386 271.382 356.207 270.417 355.861 269.52C355.516 268.624 355.012 267.815 354.38 267.144C353.748 266.473 353 265.953 352.183 265.615C351.366 265.278 350.496 265.13 349.627 265.181L341.367 265.692C339.728 265.788 338.185 266.587 337.056 267.923C335.928 269.258 335.299 271.029 335.302 272.869V274.469Z" fill="white"/>
<path d="M268.448 148.101H276.383L270.521 242.117H262.586C262.278 242.122 261.972 242.055 261.689 241.919C261.406 241.783 261.151 241.582 260.942 241.328C260.733 241.074 260.573 240.774 260.475 240.447C260.376 240.12 260.339 239.773 260.368 239.429L265.894 150.722C265.959 150.01 266.255 149.349 266.726 148.866C267.196 148.383 267.809 148.111 268.448 148.101Z" fill="#219EBC"/>
<path opacity="0.7" d="M268.448 148.101H276.383L270.521 242.117H262.586C262.278 242.122 261.972 242.055 261.689 241.919C261.406 241.783 261.151 241.582 260.942 241.328C260.733 241.074 260.573 240.774 260.475 240.447C260.376 240.12 260.339 239.773 260.368 239.429L265.894 150.722C265.959 150.01 266.255 149.349 266.726 148.866C267.196 148.383 267.809 148.111 268.448 148.101Z" fill="white"/>
<path d="M267.141 242.117H386.104C386.752 242.106 387.373 241.824 387.845 241.327C388.317 240.83 388.607 240.153 388.658 239.429L394.184 150.722C394.212 150.378 394.176 150.031 394.077 149.704C393.978 149.377 393.819 149.077 393.61 148.823C393.401 148.57 393.146 148.368 392.863 148.232C392.58 148.096 392.274 148.029 391.966 148.034H273.003C272.355 148.045 271.734 148.327 271.262 148.824C270.79 149.321 270.5 149.998 270.449 150.722L264.923 239.429C264.894 239.773 264.931 240.12 265.029 240.447C265.128 240.774 265.288 241.075 265.497 241.328C265.706 241.582 265.96 241.783 266.244 241.919C266.527 242.055 266.833 242.123 267.141 242.117Z" fill="#263238"/>
<path opacity="0.1" d="M368.135 238.126C368.343 238.123 368.541 238.033 368.692 237.874C368.843 237.714 368.935 237.497 368.95 237.265L369.154 234.08C369.163 233.97 369.15 233.86 369.119 233.756C369.087 233.652 369.036 233.556 368.969 233.475C368.903 233.394 368.822 233.33 368.732 233.286C368.642 233.242 368.545 233.219 368.447 233.22C368.24 233.222 368.041 233.312 367.89 233.472C367.739 233.631 367.647 233.848 367.632 234.08L367.428 237.265C367.421 237.375 367.435 237.484 367.467 237.587C367.5 237.691 367.551 237.785 367.617 237.866C367.683 237.946 367.763 238.011 367.852 238.055C367.941 238.1 368.038 238.124 368.135 238.126Z" fill="black"/>
<path opacity="0.1" d="M364.623 238.126C364.83 238.123 365.029 238.033 365.18 237.874C365.331 237.714 365.423 237.497 365.438 237.265L365.642 234.08C365.65 233.97 365.638 233.86 365.606 233.756C365.575 233.652 365.524 233.556 365.457 233.475C365.391 233.394 365.31 233.33 365.22 233.286C365.13 233.242 365.033 233.219 364.935 233.22C364.728 233.226 364.531 233.316 364.381 233.475C364.23 233.634 364.137 233.849 364.12 234.08L363.928 237.265C363.918 237.374 363.928 237.484 363.959 237.588C363.989 237.693 364.039 237.788 364.104 237.87C364.17 237.951 364.25 238.015 364.339 238.06C364.429 238.104 364.525 238.126 364.623 238.126Z" fill="black"/>
<path opacity="0.1" d="M361.123 238.126C361.328 238.119 361.524 238.028 361.672 237.869C361.821 237.71 361.911 237.495 361.926 237.265L362.13 234.08C362.138 233.97 362.126 233.86 362.094 233.756C362.062 233.652 362.012 233.556 361.945 233.475C361.878 233.394 361.798 233.33 361.708 233.286C361.618 233.242 361.521 233.219 361.422 233.22C361.216 233.226 361.019 233.316 360.868 233.475C360.718 233.634 360.625 233.849 360.607 234.08L360.416 237.265C360.407 237.375 360.419 237.485 360.451 237.59C360.483 237.694 360.534 237.789 360.6 237.87C360.667 237.951 360.748 238.015 360.838 238.059C360.927 238.103 361.025 238.126 361.123 238.126Z" fill="black"/>
<path opacity="0.1" d="M374.944 233.22C374.354 233.234 373.79 233.491 373.359 233.942C372.927 234.394 372.66 235.007 372.607 235.666C372.581 235.981 372.616 236.299 372.707 236.599C372.798 236.898 372.945 237.173 373.137 237.405C373.329 237.637 373.563 237.821 373.822 237.945C374.082 238.069 374.362 238.131 374.644 238.126C375.234 238.108 375.797 237.848 376.226 237.394C376.655 236.94 376.92 236.325 376.97 235.666C376.995 235.353 376.961 235.037 376.871 234.739C376.78 234.441 376.634 234.168 376.443 233.937C376.252 233.706 376.02 233.523 375.762 233.4C375.503 233.276 375.225 233.215 374.944 233.22ZM374.68 237.4C374.482 237.403 374.285 237.359 374.103 237.271C373.921 237.183 373.757 237.053 373.623 236.89C373.488 236.726 373.386 236.533 373.322 236.322C373.259 236.111 373.235 235.888 373.254 235.666C373.287 235.201 373.474 234.767 373.777 234.449C374.081 234.13 374.48 233.951 374.896 233.946C375.094 233.941 375.291 233.983 375.474 234.07C375.657 234.156 375.822 234.284 375.957 234.447C376.093 234.609 376.197 234.801 376.262 235.011C376.327 235.222 376.352 235.445 376.335 235.666C376.302 236.135 376.114 236.572 375.808 236.893C375.502 237.214 375.099 237.395 374.68 237.4Z" fill="black"/>
<path opacity="0.1" d="M313.317 221.312C312.501 221.329 311.718 221.673 311.108 222.282C310.499 222.891 310.105 223.725 309.996 224.631L308.162 242.104H337.184L337.531 224.631C337.544 224.196 337.478 223.762 337.337 223.356C337.196 222.95 336.983 222.581 336.71 222.271C336.438 221.96 336.112 221.715 335.752 221.55C335.393 221.385 335.007 221.304 334.618 221.312H313.317ZM317.201 233.946C317.332 232.134 318.06 230.442 319.243 229.199C320.427 227.957 321.981 227.253 323.602 227.225C324.373 227.213 325.138 227.381 325.846 227.721C326.555 228.061 327.193 228.564 327.717 229.197C328.242 229.831 328.641 230.581 328.891 231.399C329.14 232.217 329.233 233.085 329.164 233.946C329.036 235.759 328.308 237.453 327.124 238.696C325.94 239.939 324.385 240.642 322.763 240.666C321.992 240.679 321.227 240.51 320.518 240.17C319.809 239.831 319.172 239.328 318.648 238.694C318.123 238.06 317.723 237.31 317.474 236.492C317.225 235.674 317.132 234.807 317.201 233.946Z" fill="black"/>
<path d="M311.986 274.415H343.777L341.643 224.685C341.606 223.79 341.263 222.945 340.684 222.327C340.106 221.709 339.337 221.364 338.538 221.365H317.225C316.426 221.368 315.659 221.713 315.082 222.331C314.504 222.949 314.16 223.791 314.12 224.685L311.986 274.415ZM321.9 233.945C321.9 232.616 322.251 231.317 322.91 230.212C323.568 229.107 324.505 228.245 325.6 227.737C326.695 227.228 327.9 227.095 329.063 227.354C330.225 227.614 331.293 228.254 332.132 229.194C332.97 230.133 333.541 231.331 333.772 232.634C334.003 233.938 333.885 235.289 333.431 236.517C332.977 237.745 332.209 238.795 331.223 239.533C330.238 240.272 329.079 240.666 327.893 240.666C326.304 240.666 324.779 239.958 323.655 238.697C322.531 237.437 321.9 235.728 321.9 233.945Z" fill="#219EBC"/>
<path opacity="0.7" d="M311.986 274.415H343.777L341.643 224.685C341.606 223.79 341.263 222.945 340.684 222.327C340.106 221.709 339.337 221.364 338.538 221.365H317.225C316.426 221.368 315.659 221.713 315.082 222.331C314.504 222.949 314.16 223.791 314.12 224.685L311.986 274.415ZM321.9 233.945C321.9 232.616 322.251 231.317 322.91 230.212C323.568 229.107 324.505 228.245 325.6 227.737C326.695 227.228 327.9 227.095 329.063 227.354C330.225 227.614 331.293 228.254 332.132 229.194C332.97 230.133 333.541 231.331 333.772 232.634C334.003 233.938 333.885 235.289 333.431 236.517C332.977 237.745 332.209 238.795 331.223 239.533C330.238 240.272 329.079 240.666 327.893 240.666C326.304 240.666 324.779 239.958 323.655 238.697C322.531 237.437 321.9 235.728 321.9 233.945Z" fill="white"/>
<path d="M379.571 265.074L370.461 249.765L371.348 249.537L380.854 264.751L379.571 265.074Z" fill="#219EBC"/>
<path d="M416.924 265.02L426.047 249.71L425.16 249.482L415.641 264.697L416.924 265.02Z" fill="#219EBC"/>
<path d="M396.845 262.573H398.44L398.008 238.408H397.265L396.845 262.573Z" fill="#219EBC"/>
<path d="M416.637 264.966L416.121 266.041H415.054L415.965 264.778L416.637 264.966Z" fill="#263238"/>
<path d="M379.835 264.966L380.35 266.041H381.417L380.494 264.778L379.835 264.966Z" fill="#263238"/>
<path d="M397.061 262.565L397.054 264.5L398.193 264.505L398.2 262.571L397.061 262.565Z" fill="#263238"/>
<path d="M411.23 274.576H415.738V271.431H411.23V274.576Z" fill="#219EBC"/>
<path d="M380.638 274.576H385.146V271.431H380.638V274.576Z" fill="#219EBC"/>
<path d="M379.056 272.843L388.85 274.039C395.069 274.792 401.343 274.792 407.562 274.039L417.356 272.843V266.028L409.396 264.859C401.967 263.784 394.445 263.784 387.015 264.859L379.056 266.028V272.843Z" fill="#219EBC"/>
<path d="M379.056 272.843L388.85 274.039C395.069 274.792 401.343 274.792 407.562 274.039L417.356 272.843V266.028L409.396 264.859C401.967 263.784 394.445 263.784 387.015 264.859L379.056 266.028V272.843Z" fill="#263238"/>
<path d="M411.662 269.603C411.662 270.007 411.768 270.402 411.969 270.738C412.169 271.074 412.453 271.336 412.786 271.491C413.119 271.645 413.486 271.686 413.839 271.607C414.193 271.528 414.517 271.333 414.772 271.048C415.027 270.762 415.201 270.398 415.271 270.002C415.341 269.606 415.305 269.195 415.167 268.822C415.029 268.448 414.796 268.129 414.496 267.905C414.196 267.68 413.844 267.561 413.484 267.561C413 267.561 412.537 267.776 412.195 268.159C411.854 268.542 411.662 269.062 411.662 269.603Z" fill="white"/>
<path d="M413.484 270.84C414.086 270.84 414.575 270.293 414.575 269.617C414.575 268.942 414.086 268.394 413.484 268.394C412.881 268.394 412.393 268.942 412.393 269.617C412.393 270.293 412.881 270.84 413.484 270.84Z" fill="#219EBC"/>
<path d="M403.199 269.616C403.202 269.786 403.263 269.948 403.371 270.069C403.478 270.189 403.622 270.258 403.774 270.261C403.933 270.261 404.085 270.19 404.198 270.064C404.31 269.939 404.373 269.768 404.373 269.59C404.373 269.411 404.31 269.241 404.198 269.115C404.085 268.989 403.933 268.918 403.774 268.918C403.695 268.92 403.617 268.939 403.544 268.976C403.472 269.012 403.407 269.064 403.353 269.13C403.3 269.195 403.258 269.272 403.232 269.355C403.205 269.439 403.194 269.528 403.199 269.616Z" fill="white"/>
<path d="M401.161 269.617C401.161 269.788 401.221 269.952 401.329 270.073C401.437 270.194 401.584 270.261 401.736 270.261C401.895 270.261 402.048 270.191 402.16 270.065C402.272 269.939 402.336 269.768 402.336 269.59C402.336 269.412 402.272 269.241 402.16 269.115C402.048 268.989 401.895 268.918 401.736 268.918C401.656 268.918 401.577 268.936 401.504 268.972C401.431 269.007 401.365 269.06 401.311 269.125C401.257 269.191 401.216 269.269 401.19 269.353C401.164 269.438 401.154 269.528 401.161 269.617Z" fill="white"/>
<path d="M399.111 269.617C399.111 269.701 399.126 269.785 399.155 269.863C399.183 269.942 399.226 270.013 399.279 270.073C399.333 270.132 399.396 270.18 399.466 270.212C399.536 270.245 399.611 270.261 399.686 270.261C399.845 270.261 399.998 270.191 400.11 270.065C400.222 269.939 400.286 269.768 400.286 269.59C400.286 269.412 400.222 269.241 400.11 269.115C399.998 268.989 399.845 268.918 399.686 268.918C399.606 268.918 399.527 268.936 399.454 268.972C399.381 269.007 399.315 269.06 399.261 269.125C399.207 269.191 399.166 269.269 399.14 269.353C399.114 269.438 399.104 269.528 399.111 269.617Z" fill="white"/>
<path d="M397.061 269.616C397.064 269.786 397.126 269.948 397.233 270.069C397.34 270.189 397.485 270.258 397.636 270.261C397.795 270.261 397.948 270.19 398.06 270.064C398.173 269.939 398.236 269.768 398.236 269.59C398.236 269.411 398.173 269.241 398.06 269.115C397.948 268.989 397.795 268.918 397.636 268.918C397.557 268.92 397.479 268.939 397.407 268.976C397.334 269.012 397.269 269.064 397.216 269.13C397.162 269.195 397.12 269.272 397.094 269.355C397.067 269.439 397.056 269.528 397.061 269.616Z" fill="white"/>
<path d="M395.023 269.616C395.023 269.744 395.057 269.868 395.12 269.974C395.183 270.08 395.273 270.163 395.378 270.212C395.484 270.261 395.599 270.273 395.711 270.248C395.822 270.224 395.925 270.162 396.005 270.072C396.086 269.982 396.141 269.867 396.163 269.742C396.185 269.617 396.174 269.487 396.13 269.369C396.087 269.251 396.013 269.151 395.918 269.08C395.824 269.009 395.712 268.971 395.599 268.971C395.446 268.971 395.3 269.039 395.192 269.16C395.084 269.281 395.023 269.445 395.023 269.616Z" fill="white"/>
<path d="M392.973 269.617C392.973 269.788 393.034 269.952 393.142 270.073C393.25 270.194 393.396 270.261 393.549 270.261C393.708 270.261 393.86 270.191 393.973 270.065C394.085 269.939 394.148 269.768 394.148 269.59C394.148 269.412 394.085 269.241 393.973 269.115C393.86 268.989 393.708 268.918 393.549 268.918C393.469 268.918 393.39 268.936 393.317 268.972C393.244 269.007 393.178 269.06 393.124 269.125C393.07 269.191 393.028 269.269 393.003 269.353C392.977 269.438 392.967 269.528 392.973 269.617Z" fill="white"/>
<path d="M390.923 269.616C390.927 269.786 390.988 269.948 391.095 270.069C391.203 270.189 391.347 270.258 391.499 270.261C391.658 270.261 391.81 270.19 391.923 270.064C392.035 269.939 392.098 269.768 392.098 269.59C392.098 269.411 392.035 269.241 391.923 269.115C391.81 268.989 391.658 268.918 391.499 268.918C391.42 268.92 391.342 268.939 391.269 268.976C391.197 269.012 391.132 269.064 391.078 269.13C391.024 269.195 390.983 269.272 390.956 269.355C390.93 269.439 390.919 269.528 390.923 269.616Z" fill="white"/>
</svg>
