<svg width="550" height="550" viewBox="0 0 550 550" fill="none" xmlns="http://www.w3.org/2000/svg">
<path d="M494.89 437.096H458.458V437.371H494.89V437.096Z" fill="#EBEBEB"/>
<path d="M364.342 440.077H354.783V440.352H364.342V440.077Z" fill="#EBEBEB"/>
<path d="M457.358 426.877H436.249V427.152H457.358V426.877Z" fill="#EBEBEB"/>
<path d="M105.215 428.725H57.7061V429H105.215V428.725Z" fill="#EBEBEB"/>
<path d="M121.979 428.725H115.016V429H121.979V428.725Z" fill="#EBEBEB"/>
<path d="M247.665 433.367H144.617V433.642H247.665V433.367Z" fill="#EBEBEB"/>
<path d="M260.7 370.326H48.312C46.6481 370.326 45.0522 369.666 43.8746 368.49C42.697 367.315 42.0339 365.72 42.031 364.056V65.4721C42.0339 63.8082 42.697 62.2135 43.8746 61.0379C45.0522 59.8624 46.6481 59.2021 48.312 59.2021H260.7C262.364 59.2021 263.96 59.8624 265.137 61.0379C266.315 62.2135 266.978 63.8082 266.981 65.4721V364.1C266.967 365.756 266.298 367.34 265.122 368.506C263.946 369.672 262.356 370.326 260.7 370.326ZM48.312 59.4771C46.721 59.4771 45.195 60.1084 44.069 61.2324C42.943 62.3563 42.3089 63.8812 42.306 65.4721V364.1C42.3089 365.691 42.943 367.216 44.069 368.34C45.195 369.464 46.721 370.095 48.312 370.095H260.7C262.291 370.095 263.817 369.464 264.943 368.34C266.069 367.216 266.703 365.691 266.706 364.1V65.4721C266.703 63.8812 266.069 62.3563 264.943 61.2324C263.817 60.1084 262.291 59.4771 260.7 59.4771H48.312Z" fill="#EBEBEB"/>
<path d="M498.641 370.326H286.231C284.568 370.323 282.974 369.662 281.797 368.487C280.62 367.312 279.956 365.719 279.95 364.056V65.4721C279.956 63.8091 280.62 62.216 281.797 61.0411C282.974 59.8662 284.568 59.205 286.231 59.2021H498.641C500.305 59.2021 501.901 59.8624 503.078 61.0379C504.256 62.2135 504.919 63.8082 504.922 65.4721V364.1C504.907 365.756 504.239 367.34 503.063 368.506C501.887 369.672 500.297 370.326 498.641 370.326ZM286.231 59.4771C284.64 59.4771 283.114 60.1084 281.988 61.2324C280.862 62.3563 280.228 63.8812 280.225 65.4721V364.1C280.228 365.691 280.862 367.216 281.988 368.34C283.114 369.464 284.64 370.095 286.231 370.095H498.641C500.232 370.095 501.758 369.464 502.884 368.34C504.01 367.216 504.644 365.691 504.647 364.1V65.4721C504.644 63.8812 504.01 62.3563 502.884 61.2324C501.758 60.1084 500.232 59.4771 498.641 59.4771H286.231Z" fill="#EBEBEB"/>
<path d="M550 419.386H0V419.661H550V419.386Z" fill="#EBEBEB"/>
<path d="M494.89 437.096H458.458V437.371H494.89V437.096Z" fill="#EBEBEB"/>
<path d="M364.342 440.077H354.783V440.352H364.342V440.077Z" fill="#EBEBEB"/>
<path d="M457.358 426.877H436.249V427.152H457.358V426.877Z" fill="#EBEBEB"/>
<path d="M105.215 428.725H57.7061V429H105.215V428.725Z" fill="#EBEBEB"/>
<path d="M121.979 428.725H115.016V429H121.979V428.725Z" fill="#EBEBEB"/>
<path d="M247.665 433.367H144.617V433.642H247.665V433.367Z" fill="#EBEBEB"/>
<path d="M260.7 370.326H48.312C46.6481 370.326 45.0522 369.666 43.8746 368.49C42.697 367.315 42.0339 365.72 42.031 364.056V65.4721C42.0339 63.8082 42.697 62.2135 43.8746 61.0379C45.0522 59.8624 46.6481 59.2021 48.312 59.2021H260.7C262.364 59.2021 263.96 59.8624 265.137 61.0379C266.315 62.2135 266.978 63.8082 266.981 65.4721V364.1C266.967 365.756 266.298 367.34 265.122 368.506C263.946 369.672 262.356 370.326 260.7 370.326ZM48.312 59.4771C46.721 59.4771 45.195 60.1084 44.069 61.2324C42.943 62.3563 42.3089 63.8812 42.306 65.4721V364.1C42.3089 365.691 42.943 367.216 44.069 368.34C45.195 369.464 46.721 370.095 48.312 370.095H260.7C262.291 370.095 263.817 369.464 264.943 368.34C266.069 367.216 266.703 365.691 266.706 364.1V65.4721C266.703 63.8812 266.069 62.3563 264.943 61.2324C263.817 60.1084 262.291 59.4771 260.7 59.4771H48.312Z" fill="#EBEBEB"/>
<path d="M498.641 370.326H286.231C284.568 370.323 282.974 369.662 281.797 368.487C280.62 367.312 279.956 365.719 279.95 364.056V65.4721C279.956 63.8091 280.62 62.216 281.797 61.0411C282.974 59.8662 284.568 59.205 286.231 59.2021H498.641C500.305 59.2021 501.901 59.8624 503.078 61.0379C504.256 62.2135 504.919 63.8082 504.922 65.4721V364.1C504.907 365.756 504.239 367.34 503.063 368.506C501.887 369.672 500.297 370.326 498.641 370.326ZM286.231 59.4771C284.64 59.4771 283.114 60.1084 281.988 61.2324C280.862 62.3563 280.228 63.8812 280.225 65.4721V364.1C280.228 365.691 280.862 367.216 281.988 368.34C283.114 369.464 284.64 370.095 286.231 370.095H498.641C500.232 370.095 501.758 369.464 502.884 368.34C504.01 367.216 504.644 365.691 504.647 364.1V65.4721C504.644 63.8812 504.01 62.3563 502.884 61.2324C501.758 60.1084 500.232 59.4771 498.641 59.4771H286.231Z" fill="#EBEBEB"/>
<path d="M550 419.386H0V419.661H550V419.386Z" fill="#EBEBEB"/>
<path d="M483.706 128.305C493.547 118.464 493.547 102.507 483.706 92.6656C473.864 82.824 457.908 82.824 448.066 92.6656C438.225 102.507 438.225 118.464 448.066 128.305C457.908 138.147 473.864 138.147 483.706 128.305Z" fill="#F0F0F0"/>
<path d="M465.96 136.246C459.218 136.107 452.8 133.331 448.081 128.513C443.362 123.696 440.719 117.222 440.719 110.478C440.719 103.735 443.362 97.2606 448.081 92.4434C452.8 87.6262 459.218 84.8502 465.96 84.7109V85.8109C459.517 85.9471 453.383 88.6023 448.874 93.2074C444.366 97.8124 441.841 104.001 441.841 110.445C441.841 116.89 444.366 123.078 448.874 127.683C453.383 132.289 459.517 134.944 465.96 135.08V136.246Z" fill="white"/>
<path d="M465.96 136.246V135.146C472.403 135.01 478.537 132.355 483.046 127.75C487.554 123.145 490.079 116.957 490.079 110.512C490.079 104.067 487.554 97.8788 483.046 93.2738C478.537 88.6687 472.403 86.0135 465.96 85.8773V84.7003C469.389 84.6295 472.797 85.2436 475.985 86.5067C479.173 87.7698 482.078 89.6565 484.527 92.0563C486.977 94.456 488.924 97.3206 490.252 100.482C491.581 103.644 492.265 107.038 492.265 110.468C492.265 113.897 491.581 117.292 490.252 120.454C488.924 123.615 486.977 126.48 484.527 128.879C482.078 131.279 479.173 133.166 475.985 134.429C472.797 135.692 469.389 136.306 465.96 136.235V136.246Z" fill="white"/>
<path d="M479.127 110.484H478.027C478.027 102.135 473.792 90.9591 465.685 85.7671L466.301 84.8101C474.705 90.2001 479.127 101.827 479.127 110.484Z" fill="white"/>
<path d="M466.268 135.399L465.652 134.442C473.759 129.25 477.994 118.074 477.994 109.714H479.094C479.127 118.382 474.705 129.976 466.268 135.399Z" fill="white"/>
<path d="M453.926 110.484H452.826C452.826 101.827 457.226 90.2223 465.685 84.7993L466.301 85.7563C458.161 90.9593 453.926 102.135 453.926 110.484Z" fill="white"/>
<path d="M465.652 135.388C457.215 129.976 452.793 118.371 452.793 109.714H453.893C453.893 118.063 458.128 129.239 466.235 134.442L465.652 135.388Z" fill="white"/>
<path d="M466.521 85.2832H465.388V135.685H466.521V85.2832Z" fill="white"/>
<path d="M487.289 96.4922H444.631V97.6252H487.289V96.4922Z" fill="white"/>
<path d="M491.15 110.341H440.77V111.474H491.15V110.341Z" fill="white"/>
<path d="M486.728 124.19H445.192V125.323H486.728V124.19Z" fill="white"/>
<path d="M260.458 337.513H268.158V415.085C268.158 416.109 267.751 417.091 267.027 417.815C266.303 418.539 265.321 418.946 264.297 418.946C263.273 418.946 262.291 418.539 261.567 417.815C260.843 417.091 260.436 416.109 260.436 415.085V337.513H260.458Z" fill="#F0F0F0"/>
<path d="M472.582 327.415H454.806V325.831C454.808 325.098 454.959 324.372 455.25 323.699C455.541 323.025 455.966 322.418 456.499 321.914C457.032 321.41 457.662 321.019 458.35 320.766C459.039 320.513 459.771 320.402 460.504 320.441L467.467 320.815C468.847 320.888 470.147 321.488 471.099 322.491C472.05 323.493 472.581 324.823 472.582 326.205V327.415Z" fill="#F0F0F0"/>
<path d="M442.2 290.686C442.169 290.013 441.879 289.378 441.392 288.913C440.904 288.447 440.256 288.188 439.582 288.189H421.652C420.977 288.188 420.328 288.447 419.838 288.912C419.349 289.377 419.057 290.012 419.023 290.686L423.291 328.086H450.087L442.2 290.686Z" fill="#E0E0E0"/>
<path d="M490.985 233.2H484.297L476.773 303.864H483.472C484.019 303.849 484.543 303.638 484.947 303.268C485.351 302.898 485.609 302.395 485.672 301.851L492.8 235.169C492.83 234.916 492.806 234.66 492.727 234.418C492.649 234.175 492.519 233.953 492.347 233.766C492.174 233.579 491.963 233.431 491.728 233.333C491.493 233.236 491.239 233.19 490.985 233.2Z" fill="#E0E0E0"/>
<path d="M480.634 303.831H380.38C380.124 303.837 379.869 303.787 379.634 303.684C379.399 303.582 379.189 303.43 379.019 303.239C378.848 303.047 378.721 302.821 378.647 302.576C378.572 302.331 378.552 302.072 378.587 301.818L385.671 235.169C385.739 234.628 385.998 234.129 386.401 233.762C386.805 233.395 387.326 233.184 387.871 233.167H488.136C488.392 233.16 488.646 233.209 488.881 233.31C489.116 233.411 489.326 233.562 489.497 233.752C489.668 233.943 489.795 234.168 489.869 234.413C489.944 234.658 489.964 234.916 489.929 235.169L482.9 301.818C482.833 302.372 482.565 302.883 482.148 303.254C481.731 303.625 481.192 303.83 480.634 303.831Z" fill="#F5F5F5"/>
<path d="M478.764 297.297H384.219C383.996 297.303 383.775 297.259 383.57 297.171C383.365 297.082 383.183 296.95 383.034 296.783C382.885 296.617 382.775 296.421 382.71 296.207C382.645 295.994 382.627 295.769 382.657 295.548L388.839 237.402C388.899 236.927 389.128 236.49 389.483 236.169C389.838 235.848 390.296 235.665 390.775 235.653H485.32C485.543 235.648 485.765 235.692 485.97 235.78C486.175 235.869 486.359 236.001 486.508 236.167C486.657 236.333 486.769 236.529 486.835 236.742C486.902 236.956 486.921 237.181 486.893 237.402L480.7 295.548C480.642 296.024 480.414 296.463 480.058 296.784C479.703 297.105 479.243 297.288 478.764 297.297Z" fill="#EBEBEB"/>
<path d="M451.484 325.193H417.736C417.153 325.193 416.68 325.666 416.68 326.249V327.041C416.68 327.625 417.153 328.097 417.736 328.097H451.484C452.067 328.097 452.54 327.625 452.54 327.041V326.249C452.54 325.666 452.067 325.193 451.484 325.193Z" fill="#E0E0E0"/>
<path d="M383.9 297.297L412.005 272.877C414.667 270.567 418.088 270.567 419.628 272.877L435.908 297.297H383.9Z" fill="#E6E6E6"/>
<path d="M411.972 272.877L383.9 297.297H410.839C408.155 295.944 401.83 295.218 402.589 292.105C403.568 288.057 416.086 289.476 417.021 285.637C417.956 281.798 409.013 282.997 410.146 278.344C410.729 275.902 413.039 273.251 415.118 271.271C413.949 271.528 412.866 272.081 411.972 272.877Z" fill="#F5F5F5"/>
<path d="M425.216 297.297L437.668 284.977C438.845 283.811 440.363 283.811 441.045 284.977L448.261 297.297H425.216Z" fill="#E6E6E6"/>
<path d="M437.668 284.977L425.216 297.297H437.151C435.963 296.615 433.158 296.252 433.488 294.679C433.928 292.644 439.483 293.359 439.89 291.379C440.297 289.399 436.348 290.059 436.843 287.705C437.276 286.356 438.032 285.133 439.043 284.141C438.516 284.286 438.04 284.576 437.668 284.977Z" fill="#F5F5F5"/>
<path d="M446.523 297.297L463.969 284.977C465.63 283.811 467.753 283.811 468.71 284.977L478.819 297.297H446.523Z" fill="#F0F0F0"/>
<path d="M463.969 284.977L446.523 297.297H463.254C461.582 296.615 457.655 296.252 458.128 294.679C458.733 292.644 466.51 293.359 467.093 291.379C467.676 289.399 462.121 290.059 462.814 287.705C463.503 286.26 464.572 285.028 465.905 284.141C465.206 284.273 464.545 284.559 463.969 284.977Z" fill="#FAFAFA"/>
<path d="M468.391 260.403C467.071 266.607 460.977 271.634 454.784 271.634C448.591 271.634 444.62 266.607 445.984 260.403C447.348 254.199 453.398 249.172 459.602 249.172C465.806 249.172 469.7 254.199 468.391 260.403Z" fill="#F0F0F0"/>
<path opacity="0.8" d="M468.391 260.403C467.071 266.607 460.977 271.634 454.784 271.634C448.591 271.634 444.62 266.607 445.984 260.403C447.348 254.199 453.398 249.172 459.602 249.172C465.806 249.172 469.7 254.199 468.391 260.403Z" fill="#FAFAFA"/>
<path d="M372.647 325.05H370.139C370.013 325.047 369.892 324.995 369.804 324.905C369.715 324.814 369.666 324.693 369.666 324.566V321.926C369.666 321.801 369.716 321.68 369.805 321.592C369.893 321.503 370.014 321.453 370.139 321.453H371.932C372.037 321.452 372.14 321.486 372.223 321.55C372.307 321.614 372.367 321.703 372.394 321.805L373.109 324.445C373.127 324.516 373.129 324.59 373.115 324.662C373.1 324.734 373.07 324.802 373.025 324.86C372.981 324.918 372.923 324.966 372.858 324.999C372.792 325.031 372.72 325.049 372.647 325.05Z" fill="#F5F5F5"/>
<path d="M376.101 325.05H373.593C373.467 325.047 373.346 324.995 373.258 324.905C373.17 324.814 373.12 324.693 373.12 324.566V321.926C373.12 321.801 373.17 321.68 373.259 321.592C373.347 321.503 373.468 321.453 373.593 321.453H375.397C375.501 321.456 375.602 321.491 375.685 321.554C375.768 321.617 375.829 321.705 375.859 321.805L376.563 324.445C376.581 324.516 376.583 324.59 376.569 324.662C376.554 324.734 376.524 324.802 376.479 324.86C376.435 324.918 376.377 324.966 376.312 324.999C376.246 325.031 376.174 325.049 376.101 325.05Z" fill="#F5F5F5"/>
<path d="M379.555 325.05H377.058C376.93 325.05 376.807 324.999 376.716 324.908C376.625 324.818 376.574 324.694 376.574 324.566V321.926C376.577 321.8 376.629 321.679 376.72 321.591C376.81 321.503 376.931 321.453 377.058 321.453H378.851C378.956 321.454 379.057 321.489 379.141 321.552C379.224 321.616 379.284 321.704 379.313 321.805L380.017 324.445C380.035 324.516 380.037 324.59 380.023 324.662C380.008 324.734 379.977 324.802 379.933 324.86C379.889 324.918 379.831 324.966 379.766 324.999C379.7 325.031 379.628 325.049 379.555 325.05Z" fill="#F5F5F5"/>
<path d="M383.009 325.05H380.512C380.384 325.05 380.261 324.999 380.17 324.908C380.079 324.818 380.028 324.695 380.028 324.566V321.926C380.031 321.8 380.083 321.679 380.174 321.591C380.264 321.503 380.386 321.453 380.512 321.453H382.305C382.41 321.452 382.513 321.486 382.596 321.55C382.68 321.614 382.74 321.703 382.767 321.805L383.471 324.445C383.489 324.516 383.491 324.59 383.477 324.662C383.462 324.734 383.432 324.802 383.387 324.86C383.343 324.918 383.285 324.966 383.22 324.999C383.154 325.031 383.082 325.049 383.009 325.05Z" fill="#F5F5F5"/>
<path d="M386.463 325.05H383.966C383.838 325.05 383.714 324.999 383.624 324.908C383.533 324.818 383.482 324.695 383.482 324.566V321.926C383.485 321.8 383.537 321.679 383.628 321.591C383.718 321.503 383.839 321.453 383.966 321.453H385.759C385.864 321.452 385.967 321.486 386.05 321.55C386.134 321.614 386.194 321.703 386.221 321.805L386.925 324.445C386.943 324.516 386.945 324.59 386.931 324.662C386.916 324.734 386.885 324.802 386.841 324.86C386.796 324.918 386.739 324.966 386.674 324.999C386.608 325.031 386.536 325.049 386.463 325.05Z" fill="#F5F5F5"/>
<path d="M389.917 325.05H387.42C387.292 325.05 387.169 324.999 387.078 324.908C386.987 324.818 386.936 324.695 386.936 324.566V321.926C386.939 321.8 386.991 321.679 387.082 321.591C387.172 321.503 387.294 321.453 387.42 321.453H389.213C389.318 321.452 389.421 321.486 389.504 321.55C389.588 321.614 389.648 321.703 389.675 321.805L390.379 324.445C390.397 324.516 390.399 324.59 390.385 324.662C390.37 324.734 390.34 324.802 390.295 324.86C390.251 324.918 390.193 324.966 390.128 324.999C390.062 325.031 389.99 325.049 389.917 325.05Z" fill="#F5F5F5"/>
<path d="M393.371 325.05H390.874C390.748 325.047 390.627 324.995 390.539 324.905C390.451 324.814 390.401 324.693 390.401 324.566V321.926C390.401 321.801 390.451 321.68 390.54 321.592C390.628 321.503 390.749 321.453 390.874 321.453H392.7C392.805 321.452 392.908 321.486 392.991 321.55C393.075 321.614 393.135 321.703 393.162 321.805L393.8 324.5C393.811 324.565 393.808 324.631 393.792 324.695C393.776 324.758 393.747 324.818 393.707 324.87C393.666 324.921 393.616 324.964 393.558 324.995C393.5 325.026 393.436 325.045 393.371 325.05Z" fill="#F5F5F5"/>
<path d="M396.825 325.05H394.328C394.202 325.047 394.081 324.995 393.993 324.905C393.904 324.814 393.855 324.693 393.855 324.566V321.926C393.855 321.801 393.905 321.68 393.994 321.592C394.082 321.503 394.203 321.453 394.328 321.453H396.121C396.226 321.452 396.329 321.486 396.412 321.55C396.496 321.614 396.556 321.703 396.583 321.805L397.287 324.445C397.308 324.516 397.311 324.591 397.298 324.664C397.284 324.737 397.254 324.805 397.209 324.864C397.164 324.923 397.106 324.971 397.039 325.003C396.972 325.035 396.899 325.051 396.825 325.05Z" fill="#F5F5F5"/>
<path d="M400.29 325.05H397.782C397.656 325.047 397.535 324.995 397.447 324.905C397.359 324.814 397.309 324.693 397.309 324.566V321.926C397.309 321.801 397.359 321.68 397.448 321.592C397.536 321.503 397.657 321.453 397.782 321.453H399.575C399.68 321.452 399.783 321.486 399.866 321.55C399.95 321.614 400.01 321.703 400.037 321.805L400.741 324.445C400.761 324.515 400.765 324.589 400.752 324.661C400.739 324.733 400.71 324.801 400.666 324.86C400.622 324.918 400.566 324.966 400.5 324.999C400.435 325.032 400.363 325.05 400.29 325.05Z" fill="#F5F5F5"/>
<path d="M403.7 325.05H401.192C401.066 325.047 400.945 324.995 400.857 324.905C400.768 324.814 400.719 324.693 400.719 324.566V321.926C400.719 321.801 400.769 321.68 400.858 321.592C400.946 321.503 401.067 321.453 401.192 321.453H402.996C403.099 321.454 403.199 321.49 403.281 321.553C403.362 321.617 403.421 321.705 403.447 321.805L404.162 324.445C404.18 324.516 404.182 324.59 404.168 324.662C404.153 324.734 404.123 324.802 404.078 324.86C404.034 324.918 403.976 324.966 403.911 324.999C403.845 325.031 403.773 325.049 403.7 325.05Z" fill="#F5F5F5"/>
<path d="M407.198 325.05H404.69C404.564 325.047 404.443 324.995 404.355 324.905C404.266 324.814 404.217 324.693 404.217 324.566V321.926C404.217 321.801 404.267 321.68 404.356 321.592C404.444 321.503 404.565 321.453 404.69 321.453H406.494C406.599 321.454 406.7 321.489 406.784 321.552C406.867 321.616 406.927 321.704 406.956 321.805L407.66 324.445C407.678 324.516 407.68 324.59 407.666 324.662C407.651 324.734 407.621 324.802 407.576 324.86C407.532 324.918 407.474 324.966 407.409 324.999C407.343 325.031 407.271 325.049 407.198 325.05Z" fill="#F5F5F5"/>
<path d="M410.652 325.05H408.155C408.027 325.05 407.903 324.999 407.813 324.908C407.722 324.818 407.671 324.694 407.671 324.566V321.926C407.674 321.8 407.726 321.679 407.817 321.591C407.907 321.503 408.028 321.453 408.155 321.453H409.948C410.053 321.454 410.154 321.489 410.238 321.552C410.321 321.616 410.381 321.704 410.41 321.805L411.114 324.445C411.132 324.516 411.134 324.59 411.12 324.662C411.105 324.734 411.074 324.802 411.03 324.86C410.985 324.918 410.928 324.966 410.863 324.999C410.797 325.031 410.725 325.049 410.652 325.05Z" fill="#F5F5F5"/>
<path d="M414.106 325.05H411.609C411.481 325.05 411.358 324.999 411.267 324.908C411.176 324.818 411.125 324.695 411.125 324.566V321.926C411.128 321.8 411.18 321.679 411.271 321.591C411.361 321.503 411.483 321.453 411.609 321.453H413.402C413.507 321.452 413.61 321.486 413.693 321.55C413.777 321.614 413.837 321.703 413.864 321.805L414.568 324.445C414.586 324.516 414.588 324.59 414.574 324.662C414.559 324.734 414.529 324.802 414.484 324.86C414.44 324.918 414.382 324.966 414.317 324.999C414.251 325.031 414.179 325.049 414.106 325.05Z" fill="#F5F5F5"/>
<path d="M417.56 325.05H415.063C414.935 325.05 414.812 324.999 414.721 324.908C414.63 324.818 414.579 324.695 414.579 324.566V321.926C414.582 321.8 414.634 321.679 414.725 321.591C414.815 321.503 414.937 321.453 415.063 321.453H416.9C417.005 321.452 417.108 321.486 417.191 321.55C417.275 321.614 417.335 321.703 417.362 321.805L418 324.5C418.009 324.565 418.005 324.632 417.988 324.696C417.97 324.759 417.94 324.819 417.899 324.87C417.858 324.922 417.806 324.964 417.748 324.995C417.69 325.026 417.626 325.045 417.56 325.05Z" fill="#F5F5F5"/>
<path d="M421.014 325.05H418.517C418.39 325.047 418.27 324.995 418.182 324.905C418.093 324.814 418.044 324.693 418.044 324.566V321.926C418.044 321.864 418.056 321.803 418.08 321.745C418.104 321.688 418.139 321.636 418.182 321.592C418.226 321.548 418.279 321.513 418.336 321.489C418.393 321.465 418.455 321.453 418.517 321.453H420.31C420.415 321.452 420.518 321.486 420.601 321.55C420.685 321.614 420.745 321.703 420.772 321.805L421.476 324.445C421.497 324.516 421.5 324.591 421.487 324.664C421.473 324.737 421.443 324.805 421.398 324.864C421.353 324.923 421.295 324.971 421.228 325.003C421.161 325.035 421.088 325.051 421.014 325.05Z" fill="#F5F5F5"/>
<path d="M423.533 323.246H367.631V327.404H423.533V323.246Z" fill="#EBEBEB"/>
<path d="M493.581 327.415H426.602V337.524H493.581V327.415Z" fill="#E6E6E6"/>
<path d="M302.236 337.513H309.936V415.085C309.936 416.109 309.529 417.091 308.805 417.815C308.081 418.539 307.099 418.946 306.075 418.946C305.051 418.946 304.069 418.539 303.345 417.815C302.621 417.091 302.214 416.109 302.214 415.085V337.513H302.236Z" fill="#E6E6E6"/>
<path d="M485.254 418.946C484.229 418.946 483.246 418.54 482.52 417.816C481.794 417.092 481.385 416.11 481.382 415.085V337.513H489.082V415.085C489.082 416.103 488.68 417.081 487.963 417.804C487.246 418.527 486.272 418.937 485.254 418.946Z" fill="#E6E6E6"/>
<path d="M445.709 327.415H255.992V337.524H445.709V327.415Z" fill="#F0F0F0"/>
<path d="M439.439 418.946H339.592C335.508 418.946 331.59 417.324 328.702 414.435C325.814 411.547 324.192 407.63 324.192 403.546C324.192 399.462 325.814 395.545 328.702 392.657C331.59 389.769 335.508 388.146 339.592 388.146H439.439C443.523 388.146 447.44 389.769 450.328 392.657C453.216 395.545 454.839 399.462 454.839 403.546C454.839 407.63 453.216 411.547 450.328 414.435C447.44 417.324 443.523 418.946 439.439 418.946Z" fill="#EBEBEB"/>
<path d="M433.51 337.513H441.21V415.085C441.21 416.109 440.803 417.091 440.079 417.815C439.355 418.539 438.373 418.946 437.349 418.946C436.325 418.946 435.343 418.539 434.619 417.815C433.895 417.091 433.488 416.109 433.488 415.085V337.513H433.51Z" fill="#F0F0F0"/>
<path d="M358.083 419.232C356.932 419.522 355.75 419.666 354.563 419.661H293.854C289.768 419.588 285.85 418.02 282.842 415.253C279.833 412.486 277.944 408.712 277.53 404.646L266.53 278.828C266.321 276.916 266.521 274.981 267.117 273.151C267.713 271.322 268.692 269.641 269.989 268.219C271.286 266.798 272.87 265.669 274.637 264.907C276.404 264.146 278.312 263.769 280.236 263.802H340.934C342.146 263.801 343.354 263.945 344.531 264.231C347.902 265.049 350.936 266.892 353.216 269.506C355.495 272.121 356.907 275.378 357.258 278.828L368.258 404.646C368.618 407.898 367.784 411.169 365.913 413.852C364.041 416.535 361.259 418.447 358.083 419.232Z" fill="#EBEBEB"/>
<path d="M358.083 419.232C354.723 418.406 351.7 416.561 349.429 413.95C347.159 411.338 345.751 408.089 345.4 404.646L334.4 278.828C334.04 275.576 334.873 272.303 336.744 269.618C338.616 266.933 341.398 265.019 344.575 264.231C347.946 265.049 350.98 266.892 353.259 269.506C355.539 272.121 356.951 275.378 357.302 278.828L368.302 404.646C368.66 407.904 367.82 411.18 365.94 413.864C364.059 416.548 361.267 418.456 358.083 419.232Z" fill="#F5F5F5"/>
<path d="M249.722 104.522H154.704V112.563H249.722V104.522Z" fill="#FAFAFA"/>
<path d="M254.122 355.036H159.104V363.077H254.122V355.036Z" fill="#FAFAFA"/>
<path d="M151.569 112.552V276.1C153.542 274.797 155.6 273.629 157.729 272.602L159.082 271.964V272.217C159.082 272.382 159.082 272.558 159.082 272.723C159.082 272.888 159.082 273.042 159.082 273.196C159.077 273.225 159.077 273.255 159.082 273.284C159.082 273.438 159.082 273.592 159.159 273.735C159.236 273.878 159.225 274.043 159.269 274.197V112.497L151.569 112.552ZM254.507 369.952V96.6572H151.503V369.919L254.507 369.952ZM246.653 104.5V362.076H159.346V104.5H246.653ZM151.569 112.541V276.1C153.542 274.797 155.6 273.629 157.729 272.602L159.082 271.964V272.217C159.082 272.382 159.082 272.558 159.082 272.723C159.082 272.888 159.082 273.042 159.082 273.196C159.077 273.225 159.077 273.255 159.082 273.284C159.082 273.438 159.082 273.592 159.159 273.735C159.236 273.878 159.225 274.043 159.269 274.197V112.497L151.569 112.541Z" fill="#F0F0F0"/>
<path d="M155.496 104.522H60.478V112.563H155.496V104.522Z" fill="#FAFAFA"/>
<path d="M152.196 355.036H57.178V363.077H152.196V355.036Z" fill="#FAFAFA"/>
<path d="M56.4189 96.6572V369.919H159.423V96.6572H56.4189ZM65.7139 363.121V105.6L151.514 104.555H151.58V362.076H151.514L118.316 362.483H117.381L69.2999 363.077L65.7139 363.121Z" fill="#EBEBEB"/>
<path d="M269.698 466.081C387.489 466.081 482.977 460.506 482.977 453.629C482.977 446.752 387.489 441.177 269.698 441.177C151.907 441.177 56.4189 446.752 56.4189 453.629C56.4189 460.506 151.907 466.081 269.698 466.081Z" fill="#F5F5F5"/>
<path d="M439.285 81.1797H108.13V306.075H439.285V81.1797Z" fill="#219EBC"/>
<path opacity="0.5" d="M439.285 81.1797H108.13V306.075H439.285V81.1797Z" fill="white"/>
<path d="M108.13 81.1797V96.6787H156.057V90.7277C156.057 90.0242 156.195 89.3276 156.465 88.6776C156.734 88.0277 157.128 87.4372 157.626 86.9397C158.123 86.4423 158.714 86.0477 159.364 85.7785C160.014 85.5092 160.71 85.3707 161.414 85.3707H205.755C207.176 85.3707 208.538 85.9351 209.543 86.9397C210.547 87.9443 211.112 89.3069 211.112 90.7277V96.6787H439.285V81.1797H108.13Z" fill="#219EBC"/>
<path opacity="0.7" d="M121.946 88.9236C121.948 89.629 121.741 90.3191 121.351 90.9066C120.96 91.4942 120.404 91.9527 119.753 92.2241C119.102 92.4956 118.385 92.5677 117.693 92.4315C117.001 92.2952 116.365 91.9566 115.866 91.4586C115.366 90.9606 115.026 90.3256 114.887 89.634C114.749 88.9423 114.819 88.2251 115.088 87.5733C115.358 86.9214 115.814 86.3641 116.401 85.972C116.987 85.5799 117.676 85.3706 118.382 85.3706C119.325 85.3706 120.23 85.7446 120.898 86.4106C121.566 87.0766 121.943 87.9803 121.946 88.9236Z" fill="white"/>
<path opacity="0.7" d="M129.063 92.4766C131.025 92.4766 132.616 90.8859 132.616 88.9236C132.616 86.9613 131.025 85.3706 129.063 85.3706C127.1 85.3706 125.51 86.9613 125.51 88.9236C125.51 90.8859 127.1 92.4766 129.063 92.4766Z" fill="white"/>
<path opacity="0.7" d="M143.297 88.9238C143.299 89.6277 143.093 90.3165 142.704 90.9033C142.315 91.4901 141.761 91.9486 141.112 92.221C140.463 92.4934 139.748 92.5674 139.056 92.4338C138.365 92.3002 137.729 91.9649 137.228 91.4702C136.728 90.9755 136.384 90.3436 136.242 89.6541C136.1 88.9647 136.165 88.2486 136.43 87.5961C136.694 86.9437 137.146 86.3842 137.728 85.9882C138.31 85.5921 138.996 85.3773 139.7 85.3708C140.17 85.3664 140.636 85.455 141.071 85.6315C141.507 85.808 141.903 86.0688 142.238 86.399C142.572 86.7292 142.838 87.1223 143.019 87.5556C143.201 87.9889 143.296 88.4539 143.297 88.9238Z" fill="white"/>
<path opacity="0.7" d="M170.071 92.4879C170.071 93.1927 169.862 93.8818 169.47 94.4679C169.079 95.054 168.522 95.5108 167.871 95.7806C167.22 96.0503 166.503 96.1209 165.812 95.9834C165.12 95.8458 164.485 95.5064 163.987 95.008C163.488 94.5095 163.149 93.8745 163.011 93.1831C162.874 92.4918 162.944 91.7752 163.214 91.124C163.484 90.4727 163.941 89.9161 164.527 89.5245C165.113 89.1329 165.802 88.9238 166.507 88.9238C166.975 88.9224 167.439 89.0136 167.872 89.1922C168.306 89.3708 168.699 89.6332 169.03 89.9645C169.361 90.2957 169.624 90.6892 169.803 91.1223C169.981 91.5553 170.072 92.0194 170.071 92.4879Z" fill="white"/>
<path opacity="0.2" d="M439.285 126.995H108.13V306.064H439.285V126.995Z" fill="white"/>
<path d="M210.661 74.5908H174.603C173.822 74.5908 173.712 75.8008 174.493 75.8008H210.551C211.332 75.8008 211.442 74.5908 210.661 74.5908Z" fill="#219EBC"/>
<path d="M168.795 74.5908H164.241C163.46 74.5908 163.361 75.8008 164.142 75.8008H168.696C169.466 75.8008 169.576 74.5908 168.795 74.5908Z" fill="#219EBC"/>
<path d="M386.584 119.009H170.28C168.508 119.006 166.81 118.3 165.558 117.046C164.306 115.792 163.603 114.092 163.603 112.321C163.597 111.44 163.766 110.567 164.099 109.752C164.431 108.937 164.922 108.195 165.543 107.571C166.164 106.946 166.902 106.45 167.715 106.112C168.528 105.774 169.399 105.6 170.28 105.6H386.584C388.356 105.6 390.055 106.303 391.309 107.555C392.563 108.806 393.269 110.505 393.272 112.277C393.278 113.159 393.109 114.033 392.776 114.85C392.442 115.666 391.95 116.408 391.329 117.034C390.707 117.66 389.968 118.156 389.154 118.495C388.339 118.834 387.466 119.009 386.584 119.009Z" fill="white"/>
<path d="M156.695 148.126H121.737C119.905 148.126 118.148 147.398 116.852 146.103C115.557 144.807 114.829 143.05 114.829 141.218C114.829 139.386 115.557 137.629 116.852 136.333C118.148 135.038 119.905 134.31 121.737 134.31H156.695C158.527 134.31 160.284 135.038 161.58 136.333C162.875 137.629 163.603 139.386 163.603 141.218C163.603 143.05 162.875 144.807 161.58 146.103C160.284 147.398 158.527 148.126 156.695 148.126Z" fill="#263238"/>
<path d="M381.348 157.674H188.848C185.75 157.674 182.778 156.443 180.587 154.252C178.397 152.062 177.166 149.09 177.166 145.992C177.166 142.894 178.397 139.922 180.587 137.732C182.778 135.541 185.75 134.31 188.848 134.31H381.348C382.882 134.309 384.402 134.61 385.82 135.196C387.238 135.783 388.526 136.643 389.611 137.728C390.697 138.813 391.557 140.102 392.144 141.52C392.73 142.938 393.031 144.458 393.03 145.992C393.031 147.527 392.73 149.046 392.144 150.464C391.557 151.882 390.697 153.171 389.611 154.256C388.526 155.341 387.238 156.201 385.82 156.788C384.402 157.374 382.882 157.675 381.348 157.674Z" fill="white"/>
<path d="M411.774 185.361H379.753V217.382H411.774V185.361Z" fill="white"/>
<path d="M372.636 185.361H340.615V217.382H372.636V185.361Z" fill="white"/>
<path d="M276.551 208.747H176.649V217.448H276.551V208.747Z" fill="#219EBC"/>
<path opacity="0.1" d="M276.551 208.747H176.649V217.448H276.551V208.747Z" fill="black"/>
<path d="M415.701 232.364H335.819V241.065H415.701V232.364Z" fill="#219EBC"/>
<path opacity="0.1" d="M415.701 232.364H335.819V241.065H415.701V232.364Z" fill="black"/>
<path d="M306.713 225.753H176.649V228.481H306.713V225.753Z" fill="#263238"/>
<path d="M203.379 91.1235H176.649V93.8515H203.379V91.1235Z" fill="#263238"/>
<path d="M286.264 236.841H176.649V239.569H286.264V236.841Z" fill="#263238"/>
<path d="M276.551 262.35H176.649V271.051H276.551V262.35Z" fill="#219EBC"/>
<path opacity="0.1" d="M276.551 262.35H176.649V271.051H276.551V262.35Z" fill="black"/>
<path d="M306.713 279.367H176.649V282.095H306.713V279.367Z" fill="#263238"/>
<path d="M286.264 290.455H176.649V293.183H286.264V290.455Z" fill="#263238"/>
<path d="M415.701 249.26H335.819V251.988H415.701V249.26Z" fill="#263238"/>
<path d="M400.95 260.348H335.819V263.076H400.95V260.348Z" fill="#263238"/>
<path d="M423.929 294.173H327.932V176.242H423.929V294.173ZM329.582 292.523H422.279V177.892H329.582V292.523Z" fill="#219EBC"/>
<path d="M373.604 149.831C372.605 149.832 371.621 149.587 370.74 149.117C369.858 148.647 369.106 147.966 368.55 147.136C367.995 146.305 367.653 145.351 367.554 144.357C367.456 143.363 367.605 142.359 367.987 141.436C368.369 140.513 368.973 139.699 369.745 139.065C370.518 138.431 371.434 137.998 372.414 137.803C373.394 137.609 374.407 137.659 375.363 137.949C376.319 138.24 377.188 138.762 377.894 139.469C378.742 140.318 379.319 141.399 379.553 142.576C379.786 143.753 379.666 144.973 379.207 146.082C378.748 147.19 377.971 148.138 376.974 148.805C375.976 149.473 374.804 149.83 373.604 149.831ZM373.604 138.732C372.438 138.733 371.309 139.138 370.409 139.878C369.508 140.617 368.892 141.647 368.665 142.79C368.439 143.933 368.615 145.12 369.165 146.147C369.715 147.175 370.605 147.98 371.682 148.426C372.759 148.871 373.957 148.929 375.072 148.59C376.187 148.251 377.15 147.536 377.798 146.567C378.445 145.597 378.735 144.434 378.621 143.274C378.506 142.114 377.993 141.03 377.168 140.206C376.701 139.737 376.145 139.365 375.534 139.112C374.922 138.859 374.266 138.73 373.604 138.732Z" fill="#219EBC"/>
<path d="M379.363 148.788L378.632 149.519L383.587 154.474L384.318 153.743L379.363 148.788Z" fill="#219EBC"/>
<path d="M378.082 147.51L377.351 148.241L379.171 150.061L379.903 149.33L378.082 147.51Z" fill="#219EBC"/>
<path d="M180.224 172.018C179.85 172.019 179.479 171.945 179.134 171.802C178.788 171.658 178.474 171.447 178.211 171.182C177.676 170.648 177.374 169.923 177.373 169.167C177.372 168.411 177.672 167.686 178.205 167.15C178.739 166.615 179.464 166.314 180.22 166.313C180.976 166.311 181.702 166.611 182.237 167.145C182.771 167.681 183.071 168.407 183.071 169.163C183.071 169.92 182.771 170.646 182.237 171.182C181.973 171.447 181.66 171.658 181.314 171.802C180.969 171.945 180.598 172.019 180.224 172.018ZM180.224 166.925C179.929 166.923 179.637 166.981 179.365 167.094C179.093 167.207 178.846 167.374 178.64 167.585C178.427 167.79 178.258 168.036 178.142 168.308C178.026 168.58 177.967 168.873 177.967 169.169C177.967 169.464 178.026 169.757 178.142 170.029C178.258 170.301 178.427 170.547 178.64 170.753C178.847 170.961 179.094 171.126 179.366 171.238C179.638 171.349 179.93 171.405 180.224 171.402C180.675 171.421 181.12 171.301 181.501 171.059C181.881 170.817 182.178 170.464 182.35 170.047C182.523 169.63 182.564 169.171 182.467 168.73C182.37 168.29 182.14 167.89 181.808 167.585C181.602 167.374 181.355 167.207 181.083 167.094C180.811 166.981 180.519 166.923 180.224 166.925Z" fill="#219EBC"/>
<path d="M182.911 171.416L182.475 171.852L184.746 174.123L185.182 173.688L182.911 171.416Z" fill="#219EBC"/>
<path d="M182.253 170.922L181.966 171.21L182.798 172.042L183.086 171.755L182.253 170.922Z" fill="#219EBC"/>
<path d="M189.002 147.576L189.189 147.257C189.707 147.741 190.394 148.005 191.103 147.994C192.269 147.994 192.786 147.488 192.786 146.894C192.786 145.156 189.156 146.201 189.156 144.056C189.156 143.231 189.783 142.516 191.213 142.516C191.834 142.51 192.443 142.69 192.962 143.033L192.808 143.374C192.336 143.059 191.781 142.89 191.213 142.89C190.113 142.89 189.574 143.407 189.574 143.99C189.574 145.739 193.204 144.705 193.204 146.817C193.204 147.642 192.555 148.357 191.114 148.357C190.335 148.383 189.577 148.102 189.002 147.576Z" fill="#263238"/>
<path d="M198.176 146.3H194.447C194.477 146.66 194.612 147.003 194.834 147.288C195.056 147.573 195.357 147.786 195.699 147.903C196.041 148.02 196.409 148.034 196.759 147.945C197.109 147.856 197.426 147.666 197.67 147.4L197.912 147.675C197.708 147.906 197.455 148.089 197.171 148.21C196.888 148.332 196.581 148.39 196.273 148.379C195.981 148.388 195.691 148.337 195.42 148.23C195.149 148.123 194.903 147.961 194.697 147.755C194.491 147.549 194.329 147.302 194.222 147.031C194.114 146.76 194.064 146.47 194.073 146.179C194.056 145.896 194.098 145.612 194.195 145.346C194.292 145.08 194.443 144.836 194.637 144.63C194.832 144.424 195.067 144.26 195.327 144.148C195.588 144.036 195.868 143.978 196.152 143.979C196.436 143.975 196.718 144.03 196.979 144.141C197.24 144.252 197.476 144.416 197.67 144.623C197.865 144.83 198.014 145.075 198.109 145.343C198.203 145.611 198.241 145.895 198.22 146.179C198.22 146.179 198.176 146.212 198.176 146.3ZM194.458 145.981H197.758C197.711 145.576 197.517 145.202 197.213 144.931C196.909 144.66 196.515 144.511 196.108 144.511C195.7 144.511 195.307 144.66 195.003 144.931C194.699 145.202 194.505 145.576 194.458 145.981Z" fill="#263238"/>
<path d="M202.488 145.574V148.324H202.081V147.554C201.921 147.819 201.69 148.035 201.414 148.177C201.138 148.319 200.828 148.381 200.519 148.357C199.551 148.357 198.957 147.862 198.957 147.114C198.957 146.366 199.375 145.904 200.585 145.904H202.07V145.563C202.095 145.39 202.079 145.213 202.023 145.048C201.967 144.882 201.872 144.732 201.746 144.611C201.62 144.489 201.467 144.399 201.299 144.349C201.132 144.298 200.955 144.288 200.783 144.32C200.233 144.31 199.699 144.506 199.287 144.87L199.078 144.573C199.564 144.164 200.181 143.946 200.816 143.957C201.038 143.925 201.264 143.945 201.478 144.014C201.691 144.084 201.886 144.201 202.047 144.357C202.208 144.513 202.332 144.703 202.408 144.914C202.485 145.125 202.512 145.351 202.488 145.574ZM202.07 147.048V146.234H200.585C199.694 146.234 199.375 146.608 199.375 147.103C199.375 147.598 199.815 148.016 200.585 148.016C200.903 148.034 201.219 147.95 201.486 147.776C201.753 147.601 201.958 147.346 202.07 147.048Z" fill="#263238"/>
<path d="M206.25 143.957V144.364H206.151C205.183 144.364 204.611 145.002 204.611 146.08V148.335H204.193V143.99H204.6V144.936C204.739 144.621 204.972 144.357 205.268 144.182C205.564 144.006 205.907 143.927 206.25 143.957Z" fill="#263238"/>
<path d="M206.877 146.157C206.864 145.865 206.913 145.573 207.019 145.301C207.125 145.028 207.287 144.78 207.494 144.574C207.7 144.367 207.948 144.205 208.22 144.099C208.493 143.993 208.785 143.944 209.077 143.957C209.395 143.939 209.712 144.003 209.999 144.141C210.285 144.28 210.532 144.489 210.716 144.749L210.408 144.98C210.257 144.77 210.057 144.601 209.824 144.488C209.592 144.374 209.335 144.321 209.077 144.331C208.593 144.331 208.128 144.523 207.786 144.866C207.443 145.208 207.251 145.673 207.251 146.157C207.251 146.641 207.443 147.106 207.786 147.448C208.128 147.791 208.593 147.983 209.077 147.983C209.335 147.993 209.592 147.939 209.824 147.826C210.057 147.713 210.257 147.544 210.408 147.334L210.716 147.565C210.53 147.823 210.283 148.03 209.997 148.168C209.71 148.307 209.394 148.371 209.077 148.357C208.785 148.368 208.494 148.318 208.222 148.211C207.951 148.105 207.704 147.943 207.497 147.737C207.291 147.53 207.129 147.283 207.022 147.011C206.916 146.74 206.866 146.449 206.877 146.157Z" fill="#263238"/>
<path d="M215.776 145.794V148.324H215.358V145.827C215.385 145.632 215.367 145.433 215.308 145.246C215.248 145.058 215.146 144.886 215.011 144.743C214.876 144.599 214.711 144.488 214.527 144.416C214.344 144.345 214.146 144.316 213.95 144.331C213.727 144.316 213.503 144.349 213.294 144.429C213.085 144.509 212.897 144.633 212.741 144.793C212.585 144.953 212.465 145.145 212.391 145.356C212.317 145.567 212.29 145.792 212.311 146.014V148.324H211.893V142.164H212.3V144.892C212.464 144.589 212.712 144.339 213.015 144.173C213.317 144.008 213.661 143.932 214.005 143.957C214.249 143.935 214.494 143.969 214.723 144.054C214.953 144.14 215.16 144.276 215.33 144.452C215.499 144.628 215.628 144.84 215.705 145.072C215.782 145.305 215.806 145.551 215.776 145.794Z" fill="#263238"/>
<path d="M177.1 112.321V114.851H176.682V112.354C176.711 112.158 176.695 111.959 176.636 111.77C176.577 111.582 176.476 111.409 176.34 111.265C176.205 111.121 176.038 111.01 175.854 110.939C175.669 110.869 175.471 110.841 175.274 110.858C175.051 110.844 174.828 110.879 174.62 110.96C174.412 111.04 174.224 111.164 174.069 111.324C173.913 111.484 173.794 111.675 173.719 111.885C173.644 112.095 173.615 112.319 173.635 112.541V114.851H173.217V108.691H173.635V111.419C173.799 111.116 174.047 110.866 174.35 110.7C174.652 110.534 174.996 110.459 175.34 110.484C175.583 110.464 175.827 110.499 176.055 110.585C176.283 110.671 176.488 110.808 176.657 110.984C176.826 111.16 176.953 111.371 177.029 111.602C177.106 111.834 177.13 112.079 177.1 112.321Z" fill="#263238"/>
<path d="M180.983 114.576C180.735 114.787 180.417 114.896 180.092 114.884C179.934 114.895 179.776 114.873 179.628 114.818C179.48 114.763 179.346 114.676 179.234 114.565C179.122 114.453 179.036 114.318 178.981 114.17C178.926 114.022 178.903 113.864 178.915 113.707V110.869H178.123V110.517H178.915V109.571H179.3V110.517H180.675V110.869H179.3V113.663C179.3 114.224 179.575 114.532 180.103 114.532C180.349 114.538 180.589 114.452 180.774 114.29L180.983 114.576Z" fill="#263238"/>
<path d="M184.173 114.576C183.928 114.785 183.615 114.895 183.293 114.884C183.135 114.897 182.975 114.876 182.826 114.821C182.677 114.767 182.541 114.681 182.428 114.569C182.315 114.457 182.228 114.322 182.172 114.173C182.116 114.024 182.093 113.865 182.105 113.707V110.869H181.313V110.517H182.105V109.571H182.523V110.517H183.898V110.869H182.523V113.663C182.523 114.224 182.798 114.532 183.326 114.532C183.575 114.536 183.817 114.45 184.008 114.29L184.173 114.576Z" fill="#263238"/>
<path d="M189.651 112.684C189.666 112.972 189.622 113.261 189.52 113.531C189.418 113.801 189.262 114.047 189.06 114.254C188.859 114.461 188.617 114.623 188.349 114.732C188.082 114.84 187.794 114.892 187.506 114.884C187.147 114.892 186.792 114.801 186.482 114.621C186.171 114.44 185.916 114.177 185.746 113.861V116.468H185.339V110.517H185.735V111.54C185.892 111.205 186.143 110.923 186.457 110.728C186.772 110.533 187.136 110.433 187.506 110.44C187.798 110.433 188.088 110.487 188.358 110.599C188.628 110.711 188.872 110.878 189.074 111.089C189.275 111.3 189.431 111.551 189.53 111.825C189.63 112.1 189.671 112.393 189.651 112.684ZM189.233 112.684C189.218 112.342 189.103 112.012 188.901 111.734C188.7 111.457 188.422 111.245 188.102 111.124C187.781 111.003 187.432 110.98 187.098 111.056C186.764 111.131 186.459 111.304 186.222 111.551C185.986 111.799 185.826 112.11 185.765 112.447C185.703 112.784 185.742 113.132 185.877 113.447C186.011 113.762 186.235 114.031 186.521 114.22C186.806 114.409 187.141 114.51 187.484 114.51C187.719 114.511 187.951 114.463 188.167 114.37C188.383 114.277 188.577 114.14 188.738 113.969C188.899 113.798 189.023 113.596 189.102 113.375C189.182 113.153 189.215 112.918 189.2 112.684H189.233Z" fill="#263238"/>
<path d="M190.3 114.334L190.498 113.993C190.944 114.341 191.494 114.527 192.06 114.521C192.973 114.521 193.336 114.191 193.336 113.707C193.336 112.442 190.465 113.377 190.465 111.672C190.465 111.012 191.015 110.484 192.104 110.484C192.629 110.475 193.145 110.62 193.589 110.902L193.402 111.243C193.019 110.975 192.56 110.836 192.093 110.847C191.246 110.847 190.872 111.199 190.872 111.661C190.872 112.97 193.754 112.046 193.754 113.696C193.754 114.4 193.149 114.884 192.038 114.884C191.413 114.902 190.801 114.708 190.3 114.334Z" fill="#263238"/>
<path d="M194.513 110.836C194.513 110.743 194.55 110.653 194.616 110.587C194.682 110.521 194.772 110.484 194.865 110.484C194.912 110.483 194.958 110.491 195.001 110.508C195.045 110.525 195.084 110.551 195.117 110.584C195.15 110.617 195.176 110.656 195.193 110.7C195.21 110.743 195.218 110.789 195.217 110.836C195.217 110.929 195.18 111.019 195.114 111.085C195.048 111.151 194.958 111.188 194.865 111.188C194.772 111.188 194.682 111.151 194.616 111.085C194.55 111.019 194.513 110.929 194.513 110.836ZM194.513 114.532C194.513 114.439 194.55 114.349 194.616 114.283C194.682 114.217 194.772 114.18 194.865 114.18C194.958 114.18 195.048 114.217 195.114 114.283C195.18 114.349 195.217 114.439 195.217 114.532C195.217 114.625 195.18 114.715 195.114 114.781C195.048 114.847 194.958 114.884 194.865 114.884C194.772 114.884 194.682 114.847 194.616 114.781C194.55 114.715 194.513 114.625 194.513 114.532Z" fill="#263238"/>
<path d="M198.605 107.855H198.99L196.251 115.687H195.866L198.605 107.855Z" fill="#263238"/>
<path d="M200.739 107.855H201.124L198.385 115.687H198L200.739 107.855Z" fill="#263238"/>
<path opacity="0.7" d="M203.819 169.4C203.819 170.105 203.61 170.795 203.218 171.381C202.825 171.967 202.268 172.424 201.616 172.694C200.964 172.963 200.247 173.033 199.556 172.895C198.864 172.756 198.229 172.416 197.731 171.916C197.233 171.417 196.894 170.781 196.758 170.089C196.622 169.396 196.694 168.679 196.965 168.028C197.237 167.377 197.695 166.822 198.283 166.431C198.87 166.041 199.561 165.834 200.266 165.836C200.733 165.836 201.196 165.928 201.628 166.107C202.06 166.287 202.452 166.549 202.782 166.88C203.112 167.212 203.374 167.605 203.552 168.037C203.73 168.469 203.82 168.932 203.819 169.4Z" fill="#219EBC"/>
<path opacity="0.7" d="M222.002 169.4C222.002 170.105 221.792 170.795 221.4 171.381C221.008 171.967 220.451 172.424 219.799 172.694C219.147 172.963 218.43 173.033 217.738 172.895C217.047 172.756 216.412 172.416 215.914 171.916C215.416 171.417 215.077 170.781 214.941 170.089C214.805 169.396 214.877 168.679 215.148 168.028C215.42 167.377 215.878 166.822 216.466 166.431C217.053 166.041 217.743 165.834 218.449 165.836C218.916 165.836 219.379 165.928 219.811 166.107C220.243 166.287 220.635 166.549 220.965 166.88C221.295 167.212 221.557 167.605 221.734 168.037C221.912 168.469 222.003 168.932 222.002 169.4Z" fill="#219EBC"/>
<path opacity="0.7" d="M240.185 169.4C240.185 170.105 239.976 170.795 239.583 171.381C239.191 171.967 238.634 172.424 237.982 172.694C237.33 172.963 236.613 173.033 235.922 172.895C235.23 172.756 234.595 172.416 234.097 171.916C233.599 171.417 233.26 170.781 233.124 170.089C232.988 169.396 233.06 168.679 233.331 168.028C233.603 167.377 234.061 166.822 234.649 166.431C235.236 166.041 235.927 165.834 236.632 165.836C237.099 165.836 237.562 165.928 237.994 166.107C238.426 166.287 238.818 166.549 239.148 166.88C239.478 167.212 239.74 167.605 239.918 168.037C240.095 168.469 240.186 168.932 240.185 169.4Z" fill="#219EBC"/>
<path opacity="0.7" d="M258.368 169.4C258.368 170.105 258.158 170.795 257.766 171.381C257.374 171.967 256.817 172.424 256.165 172.694C255.513 172.963 254.796 173.033 254.104 172.895C253.413 172.756 252.778 172.416 252.28 171.916C251.782 171.417 251.443 170.781 251.307 170.089C251.171 169.396 251.243 168.679 251.514 168.028C251.786 167.377 252.244 166.822 252.832 166.431C253.419 166.041 254.109 165.834 254.815 165.836C255.282 165.836 255.745 165.928 256.177 166.107C256.609 166.287 257.001 166.549 257.331 166.88C257.661 167.212 257.923 167.605 258.1 168.037C258.278 168.469 258.369 168.932 258.368 169.4Z" fill="#219EBC"/>
<path opacity="0.7" d="M276.551 169.4C276.551 170.105 276.342 170.795 275.949 171.381C275.557 171.967 275 172.424 274.348 172.694C273.696 172.963 272.979 173.033 272.288 172.895C271.596 172.756 270.961 172.416 270.463 171.916C269.965 171.417 269.626 170.781 269.49 170.089C269.354 169.396 269.426 168.679 269.697 168.028C269.969 167.377 270.427 166.822 271.015 166.431C271.602 166.041 272.292 165.834 272.998 165.836C273.465 165.836 273.928 165.928 274.36 166.107C274.792 166.287 275.184 166.549 275.514 166.88C275.844 167.212 276.106 167.605 276.284 168.037C276.461 168.469 276.552 168.932 276.551 169.4Z" fill="#219EBC"/>
<path d="M112.937 379.038C109.318 374.572 102.3 371.591 94.6 370.15C95.194 372.35 94.743 374.385 93.445 374.88C92.147 375.375 90.046 373.879 89.1 371.404C88.8449 370.744 88.6821 370.052 88.616 369.347C80.916 368.72 73.095 369.611 67.925 372.097C67.925 372.097 72.9961 376.673 78.7381 388.685H79.266C82.984 388.685 85.976 390.522 85.954 392.7C85.954 394.284 84.3151 395.637 81.9941 396.231C82.291 397.001 82.599 397.793 82.896 398.596C88.396 413.413 102.96 402.699 102.828 392.568C102.839 392.557 121.066 389.059 112.937 379.038Z" fill="#219EBC"/>
<path d="M74.151 374.11L73.7 374L74.151 374.11Z" fill="#263238"/>
<path d="M125.521 425.139C125.202 424.347 124.718 423.181 124.036 421.696C118.968 410.787 111.978 400.88 103.4 392.447C101.365 390.489 99.1761 388.564 96.8001 386.705C96.6681 384.868 96.8001 379.962 101.332 377.146C101.332 377.146 96.3271 377.894 95.6121 385.781C89.1027 380.814 81.8681 376.878 74.1621 374.11C83.887 378.117 92.7745 383.911 100.364 391.193C98.3815 391.32 96.4728 391.994 94.8496 393.139C93.2265 394.285 91.9522 395.857 91.1681 397.683C91.3991 397.375 95.2381 392.183 101.662 392.436L102.762 393.591C110.726 401.684 117.073 411.223 121.462 421.696C122.056 423.093 122.628 424.545 123.167 426.019C123.268 426.292 123.461 426.52 123.713 426.665C123.965 426.81 124.259 426.863 124.546 426.813C124.832 426.763 125.092 426.615 125.28 426.393C125.468 426.172 125.573 425.891 125.576 425.601C125.584 425.445 125.566 425.289 125.521 425.139Z" fill="#263238"/>
<path d="M134.013 379.137C136.455 373.934 142.538 369.347 149.666 366.102C149.611 368.379 150.535 370.249 151.921 370.414C153.307 370.579 154.979 368.621 155.298 366.014C155.398 365.317 155.398 364.61 155.298 363.913C162.668 361.427 170.423 360.426 176.044 361.592C176.044 361.592 172.227 367.246 169.543 380.292L169.026 380.413C165.429 381.348 162.954 383.812 163.526 385.913C163.922 387.453 165.825 388.377 168.223 388.399C168.113 389.213 168.014 390.049 167.915 390.907C166.177 406.604 149.424 399.707 147.114 389.807C147.059 389.829 128.535 390.819 134.013 379.137Z" fill="#219EBC"/>
<path d="M170.5 365.024L170.863 364.782L170.5 365.024Z" fill="#F5F5F5"/>
<path d="M149.963 386.672C155.304 378.549 162.002 371.405 169.763 365.552C163.249 369.985 157.432 375.364 152.504 381.513C151.975 379.864 151.127 378.335 150.007 377.014L149.941 376.937C149.331 376.181 148.561 375.571 147.685 375.15C146.81 374.73 145.852 374.509 144.881 374.506C146.984 375.172 148.779 376.569 149.941 378.444C149.967 378.478 149.989 378.515 150.007 378.554C150.781 379.824 151.314 381.226 151.58 382.69C151.041 383.394 150.48 384.087 150.007 384.791C149.98 384.82 149.958 384.854 149.941 384.89C148.753 386.529 147.631 388.19 146.641 389.84C145.314 391.959 144.111 394.071 143.033 396.176C143.02 396.211 143.02 396.25 143.033 396.286C138.884 404.311 135.831 412.858 133.958 421.696C133.474 424.017 133.188 425.821 133.034 426.921C133.013 427.084 133.024 427.251 133.068 427.41C133.112 427.569 133.188 427.717 133.291 427.847C133.393 427.976 133.521 428.083 133.666 428.162C133.811 428.241 133.97 428.29 134.134 428.307H134.288C134.591 428.306 134.884 428.193 135.109 427.99C135.334 427.787 135.477 427.508 135.509 427.207C135.718 425.326 135.971 423.489 136.279 421.707C137.543 414.016 139.817 406.526 143.044 399.432C143.038 399.388 143.038 399.344 143.044 399.3C144.355 396.405 145.824 393.585 147.444 390.852C147.708 390.379 147.994 389.917 148.28 389.455C148.837 389.281 149.407 389.156 149.985 389.081H150.051C153.54 388.753 157.017 389.812 159.731 392.029C158.622 390.546 157.147 389.377 155.45 388.637C153.753 387.896 151.892 387.609 150.051 387.805H149.985C149.737 387.832 149.491 387.872 149.248 387.926C149.49 387.541 149.743 387.167 149.985 386.826L149.963 386.672Z" fill="#263238"/>
<path d="M139.216 377.575C138.116 371.932 133.221 366.047 127.05 361.229C126.577 363.429 125.235 365.057 123.849 364.892C122.463 364.727 121.297 362.439 121.649 359.799C121.729 359.099 121.907 358.414 122.177 357.764C115.577 353.628 108.284 350.834 102.542 350.647C102.542 350.647 104.929 357.049 104.478 370.359L104.962 370.59C108.262 372.339 110.066 375.32 109.043 377.19C108.295 378.598 106.238 379.038 103.895 378.499C103.807 379.324 103.719 380.16 103.609 381.018C101.629 396.682 119.515 393.921 124.08 384.868C124.025 384.912 141.801 390.214 139.216 377.575Z" fill="#219EBC"/>
<path opacity="0.2" d="M139.216 377.575C138.116 371.932 133.221 366.047 127.05 361.229C126.577 363.429 125.235 365.057 123.849 364.892C122.463 364.727 121.297 362.439 121.649 359.799C121.729 359.099 121.907 358.414 122.177 357.764C115.577 353.628 108.284 350.834 102.542 350.647C102.542 350.647 104.929 357.049 104.478 370.359L104.962 370.59C108.262 372.339 110.066 375.32 109.043 377.19C108.295 378.598 106.238 379.038 103.895 378.499C103.807 379.324 103.719 380.16 103.609 381.018C101.629 396.682 119.515 393.921 124.08 384.868C124.025 384.912 141.801 390.214 139.216 377.575Z" fill="white"/>
<path d="M107.074 355.3L106.777 354.981L107.074 355.3Z" fill="#263238"/>
<path d="M121.352 376.915C122.089 375.232 124.476 370.942 129.778 370.535C129.778 370.535 125.004 368.896 120.725 375.551C117.324 368.322 112.851 361.646 107.459 355.751C114.042 363.705 119.119 372.793 122.441 382.569C120.63 381.748 118.624 381.453 116.653 381.72C114.682 381.986 112.826 382.803 111.298 384.076C112.458 383.551 113.682 383.182 114.939 382.976C117.704 382.429 120.573 382.894 123.024 384.285L123.519 385.847C127.065 397.455 128.221 409.662 126.918 421.729C126.841 422.488 126.753 423.247 126.654 424.017C126.631 424.182 126.641 424.35 126.685 424.511C126.728 424.672 126.803 424.823 126.906 424.954C127.008 425.086 127.136 425.195 127.282 425.276C127.428 425.357 127.588 425.407 127.754 425.425H127.897C128.202 425.427 128.497 425.315 128.725 425.112C128.952 424.909 129.096 424.628 129.129 424.325C129.195 423.676 129.272 422.818 129.327 421.729C130.031 409.293 128.401 396.836 124.52 385C123.618 382.371 122.584 379.643 121.352 376.915Z" fill="#263238"/>
<path d="M145.739 425.139V425.458L145.651 426.8L144.056 451C144.011 451.695 143.703 452.348 143.194 452.824C142.685 453.3 142.014 453.564 141.317 453.563H115.379C114.682 453.564 114.011 453.3 113.502 452.824C112.993 452.348 112.685 451.695 112.64 451L111.1 426.8L111.012 425.458V425.139C110.998 424.809 111.035 424.479 111.122 424.16V424.061C111.122 423.951 111.199 423.841 111.243 423.72C111.291 423.603 111.347 423.489 111.408 423.379V423.302C111.443 423.234 111.487 423.171 111.54 423.115C111.559 423.071 111.585 423.03 111.617 422.994L111.793 422.785C111.917 422.645 112.053 422.516 112.2 422.4L112.376 422.268C112.811 421.97 113.314 421.784 113.839 421.729H114.169H142.527H142.857H143C143.728 421.839 144.397 422.196 144.892 422.741L145.068 422.95C145.1 422.986 145.126 423.027 145.145 423.071C145.198 423.127 145.242 423.19 145.277 423.258C145.281 423.284 145.281 423.309 145.277 423.335C145.342 423.445 145.401 423.559 145.453 423.676C145.453 423.797 145.541 423.907 145.574 424.017V424.116C145.684 424.446 145.74 424.791 145.739 425.139Z" fill="#263238"/>
<path d="M145.629 424.138C145.457 423.442 145.057 422.823 144.493 422.381C143.929 421.938 143.233 421.697 142.516 421.696H114.158C113.442 421.701 112.748 421.943 112.185 422.385C111.621 422.827 111.22 423.444 111.045 424.138L110.957 425.469L111.1 426.8C111.277 427.492 111.679 428.106 112.242 428.546C112.805 428.986 113.498 429.226 114.213 429.231H142.571C143.287 429.23 143.981 428.991 144.545 428.55C145.109 428.11 145.51 427.494 145.684 426.8L145.772 425.458L145.629 424.138Z" fill="#263238"/>
<path d="M146.289 427.746H110.22L109.56 421.696H146.938L146.289 427.746Z" fill="#263238"/>
<path d="M249.876 245.894L252.351 250.294C252.432 250.444 252.48 250.608 252.494 250.778L253.077 256.85C253.093 257.011 253.076 257.174 253.029 257.328C252.982 257.483 252.905 257.627 252.802 257.752L251.35 259.479C251.097 259.765 243.177 259.6 243.177 259.6C243.015 259.593 242.855 259.554 242.708 259.484C242.561 259.415 242.43 259.317 242.321 259.196C242.213 259.075 242.129 258.934 242.076 258.78C242.023 258.627 242.001 258.464 242.011 258.302L242.506 250.602C242.519 250.449 242.56 250.3 242.627 250.162L244.717 245.685C244.823 245.461 244.994 245.273 245.208 245.148C245.422 245.022 245.669 244.964 245.916 244.981L248.897 245.201C249.107 245.219 249.308 245.293 249.48 245.415C249.652 245.537 249.789 245.702 249.876 245.894Z" fill="#FF8B7B"/>
<path d="M233.904 388.201C220.704 403.733 204.49 420.871 204.49 420.871L194.249 420.53C194.249 420.53 206.976 396.957 219.175 377.564L233.904 388.201Z" fill="#FF8B7B"/>
<path d="M278.014 305.448C278.014 305.448 264.935 337.7 261.855 343.882C255.915 355.773 254.672 358.292 249.513 367.719C247.577 371.25 243.43 376.728 238.392 382.855C236.951 384.593 235.455 386.386 233.904 388.201L219.175 377.564C220.352 375.705 221.518 373.868 222.673 372.064C227.711 364.364 232.419 357.863 235.873 354.64C235.873 354.64 246.939 297.957 254.683 274.56C256.509 269.06 262.273 259.952 263.351 258.06C263.351 258.06 282.106 290.598 283.294 292.303C284.482 294.008 278.014 305.448 278.014 305.448Z" fill="#219EBC"/>
<path opacity="0.3" d="M282.282 296.813C282.282 296.813 278.828 305.613 274.164 314.886C274.164 314.886 273.372 301.95 259.974 279.686C280.687 281.424 282.282 296.813 282.282 296.813Z" fill="black"/>
<path d="M197.791 414.788L192.907 422.73L199.441 427.889L205.392 419.639L197.791 414.788Z" fill="#FF8B7B"/>
<path opacity="0.2" d="M217.338 380.897L231.429 391.039L235.554 386.177L219.351 377.63L217.338 380.897Z" fill="black"/>
<path d="M200.728 429.462C200.702 429.422 200.689 429.377 200.689 429.33C200.689 429.283 200.702 429.237 200.728 429.198C200.748 429.156 200.782 429.121 200.824 429.099C200.865 429.078 200.913 429.07 200.959 429.077C201.124 429.077 204.963 429.473 206.019 430.76C206.217 431 206.315 431.307 206.294 431.618C206.294 431.794 206.241 431.967 206.14 432.112C206.04 432.258 205.898 432.369 205.733 432.432C204.726 432.431 203.755 432.059 203.005 431.387C202.188 430.816 201.426 430.172 200.728 429.462ZM201.498 429.638C202.829 430.859 204.798 432.256 205.535 432.003C205.634 432.003 205.766 431.893 205.788 431.574C205.799 431.478 205.789 431.381 205.758 431.29C205.728 431.199 205.678 431.116 205.612 431.046C205.519 430.933 205.412 430.833 205.293 430.749C204.108 430.144 202.821 429.768 201.498 429.638Z" fill="#219EBC"/>
<path d="M200.629 429.374C200.611 429.34 200.601 429.303 200.601 429.264C200.601 429.226 200.611 429.188 200.629 429.154C200.706 429.066 202.422 427.097 204.006 426.954C204.463 426.923 204.913 427.073 205.26 427.372C205.733 427.79 205.711 428.164 205.579 428.384C205.117 429.385 202.026 429.748 200.794 429.484C200.794 429.484 200.728 429.484 200.717 429.429C200.683 429.419 200.653 429.4 200.629 429.374ZM204.93 427.669C204.693 427.502 204.405 427.425 204.116 427.449C203.052 427.705 202.095 428.285 201.377 429.11C202.752 429.22 204.93 428.78 205.26 428.208C205.26 428.208 205.359 427.999 205.04 427.735L204.93 427.669Z" fill="#219EBC"/>
<path d="M200.706 427.79L192.159 421.707C191.999 421.584 191.801 421.521 191.599 421.531C191.397 421.541 191.206 421.623 191.059 421.762L184.569 427.614C184.43 427.737 184.317 427.885 184.235 428.052C184.154 428.219 184.106 428.399 184.095 428.584C184.084 428.769 184.109 428.955 184.17 429.13C184.23 429.305 184.325 429.466 184.448 429.605L184.668 429.803C187.792 431.937 190.641 433.719 194.48 436.403C199.001 439.626 197.472 439.351 202.73 443.223C205.909 445.544 209.088 442.321 207.856 441.177C202.202 435.963 202.895 433.62 202.081 429.682C201.858 428.91 201.372 428.24 200.706 427.79Z" fill="#263238"/>
<path d="M310.255 161.491C310.332 162.118 310.079 162.679 309.661 162.734C309.243 162.789 308.814 162.294 308.748 161.634C308.682 160.974 308.935 160.446 309.342 160.402C309.749 160.358 310.2 160.853 310.255 161.491Z" fill="#263238"/>
<path d="M308.979 160.38C309.29 160.405 309.601 160.328 309.864 160.159C310.126 159.99 310.326 159.739 310.431 159.445C310.382 159.807 310.259 160.156 310.068 160.468C309.973 160.618 309.83 160.732 309.662 160.79C309.494 160.848 309.311 160.847 309.144 160.787L308.979 160.38Z" fill="#263238"/>
<path d="M308.638 163.262L312.367 167.079C311.81 167.481 311.167 167.747 310.489 167.856C309.811 167.965 309.117 167.914 308.462 167.706L308.638 163.262Z" fill="#BA4D3C"/>
<path d="M286.22 186.494C286.22 186.494 291.621 185.735 291.17 175.758C291.17 175.758 296.098 173.283 299.453 176.11C302.808 178.937 296.89 186.01 301.026 188.804C305.162 191.598 286.22 186.494 286.22 186.494Z" fill="#FF8B7B"/>
<path opacity="0.2" d="M300.487 179.432L296.758 179.652C296.758 179.652 297.605 182.754 299.662 183.887C299.926 182.402 300.366 180.84 300.487 179.432Z" fill="black"/>
<path d="M285.714 162.019C286.429 170.456 286.55 174.053 290.928 178.288C297.528 184.657 307.725 181.94 309.54 173.448C311.179 165.814 309.727 153.318 301.367 150.106C299.527 149.399 297.537 149.174 295.586 149.453C293.635 149.732 291.787 150.505 290.219 151.698C288.65 152.892 287.413 154.467 286.625 156.273C285.836 158.079 285.523 160.057 285.714 162.019Z" fill="#FF8B7B"/>
<path d="M309.991 157.157C309.964 157.206 309.927 157.247 309.881 157.278C309.835 157.308 309.782 157.327 309.727 157.333C309.312 157.36 308.91 157.485 308.552 157.697C308.195 157.91 307.892 158.203 307.67 158.554C307.649 158.592 307.621 158.626 307.587 158.654C307.553 158.681 307.514 158.701 307.472 158.714C307.43 158.726 307.386 158.73 307.343 158.725C307.299 158.72 307.257 158.707 307.219 158.686C307.181 158.665 307.147 158.637 307.12 158.603C307.092 158.569 307.072 158.53 307.06 158.488C307.047 158.446 307.043 158.402 307.048 158.359C307.053 158.316 307.066 158.273 307.087 158.235C307.362 157.788 307.741 157.413 308.19 157.141C308.64 156.869 309.148 156.709 309.672 156.673C309.715 156.669 309.759 156.673 309.801 156.685C309.843 156.698 309.882 156.718 309.915 156.746C309.949 156.774 309.977 156.808 309.998 156.846C310.018 156.885 310.031 156.927 310.035 156.97C310.037 157.035 310.022 157.1 309.991 157.157Z" fill="#263238"/>
<path d="M284.108 187.154L285.329 184.778C285.586 184.269 286.002 183.857 286.514 183.605C287.026 183.353 287.606 183.274 288.167 183.381C292.567 184.195 303.127 186.285 304.579 187.99C305.675 189.254 306.276 190.871 306.273 192.544L284.108 187.154Z" fill="#219EBC"/>
<g opacity="0.7">
<path opacity="0.5" d="M284.108 187.154L285.329 184.778C285.586 184.269 286.002 183.857 286.514 183.605C287.026 183.353 287.606 183.274 288.167 183.381C292.567 184.195 303.127 186.285 304.579 187.99C305.675 189.254 306.276 190.871 306.273 192.544L284.108 187.154Z" fill="white"/>
</g>
<path d="M271.953 208.131L262.053 212.795C257.653 215.05 255.134 218.031 253.341 227.15C251.471 236.753 249.92 245.85 249.92 245.85C247.137 248.05 243.375 245.674 243.375 245.674C241.949 235.262 242.298 224.684 244.409 214.39C246.499 204.028 267.322 190.014 278.058 186.67C279.811 186.123 281.634 185.838 283.47 185.823L285.362 186.076L272.767 208.714L271.953 208.131Z" fill="#219EBC"/>
<path opacity="0.6" d="M271.953 208.131L262.053 212.795C257.653 215.05 255.134 218.031 253.341 227.15C251.471 236.753 249.92 245.85 249.92 245.85C247.137 248.05 243.375 245.674 243.375 245.674C241.949 235.262 242.298 224.684 244.409 214.39C246.499 204.028 267.322 190.014 278.058 186.67C279.811 186.123 281.634 185.838 283.47 185.823L285.362 186.076L272.767 208.714L271.953 208.131Z" fill="black"/>
<path d="M312.829 224.125C316.217 214.456 316.767 214.159 316.052 209.682C315.708 207.569 315.253 205.477 314.688 203.412C310.508 189.497 299.211 188.815 286.704 186.329C274.197 183.843 272.646 190.025 272.03 206.129C271.414 222.233 270.6 248.303 270.6 248.303C278.961 252.999 288.39 255.465 297.979 255.464H306.669C306.831 250.88 307.417 246.322 308.418 241.846C312.829 224.125 310.057 232.1 312.829 224.125Z" fill="#219EBC"/>
<g opacity="0.6">
<path opacity="0.6" d="M312.829 224.125C316.217 214.456 316.767 214.159 316.052 209.682C315.708 207.569 315.253 205.477 314.688 203.412C310.508 189.497 299.211 188.815 286.704 186.329C274.197 183.843 272.646 190.025 272.03 206.129C271.414 222.233 270.6 248.303 270.6 248.303C278.961 252.999 288.39 255.465 297.979 255.464H306.669C306.831 250.88 307.417 246.322 308.418 241.846C312.829 224.125 310.057 232.1 312.829 224.125Z" fill="black"/>
</g>
<path d="M304.128 167.068C304.128 167.068 314.028 150.106 306.086 146.344C293.304 140.294 280.467 142.098 273.086 154.847C267.036 165.341 269.896 176.44 282.48 183.106C299.288 192.027 301.983 176.957 301.18 169.906C301.202 169.884 302.819 169.818 304.128 167.068Z" fill="#263238"/>
<path d="M302.819 163.438C303.474 163.983 304.014 164.653 304.408 165.408C304.803 166.163 305.044 166.989 305.118 167.838C305.294 170.126 303.138 170.841 301.202 169.851C299.453 168.96 297.286 166.683 298.012 164.549C298.181 164.089 298.462 163.679 298.829 163.355C299.196 163.031 299.638 162.804 300.115 162.694C300.592 162.584 301.089 162.594 301.561 162.724C302.033 162.854 302.465 163.099 302.819 163.438Z" fill="#FF8B7B"/>
<path d="M304.304 368.5C302.775 378.73 299.552 387.728 297.264 396.66C296.677 398.948 296.087 401.166 295.493 403.315L275.693 401.522C276.045 399.388 276.419 397.221 276.793 395.043C278.396 385.468 280.5 375.984 283.096 366.63C283.096 366.63 279.422 331.276 278.465 317.031C278.454 316.973 278.454 316.913 278.465 316.855C277.64 304.755 276.815 295.031 276.815 295.031C276.815 295.031 267.586 291.434 262.317 284.031C260.822 281.993 259.755 279.673 259.182 277.211C258.908 276.101 258.753 274.965 258.72 273.823C258.258 260.018 270.622 248.754 270.622 248.754C279.514 252.671 289.071 254.859 298.782 255.2L306.713 255.475C306.713 255.475 310.266 328.691 304.304 368.5Z" fill="#219EBC"/>
<path d="M351.835 157.553C351.637 157.179 358.545 147.51 358.545 147.51L360.899 157.036L359.975 158.389C359.582 159.038 359.056 159.596 358.433 160.028C357.809 160.46 357.102 160.756 356.356 160.897C356.356 160.897 351.857 157.597 351.835 157.553Z" fill="#FF8B7B"/>
<path d="M358.523 147.532L366.223 145.618L366.058 151.448C366.034 152.409 365.744 153.345 365.219 154.151C364.695 154.957 363.957 155.602 363.088 156.013L360.888 157.058C360.888 157.058 356.466 152.24 358.523 147.532Z" fill="#FF8B7B"/>
<path d="M368.236 145.123C368.423 145.061 368.623 145.054 368.813 145.104C369.003 145.154 369.175 145.258 369.307 145.404C369.439 145.55 369.525 145.731 369.556 145.925C369.586 146.119 369.56 146.318 369.479 146.498C369.412 146.706 369.29 146.891 369.125 147.035C368.96 147.178 368.759 147.274 368.544 147.312L363.253 148.28L362.439 146.575L368.236 145.123Z" fill="#FF8B7B"/>
<path d="M340.89 189.629C348.997 181.654 357.973 161.139 357.973 161.139C358.138 159.214 353.672 157.74 351.835 157.553C346.038 163.834 335.984 179.421 334.345 181.104C334.064 181.361 333.758 181.59 333.432 181.786C333.332 181.85 333.225 181.902 333.113 181.94L332.442 182.226C331.221 182.776 330 183.326 328.724 183.799C323.675 185.823 328.064 184.294 322.718 185.878C317.372 187.462 311.861 189.024 306.526 190.388L306.449 190.454C302.852 191.323 300.652 196.625 301.532 200.354C301.713 201.233 302.068 202.068 302.574 202.809C303.081 203.551 303.729 204.184 304.482 204.673C305.235 205.162 306.078 205.497 306.961 205.658C307.844 205.819 308.751 205.803 309.628 205.612C309.628 205.612 337.865 196.57 340.89 189.629Z" fill="#219EBC"/>
<path opacity="0.6" d="M340.89 189.629C348.997 181.654 357.973 161.139 357.973 161.139C358.138 159.214 353.672 157.74 351.835 157.553C346.038 163.834 335.984 179.421 334.345 181.104C334.064 181.361 333.758 181.59 333.432 181.786C333.332 181.85 333.225 181.902 333.113 181.94L332.442 182.226C331.221 182.776 330 183.326 328.724 183.799C323.675 185.823 328.064 184.294 322.718 185.878C317.372 187.462 311.861 189.024 306.526 190.388L306.449 190.454C302.852 191.323 300.652 196.625 301.532 200.354C301.713 201.233 302.068 202.068 302.574 202.809C303.081 203.551 303.729 204.184 304.482 204.673C305.235 205.162 306.078 205.497 306.961 205.658C307.844 205.819 308.751 205.803 309.628 205.612C309.628 205.612 337.865 196.57 340.89 189.629Z" fill="black"/>
<path d="M270.38 169.301C270.38 173.404 267.63 177.001 264.506 179.674C261.382 182.347 257.851 184.514 254.98 187.451C243.397 199.287 243.606 207.636 245.08 211.442C245.421 208.362 253.781 200.266 253.781 200.266C251.955 202.785 250.646 205.326 249.029 207.966C246.015 212.894 243.859 225.027 248.853 229.592C248.853 229.592 253.033 220.055 260.788 217.382C274.219 212.751 260.205 214.83 264.088 226.182C265.881 221.782 276.65 218.922 280.588 216.282C286.935 212.146 288.893 205.37 287.782 197.879C289.982 201.289 289.927 207.603 288.156 211.233C290.961 209.704 298.782 210.727 297.341 185.79C297.702 187.428 298.577 188.908 299.838 190.014C302.412 192.346 307.208 191.279 309.122 189.618C304.249 187.869 301.796 182.116 301.136 169.818C292.776 164.164 279.774 165.374 270.38 169.301Z" fill="#263238"/>
<path d="M294.063 403.227C288.387 423.698 279.246 448.888 279.246 448.888L271.194 446.787C271.194 446.787 273.592 419.936 276.617 401.566L294.063 403.227Z" fill="#FF8B7B"/>
<path d="M281.391 449.9C281.347 449.885 281.309 449.856 281.282 449.819C281.254 449.782 281.239 449.737 281.237 449.691C281.234 449.644 281.246 449.597 281.272 449.557C281.298 449.518 281.336 449.487 281.38 449.471C281.534 449.405 285.142 448.008 286.66 448.69C286.944 448.813 287.169 449.042 287.287 449.328C287.372 449.484 287.405 449.663 287.381 449.839C287.357 450.015 287.278 450.179 287.155 450.307C286.258 450.765 285.222 450.871 284.251 450.604C283.278 450.457 282.321 450.221 281.391 449.9ZM282.161 449.702C283.899 450.197 286.297 450.538 286.836 449.988C286.902 449.922 286.99 449.79 286.836 449.493C286.805 449.402 286.753 449.32 286.685 449.253C286.616 449.186 286.532 449.136 286.44 449.108C286.308 449.046 286.167 449.005 286.022 448.987C284.702 448.984 283.393 449.227 282.161 449.702Z" fill="#219EBC"/>
<path d="M281.27 449.9C281.239 449.874 281.216 449.839 281.204 449.8C281.192 449.761 281.192 449.719 281.204 449.68C281.204 449.57 281.875 447.04 283.228 446.226C283.424 446.108 283.642 446.029 283.868 445.995C284.095 445.961 284.326 445.972 284.548 446.028C285.153 446.193 285.296 446.534 285.285 446.787C285.285 447.887 282.733 449.603 281.523 449.944C281.491 449.955 281.456 449.955 281.424 449.944C281.397 449.949 281.369 449.947 281.342 449.939C281.315 449.932 281.291 449.918 281.27 449.9ZM284.328 446.435C284.042 446.39 283.749 446.448 283.503 446.6C282.674 447.316 282.083 448.268 281.809 449.328C283.085 448.811 284.834 447.425 284.867 446.765C284.867 446.71 284.867 446.545 284.46 446.446L284.328 446.435Z" fill="#219EBC"/>
<path d="M280.621 448.426L270.248 446.853C270.057 446.825 269.863 446.864 269.697 446.962C269.531 447.06 269.403 447.212 269.335 447.392L266.2 455.543C266.066 455.89 266.074 456.276 266.222 456.618C266.37 456.96 266.647 457.229 266.992 457.369L267.278 457.446C271.029 457.941 274.384 458.238 279.048 458.953C284.548 459.778 283.041 460.229 289.487 461.296C293.37 461.934 294.756 457.611 293.139 457.149C285.725 455.059 285.285 452.661 282.777 449.515C282.222 448.892 281.451 448.503 280.621 448.426Z" fill="#263238"/>
<path opacity="0.2" d="M275.979 405.636C275.979 405.526 292.897 407.341 292.897 407.341L294.063 403.227L276.617 401.566L275.979 405.636Z" fill="black"/>
</svg>
