<svg width="450" height="450" viewBox="0 0 450 450" fill="none" xmlns="http://www.w3.org/2000/svg">
<path d="M450 344.16H0V344.385H450V344.16Z" fill="#EBEBEB"/>
<path d="M148.131 358.038H118.323V358.263H148.131V358.038Z" fill="#EBEBEB"/>
<path d="M232.956 355.599H225.135V355.824H232.956V355.599Z" fill="#EBEBEB"/>
<path d="M64.4851 351.801H47.2141V352.026H64.4851V351.801Z" fill="#EBEBEB"/>
<path d="M374.202 350.289H350.73V350.514H374.202V350.289Z" fill="#EBEBEB"/>
<path d="M342.711 350.289H321.615V350.514H342.711V350.289Z" fill="#EBEBEB"/>
<path d="M404.919 361.089H320.607V361.314H404.919V361.089Z" fill="#EBEBEB"/>
<path d="M213.3 304.02H39.5189C38.1575 304.018 36.8527 303.475 35.8909 302.512C34.9291 301.548 34.3889 300.242 34.3889 298.881V54.594C34.4008 53.2404 34.9462 51.9462 35.9067 50.9924C36.8672 50.0386 38.1653 49.5023 39.5189 49.5H213.3C214.663 49.5 215.97 50.0414 216.934 51.0052C217.897 51.9689 218.439 53.2761 218.439 54.639V298.881C218.439 300.244 217.897 301.551 216.934 302.515C215.97 303.479 214.663 304.02 213.3 304.02ZM39.5189 49.68C38.2172 49.6824 36.9696 50.2012 36.05 51.1225C35.1304 52.0437 34.6139 53.2923 34.6139 54.594V298.881C34.6139 300.183 35.1304 301.431 36.05 302.353C36.9696 303.274 38.2172 303.793 39.5189 303.795H213.3C214.602 303.793 215.851 303.274 216.772 302.353C217.693 301.432 218.212 300.184 218.214 298.881V54.594C218.212 53.2915 217.693 52.0429 216.772 51.1219C215.851 50.2009 214.602 49.6824 213.3 49.68H39.5189Z" fill="#EBEBEB"/>
<path d="M407.979 304.02H234.189C232.827 304.018 231.521 303.475 230.558 302.512C229.595 301.549 229.052 300.243 229.05 298.881V54.594C229.064 53.2396 229.612 51.9454 230.574 50.9918C231.536 50.0383 232.835 49.5023 234.189 49.5H407.979C409.331 49.5047 410.627 50.042 411.585 50.9956C412.544 51.9491 413.088 53.242 413.1 54.594V298.881C413.1 300.241 412.561 301.545 411.601 302.508C410.641 303.472 409.339 304.015 407.979 304.02ZM234.189 49.68C232.886 49.6824 231.638 50.2009 230.717 51.1219C229.796 52.0429 229.277 53.2915 229.275 54.594V298.881C229.277 300.184 229.796 301.432 230.717 302.353C231.638 303.274 232.886 303.793 234.189 303.795H407.979C409.282 303.793 410.53 303.274 411.451 302.353C412.372 301.432 412.891 300.184 412.893 298.881V54.594C412.891 53.2915 412.372 52.0429 411.451 51.1219C410.53 50.2009 409.282 49.6824 407.979 49.68H234.189Z" fill="#EBEBEB"/>
<path d="M85.2209 201.501H75.7439V246.483H85.2209V201.501Z" fill="#F0F0F0"/>
<path d="M83.6911 204.966H77.2651V235.467H83.6911V204.966Z" fill="#FAFAFA"/>
<path d="M85.2119 246.492H105.444V201.51H85.2119V246.492Z" fill="#E0E0E0"/>
<path d="M96.6689 201.501H87.1919V246.483H96.6689V201.501Z" fill="#F0F0F0"/>
<path d="M95.1479 204.966H88.7219V235.467H95.1479V204.966Z" fill="#FAFAFA"/>
<path d="M96.6689 246.492H116.901V201.51H96.6689V246.492Z" fill="#E0E0E0"/>
<path d="M109.944 183.987H106.515V344.151H109.944V183.987Z" fill="#EBEBEB"/>
<path d="M52.461 183.987H49.032V344.151H52.461V183.987Z" fill="#EBEBEB"/>
<path d="M124.713 183.987H121.284V344.151H124.713V183.987Z" fill="#EBEBEB"/>
<path d="M67.23 183.987H63.801V344.151H67.23V183.987Z" fill="#EBEBEB"/>
<path d="M69.372 268.461H59.895V313.443H69.372V268.461Z" fill="#F0F0F0"/>
<path d="M67.851 271.926H61.425V302.427H67.851V271.926Z" fill="#FAFAFA"/>
<path d="M69.372 313.452H89.604V268.47H69.372V313.452Z" fill="#E0E0E0"/>
<path d="M80.829 268.461H71.3521V313.443H80.829V268.461Z" fill="#F0F0F0"/>
<path d="M79.299 271.926H72.873V302.427H79.299V271.926Z" fill="#FAFAFA"/>
<path d="M80.82 313.452H101.052V268.47H80.82V313.452Z" fill="#E0E0E0"/>
<path d="M124.713 179.532H47.2141V183.996H124.713V179.532Z" fill="#F0F0F0"/>
<path d="M124.713 246.492H47.2141V250.956H124.713V246.492Z" fill="#F0F0F0"/>
<path d="M124.713 313.452H47.2141V317.916H124.713V313.452Z" fill="#F0F0F0"/>
<path d="M72.8729 144.963H125.838L125.838 78.3899H72.8729V144.963Z" fill="#F0F0F0"/>
<path d="M61.1729 144.963H123.804L123.804 78.3899L61.1729 78.3899L61.1729 144.963Z" fill="#F5F5F5"/>
<path d="M66.429 83.6368V139.716H118.566V83.6368H66.429Z" fill="white"/>
<path d="M92.4929 123.444C98.9944 123.444 104.265 118.173 104.265 111.672C104.265 105.17 98.9944 99.8999 92.4929 99.8999C85.9914 99.8999 80.7209 105.17 80.7209 111.672C80.7209 118.173 85.9914 123.444 92.4929 123.444Z" fill="#F0F0F0"/>
<path d="M194.994 185.112L395.487 185.112V68.4538L194.994 68.4538L194.994 185.112Z" fill="#F0F0F0"/>
<path d="M165.951 185.112L389.925 185.112V68.4538L165.951 68.4538L165.951 185.112Z" fill="#F5F5F5"/>
<path d="M178.983 77.6519V175.923H376.893V77.6519L178.983 77.6519Z" fill="white"/>
<path d="M178.983 77.6522V108.99L376.893 108.99V77.6522L178.983 77.6522Z" fill="#FAFAFA"/>
<path d="M178.983 134.478V175.923H376.893V134.478H178.983Z" fill="#F0F0F0"/>
<path d="M394.344 254.997H388.431V344.151H394.344V254.997Z" fill="#E6E6E6"/>
<path d="M396.207 254.997H392.103V344.151H396.207V254.997Z" fill="#F0F0F0"/>
<path d="M241.461 265.059H397.476V255.006L241.461 255.006V265.059Z" fill="#F0F0F0"/>
<path d="M238.815 265.05H232.902V344.151H238.815V265.05Z" fill="#E6E6E6"/>
<path d="M240.678 265.05H236.574V344.151H240.678V265.05Z" fill="#F0F0F0"/>
<path d="M201.411 265.05H195.498V344.151H201.411V265.05Z" fill="#E6E6E6"/>
<path d="M203.274 265.05H199.17V344.151H203.274V265.05Z" fill="#E6E6E6"/>
<path d="M356.94 265.05H351.027V344.151H356.94V265.05Z" fill="#E6E6E6"/>
<path d="M358.803 265.05H354.699V344.151H358.803V265.05Z" fill="#E6E6E6"/>
<path d="M241.461 254.997H195.498V265.05H241.461V254.997Z" fill="#E6E6E6"/>
<path d="M358.938 234.603C353.907 240.228 335.871 246.087 330.543 228.411C326.664 215.568 348.345 206.064 361.323 205.515C375.3 204.93 383.562 209.853 383.562 209.853C374.894 217.632 366.673 225.895 358.938 234.603Z" fill="#E6E6E6"/>
<path d="M330.534 238.347C337.617 239.103 349.659 233.694 344.889 218.826C340.119 203.958 330.381 202.572 323.937 201.33C315.72 199.746 299.295 206.46 299.295 206.46C299.295 206.46 323.46 237.6 330.534 238.347Z" fill="#E6E6E6"/>
<path d="M349.065 211.185C340.146 215.235 332.667 216.585 336.888 203.985C341.109 191.385 346.248 185.31 354.627 182.745C365.301 179.469 377.973 186.507 377.973 186.507C377.973 186.507 357.975 207.135 349.065 211.185Z" fill="#E6E6E6"/>
<path d="M336.96 210.33C343.764 212.346 349.128 211.923 344.052 199.764C338.976 187.605 335.592 186.084 329.769 183.753C318.969 179.442 309.969 187.182 309.969 187.182C309.969 187.182 330.147 208.314 336.96 210.33Z" fill="#E6E6E6"/>
<path d="M351.774 190.269C344.376 196.749 337.563 200.853 337.869 190.782C338.175 180.711 343.404 171.675 351.369 167.616C356.85 164.817 368.964 166.077 368.964 166.077C368.964 166.077 359.172 183.789 351.774 190.269Z" fill="#E6E6E6"/>
<path d="M332.703 188.586C337.545 192.447 341.703 194.481 340.218 186.291C338.733 178.101 335.988 175.905 331.362 173.016C327.637 170.826 323.215 170.147 319.005 171.117C319.005 171.117 327.861 184.725 332.703 188.586Z" fill="#E6E6E6"/>
<path d="M366.03 234.405H317.412L323.811 254.997H359.631L366.03 234.405Z" fill="#F0F0F0"/>
<path d="M225 384.804C321.374 384.804 399.501 380.242 399.501 374.616C399.501 368.989 321.374 364.428 225 364.428C128.626 364.428 50.499 368.989 50.499 374.616C50.499 380.242 128.626 384.804 225 384.804Z" fill="#F5F5F5"/>
<path d="M258.831 166.626L257.724 168.093C257.364 168.561 256.986 168.993 256.617 169.452C255.888 170.352 255.105 171.252 254.331 172.08C252.74 173.821 251.061 175.479 249.3 177.048C248.4 177.849 247.5 178.632 246.501 179.397C245.502 180.162 244.485 180.891 243.387 181.611C240.923 183.285 238.18 184.504 235.287 185.211L234.972 185.283C234.677 185.352 234.375 185.391 234.072 185.4C232.604 185.451 231.142 185.193 229.779 184.644C228.826 184.267 227.92 183.781 227.079 183.195C225.777 182.278 224.571 181.232 223.479 180.072C221.629 178.101 219.954 175.972 218.475 173.709C217.062 171.549 215.775 169.371 214.623 167.148C213.448 164.925 212.39 162.642 211.455 160.308C211.126 159.517 211.09 158.634 211.353 157.818C211.617 157.003 212.162 156.308 212.892 155.859C213.623 155.41 214.489 155.236 215.336 155.368C216.182 155.501 216.954 155.931 217.512 156.582L217.593 156.672L222.228 161.91C223.785 163.638 225.342 165.339 226.926 166.932C228.395 168.452 229.965 169.871 231.624 171.18C232.256 171.682 232.941 172.114 233.667 172.467C233.816 172.548 233.983 172.591 234.153 172.593C234.153 172.593 233.946 172.422 233.388 172.422L232.155 172.62C233.368 172.004 234.509 171.256 235.557 170.388C236.973 169.219 238.327 167.979 239.616 166.671C240.957 165.294 242.316 163.854 243.639 162.36L245.601 160.101L247.473 157.896L247.698 157.635C248.921 156.241 250.635 155.372 252.482 155.211C254.33 155.049 256.168 155.606 257.615 156.766C259.062 157.926 260.005 159.6 260.248 161.439C260.492 163.277 260.016 165.139 258.921 166.635L258.831 166.626Z" fill="#263238"/>
<path d="M212.823 158.058C209.349 158.598 206.046 152.964 206.046 152.964L203.445 149.868C203.023 149.363 202.792 148.726 202.792 148.068C202.792 147.41 203.023 146.773 203.445 146.268L205.686 143.658C205.929 143.376 206.227 143.145 206.56 142.979C206.894 142.812 207.257 142.714 207.629 142.69C208.001 142.666 208.374 142.716 208.727 142.837C209.079 142.959 209.404 143.149 209.682 143.397L212.661 146.097C213.193 146.575 213.616 147.161 213.903 147.816L215.064 150.516C215.549 151.636 215.707 152.87 215.519 154.076C215.331 155.282 214.805 156.41 214.002 157.329L213.786 157.581C213.524 157.839 213.187 158.006 212.823 158.058Z" fill="#FFC3BD"/>
<path d="M297.54 286.956C293.139 254.358 291.402 235.017 288.54 218.808L260.811 218.394C260.811 218.394 273.258 270.378 279.18 291.6C285.102 312.822 318.6 365.526 318.6 365.526L325.962 361.152C325.962 361.152 305.46 311.643 297.54 286.956Z" fill="#263238"/>
<path d="M313.677 373.716C313.677 373.716 319.221 366.939 319.131 364.644L325.233 361.044L328.59 367.749L325.647 369.549L324.747 369.27L324.108 370.458C321.066 372.258 316.17 375.012 313.893 375.435C313.715 375.19 313.602 374.904 313.565 374.603C313.527 374.303 313.565 373.997 313.677 373.716Z" fill="#263238"/>
<path d="M287.334 153.18C277.533 151.965 263.52 152.073 254.124 153.702C251.778 154.128 249.625 155.281 247.969 156.998C246.314 158.715 245.24 160.909 244.899 163.269C242.919 177.453 244.62 202.248 245.889 227.169C267.336 234.513 289.989 227.07 289.989 227.07C290.772 222.03 289.017 205.533 287.829 196.731C289.629 187.632 293.355 177.219 295.839 165.141C296.136 163.791 296.148 162.393 295.872 161.038C295.597 159.683 295.04 158.401 294.239 157.274C293.438 156.148 292.409 155.201 291.22 154.496C290.031 153.791 288.707 153.342 287.334 153.18Z" fill="#263238"/>
<path d="M262.062 152.748C260.737 154.282 259.906 156.18 259.677 158.193C258.669 163.953 259.812 172.836 262.845 183.015C265.752 174.816 272.007 163.962 275.859 157.662C277.659 154.674 278.946 152.703 279.063 152.523C273.462 151.215 267.626 151.292 262.062 152.748Z" fill="#219EBC"/>
<path d="M277.632 134.451L266.472 143.604C267.912 147.447 268.371 151.443 262.062 152.982C260.487 155.07 263.268 157.482 265.878 158.544C270.09 158.022 276.021 156.618 278.586 153.144C277.776 150.3 276.552 140.13 277.632 134.451Z" fill="#FFC3BD"/>
<path d="M263.214 156.231C263.678 157.571 264.474 158.773 265.527 159.723C267.228 159.723 269.721 157.806 269.721 157.806C269.721 157.806 268.758 155.106 267.408 154.557C263.952 155.403 263.214 156.231 263.214 156.231Z" fill="white"/>
<path d="M267.102 158.544C266.836 158.343 266.533 158.197 266.21 158.115C265.887 158.033 265.551 158.017 265.221 158.067C262.989 161.244 261.567 166.167 260.19 171.855C260.849 175.625 261.735 179.352 262.845 183.015C264.091 179.631 265.539 176.325 267.183 173.115C266.555 168.28 266.527 163.386 267.102 158.544Z" fill="white"/>
<path opacity="0.2" d="M272.979 138.267L266.472 143.595C266.825 144.485 267.087 145.407 267.255 146.349C269.775 146.529 273.285 143.982 273.447 141.678C273.501 140.522 273.342 139.366 272.979 138.267Z" fill="black"/>
<path d="M260.91 119.304C257.31 121.392 259.173 123.471 259.173 123.471C259.173 123.471 257.634 127.611 259.677 130.464C269.253 118.998 260.91 119.304 260.91 119.304Z" fill="#263238"/>
<path d="M279.234 128.205C278.217 135.207 277.974 139.356 274.122 142.65C268.308 147.591 259.884 143.55 258.822 136.35C257.832 129.888 259.659 119.52 266.796 117.351C268.375 116.878 270.049 116.813 271.66 117.162C273.271 117.511 274.768 118.262 276.01 119.346C277.252 120.43 278.199 121.811 278.763 123.36C279.327 124.91 279.489 126.576 279.234 128.205Z" fill="#FFC3BD"/>
<path d="M279.072 132.579C274.572 133.047 275.409 125.64 276.948 124.182C272.556 124.263 273.402 121.329 273.942 120.249C266.625 121.788 261.45 122.112 258.147 118.449C255.699 115.749 253.098 118.773 252.324 115.947C254.124 116.91 257.373 112.095 259.569 114.093C261.765 116.091 263.952 109.107 267.273 112.095C271.773 116.1 283.581 105.192 282.501 117.216C288.666 122.409 280.377 125.694 280.917 131.211C279.225 133.74 279.072 132.579 279.072 132.579Z" fill="#263238"/>
<path d="M280.134 118.71C280.025 118.71 279.921 118.67 279.838 118.599C279.756 118.528 279.701 118.431 279.684 118.323C279.669 118.205 279.701 118.086 279.773 117.991C279.846 117.897 279.953 117.835 280.071 117.819C281.528 117.434 282.802 116.548 283.671 115.317C283.931 114.952 284.106 114.532 284.182 114.089C284.259 113.647 284.235 113.193 284.112 112.761C284.082 112.646 284.097 112.522 284.156 112.418C284.215 112.314 284.312 112.237 284.427 112.203C284.483 112.187 284.542 112.182 284.6 112.188C284.658 112.195 284.715 112.213 284.766 112.241C284.817 112.27 284.862 112.308 284.898 112.354C284.934 112.4 284.961 112.453 284.976 112.509C285.131 113.065 285.163 113.648 285.068 114.217C284.973 114.786 284.754 115.328 284.427 115.803C283.418 117.263 281.905 118.298 280.179 118.71H280.134Z" fill="#263238"/>
<path d="M281.61 133.641C280.947 135.123 279.723 136.281 278.208 136.863C276.192 137.619 274.977 135.855 275.373 133.848C275.733 132.048 277.173 129.492 279.315 129.6C279.775 129.63 280.22 129.774 280.61 130.018C281.001 130.263 281.324 130.601 281.552 131.002C281.78 131.402 281.904 131.853 281.914 132.314C281.924 132.775 281.82 133.231 281.61 133.641Z" fill="#FFC3BD"/>
<path d="M268.731 128.457C268.677 129.033 268.335 129.474 267.966 129.438C267.597 129.402 267.318 128.907 267.372 128.331C267.426 127.755 267.759 127.323 268.137 127.359C268.515 127.395 268.776 127.89 268.731 128.457Z" fill="#263238"/>
<path d="M261.9 128.295C261.846 128.871 261.504 129.303 261.135 129.267C260.766 129.231 260.487 128.745 260.541 128.169C260.595 127.593 260.928 127.161 261.306 127.188C261.684 127.215 261.9 127.719 261.9 128.295Z" fill="#263238"/>
<path d="M263.934 129.06C263.108 130.751 262.047 132.318 260.784 133.713C261.151 134.03 261.583 134.264 262.049 134.398C262.515 134.531 263.005 134.562 263.484 134.487L263.934 129.06Z" fill="#ED847E"/>
<path d="M271.071 126.738C271.127 126.752 271.186 126.752 271.242 126.738C271.325 126.704 271.392 126.639 271.427 126.556C271.462 126.474 271.464 126.381 271.431 126.297C271.242 125.793 270.937 125.341 270.539 124.978C270.142 124.615 269.664 124.351 269.145 124.209C269.102 124.2 269.057 124.199 269.014 124.207C268.971 124.216 268.929 124.232 268.893 124.257C268.856 124.281 268.824 124.312 268.799 124.349C268.775 124.386 268.758 124.427 268.749 124.47C268.73 124.558 268.747 124.65 268.796 124.726C268.845 124.802 268.922 124.856 269.01 124.875C269.421 124.992 269.799 125.204 270.112 125.495C270.425 125.786 270.664 126.147 270.81 126.549C270.835 126.599 270.872 126.642 270.918 126.675C270.963 126.708 271.016 126.73 271.071 126.738Z" fill="#263238"/>
<path d="M259.353 126.108C259.406 126.125 259.462 126.129 259.517 126.12C259.572 126.111 259.624 126.088 259.668 126.054C259.999 125.79 260.388 125.61 260.803 125.529C261.219 125.447 261.647 125.467 262.053 125.586C262.095 125.602 262.14 125.609 262.184 125.606C262.229 125.604 262.273 125.593 262.313 125.574C262.353 125.555 262.389 125.528 262.419 125.494C262.448 125.461 262.471 125.421 262.485 125.379C262.514 125.295 262.51 125.204 262.473 125.123C262.436 125.042 262.37 124.979 262.287 124.947C261.774 124.793 261.232 124.764 260.706 124.863C260.18 124.961 259.685 125.185 259.263 125.514C259.19 125.568 259.142 125.648 259.129 125.738C259.115 125.827 259.138 125.918 259.191 125.991C259.235 126.043 259.29 126.083 259.353 126.108Z" fill="#263238"/>
<path d="M279.072 152.514C278.955 152.694 277.677 154.665 275.868 157.653C274.031 159.346 271.781 160.526 269.343 161.073C269.712 159.867 268.632 155.799 267.435 154.548C271.407 154.6 275.353 153.91 279.072 152.514Z" fill="#219EBC"/>
<path opacity="0.3" d="M279.072 152.514C278.955 152.694 277.677 154.665 275.868 157.653C274.031 159.346 271.781 160.526 269.343 161.073C269.712 159.867 268.632 155.799 267.435 154.548C271.407 154.6 275.353 153.91 279.072 152.514Z" fill="white"/>
<path d="M267.408 154.557C266.118 155.12 264.956 155.939 263.992 156.965C263.028 157.99 262.283 159.201 261.801 160.524C261.302 160.308 260.855 159.988 260.489 159.586C260.123 159.185 259.846 158.71 259.677 158.193C259.906 156.179 260.737 154.282 262.062 152.748C262.71 153.576 264.492 154.395 267.408 154.557Z" fill="#219EBC"/>
<path opacity="0.3" d="M267.408 154.557C266.118 155.12 264.956 155.939 263.992 156.965C263.028 157.99 262.283 159.201 261.801 160.524C261.302 160.308 260.855 159.988 260.489 159.586C260.123 159.185 259.846 158.71 259.677 158.193C259.906 156.179 260.737 154.282 262.062 152.748C262.71 153.576 264.492 154.395 267.408 154.557Z" fill="white"/>
<path d="M294.165 157.356C295.965 159.408 297.504 161.379 299.07 163.476C300.636 165.573 302.112 167.688 303.516 169.929C304.99 172.205 306.33 174.564 307.53 176.994C308.184 178.301 308.77 179.641 309.285 181.008C309.902 182.617 310.351 184.285 310.626 185.985L310.698 186.426C310.842 187.334 310.752 188.263 310.437 189.126C309.408 191.846 307.936 194.376 306.081 196.614C305.27 197.63 304.402 198.597 303.48 199.512C302.58 200.412 301.68 201.312 300.78 202.077C298.933 203.653 296.988 205.111 294.957 206.442C292.943 207.788 290.838 208.991 288.657 210.042C287.892 210.478 286.995 210.618 286.134 210.437C285.273 210.255 284.508 209.765 283.984 209.058C283.46 208.351 283.213 207.477 283.289 206.6C283.366 205.724 283.761 204.905 284.4 204.3L284.562 204.129C285.957 202.617 287.496 200.988 288.882 199.395C290.268 197.802 291.654 196.182 292.887 194.544C294.093 192.998 295.188 191.368 296.163 189.666C296.978 188.284 297.584 186.789 297.963 185.229L297.774 188.334C297.522 187.61 297.222 186.903 296.874 186.219C296.433 185.373 295.974 184.419 295.38 183.519C294.786 182.619 294.219 181.656 293.58 180.72C292.941 179.784 292.302 178.83 291.627 177.885C290.268 176.004 288.864 174.096 287.415 172.215L283.095 166.644L283.005 166.527C281.833 165.05 281.287 163.172 281.485 161.296C281.682 159.421 282.608 157.698 284.063 156.498C285.518 155.297 287.385 154.716 289.264 154.878C291.143 155.041 292.884 155.934 294.111 157.365L294.165 157.356Z" fill="#263238"/>
<path d="M288 208.539C288.021 208.151 287.903 207.768 287.667 207.459L285.705 204.759C285.519 204.5 285.262 204.3 284.965 204.182C284.669 204.064 284.345 204.033 284.031 204.093L281.241 204.615C278.536 205.129 275.973 206.219 273.726 207.81L272.988 208.332C272.684 208.547 272.426 208.821 272.229 209.138C272.033 209.454 271.901 209.807 271.842 210.175C271.784 210.543 271.799 210.919 271.888 211.281C271.976 211.643 272.136 211.984 272.358 212.283L274.401 215.046C274.795 215.58 275.367 215.956 276.013 216.108C276.659 216.26 277.338 216.177 277.929 215.874L281.529 214.02C281.529 214.02 287.793 212.049 288 208.539Z" fill="#FFC3BD"/>
<path d="M286.461 203.157C285.153 202.985 283.827 203.013 282.528 203.238C281.727 205.299 285.129 211.5 286.875 212.58C287.991 212.319 290.529 210.141 290.529 210.141C289.035 208.152 287.487 204.678 286.461 203.157Z" fill="#219EBC"/>
<path d="M217.602 156.6C217.631 155.283 217.458 153.969 217.089 152.703C214.956 152.136 209.169 156.195 208.287 158.049C208.665 159.129 211.113 161.415 211.113 161.415C212.931 159.705 216.207 157.779 217.602 156.6Z" fill="#219EBC"/>
<path d="M318.276 365.994L326.592 361.359L324.693 356.211L315.45 362.475L318.276 365.994Z" fill="#219EBC"/>
<path d="M270.297 289.89C272.277 257.004 276.075 234.99 274.491 218.79L246.798 218.376C246.798 218.376 249.606 270.576 251.298 292.284C252.99 313.992 262.35 367.668 262.35 367.668H270.918C270.918 367.668 273.303 315.342 270.297 289.89Z" fill="#263238"/>
<path d="M248.454 372.222C248.454 372.222 262.377 369.216 263.259 367.2H270.36L270.585 374.688H264.798L264.096 374.004L263.016 374.688C259.479 374.688 250.2 374.553 247.95 373.788C247.883 373.506 247.894 373.211 247.983 372.935C248.072 372.659 248.235 372.412 248.454 372.222Z" fill="#263238"/>
<path d="M261.918 367.929L271.458 368.19L271.899 362.79L260.829 363.456L261.918 367.929Z" fill="#219EBC"/>
<path d="M266.13 136.548C265.763 136.56 265.396 136.542 265.032 136.494C265.007 136.49 264.983 136.48 264.962 136.467C264.941 136.453 264.924 136.435 264.91 136.413C264.896 136.392 264.887 136.368 264.884 136.344C264.88 136.319 264.881 136.293 264.888 136.269C264.897 136.218 264.925 136.172 264.967 136.142C265.009 136.112 265.062 136.099 265.113 136.107C265.935 136.225 266.773 136.158 267.565 135.91C268.358 135.662 269.085 135.241 269.694 134.676C269.708 134.652 269.728 134.631 269.752 134.615C269.775 134.6 269.802 134.589 269.83 134.585C269.858 134.581 269.886 134.584 269.913 134.592C269.94 134.601 269.965 134.615 269.985 134.634C270.006 134.654 270.022 134.677 270.032 134.704C270.043 134.73 270.047 134.758 270.045 134.786C270.043 134.814 270.035 134.842 270.02 134.866C270.006 134.891 269.987 134.912 269.964 134.928C268.93 135.923 267.564 136.5 266.13 136.548Z" fill="#263238"/>
<path d="M321.066 279.693H313.614V280.593H321.066V279.693Z" fill="#219EBC"/>
<path d="M343.323 279.693H326.583V280.593H343.323V279.693Z" fill="#219EBC"/>
<path d="M348.768 243.225H244.368L227.538 274.32C227.369 274.634 227.284 274.986 227.291 275.342C227.298 275.698 227.397 276.046 227.578 276.353C227.759 276.66 228.016 276.915 228.324 277.093C228.633 277.271 228.982 277.367 229.338 277.371H348.768L357.3 260.271L348.768 243.225Z" fill="#219EBC"/>
<path d="M231.723 92.556C249.768 94.2144 266.617 102.299 279.201 115.338C291.785 128.376 299.267 145.501 300.285 163.593C300.301 163.937 300.402 164.271 300.58 164.566C300.758 164.86 301.007 165.105 301.304 165.279C301.601 165.452 301.937 165.549 302.281 165.559C302.625 165.57 302.966 165.494 303.273 165.339L315.954 159.039C316.426 158.795 316.949 158.668 317.48 158.668C318.01 158.668 318.534 158.795 319.005 159.039L331.452 165.258C331.775 165.42 332.134 165.495 332.495 165.475C332.856 165.455 333.205 165.341 333.508 165.145C333.811 164.948 334.057 164.676 334.222 164.355C334.387 164.034 334.465 163.675 334.449 163.314C333.327 136.168 322.174 110.403 303.15 91.0059C284.125 71.6089 258.581 59.9591 231.462 58.311L223.029 75.177L231.723 92.556Z" fill="#219EBC"/>
<path opacity="0.6" d="M231.723 92.556C249.768 94.2144 266.617 102.299 279.201 115.338C291.785 128.376 299.267 145.501 300.285 163.593C300.301 163.937 300.402 164.271 300.58 164.566C300.758 164.86 301.007 165.105 301.304 165.279C301.601 165.452 301.937 165.549 302.281 165.559C302.625 165.57 302.966 165.494 303.273 165.339L315.954 159.039C316.426 158.795 316.949 158.668 317.48 158.668C318.01 158.668 318.534 158.795 319.005 159.039L331.452 165.258C331.775 165.42 332.134 165.495 332.495 165.475C332.856 165.455 333.205 165.341 333.508 165.145C333.811 164.948 334.057 164.676 334.222 164.355C334.387 164.034 334.465 163.675 334.449 163.314C333.327 136.168 322.174 110.403 303.15 91.0059C284.125 71.6089 258.581 59.9591 231.462 58.311L223.029 75.177L231.723 92.556Z" fill="white"/>
<path d="M149.715 160.929C151.374 142.883 159.459 126.033 172.5 113.448C185.54 100.864 202.667 93.3826 220.761 92.3671C221.103 92.3478 221.435 92.2439 221.727 92.0647C222.019 91.8856 222.262 91.6368 222.434 91.3407C222.606 91.0445 222.702 90.7103 222.713 90.368C222.724 90.0256 222.65 89.6858 222.498 89.3791L216.153 76.6981C215.917 76.2224 215.795 75.6988 215.795 75.1681C215.795 74.6373 215.917 74.1137 216.153 73.6381L222.381 61.2001C222.541 60.8764 222.613 60.5167 222.592 60.1564C222.57 59.796 222.455 59.4475 222.258 59.1451C222.061 58.8427 221.789 58.5968 221.468 58.4316C221.147 58.2665 220.789 58.1877 220.428 58.2031C193.296 59.3473 167.55 70.5056 148.164 89.5228C128.777 108.54 117.126 134.067 115.461 161.172L132.3 169.605L149.715 160.929Z" fill="#219EBC"/>
<path opacity="0.4" d="M149.715 160.929C151.374 142.883 159.459 126.033 172.5 113.448C185.54 100.864 202.667 93.3826 220.761 92.3671C221.103 92.3478 221.435 92.2439 221.727 92.0647C222.019 91.8856 222.262 91.6368 222.434 91.3407C222.606 91.0445 222.702 90.7103 222.713 90.368C222.724 90.0256 222.65 89.6858 222.498 89.3791L216.153 76.6981C215.917 76.2224 215.795 75.6988 215.795 75.1681C215.795 74.6373 215.917 74.1137 216.153 73.6381L222.381 61.2001C222.541 60.8764 222.613 60.5167 222.592 60.1564C222.57 59.796 222.455 59.4475 222.258 59.1451C222.061 58.8427 221.789 58.5968 221.468 58.4316C221.147 58.2665 220.789 58.1877 220.428 58.2031C193.296 59.3473 167.55 70.5056 148.164 89.5228C128.777 108.54 117.126 134.067 115.461 161.172L132.3 169.605L149.715 160.929Z" fill="white"/>
<path d="M218.088 242.928C200.043 241.272 183.193 233.189 170.607 220.153C158.022 207.116 150.537 189.992 149.517 171.9C149.501 171.557 149.399 171.224 149.222 170.931C149.044 170.638 148.796 170.393 148.5 170.22C148.205 170.047 147.87 169.95 147.528 169.938C147.185 169.927 146.845 170.001 146.538 170.154L133.866 176.454C133.389 176.695 132.862 176.822 132.327 176.823C131.798 176.82 131.277 176.694 130.806 176.454L118.35 170.235C118.027 170.076 117.668 170.003 117.309 170.024C116.949 170.045 116.601 170.159 116.299 170.355C115.997 170.551 115.751 170.822 115.585 171.142C115.419 171.462 115.339 171.819 115.353 172.179C116.419 198.725 127.122 223.973 145.458 243.198H92.7L101.34 260.487L93.0059 277.2H218.34L226.8 260.307L218.088 242.928Z" fill="#219EBC"/>
<path opacity="0.2" d="M218.088 242.928C200.043 241.272 183.193 233.189 170.607 220.153C158.022 207.116 150.537 189.992 149.517 171.9C149.501 171.557 149.399 171.224 149.222 170.931C149.044 170.638 148.796 170.393 148.5 170.22C148.205 170.047 147.87 169.95 147.528 169.938C147.185 169.927 146.845 170.001 146.538 170.154L133.866 176.454C133.389 176.695 132.862 176.822 132.327 176.823C131.798 176.82 131.277 176.694 130.806 176.454L118.35 170.235C118.027 170.076 117.668 170.003 117.309 170.024C116.949 170.045 116.601 170.159 116.299 170.355C115.997 170.551 115.751 170.822 115.585 171.142C115.419 171.462 115.339 171.819 115.353 172.179C116.419 198.725 127.122 223.973 145.458 243.198H92.7L101.34 260.487L93.0059 277.2H218.34L226.8 260.307L218.088 242.928Z" fill="white"/>
<path d="M300.096 174.546C298.436 192.589 290.35 209.436 277.312 222.018C264.274 234.6 247.15 242.081 229.059 243.099C228.716 243.117 228.383 243.22 228.09 243.398C227.797 243.577 227.553 243.825 227.38 244.122C227.207 244.418 227.11 244.753 227.098 245.096C227.086 245.439 227.16 245.779 227.313 246.087L233.613 258.768C233.849 259.242 233.971 259.764 233.971 260.293C233.971 260.823 233.849 261.345 233.613 261.819L227.394 274.266C227.232 274.589 227.157 274.948 227.177 275.309C227.197 275.669 227.311 276.018 227.507 276.321C227.704 276.624 227.976 276.871 228.297 277.036C228.618 277.201 228.977 277.279 229.338 277.263C256.481 276.141 282.244 264.991 301.64 245.97C321.037 226.95 332.689 201.41 334.341 174.294L317.475 165.861L300.096 174.546Z" fill="#219EBC"/>
<path opacity="0.8" d="M300.096 174.546C298.436 192.589 290.35 209.436 277.312 222.018C264.274 234.6 247.15 242.081 229.059 243.099C228.716 243.117 228.383 243.22 228.09 243.398C227.797 243.577 227.553 243.825 227.38 244.122C227.207 244.418 227.11 244.753 227.098 245.096C227.086 245.439 227.16 245.779 227.313 246.087L233.613 258.768C233.849 259.242 233.971 259.764 233.971 260.293C233.971 260.823 233.849 261.345 233.613 261.819L227.394 274.266C227.232 274.589 227.157 274.948 227.177 275.309C227.197 275.669 227.311 276.018 227.507 276.321C227.704 276.624 227.976 276.871 228.297 277.036C228.618 277.201 228.977 277.279 229.338 277.263C256.481 276.141 282.244 264.991 301.64 245.97C321.037 226.95 332.689 201.41 334.341 174.294L317.475 165.861L300.096 174.546Z" fill="white"/>
<path d="M224.145 165.915L219.222 151.83L211.734 152.523C209.958 149.898 207.839 147.522 205.434 145.458L206.973 138.096L193.5 131.616L188.694 137.403C185.577 136.799 182.392 136.617 179.226 136.863L175.113 130.563L161.028 135.486L161.721 142.974C159.096 144.75 156.72 146.869 154.656 149.274L147.285 147.735L140.805 161.181L146.601 165.987C145.997 169.104 145.815 172.289 146.061 175.455L139.761 179.568L144.684 193.653L152.163 192.96C153.94 195.587 156.059 197.966 158.463 200.034L156.924 207.396L170.37 213.876L175.176 208.08C178.29 208.684 181.472 208.866 184.635 208.62L188.757 214.92L202.842 209.997L202.149 202.518C204.771 200.738 207.147 198.62 209.214 196.218L216.576 197.757L223.056 184.311L217.269 179.514C217.873 176.397 218.055 173.212 217.809 170.046L224.145 165.915ZM187.389 188.271C184.321 189.344 181.003 189.483 177.856 188.671C174.708 187.858 171.873 186.13 169.707 183.706C167.542 181.282 166.144 178.27 165.691 175.051C165.237 171.832 165.748 168.552 167.16 165.623C168.571 162.695 170.819 160.251 173.619 158.601C176.419 156.95 179.646 156.167 182.891 156.35C186.137 156.534 189.255 157.676 191.851 159.631C194.448 161.587 196.406 164.268 197.478 167.337C198.913 171.451 198.657 175.966 196.765 179.892C194.873 183.817 191.501 186.83 187.389 188.271Z" fill="#219EBC"/>
<path d="M133.29 174.816C132.867 175.482 132.39 176.355 131.859 177.138C131.328 177.921 130.905 178.776 130.446 179.613C129.546 181.278 128.646 182.97 127.8 184.689C126.104 188.119 124.602 191.64 123.3 195.237C122.733 196.659 123.3 195.813 122.643 194.922C122.337 194.553 122.139 194.562 122.247 194.625C122.448 194.738 122.667 194.814 122.895 194.85C124.569 195.127 126.272 195.188 127.962 195.03C131.697 194.805 135.648 194.238 139.482 193.617H139.5C139.991 193.535 140.494 193.637 140.915 193.904C141.335 194.171 141.641 194.583 141.775 195.062C141.909 195.542 141.861 196.054 141.641 196.5C141.42 196.946 141.042 197.294 140.58 197.478C136.746 199.077 132.768 200.304 128.7 201.141C127.656 201.339 126.585 201.51 125.46 201.618C124.263 201.742 123.057 201.742 121.86 201.618C121.092 201.537 120.337 201.365 119.61 201.105C118.504 200.713 117.538 200.006 116.829 199.071C116.398 198.479 116.091 197.806 115.929 197.091C115.788 196.469 115.745 195.828 115.803 195.192C115.847 194.711 115.938 194.235 116.073 193.77L116.289 193.014C117.404 188.997 118.824 185.071 120.537 181.269C121.383 179.37 122.337 177.498 123.318 175.671C123.822 174.753 124.344 173.853 124.884 172.971C125.442 172.071 125.964 171.216 126.684 170.271C127.304 169.437 128.221 168.874 129.246 168.697C130.27 168.52 131.323 168.744 132.186 169.323C133.05 169.901 133.659 170.789 133.886 171.803C134.113 172.817 133.941 173.88 133.407 174.771L133.29 174.816Z" fill="#7F3E3B"/>
<path d="M148.581 197.685L146.7 199.242C146.354 199.534 145.942 199.737 145.5 199.836C145.058 199.935 144.599 199.926 144.162 199.809L140.013 198.72C139.197 198.503 138.444 198.094 137.818 197.528C137.192 196.961 136.71 196.253 136.413 195.462L136.044 194.472C138.978 191.673 144.207 190.8 144.207 190.8L145.674 190.395C145.972 190.301 146.286 190.267 146.598 190.295C146.91 190.324 147.212 190.414 147.489 190.56C147.765 190.707 148.01 190.907 148.208 191.149C148.406 191.391 148.555 191.67 148.644 191.97L149.544 194.859C149.679 195.373 149.66 195.915 149.489 196.417C149.317 196.92 149.002 197.361 148.581 197.685Z" fill="#7F3E3B"/>
<path d="M138.483 144.963C139.779 149.742 141.363 158.463 138.258 161.685C138.258 161.685 135.873 166.185 149.958 165.438C159.858 164.934 153.099 161.685 153.099 161.685C147.699 160.407 147.519 156.456 148.176 152.748L138.483 144.963Z" fill="#7F3E3B"/>
<path d="M117.711 344.835L108.576 341.469C107.775 348.525 104.913 359.298 104.913 359.298L111.321 361.998C111.321 361.998 115.587 349.128 117.711 344.835Z" fill="#7F3E3B"/>
<path d="M112.815 372.6C107.928 369 108.315 369.198 105.615 367.092C103.32 365.292 102.564 365.175 100.701 363.744C99.1439 362.556 100.197 361.044 101.835 359.532C102.456 358.965 103.239 358.335 104.13 357.516C104.38 357.288 104.702 357.154 105.041 357.138C105.379 357.122 105.713 357.223 105.984 357.426L111.708 361.611C111.917 361.767 112.087 361.969 112.204 362.202C112.321 362.434 112.383 362.691 112.383 362.952C112.413 364.341 112.725 365.709 113.301 366.973C113.876 368.237 114.703 369.371 115.731 370.305C118.161 372.6 114.768 374.031 112.815 372.6Z" fill="#263238"/>
<path d="M157.284 212.4C157.284 212.4 147.663 261.945 140.184 285.03C132.354 309.33 120.906 336.267 115.713 352.062C114.102 352.269 109.503 350.352 107.253 348.462C107.253 348.462 110.682 307.062 122.418 285.642C121.248 223.146 133.128 212.4 133.128 212.4H157.284Z" fill="#219EBC"/>
<path opacity="0.3" d="M157.284 212.4C157.284 212.4 147.663 261.945 140.184 285.03C132.354 309.33 120.906 336.267 115.713 352.062C114.102 352.269 109.503 350.352 107.253 348.462C107.253 348.462 110.682 307.062 122.418 285.642C121.248 223.146 133.128 212.4 133.128 212.4H157.284Z" fill="black"/>
<path opacity="0.2" d="M139.41 230.94L149.31 249.84C147.042 259.74 144.522 270.063 142.11 278.451C134.937 258.3 139.41 230.94 139.41 230.94Z" fill="black"/>
<path d="M117.693 349.083C117.388 350.162 117.171 351.264 117.045 352.377C117.035 352.472 117.004 352.564 116.954 352.645C116.904 352.726 116.836 352.795 116.756 352.846C116.675 352.898 116.584 352.93 116.489 352.94C116.394 352.951 116.298 352.94 116.208 352.908C112.698 352.008 108.108 349.308 106.605 348.408C106.471 348.33 106.362 348.214 106.292 348.075C106.222 347.936 106.193 347.78 106.209 347.625L106.614 344.457C106.631 344.361 106.67 344.269 106.728 344.19C106.786 344.111 106.861 344.047 106.948 344.001C107.036 343.956 107.132 343.931 107.23 343.929C107.328 343.927 107.425 343.948 107.514 343.989L117.162 348.165C117.345 348.231 117.499 348.359 117.596 348.527C117.693 348.695 117.728 348.892 117.693 349.083Z" fill="#263238"/>
<path d="M165.285 349.074L156.51 349.722C157.95 356.724 159.453 367.776 159.453 367.776H166.419C166.419 367.776 165.177 353.871 165.285 349.074Z" fill="#7F3E3B"/>
<path d="M173.79 374.688C167.733 374.688 168.165 374.598 164.79 374.481C161.874 374.382 161.19 374.742 158.832 374.688C156.879 374.688 156.951 372.78 157.563 370.62C157.788 369.792 158.121 368.82 158.463 367.641C158.552 367.306 158.75 367.01 159.025 366.798C159.3 366.586 159.637 366.472 159.984 366.471H167.076C167.33 366.468 167.581 366.527 167.805 366.645C168.03 366.763 168.222 366.935 168.363 367.146C169.134 368.255 170.137 369.183 171.303 369.865C172.468 370.548 173.769 370.968 175.113 371.097C178.335 371.538 176.211 374.688 173.79 374.688Z" fill="#263238"/>
<path d="M164.754 212.4C164.754 212.4 165.852 255.6 166.833 282.465C167.814 309.33 165.708 356.877 165.708 356.877C165.51 358.182 158.661 357.66 157.5 356.877C157.5 356.877 144.405 318.357 149.4 285.03C131.868 241.83 136.926 213.462 136.926 213.462L164.754 212.4Z" fill="#219EBC"/>
<path opacity="0.3" d="M164.754 212.4C164.754 212.4 165.852 255.6 166.833 282.465C167.814 309.33 165.708 356.877 165.708 356.877C165.51 358.182 158.661 357.66 157.5 356.877C157.5 356.877 144.405 318.357 149.4 285.03C131.868 241.83 136.926 213.462 136.926 213.462L164.754 212.4Z" fill="black"/>
<path d="M166.644 353.223C166.644 354.123 166.725 355.698 166.806 356.823C166.816 357.01 166.755 357.194 166.635 357.338C166.515 357.482 166.344 357.575 166.158 357.597C163.14 357.845 160.106 357.812 157.095 357.498C156.95 357.486 156.813 357.427 156.706 357.329C156.598 357.232 156.526 357.101 156.501 356.958L155.889 353.781C155.865 353.675 155.865 353.564 155.889 353.458C155.913 353.351 155.96 353.251 156.027 353.165C156.094 353.079 156.179 353.009 156.277 352.96C156.375 352.911 156.482 352.884 156.591 352.881L165.942 352.503C166.037 352.498 166.132 352.513 166.221 352.547C166.31 352.582 166.39 352.635 166.457 352.703C166.524 352.771 166.575 352.853 166.607 352.943C166.639 353.032 166.652 353.128 166.644 353.223Z" fill="#263238"/>
<path d="M134.82 204.822C134.671 207.349 134.371 209.864 133.92 212.355H164.43L164.754 204.588C164.754 204.588 141.21 203.256 134.82 204.822Z" fill="#7F3E3B"/>
<path d="M167.688 173.106C167.871 177.798 167.799 182.497 167.472 187.182C167.22 193.302 168.372 194.796 167.472 204.822C164.124 206.775 142.101 206.703 131.274 205.299C131.931 196.632 132.732 190.791 126.864 171.288C125.505 166.788 128.538 162.423 133.389 161.955C134.685 161.838 136.089 161.73 137.466 161.667C142.413 161.334 147.378 161.334 152.325 161.667C153.936 161.802 155.61 162 157.212 162.207C162.954 162.963 167.508 167.688 167.688 173.106Z" fill="#263238"/>
<path d="M212.256 195.831L211.041 193.716C210.812 193.326 210.493 192.995 210.112 192.751C209.73 192.507 209.296 192.357 208.845 192.312L204.579 191.907C203.74 191.828 202.894 191.95 202.111 192.263C201.329 192.576 200.632 193.071 200.079 193.707L199.386 194.517C201.186 198.117 205.794 200.817 205.794 200.817L207.027 201.717C207.275 201.908 207.558 202.047 207.86 202.127C208.161 202.208 208.476 202.228 208.786 202.186C209.095 202.144 209.393 202.041 209.663 201.884C209.933 201.726 210.169 201.517 210.357 201.267L212.157 198.846C212.472 198.411 212.649 197.891 212.667 197.354C212.684 196.817 212.541 196.287 212.256 195.831Z" fill="#7F3E3B"/>
<path d="M170.469 175.293L170.865 175.905C171.036 176.166 171.198 176.436 171.396 176.706C171.774 177.246 172.197 177.777 172.629 178.308C173.524 179.382 174.473 180.409 175.473 181.386C176.49 182.367 177.561 183.321 178.686 184.23C179.811 185.139 180.99 186.03 182.187 186.822L181.485 186.498C183.144 187.099 184.832 187.616 186.543 188.046C188.343 188.505 190.143 188.946 191.943 189.396L197.46 190.71C199.305 191.16 201.159 191.61 202.995 192.051C203.479 192.165 203.904 192.454 204.188 192.862C204.471 193.27 204.595 193.769 204.533 194.262C204.472 194.756 204.23 195.209 203.855 195.535C203.48 195.861 202.997 196.037 202.5 196.029C200.547 196.029 198.63 195.939 196.704 195.849C194.778 195.759 192.852 195.588 190.917 195.408C188.982 195.228 187.056 194.994 185.112 194.688C183.075 194.404 181.06 193.98 179.082 193.419C178.9 193.367 178.725 193.295 178.56 193.203L178.371 193.095C177.642 192.672 176.904 192.267 176.175 191.835C175.446 191.403 174.726 190.935 174.033 190.44C172.608 189.475 171.249 188.417 169.965 187.272C168.65 186.114 167.422 184.859 166.293 183.519C165.726 182.835 165.177 182.133 164.655 181.377C164.394 181.008 164.133 180.612 163.89 180.207C163.764 180 163.647 179.802 163.521 179.568C163.395 179.334 163.296 179.172 163.107 178.776C162.651 177.848 162.569 176.781 162.877 175.794C163.186 174.807 163.862 173.976 164.765 173.474C165.669 172.971 166.731 172.835 167.732 173.093C168.733 173.351 169.597 173.984 170.145 174.861L170.469 175.293Z" fill="#7F3E3B"/>
<path d="M158.544 162.648C164.484 164.223 169.578 169.317 176.544 179.37C175.572 183.474 166.644 188.217 166.644 188.217C166.644 188.217 148.05 169.695 158.544 162.648Z" fill="#263238"/>
<path d="M154.035 136.089C154.251 136.71 154.764 137.115 155.169 136.989C155.574 136.863 155.718 136.278 155.493 135.657C155.268 135.036 154.764 134.622 154.359 134.757C153.954 134.892 153.81 135.468 154.035 136.089Z" fill="#263238"/>
<path d="M154.197 134.838L155.52 133.992C155.52 133.992 155.178 135.369 154.197 134.838Z" fill="#263238"/>
<path d="M154.503 137.25C155.557 138.511 156.767 139.633 158.103 140.589C157.863 140.907 157.553 141.165 157.197 141.345C156.841 141.524 156.449 141.62 156.051 141.624L154.503 137.25Z" fill="#630F0F"/>
<path d="M153.09 130.932C153.136 130.924 153.18 130.906 153.219 130.88C153.257 130.853 153.29 130.819 153.315 130.779C153.364 130.691 153.376 130.586 153.349 130.489C153.322 130.391 153.258 130.308 153.171 130.257C152.648 129.924 152.056 129.714 151.44 129.644C150.824 129.574 150.2 129.645 149.616 129.852C149.571 129.872 149.531 129.901 149.498 129.938C149.465 129.974 149.44 130.017 149.425 130.064C149.41 130.11 149.404 130.16 149.409 130.209C149.414 130.257 149.429 130.305 149.454 130.347C149.502 130.438 149.582 130.507 149.678 130.542C149.775 130.577 149.881 130.575 149.976 130.536C150.44 130.378 150.934 130.327 151.42 130.388C151.907 130.449 152.373 130.619 152.784 130.887C152.876 130.941 152.986 130.957 153.09 130.932Z" fill="#263238"/>
<path d="M132.714 139.608C135.684 146.88 136.782 150.012 141.84 152.757C149.445 156.879 157.77 152.172 157.041 144.288C156.393 137.196 151.641 126.504 143.343 125.595C141.567 125.342 139.756 125.569 138.097 126.251C136.438 126.933 134.991 128.047 133.907 129.476C132.823 130.905 132.141 132.598 131.931 134.38C131.721 136.161 131.992 137.966 132.714 139.608Z" fill="#7F3E3B"/>
<path d="M149.598 139.437C152.037 144.783 151.722 159.939 138.105 155.241C124.488 150.543 125.442 143.154 129.105 137.241C121.716 130.626 131.265 125.379 140.04 122.994C148.815 120.609 156.519 122.751 149.598 139.437Z" fill="#263238"/>
<path d="M136.26 138.969C136.497 140.096 136.394 141.267 135.964 142.335C135.534 143.403 134.797 144.319 133.846 144.968C132.895 145.617 131.773 145.968 130.622 145.979C129.471 145.989 128.343 145.657 127.38 145.026C126.418 144.394 125.665 143.491 125.216 142.431C124.767 141.371 124.643 140.202 124.86 139.071C125.076 137.941 125.624 136.9 126.432 136.081C127.241 135.261 128.274 134.701 129.402 134.469C130.907 134.165 132.472 134.467 133.756 135.31C135.04 136.153 135.94 137.467 136.26 138.969Z" fill="#219EBC"/>
<path d="M131.985 148.392C134.685 142.992 132.489 136.278 128.304 131.94C120.384 123.723 109.404 129.123 112.464 137.25C116.064 146.943 97.0919 156.906 108.153 162.648C118.953 168.273 136.953 158.355 131.895 148.59C131.922 148.5 131.958 148.5 131.985 148.392Z" fill="#263238"/>
<path d="M146.574 139.833C146.964 140.482 147.486 141.042 148.106 141.476C148.726 141.91 149.431 142.209 150.174 142.353C151.974 142.641 152.568 140.553 151.767 138.537C151.038 136.737 149.211 134.442 147.51 135.072C145.809 135.702 145.494 138.123 146.574 139.833Z" fill="#7F3E3B"/>
<path d="M133.056 162C127.728 162.819 125.595 164.439 121.248 175.14C123.219 179.127 132.462 182.952 132.462 182.952C132.462 182.952 138.6 169.128 133.056 162Z" fill="#263238"/>
<path d="M164.808 214.695C153.893 215.9 142.877 215.876 131.967 214.623C131.853 214.605 131.745 214.562 131.651 214.496C131.557 214.429 131.48 214.343 131.425 214.241C131.37 214.14 131.339 214.028 131.335 213.913C131.331 213.798 131.353 213.684 131.4 213.579C131.67 212.949 131.931 212.319 132.192 211.689C132.249 211.551 132.349 211.434 132.477 211.356C132.604 211.279 132.754 211.244 132.903 211.257C143.395 212.414 153.983 212.414 164.475 211.257C164.568 211.25 164.662 211.261 164.751 211.29C164.841 211.319 164.923 211.365 164.994 211.427C165.065 211.488 165.123 211.562 165.166 211.646C165.208 211.729 165.233 211.821 165.24 211.914C165.303 212.571 165.375 213.219 165.438 213.876C165.461 214.068 165.408 214.261 165.29 214.414C165.172 214.567 164.999 214.668 164.808 214.695Z" fill="#263238"/>
</svg>
