<svg width="480" height="450" viewBox="0 0 480 450" fill="none" xmlns="http://www.w3.org/2000/svg">
<path d="M266.804 415.854C250.284 408.51 243.701 391.05 241.373 374.787C240.98 372.087 240.156 369.279 241.095 366.687C242.034 364.095 244.928 361.98 247.707 362.709C250.016 363.312 251.367 365.49 252.91 367.209C254.962 369.528 257.673 371.251 260.729 372.177C262.722 372.78 265.089 372.969 266.727 371.745C268.969 370.062 268.644 366.804 268.184 364.122C267.245 359.148 266.325 354.174 265.424 349.2C264.775 346.546 264.584 343.811 264.859 341.1C265.28 338.4 266.823 335.7 269.41 334.584C271.997 333.468 275.629 334.377 276.673 336.915C276.981 338.006 277.212 339.116 277.363 340.236C277.641 341.343 278.417 342.486 279.596 342.621C280.774 342.756 281.8 341.811 282.518 340.884C284.971 337.707 286.351 333.9 287.597 330.129C288.843 326.358 290.012 322.515 292.158 319.131C294.304 315.747 297.581 312.831 301.635 311.931C305.688 311.031 310.479 312.741 312.175 316.35C313.871 319.959 312.232 324.18 310.259 327.654C307.261 332.798 303.488 337.509 299.057 341.64C298.173 342.301 297.536 343.209 297.237 344.232C296.939 346.122 299.067 347.616 301.069 347.904C303.312 348.228 305.592 347.652 307.863 347.544C310.134 347.436 312.712 347.976 313.919 349.821C315.577 352.377 313.651 355.644 311.59 357.921C307.453 362.457 302.516 366.293 296.997 369.261C295.023 370.314 292.925 371.304 291.478 372.96C290.031 374.616 289.446 377.19 290.807 378.918C292.168 380.646 294.918 380.835 297.045 380.097C299.172 379.359 300.945 377.928 302.909 376.857C306.589 374.841 311.705 374.283 314.8 377.073C315.766 378.048 316.477 379.221 316.878 380.499C317.278 381.776 317.358 383.124 317.11 384.435C316.6 387.047 315.534 389.536 313.976 391.752C309.014 399.764 301.879 406.397 293.298 410.976C284.722 415.386 276.424 417.537 266.813 415.863" fill="#F5F5F5"/>
<path d="M269.42 405C270.69 395.737 272.527 386.551 274.92 377.487L276.76 370.35C277.363 368.001 277.967 365.679 278.676 363.447C280.109 359.163 281.791 354.957 283.716 350.847C285.527 346.905 287.396 343.215 289.168 339.786C290.941 336.357 292.675 333.189 294.381 330.372C297.043 325.904 300.081 321.642 303.465 317.628C304.663 316.206 305.63 315.135 306.292 314.415C306.608 314.073 306.866 313.803 307.049 313.596C307.231 313.389 307.317 313.326 307.326 313.335C307.257 313.439 307.18 313.538 307.096 313.632L306.368 314.478C305.736 315.216 304.797 316.278 303.628 317.745C300.318 321.799 297.336 326.08 294.707 330.552C293.03 333.378 291.324 336.546 289.561 339.975C287.798 343.404 285.958 347.094 284.166 351.036C282.258 355.146 280.595 359.352 279.184 363.636C278.446 365.859 277.852 368.136 277.267 370.512L275.428 377.658C273.04 386.704 271.194 395.868 269.899 405.108" fill="#E0E0E0"/>
<path d="M278.839 363.411C278.631 363.061 278.467 362.689 278.35 362.304C278.063 361.593 277.689 360.504 277.248 359.235C276.367 356.625 275.274 352.98 274.086 348.966C272.898 344.952 271.758 341.325 270.828 338.742C270.368 337.446 269.985 336.393 269.717 335.682C269.556 335.312 269.431 334.93 269.343 334.539C269.574 334.875 269.764 335.234 269.908 335.61C270.244 336.303 270.675 337.338 271.183 338.616C272.208 341.19 273.406 344.799 274.604 348.831C275.801 352.863 276.807 356.391 277.612 359.127C277.986 360.369 278.293 361.413 278.571 362.25C278.696 362.629 278.786 363.017 278.839 363.411Z" fill="#E0E0E0"/>
<path d="M314.436 351.117C313.973 351.298 313.492 351.434 312.999 351.522C312.041 351.747 310.728 352.071 309.08 352.521C305.774 353.421 301.261 354.753 296.345 356.463C291.43 358.173 287.051 359.91 283.888 361.242C282.317 361.899 281.062 362.466 280.19 362.853C279.752 363.077 279.293 363.264 278.82 363.411C279.216 363.124 279.643 362.877 280.094 362.673C280.937 362.232 282.173 361.62 283.726 360.873C286.821 359.451 291.19 357.66 296.115 355.941C300.319 354.464 304.601 353.193 308.946 352.134C310.613 351.72 311.974 351.45 312.922 351.279C313.42 351.181 313.927 351.127 314.436 351.117Z" fill="#E0E0E0"/>
<path d="M269.755 404.307C269.632 404.189 269.523 404.059 269.429 403.92L268.576 402.777C267.839 401.769 266.813 400.302 265.577 398.466C263.086 394.794 259.828 389.619 256.311 383.859C252.795 378.099 249.604 372.906 247.18 369.198L244.305 364.797L243.538 363.6C243.437 363.467 243.356 363.322 243.299 363.168C243.299 363.168 243.423 363.285 243.625 363.546C243.826 363.807 244.142 364.23 244.477 364.698C245.215 365.697 246.241 367.164 247.486 369.009C249.968 372.681 253.235 377.847 256.752 383.607C260.269 389.367 263.46 394.56 265.874 398.277L268.749 402.669C269.055 403.146 269.314 403.569 269.515 403.866C269.618 404.001 269.699 404.15 269.755 404.307Z" fill="#E0E0E0"/>
<path d="M315.922 381.762C315.787 381.873 315.635 381.964 315.471 382.032L314.139 382.698L309.195 385.119C305.017 387.171 299.287 390.06 292.963 393.219C286.639 396.378 280.88 399.267 276.673 401.229C274.565 402.21 272.841 403.029 271.652 403.506L270.215 404.1C270.057 404.178 269.89 404.239 269.717 404.28C269.854 404.172 270.005 404.081 270.167 404.01L271.509 403.344L276.453 400.914C280.621 398.871 286.351 395.982 292.675 392.814C299 389.646 304.768 386.775 308.965 384.813C311.073 383.832 312.798 383.013 313.986 382.536L315.366 381.942C315.54 381.855 315.728 381.795 315.922 381.762Z" fill="#E0E0E0"/>
<path d="M146.989 222.669C146.989 222.669 135.606 224.154 141.997 247.572C148.388 270.99 153.812 283.068 153.812 283.068C153.812 283.068 154.665 288.369 150.113 288.207C145.562 288.045 136.277 284.607 133.124 289.188C129.866 293.976 132.722 299.736 139.832 305.775C146.941 311.814 162.1 325.575 163.461 326.826C164.822 328.077 165.818 330.651 162.694 331.002C159.571 331.353 137.417 328.914 136.823 338.859C136.229 348.804 159.063 362.556 161.525 364.104C163.988 365.652 164.4 366.858 163.825 368.208C163.25 369.558 155.91 368.073 149.577 367.614C143.243 367.155 135.807 367.686 135.97 373.446C136.133 379.206 148.13 393.786 183.104 404.622L199.672 408.645L211.908 397.323C236.534 371.592 239.227 353.349 236.323 348.273C233.42 343.197 226.741 346.212 221.433 349.56C216.124 352.908 210.566 357.66 209.378 356.76C208.19 355.86 207.884 354.618 209.206 352.125C210.528 349.632 223.071 327.042 217.284 318.69C211.496 310.338 193.558 322.776 190.684 323.919C187.809 325.062 187.292 322.344 187.809 320.652C188.326 318.96 194.172 299.952 197.18 291.357C200.189 282.762 199.614 276.444 194.248 273.816C189.074 271.287 182.855 278.631 178.984 280.899C175.113 283.167 173.062 278.199 173.062 278.199C173.062 278.199 171.376 265.194 164.534 241.884C157.693 218.574 146.779 222.75 146.779 222.75" fill="#EBEBEB"/>
<path d="M199.662 412.515C194.708 395.415 186.439 364.815 179.204 338.544C171.97 312.273 165.396 288.585 160.529 271.431C158.095 262.863 156.121 255.933 154.78 251.118C154.109 248.733 153.582 246.87 153.218 245.592L152.815 244.152C152.729 243.828 152.7 243.657 152.7 243.657C152.7 243.657 152.767 243.81 152.873 244.134C152.978 244.458 153.122 244.953 153.313 245.565C153.706 246.843 154.272 248.688 154.981 251.064C156.418 255.843 158.449 262.764 160.922 271.332C165.876 288.432 172.516 312.201 179.75 338.418C186.985 364.635 195.187 395.262 200.055 412.416" fill="#E0E0E0"/>
<path d="M145.906 294.534C146.289 294.682 146.655 294.866 146.999 295.083C147.679 295.461 148.657 296.037 149.873 296.757C152.259 298.206 155.508 300.285 159.044 302.634L168.07 308.682L170.82 310.482C171.167 310.685 171.488 310.923 171.778 311.193C171.392 311.046 171.022 310.862 170.676 310.644C169.996 310.266 169.018 309.69 167.802 308.961C165.435 307.494 162.215 305.361 158.679 303.021L149.605 297.036L146.846 295.236C146.507 295.034 146.192 294.799 145.906 294.534Z" fill="#E0E0E0"/>
<path d="M173.168 310.446C173.043 310.374 177.307 303.903 182.683 295.992C188.058 288.081 192.533 281.727 192.658 281.799C192.782 281.871 188.518 288.351 183.133 296.262C177.748 304.173 173.292 310.5 173.168 310.446Z" fill="#E0E0E0"/>
<path d="M182.347 351.198C182.612 350.887 182.918 350.609 183.257 350.37L185.835 348.246C188.01 346.446 191.009 343.962 194.21 341.1C197.41 338.238 200.227 335.565 202.24 333.612C203.198 332.712 203.984 331.911 204.626 331.299C204.916 330.997 205.237 330.723 205.584 330.48C205.372 330.824 205.114 331.142 204.817 331.425C204.3 332.01 203.524 332.838 202.546 333.846C200.63 335.871 197.832 338.598 194.612 341.46C191.393 344.322 188.365 346.788 186.123 348.516C184.992 349.416 184.072 350.064 183.42 350.523C183.09 350.785 182.73 351.011 182.347 351.198Z" fill="#E0E0E0"/>
<path d="M154.32 341.901C154.706 341.945 155.086 342.032 155.45 342.162L158.488 343.062C161.037 343.827 164.553 344.916 168.424 346.14C172.296 347.364 175.793 348.516 178.313 349.371L181.293 350.397C181.664 350.506 182.021 350.654 182.357 350.838C181.97 350.801 181.59 350.717 181.226 350.586L178.189 349.686C175.64 348.921 172.123 347.832 168.252 346.599C164.381 345.366 160.883 344.223 158.363 343.377L155.383 342.342C155.009 342.241 154.651 342.092 154.32 341.901Z" fill="#E0E0E0"/>
<path d="M157.558 378.846C158.051 378.915 158.536 379.03 159.005 379.188L162.896 380.304C166.173 381.267 170.686 382.626 175.669 384.165C180.651 385.704 185.145 387.108 188.394 388.161L192.226 389.421C192.703 389.564 193.168 389.742 193.616 389.952C193.119 389.883 192.632 389.769 192.159 389.61L188.269 388.494C184.992 387.531 180.479 386.172 175.496 384.633C170.513 383.094 166.019 381.681 162.781 380.637L158.948 379.368C158.469 379.234 158.004 379.059 157.558 378.846Z" fill="#E0E0E0"/>
<path d="M192.83 389.457C193.167 389.068 193.543 388.709 193.951 388.386L197.123 385.587C199.796 383.22 203.476 379.935 207.433 376.2C211.391 372.465 214.888 369 217.399 366.48L220.369 363.492C220.719 363.11 221.1 362.755 221.509 362.43C221.23 362.853 220.909 363.251 220.551 363.618C219.899 364.365 218.922 365.418 217.676 366.714C215.233 369.306 211.783 372.816 207.807 376.551C203.83 380.286 200.141 383.544 197.382 385.848C196.002 386.991 194.881 387.918 194.085 388.548C193.695 388.883 193.275 389.187 192.83 389.457Z" fill="#E0E0E0"/>
<path d="M97.5457 83.016L88.1936 80.316C88.1936 80.316 85.7406 87.696 77.5383 85.437C75.9503 85.0263 74.5376 84.1621 73.4956 82.9641C72.4535 81.7661 71.8337 80.2934 71.722 78.75C71.5992 77.4484 71.809 76.1382 72.334 74.9281C72.859 73.7181 73.684 72.6432 74.7403 71.793C77.1454 69.795 81.3615 68.58 87.312 71.469L93.8949 51.669L84.6482 48.969L80.8154 60.57C80.8154 60.57 66.7872 59.913 62.3315 73.332C58.0675 86.175 69.336 92.754 74.587 94.293C78.5732 95.463 92.5726 98.559 97.5457 83.016Z" fill="#F5F5F5"/>
<path d="M85.9007 44.8481L95.2856 47.5986L98.02 39.368L88.6351 36.6175L85.9007 44.8481Z" fill="#F5F5F5"/>
<path d="M123.35 60.6601L127.097 59.7601C126.983 59.3605 126.955 58.9433 127.016 58.5334C127.076 58.1235 127.224 57.7293 127.45 57.3741C127.676 57.019 127.976 56.7102 128.332 56.4661C128.688 56.2219 129.092 56.0475 129.521 55.9531C130.145 55.7761 130.813 55.7858 131.431 55.9809C132.049 56.1761 132.587 56.5469 132.971 57.0421C133.296 57.4533 133.514 57.931 133.606 58.4362C133.697 58.9414 133.66 59.4598 133.498 59.9491C133.143 61.0921 132.003 62.3341 129.358 62.5411L131.591 70.4701L135.29 69.5701L133.986 64.9261C135.389 64.1315 136.474 62.9256 137.075 61.4944C137.676 60.0631 137.759 58.486 137.311 57.0061C135.874 51.8581 130.604 51.8851 128.525 52.3981C126.915 52.7491 121.539 54.4681 123.35 60.6601Z" fill="#EBEBEB"/>
<path d="M136.594 70.7262L132.821 71.6763L133.765 74.9849L137.539 74.0349L136.594 70.7262Z" fill="#EBEBEB"/>
<path d="M432.67 151.749L436.311 152.982C436.464 152.595 436.697 152.24 436.998 151.939C437.299 151.638 437.661 151.396 438.063 151.229C438.465 151.061 438.898 150.97 439.338 150.962C439.777 150.954 440.214 151.029 440.623 151.182C441.236 151.367 441.773 151.726 442.161 152.21C442.549 152.693 442.768 153.277 442.788 153.882C442.811 154.398 442.703 154.912 442.473 155.381C442.243 155.851 441.898 156.262 441.466 156.582C440.508 157.329 438.793 157.734 436.493 156.492L433.513 164.205L437.116 165.429L438.86 160.929C440.495 161.024 442.119 160.612 443.481 159.757C444.843 158.902 445.869 157.651 446.401 156.195C448.317 151.191 443.996 148.41 441.955 147.717C440.393 147.141 434.931 145.692 432.67 151.749Z" fill="#EBEBEB"/>
<path d="M436.577 166.993L432.919 165.748L431.682 168.955L435.34 170.2L436.577 166.993Z" fill="#EBEBEB"/>
<path d="M46.2432 190.917L53.9088 188.127C53.9088 188.127 51.4175 182.052 58.0962 179.505C59.3744 178.997 60.789 178.874 62.1448 179.153C63.5006 179.432 64.7309 180.099 65.6661 181.062C66.4617 181.863 67.0448 182.829 67.3678 183.882C67.6908 184.934 67.7447 186.043 67.525 187.119C67.0459 189.621 64.9378 192.519 59.3898 193.518L66.0973 209.835L73.7629 207.081L69.8343 197.523C69.8343 197.523 79.4164 191.061 74.9224 179.991C70.5625 169.407 59.409 170.613 55.1258 172.17C51.82 173.367 40.858 178.2 46.2432 190.917Z" fill="#F5F5F5"/>
<path d="M75.2153 210.402L67.481 213.201L70.2644 219.987L77.9987 217.188L75.2153 210.402Z" fill="#F5F5F5"/>
<path d="M435.669 218.376L430.207 220.347C430.207 220.347 431.97 224.658 427.237 226.458C426.33 226.814 425.329 226.899 424.37 226.703C423.41 226.506 422.537 226.038 421.871 225.36C421.307 224.792 420.894 224.108 420.666 223.361C420.438 222.615 420.401 221.829 420.558 221.067C420.903 219.267 422.398 217.251 426.307 216.567L421.612 204.966L416.208 206.919L418.986 213.696C417.02 215.109 415.602 217.09 414.951 219.334C414.3 221.578 414.452 223.961 415.384 226.116C418.459 233.613 426.336 232.767 429.402 231.66C431.721 230.805 439.483 227.385 435.669 218.376Z" fill="#F5F5F5"/>
<path d="M415.139 204.568L420.62 202.585L418.649 197.781L413.168 199.764L415.139 204.568Z" fill="#F5F5F5"/>
<path d="M451.096 417.393C451.096 417.528 356.377 417.627 239.562 417.627C122.747 417.627 28.0085 417.528 28.0085 417.393C28.0085 417.258 122.708 417.159 239.562 417.159C356.415 417.159 451.096 417.267 451.096 417.393Z" fill="#263238"/>
<path d="M88.7684 394.02C89.7266 390.708 87.3598 387.387 84.7727 385.02C82.1855 382.653 79.0905 380.475 77.7394 377.298C75.5547 372.15 78.4868 365.49 74.769 361.197C72.5747 358.677 68.646 357.831 66.7008 355.131C65.8015 353.643 65.2067 352.01 64.9473 350.316C62.8797 341.765 58.4018 333.894 51.9828 327.528C51.55 335.144 53.3075 342.729 57.0708 349.488C58.5752 352.188 60.4342 354.816 60.9037 357.831C61.7182 362.718 58.8052 367.731 60.0892 372.555C61.5553 378.045 68.119 381.726 68.4256 387.378C68.6939 392.157 64.2574 396.378 64.5928 401.13C64.8615 403.165 65.6469 405.109 66.8829 406.8C70.8116 412.947 76.5991 417.177 85.3572 417.042L96.0891 417.393L88.7684 394.02Z" fill="#FB8500"/>
<g opacity="0.3">
<path opacity="0.3" d="M88.7684 394.02C89.7266 390.708 87.3598 387.387 84.7727 385.02C82.1855 382.653 79.0905 380.475 77.7394 377.298C75.5547 372.15 78.4868 365.49 74.769 361.197C72.5747 358.677 68.646 357.831 66.7008 355.131C65.8015 353.643 65.2067 352.01 64.9473 350.316C62.8797 341.765 58.4018 333.894 51.9828 327.528C51.55 335.144 53.3075 342.729 57.0708 349.488C58.5752 352.188 60.4342 354.816 60.9037 357.831C61.7182 362.718 58.8052 367.731 60.0892 372.555C61.5553 378.045 68.119 381.726 68.4256 387.378C68.6939 392.157 64.2574 396.378 64.5928 401.13C64.8615 403.165 65.6469 405.109 66.8829 406.8C70.8116 412.947 76.5991 417.177 85.3572 417.042L96.0891 417.393L88.7684 394.02Z" fill="black"/>
</g>
<path d="M98.2546 417.6C99.2375 417.743 100.239 417.724 101.216 417.546C102.401 417.377 103.566 417.1 104.694 416.718C106.252 416.209 107.709 415.461 109.006 414.504C109.786 413.915 110.396 413.15 110.778 412.281C111.099 411.307 111.267 410.295 111.277 409.275C111.298 408.185 111.385 407.098 111.535 406.017C111.737 404.867 112.18 403.766 112.839 402.777C114.103 400.689 116.211 398.709 116.882 395.874C117.553 393.039 117.093 390.069 116.595 387.045C116.097 384.021 115.637 380.745 116.844 377.577C118.051 374.409 120.351 371.574 121.53 368.028C122.708 364.482 122.152 360.576 122.402 356.769C122.475 354.835 122.95 352.934 123.8 351.171C124.663 349.371 125.87 347.706 126.809 345.834C128.726 342.036 129.051 337.734 129.569 333.513C129.828 331.389 130.077 329.238 130.335 327.078C130.499 324.894 130.9 322.732 131.533 320.625C132.26 318.501 133.118 316.419 134.101 314.388C134.608 313.338 135.024 312.252 135.347 311.139C135.527 309.988 135.643 308.828 135.692 307.665C135.806 305.337 135.71 303.003 135.404 300.69C135.117 298.368 134.667 296.064 134.398 293.733C134.398 293.589 134.398 293.454 134.398 293.328L134.341 292.869L133.91 293.067C131.644 294.159 129.677 295.727 128.16 297.648C126.673 299.53 125.476 301.599 124.605 303.795C122.814 308.124 122.172 312.66 121.271 316.989C120.37 321.318 119.22 325.575 116.863 329.175C115.684 330.975 114.257 332.613 113.03 334.359C111.698 336.063 110.788 338.025 110.366 340.101C109.724 344.367 112.225 348.111 111.708 351.891C111.474 353.743 110.821 355.526 109.791 357.12C108.833 358.731 107.674 360.225 106.581 361.719C105.474 363.185 104.512 364.742 103.707 366.372C102.949 367.968 102.501 369.678 102.385 371.421C102.126 374.823 102.634 378.045 102.385 381.087C102.085 383.987 101.184 386.803 99.7303 389.376C98.4367 391.851 96.9898 394.092 95.7825 396.27C95.1788 397.35 94.6135 398.412 94.1535 399.483C93.7183 400.511 93.3972 401.579 93.1953 402.669C92.8746 404.573 92.8488 406.51 93.1186 408.42C93.4002 411.084 94.4615 413.623 96.1849 415.755C96.4484 416.077 96.7401 416.378 97.0569 416.655C97.2685 416.864 97.503 417.051 97.7564 417.213C98.1588 417.492 98.3696 417.618 98.3696 417.618C97.6036 417.049 96.9063 416.404 96.2903 415.692C94.6452 413.552 93.6514 411.032 93.4157 408.402C93.1717 406.516 93.2169 404.606 93.5498 402.732C93.7516 401.668 94.0728 400.627 94.508 399.627C94.9936 398.544 95.5405 397.487 96.1466 396.459C97.3635 394.299 98.82 392.067 100.142 389.574C101.639 386.96 102.57 384.094 102.883 381.141C103.17 378.036 102.672 374.796 102.94 371.484C103.064 369.797 103.502 368.142 104.234 366.597C105.044 365.001 106.006 363.477 107.108 362.043C108.201 360.549 109.36 359.055 110.357 357.408C111.451 355.753 112.15 353.896 112.407 351.963C112.925 347.94 110.443 344.178 111.085 340.209C111.505 338.224 112.385 336.349 113.663 334.719C114.88 333 116.317 331.362 117.495 329.517C119.939 325.818 121.118 321.48 122.009 317.133C122.9 312.786 123.561 308.286 125.324 304.038C126.172 301.903 127.337 299.891 128.783 298.062C130.242 296.218 132.134 294.715 134.312 293.67L133.823 293.409C133.823 293.544 133.823 293.679 133.871 293.823C134.14 296.181 134.59 298.485 134.829 300.789C135.132 303.066 135.225 305.364 135.107 307.656C135.059 308.783 134.95 309.906 134.782 311.022C134.472 312.099 134.068 313.149 133.574 314.163C132.585 316.215 131.722 318.319 130.987 320.463C130.348 322.603 129.944 324.798 129.78 327.015C129.531 329.184 129.272 331.335 129.023 333.459C128.505 337.698 128.17 341.928 126.34 345.591C125.382 347.391 124.232 349.11 123.341 350.946C122.464 352.775 121.975 354.747 121.903 356.751C121.664 360.639 122.2 364.446 121.079 367.884C119.958 371.322 117.63 374.184 116.451 377.433C115.272 380.682 115.704 384.12 116.221 387.135C116.739 390.15 117.256 393.12 116.566 395.793C115.876 398.466 113.902 400.464 112.618 402.606C111.941 403.637 111.489 404.785 111.286 405.981C111.142 407.074 111.065 408.174 111.056 409.275C111.058 410.269 110.903 411.258 110.596 412.209C110.241 413.034 109.671 413.761 108.939 414.324C107.676 415.28 106.255 416.034 104.732 416.556C103.619 416.959 102.467 417.261 101.292 417.456C100.574 417.579 99.8467 417.645 99.117 417.654C98.5134 417.6 98.2546 417.6 98.2546 417.6Z" fill="#263238"/>
<path d="M132.156 298.89C132.105 298.986 132.069 299.09 132.051 299.196L131.821 300.096C131.61 300.897 131.351 302.094 130.949 303.588C130.546 305.082 129.559 306.774 128.726 308.853C127.749 311.193 126.899 313.578 126.177 315.999C125.353 318.699 124.634 321.669 123.868 324.873C123.216 328.286 122.062 331.596 120.437 334.71C119.556 336.348 118.521 338.004 117.783 339.822C117.009 341.678 116.491 343.62 116.24 345.6C115.695 349.7 114.921 353.771 113.921 357.795C111.775 366.048 109.724 373.914 107.856 381.078C105.987 388.242 104.224 394.65 102.768 400.068C101.311 405.486 100.209 409.806 99.4046 412.893C99.0309 414.369 98.7338 415.53 98.523 416.385C98.4368 416.754 98.3601 417.051 98.3026 417.285C98.292 417.39 98.292 417.495 98.3026 417.6C98.3583 417.507 98.4002 417.407 98.4272 417.303C98.4943 417.06 98.5901 416.772 98.7051 416.403C98.9446 415.566 99.28 414.405 99.7112 412.938C100.574 409.878 101.791 405.531 103.295 400.176C104.799 394.821 106.553 388.341 108.517 381.222C110.481 374.103 112.475 366.183 114.64 357.921C115.634 353.886 116.388 349.803 116.901 345.69C117.146 343.758 117.648 341.862 118.396 340.047C119.153 338.247 120.121 336.636 121.003 334.98C122.919 331.695 123.676 328.167 124.433 324.99C125.19 321.813 125.861 318.807 126.646 316.125C127.432 313.443 128.256 311.049 129.08 308.979C129.904 306.909 130.815 305.199 131.207 303.651C131.6 302.103 131.782 300.951 131.955 300.123C132.019 299.751 132.076 299.451 132.127 299.223C132.156 298.998 132.175 298.89 132.156 298.89Z" fill="#263238"/>
<path d="M100.152 417.645C107.156 413.73 109.169 401.85 106.246 394.704C103.323 387.558 98.2066 381.024 97.4209 373.401C96.8077 367.542 98.8582 361.53 97.4209 355.806C95.4566 348.075 87.4268 342.09 87.5226 334.143C87.5705 329.688 90.2727 325.494 90.0523 321.039C89.7936 315.585 85.3283 311.247 82.5687 306.441C78.3334 299.07 78.0555 290.367 76.6086 282.141C75.1617 273.915 71.8176 265.041 64.0177 260.982C62.8679 267.993 60.9036 272.799 61.5168 282.294C61.7468 285.705 65.9629 292.194 66.5378 299.709C66.8828 304.209 67.1128 308.655 67.4098 313.119C67.7069 317.583 67.9943 321.903 69.652 325.971C70.9264 329.094 72.9674 331.929 73.916 335.151C75.6887 341.208 73.3507 347.751 74.788 353.907C76.0049 359.109 79.8378 363.582 80.6235 368.856C81.7159 376.263 76.6182 383.967 79.2245 391.032C80.5277 394.542 83.594 397.332 84.4659 400.977C85.1463 403.785 84.4084 406.764 85.0217 409.581C85.9799 414.135 95.2362 417.681 100.171 417.384" fill="#FB8500"/>
<path d="M65.9344 267.903C65.9213 268.035 65.9213 268.167 65.9344 268.299C65.9344 268.596 66.0302 268.974 66.0877 269.451C66.2506 270.468 66.4326 271.953 66.7968 273.879C67.1609 275.805 68.2532 277.983 69.0965 280.611C69.9397 283.239 70.8787 286.245 71.6645 289.611C72.4502 292.977 73.1401 296.73 73.8396 300.753C74.5391 304.776 75.3056 309.159 77.4329 313.353C78.3911 315.45 79.5218 317.556 80.3075 319.806C81.1126 322.109 81.6083 324.497 81.7831 326.916C82.1749 332.047 82.8626 337.155 83.8433 342.216C85.9897 352.602 88.0307 362.493 89.8896 371.502C91.7485 380.511 93.617 388.548 95.1118 395.352C96.6066 402.156 97.8331 407.592 98.6859 411.426L99.6441 415.791C99.7591 416.259 99.8454 416.628 99.922 416.916C99.9479 417.048 99.9864 417.177 100.037 417.303C100.054 417.171 100.054 417.038 100.037 416.907C99.9795 416.61 99.9124 416.241 99.8262 415.764C99.6154 414.72 99.3184 413.244 98.9447 411.372C98.1398 407.529 97.0282 402.039 95.5813 395.262C94.1344 388.485 92.4193 380.358 90.5124 371.385C88.6056 362.412 86.6796 352.485 84.5236 342.108C83.5423 337.046 82.8514 331.939 82.4539 326.808C82.2715 324.339 81.7597 321.902 80.9303 319.554C80.0775 317.268 78.9564 315.153 77.9695 313.065C75.8614 308.934 75.0948 304.623 74.3666 300.618C73.6384 296.613 72.9389 292.851 72.1052 289.467C71.2716 286.083 70.3613 283.059 69.4222 280.467C68.4832 277.875 67.4388 275.679 67.0171 273.798C66.5955 271.917 66.3943 270.405 66.1931 269.406C66.0973 268.938 66.0206 268.56 65.9631 268.263C65.9611 268.142 65.9515 268.022 65.9344 267.903Z" fill="#263238"/>
<path d="M403.856 79.8927H400.023C400.026 80.301 399.942 80.7057 399.775 81.0827C399.608 81.4597 399.362 81.8015 399.052 82.0877C398.742 82.3739 398.374 82.5987 397.97 82.7488C397.565 82.899 397.133 82.9714 396.699 82.9617C396.057 82.9833 395.424 82.8163 394.888 82.484C394.352 82.1516 393.94 81.6705 393.709 81.1077C393.507 80.639 393.426 80.1321 393.473 79.6285C393.519 79.1248 393.692 78.6386 393.977 78.2097C394.629 77.2017 396.047 76.2927 398.615 76.7157V68.6157H394.849V73.3497C393.304 73.777 391.951 74.6687 390.997 75.888C390.043 77.1074 389.542 78.5869 389.569 80.0997C389.569 85.3377 394.571 86.5527 396.718 86.5527C398.356 86.5887 403.933 86.2197 403.856 79.8927Z" fill="#FB8500"/>
<path d="M394.82 66.9778H398.644V63.6208H394.82V66.9778Z" fill="#FB8500"/>
<path d="M424.755 75.1049C424.768 74.9521 424.768 74.7986 424.755 74.6459C424.755 74.3219 424.755 73.8809 424.755 73.3139C424.755 73.0259 424.755 72.6929 424.707 72.3329C424.659 71.9729 424.602 71.5769 424.534 71.1629C424.467 70.7489 424.4 70.2629 424.324 69.7859L423.921 68.2559C423.209 65.621 422.044 63.113 420.472 60.8309C418.188 57.4512 415.11 54.6083 411.474 52.5207C407.838 50.4331 403.74 49.1565 399.496 48.7889C398.222 48.6832 396.942 48.6591 395.664 48.7169C395.022 48.7169 394.36 48.7169 393.747 48.8339L391.773 49.1129C389.065 49.5857 386.444 50.4254 383.993 51.6059C381.433 52.8778 379.081 54.4871 377.007 56.3849C374.884 58.4061 373.109 60.726 371.747 63.2609C370.281 65.8742 369.32 68.7112 368.91 71.6399C368.791 72.3819 368.723 73.1305 368.709 73.8809C368.645 74.6323 368.629 75.3866 368.661 76.1399C368.87 80.9679 370.476 85.651 373.309 89.6849V89.4059C371.977 92.5289 370.664 95.5979 369.38 98.5859L369.15 99.1349L369.754 98.9729L380.198 96.2729L379.949 96.2189C383.467 98.7201 387.564 100.404 391.907 101.133C393.922 101.486 395.975 101.603 398.021 101.484C399.007 101.47 399.991 101.383 400.963 101.223L402.39 101.016C402.86 100.935 403.348 100.8 403.77 100.701C410.206 99.169 415.852 95.535 419.696 90.4499C421.129 88.5765 422.28 86.5262 423.116 84.3569C423.298 83.8799 423.471 83.4569 423.634 82.9889C423.797 82.5209 423.883 82.0889 423.988 81.6839C424.094 81.2789 424.209 80.8649 424.305 80.4869C424.4 80.1089 424.429 79.7399 424.487 79.3889C424.573 78.6959 424.707 78.0839 424.736 77.5889C424.764 77.0939 424.736 76.6169 424.736 76.2389C424.736 75.8609 424.736 75.6269 424.736 75.4199C424.736 75.2129 424.736 75.1409 424.736 75.1409C424.721 75.2334 424.721 75.3274 424.736 75.4199C424.736 75.6269 424.736 75.8969 424.669 76.2389C424.602 76.5809 424.611 77.0579 424.573 77.5799C424.534 78.1019 424.391 78.7139 424.276 79.3799C423.362 84.361 420.928 88.9857 417.269 92.6923C413.61 96.3989 408.884 99.0278 403.665 100.26C403.214 100.359 402.764 100.485 402.304 100.566L400.895 100.764C399.945 100.913 398.984 100.994 398.021 101.007C396.013 101.106 393.999 100.982 392.022 100.638C387.781 99.9047 383.781 98.2496 380.342 95.8049L380.227 95.7149H380.083L369.629 98.4149L369.993 98.8019L373.931 89.6309L373.989 89.4869L373.903 89.3519C372.016 86.6706 370.677 83.6826 369.955 80.5409C369.624 79.0833 369.425 77.602 369.361 76.1129C369.329 75.3776 369.345 74.6413 369.409 73.9079C369.415 73.1754 369.479 72.4444 369.6 71.7209C369.968 68.8609 370.873 66.0849 372.274 63.5219C373.605 61.0446 375.334 58.7741 377.4 56.7899C379.429 54.9268 381.734 53.3477 384.242 52.1009C386.638 50.93 389.205 50.0961 391.86 49.6259L393.776 49.3469C394.418 49.2569 395.06 49.2659 395.692 49.2209C396.941 49.1651 398.193 49.1861 399.439 49.2839C403.613 49.6271 407.649 50.8591 411.24 52.8864C414.831 54.9137 417.884 57.6829 420.165 60.9839C421.746 63.2262 422.931 65.6941 423.672 68.2919L424.103 69.8039C424.19 70.2809 424.266 70.7039 424.343 71.1539C424.419 71.6039 424.477 71.9639 424.544 72.3239C424.611 72.6839 424.592 73.0079 424.621 73.2959C424.621 73.8539 424.697 74.2949 424.726 74.6189C424.708 74.7813 424.718 74.9454 424.755 75.1049Z" fill="#263238"/>
<path d="M139.007 181.242H194.344C194.344 181.242 194.344 137.601 242.628 136.827C267.704 136.413 280.707 151.848 285.997 163.665C292.129 177.39 290.27 193.032 282.049 205.767C272.668 220.302 252.45 234.909 215.156 228.735L214.802 344.538H269.525V275.886C269.525 275.886 346.268 257.256 346.268 177.786C346.268 101.781 280.832 85.3651 245.656 84.3031C226.089 83.7181 218.999 82.9261 194.794 86.1571C163.949 90.2971 138.356 123.939 139.007 181.242Z" fill="#FB8500"/>
<path d="M270.186 368.676H214.648V417.393H270.186V368.676Z" fill="#FB8500"/>
<path opacity="0.1" d="M270.186 368.676H214.648V417.393H270.186V368.676Z" fill="black"/>
<path opacity="0.1" d="M139.007 181.242H194.344C194.344 181.242 194.344 137.601 242.628 136.827C267.704 136.413 280.707 151.848 285.997 163.665C292.129 177.39 290.27 193.032 282.049 205.767C272.668 220.302 252.45 234.909 215.156 228.735L214.802 344.538H269.525V275.886C269.525 275.886 346.268 257.256 346.268 177.786C346.268 101.781 280.832 85.3651 245.656 84.3031C226.089 83.7181 218.999 82.9261 194.794 86.1571C163.949 90.2971 138.356 123.939 139.007 181.242Z" fill="black"/>
<path d="M116.077 181.242H171.424C171.424 181.242 171.424 137.601 219.708 136.827C244.784 136.413 257.787 151.848 263.067 163.665C269.209 177.39 267.35 193.032 259.128 205.767C249.748 220.302 229.175 233.514 191.881 227.367V344.538H246.605V275.886C246.605 275.886 323.348 257.256 323.348 177.786C323.348 101.781 250.773 84.1321 219.717 84.1321C195.963 84.1591 115.033 89.5501 116.077 181.242Z" fill="#FB8500"/>
<path opacity="0.3" d="M116.077 181.242H171.424C171.424 181.242 171.424 137.601 219.708 136.827C244.784 136.413 257.787 151.848 263.067 163.665C269.209 177.39 267.35 193.032 259.128 205.767C249.748 220.302 229.175 233.514 191.881 227.367V344.538H246.605V275.886C246.605 275.886 323.348 257.256 323.348 177.786C323.348 101.781 250.773 84.1321 219.717 84.1321C195.963 84.1591 115.033 89.5501 116.077 181.242Z" fill="black"/>
<path d="M247.266 368.676H191.728V417.393H247.266V368.676Z" fill="#FB8500"/>
<path opacity="0.3" d="M247.266 368.676H191.728V417.393H247.266V368.676Z" fill="black"/>
<path d="M225.955 137.061C225.681 137.083 225.405 137.083 225.131 137.061C224.585 137.061 223.799 136.89 222.774 136.881C219.875 136.747 216.969 136.862 214.093 137.223C209.827 137.73 205.629 138.656 201.569 139.986C199.175 140.772 196.844 141.716 194.593 142.812C192.16 143.954 189.868 145.346 187.761 146.961C185.668 148.591 183.792 150.452 182.175 152.505C180.641 154.403 179.243 156.393 177.987 158.463C175.892 161.989 174.23 165.727 173.033 169.605C172.222 172.222 171.664 174.903 171.366 177.615C171.251 178.569 171.222 179.325 171.194 179.829C171.194 180.089 171.169 180.348 171.117 180.603C171.092 180.346 171.092 180.086 171.117 179.829C171.117 179.316 171.117 178.56 171.203 177.597C171.424 174.856 171.934 172.143 172.727 169.497C173.879 165.574 175.519 161.792 177.614 158.229C178.871 156.136 180.277 154.125 181.82 152.208C183.451 150.122 185.35 148.233 187.474 146.583C189.607 144.945 191.927 143.536 194.392 142.38C196.657 141.264 199.004 140.302 201.416 139.5C205.513 138.175 209.75 137.27 214.054 136.8C216.95 136.466 219.874 136.402 222.784 136.611C223.574 136.658 224.361 136.749 225.141 136.881C225.416 136.923 225.689 136.983 225.955 137.061Z" fill="#263238"/>
<path d="M309.339 127.8C309.339 127.8 309.271 127.737 309.156 127.602C309.041 127.467 308.869 127.233 308.677 126.972L306.847 124.542C306.454 124.02 306.033 123.417 305.534 122.796L303.81 120.825L301.836 118.548C301.117 117.756 300.274 116.991 299.431 116.154C298.587 115.317 297.725 114.426 296.748 113.571C295.77 112.716 294.726 111.843 293.653 110.943C293.116 110.493 292.589 110.043 292.014 109.566L290.232 108.243C289.015 107.343 287.808 106.443 286.495 105.543C280.773 101.698 274.703 98.3311 268.356 95.4811L263.306 93.3391L258.295 91.5391C256.656 90.9001 254.989 90.4501 253.379 89.9461C251.769 89.4421 250.198 88.9291 248.588 88.5781L244.008 87.4531C242.523 87.0841 241.047 86.8591 239.638 86.5531C238.23 86.2471 236.869 85.9771 235.537 85.8241L231.704 85.3021C229.28 84.9151 227.057 84.8341 225.122 84.6541C224.163 84.5821 223.205 84.4831 222.41 84.4471L220.129 84.3931L216.967 84.2941H216.143H215.865C215.957 84.2806 216.051 84.2806 216.143 84.2941H216.967H220.129H222.419C223.253 84.2941 224.163 84.4021 225.141 84.4651C227.057 84.6181 229.318 84.6811 231.743 85.0501L235.576 85.5361C236.908 85.6801 238.268 86.0041 239.686 86.2471C241.104 86.4901 242.561 86.7421 244.084 87.1471L248.684 88.2631C250.275 88.6051 251.846 89.1631 253.475 89.6221C255.104 90.0811 256.762 90.5221 258.4 91.2061L263.44 93.0061L268.519 95.1571C274.9 98.0135 280.993 101.405 286.725 105.291C288.047 106.191 289.254 107.154 290.471 108.045L292.254 109.26C292.829 109.71 293.356 110.16 293.892 110.646L296.978 113.346C297.936 114.246 298.798 115.146 299.651 115.965C300.504 116.784 301.318 117.585 302.037 118.386L303.953 120.681L305.659 122.679C306.148 123.309 306.56 123.921 306.943 124.479C307.69 125.532 308.275 126.36 308.687 126.954L309.137 127.611C309.213 127.666 309.28 127.729 309.339 127.8Z" fill="#263238"/>
<path d="M303.57 239.4C303.456 239.595 303.318 239.776 303.158 239.94L301.836 241.407C301.29 242.064 300.6 242.847 299.747 243.72C298.894 244.593 297.984 245.619 296.872 246.681C295.761 247.743 294.573 248.931 293.222 250.128C291.87 251.325 290.404 252.585 288.843 253.899C281.992 259.515 274.482 264.38 266.459 268.398C264.6 269.298 262.846 270.198 261.15 270.891C259.454 271.584 257.873 272.295 256.417 272.871C254.96 273.447 253.619 273.924 252.45 274.347C251.281 274.77 250.255 275.112 249.412 275.364L247.496 275.949C247.273 276.032 247.042 276.093 246.806 276.129C247.013 276.018 247.231 275.928 247.457 275.859L249.374 275.193C250.208 274.914 251.214 274.554 252.373 274.104C253.533 273.654 254.874 273.204 256.311 272.565C257.749 271.926 259.339 271.323 260.997 270.54C262.655 269.757 264.427 268.929 266.277 268.02C269.928 266.13 273.866 263.916 277.842 261.36C281.819 258.804 285.393 256.113 288.574 253.575C290.136 252.279 291.631 251.064 292.963 249.84C294.295 248.616 295.54 247.509 296.642 246.447C297.744 245.385 298.712 244.404 299.575 243.54C300.437 242.676 301.146 241.92 301.721 241.29L303.062 239.859C303.218 239.694 303.388 239.54 303.57 239.4Z" fill="#263238"/>
<path d="M245.637 340.452C245.493 340.452 245.378 325.998 245.378 308.169C245.378 290.34 245.493 275.877 245.637 275.877C245.781 275.877 245.886 290.331 245.886 308.169C245.886 326.007 245.771 340.452 245.637 340.452Z" fill="#263238"/>
<path d="M247.745 414.09C247.601 414.09 247.496 403.947 247.496 391.437C247.496 378.927 247.601 368.775 247.745 368.775C247.889 368.775 247.994 378.918 247.994 391.437C247.994 403.956 247.879 414.09 247.745 414.09Z" fill="#263238"/>
<path d="M302.219 174.339C301.261 176.139 304.835 177.615 306.895 178.2C308.997 178.684 311.172 178.824 313.325 178.614C316.199 178.47 319.141 178.218 321.623 176.886C323.796 175.621 325.533 173.792 326.625 171.621C327.701 169.456 328.551 167.198 329.164 164.88C329.164 164.88 306.521 166.266 302.219 174.339Z" fill="#FB8500"/>
<g opacity="0.4">
<path opacity="0.4" d="M302.219 174.339C301.261 176.139 304.835 177.615 306.895 178.2C308.997 178.684 311.172 178.824 313.325 178.614C316.199 178.47 319.141 178.218 321.623 176.886C323.796 175.621 325.533 173.792 326.625 171.621C327.701 169.456 328.551 167.198 329.164 164.88C329.164 164.88 306.521 166.266 302.219 174.339Z" fill="black"/>
</g>
<path d="M366.17 168.579C369.903 171.066 374.376 172.382 378.953 172.341C381.146 172.456 383.309 171.816 385.037 170.541C385.775 169.902 386.331 169.092 387.088 168.48C387.605 168.066 388.209 167.751 388.697 167.31C388.955 167.101 389.154 166.836 389.276 166.537C389.398 166.239 389.44 165.917 389.397 165.6C389.208 164.818 388.742 164.12 388.075 163.62C385.478 162.234 382.373 162.288 379.384 162.351C376.392 162.472 373.436 163.015 370.616 163.962C368.297 164.7 365.873 165.762 364.694 167.742" fill="#FB8500"/>
<g opacity="0.4">
<path opacity="0.4" d="M389.397 165.6C389.058 164.841 388.462 164.208 387.701 163.8C385.104 162.414 382.373 162.288 379.384 162.351C376.392 162.472 373.436 163.016 370.616 163.962C368.297 164.7 365.873 165.762 364.694 167.742L366.17 168.579C369.903 171.066 374.376 172.382 378.953 172.341C381.146 172.456 383.309 171.816 385.037 170.541C385.775 169.902 386.331 169.092 387.088 168.48C387.605 168.066 388.209 167.751 388.697 167.31C388.955 167.101 389.154 166.836 389.276 166.537C389.398 166.239 389.44 165.917 389.397 165.6Z" fill="black"/>
</g>
<path d="M321.958 200.88L369.725 201.474C369.822 201.473 369.918 201.452 370.005 201.411C370.091 201.369 370.167 201.31 370.224 201.236C370.282 201.163 370.321 201.077 370.337 200.987C370.354 200.897 370.347 200.805 370.319 200.718L364.713 184.302C364.713 184.302 365.537 176.094 366.678 166.23C368.412 151.245 370.721 132.408 370.75 132.462C367.483 123.858 348.203 122.4 348.203 122.4L326.232 123.624L325.465 122.409L319.141 125.172C317.762 125.774 316.435 126.479 315.174 127.278C310.996 129.897 300.935 135.918 299.095 142.623C294.85 158.148 302.037 175.473 302.037 175.473L306.656 172.08C307.819 171.238 309.042 170.471 310.316 169.785L319.572 193.086C319.021 193.412 318.555 193.849 318.207 194.366C317.859 194.883 317.638 195.466 317.56 196.074C317.483 197.964 318.518 200.232 321.958 200.88Z" fill="#FB8500"/>
<g opacity="0.3">
<path opacity="0.3" d="M342.454 173.412C343.968 165.762 343.173 157.896 342.359 150.156C339.714 156.456 339.81 163.656 337.002 169.902C336.658 170.561 336.407 171.26 336.255 171.981C336.182 172.343 336.201 172.716 336.311 173.069C336.421 173.423 336.618 173.747 336.887 174.015C337.654 174.672 338.804 174.312 339.819 174.204C340.729 174.041 341.613 173.775 342.454 173.412Z" fill="black"/>
</g>
<g opacity="0.4">
<path opacity="0.4" d="M324.833 191.124C328.666 192.375 332.747 190.044 336.801 189.63C339.484 189.36 342.167 189.936 344.83 190.341C350.217 191.159 355.697 191.286 361.12 190.719C361.952 190.676 362.767 190.477 363.516 190.134C363.903 189.886 364.219 189.553 364.438 189.164C364.657 188.775 364.771 188.342 364.771 187.902C355.744 187.002 346.728 186.516 337.701 185.643C335.455 185.283 333.154 185.353 330.936 185.85C328.215 186.642 326.145 188.649 324.229 190.638" fill="black"/>
</g>
<path d="M388.017 162.648C384.117 154.395 370.367 131.571 370.367 131.571L359.721 144.108L362.203 168.723C362.203 168.723 367.828 162.828 383.552 162.711C384.695 162.754 385.813 163.036 386.824 163.538C387.835 164.039 388.715 164.747 389.397 165.609L388.017 162.648Z" fill="#FB8500"/>
<path d="M324.095 158.283C323.335 156.533 322.733 154.727 322.293 152.883C321.698 151.086 321.262 149.247 320.99 147.384C321.739 149.136 322.338 150.942 322.782 152.784C323.377 154.58 323.816 156.419 324.095 158.283Z" fill="#263238"/>
<path d="M358.916 142.443C359.263 142.673 359.584 142.935 359.875 143.226C360.721 143.994 361.515 144.811 362.251 145.674C364.729 148.519 366.47 151.864 367.339 155.448C367.79 157.429 367.89 159.466 367.636 161.478C367.397 163.323 367.023 164.943 366.774 166.311C366.525 167.679 366.371 168.795 366.295 169.569C366.292 169.971 366.248 170.372 366.16 170.766C366.093 170.364 366.073 169.957 366.103 169.551C366.145 168.448 366.254 167.348 366.429 166.257C366.63 164.88 366.965 163.242 367.186 161.433C367.407 159.467 367.294 157.48 366.85 155.547C365.992 152.03 364.328 148.731 361.973 145.881C360.22 143.667 358.84 142.515 358.916 142.443Z" fill="#263238"/>
<path d="M349.162 198.9C348.829 199.039 348.478 199.136 348.117 199.188C347.708 199.289 347.292 199.365 346.872 199.413C346.383 199.476 345.827 199.575 345.204 199.602C343.745 199.728 342.276 199.728 340.816 199.602C339.03 199.429 337.265 199.098 335.546 198.612C333.835 198.095 332.18 197.43 330.601 196.623C329.322 195.952 328.107 195.178 326.97 194.31C326.471 193.95 326.069 193.572 325.705 193.257C325.391 192.991 325.093 192.709 324.814 192.411C324.547 192.179 324.318 191.912 324.133 191.619C324.2 191.556 325.226 192.636 327.19 194.049C328.338 194.869 329.552 195.603 330.822 196.245C332.382 197.015 334.011 197.656 335.689 198.162C337.379 198.64 339.111 198.977 340.864 199.17C342.295 199.315 343.737 199.357 345.176 199.296C347.638 199.17 349.143 198.828 349.162 198.9Z" fill="#263238"/>
<path d="M363.909 193.788C364.134 194.195 364.262 194.643 364.282 195.102C364.435 196.199 364.347 197.314 364.024 198.378C363.694 199.466 363.027 200.438 362.107 201.168C361.408 201.717 360.871 201.888 360.842 201.843C360.814 201.798 361.264 201.501 361.868 200.943C362.643 200.184 363.206 199.256 363.506 198.243C364.273 195.867 363.727 193.797 363.909 193.788Z" fill="#263238"/>
<path d="M361.312 196.956C361.52 197.881 361.437 198.844 361.073 199.726C360.708 200.608 360.079 201.372 359.261 201.924C359.156 201.825 360.047 200.934 360.603 199.557C361.159 198.18 361.168 196.965 361.312 196.956Z" fill="#263238"/>
<path d="M352.765 167.346C352.257 168.152 351.687 168.922 351.059 169.65C350.564 170.463 350.003 171.239 349.382 171.972C349.566 171.022 350.001 170.131 350.647 169.38C351.158 168.544 351.886 167.844 352.765 167.346Z" fill="#263238"/>
<path d="M319.975 145.548C319.245 145.145 318.538 144.707 317.857 144.234C314.449 142.131 310.582 140.775 306.541 140.265C305.695 140.207 304.853 140.102 304.021 139.95C304.869 139.84 305.73 139.84 306.579 139.95C310.73 140.283 314.706 141.674 318.077 143.973C318.785 144.413 319.423 144.943 319.975 145.548Z" fill="#263238"/>
<path d="M370.367 131.274C368.652 132.571 367.05 133.994 365.576 135.531C364.219 137.17 363.004 138.91 361.944 140.733C362.058 140.12 362.281 139.529 362.606 138.987C363.299 137.637 364.168 136.374 365.193 135.225C366.22 134.078 367.399 133.059 368.7 132.192C369.195 131.798 369.759 131.487 370.367 131.274Z" fill="#263238"/>
<path d="M350.647 123.858C350.734 123.988 350.805 124.127 350.858 124.272C351.045 124.68 351.195 125.101 351.308 125.532C351.712 127.136 351.712 128.806 351.308 130.41C350.712 132.804 349.347 134.969 347.399 136.611C344.939 138.568 341.806 139.617 338.583 139.563C335.358 139.573 332.215 138.604 329.624 136.8C327.559 135.319 325.884 133.413 324.727 131.229C323.948 129.766 323.399 128.205 323.098 126.594C323.011 126.16 322.953 125.721 322.926 125.28C322.899 125.125 322.899 124.967 322.926 124.812C322.926 124.812 323.031 125.442 323.3 126.558C323.672 128.123 324.262 129.636 325.053 131.058C326.222 133.177 327.882 135.022 329.911 136.458C332.408 138.195 335.428 139.14 338.535 139.158C341.641 139.212 344.665 138.215 347.054 136.35C348.936 134.768 350.271 132.693 350.887 130.392C351.313 128.839 351.372 127.217 351.059 125.64C350.877 124.452 350.59 123.876 350.647 123.858Z" fill="#263238"/>
<g opacity="0.3">
<path opacity="0.3" d="M354.001 168.939C354.001 168.489 353.924 167.958 353.502 167.733C353.369 167.669 353.221 167.636 353.071 167.636C352.921 167.636 352.774 167.669 352.64 167.733C352.372 167.869 352.134 168.052 351.94 168.273C350.814 169.374 349.943 170.682 349.382 172.116L354.077 171.729C354.049 170.82 354.029 169.866 354.001 168.939Z" fill="black"/>
</g>
<g opacity="0.3">
<path opacity="0.3" d="M369.591 159.66C369.119 157.136 367.941 154.776 366.179 152.82C368.211 159.048 367.531 162.567 366.39 166.833L366.639 166.239C367.952 163.746 369.945 162.18 369.591 159.66Z" fill="black"/>
</g>
<path d="M360.21 368.874L357.345 409.239L338.66 409.032L335.718 367.065L360.21 368.874Z" fill="#FFBE9D"/>
<path d="M357.872 403.929V405.099C357.872 405.099 378.952 413.055 379.154 416.799L337.29 416.583L337.941 403.506C344.179 406.251 350.704 406.593 357.872 403.929Z" fill="#FB8500"/>
<path d="M342.186 407.7C341.789 407.812 341.449 408.058 341.23 408.389C341.011 408.72 340.929 409.115 340.998 409.5C341.1 409.884 341.357 410.215 341.715 410.425C342.072 410.635 342.502 410.706 342.914 410.625C343.341 410.505 343.704 410.241 343.935 409.883C344.165 409.525 344.245 409.1 344.16 408.69C344.008 408.301 343.701 407.983 343.304 407.803C342.907 407.623 342.451 407.596 342.033 407.727" fill="white"/>
<path d="M337.29 416.583L337.443 413.442L377.534 414.81C377.534 414.81 379.393 415.584 379.173 416.808L337.29 416.583Z" fill="#263238"/>
<path d="M358.025 405.207C358.025 405.396 356.99 405.477 355.984 406.107C354.978 406.737 354.432 407.52 354.25 407.448C354.068 407.376 354.374 406.26 355.61 405.54C356.846 404.82 358.073 405 358.025 405.207Z" fill="#263238"/>
<path d="M362.404 406.935C362.452 407.124 361.561 407.439 360.862 408.249C360.162 409.059 359.961 409.914 359.75 409.905C359.539 409.896 359.424 408.807 360.315 407.826C361.207 406.845 362.395 406.8 362.404 406.935Z" fill="#263238"/>
<path d="M364.867 411.885C364.675 411.885 364.397 410.985 364.934 409.914C365.47 408.843 366.419 408.456 366.505 408.609C366.592 408.762 365.997 409.329 365.547 410.202C365.097 411.075 365.078 411.867 364.867 411.885Z" fill="#263238"/>
<path d="M356.799 73.6648C357.881 71.1448 356.569 68.0938 354.24 66.4648C351.786 64.9475 348.794 64.4009 345.913 64.9438C343.072 65.5034 340.32 66.4112 337.73 67.6438C336.526 66.5029 335.008 65.6989 333.345 65.3216C331.682 64.9442 329.94 65.0084 328.314 65.5069C326.688 66.0055 325.242 66.9187 324.136 68.1447C323.031 69.3707 322.31 70.8612 322.054 72.4498C321.018 72.2048 319.93 72.2295 318.908 72.5211C317.886 72.8127 316.967 73.3602 316.251 74.1049C315.535 74.8496 315.049 75.7634 314.844 76.7481C314.639 77.7329 314.723 78.7516 315.088 79.6948L328.043 83.9698L342.186 107.37C344.276 109.045 346.944 109.948 349.691 109.912C352.438 109.875 355.078 108.901 357.116 107.171C359.155 105.441 360.454 103.074 360.772 100.51C361.089 97.9468 360.402 95.3626 358.84 93.2398C359.632 92.5779 360.305 91.7998 360.833 90.9358C361.963 90.308 362.949 89.4755 363.734 88.4867C364.518 87.4979 365.086 86.3724 365.403 85.1758C366.659 79.9648 362.366 74.2768 356.799 73.6648Z" fill="#263238"/>
<path d="M348.223 122.4C347.418 118.593 346.862 115.983 346.872 116.01C346.881 116.037 354.537 113.22 353.982 103.203C353.713 98.2169 351.691 90.3599 349.813 83.9879C348.127 78.2459 342.426 71.9189 336.398 73.7459L318.125 82.1159C316.295 82.6739 315.979 84.2939 316.41 86.0489V86.9489L323.51 114.543L326.51 126.873C327.149 129.405 328.774 131.62 331.066 133.082C333.357 134.545 336.148 135.149 338.89 134.775C340.387 134.577 341.825 134.094 343.117 133.355C344.408 132.616 345.525 131.638 346.399 130.479C347.273 129.32 347.885 128.005 348.199 126.616C348.513 125.227 348.521 123.792 348.223 122.4Z" fill="#FFBE9D"/>
<path d="M349.746 90.6479C349.823 90.9672 349.766 91.3021 349.588 91.5835C349.41 91.8648 349.123 92.0711 348.788 92.1599C348.619 92.2043 348.441 92.2161 348.267 92.1945C348.093 92.1729 347.925 92.1185 347.774 92.0344C347.622 91.9503 347.491 91.8384 347.387 91.7053C347.283 91.5722 347.209 91.4207 347.169 91.2599C347.092 90.9417 347.149 90.608 347.327 90.3282C347.506 90.0483 347.792 89.8437 348.127 89.7569C348.295 89.711 348.472 89.6979 348.646 89.7183C348.821 89.7387 348.989 89.7923 349.14 89.8756C349.292 89.959 349.424 90.0704 349.528 90.2032C349.632 90.336 349.706 90.4873 349.746 90.6479Z" fill="#263238"/>
<path d="M348.913 88.7308C348.778 88.9288 347.619 88.4338 346.201 88.7308C344.783 89.0278 343.882 89.8918 343.69 89.7568C343.499 89.6218 343.69 89.3698 344.083 88.9738C344.61 88.4505 345.296 88.0923 346.047 87.9478C346.789 87.7976 347.562 87.8765 348.251 88.1728C348.788 88.3798 348.97 88.6498 348.913 88.7308Z" fill="#263238"/>
<path d="M335.833 93.5999C335.91 93.9181 335.853 94.2517 335.674 94.5316C335.496 94.8115 335.21 95.0161 334.875 95.1029C334.709 95.1481 334.536 95.1621 334.365 95.144C334.193 95.1259 334.028 95.076 333.877 94.9974C333.727 94.9187 333.594 94.8127 333.487 94.6856C333.381 94.5585 333.302 94.4128 333.255 94.2569C333.179 93.9376 333.235 93.6027 333.413 93.3213C333.592 93.04 333.878 92.8337 334.214 92.7449C334.38 92.6998 334.554 92.6862 334.725 92.7049C334.897 92.7236 335.063 92.7742 335.214 92.8538C335.365 92.9334 335.497 93.0403 335.603 93.1684C335.71 93.2965 335.788 93.4432 335.833 93.5999Z" fill="#263238"/>
<path d="M335.133 91.9078C335.009 92.1058 333.84 91.6018 332.422 91.9078C331.004 92.2138 330.103 93.0598 329.911 92.9338C329.72 92.8078 329.911 92.5468 330.304 92.1418C330.834 91.6233 331.519 91.2685 332.268 91.1248C333.009 90.9769 333.78 91.0525 334.472 91.3408C334.98 91.5568 335.201 91.7998 335.133 91.9078Z" fill="#263238"/>
<path d="M342.349 100.368C343.051 100.004 343.798 99.7198 344.572 99.5218C344.926 99.4138 345.262 99.2788 345.271 99.0358C345.221 98.6778 345.058 98.3423 344.802 98.0728L343.144 95.6788C340.825 92.2678 339.062 89.4418 339.206 89.3788C339.35 89.3158 341.352 91.9888 343.671 95.3998L345.291 97.8118C345.609 98.1809 345.781 98.6419 345.779 99.1168C345.751 99.2462 345.692 99.3682 345.608 99.474C345.523 99.5798 345.415 99.6668 345.291 99.7288C345.103 99.822 344.903 99.8916 344.696 99.9358C343.939 100.18 343.149 100.325 342.349 100.368Z" fill="#263238"/>
<path d="M346.872 116.01C342.025 117.039 336.97 116.783 332.269 115.272C332.269 115.272 337.29 121.428 347.418 118.485L346.872 116.01Z" fill="#EB996E"/>
<path d="M335.373 89.9997C335.277 90.3867 333.811 90.3777 332.144 90.7647C330.477 91.1517 329.154 91.7367 328.886 91.4307C328.771 91.2867 328.963 90.9087 329.471 90.5307C330.146 89.9968 330.947 89.6233 331.809 89.4417C332.662 89.2515 333.552 89.2515 334.405 89.4417C335.086 89.5587 335.44 89.8198 335.373 89.9997Z" fill="#263238"/>
<path d="M348.366 84.4826C348.136 84.8426 346.91 84.7526 345.492 85.0136C344.074 85.2746 342.952 85.7246 342.617 85.4636C342.464 85.3286 342.617 84.9866 343.029 84.5636C343.662 84.0639 344.427 83.7342 345.243 83.6096C346.045 83.4578 346.876 83.5138 347.648 83.7716C348.232 84.0236 348.462 84.3026 348.366 84.4826Z" fill="#263238"/>
<path d="M322.638 75.6715C322.85 76.6465 323.288 77.5656 323.921 78.3636C324.554 79.1616 325.367 79.819 326.3 80.2889C327.234 80.7588 328.267 81.0298 329.325 81.0826C330.383 81.1355 331.44 80.9688 332.422 80.5945C333.936 80.0185 335.507 78.9385 337.04 79.4605C338.573 79.9825 339.206 82.0345 340.672 82.7995C342.828 83.9335 345.463 81.9715 347.868 82.1695C349.785 82.3225 351.231 83.6995 352.717 84.8695C354.202 86.0395 356.252 86.9215 357.929 86.0755C357.545 84.5725 356.976 83.1167 356.233 81.7375C355.484 80.349 354.244 79.2483 352.726 78.6235C351.883 78.3085 350.973 78.2005 350.168 77.8135C348.433 76.9855 347.657 75.1135 346.402 73.7005C345.578 72.8101 344.539 72.117 343.373 71.6788C342.206 71.2405 340.945 71.0697 339.695 71.1805C337.625 71.3785 335.661 72.3595 333.572 72.2785C332.029 72.2155 330.553 71.5675 329.011 71.5945C326.011 71.5945 323.76 74.1145 322.092 76.4635" fill="#263238"/>
<path d="M332.738 77.7325C331.358 77.6335 328.541 77.3635 327.612 76.4455C326.667 75.4536 325.462 74.712 324.117 74.295C322.772 73.878 321.333 73.8002 319.946 74.0695C318.569 74.455 317.361 75.2455 316.498 76.3245C315.636 77.4036 315.165 78.7142 315.155 80.0635C313.478 80.4478 311.943 81.2502 310.712 82.3861C309.481 83.5219 308.599 84.949 308.16 86.5165C307.714 88.1575 307.699 89.8757 308.116 91.5234C308.533 93.1711 309.371 94.6989 310.555 95.9755C311.131 96.6516 311.656 97.3643 312.127 98.1085C311.477 98.8656 310.906 99.6793 310.421 100.539C308.227 105.093 314.177 106.839 314.177 106.839C314.177 109.899 317.196 109.881 319.122 109.872C321.048 109.863 322.111 114.696 323.616 114.507L322.092 99.5935C322.315 99.675 322.552 99.7177 322.792 99.7195C326.423 99.7825 325.475 93.3205 324.306 91.6195C325.388 90.3544 326.302 88.9702 327.027 87.4975C327.685 85.2462 327.731 82.8759 327.161 80.6035C328.378 80.4595 333.332 77.7685 332.738 77.7325Z" fill="#263238"/>
<path d="M322.572 100.386C322.448 99.912 322.198 99.4753 321.846 99.1165C321.494 98.7577 321.051 98.4884 320.559 98.3338C320.066 98.1793 319.539 98.1444 319.029 98.2326C318.518 98.3207 318.039 98.529 317.637 98.8379C316.679 99.6119 316.171 100.908 316.746 103.077C318.298 108.873 324.172 106.218 324.133 106.056C324.095 105.894 323.242 102.78 322.572 100.386Z" fill="#FFBE9D"/>
<path d="M321.661 104.301C321.661 104.301 321.575 104.4 321.412 104.517C321.185 104.68 320.9 104.754 320.617 104.724C319.908 104.652 319.093 103.824 318.786 102.771C318.64 102.279 318.611 101.763 318.7 101.259C318.71 101.063 318.77 100.872 318.875 100.703C318.98 100.534 319.127 100.391 319.304 100.287C319.42 100.228 319.555 100.209 319.684 100.234C319.814 100.258 319.93 100.325 320.013 100.422C320.137 100.557 320.128 100.683 320.166 100.692C320.205 100.701 320.272 100.557 320.166 100.332C320.093 100.198 319.975 100.091 319.831 100.026C319.628 99.9488 319.401 99.9488 319.198 100.026C318.958 100.133 318.75 100.296 318.594 100.499C318.438 100.702 318.34 100.938 318.307 101.187C318.183 101.754 318.206 102.34 318.374 102.897C318.481 103.419 318.75 103.901 319.147 104.28C319.545 104.66 320.052 104.921 320.607 105.03C320.787 105.037 320.967 105.005 321.133 104.939C321.299 104.872 321.446 104.77 321.565 104.643C321.69 104.445 321.69 104.31 321.661 104.301Z" fill="#EB996E"/>
<path d="M355.658 92.2947C355.658 92.2947 356.224 91.8897 357.009 90.9897C358.094 89.693 358.759 88.1311 358.926 86.4897C359.053 85.3693 358.935 84.2362 358.581 83.1597C358.171 81.9249 357.413 80.8176 356.386 79.9557C355.201 78.9834 353.766 78.3191 352.223 78.0286C350.68 77.7381 349.083 77.8316 347.59 78.2997C347.303 78.3897 347.034 78.5247 346.766 78.6327C346.498 78.7407 346.258 78.9027 346.009 79.0377L345.626 79.2357V78.8397C345.618 78.1426 345.342 77.4715 344.85 76.9497C344.345 76.4433 343.726 76.0497 343.039 75.7977C341.737 75.2884 340.295 75.1873 338.928 75.5097C336.283 76.0767 334.041 77.2107 331.923 77.4447C330.263 77.7158 328.554 77.3949 327.132 76.5447C326.757 76.3023 326.432 75.9972 326.174 75.6447C326.021 75.4017 325.944 75.2667 325.963 75.2577C326.311 75.7022 326.735 76.0886 327.219 76.4007C328.618 77.1592 330.261 77.4181 331.847 77.1297C332.95 76.9348 334.029 76.6331 335.066 76.2297C336.284 75.7725 337.532 75.3907 338.803 75.0867C339.512 74.9257 340.24 74.8561 340.969 74.8797C341.738 74.9179 342.493 75.0824 343.202 75.3657C343.934 75.6598 344.589 76.1023 345.118 76.6617C345.685 77.271 346.004 78.0489 346.019 78.8577L345.635 78.6597L346.431 78.2277C346.728 78.1197 347.006 77.9757 347.312 77.8767C348.885 77.3707 350.573 77.2648 352.204 77.5699C353.835 77.875 355.351 78.5802 356.597 79.6137C357.675 80.5301 358.464 81.7069 358.878 83.0157C359.308 84.4029 359.366 85.8685 359.046 87.2818C358.727 88.6951 358.04 90.0122 357.048 91.1157C356.732 91.454 356.375 91.7561 355.984 92.0157C355.888 92.1208 355.778 92.2145 355.658 92.2947Z" fill="#455A64"/>
<path d="M354.413 71.9458C353.784 71.6459 353.113 71.4307 352.42 71.3068C351.627 71.2051 350.821 71.2759 350.062 71.5138C349.08 71.796 348.227 72.379 347.638 73.1698L347.399 73.4848L347.255 73.1248C346.755 72.0185 345.949 71.0574 344.922 70.3408C343.894 69.6242 342.682 69.1778 341.41 69.0478C339.412 68.9772 337.442 69.5138 335.795 70.5778C334.391 71.4373 332.898 72.161 331.339 72.7378C330.264 73.1197 329.106 73.2494 327.966 73.1158C327.662 73.0631 327.364 72.9848 327.075 72.8818C326.883 72.8008 326.778 72.7558 326.787 72.7378C326.797 72.7198 327.219 72.8548 327.995 72.9268C329.097 72.9915 330.201 72.8223 331.224 72.4318C332.739 71.8113 334.192 71.0643 335.565 70.1998C336.413 69.7052 337.312 69.2921 338.248 68.9668C339.277 68.6143 340.377 68.4821 341.467 68.5798C342.826 68.7192 344.12 69.2021 345.21 69.977C346.3 70.752 347.146 71.7901 347.657 72.9808H347.284C347.942 72.135 348.883 71.5205 349.957 71.2348C350.773 71.0127 351.632 70.9726 352.468 71.1178C352.996 71.2121 353.503 71.395 353.962 71.6578C354.126 71.7332 354.278 71.8302 354.413 71.9458Z" fill="#455A64"/>
<path d="M341.793 103.032C341.569 102.856 341.308 102.727 341.028 102.652C340.747 102.578 340.453 102.56 340.164 102.6C339.827 102.667 339.508 102.801 339.229 102.992C338.95 103.182 338.717 103.426 338.545 103.707C338.545 103.707 338.497 103.752 338.487 103.779C338.355 103.984 338.295 104.223 338.315 104.463C338.356 104.723 338.466 104.971 338.633 105.182C338.8 105.394 339.02 105.564 339.273 105.678C339.678 105.871 340.136 105.941 340.586 105.88C341.035 105.819 341.453 105.629 341.783 105.336C342.097 105.025 342.272 104.614 342.274 104.186C342.276 103.758 342.104 103.345 341.793 103.032Z" fill="#FB8500"/>
<path d="M342.272 105.831C342.196 105.831 342.109 105.561 341.851 105.192C341.539 104.697 341.073 104.304 340.516 104.066C339.96 103.828 339.338 103.756 338.736 103.86C338.267 103.923 337.979 104.049 337.951 103.986C337.922 103.923 338.142 103.707 338.66 103.536C339.337 103.331 340.071 103.37 340.72 103.644C341.375 103.918 341.893 104.417 342.167 105.039C342.368 105.507 342.339 105.822 342.272 105.831Z" fill="#263238"/>
<path d="M322.715 106.947C322.715 106.947 322.993 107.397 322.629 108.081C322.423 108.49 322.06 108.811 321.613 108.981C321.334 109.074 321.036 109.106 320.742 109.073C320.447 109.041 320.165 108.944 319.917 108.792C319.665 108.648 319.452 108.451 319.294 108.217C319.136 107.983 319.038 107.717 319.007 107.442C318.978 106.997 319.117 106.557 319.4 106.2C319.898 105.606 320.454 105.588 320.454 105.642C320.454 105.696 320.032 105.849 319.697 106.389C319.503 106.691 319.422 107.046 319.467 107.397C319.503 107.602 319.585 107.798 319.709 107.97C319.834 108.143 319.996 108.288 320.186 108.396C320.373 108.508 320.583 108.582 320.802 108.613C321.022 108.644 321.246 108.631 321.46 108.576C321.814 108.457 322.119 108.236 322.332 107.946C322.706 107.388 322.639 106.947 322.715 106.947Z" fill="#FB8500"/>
<path d="M319.486 106.596C319.534 106.596 319.486 106.902 319.036 107.1C318.814 107.186 318.571 107.211 318.336 107.172C318.1 107.133 317.881 107.031 317.704 106.879C317.528 106.726 317.402 106.53 317.34 106.312C317.279 106.095 317.286 105.865 317.359 105.651C317.453 105.407 317.632 105.201 317.867 105.066C318.26 104.841 318.557 104.931 318.547 104.985C318.537 105.039 318.317 105.102 318.078 105.327C317.96 105.465 317.888 105.633 317.871 105.81C317.854 105.986 317.894 106.163 317.984 106.319C318.074 106.475 318.211 106.602 318.377 106.685C318.544 106.768 318.733 106.802 318.921 106.785C319.246 106.722 319.419 106.56 319.486 106.596Z" fill="#FB8500"/>
<path d="M330.017 186.525C330.017 186.525 353.742 187.821 367.77 187.938C378.627 188.037 383.475 185.328 385.641 178.767C387.461 173.268 383.552 162.711 383.552 162.711C376.202 162.711 371.67 163.701 366.946 165.78L368.201 170.604L329.95 173.7L330.017 186.525Z" fill="#FFBE9D"/>
<path d="M376.174 175.752C375.145 174.495 373.943 173.373 372.6 172.413C371.158 171.585 369.605 170.943 367.981 170.505C368.492 170.436 369.014 170.479 369.505 170.631C370.71 170.898 371.853 171.371 372.877 172.026C373.903 172.683 374.79 173.513 375.493 174.474C376.03 175.212 376.231 175.725 376.174 175.752Z" fill="#EB996E"/>
<path d="M321.335 165.744C321.335 165.744 313.995 167.4 308.601 170.784L314.35 185.418C316.266 190.224 322.121 192.618 326.807 190.098C334.022 186.219 336.571 174.915 336.571 174.915L344.495 142.623L331.358 134.892L321.383 165.744" fill="#FFBE9D"/>
<path d="M331.31 134.892L331.847 124.272L328.905 113.472C328.742 112.878 328.666 112.131 329.183 111.771C329.44 111.586 329.756 111.491 330.08 111.5C330.403 111.51 330.712 111.625 330.956 111.825C331.751 112.599 335.584 122.04 335.584 122.04C335.584 122.04 341.4 118.764 342.435 118.602C343.47 118.44 344.764 121.383 344.85 121.608C344.888 122.268 344.888 122.929 344.85 123.588C344.85 123.588 348.443 123.687 348.769 124.146C349.03 125.084 349.169 126.048 349.181 127.017C349.181 127.017 350.704 127.476 350.944 128.556C351.184 129.636 351.682 131.418 350.944 131.814C350.206 132.21 348.711 132.984 348.711 132.984C348.711 132.984 348.108 138.492 347.945 138.996C347.782 139.5 344.419 142.596 344.419 142.596L331.31 134.892Z" fill="#FFBE9D"/>
<path d="M319.083 190.314C319.083 190.314 319.438 190.512 320.185 190.737C321.278 191.059 322.435 191.145 323.568 190.989C325.389 190.745 327.094 190.006 328.474 188.865C330.298 187.31 331.839 185.486 333.035 183.465C333.74 182.276 334.333 181.033 334.808 179.748C335.306 178.334 335.719 176.894 336.044 175.437C336.791 172.404 337.606 169.137 338.468 165.663C340.193 158.724 342.128 150.966 344.217 142.605V142.542H344.265C344.926 141.93 345.588 141.309 346.249 140.661C346.575 140.337 346.9 140.013 347.207 139.68C347.36 139.509 347.523 139.338 347.648 139.167C347.745 138.997 347.8 138.81 347.811 138.618C348.069 136.818 348.271 134.955 348.481 133.074V132.957L348.596 132.903L350.427 131.94C350.561 131.859 350.772 131.769 350.858 131.697C350.949 131.619 351.01 131.514 351.03 131.4C351.075 131.101 351.075 130.798 351.03 130.5C350.937 129.84 350.793 129.187 350.599 128.547C350.273 127.987 349.726 127.57 349.075 127.386L348.913 127.332V127.179C348.913 126.657 348.855 126.117 348.788 125.586C348.762 125.32 348.72 125.055 348.663 124.794C348.641 124.678 348.602 124.566 348.548 124.461C348.548 124.398 348.548 124.461 348.491 124.407C348.439 124.381 348.384 124.36 348.328 124.344C347.176 124.108 346 123.984 344.821 123.975H344.572V123.741C344.572 123.183 344.572 122.562 344.572 121.941C344.532 121.729 344.455 121.525 344.342 121.338C344.246 121.122 344.131 120.915 344.016 120.699C343.792 120.282 343.529 119.884 343.23 119.511C343.095 119.337 342.93 119.185 342.742 119.061C342.672 119.005 342.587 118.971 342.497 118.961C342.406 118.952 342.315 118.967 342.234 119.007C341.77 119.173 341.319 119.369 340.883 119.592C339.101 120.492 337.357 121.392 335.651 122.364L335.402 122.508L335.296 122.256C334.396 120.123 333.495 118.017 332.613 115.956C332.173 114.921 331.741 113.886 331.301 112.869C331.233 112.641 331.098 112.436 330.911 112.276C330.725 112.117 330.495 112.011 330.247 111.969C330.018 111.897 329.77 111.901 329.543 111.98C329.317 112.058 329.126 112.207 329.001 112.401C328.882 112.594 328.831 112.818 328.857 113.04C328.857 113.238 328.991 113.544 329.049 113.787C329.202 114.309 329.346 114.822 329.49 115.335C329.777 116.37 330.055 117.387 330.342 118.395C330.905 120.423 331.457 122.403 332 124.335V124.398C331.809 128.094 331.626 131.634 331.454 135.018V135L322.725 161.676L320.262 169.101C319.975 169.938 319.754 170.595 319.601 171.054C319.448 171.513 319.352 171.711 319.352 171.711C319.352 171.711 319.4 171.477 319.534 171.036L320.138 169.065C320.693 167.328 321.489 164.817 322.495 161.613C324.564 155.169 327.506 145.971 331.061 134.883V134.928C331.227 131.556 331.396 128.016 331.569 124.308V124.371C331.023 122.436 330.457 120.456 329.892 118.44L329.03 115.38C328.886 114.867 328.742 114.345 328.589 113.832C328.507 113.562 328.439 113.289 328.388 113.013C328.352 112.7 328.423 112.385 328.589 112.113C328.766 111.832 329.04 111.616 329.365 111.501C329.687 111.412 330.027 111.402 330.354 111.471C330.681 111.541 330.984 111.687 331.234 111.897C331.474 112.109 331.652 112.375 331.751 112.671L333.064 115.758C333.955 117.828 334.846 119.934 335.756 122.058L335.402 121.941C337.117 120.987 338.842 120.033 340.662 119.142C341.123 118.916 341.596 118.714 342.081 118.539C342.232 118.48 342.397 118.458 342.56 118.476C342.724 118.498 342.88 118.553 343.02 118.638C343.25 118.793 343.454 118.981 343.623 119.196C343.944 119.589 344.223 120.011 344.457 120.456C344.581 120.681 344.696 120.897 344.802 121.122C344.938 121.36 345.029 121.619 345.07 121.887C345.07 122.526 345.07 123.12 345.07 123.687L344.831 123.444C346.062 123.451 347.29 123.584 348.491 123.84C348.573 123.867 348.654 123.9 348.731 123.939C348.836 123.992 348.922 124.074 348.98 124.173C349.054 124.319 349.109 124.473 349.143 124.632C349.2 124.92 349.238 125.19 349.277 125.469C349.334 126.018 349.373 126.558 349.401 127.098L349.229 126.882C349.621 126.99 349.985 127.171 350.3 127.416C350.614 127.66 350.873 127.962 351.059 128.304C351.269 128.988 351.423 129.686 351.519 130.392C351.585 130.752 351.585 131.12 351.519 131.481C351.477 131.699 351.355 131.896 351.174 132.039C351.017 132.137 350.854 132.228 350.685 132.309L348.865 133.2L348.989 133.029C348.769 134.91 348.568 136.755 348.299 138.582L348.242 138.933C348.22 139.075 348.157 139.209 348.06 139.32C347.919 139.517 347.762 139.703 347.59 139.878C347.264 140.22 346.939 140.553 346.632 140.877C345.971 141.525 345.31 142.146 344.639 142.758L344.706 142.65C342.598 151.002 340.643 158.76 338.89 165.699C338.018 169.164 337.184 172.431 336.418 175.455C336.09 176.923 335.667 178.372 335.153 179.793C334.66 181.09 334.051 182.345 333.332 183.546C332.108 185.593 330.531 187.436 328.666 189C327.244 190.149 325.495 190.881 323.635 191.106C322.477 191.252 321.299 191.141 320.195 190.782C319.914 190.685 319.642 190.567 319.381 190.431L319.083 190.314Z" fill="#EB996E"/>
<path d="M344.859 123.615C344.859 123.678 344.534 123.714 344.026 123.732C343.381 123.743 342.739 123.816 342.109 123.948C341.502 124.088 340.942 124.37 340.48 124.767C340.135 125.073 339.982 125.334 339.905 125.307C339.829 125.28 339.905 124.956 340.222 124.542C340.668 124.018 341.289 123.65 341.985 123.498C342.656 123.342 343.352 123.312 344.035 123.408C344.553 123.471 344.859 123.552 344.859 123.615Z" fill="#EB996E"/>
<path d="M342.08 123.714C341.956 123.669 341.946 123.39 342.08 123.093C342.215 122.796 342.406 122.589 342.531 122.634C342.655 122.679 342.675 122.958 342.531 123.255C342.387 123.552 342.176 123.759 342.08 123.714Z" fill="#EB996E"/>
<path d="M349.344 126.981C348.414 127.251 347.443 127.376 346.469 127.35C346.163 127.34 345.859 127.4 345.582 127.523C345.305 127.647 345.064 127.831 344.879 128.061C344.629 128.43 344.716 128.736 344.639 128.754C344.562 128.772 344.332 128.457 344.572 127.917C344.704 127.613 344.944 127.361 345.252 127.206C345.607 127.023 345.999 126.912 346.402 126.882C347.381 126.741 348.379 126.775 349.344 126.981Z" fill="#EB996E"/>
<path d="M348.711 130.221C348.846 130.221 348.922 130.887 348.884 131.706C348.846 132.525 348.702 133.173 348.568 133.173C348.434 133.173 348.347 132.498 348.386 131.679C348.424 130.86 348.568 130.212 348.711 130.221Z" fill="#EB996E"/>
<path d="M352.688 154.458L353.541 151.704C353.58 151.578 353.653 151.463 353.753 151.372C353.854 151.28 353.978 151.215 354.113 151.183C354.249 151.15 354.391 151.151 354.526 151.185C354.66 151.22 354.783 151.287 354.882 151.38L356.003 152.451L356.693 149.85C356.734 149.699 356.823 149.564 356.948 149.463C357.073 149.362 357.228 149.299 357.392 149.283C357.556 149.268 357.721 149.3 357.866 149.375C358.01 149.451 358.126 149.566 358.198 149.706L359.76 152.784L352.688 154.458Z" fill="white"/>
<path d="M359.779 153.963C358.707 154.449 357.569 154.794 356.396 154.989C355.262 155.337 354.081 155.53 352.889 155.565C355.095 154.732 357.414 154.193 359.779 153.963Z" fill="white"/>
<path d="M302.794 138.6C302.794 138.6 302.439 138.942 301.941 139.671C301.272 140.709 300.832 141.863 300.648 143.064C300.374 144.852 300.317 146.663 300.475 148.464C300.58 150.507 300.753 152.739 301.021 155.079C301.475 159.075 302.15 163.046 303.043 166.977C303.378 168.489 303.685 169.677 303.896 170.577C303.992 170.955 304.078 171.27 304.145 171.54C304.212 171.81 304.222 171.882 304.222 171.882C304.222 171.882 304.174 171.774 304.107 171.558C304.04 171.342 303.934 170.964 303.829 170.595C303.589 169.758 303.263 168.552 302.871 167.04C301.939 163.111 301.245 159.135 300.791 155.133C300.523 152.793 300.36 150.552 300.264 148.509C300.119 146.707 300.19 144.896 300.475 143.109C300.681 141.892 301.151 140.728 301.855 139.689C302.114 139.288 302.43 138.922 302.794 138.6Z" fill="white"/>
<path d="M322.964 126.342L322.744 126.45L322.111 126.738C321.565 126.981 320.77 127.341 319.821 127.836C317.348 129.131 314.947 130.543 312.625 132.066C309.885 133.866 307.46 135.504 305.688 136.692L303.589 138.087L303.005 138.456C302.939 138.505 302.869 138.547 302.794 138.582C302.849 138.521 302.913 138.47 302.986 138.429L303.541 138.033L305.601 136.584C307.355 135.369 309.77 133.677 312.51 131.913C314.836 130.383 317.255 128.983 319.754 127.719C320.712 127.242 321.517 126.9 322.083 126.675L322.725 126.423C322.916 126.36 322.916 126.333 322.964 126.342Z" fill="white"/>
<path d="M368.661 132.201C368.601 132.17 368.546 132.13 368.498 132.084L368.067 131.733C367.533 131.309 366.973 130.916 366.39 130.554C364.445 129.389 362.381 128.409 360.229 127.629C358.083 126.831 355.892 126.145 353.665 125.577C352.803 125.352 352.113 125.19 351.624 125.082L351.078 124.947C351.012 124.934 350.947 124.913 350.886 124.884H351.088L351.643 124.983C352.132 125.073 352.832 125.217 353.694 125.424C355.942 125.957 358.151 126.627 360.306 127.431C362.47 128.211 364.536 129.213 366.467 130.419C367.27 130.93 368.007 131.528 368.661 132.201Z" fill="white"/>
<path d="M323.233 200.898C323.103 200.876 322.977 200.837 322.859 200.781C322.526 200.643 322.206 200.481 321.901 200.295C321.385 200.004 320.934 199.621 320.576 199.167C320.218 198.713 319.958 198.197 319.812 197.649C319.549 196.542 319.68 195.385 320.186 194.355C320.332 194.035 320.518 193.733 320.741 193.455C320.895 193.266 321 193.176 321.01 193.185C320.748 193.569 320.514 193.968 320.31 194.382C319.865 195.393 319.761 196.508 320.013 197.577C320.287 198.632 320.971 199.553 321.929 200.16C322.725 200.7 323.252 200.862 323.233 200.898Z" fill="white"/>
<path d="M320.186 191.151C320.389 191.508 320.541 191.889 320.636 192.285C320.786 192.663 320.876 193.06 320.904 193.464C320.686 193.115 320.531 192.735 320.444 192.339C320.287 191.959 320.2 191.558 320.186 191.151Z" fill="white"/>
<path d="M333.14 392.94L362.366 392.805L361.839 297.9L361.561 201.357L321.958 200.88L314.839 213.48C311.926 218.545 310.069 224.087 309.367 229.806C308.888 234.18 312.376 248.4 313.583 252L324.478 284.454L333.14 392.94Z" fill="#263238"/>
<path d="M370.137 201.474L402.256 283.707C404.159 289.005 404.791 294.633 404.107 300.188C403.423 305.743 401.439 311.087 398.299 315.837L361.005 384.237L340.04 359.595L371.239 298.395L343.738 256.5L348.366 201.6L361.321 201.402L370.137 201.474Z" fill="#263238"/>
<path d="M358.897 229.023C358.897 229.023 358.897 229.167 358.897 229.446C358.897 229.725 358.945 230.157 358.983 230.688C359.05 231.795 359.137 233.388 359.252 235.449C359.472 239.616 359.779 245.601 360.21 252.99C360.641 260.379 361.005 269.19 361.484 279C361.714 283.896 361.963 289.035 362.212 294.363C362.394 297.063 362.318 299.763 362.347 302.463C362.375 305.163 362.347 308.007 362.347 310.833C362.347 333.45 362.423 353.925 362.452 368.766C362.452 376.164 362.452 382.158 362.452 386.325C362.452 388.386 362.452 389.988 362.452 391.104C362.452 391.626 362.452 392.004 362.452 392.346C362.452 392.688 362.452 392.769 362.452 392.769C362.452 392.769 362.452 392.625 362.452 392.346V391.104C362.452 389.988 362.452 388.404 362.394 386.325C362.394 382.158 362.318 376.173 362.26 368.775C362.193 353.934 362.107 333.459 362.011 310.842C362.011 308.016 362.011 305.226 362.011 302.472C362.011 299.718 362.069 297 361.887 294.372C361.647 289.053 361.407 283.914 361.187 279.018C360.746 269.226 360.344 260.415 360.018 252.999C359.692 245.583 359.453 239.625 359.271 235.458C359.194 233.406 359.137 231.804 359.098 230.688C359.098 230.157 359.098 229.788 359.098 229.446C359.098 229.104 358.897 229.023 358.897 229.023Z" fill="#455A64"/>
<path d="M358.159 203.094C358.271 203.383 358.339 203.686 358.36 203.994C358.466 204.57 358.581 205.407 358.715 206.451C358.964 208.53 359.232 211.419 359.386 214.614C359.539 217.809 359.549 220.707 359.501 222.804C359.501 223.848 359.434 224.703 359.386 225.288C359.396 225.592 359.357 225.895 359.271 226.188C359.15 225.064 359.109 223.933 359.146 222.804C359.146 220.707 359.041 217.827 358.887 214.632C358.734 211.437 358.523 208.566 358.36 206.532C358.224 205.39 358.157 204.242 358.159 203.094Z" fill="#455A64"/>
<path d="M351.72 204.948C351.768 205.011 351.222 205.245 351.069 205.974C351.026 206.171 351.037 206.376 351.103 206.569C351.168 206.761 351.285 206.934 351.442 207.072C351.632 207.237 351.868 207.348 352.123 207.391C352.378 207.434 352.64 207.408 352.88 207.315C353.109 207.204 353.301 207.034 353.433 206.826C353.565 206.617 353.632 206.378 353.627 206.136C353.618 205.934 353.555 205.738 353.442 205.567C353.33 205.395 353.172 205.253 352.985 205.155C352.595 204.977 352.161 204.906 351.73 204.948C351.73 204.948 351.826 204.831 352.075 204.759C352.434 204.676 352.813 204.711 353.148 204.858C353.415 204.962 353.647 205.135 353.816 205.356C353.985 205.576 354.086 205.837 354.106 206.109C354.144 206.444 354.069 206.782 353.892 207.075C353.715 207.368 353.445 207.601 353.119 207.742C352.793 207.883 352.428 207.925 352.076 207.861C351.724 207.797 351.401 207.631 351.155 207.387C350.951 207.197 350.807 206.958 350.738 206.696C350.668 206.434 350.677 206.159 350.762 205.902C350.858 205.565 351.075 205.269 351.375 205.065C351.567 204.939 351.711 204.921 351.72 204.948Z" fill="#455A64"/>
<path d="M336.389 203.319C336.53 203.602 336.617 203.907 336.647 204.219C336.802 205.027 336.831 205.851 336.734 206.667C336.596 207.881 336.222 209.062 335.632 210.15C334.918 211.503 333.862 212.671 332.555 213.552C331.249 214.432 329.732 214.998 328.139 215.199C326.863 215.378 325.563 215.332 324.306 215.064C323.455 214.89 322.635 214.602 321.872 214.209C321.583 214.081 321.318 213.911 321.086 213.705C322.145 214.152 323.25 214.499 324.382 214.74C325.745 215.006 327.152 215.004 328.514 214.734C329.876 214.463 331.163 213.931 332.295 213.17C333.427 212.409 334.379 211.435 335.09 210.312C335.801 209.188 336.256 207.937 336.427 206.64C336.54 205.535 336.527 204.421 336.389 203.319Z" fill="#455A64"/>
<path d="M373.989 211.203C373.364 211.27 372.73 211.199 372.14 210.996C370.692 210.567 369.392 209.785 368.374 208.728C367.346 207.675 366.641 206.382 366.333 204.984C366.182 204.413 366.182 203.817 366.333 203.247C366.419 203.247 366.429 203.904 366.716 204.912C367.105 206.214 367.811 207.414 368.779 208.415C369.747 209.416 370.95 210.192 372.293 210.681C373.29 211.05 373.999 211.113 373.989 211.203Z" fill="#455A64"/>
<path d="M385.401 299.853C384.921 300.367 384.347 300.797 383.705 301.122C383.032 301.523 382.299 301.826 381.53 302.022C380.562 302.262 379.541 302.238 378.588 301.95C376.915 301.357 375.481 300.287 374.487 298.89C374.031 298.365 373.654 297.783 373.366 297.162C373.883 297.625 374.352 298.135 374.765 298.683C375.783 299.95 377.157 300.926 378.732 301.5C379.536 301.701 380.376 301.747 381.2 301.634C382.023 301.521 382.814 301.252 383.523 300.843C384.129 300.479 384.756 300.149 385.401 299.853Z" fill="#455A64"/>
<path d="M378.08 305.1C376.948 303.998 375.937 302.792 375.062 301.5C374.055 300.296 373.175 299.003 372.437 297.639C373.577 298.736 374.591 299.943 375.464 301.239C376.48 302.435 377.357 303.729 378.08 305.1Z" fill="#455A64"/>
<path d="M328.982 232.2C328.848 232.245 328.512 231.732 328.215 231.039C327.918 230.346 327.794 229.761 327.918 229.707C328.043 229.653 328.388 230.175 328.675 230.868C328.963 231.561 329.106 232.2 328.982 232.2Z" fill="#FAFAFA"/>
<path d="M347.533 234.702C347.389 234.702 347.284 234.261 347.284 233.712C347.284 233.163 347.389 232.713 347.533 232.713C347.677 232.713 347.782 233.163 347.782 233.712C347.782 234.261 347.667 234.702 347.533 234.702Z" fill="#FAFAFA"/>
<path d="M339.905 244.17C339.771 244.17 339.618 243.63 339.57 242.937C339.522 242.244 339.57 241.686 339.723 241.677C339.877 241.668 340.02 242.217 340.068 242.91C340.116 243.603 340.04 244.161 339.905 244.17Z" fill="#FAFAFA"/>
<path d="M325.973 251.1C325.858 251.181 325.465 250.848 324.948 250.506C324.43 250.164 323.99 249.903 323.99 249.777C323.99 249.651 324.622 249.723 325.206 250.119C325.791 250.515 326.088 251.1 325.973 251.1Z" fill="#FAFAFA"/>
<path d="M350.532 259.929C350.417 259.857 350.532 259.47 350.858 259.029C351.184 258.588 351.481 258.336 351.596 258.408C351.711 258.48 351.596 258.876 351.27 259.308C350.944 259.74 350.647 260.001 350.532 259.929Z" fill="#FAFAFA"/>
<path d="M335.373 262.422C335.239 262.422 335.124 261.675 335.124 260.766C335.124 259.857 335.239 259.101 335.373 259.101C335.507 259.101 335.622 259.848 335.622 260.766C335.622 261.684 335.479 262.422 335.373 262.422Z" fill="#FAFAFA"/>
<path d="M330.41 272.52C330.333 272.619 329.835 272.412 329.298 272.043C328.761 271.674 328.34 271.296 328.464 271.188C328.589 271.08 329.049 271.296 329.585 271.665C330.122 272.034 330.496 272.412 330.41 272.52Z" fill="#FAFAFA"/>
<path d="M345.76 276.03C345.817 276.147 345.511 276.39 345.07 276.579C344.629 276.768 344.227 276.813 344.169 276.696C344.112 276.579 344.428 276.336 344.869 276.147C345.31 275.958 345.712 275.913 345.76 276.03Z" fill="#FAFAFA"/>
<path d="M335.373 292.5C335.258 292.554 334.76 291.861 334.271 290.943C333.782 290.025 333.485 289.233 333.61 289.143C333.735 289.053 334.233 289.782 334.712 290.7C335.191 291.618 335.459 292.401 335.373 292.5Z" fill="#FAFAFA"/>
<path d="M352.305 290.97C352.18 290.907 352.4 290.304 352.784 289.611C353.167 288.918 353.598 288.414 353.742 288.477C353.886 288.54 353.646 289.143 353.253 289.836C352.86 290.529 352.42 291.033 352.305 290.97Z" fill="#FAFAFA"/>
<path d="M344.878 304.911C344.735 304.911 344.754 304.182 344.601 303.336C344.447 302.49 344.217 301.815 344.351 301.752C344.486 301.689 344.946 302.328 345.099 303.264C345.252 304.2 345.013 304.938 344.878 304.911Z" fill="#FAFAFA"/>
<path d="M336.925 312.876C336.83 312.966 336.351 312.624 335.862 312.12C335.373 311.616 335.057 311.139 335.162 311.049C335.268 310.959 335.737 311.301 336.226 311.805C336.715 312.309 337.031 312.786 336.925 312.876Z" fill="#FAFAFA"/>
<path d="M356.224 315.9C356.128 315.81 356.482 315.324 357.019 314.811C357.556 314.298 358.054 313.965 358.159 314.055C358.265 314.145 357.9 314.64 357.373 315.144C356.846 315.648 356.329 315.99 356.224 315.9Z" fill="#FAFAFA"/>
<path d="M345.128 327.825C344.994 327.825 344.994 327.114 345.128 326.286C345.262 325.458 345.473 324.81 345.616 324.828C345.76 324.846 345.751 325.53 345.616 326.358C345.482 327.186 345.262 327.843 345.128 327.825Z" fill="#FAFAFA"/>
<path d="M337.663 333.612C337.539 333.675 337.117 333.207 336.705 332.568C336.293 331.929 336.082 331.362 336.197 331.299C336.312 331.236 336.734 331.695 337.155 332.334C337.577 332.973 337.778 333.54 337.663 333.612Z" fill="#FAFAFA"/>
<path d="M355.649 340.911C355.735 341.019 355.246 341.478 354.557 341.937C353.867 342.396 353.263 342.684 353.177 342.576C353.09 342.468 353.589 342.009 354.269 341.55C354.949 341.091 355.572 340.812 355.649 340.911Z" fill="#FAFAFA"/>
<path d="M340.662 350.388C340.528 350.343 340.662 349.623 340.787 348.723C340.911 347.823 340.835 347.085 340.978 347.067C341.122 347.049 341.371 347.805 341.276 348.768C341.18 349.731 340.787 350.442 340.662 350.388Z" fill="#FAFAFA"/>
<path d="M346.651 363.996C346.536 364.077 346.134 363.771 345.741 363.312C345.348 362.853 345.128 362.412 345.233 362.331C345.338 362.25 345.741 362.556 346.134 363.015C346.527 363.474 346.756 363.915 346.651 363.996Z" fill="#FAFAFA"/>
<path d="M340.107 373.122C339.992 373.194 339.465 372.663 338.928 371.925C338.391 371.187 338.056 370.539 338.161 370.467C338.267 370.395 338.803 370.926 339.34 371.664C339.877 372.402 340.222 373.05 340.107 373.122Z" fill="#FAFAFA"/>
<path d="M358.131 361.665C358.006 361.62 358.016 361.287 358.131 360.927C358.246 360.567 358.504 360.297 358.638 360.342C358.773 360.387 358.753 360.72 358.638 361.089C358.524 361.458 358.265 361.719 358.131 361.665Z" fill="#FAFAFA"/>
<path d="M350.177 383.4C350.053 383.337 350.292 382.698 350.484 381.897C350.676 381.096 350.743 380.421 350.887 380.412C351.03 380.403 351.174 381.132 350.973 381.996C350.772 382.86 350.292 383.472 350.177 383.4Z" fill="#FAFAFA"/>
<path d="M355.352 244.314C355.227 244.368 354.92 244.008 354.671 243.504C354.422 243 354.317 242.55 354.441 242.496C354.566 242.442 354.873 242.802 355.122 243.306C355.371 243.81 355.495 244.26 355.352 244.314Z" fill="#FAFAFA"/>
<path d="M342.08 216.288C342.157 216.396 341.486 216.9 340.768 217.62C340.049 218.34 339.56 219.006 339.436 218.943C339.311 218.88 339.637 218.043 340.394 217.305C341.151 216.567 341.985 216.171 342.08 216.288Z" fill="#FAFAFA"/>
<path d="M353.895 216C353.752 216 353.531 215.487 353.196 214.875C352.861 214.263 352.554 213.759 352.659 213.669C352.765 213.579 353.282 213.975 353.618 214.659C353.953 215.343 354.02 215.928 353.895 216Z" fill="#FAFAFA"/>
<path d="M317.004 225.099C316.88 225.045 317.004 224.451 317.301 223.767C317.598 223.083 317.924 222.552 318.058 222.606C318.192 222.66 318.058 223.245 317.761 223.938C317.464 224.631 317.167 225.144 317.004 225.099Z" fill="#FAFAFA"/>
<path d="M318.202 238.689C318.106 238.788 317.56 238.5 316.975 238.041C316.391 237.582 316.017 237.141 316.075 237.033C316.132 236.925 316.717 237.222 317.301 237.681C317.886 238.14 318.288 238.59 318.202 238.689Z" fill="#FAFAFA"/>
<path d="M342.406 205.497C342.282 205.497 342.014 205.209 341.822 204.75C341.63 204.291 341.573 203.85 341.697 203.85C341.822 203.85 342.09 204.138 342.282 204.597C342.473 205.056 342.531 205.452 342.406 205.497Z" fill="#FAFAFA"/>
<path d="M365.585 212.139C365.451 212.139 365.461 211.572 365.585 210.933C365.71 210.294 365.959 209.79 366.093 209.817C366.227 209.844 366.218 210.393 366.093 211.032C365.969 211.671 365.719 212.166 365.585 212.139Z" fill="#FAFAFA"/>
<path d="M371.028 222.426C370.903 222.372 371.076 221.706 371.421 220.923C371.766 220.14 372.14 219.555 372.264 219.6C372.389 219.645 372.264 220.32 371.881 221.103C371.498 221.886 371.162 222.471 371.028 222.426Z" fill="#FAFAFA"/>
<path d="M367.147 230.724C367.023 230.778 366.563 230.157 366.122 229.338C365.681 228.519 365.432 227.79 365.557 227.736C365.681 227.682 366.132 228.303 366.572 229.122C367.013 229.941 367.272 230.661 367.147 230.724Z" fill="#FAFAFA"/>
<path d="M375.445 239.022C375.321 238.977 375.445 238.455 375.656 237.861C375.867 237.267 376.202 236.817 376.337 236.862C376.471 236.907 376.337 237.429 376.126 238.023C375.915 238.617 375.618 239.067 375.445 239.022Z" fill="#FAFAFA"/>
<path d="M368.029 247.149C367.914 247.221 367.617 246.978 367.377 246.618C367.138 246.258 367.023 245.898 367.147 245.826C367.272 245.754 367.55 245.997 367.799 246.366C368.048 246.735 368.144 247.086 368.029 247.149Z" fill="#FAFAFA"/>
<path d="M369.61 263.925C369.514 264.006 368.91 263.565 368.278 262.917C367.646 262.269 367.214 261.684 367.32 261.594C367.425 261.504 368.019 261.954 368.652 262.602C369.284 263.25 369.715 263.835 369.61 263.925Z" fill="#FAFAFA"/>
<path d="M379.336 254.286C379.23 254.367 378.703 253.917 378.167 253.269C377.63 252.621 377.285 252.045 377.391 251.964C377.496 251.883 378.023 252.342 378.559 252.981C379.096 253.62 379.451 254.214 379.336 254.286Z" fill="#FAFAFA"/>
<path d="M384.673 267.579C384.548 267.525 384.769 266.85 385.162 266.076C385.555 265.302 385.967 264.708 386.12 264.762C386.273 264.816 386.034 265.5 385.641 266.274C385.248 267.048 384.798 267.642 384.673 267.579Z" fill="#FAFAFA"/>
<path d="M373.328 278.523C373.203 278.586 372.762 278.091 372.149 277.56C371.536 277.029 370.97 276.66 371.028 276.525C371.085 276.39 371.814 276.633 372.484 277.218C373.155 277.803 373.443 278.46 373.328 278.523Z" fill="#FAFAFA"/>
<path d="M374.037 289.8C374.037 289.926 373.558 290.034 372.973 290.034C372.389 290.034 371.919 289.926 371.919 289.8C371.919 289.674 372.389 289.566 372.973 289.566C373.558 289.566 374.037 289.674 374.037 289.8Z" fill="#FAFAFA"/>
<path d="M385.698 286.65C385.574 286.587 385.823 286.02 386.005 285.318C386.187 284.616 386.263 284.004 386.407 283.995C386.551 283.986 386.704 284.643 386.493 285.426C386.283 286.209 385.804 286.722 385.698 286.65Z" fill="#FAFAFA"/>
<path d="M397.283 290.439C397.158 290.484 396.804 289.845 396.497 289.026C396.191 288.207 396.047 287.505 396.171 287.469C396.296 287.433 396.66 288.054 396.967 288.873C397.273 289.692 397.417 290.394 397.283 290.439Z" fill="#FAFAFA"/>
<path d="M395.433 305.919C395.318 305.856 395.615 305.1 396.095 304.227C396.574 303.354 397.053 302.697 397.197 302.76C397.34 302.823 397.024 303.579 396.535 304.443C396.047 305.307 395.558 306 395.433 305.919Z" fill="#FAFAFA"/>
<path d="M384.865 315C384.74 315.045 384.347 314.424 383.983 313.605C383.619 312.786 383.437 312.084 383.571 312.03C383.705 311.976 384.088 312.606 384.443 313.425C384.797 314.244 384.989 315 384.865 315Z" fill="#FAFAFA"/>
<path d="M373.155 318.519C373.155 318.645 372.753 318.753 372.264 318.753C371.775 318.753 371.383 318.645 371.383 318.519C371.383 318.393 371.785 318.285 372.264 318.285C372.743 318.285 373.155 318.393 373.155 318.519Z" fill="#FAFAFA"/>
<path d="M379.863 333C379.738 333 379.47 332.505 379.269 331.821C379.067 331.137 379.029 330.543 379.163 330.516C379.297 330.489 379.556 331.011 379.757 331.695C379.959 332.379 379.997 332.928 379.863 333Z" fill="#FAFAFA"/>
<path d="M371.383 328.14C371.268 328.077 371.383 327.654 371.699 327.195C372.015 326.736 372.331 326.421 372.446 326.484C372.561 326.547 372.446 326.979 372.13 327.438C371.814 327.897 371.507 328.212 371.383 328.14Z" fill="#FAFAFA"/>
<path d="M371.21 344.079C371.076 344.079 370.884 343.476 370.788 342.693C370.693 341.91 370.721 341.271 370.855 341.253C370.99 341.235 371.181 341.856 371.277 342.639C371.373 343.422 371.344 344.061 371.21 344.079Z" fill="#FAFAFA"/>
</svg>
