<svg width="515" height="500" viewBox="0 0 515 500" fill="none" xmlns="http://www.w3.org/2000/svg">
<g clip-path="url(#clip0)">
<path d="M514.563 382.4H0V382.65H514.563V382.4Z" fill="#EBEBEB"/>
<path d="M456.819 391.92H422.734V392.17H456.819V391.92Z" fill="#EBEBEB"/>
<path d="M186.611 395.31H135.299V395.56H186.611V395.31Z" fill="#EBEBEB"/>
<path d="M421.705 401.21H391.315V401.46H421.705V401.21Z" fill="#EBEBEB"/>
<path d="M76.2172 399.53H53.988V399.78H76.2172V399.53Z" fill="#EBEBEB"/>
<path d="M124.864 399.53H85.3762V399.78H124.864V399.53Z" fill="#EBEBEB"/>
<path d="M340.867 389.21H244.459V389.46H340.867V389.21Z" fill="#EBEBEB"/>
<path d="M243.903 337.8H45.189C43.6323 337.797 42.1403 337.195 41.0405 336.124C39.9407 335.053 39.323 333.603 39.323 332.09V60.66C39.3365 59.156 39.9602 57.718 41.0586 56.6582C42.1569 55.5985 43.6412 55.0026 45.189 55H243.903C245.462 55 246.956 55.6016 248.058 56.6724C249.16 57.7433 249.779 59.1956 249.779 60.71V332.09C249.779 333.604 249.16 335.057 248.058 336.128C246.956 337.198 245.462 337.8 243.903 337.8ZM45.189 55.2C43.7005 55.2026 42.274 55.7791 41.2224 56.8027C40.1709 57.8264 39.5803 59.2136 39.5803 60.66V332.09C39.5803 333.536 40.1709 334.924 41.2224 335.947C42.274 336.971 43.7005 337.547 45.189 337.55H243.903C245.392 337.547 246.82 336.971 247.873 335.948C248.926 334.924 249.519 333.537 249.522 332.09V60.66C249.519 59.2127 248.926 57.8255 247.873 56.8021C246.82 55.7787 245.392 55.2026 243.903 55.2H45.189Z" fill="#EBEBEB"/>
<path d="M466.513 337.8H267.789C266.231 337.797 264.738 337.195 263.637 336.125C262.535 335.054 261.915 333.604 261.913 332.09V60.66C261.929 59.1551 262.555 57.7171 263.655 56.6576C264.755 55.5981 266.24 55.0025 267.789 55H466.513C468.059 55.0052 469.541 55.6022 470.637 56.6617C471.733 57.7212 472.355 59.1578 472.369 60.66V332.09C472.369 333.601 471.753 335.05 470.655 336.12C469.557 337.191 468.068 337.795 466.513 337.8ZM267.789 55.2C266.299 55.2026 264.872 55.7787 263.819 56.8021C262.765 57.8255 262.173 59.2127 262.17 60.66V332.09C262.173 333.537 262.765 334.924 263.819 335.948C264.872 336.971 266.299 337.547 267.789 337.55H466.513C468.003 337.547 469.43 336.971 470.483 335.948C471.537 334.924 472.129 333.537 472.132 332.09V60.66C472.129 59.2127 471.537 57.8255 470.483 56.8021C469.43 55.7787 468.003 55.2026 466.513 55.2H267.789Z" fill="#EBEBEB"/>
<path d="M111.876 214.65L390.986 214.65V82.1902L111.876 82.1902V214.65Z" fill="#E6E6E6"/>
<path d="M106.648 214.65L388.547 214.65V82.1902L106.648 82.1902V214.65Z" fill="#F0F0F0"/>
<path d="M111.876 224.09L390.986 224.09V214.65L111.876 214.65V224.09Z" fill="#E6E6E6"/>
<path d="M97.9318 224.09L379.83 224.09V214.65L97.9318 214.65V224.09Z" fill="#F0F0F0"/>
<path d="M381.229 207.55V89.3101L113.965 89.3101V207.55H381.229Z" fill="#FAFAFA"/>
<path d="M187.476 207.55L175.765 89.3101H155.491L167.202 207.55H187.476Z" fill="white"/>
<path d="M343.543 207.55L331.821 89.3101H311.547L323.269 207.55H343.543Z" fill="white"/>
<path d="M377.844 167.47C377.992 167.468 378.133 167.408 378.237 167.306C378.341 167.203 378.399 167.064 378.399 166.92V93.9201C378.41 93.8424 378.404 93.7633 378.381 93.6881C378.357 93.6129 378.318 93.5434 378.265 93.4843C378.212 93.4252 378.146 93.3779 378.073 93.3454C377.999 93.3129 377.919 93.2961 377.838 93.2961C377.758 93.2961 377.678 93.3129 377.604 93.3454C377.531 93.3779 377.465 93.4252 377.412 93.4843C377.359 93.5434 377.32 93.6129 377.296 93.6881C377.273 93.7633 377.267 93.8424 377.278 93.9201V166.92C377.278 166.992 377.292 167.064 377.321 167.131C377.349 167.197 377.391 167.258 377.443 167.309C377.496 167.36 377.558 167.401 377.627 167.428C377.696 167.456 377.769 167.47 377.844 167.47Z" fill="#F0F0F0"/>
<path d="M162.849 207.55L151.127 89.3101H143.224L154.945 207.55H162.849Z" fill="white"/>
<path d="M114.892 207.55L114.892 89.3101H113.965L113.965 207.55H114.892Z" fill="#E6E6E6"/>
<path opacity="0.5" d="M104.919 102.2H384.029L384.698 92.0703H105.588L104.919 102.2Z" fill="#E0E0E0"/>
<path opacity="0.5" d="M104.919 118.85H384.029L384.698 108.72H105.588L104.919 118.85Z" fill="#E0E0E0"/>
<path opacity="0.5" d="M104.919 135.5H384.029L384.698 125.37H105.588L104.919 135.5Z" fill="#E0E0E0"/>
<path opacity="0.5" d="M104.919 152.15H384.029L384.698 142.02H105.588L104.919 152.15Z" fill="#E0E0E0"/>
<path opacity="0.5" d="M104.919 168.8H384.029L384.698 158.67H105.588L104.919 168.8Z" fill="#E0E0E0"/>
<path opacity="0.5" d="M104.919 185.45H384.029L384.698 175.32H105.588L104.919 185.45Z" fill="#E0E0E0"/>
<path d="M272.348 382.4H289.905V268.36H272.348V382.4Z" fill="#E6E6E6"/>
<path d="M276.958 382.4H272.348V366.87H281.806L276.958 382.4Z" fill="#F0F0F0"/>
<path d="M434.26 382.4H451.817V268.36H434.26V382.4Z" fill="#E6E6E6"/>
<path d="M272.338 372.87H438.274V268.36H272.338V372.87Z" fill="#F0F0F0"/>
<path d="M275.919 301.64H434.693V272.98H275.919V301.64Z" fill="#E6E6E6"/>
<path d="M303.592 281.89H403.932C408.44 281.89 412.741 278.36 415.839 272.11H291.685C294.783 278.36 299.085 281.89 303.592 281.89Z" fill="#F0F0F0"/>
<path d="M433.664 382.4H438.284V366.87H428.827L433.664 382.4Z" fill="#F0F0F0"/>
<path d="M275.919 334.94H434.693V306.28H275.919V334.94Z" fill="#E6E6E6"/>
<path d="M303.592 315.19H403.932C408.44 315.19 412.741 311.65 415.839 305.41H291.685C294.783 311.65 299.085 315.19 303.592 315.19Z" fill="#F0F0F0"/>
<path d="M275.919 368.24H434.693V339.58H275.919V368.24Z" fill="#E6E6E6"/>
<path d="M303.592 348.48H403.932C408.44 348.48 412.741 344.94 415.839 338.7H291.685C294.783 344.94 299.085 348.48 303.592 348.48Z" fill="#F0F0F0"/>
<path d="M156.746 233.17H136.39C133.81 233.17 131.718 235.203 131.718 237.71V245.31C131.718 247.817 133.81 249.85 136.39 249.85H156.746C159.327 249.85 161.418 247.817 161.418 245.31V237.71C161.418 235.203 159.327 233.17 156.746 233.17Z" fill="#F5F5F5"/>
<path d="M193.908 233.17H173.552C170.971 233.17 168.88 235.203 168.88 237.71V245.31C168.88 247.817 170.971 249.85 173.552 249.85H193.908C196.488 249.85 198.58 247.817 198.58 245.31V237.71C198.58 235.203 196.488 233.17 193.908 233.17Z" fill="#F5F5F5"/>
<path d="M84.8823 229.83C84.8823 229.83 85.5924 249.83 112.741 249.83C139.889 249.83 140.589 229.83 140.589 229.83H84.8823Z" fill="#F0F0F0"/>
<path d="M201.637 375.88H231.522L231.522 256.15H201.637V375.88Z" fill="#F0F0F0"/>
<path d="M78.4194 382.4H225.79V375.88H78.4194V382.4Z" fill="#F0F0F0"/>
<path d="M201.637 256.14H72.677V375.87H201.637V256.14Z" fill="#F5F5F5"/>
<path d="M189.894 302.21H84.4294V329.81H189.894V302.21Z" fill="#F0F0F0"/>
<path d="M189.894 335.97H84.4294V363.57H189.894V335.97Z" fill="#F0F0F0"/>
<path d="M124.782 305.91H149.532C150.162 305.907 150.765 305.663 151.21 305.23C151.655 304.798 151.907 304.212 151.909 303.6C151.909 302.986 151.659 302.398 151.214 301.963C150.768 301.528 150.163 301.282 149.532 301.28H124.782C124.15 301.282 123.545 301.528 123.1 301.963C122.654 302.398 122.404 302.986 122.404 303.6C122.407 304.212 122.658 304.798 123.104 305.23C123.549 305.663 124.152 305.907 124.782 305.91Z" fill="#F5F5F5"/>
<path d="M189.894 268.46H84.4294V296.06H189.894V268.46Z" fill="#F0F0F0"/>
<path d="M124.782 272.16H149.532C150.163 272.157 150.768 271.912 151.214 271.477C151.659 271.042 151.909 270.453 151.909 269.84C151.907 269.228 151.655 268.642 151.21 268.209C150.765 267.777 150.162 267.532 149.532 267.53H124.782C124.152 267.532 123.549 267.777 123.104 268.209C122.658 268.642 122.407 269.228 122.404 269.84C122.404 270.453 122.654 271.042 123.1 271.477C123.545 271.912 124.15 272.157 124.782 272.16Z" fill="#F5F5F5"/>
<path d="M124.782 339.66H149.532C150.845 339.66 151.909 338.625 151.909 337.35V337.34C151.909 336.064 150.845 335.03 149.532 335.03H124.782C123.469 335.03 122.404 336.064 122.404 337.34V337.35C122.404 338.625 123.469 339.66 124.782 339.66Z" fill="#F5F5F5"/>
<path d="M68.6942 256.14H201.637V249.84L68.6942 249.84V256.14Z" fill="#F0F0F0"/>
<path d="M235.701 249.85H201.637V256.15H235.701V249.85Z" fill="#E6E6E6"/>
<path d="M401.112 183.19L393.733 172.33C393.991 235.19 395.082 238.81 395.051 249.63H400.968C401.791 197 404.076 196.69 401.112 183.19Z" fill="#E0E0E0"/>
<path d="M398.272 268.35C415.242 268.35 429.557 261.66 433.036 252.61C433.926 250.134 435.143 247.781 436.658 245.61L436.926 245.24H359.597L359.865 245.61C361.387 247.778 362.608 250.132 363.498 252.61C366.976 261.66 381.291 268.35 398.272 268.35Z" fill="#FAFAFA"/>
<path d="M359.443 247.48H437.08C438.129 247.477 439.147 247.137 439.975 246.513C440.804 245.889 441.396 245.016 441.66 244.03C441.839 243.351 441.855 242.642 441.709 241.956C441.562 241.27 441.257 240.625 440.815 240.071C440.373 239.518 439.807 239.069 439.16 238.761C438.513 238.452 437.801 238.291 437.08 238.29H359.443C358.721 238.289 358.009 238.449 357.361 238.757C356.712 239.065 356.145 239.513 355.703 240.068C355.261 240.622 354.955 241.267 354.81 241.954C354.664 242.641 354.683 243.351 354.863 244.03C355.124 245.017 355.715 245.893 356.545 246.517C357.374 247.142 358.394 247.481 359.443 247.48Z" fill="#F0F0F0"/>
<path d="M398.879 174.44C397.407 157.44 379.408 155.76 345.735 147.75C362.252 194 404.447 238.47 398.879 174.44Z" fill="#E0E0E0"/>
<path d="M394.001 165.51C391.51 152.01 394.114 137.7 433.108 139.1C423.341 176.27 405.589 228.19 394.001 165.51Z" fill="#E0E0E0"/>
<path d="M395.771 198.47C396.955 182.92 409.284 164.47 449.646 177.74C431.698 207.92 392.91 236 395.771 198.47Z" fill="#E0E0E0"/>
<path d="M257.282 427.56C367.483 427.56 456.819 422.492 456.819 416.24C456.819 409.988 367.483 404.92 257.282 404.92C147.08 404.92 57.7444 409.988 57.7444 416.24C57.7444 422.492 147.08 427.56 257.282 427.56Z" fill="#F5F5F5"/>
<path d="M138.675 276.24H264.959V269.62H138.675V276.24Z" fill="#219EBC"/>
<path opacity="0.5" d="M138.675 276.24H264.959V269.62H138.675V276.24Z" fill="white"/>
<path d="M138.675 269.62H80.8481V276.24H138.675V269.62Z" fill="#219EBC"/>
<path opacity="0.5" d="M138.675 269.62H80.8481V276.24H138.675V269.62Z" fill="white"/>
<path opacity="0.2" d="M138.675 269.62H80.8481V276.24H138.675V269.62Z" fill="black"/>
<path d="M84.7587 283.3H261.069L262.581 276.24H83.2356L84.7587 283.3Z" fill="#219EBC"/>
<path opacity="0.6" d="M84.7587 283.3H261.069L262.581 276.24H83.2356L84.7587 283.3Z" fill="black"/>
<path d="M242.76 283.3V412.53H238.778L233.756 283.3H242.76Z" fill="#219EBC"/>
<path opacity="0.5" d="M242.76 283.3V412.53H238.778L233.756 283.3H242.76Z" fill="white"/>
<path d="M195.688 283.3V412.53H191.706L186.684 283.3H195.688Z" fill="#219EBC"/>
<path opacity="0.5" d="M195.688 283.3V412.53H191.706L186.684 283.3H195.688Z" fill="white"/>
<path d="M93.6401 283.3V412.53H97.6229L102.645 283.3H93.6401Z" fill="#219EBC"/>
<path opacity="0.5" d="M93.6401 283.3V412.53H97.6229L102.645 283.3H93.6401Z" fill="white"/>
<path d="M140.712 283.3V412.53H144.695L149.717 283.3H140.712Z" fill="#219EBC"/>
<path opacity="0.5" d="M140.712 283.3V412.53H144.695L149.717 283.3H140.712Z" fill="white"/>
<path d="M408.882 186.54C411.136 190.81 413.205 195.07 415.191 199.43C417.177 203.79 419.019 208.2 420.717 212.74C421.119 213.9 421.551 215.02 421.921 216.21L422.209 217.09L422.364 217.53C422.364 217.68 422.518 218.05 422.58 218.3C422.804 219.284 422.88 220.295 422.806 221.3C422.656 222.913 422.243 224.493 421.582 225.98C421.039 227.251 420.389 228.475 419.637 229.64C416.846 233.866 413.414 237.659 409.459 240.89L405.661 237.51C408.211 233.856 410.452 230.007 412.361 226C412.764 225.099 413.108 224.174 413.39 223.23C413.608 222.524 413.702 221.787 413.668 221.05C413.669 220.893 413.63 220.739 413.555 220.6C413.555 220.6 413.554 220.65 413.503 220.53L413.349 220.14L413.03 219.36C412.618 218.36 412.134 217.28 411.681 216.23C409.829 212.04 407.822 207.85 405.774 203.66L399.6 191.11L408.882 186.54Z" fill="#FF8B7B"/>
<path d="M406.793 236.3L402.131 238.24L406.772 244.49C406.772 244.49 410.148 242.65 410.57 239.44L406.793 236.3Z" fill="#FF8B7B"/>
<path d="M395.823 241.36L400.958 246.04L406.772 244.49L402.131 238.24L395.823 241.36Z" fill="#FF8B7B"/>
<path d="M376.732 155.19C376.619 155.72 376.249 156.09 375.888 156.02C375.528 155.95 375.343 155.46 375.446 154.94C375.549 154.42 375.94 154.04 376.29 154.11C376.64 154.18 376.846 154.66 376.732 155.19Z" fill="#263238"/>
<path d="M376.3 156.1C375.314 157.584 374.123 158.93 372.76 160.1C373.074 160.434 373.461 160.696 373.891 160.869C374.321 161.042 374.785 161.121 375.25 161.1L376.3 156.1Z" fill="#ED847E"/>
<path d="M379.336 152.66C379.289 152.658 379.243 152.648 379.201 152.629C379.159 152.61 379.121 152.583 379.089 152.55C378.82 152.253 378.484 152.022 378.107 151.874C377.73 151.727 377.323 151.667 376.917 151.7C376.876 151.707 376.833 151.706 376.791 151.697C376.75 151.688 376.71 151.672 376.675 151.648C376.64 151.624 376.611 151.594 376.588 151.559C376.565 151.524 376.549 151.485 376.542 151.445C376.534 151.404 376.535 151.362 376.544 151.322C376.554 151.282 376.571 151.243 376.595 151.209C376.62 151.176 376.651 151.147 376.686 151.124C376.722 151.102 376.762 151.087 376.804 151.08C377.314 151.02 377.832 151.079 378.313 151.253C378.795 151.427 379.227 151.711 379.573 152.08C379.614 152.125 379.64 152.181 379.65 152.241C379.659 152.301 379.651 152.362 379.626 152.417C379.602 152.473 379.561 152.52 379.51 152.554C379.458 152.588 379.398 152.608 379.336 152.61V152.66Z" fill="#263238"/>
<path d="M392.18 162.6C391.15 167.48 390.214 176.41 393.723 179.67C393.723 179.67 392.354 184.61 383.031 184.61C372.739 184.61 378.132 179.67 378.132 179.67C383.72 178.37 383.576 174.33 382.609 170.54L392.18 162.6Z" fill="#FF8B7B"/>
<path d="M396.131 181.22C396.883 179.66 397.726 177.87 395.843 177.39C393.785 176.86 382.516 176.63 378.688 177.91C374.859 179.19 376.084 182.25 376.084 182.25L396.131 181.22Z" fill="#219EBC"/>
<path d="M375.477 409C374.602 409 373.748 408.88 373.418 408.49C373.347 408.388 373.308 408.268 373.308 408.145C373.308 408.021 373.347 407.901 373.418 407.8C373.475 407.708 373.549 407.628 373.638 407.565C373.726 407.501 373.826 407.455 373.933 407.43C375.075 407.13 377.473 408.43 377.566 408.52C377.595 408.534 377.619 408.558 377.634 408.586C377.649 408.615 377.654 408.648 377.648 408.68C377.643 408.711 377.629 408.74 377.607 408.763C377.585 408.786 377.556 408.802 377.525 408.81C376.849 408.927 376.164 408.991 375.477 409ZM374.396 407.7C374.29 407.684 374.183 407.684 374.077 407.7C374.011 407.712 373.948 407.738 373.893 407.776C373.838 407.814 373.792 407.863 373.758 407.92C373.645 408.12 373.686 408.21 373.758 408.27C374.077 408.7 375.816 408.71 377.082 408.53C376.246 408.103 375.335 407.835 374.396 407.74V407.7Z" fill="#219EBC"/>
<path d="M377.556 408.85H377.484C376.66 408.49 375.014 407.04 375.137 406.29C375.137 406.11 375.302 405.89 375.744 405.85C375.906 405.834 376.07 405.849 376.225 405.895C376.381 405.942 376.525 406.018 376.65 406.12C377.266 406.848 377.626 407.749 377.679 408.69C377.683 408.716 377.679 408.743 377.668 408.768C377.657 408.793 377.64 408.814 377.617 408.83L377.556 408.85ZM375.878 406.15H375.775C375.487 406.15 375.467 406.29 375.467 406.33C375.384 406.78 376.496 407.92 377.35 408.41C377.267 407.651 376.951 406.933 376.444 406.35C376.284 406.223 376.085 406.153 375.878 406.15Z" fill="#219EBC"/>
<path d="M385.099 408.69H378.235L377.556 393.26H384.41L385.099 408.69Z" fill="#FF8B7B"/>
<path d="M434.538 401.34L427.715 402.06L422.57 387.07L429.393 386.35L434.538 401.34Z" fill="#FF8B7B"/>
<path d="M424.597 403.57C423.743 403.79 422.889 403.88 422.539 403.57C422.442 403.489 422.375 403.381 422.345 403.261C422.316 403.14 422.326 403.014 422.374 402.9C422.405 402.797 422.457 402.701 422.528 402.618C422.599 402.535 422.687 402.468 422.786 402.42C423.815 401.85 426.47 402.56 426.583 402.59C426.615 402.599 426.644 402.617 426.666 402.642C426.688 402.667 426.702 402.697 426.707 402.73C426.709 402.762 426.701 402.795 426.685 402.823C426.668 402.851 426.644 402.875 426.614 402.89C425.965 403.178 425.29 403.405 424.597 403.57ZM423.218 402.57C423.115 402.597 423.015 402.634 422.919 402.68C422.86 402.709 422.808 402.75 422.765 402.8C422.723 402.85 422.691 402.908 422.672 402.97C422.611 403.19 422.672 403.27 422.724 403.32C423.146 403.66 424.834 403.25 426.017 402.78C425.106 402.537 424.155 402.469 423.218 402.58V402.57Z" fill="#219EBC"/>
<path d="M426.563 402.9C426.563 402.9 426.511 402.9 426.491 402.9C425.595 402.75 423.64 401.75 423.578 400.99C423.578 400.81 423.63 400.56 424.052 400.41C424.2 400.349 424.359 400.317 424.52 400.317C424.681 400.317 424.84 400.349 424.988 400.41C426.017 400.88 426.645 402.57 426.676 402.64C426.691 402.664 426.7 402.692 426.7 402.72C426.7 402.748 426.691 402.776 426.676 402.8L426.563 402.9ZM424.257 400.68H424.154C423.887 400.78 423.897 400.89 423.897 400.93C423.897 401.38 425.307 402.21 426.254 402.49C425.988 401.773 425.499 401.154 424.854 400.72C424.667 400.634 424.454 400.62 424.257 400.68Z" fill="#219EBC"/>
<path d="M427.324 401.44L434.724 399.35C434.854 399.311 434.994 399.318 435.12 399.369C435.246 399.42 435.35 399.512 435.413 399.63L438.408 405C438.476 405.131 438.513 405.274 438.518 405.421C438.522 405.567 438.494 405.713 438.434 405.848C438.374 405.982 438.284 406.102 438.171 406.199C438.058 406.297 437.925 406.368 437.78 406.41C435.187 407.1 433.89 407.31 430.638 408.22C428.631 408.79 424.566 410.16 421.798 410.94C419.029 411.72 417.877 409.16 418.937 408.6C423.691 406.09 425.163 404.06 426.357 402.19C426.569 401.829 426.915 401.561 427.324 401.44Z" fill="#263238"/>
<path d="M378.276 407.92H385.768C385.905 407.919 386.039 407.965 386.146 408.049C386.252 408.132 386.326 408.249 386.355 408.38L387.713 414.3C387.742 414.446 387.737 414.597 387.699 414.741C387.66 414.885 387.589 415.019 387.491 415.133C387.392 415.247 387.268 415.339 387.129 415.4C386.989 415.462 386.837 415.493 386.684 415.49C383.977 415.44 380.077 415.29 376.681 415.29C372.708 415.29 370.506 415.5 365.885 415.5C363.066 415.5 362.294 412.73 363.467 412.5C368.839 411.36 371.947 411.24 376.588 408.5C377.082 408.154 377.668 407.953 378.276 407.92Z" fill="#263238"/>
<path d="M373.336 191.75C372.43 194.09 371.453 196.14 370.403 198.28C369.353 200.42 368.232 202.47 367.028 204.53C364.588 208.754 361.686 212.711 358.373 216.33C357.93 216.79 357.477 217.25 357.004 217.7C356.777 217.92 356.541 218.15 356.294 218.37L355.491 219.08C354.722 219.75 353.802 220.237 352.805 220.5C352.077 220.686 351.318 220.73 350.572 220.63C350.2 220.583 349.835 220.499 349.481 220.38C349.169 220.272 348.867 220.142 348.575 219.99C347.789 219.569 347.105 218.989 346.569 218.29C346.227 217.863 345.93 217.404 345.683 216.92C345.037 215.6 344.553 214.21 344.243 212.78C343.965 211.52 343.78 210.32 343.615 209.13C343.052 204.484 342.914 199.799 343.203 195.13L348.349 194.77C349.378 199.08 350.407 203.48 351.56 207.56C351.848 208.56 352.188 209.56 352.527 210.48C352.777 211.238 353.123 211.964 353.556 212.64C353.618 212.72 353.68 212.76 353.639 212.64C353.453 212.387 353.206 212.184 352.918 212.05C352.757 211.963 352.588 211.889 352.414 211.83C352.197 211.754 351.973 211.701 351.745 211.67C351.288 211.61 350.824 211.634 350.376 211.74C349.935 211.844 349.521 212.038 349.162 212.31L349.604 211.83C349.779 211.66 349.944 211.48 350.109 211.29C350.438 210.93 350.757 210.54 351.076 210.16C353.686 206.843 355.99 203.309 357.961 199.6C358.99 197.72 360.019 195.78 360.956 193.84C361.892 191.9 362.839 189.84 363.662 188.02L373.336 191.75Z" fill="#FF8B7B"/>
<path d="M406.011 181.17C412.443 182.61 418.937 200.87 418.937 200.87L405.702 210.1C405.702 210.1 402.008 201.59 398.365 194.15C394.557 186.35 399.435 179.71 406.011 181.17Z" fill="#263238"/>
<path d="M367.573 181.52C367.573 181.52 360.277 189.52 367.172 239.13H403.86C404.117 233.66 400.577 206.96 406.011 181.13C401.953 180.374 397.848 179.873 393.723 179.63C388.531 179.335 383.325 179.335 378.132 179.63C374.567 179.992 371.037 180.624 367.573 181.52Z" fill="#263238"/>
<path d="M376.66 188.27C378.966 194.27 368.427 210.15 368.427 210.15L352.764 201C356.753 196.584 360.177 191.715 362.963 186.5C368.036 176.24 374.808 183.44 376.66 188.27Z" fill="#263238"/>
<path d="M344.963 198.09L338.387 195.4L341.814 190.19C341.814 190.19 346.476 190.67 348.195 193.65C348.44 194.085 348.511 194.592 348.393 195.075C348.275 195.557 347.977 195.979 347.557 196.26L344.963 198.09Z" fill="#FF8B7B"/>
<path d="M333.046 191.5L338.788 187.81L341.814 190.19L338.387 195.4L333.046 191.5Z" fill="#FF8B7B"/>
<path opacity="0.2" d="M377.556 393.26L377.906 401.22H384.77L384.42 393.26H377.556Z" fill="black"/>
<path opacity="0.2" d="M429.393 386.36L422.57 387.08L425.431 395.39L432.048 394.08L429.393 386.36Z" fill="black"/>
<path d="M395.051 157.64C393.291 164.03 392.591 167.86 388.536 170.52C382.434 174.52 374.828 169.93 374.592 163.16C374.376 157.06 377.298 147.63 384.358 146.35C385.913 146.054 387.519 146.15 389.024 146.629C390.53 147.108 391.883 147.955 392.956 149.087C394.029 150.22 394.785 151.601 395.151 153.098C395.518 154.595 395.483 156.159 395.051 157.64Z" fill="#FF8B7B"/>
<path d="M399.353 153.88C400.258 154.09 402.1 153.96 403.757 150.32C406.052 145.32 395.977 146.72 395.977 146.72C395.977 146.72 405.239 142.64 397.336 138.72C392.19 136.17 390.255 138.53 389.555 140.47C389.761 138.47 389.257 135.81 384.533 137.22C377.329 139.36 382.526 144.9 382.526 144.9C381.768 144.374 380.844 144.123 379.916 144.191C378.987 144.258 378.112 144.64 377.443 145.27C375.137 147.27 376.949 150.1 379.171 152.62C377.844 154.44 377.268 156.62 380.828 157.43C381.465 157.543 382.041 157.867 382.46 158.346C382.878 158.826 383.113 159.431 383.123 160.06C383.123 163.47 383.257 166.25 385.696 168.43C388.135 170.61 396.636 167.5 396.204 162.63C398.274 162.416 400.243 161.651 401.895 160.42C406.279 157.09 401.133 154.59 399.353 153.88Z" fill="#263238"/>
<path d="M385.675 157.75C384.973 159.246 383.783 160.476 382.29 161.25C380.314 162.25 379.202 160.79 379.655 158.87C380.056 157.14 381.569 154.54 383.597 154.33C385.624 154.12 386.488 155.94 385.675 157.75Z" fill="#FF8B7B"/>
<path d="M380.19 239.13C380.19 239.13 387.97 290.08 392.241 309.13C396.924 330.03 421.54 394.02 421.54 394.02L433.89 391.81C433.89 391.81 415.489 331.72 412.813 311.03C409.922 288.57 403.85 239.1 403.85 239.1L380.19 239.13Z" fill="#219EBC"/>
<path opacity="0.2" d="M385.109 257.28C394.155 259 393.126 291.62 392.097 308.4C389.493 296.54 385.696 273.72 383.103 257.52C383.725 257.223 384.432 257.139 385.109 257.28Z" fill="black"/>
<path d="M367.172 239.13C367.172 239.13 366.225 288.97 366.976 309.3C367.748 330.44 375.343 399.68 375.343 399.68H386.952C386.952 399.68 387.374 331.68 387.888 310.91C388.454 288.28 391.274 239.13 391.274 239.13H367.172Z" fill="#219EBC"/>
<path d="M418.731 390C418.68 390 420.882 394.38 420.882 394.38L434.786 391.9L433.756 387.83L418.731 390Z" fill="#263238"/>
<path d="M373.11 395.18C373.058 395.18 373.768 399.87 373.768 399.87H387.909L388.289 395.68L373.11 395.18Z" fill="#263238"/>
<path d="M256.664 408.4H264.033L263.981 391.84H256.623L256.664 408.4Z" fill="#7F3E3B"/>
<path d="M217.557 408.4H224.915L227.354 391.84H219.986L217.557 408.4Z" fill="#7F3E3B"/>
<path d="M225.379 407.58H217.146C217.003 407.576 216.863 407.624 216.755 407.715C216.647 407.805 216.577 407.932 216.559 408.07L215.592 414.42C215.573 414.58 215.589 414.743 215.639 414.897C215.69 415.052 215.773 415.194 215.884 415.315C215.994 415.435 216.13 415.532 216.282 415.598C216.434 415.665 216.598 415.699 216.765 415.7C219.657 415.65 221.046 415.48 224.679 415.48C226.922 415.48 231.543 415.71 234.63 415.71C237.718 415.71 237.903 412.71 236.617 412.47C230.854 411.27 228.589 409.6 226.644 408.02C226.294 407.725 225.842 407.568 225.379 407.58Z" fill="#263238"/>
<path d="M263.94 407.58H255.902C255.758 407.578 255.617 407.626 255.506 407.716C255.394 407.806 255.32 407.931 255.295 408.07L254.194 414.42C254.168 414.571 254.174 414.725 254.213 414.873C254.251 415.021 254.321 415.16 254.418 415.28C254.515 415.401 254.637 415.5 254.775 415.573C254.914 415.645 255.066 415.688 255.223 415.7C258.115 415.65 262.304 415.48 265.947 415.48C270.207 415.48 273.902 415.71 278.893 415.71C281.919 415.71 282.618 412.71 281.342 412.47C275.528 411.25 270.814 411.12 265.7 408.13C265.173 407.8 264.566 407.61 263.94 407.58Z" fill="#263238"/>
<path d="M258.311 182.14L268.365 179.01C268.365 179.01 277.627 203.69 280.303 206.3C283.925 209.85 289.112 219.3 291.973 224.54C291.644 225.71 289.915 228.43 288.886 228.94C281.795 224 272.368 214.58 270.362 210.43C265.792 201 258.311 182.14 258.311 182.14Z" fill="#7F3E3B"/>
<path d="M255.985 176.76C252.609 182.76 264.506 202.9 264.506 202.9L279.521 196.14C279.521 196.14 276.084 186.73 272.08 178.67C268.273 171 259.731 170.12 255.985 176.76Z" fill="#219EBC"/>
<path d="M291.335 223.54L298.91 228.01L293.301 235.49C290.961 233.186 288.997 230.549 287.476 227.67L291.335 223.54Z" fill="#7F3E3B"/>
<path d="M304.456 234.31L299.568 237.73L293.311 235.49L298.909 228.01L304.456 234.31Z" fill="#7F3E3B"/>
<path opacity="0.2" d="M263.981 391.84L264.002 400.38H256.643L256.613 391.84H263.981Z" fill="black"/>
<path opacity="0.2" d="M219.986 391.84H227.354L226.099 400.38H218.73L219.986 391.84Z" fill="black"/>
<path d="M265.607 172.7C265.607 172.7 274.869 197.29 267.604 237.52H228.229C227.807 231.64 230.884 200.01 224.349 172.34C228.689 171.522 233.079 170.981 237.491 170.72C243.068 170.405 248.659 170.405 254.235 170.72C258.072 171.097 261.874 171.759 265.607 172.7Z" fill="#219EBC"/>
<path d="M244.86 172.84C244.86 172.84 251.508 181.26 250.108 237.52H257.415C257.415 237.52 260.184 189.36 252.023 172.35C249.625 172.317 247.229 172.481 244.86 172.84Z" fill="white"/>
<path opacity="0.2" d="M233.076 179.17C233.848 183.72 232.644 194.62 228.497 207.17C228.295 196.383 227.114 185.635 224.967 175.05V175C227.55 174.78 232.346 174.9 233.076 179.17Z" fill="black"/>
<path d="M239.292 155.51C240.486 160.74 241.175 167.23 237.491 170.72C237.491 170.72 239.786 176.03 249.841 176.03C258.99 176.03 254.276 170.72 254.276 170.72C248.235 169.33 248.359 162.11 249.306 158.04L239.292 155.51Z" fill="#7F3E3B"/>
<path d="M237.491 170.27C240.767 173.122 244.75 175.096 249.048 176C247.289 177.16 245.024 181.32 245.024 181.32C245.024 181.32 236.524 178.17 234.857 170.65C235.67 170.48 237.491 170.27 237.491 170.27Z" fill="#219EBC"/>
<path opacity="0.3" d="M237.491 170.27C240.767 173.122 244.75 175.096 249.048 176C247.289 177.16 245.024 181.32 245.024 181.32C245.024 181.32 236.524 178.17 234.857 170.65C235.67 170.48 237.491 170.27 237.491 170.27Z" fill="black"/>
<path d="M253.463 170.07C253.463 170.07 255.799 174.84 251.518 175.95C253.645 176.991 255.428 178.592 256.664 180.57C256.664 180.57 259.69 174.7 256.057 170.47C255.275 170.28 253.463 170.07 253.463 170.07Z" fill="#219EBC"/>
<path opacity="0.3" d="M253.463 170.07C253.463 170.07 255.799 174.84 251.518 175.95C253.645 176.991 255.428 178.592 256.664 180.57C256.664 180.57 259.69 174.7 256.057 170.47C255.275 170.28 253.463 170.07 253.463 170.07Z" fill="black"/>
<path opacity="0.2" d="M249.275 158.05C248.531 160.88 248.62 163.856 249.532 166.64C248.677 167.035 247.721 167.174 246.784 167.04C244.582 166.61 243.254 165.63 241.422 162.04C241.268 161.12 239.498 156.43 239.302 155.55L249.275 158.05Z" fill="black"/>
<path d="M257.333 150.15C257.429 151.021 257.344 151.902 257.082 152.74C256.82 153.579 256.388 154.357 255.81 155.03C254.256 156.81 252.074 155.76 251.343 153.63C250.674 151.72 250.685 148.48 252.815 147.48C253.289 147.268 253.81 147.173 254.331 147.202C254.852 147.232 255.358 147.385 255.804 147.649C256.25 147.912 256.623 148.278 256.889 148.714C257.156 149.15 257.308 149.643 257.333 150.15Z" fill="#7F3E3B"/>
<path opacity="0.2" d="M257.333 150.15C257.429 151.021 257.344 151.902 257.082 152.74C256.82 153.579 256.388 154.357 255.81 155.03C254.256 156.81 252.074 155.76 251.343 153.63C250.674 151.72 250.685 148.48 252.815 147.48C253.289 147.268 253.81 147.173 254.331 147.202C254.852 147.232 255.358 147.385 255.804 147.649C256.25 147.912 256.623 148.278 256.889 148.714C257.156 149.15 257.308 149.643 257.333 150.15Z" fill="black"/>
<path d="M234.342 149.89C237.347 156.43 237.79 160.1 242.225 162.89C248.904 167.12 256.86 162.09 256.849 154.79C256.849 148.23 253.35 138.23 245.776 136.79C237.491 135.28 230.524 141.54 234.342 149.89Z" fill="#7F3E3B"/>
<path d="M233.2 156C234.318 157.313 235.846 158.237 237.553 158.63C239.611 159.05 239.972 157.1 238.778 155.18C237.697 153.45 235.793 150.09 233.498 151.61C231.975 152.66 231.728 154.36 233.2 156Z" fill="#7F3E3B"/>
<path d="M257.508 154.83C257.734 159.25 262.283 164.83 254.122 166.1C249.862 166.752 245.505 165.843 241.896 163.55C238.325 161.4 237.265 155.34 234.496 151.28C234.373 151.13 234.435 150.95 234.579 150.77C234.745 150.585 234.955 150.443 235.19 150.355C235.426 150.266 235.679 150.234 235.93 150.262C236.181 150.289 236.421 150.375 236.63 150.513C236.839 150.65 237.011 150.834 237.131 151.05C238.057 152.62 239.786 154.91 242.112 155.05C245.673 155.32 257.281 150.31 257.508 154.83Z" fill="#263238"/>
<path d="M241.721 237.52C241.721 237.52 242.75 246.52 243.954 258.71C245.395 272.52 247.175 290.46 248.307 304.13C248.302 304.19 248.302 304.25 248.307 304.31C248.523 306.91 248.709 309.31 248.873 311.57C250.469 333.86 254.184 398.73 254.184 398.73H266.657C266.657 398.73 271.494 332.53 271.267 309.84C271.061 288 267.573 237.52 267.573 237.52H241.721Z" fill="#263238"/>
<path d="M253.165 394.47C253.103 394.47 253.35 398.98 253.35 398.98H267.758L268.149 393.91L253.165 394.47Z" fill="#219EBC"/>
<path opacity="0.2" d="M243.954 258.71C245.395 272.52 247.175 290.46 248.307 304.13C248.302 304.19 248.302 304.25 248.307 304.31C251.076 291.36 253.607 279.56 250.89 260.31L243.954 258.71Z" fill="black"/>
<path d="M253.628 237.52C253.628 237.52 249.337 289.21 246.321 309.69C243.018 332.12 229.402 398.69 229.402 398.69H215.911C215.911 398.69 223.228 333.89 224.391 311.69C225.656 287.59 228.219 237.49 228.219 237.49L253.628 237.52Z" fill="#263238"/>
<path d="M215.53 394.33C215.478 394.33 215.262 398.98 215.262 398.98H230.082L231.111 394.19L215.53 394.33Z" fill="#219EBC"/>
<path d="M245.961 148.81C246.105 149.37 246.517 149.81 246.898 149.69C247.278 149.57 247.464 149.08 247.33 148.52C247.196 147.96 246.774 147.52 246.393 147.64C246.012 147.76 245.827 148.24 245.961 148.81Z" fill="#263238"/>
<path d="M252.465 147.43C252.609 148 253.021 148.43 253.402 148.31C253.782 148.19 253.968 147.71 253.834 147.14C253.7 146.57 253.278 146.14 252.897 146.26C252.517 146.38 252.331 146.86 252.465 147.43Z" fill="#263238"/>
<path d="M250.469 148.15C251.578 149.733 252.9 151.166 254.4 152.41C254.073 152.769 253.668 153.054 253.214 153.242C252.76 153.431 252.269 153.519 251.776 153.5L250.469 148.15Z" fill="#630F0F"/>
<path d="M250.489 157.37C250.512 157.364 250.533 157.354 250.551 157.34C250.569 157.327 250.585 157.31 250.596 157.29C250.608 157.27 250.615 157.249 250.618 157.227C250.621 157.204 250.619 157.182 250.613 157.16C250.598 157.117 250.568 157.082 250.529 157.059C250.489 157.037 250.442 157.03 250.397 157.04C249.68 157.226 248.929 157.246 248.203 157.099C247.478 156.951 246.798 156.64 246.218 156.19C246.203 156.174 246.185 156.162 246.164 156.154C246.144 156.145 246.122 156.141 246.1 156.141C246.078 156.141 246.056 156.145 246.036 156.154C246.016 156.162 245.997 156.174 245.982 156.19C245.964 156.205 245.95 156.223 245.941 156.244C245.931 156.265 245.926 156.287 245.926 156.31C245.926 156.333 245.931 156.355 245.941 156.376C245.95 156.396 245.964 156.415 245.982 156.43C246.601 156.925 247.334 157.269 248.118 157.432C248.902 157.596 249.715 157.574 250.489 157.37Z" fill="#7F3E3B"/>
<path d="M243.501 147.16C243.553 147.148 243.601 147.124 243.642 147.091C243.683 147.058 243.716 147.017 243.738 146.97C243.898 146.578 244.155 146.23 244.485 145.957C244.815 145.683 245.208 145.492 245.632 145.4C245.682 145.398 245.73 145.385 245.775 145.363C245.82 145.341 245.859 145.31 245.89 145.272C245.921 145.234 245.944 145.191 245.956 145.143C245.968 145.096 245.97 145.047 245.961 145C245.946 144.91 245.895 144.83 245.821 144.776C245.746 144.722 245.652 144.698 245.56 144.71C245.015 144.817 244.508 145.057 244.085 145.407C243.662 145.756 243.337 146.205 243.141 146.71C243.106 146.792 243.104 146.885 243.137 146.968C243.169 147.052 243.233 147.121 243.316 147.16C243.377 147.173 243.44 147.173 243.501 147.16Z" fill="#263238"/>
<path d="M254.843 144.55C254.891 144.53 254.937 144.503 254.976 144.47C255.042 144.406 255.078 144.32 255.078 144.23C255.078 144.14 255.042 144.053 254.976 143.99C254.615 143.58 254.159 143.259 253.646 143.054C253.132 142.849 252.576 142.765 252.023 142.81C251.931 142.824 251.85 142.874 251.796 142.947C251.742 143.02 251.72 143.111 251.735 143.2C251.752 143.288 251.803 143.367 251.877 143.42C251.952 143.474 252.044 143.499 252.136 143.49C252.575 143.457 253.016 143.526 253.422 143.691C253.828 143.856 254.188 144.113 254.472 144.44C254.517 144.489 254.576 144.526 254.641 144.545C254.707 144.565 254.776 144.566 254.843 144.55Z" fill="#263238"/>
<path d="M220.089 181.7L229.855 186.09C229.855 186.09 220.439 209.41 222.044 212.7C224.236 217.19 225.955 227.16 229.526 231.98C229.341 233.15 227.9 235.98 226.943 236.57C219.132 232.48 211.424 217.57 211.002 213.09C210.034 202.88 220.089 181.7 220.089 181.7Z" fill="#7F3E3B"/>
<path d="M224.349 172.34C217.413 173.34 210.024 196.77 210.024 196.77L226.912 204C226.912 204 231.028 193.65 233.992 185.36C237.1 176.69 231.8 171.28 224.349 172.34Z" fill="#219EBC"/>
<path d="M227.91 408.83C228.403 408.868 228.895 408.737 229.299 408.46C229.424 408.35 229.516 408.209 229.567 408.053C229.617 407.896 229.624 407.73 229.588 407.57C229.584 407.468 229.551 407.369 229.493 407.285C229.435 407.2 229.354 407.133 229.258 407.09C228.414 406.68 226.171 408.09 225.893 408.26C225.865 408.279 225.844 408.305 225.831 408.335C225.819 408.365 225.815 408.398 225.821 408.43C225.83 408.464 225.849 408.494 225.874 408.519C225.899 408.543 225.931 408.561 225.965 408.57C226.602 408.726 227.254 408.814 227.91 408.83ZM228.888 407.35C228.966 407.333 229.047 407.333 229.124 407.35C229.161 407.37 229.191 407.4 229.213 407.435C229.235 407.469 229.247 407.509 229.248 407.55C229.271 407.659 229.265 407.773 229.231 407.88C229.197 407.986 229.136 408.083 229.052 408.16C228.236 408.534 227.301 408.581 226.449 408.29C227.187 407.819 228.017 407.499 228.888 407.35Z" fill="#219EBC"/>
<path d="M226.006 408.57C226.033 408.579 226.062 408.579 226.089 408.57C226.819 408.17 228.147 406.57 227.951 405.81C227.918 405.683 227.842 405.57 227.736 405.489C227.63 405.408 227.5 405.362 227.365 405.36C227.234 405.343 227.101 405.353 226.974 405.391C226.848 405.429 226.732 405.494 226.634 405.58C225.831 406.26 225.821 408.32 225.821 408.41C225.821 408.442 225.83 408.473 225.846 408.501C225.862 408.529 225.886 408.553 225.914 408.57H226.006ZM227.272 405.67H227.344C227.581 405.67 227.601 405.8 227.612 405.84C227.746 406.31 226.902 407.5 226.181 408.05C226.169 407.251 226.414 406.468 226.881 405.81C226.988 405.717 227.128 405.667 227.272 405.67Z" fill="#219EBC"/>
<path d="M267.058 408.83C267.683 408.887 268.308 408.732 268.828 408.39C268.943 408.286 269.03 408.155 269.08 408.01C269.131 407.866 269.143 407.711 269.116 407.56C269.107 407.466 269.074 407.376 269.02 407.297C268.966 407.219 268.893 407.154 268.808 407.11C267.892 406.62 265 408.11 264.691 408.25C264.661 408.269 264.637 408.296 264.622 408.328C264.608 408.36 264.603 408.395 264.609 408.43C264.615 408.465 264.632 408.497 264.658 408.523C264.684 408.548 264.717 408.564 264.753 408.57C265.512 408.725 266.283 408.812 267.058 408.83ZM268.324 407.35C268.437 407.346 268.549 407.366 268.653 407.41C268.687 407.428 268.715 407.454 268.735 407.485C268.755 407.517 268.766 407.553 268.766 407.59C268.787 407.688 268.781 407.789 268.748 407.884C268.716 407.979 268.658 408.064 268.581 408.13C268.149 408.53 266.945 408.59 265.309 408.33C266.247 407.835 267.268 407.503 268.324 407.35Z" fill="#219EBC"/>
<path d="M264.773 408.57H264.835C265.71 408.18 267.398 406.64 267.223 405.83C267.223 405.64 267.038 405.4 266.554 405.35C266.383 405.332 266.209 405.349 266.045 405.399C265.88 405.449 265.728 405.531 265.597 405.64C264.701 406.39 264.568 408.32 264.568 408.4C264.568 408.43 264.575 408.459 264.589 408.485C264.604 408.511 264.625 408.533 264.65 408.55C264.687 408.571 264.731 408.578 264.773 408.57ZM266.43 405.67H266.533C266.852 405.67 266.873 405.82 266.883 405.86C266.986 406.35 265.854 407.56 264.969 408.09C265.007 407.285 265.31 406.514 265.834 405.89C265.997 405.746 266.21 405.667 266.43 405.67Z" fill="#219EBC"/>
<path d="M228.651 231.85L235.598 232.85L230.452 239.44C230.452 239.44 224.411 238.38 224.329 233.69L228.651 231.85Z" fill="#7F3E3B"/>
<path d="M240.455 237.43L235.515 243.16L230.473 239.43L235.598 232.84L240.455 237.43Z" fill="#7F3E3B"/>
<path d="M162.787 177.78C162.787 177.78 156.098 175 150.736 178.33C145.374 181.66 149.779 182.25 143.892 184.86C138.006 187.47 144.582 191.03 143.892 194.39C143.069 198.39 136.164 200.11 140.064 204.78C143.965 209.45 173.336 211.84 176.536 206.03C179.737 200.22 172.42 200.26 174.2 195.32C175.981 190.38 176.897 187.2 171.967 184.11C167.038 181.02 168.365 175.5 162.787 177.78Z" fill="#263238"/>
<path d="M183.36 220C183.648 221.62 184.008 223.46 184.389 225.18C184.769 226.9 185.212 228.68 185.716 230.4C186.692 233.837 187.892 237.211 189.308 240.5C189.647 241.33 190.049 242.11 190.419 242.91L190.522 243.13V243.2C190.522 243.2 190.522 243.2 190.471 243.2C190.286 243.07 190.061 243.003 189.833 243.01C189.658 243.01 189.709 243.09 189.884 243.01C190.139 242.934 190.384 242.83 190.615 242.7C191.287 242.319 191.921 241.877 192.508 241.38C195.221 238.994 197.723 236.391 199.99 233.6L203.078 235.43C201.355 239 199.143 242.327 196.501 245.32C195.739 246.155 194.89 246.912 193.97 247.58C193.407 247.973 192.803 248.308 192.169 248.58C191.303 248.957 190.359 249.135 189.411 249.1C188.221 249.039 187.087 248.591 186.19 247.83C185.807 247.511 185.462 247.152 185.161 246.76C185.027 246.58 184.914 246.41 184.811 246.24C184.708 246.07 184.636 245.94 184.574 245.83C184.101 244.96 183.545 244.1 183.164 243.22C181.395 239.714 179.929 236.072 178.78 232.33C178.193 230.48 177.658 228.61 177.226 226.72C176.794 224.83 176.392 222.98 176.115 220.92L183.36 220Z" fill="#FFB573"/>
<path d="M180.55 212.2C183.524 212.74 186.323 224.3 186.323 224.3L178.615 230.11C178.615 230.11 170.135 218.8 172.183 215.54C174.231 212.28 176.217 211.41 180.55 212.2Z" fill="#263238"/>
<path opacity="0.2" d="M180.457 214.82L183.462 226.46L179.13 229.72L180.457 214.82Z" fill="black"/>
<path d="M202.913 231.89L208.707 230.94L205.321 237.13C205.321 237.13 200.762 237.2 199.332 234.69L199.671 234.1C200.01 233.522 200.477 233.024 201.037 232.642C201.598 232.26 202.238 232.003 202.913 231.89Z" fill="#FFB573"/>
<path d="M213.708 232.6L211.702 238.16L205.321 237.13L208.707 230.94L213.708 232.6Z" fill="#FFB573"/>
<path d="M194.721 408.89L201.575 407.06L197.685 391.53L190.831 393.36L194.721 408.89Z" fill="#FFB573"/>
<path d="M201.575 405.89L193.918 408.05C193.785 408.085 193.669 408.167 193.593 408.279C193.518 408.392 193.487 408.527 193.507 408.66L194.392 414.79C194.42 414.944 194.481 415.091 194.572 415.22C194.662 415.35 194.78 415.459 194.917 415.541C195.054 415.623 195.207 415.676 195.367 415.697C195.526 415.717 195.688 415.705 195.843 415.66C198.498 414.86 199.743 414.35 203.108 413.4C205.167 412.81 211.197 411.34 214.058 410.53C216.919 409.72 216.25 406.93 214.984 407.02C209.304 407.41 205.074 406.94 202.841 406.02C202.448 405.833 201.999 405.787 201.575 405.89Z" fill="#263238"/>
<g opacity="0.2">
<path opacity="0.2" d="M197.685 391.54L199.681 399.54L192.838 401.37L190.831 393.36L197.685 391.54Z" fill="black"/>
</g>
<path d="M180.55 212.2C180.55 212.2 184.008 213.2 179.86 253.97L151.045 255.73C150.798 244.32 150.355 237.3 143.244 214.28C147.233 213.235 151.295 212.473 155.398 212C159.73 211.431 164.097 211.164 168.468 211.2C174.108 211.32 180.55 212.2 180.55 212.2Z" fill="#219EBC"/>
<g opacity="0.4">
<path opacity="0.4" d="M180.55 212.2C180.55 212.2 184.008 213.2 179.86 253.97L151.045 255.73C150.798 244.32 150.355 237.3 143.244 214.28C147.233 213.235 151.295 212.473 155.398 212C159.73 211.431 164.097 211.164 168.468 211.2C174.108 211.32 180.55 212.2 180.55 212.2Z" fill="#263238"/>
</g>
<path d="M155.758 197.59C156.849 201.59 158.156 209.06 155.388 211.97C155.388 211.97 156.808 216.04 164.65 215.57C173.243 215.04 168.488 211.17 168.488 211.17C163.734 210.37 163.631 206.98 164.238 203.76L155.758 197.59Z" fill="#FFB573"/>
<path d="M155.398 212C159.726 211.431 164.09 211.164 168.458 211.2H169.322C170.485 213.06 170.948 216 168.725 220.48C168.725 220.48 156.973 216.7 153.679 212.19L155.398 212Z" fill="#FFB573"/>
<path opacity="0.2" d="M159.206 200.11L164.207 203.75C164.057 204.502 163.971 205.265 163.95 206.03C162.149 205.89 159.299 204.23 158.99 202.42C158.814 201.647 158.889 200.84 159.206 200.11Z" fill="black"/>
<path d="M150.767 190.79C152.825 197.34 153.515 200.16 157.806 202.79C164.249 206.74 172.091 202.88 172.111 195.86C172.111 189.55 168.797 179.86 161.46 178.78C159.843 178.526 158.186 178.678 156.646 179.221C155.107 179.765 153.736 180.682 152.665 181.886C151.593 183.09 150.856 184.54 150.524 186.098C150.192 187.657 150.275 189.272 150.767 190.79Z" fill="#FFB573"/>
<path d="M162.767 178.39C163.621 181.56 155.841 192.72 151.498 195.78C147.381 191.39 147.608 185.72 149.388 182.83C151.168 179.94 155.398 176.83 162.767 178.39Z" fill="#263238"/>
<path d="M163.322 178.49C166.77 179.44 170.382 183.41 168.468 183.25C166.554 183.09 158.239 179.51 163.322 178.49Z" fill="#263238"/>
<path d="M179.86 254C179.86 254 187.949 304.25 190.697 325.12C193.548 346.84 200.566 397.32 200.566 397.32L191.304 399.92C191.304 399.92 177.545 350.45 173.428 329.31C168.952 306.31 158.743 255.31 158.743 255.31L179.86 254Z" fill="#219EBC"/>
<g opacity="0.2">
<path opacity="0.2" d="M179.86 254C179.86 254 187.949 304.25 190.697 325.12C193.548 346.84 200.566 397.32 200.566 397.32L191.304 399.92C191.304 399.92 177.545 350.45 173.428 329.31C168.952 306.31 158.743 255.31 158.743 255.31L179.86 254Z" fill="black"/>
</g>
<path d="M190.635 400.44L201.451 397.38L201.246 393.81L189.009 396.82L190.635 400.44Z" fill="#263238"/>
<path d="M173.768 405.92L180.601 407.77L182.433 393.27H175.332L173.768 405.92Z" fill="#FFB573"/>
<path opacity="0.2" d="M174.437 400.48L181.342 401.94L182.433 393.27H175.332L174.437 400.48Z" fill="black"/>
<path d="M180.91 407.1L173.089 405.01C172.953 404.974 172.808 404.983 172.678 405.035C172.547 405.088 172.439 405.181 172.368 405.3L169.96 410.85C169.887 410.987 169.847 411.138 169.844 411.292C169.841 411.446 169.875 411.599 169.943 411.739C170.01 411.878 170.11 412 170.235 412.096C170.359 412.192 170.505 412.258 170.66 412.29C173.408 412.97 174.18 413.08 177.627 414C179.737 414.56 184.769 416.94 190.224 416.94C193.136 416.94 192.827 413.94 191.603 413.69C186.118 412.53 183.246 409.69 181.929 407.8C181.685 407.457 181.324 407.209 180.91 407.1Z" fill="#263238"/>
<path d="M173.315 254.35C173.315 254.35 201.019 311.85 198.58 329.88C195.606 351.83 182.896 398.07 182.896 398.07L173.212 396.21C173.212 396.21 178.358 349.79 180.354 328.29C182.557 304.86 152.712 286.68 150.829 255.75L173.315 254.35Z" fill="#219EBC"/>
<path d="M172.286 398.38L183.596 400.8L184.677 397.05L172.471 394.41L172.286 398.38Z" fill="#263238"/>
<path d="M183.236 408.91C183.824 409.123 184.467 409.144 185.068 408.97C185.216 408.914 185.349 408.825 185.456 408.711C185.564 408.596 185.642 408.459 185.685 408.31C185.719 408.229 185.727 408.14 185.709 408.055C185.691 407.969 185.647 407.891 185.582 407.83C184.934 407.17 181.641 407.74 181.27 407.83C181.234 407.839 181.201 407.856 181.174 407.88C181.147 407.905 181.127 407.936 181.116 407.97C181.108 408.001 181.11 408.033 181.123 408.062C181.136 408.091 181.159 408.115 181.188 408.13C181.842 408.456 182.528 408.717 183.236 408.91ZM185.037 407.91C185.139 407.931 185.235 407.975 185.315 408.04C185.333 408.07 185.342 408.105 185.342 408.14C185.342 408.175 185.333 408.21 185.315 408.24C185.285 408.336 185.234 408.425 185.165 408.499C185.095 408.574 185.009 408.632 184.913 408.67C184.347 408.91 183.195 408.67 181.775 408.02C182.849 407.814 183.951 407.78 185.037 407.92V407.91Z" fill="#219EBC"/>
<path d="M181.219 408.11H181.291C182.258 407.98 184.471 407.04 184.666 406.28C184.666 406.1 184.666 405.85 184.244 405.68C183.914 405.553 183.546 405.553 183.215 405.68C182.329 406.205 181.615 406.965 181.157 407.87C181.142 407.894 181.133 407.922 181.133 407.95C181.133 407.979 181.142 408.006 181.157 408.03L181.219 408.11ZM183.977 405.96H184.08C184.358 406.07 184.327 406.18 184.317 406.22C184.203 406.68 182.639 407.47 181.6 407.71C181.999 406.983 182.602 406.38 183.339 405.97C183.549 405.914 183.773 405.925 183.977 406V405.96Z" fill="#219EBC"/>
<path d="M162.108 190.05C162.242 190.6 162.643 190.97 163.003 190.88C163.364 190.79 163.559 190.29 163.425 189.75C163.292 189.21 162.901 188.84 162.53 188.92C162.16 189 161.974 189.51 162.108 190.05Z" fill="#263238"/>
<path d="M168.406 188.61C168.54 189.15 168.941 189.52 169.312 189.44C169.682 189.36 169.857 188.85 169.734 188.31C169.61 187.77 169.199 187.39 168.828 187.48C168.458 187.57 168.283 188.07 168.406 188.61Z" fill="#263238"/>
<path d="M168.684 187.55L169.929 186.86C169.929 186.86 169.487 188 168.684 187.55Z" fill="#263238"/>
<path d="M166.719 190C167.512 191.121 168.461 192.131 169.538 193C169.304 193.263 169.013 193.473 168.686 193.615C168.358 193.757 168.003 193.827 167.645 193.82L166.719 190Z" fill="#ED893E"/>
<path d="M165.103 196.67C165.387 196.649 165.669 196.606 165.947 196.54C165.99 196.528 166.026 196.501 166.049 196.464C166.072 196.427 166.08 196.383 166.07 196.34C166.058 196.299 166.03 196.263 165.992 196.241C165.953 196.218 165.908 196.211 165.864 196.22C165.175 196.394 164.454 196.408 163.758 196.26C163.062 196.113 162.413 195.808 161.861 195.37C161.829 195.341 161.786 195.325 161.743 195.325C161.699 195.325 161.657 195.341 161.624 195.37C161.592 195.402 161.573 195.445 161.573 195.49C161.573 195.535 161.592 195.578 161.624 195.61C162.594 196.397 163.845 196.778 165.103 196.67Z" fill="#263238"/>
<path d="M150.386 197.31C151.145 198.41 152.322 199.172 153.659 199.43C155.439 199.76 156.17 198.19 155.553 196.64C154.997 195.24 153.402 193.39 151.683 193.76C151.309 193.848 150.964 194.025 150.678 194.276C150.392 194.526 150.175 194.842 150.046 195.194C149.918 195.546 149.881 195.924 149.941 196.294C150 196.663 150.153 197.012 150.386 197.31Z" fill="#FFB573"/>
<path d="M159.278 189.39C159.349 189.385 159.416 189.358 159.47 189.313C159.524 189.268 159.561 189.207 159.576 189.14C159.774 188.642 160.075 188.188 160.461 187.808C160.847 187.428 161.31 187.129 161.82 186.93C161.903 186.897 161.969 186.833 162.004 186.752C162.039 186.672 162.039 186.581 162.005 186.5C161.989 186.46 161.965 186.424 161.935 186.394C161.905 186.363 161.868 186.339 161.828 186.322C161.788 186.305 161.744 186.296 161.701 186.296C161.657 186.296 161.613 186.304 161.573 186.32C160.962 186.553 160.409 186.911 159.953 187.37C159.496 187.829 159.147 188.378 158.928 188.98C158.916 189.022 158.912 189.066 158.918 189.109C158.924 189.153 158.939 189.194 158.962 189.232C158.986 189.269 159.016 189.302 159.053 189.327C159.09 189.353 159.131 189.371 159.175 189.38L159.278 189.39Z" fill="#263238"/>
<path d="M169.621 185.35C169.678 185.343 169.733 185.323 169.781 185.292C169.83 185.261 169.87 185.219 169.898 185.17C169.935 185.091 169.939 185.002 169.911 184.92C169.882 184.839 169.822 184.771 169.744 184.73C169.268 184.487 168.738 184.361 168.2 184.361C167.663 184.361 167.133 184.487 166.657 184.73C166.619 184.752 166.587 184.78 166.561 184.814C166.535 184.848 166.516 184.886 166.506 184.927C166.495 184.968 166.493 185.011 166.5 185.052C166.506 185.094 166.521 185.134 166.543 185.17C166.589 185.245 166.663 185.3 166.749 185.323C166.836 185.345 166.929 185.334 167.007 185.29C167.383 185.104 167.799 185.007 168.221 185.007C168.643 185.007 169.059 185.104 169.435 185.29C169.492 185.322 169.555 185.342 169.621 185.35Z" fill="#263238"/>
<path d="M147.649 223.61C147.021 227.27 146.403 231.02 145.827 234.73C145.251 238.44 144.736 242.16 144.438 245.84L144.335 247.16C144.306 247.449 144.306 247.741 144.335 248.03C144.444 248.838 144.602 249.64 144.808 250.43C145.261 252.12 145.837 253.88 146.465 255.63C147.69 259.15 149.141 262.68 150.582 266.2L147.412 267.84C145.191 264.588 143.18 261.205 141.392 257.71C140.47 255.914 139.656 254.067 138.953 252.18C138.566 251.151 138.26 250.094 138.037 249.02C137.901 248.361 137.832 247.692 137.831 247.02V245.49C137.934 241.543 138.225 237.647 138.706 233.8C139.158 229.94 139.735 226.14 140.507 222.29L147.649 223.61Z" fill="#FFB573"/>
<path d="M143.275 214.28C140.445 215.28 137.604 225.17 137.604 225.17L149.295 232.26C149.295 232.26 152.856 223.95 151.405 220.41C149.903 216.71 146.496 213.11 143.275 214.28Z" fill="#263238"/>
<path d="M204.487 406.32C205.081 406.206 205.618 405.899 206.01 405.45C206.091 405.324 206.139 405.182 206.151 405.034C206.164 404.886 206.14 404.738 206.082 404.6C206.049 404.516 205.996 404.441 205.926 404.382C205.856 404.322 205.772 404.281 205.681 404.26C204.714 404.05 202.398 406.17 202.131 406.41C202.111 406.438 202.101 406.472 202.101 406.505C202.101 406.539 202.111 406.572 202.131 406.6C202.144 406.631 202.167 406.656 202.197 406.673C202.227 406.689 202.262 406.695 202.295 406.69C203.037 406.637 203.771 406.513 204.487 406.32ZM205.29 404.61C205.395 404.587 205.504 404.587 205.609 404.61C205.645 404.619 205.678 404.636 205.705 404.661C205.732 404.685 205.752 404.716 205.763 404.75C205.809 404.837 205.834 404.933 205.834 405.03C205.834 405.128 205.809 405.224 205.763 405.31C205.455 405.79 204.354 406.17 202.769 406.31C203.503 405.608 204.356 405.033 205.29 404.61Z" fill="#219EBC"/>
<path d="M202.295 406.69C202.295 406.69 202.347 406.69 202.357 406.69C203.067 406.11 204.251 404.23 203.901 403.51C203.818 403.34 203.623 403.16 203.16 403.24C202.995 403.268 202.838 403.329 202.698 403.418C202.558 403.507 202.439 403.624 202.347 403.76C201.952 404.656 201.862 405.651 202.09 406.6C202.094 406.628 202.106 406.655 202.124 406.678C202.142 406.7 202.165 406.718 202.192 406.73L202.295 406.69ZM203.119 403.54H203.222C203.52 403.54 203.571 403.6 203.592 403.63C203.808 404.06 203.047 405.49 202.367 406.21C202.201 405.439 202.291 404.637 202.625 403.92C202.736 403.739 202.912 403.603 203.119 403.54Z" fill="#219EBC"/>
<path d="M162.375 189L163.631 188.32C163.631 188.32 163.188 189.48 162.375 189Z" fill="#263238"/>
<path d="M150.54 254.11L149.974 256.66C149.882 256.86 150.129 257.05 150.468 257.03L180.097 255.21C180.354 255.21 180.56 255.06 180.57 254.9L180.663 252.38C180.663 252.21 180.437 252.07 180.148 252.09L151.004 253.88C150.913 253.878 150.823 253.898 150.742 253.938C150.661 253.978 150.592 254.037 150.54 254.11Z" fill="#263238"/>
<path d="M154.667 257H153.885C153.731 257 153.607 256.94 153.607 256.84L153.762 253.57C153.762 253.47 153.896 253.39 154.05 253.38L154.832 253.33C154.986 253.33 155.11 253.39 155.11 253.49L154.956 256.76C154.945 257 154.822 257 154.667 257Z" fill="#219EBC"/>
<path d="M177.905 255.62H177.133C176.969 255.62 176.845 255.55 176.855 255.46L177.01 252.18C177.01 252.09 177.143 252 177.298 251.99H178.08C178.234 251.99 178.358 252.05 178.358 252.14L178.204 255.42C178.193 255.52 178.039 255.61 177.905 255.62Z" fill="#219EBC"/>
<path d="M166.286 256.33L165.504 256.38C165.35 256.38 165.226 256.32 165.226 256.22L165.391 252.95C165.391 252.85 165.525 252.76 165.679 252.75H166.461C166.616 252.75 166.739 252.81 166.729 252.9L166.574 256.18C166.574 256.23 166.441 256.32 166.286 256.33Z" fill="#219EBC"/>
<path d="M150.397 265.53L156.232 270.37L149.1 271.51C149.1 271.51 146.29 268.03 147.474 265.4L150.397 265.53Z" fill="#FFB573"/>
<path d="M157.415 276.06L151.395 276.7L149.1 271.51L156.232 270.37L157.415 276.06Z" fill="#FFB573"/>
<path d="M313.256 165.77C341.561 165.77 364.506 143.474 364.506 115.97C364.506 88.4661 341.561 66.1699 313.256 66.1699C284.951 66.1699 262.005 88.4661 262.005 115.97C262.005 143.474 284.951 165.77 313.256 165.77Z" fill="#219EBC"/>
<path d="M209.623 96.1799L208.944 95.4299C213.088 91.8386 218.447 89.8528 224 89.8499V90.8499C218.697 90.8524 213.58 92.7494 209.623 96.1799Z" fill="#219EBC"/>
<path d="M203.767 104.49L202.8 104.14C203.407 102.57 204.197 101.074 205.156 99.6799L206.011 100.24C205.101 101.57 204.349 102.996 203.767 104.49Z" fill="#219EBC"/>
<path d="M237.48 124.961C244.923 117.728 244.923 106.002 237.48 98.7694C230.037 91.5369 217.969 91.5369 210.526 98.7694C203.082 106.002 203.082 117.728 210.526 124.961C217.969 132.193 230.037 132.193 237.48 124.961Z" fill="#219EBC"/>
<path d="M185.675 160.33C192.132 160.33 197.366 155.244 197.366 148.97C197.366 142.696 192.132 137.61 185.675 137.61C179.218 137.61 173.984 142.696 173.984 148.97C173.984 155.244 179.218 160.33 185.675 160.33Z" fill="#219EBC"/>
<path d="M391.727 125.23C396.848 125.23 400.999 121.196 400.999 116.22C400.999 111.244 396.848 107.21 391.727 107.21C386.606 107.21 382.454 111.244 382.454 116.22C382.454 121.196 386.606 125.23 391.727 125.23Z" fill="#219EBC"/>
<path d="M340.528 107.33C340.531 102.565 339.213 97.887 336.71 93.789C334.208 89.6909 330.615 86.3243 326.309 84.0436C322.004 81.7628 317.145 80.6523 312.245 80.829C307.344 81.0057 302.583 82.4631 298.464 85.0477C294.344 87.6322 291.017 91.2484 288.835 95.5153C286.652 99.7823 285.694 104.542 286.061 109.294C286.428 114.046 288.106 118.613 290.92 122.516C293.734 126.418 297.578 129.512 302.049 131.47V136.16H324.463V131.47C329.249 129.376 333.31 125.985 336.16 121.703C339.01 117.42 340.527 112.429 340.528 107.33Z" fill="white"/>
<path opacity="0.2" d="M322.528 148.97H303.983L302.049 136.16H324.463L322.528 148.97Z" fill="black"/>
<path opacity="0.4" d="M317.835 151.1H308.676L307.729 148.97H318.782L317.835 151.1Z" fill="black"/>
<path d="M310.343 113.37C309.712 111.594 308.654 109.989 307.256 108.69C304.035 105.57 300.052 104.52 298.251 106.3C297.325 107.2 297.109 108.65 297.654 110.37C298.286 112.144 299.344 113.745 300.742 115.04C302.893 117.14 305.383 118.3 307.349 118.3C307.805 118.305 308.258 118.231 308.686 118.08L310.508 136.22C310.523 136.384 310.602 136.537 310.728 136.648C310.853 136.759 311.017 136.821 311.187 136.82H311.249C311.339 136.813 311.427 136.788 311.507 136.747C311.588 136.706 311.659 136.649 311.716 136.581C311.774 136.513 311.817 136.435 311.842 136.35C311.868 136.266 311.876 136.178 311.866 136.09L309.963 117.18C310.341 116.623 310.574 115.985 310.64 115.321C310.706 114.657 310.605 113.987 310.343 113.37ZM301.709 114.1C300.481 112.953 299.547 111.542 298.982 109.98C298.775 109.539 298.691 109.053 298.738 108.57C298.785 108.088 298.961 107.626 299.249 107.23C299.447 107.061 299.677 106.932 299.926 106.849C300.175 106.767 300.438 106.733 300.7 106.75C302.172 106.75 304.313 107.68 306.319 109.63C307.552 110.773 308.487 112.186 309.047 113.75C309.256 114.191 309.341 114.677 309.294 115.16C309.247 115.643 309.069 116.105 308.779 116.5C307.709 117.58 304.621 116.87 301.709 114.1Z" fill="#219EBC"/>
<path d="M328.23 106.3C327.293 105.39 325.811 105.18 324.041 105.71C322.233 106.351 320.592 107.37 319.232 108.693C317.872 110.016 316.826 111.612 316.168 113.37C315.907 113.987 315.805 114.656 315.869 115.319C315.934 115.983 316.164 116.622 316.539 117.18L314.635 136.09C314.618 136.266 314.673 136.442 314.789 136.579C314.904 136.715 315.071 136.802 315.252 136.82H315.314C315.484 136.821 315.648 136.759 315.774 136.648C315.9 136.537 315.978 136.384 315.993 136.22L317.815 118.08C318.247 118.231 318.704 118.306 319.163 118.3C321.118 118.3 323.609 117.14 325.76 115.04C327.157 113.745 328.216 112.143 328.847 110.37C329.372 108.65 329.156 107.2 328.23 106.3ZM327.53 109.98C326.969 111.543 326.034 112.955 324.803 114.1C321.952 116.87 318.844 117.58 317.733 116.5C317.442 116.105 317.265 115.643 317.218 115.16C317.171 114.677 317.256 114.19 317.465 113.75C318.028 112.187 318.963 110.776 320.192 109.63C321.373 108.432 322.83 107.523 324.443 106.98C324.891 106.837 325.36 106.76 325.832 106.75C326.354 106.728 326.866 106.899 327.262 107.23C327.556 107.627 327.736 108.093 327.783 108.58C327.83 109.066 327.743 109.557 327.53 110V109.98Z" fill="#219EBC"/>
</g>
<defs>
<clipPath id="clip0">
<rect width="514.563" height="500" fill="white"/>
</clipPath>
</defs>
</svg>
