<svg width="627" height="500" viewBox="0 0 627 500" fill="none" xmlns="http://www.w3.org/2000/svg">
<path d="M626.061 439.392H0V439.728H626.061V439.392Z" fill="#EBEBEB"/>
<path d="M206.087 460.086H164.617V460.421H206.087V460.086Z" fill="#EBEBEB"/>
<path d="M324.099 456.45H313.219V456.785H324.099V456.45Z" fill="#EBEBEB"/>
<path d="M89.7148 450.787H65.6865V451.122H89.7148V450.787Z" fill="#EBEBEB"/>
<path d="M520.608 448.531H487.952V448.866H520.608V448.531Z" fill="#EBEBEB"/>
<path d="M476.796 448.531H447.446V448.866H476.796V448.531Z" fill="#EBEBEB"/>
<path d="M563.343 464.636H446.044V464.971H563.343V464.636Z" fill="#EBEBEB"/>
<path d="M296.753 379.536H54.9809C53.0868 379.532 51.2715 378.723 49.9334 377.287C48.5953 375.85 47.8437 373.903 47.8438 371.873V7.59609C47.8602 5.57765 48.6191 3.6477 49.9554 2.22544C51.2917 0.80317 53.0976 0.00345768 54.9809 0H296.753C298.649 0 300.468 0.80737 301.809 2.2445C303.15 3.68162 303.903 5.63078 303.903 7.66319V371.873C303.903 373.905 303.15 375.854 301.809 377.291C300.468 378.729 298.649 379.536 296.753 379.536ZM54.9809 0.268414C53.1698 0.271969 51.4341 1.04556 50.1547 2.41938C48.8753 3.7932 48.1568 5.65499 48.1568 7.59609V371.873C48.1568 373.814 48.8753 375.676 50.1547 377.049C51.4341 378.423 53.1698 379.197 54.9809 379.2H296.753C298.565 379.197 300.302 378.424 301.584 377.05C302.865 375.677 303.587 373.815 303.59 371.873V7.59609C303.587 5.65376 302.865 3.79199 301.584 2.41856C300.302 1.04512 298.565 0.271962 296.753 0.268414H54.9809Z" fill="#EBEBEB"/>
<path d="M567.6 379.536H325.815C323.92 379.532 322.103 378.724 320.763 377.287C319.423 375.851 318.669 373.904 318.665 371.873V7.59609C318.685 5.57643 319.447 3.64649 320.785 2.2246C322.123 0.8027 323.93 0.00341997 325.815 0H567.6C569.481 0.00698477 571.284 0.808257 572.617 2.23015C573.951 3.65204 574.708 5.57997 574.724 7.59609V371.873C574.724 373.9 573.975 375.846 572.639 377.282C571.304 378.718 569.492 379.529 567.6 379.536ZM325.815 0.268414C324.003 0.271962 322.266 1.04512 320.984 2.41856C319.703 3.79199 318.982 5.65376 318.978 7.59609V371.873C318.982 373.815 319.703 375.677 320.984 377.05C322.266 378.424 324.003 379.197 325.815 379.2H567.6C569.412 379.197 571.149 378.424 572.43 377.05C573.712 375.677 574.433 373.815 574.436 371.873V7.59609C574.433 5.65376 573.712 3.79199 572.43 2.41856C571.149 1.04512 569.412 0.271962 567.6 0.268414H325.815Z" fill="#EBEBEB"/>
<path d="M398.926 435.393H428.414V297.106H398.926V435.393Z" fill="#F0F0F0"/>
<path d="M292.934 439.392H422.767V435.393H292.934V439.392Z" fill="#F0F0F0"/>
<path d="M398.926 297.106H287.262V435.392H398.926V297.106Z" fill="#F5F5F5"/>
<path d="M387.332 304.863H298.857V363.162H387.332V304.863Z" fill="#F0F0F0"/>
<path d="M387.332 369.337H298.857V427.636H387.332V369.337Z" fill="#F0F0F0"/>
<path d="M366.033 315.022H320.168C318.734 315.024 317.313 314.722 315.988 314.133C314.663 313.544 313.46 312.681 312.448 311.592C311.436 310.503 310.634 309.21 310.089 307.788C309.545 306.366 309.268 304.843 309.274 303.306H376.889C376.896 304.84 376.62 306.36 376.077 307.779C375.535 309.199 374.737 310.489 373.729 311.578C372.72 312.666 371.521 313.531 370.201 314.122C368.88 314.713 367.464 315.019 366.033 315.022Z" fill="#F5F5F5"/>
<path d="M366.033 379.496H320.168C317.282 379.496 314.515 378.267 312.474 376.08C310.433 373.893 309.287 370.926 309.287 367.833H376.902C376.902 370.924 375.757 373.888 373.719 376.075C371.681 378.262 368.917 379.492 366.033 379.496Z" fill="#F5F5F5"/>
<path d="M519.355 435.393H548.843V297.106H519.355V435.393Z" fill="#F0F0F0"/>
<path d="M413.351 439.392H543.183V435.393H413.351V439.392Z" fill="#F0F0F0"/>
<path d="M519.356 297.106H407.691V435.392H519.356V297.106Z" fill="#F5F5F5"/>
<path d="M507.761 304.863H419.286V363.162H507.761V304.863Z" fill="#F0F0F0"/>
<path d="M507.761 369.337H419.286V427.636H507.761V369.337Z" fill="#F0F0F0"/>
<path d="M486.45 315.023H440.585C437.699 315.023 434.931 313.794 432.891 311.607C430.85 309.42 429.704 306.454 429.704 303.36H497.318C497.318 306.451 496.173 309.416 494.135 311.602C492.098 313.789 489.333 315.02 486.45 315.023Z" fill="#F5F5F5"/>
<path d="M486.45 379.496H440.585C437.699 379.496 434.931 378.267 432.891 376.08C430.85 373.893 429.704 370.926 429.704 367.833H497.318C497.318 370.924 496.173 373.888 494.135 376.075C492.098 378.262 489.333 379.492 486.45 379.496Z" fill="#F5F5F5"/>
<path d="M139.512 111.312H190.022V48.7309L139.512 48.7309V111.312Z" fill="#E6E6E6"/>
<path d="M133.752 111.312L188.67 111.312V48.7309L133.752 48.7309V111.312Z" fill="#F5F5F5"/>
<path d="M184.062 106.386V53.6694H138.347V106.386H184.062Z" fill="white"/>
<path d="M172.993 93.6088V91.6897C172.99 84.9955 170.507 78.5766 166.091 73.8431C161.675 69.1097 155.686 66.4489 149.441 66.4453V68.3645C149.441 75.0597 151.922 81.4807 156.339 86.2149C160.756 90.9491 166.747 93.6088 172.993 93.6088Z" fill="#F5F5F5"/>
<path d="M358.909 229.426L548.855 229.426V38.9871L358.909 38.9871V229.426Z" fill="#E6E6E6"/>
<path d="M353.024 229.426L546.101 229.426V38.9871L353.024 38.9871V229.426Z" fill="#F0F0F0"/>
<path d="M358.909 236.216L548.855 236.216V229.426L358.909 229.426V236.216Z" fill="#E6E6E6"/>
<path d="M343.207 236.216L536.284 236.216V229.426L343.207 229.426V236.216Z" fill="#F0F0F0"/>
<path d="M537.849 219.199V49.2134L361.25 49.2134V219.199H537.849Z" fill="#FAFAFA"/>
<path d="M487.777 219.213L458.365 49.2134H409.907L439.32 219.213H487.777Z" fill="white"/>
<path d="M534.043 161.531C534.21 161.517 534.366 161.433 534.476 161.298C534.586 161.162 534.642 160.985 534.631 160.806V55.87C534.631 55.7027 534.569 55.5423 534.459 55.424C534.349 55.3057 534.199 55.2393 534.043 55.2393C533.887 55.2393 533.737 55.3057 533.627 55.424C533.516 55.5423 533.454 55.7027 533.454 55.87V160.806C533.444 160.985 533.5 161.162 533.61 161.298C533.72 161.433 533.876 161.517 534.043 161.531Z" fill="#F0F0F0"/>
<path d="M428.902 219.213L399.502 49.2134H380.608L410.008 219.213H428.902Z" fill="white"/>
<path d="M362.302 219.199V49.2134H361.25V219.199H362.302Z" fill="#E6E6E6"/>
<path opacity="0.4" d="M351.07 62.2987H541.005L541.769 53.1992H351.822L351.07 62.2987Z" fill="#E6E6E6"/>
<path opacity="0.4" d="M351.07 72.7803H541.005L541.769 63.6675H351.822L351.07 72.7803Z" fill="#E6E6E6"/>
<path opacity="0.4" d="M351.07 83.2482H541.005L541.769 74.1489H351.822L351.07 83.2482Z" fill="#E6E6E6"/>
<path opacity="0.4" d="M351.07 93.7302H541.005L541.769 84.6177H351.822L351.07 93.7302Z" fill="#E6E6E6"/>
<path opacity="0.4" d="M351.07 104.197H541.005L541.769 95.0981H351.822L351.07 104.197Z" fill="#E6E6E6"/>
<path opacity="0.4" d="M351.07 114.679H541.005L541.769 105.567H351.822L351.07 114.679Z" fill="#E6E6E6"/>
<path opacity="0.4" d="M351.07 125.147H541.005L541.769 116.048H351.822L351.07 125.147Z" fill="#E6E6E6"/>
<path opacity="0.4" d="M351.07 135.629H541.005L541.769 126.516H351.822L351.07 135.629Z" fill="#E6E6E6"/>
<path opacity="0.4" d="M351.07 146.097H541.005L541.769 136.998H351.822L351.07 146.097Z" fill="#E6E6E6"/>
<path d="M103.701 213.402H143.105V164.94H103.701V213.402Z" fill="#E6E6E6"/>
<path d="M99.2433 213.402H141.778V164.94H99.2433V213.402Z" fill="#F5F5F5"/>
<path d="M138.222 209.576V168.75H102.812V209.576H138.222Z" fill="white"/>
<path d="M129.632 189.916V188.426C129.632 187.142 129.396 185.87 128.937 184.684C128.478 183.498 127.806 182.42 126.958 181.513C126.11 180.605 125.104 179.886 123.996 179.396C122.889 178.905 121.702 178.654 120.504 178.656C118.095 178.67 115.79 179.706 114.091 181.536C112.392 183.367 111.439 185.844 111.439 188.426V189.916C111.439 192.507 112.399 194.992 114.109 196.824C115.818 198.656 118.137 199.686 120.554 199.686C122.965 199.675 125.274 198.641 126.976 196.81C128.677 194.979 129.632 192.5 129.632 189.916Z" fill="#F5F5F5"/>
<path d="M201.98 196.035H256.084V129.227H201.98V196.035Z" fill="#E6E6E6"/>
<path d="M195.845 196.035H254.469V129.227H195.845V196.035Z" fill="#F5F5F5"/>
<path d="M249.56 190.788V134.514H200.753V190.788H249.56Z" fill="white"/>
<path d="M227.197 152.203L236.463 169.408C236.67 169.792 236.779 170.227 236.779 170.671C236.778 171.114 236.669 171.549 236.463 171.933C236.256 172.316 235.958 172.635 235.6 172.856C235.242 173.077 234.836 173.194 234.422 173.193H215.891C215.477 173.194 215.071 173.077 214.713 172.856C214.355 172.635 214.057 172.316 213.85 171.933C213.643 171.549 213.535 171.114 213.534 170.671C213.534 170.227 213.643 169.792 213.85 169.408L223.116 152.203C223.324 151.821 223.623 151.505 223.981 151.286C224.339 151.066 224.744 150.95 225.156 150.95C225.569 150.95 225.974 151.066 226.332 151.286C226.69 151.505 226.989 151.821 227.197 152.203Z" fill="#F5F5F5"/>
<path d="M112.716 439.379H142.454V338.886H112.716L112.716 439.379Z" fill="#E6E6E6"/>
<path d="M118.363 439.391H112.716V422.173H124.286L118.363 439.391Z" fill="#F0F0F0"/>
<path d="M223.842 439.379H253.58V338.886H223.842V439.379Z" fill="#E6E6E6"/>
<path d="M112.728 428.816H228.775V338.885H112.728L112.728 428.816Z" fill="#F0F0F0"/>
<path d="M117.099 344.535V407.303H168.849V344.535H117.099Z" fill="#E6E6E6"/>
<path d="M172.643 344.535V407.303H224.393V344.535H172.643Z" fill="#E6E6E6"/>
<path d="M193.403 349.352H203.633C205.83 349.359 208.005 348.887 210.027 347.964C212.048 347.041 213.873 345.687 215.39 343.984H181.583C183.107 345.696 184.942 347.056 186.975 347.98C189.007 348.903 191.195 349.37 193.403 349.352Z" fill="#F0F0F0"/>
<path d="M137.333 349.352H147.575C149.772 349.359 151.948 348.886 153.969 347.963C155.99 347.04 157.815 345.686 159.333 343.984H125.526C127.049 345.694 128.882 347.052 130.912 347.975C132.943 348.898 135.128 349.367 137.333 349.352Z" fill="#F0F0F0"/>
<path d="M223.128 439.391H228.775V422.173H217.206L223.128 439.391Z" fill="#F0F0F0"/>
<path d="M192.514 325.424C192.511 326.791 192.887 328.129 193.594 329.267C194.301 330.405 195.308 331.293 196.486 331.819C197.664 332.344 198.961 332.483 200.212 332.217C201.464 331.952 202.614 331.295 203.517 330.329C204.421 329.363 205.036 328.131 205.286 326.79C205.536 325.449 205.409 324.059 204.921 322.795C204.433 321.531 203.607 320.451 202.546 319.691C201.485 318.931 200.238 318.525 198.962 318.525C197.255 318.529 195.619 319.256 194.41 320.549C193.202 321.841 192.52 323.594 192.514 325.424Z" fill="#E0E0E0"/>
<path d="M201.88 327.839C205.434 327.839 208.315 324.751 208.315 320.941C208.315 317.131 205.434 314.042 201.88 314.042C198.325 314.042 195.444 317.131 195.444 320.941C195.444 324.751 198.325 327.839 201.88 327.839Z" fill="#E0E0E0"/>
<path d="M160.271 326.537C160.271 327.902 160.649 329.235 161.356 330.37C162.063 331.504 163.068 332.388 164.244 332.911C165.42 333.433 166.715 333.569 167.963 333.303C169.211 333.037 170.358 332.38 171.258 331.415C172.158 330.45 172.771 329.221 173.02 327.883C173.268 326.545 173.14 325.158 172.653 323.898C172.166 322.637 171.341 321.56 170.283 320.802C169.225 320.044 167.98 319.639 166.707 319.639C165 319.639 163.363 320.366 162.157 321.66C160.95 322.953 160.271 324.708 160.271 326.537Z" fill="#E0E0E0"/>
<path d="M210.494 330.537C214.858 330.537 218.395 326.746 218.395 322.069C218.395 317.392 214.858 313.6 210.494 313.6C206.131 313.6 202.594 317.392 202.594 322.069C202.594 326.746 206.131 330.537 210.494 330.537Z" fill="#E0E0E0"/>
<path d="M186.942 314.272C186.939 315.947 187.401 317.586 188.267 318.98C189.134 320.375 190.367 321.462 191.811 322.105C193.254 322.748 194.843 322.918 196.377 322.593C197.91 322.268 199.319 321.462 200.425 320.278C201.531 319.094 202.285 317.585 202.591 315.942C202.897 314.299 202.741 312.596 202.143 311.047C201.546 309.499 200.533 308.176 199.234 307.245C197.934 306.313 196.406 305.816 194.843 305.816C192.751 305.82 190.745 306.711 189.264 308.296C187.783 309.881 186.949 312.029 186.942 314.272Z" fill="#E0E0E0"/>
<path d="M174.421 316.432C174.418 318.107 174.88 319.746 175.746 321.14C176.613 322.534 177.846 323.622 179.29 324.265C180.733 324.908 182.322 325.078 183.856 324.752C185.389 324.427 186.798 323.622 187.904 322.438C189.01 321.254 189.764 319.745 190.07 318.102C190.376 316.459 190.22 314.756 189.622 313.207C189.025 311.659 188.012 310.336 186.713 309.405C185.413 308.474 183.885 307.977 182.322 307.977C180.229 307.977 178.221 308.867 176.739 310.452C175.258 312.037 174.424 314.188 174.421 316.432Z" fill="#E0E0E0"/>
<path d="M179.717 323.263C179.717 324.856 180.158 326.413 180.983 327.737C181.809 329.061 182.982 330.093 184.355 330.703C185.728 331.312 187.238 331.471 188.696 331.161C190.153 330.85 191.492 330.083 192.542 328.957C193.593 327.831 194.309 326.396 194.599 324.834C194.888 323.272 194.74 321.653 194.171 320.182C193.602 318.71 192.639 317.453 191.404 316.568C190.169 315.683 188.716 315.211 187.23 315.211C185.238 315.211 183.327 316.059 181.918 317.569C180.509 319.079 179.717 321.128 179.717 323.263Z" fill="#E0E0E0"/>
<path d="M166.645 322.739C166.645 324.459 167.121 326.14 168.013 327.571C168.904 329.001 170.171 330.115 171.654 330.774C173.137 331.432 174.768 331.604 176.342 331.268C177.916 330.933 179.362 330.105 180.496 328.888C181.631 327.672 182.404 326.123 182.717 324.436C183.03 322.749 182.869 321 182.255 319.411C181.641 317.822 180.601 316.464 179.267 315.508C177.932 314.553 176.364 314.042 174.759 314.042C172.607 314.042 170.543 314.959 169.022 316.59C167.5 318.221 166.645 320.433 166.645 322.739Z" fill="#E0E0E0"/>
<path d="M223.091 325.424C223.091 325.424 222.214 338.845 188.319 338.845C154.424 338.845 153.535 325.424 153.535 325.424H223.091Z" fill="#F0F0F0"/>
<path d="M313.031 500C447.111 500 555.805 493.198 555.805 484.807C555.805 476.417 447.111 469.615 313.031 469.615C178.95 469.615 70.2568 476.417 70.2568 484.807C70.2568 493.198 178.95 500 313.031 500Z" fill="#F5F5F5"/>
<path d="M385.366 87.0999C384.348 83.4936 382.997 80.0049 381.334 76.6854L383.838 67.8949L367.648 50.5286L359.447 53.2127C356.35 51.4302 353.095 49.9826 349.73 48.8913L345.699 40.8389H322.785L318.765 48.8913C315.4 49.98 312.145 51.4278 309.049 53.2127L300.848 50.5286L284.645 67.8949L287.149 76.6854C285.496 80.008 284.15 83.4961 283.13 87.0999L275.555 91.4213V115.981L283.13 120.289C284.147 123.894 285.493 127.382 287.149 130.704L284.645 139.494L300.848 156.86L309.049 154.176C312.148 155.951 315.402 157.394 318.765 158.484L322.785 166.537H345.699L349.73 158.484C353.093 157.392 356.347 155.949 359.447 154.176L367.648 156.86L383.851 139.494L381.346 130.704C383.012 127.385 384.363 123.896 385.378 120.289L392.954 115.981V91.4213L385.366 87.0999ZM334.242 138.581C327.803 138.581 321.509 136.535 316.155 132.701C310.801 128.867 306.629 123.417 304.165 117.041C301.701 110.665 301.056 103.649 302.312 96.8804C303.568 90.1117 306.669 83.8942 311.222 79.0142C315.775 74.1342 321.575 70.8109 327.89 69.4646C334.206 68.1182 340.751 68.8092 346.7 71.4502C352.649 74.0912 357.733 78.5636 361.31 84.3019C364.887 90.0401 366.797 96.7865 366.797 103.688C366.797 112.942 363.367 121.818 357.262 128.361C351.156 134.905 342.876 138.581 334.242 138.581Z" fill="#219EBC"/>
<path opacity="0.2" d="M385.366 87.0999C384.348 83.4936 382.997 80.0049 381.334 76.6854L383.838 67.8949L367.648 50.5286L359.447 53.2127C356.35 51.4302 353.095 49.9826 349.73 48.8913L345.699 40.8389H322.785L318.765 48.8913C315.4 49.98 312.145 51.4278 309.049 53.2127L300.848 50.5286L284.645 67.8949L287.149 76.6854C285.496 80.008 284.15 83.4961 283.13 87.0999L275.555 91.4213V115.981L283.13 120.289C284.147 123.894 285.493 127.382 287.149 130.704L284.645 139.494L300.848 156.86L309.049 154.176C312.148 155.951 315.402 157.394 318.765 158.484L322.785 166.537H345.699L349.73 158.484C353.093 157.392 356.347 155.949 359.447 154.176L367.648 156.86L383.851 139.494L381.346 130.704C383.012 127.385 384.363 123.896 385.378 120.289L392.954 115.981V91.4213L385.366 87.0999ZM334.242 138.581C327.803 138.581 321.509 136.535 316.155 132.701C310.801 128.867 306.629 123.417 304.165 117.041C301.701 110.665 301.056 103.649 302.312 96.8804C303.568 90.1117 306.669 83.8942 311.222 79.0142C315.775 74.1342 321.575 70.8109 327.89 69.4646C334.206 68.1182 340.751 68.8092 346.7 71.4502C352.649 74.0912 357.733 78.5636 361.31 84.3019C364.887 90.0401 366.797 96.7865 366.797 103.688C366.797 112.942 363.367 121.818 357.262 128.361C351.156 134.905 342.876 138.581 334.242 138.581Z" fill="white"/>
<path d="M334.242 92.1328C332.107 92.1328 330.02 92.8113 328.245 94.0825C326.47 95.3536 325.087 97.1604 324.27 99.2743C323.453 101.388 323.239 103.714 323.656 105.958C324.072 108.202 325.1 110.264 326.61 111.882C328.119 113.5 330.042 114.601 332.136 115.048C334.23 115.494 336.4 115.265 338.372 114.389C340.344 113.514 342.03 112.031 343.216 110.129C344.402 108.226 345.035 105.989 345.035 103.701C345.035 100.633 343.898 97.6907 341.874 95.5212C339.85 93.3516 337.104 92.1328 334.242 92.1328Z" fill="#219EBC"/>
<path d="M548.43 126.06C546.975 120.904 545.05 115.915 542.682 111.163L546.263 98.6012L523.137 73.8132L511.404 77.665C506.987 75.0988 502.333 73.0299 497.518 71.4915L491.771 59.896H459.028L453.268 71.4915C448.455 73.0347 443.802 75.1034 439.382 77.665L427.662 73.8132L404.511 98.6281L408.092 111.19C405.714 115.936 403.789 120.927 402.345 126.087L391.514 132.247V167.342L402.332 173.515C403.774 178.672 405.7 183.659 408.079 188.399L404.498 200.947L427.65 225.762L439.37 221.924C443.794 224.477 448.451 226.537 453.268 228.071L459.028 239.679H491.771L497.518 228.084C502.33 226.534 506.982 224.466 511.404 221.91L523.137 225.749L546.289 200.934L542.707 188.372C545.068 183.625 546.985 178.64 548.43 173.489L559.248 167.315V132.22L548.43 126.06ZM475.393 213.388C463.652 213.388 452.175 209.657 442.413 202.665C432.651 195.674 425.042 185.736 420.549 174.11C416.056 162.484 414.88 149.69 417.171 137.348C419.461 125.005 425.115 113.668 433.417 104.769C441.719 95.871 452.297 89.8111 463.812 87.356C475.327 84.9009 487.263 86.161 498.111 90.9768C508.958 95.7926 518.229 103.948 524.752 114.411C531.275 124.875 534.756 137.177 534.756 149.761C534.756 158.117 533.221 166.39 530.238 174.11C527.254 181.83 522.882 188.844 517.369 194.752C511.857 200.661 505.313 205.347 498.111 208.545C490.908 211.743 483.189 213.388 475.393 213.388Z" fill="#219EBC"/>
<path d="M475.393 95.0576C465.297 95.0603 455.429 98.2716 447.036 104.285C438.642 110.299 432.101 118.846 428.239 128.844C424.377 138.842 423.368 149.844 425.339 160.456C427.311 171.069 432.173 180.818 439.313 188.469C446.453 196.119 455.549 201.329 465.451 203.439C475.354 205.55 485.617 204.465 494.944 200.323C504.272 196.182 512.244 189.169 517.852 180.171C523.461 171.173 526.455 160.595 526.455 149.774C526.438 135.265 521.053 121.356 511.48 111.098C501.908 100.841 488.93 95.0718 475.393 95.0576ZM475.393 197.202C466.641 197.205 458.085 194.426 450.806 189.216C443.528 184.006 437.854 176.599 434.503 167.933C431.152 159.267 430.274 149.73 431.98 140.529C433.686 131.328 437.899 122.876 444.087 116.241C450.275 109.607 458.16 105.088 466.744 103.257C475.328 101.426 484.225 102.365 492.312 105.954C500.398 109.543 507.31 115.622 512.172 123.422C517.035 131.222 519.631 140.393 519.631 149.774C519.618 162.346 514.953 174.399 506.66 183.29C498.367 192.182 487.123 197.185 475.393 197.202Z" fill="#219EBC"/>
<path opacity="0.2" d="M475.393 95.0576C465.297 95.0603 455.429 98.2716 447.036 104.285C438.642 110.299 432.101 118.846 428.239 128.844C424.377 138.842 423.368 149.844 425.339 160.456C427.311 171.069 432.173 180.818 439.313 188.469C446.453 196.119 455.549 201.329 465.451 203.439C475.354 205.55 485.617 204.465 494.944 200.323C504.272 196.182 512.244 189.169 517.852 180.171C523.461 171.173 526.455 160.595 526.455 149.774C526.438 135.265 521.053 121.356 511.48 111.098C501.908 100.841 488.93 95.0718 475.393 95.0576ZM475.393 197.202C466.641 197.205 458.085 194.426 450.806 189.216C443.528 184.006 437.854 176.599 434.503 167.933C431.152 159.267 430.274 149.73 431.98 140.529C433.686 131.328 437.899 122.876 444.087 116.241C450.275 109.607 458.16 105.088 466.744 103.257C475.328 101.426 484.225 102.365 492.312 105.954C500.398 109.543 507.31 115.622 512.172 123.422C517.035 131.222 519.631 140.393 519.631 149.774C519.618 162.346 514.953 174.399 506.66 183.29C498.367 192.182 487.123 197.185 475.393 197.202Z" fill="black"/>
<path d="M358.107 243.128C357.775 243.128 357.457 242.987 357.222 242.735C356.987 242.483 356.855 242.142 356.855 241.786V239.101C356.855 238.745 356.987 238.404 357.222 238.152C357.457 237.901 357.775 237.759 358.107 237.759C358.439 237.759 358.758 237.901 358.992 238.152C359.227 238.404 359.359 238.745 359.359 239.101V241.786C359.359 242.142 359.227 242.483 358.992 242.735C358.758 242.987 358.439 243.128 358.107 243.128Z" fill="#219EBC"/>
<path d="M338.612 208.449C337.462 207.657 336.563 206.511 336.032 205.161C335.901 204.833 335.654 204.575 335.345 204.443C335.036 204.311 334.691 204.316 334.386 204.456C334.08 204.597 333.839 204.862 333.716 205.193C333.593 205.524 333.597 205.894 333.728 206.221C334.464 208.054 335.688 209.613 337.247 210.704C337.448 210.843 337.683 210.918 337.923 210.918C338.194 210.92 338.459 210.828 338.677 210.656C338.895 210.483 339.055 210.239 339.132 209.961C339.21 209.682 339.201 209.384 339.107 209.112C339.013 208.839 338.839 208.606 338.612 208.449Z" fill="#219EBC"/>
<path d="M334.242 191.687C334.574 191.687 334.892 191.545 335.127 191.294C335.362 191.042 335.494 190.701 335.494 190.345V185.205C335.494 184.849 335.362 184.508 335.127 184.256C334.892 184.004 334.574 183.863 334.242 183.863C333.91 183.863 333.591 184.004 333.356 184.256C333.122 184.508 332.99 184.849 332.99 185.205V190.345C332.99 190.701 333.122 191.042 333.356 191.294C333.591 191.545 333.91 191.687 334.242 191.687Z" fill="#219EBC"/>
<path d="M347.276 209.63H342.468C342.136 209.63 341.818 209.772 341.583 210.023C341.348 210.275 341.216 210.617 341.216 210.972C341.216 211.328 341.348 211.67 341.583 211.922C341.818 212.173 342.136 212.315 342.468 212.315H347.276C347.608 212.315 347.927 212.173 348.162 211.922C348.397 211.67 348.529 211.328 348.529 210.972C348.529 210.617 348.397 210.275 348.162 210.023C347.927 209.772 347.608 209.63 347.276 209.63Z" fill="#219EBC"/>
<path d="M335.494 200.638V195.498C335.494 195.142 335.362 194.801 335.127 194.549C334.892 194.298 334.574 194.156 334.242 194.156C333.91 194.156 333.591 194.298 333.356 194.549C333.122 194.801 332.99 195.142 332.99 195.498V200.638C332.99 200.994 333.122 201.336 333.356 201.587C333.591 201.839 333.91 201.98 334.242 201.98C334.574 201.98 334.892 201.839 335.127 201.587C335.362 201.336 335.494 200.994 335.494 200.638Z" fill="#219EBC"/>
<path d="M359.284 218.354C359.241 218.002 359.068 217.682 358.806 217.466C358.543 217.25 358.21 217.154 357.882 217.2C357.719 217.229 357.563 217.292 357.422 217.387C357.282 217.481 357.161 217.604 357.066 217.749C356.97 217.893 356.902 218.057 356.866 218.23C356.83 218.403 356.826 218.582 356.855 218.756C356.895 219.068 356.916 219.382 356.918 219.696V223.722C356.918 224.078 357.05 224.419 357.284 224.671C357.519 224.923 357.838 225.064 358.17 225.064C358.502 225.064 358.82 224.923 359.055 224.671C359.29 224.419 359.422 224.078 359.422 223.722V219.696C359.403 219.246 359.357 218.797 359.284 218.354Z" fill="#219EBC"/>
<path d="M358.107 227.467C357.775 227.467 357.457 227.609 357.222 227.86C356.987 228.112 356.855 228.453 356.855 228.809V233.963C356.855 234.319 356.987 234.66 357.222 234.912C357.457 235.164 357.775 235.305 358.107 235.305C358.439 235.305 358.758 235.164 358.992 234.912C359.227 234.66 359.359 234.319 359.359 233.963V228.809C359.359 228.453 359.227 228.112 358.992 227.86C358.758 227.609 358.439 227.467 358.107 227.467Z" fill="#219EBC"/>
<path d="M357.018 213.026C355.792 211.525 354.173 210.455 352.372 209.953C352.213 209.909 352.047 209.899 351.884 209.923C351.721 209.948 351.564 210.007 351.422 210.097C351.28 210.186 351.156 210.305 351.057 210.446C350.958 210.587 350.886 210.748 350.845 210.919C350.804 211.09 350.794 211.268 350.818 211.443C350.841 211.618 350.896 211.786 350.979 211.938C351.063 212.09 351.174 212.223 351.305 212.329C351.437 212.435 351.587 212.512 351.746 212.556C353.062 212.92 354.245 213.701 355.14 214.798C355.257 214.941 355.401 215.055 355.563 215.134C355.725 215.213 355.901 215.254 356.079 215.254C356.319 215.254 356.555 215.179 356.757 215.039C356.959 214.899 357.119 214.699 357.218 214.464C357.317 214.229 357.351 213.969 357.316 213.714C357.28 213.459 357.177 213.22 357.018 213.026Z" fill="#219EBC"/>
<path d="M334.242 181.34C333.91 181.34 333.591 181.198 333.356 180.947C333.122 180.695 332.99 180.353 332.99 179.998V177.313C332.99 176.957 333.122 176.616 333.356 176.364C333.591 176.113 333.91 175.971 334.242 175.971C334.574 175.971 334.892 176.113 335.127 176.364C335.362 176.616 335.494 176.957 335.494 177.313V179.998C335.494 180.353 335.362 180.695 335.127 180.947C334.892 181.198 334.574 181.34 334.242 181.34Z" fill="#219EBC"/>
<path d="M417.42 310.702H127.504V315.681H417.42V310.702Z" fill="#219EBC"/>
<path d="M417.42 315.681H480.327V310.702H417.42V315.681Z" fill="#219EBC"/>
<path opacity="0.2" d="M417.42 315.681H480.327V310.702H417.42V315.681Z" fill="black"/>
<path d="M459.316 321.009H148.514L138.122 315.681H469.709L459.316 321.009Z" fill="#219EBC"/>
<path opacity="0.6" d="M459.316 321.009H148.514L138.122 315.681H469.709L459.316 321.009Z" fill="white"/>
<path d="M157.905 321.008V479.828H161.887L166.895 321.008H157.905Z" fill="#219EBC"/>
<path d="M204.91 321.008V479.828H208.892L213.9 321.008H204.91Z" fill="#219EBC"/>
<path d="M459.316 321.008V479.828H455.347L450.326 321.008H459.316Z" fill="#219EBC"/>
<path d="M412.324 321.008V479.828H408.342L403.334 321.008H412.324Z" fill="#219EBC"/>
<path d="M317.714 250.416L304.629 307.548L304.266 310.702H394.519L394.895 307.548L407.967 250.416H317.714Z" fill="#219EBC"/>
<path opacity="0.3" d="M317.714 250.416L304.629 307.548L304.266 310.702H394.519L394.895 307.548L407.967 250.416H317.714Z" fill="black"/>
<path d="M405.2 250.416H314.934L301.862 307.547H392.115L405.2 250.416Z" fill="#219EBC"/>
<path d="M390.199 304.93L402.094 253.033H316.85L304.967 304.93H390.199Z" fill="white"/>
<path d="M368.6 307.547L368.224 310.701H268.843L269.206 307.547H368.6Z" fill="#219EBC"/>
<path opacity="0.6" d="M368.6 307.547L368.224 310.701H268.843L269.206 307.547H368.6Z" fill="white"/>
<path d="M180.857 300.313C180.794 298.269 180.047 296.317 178.753 294.814C177.458 293.311 175.703 292.357 173.807 292.126V290.583C173.806 290.494 173.787 290.406 173.754 290.324C173.72 290.242 173.671 290.169 173.611 290.107C173.55 290.046 173.478 289.999 173.4 289.967C173.322 289.936 173.239 289.922 173.156 289.925H159.633C159.549 289.922 159.466 289.936 159.387 289.967C159.308 289.998 159.236 290.046 159.174 290.107C159.112 290.168 159.063 290.241 159.028 290.323C158.992 290.405 158.973 290.493 158.969 290.583V310.714H173.807V308.513C175.706 308.284 177.465 307.329 178.76 305.823C180.055 304.317 180.799 302.36 180.857 300.313ZM173.807 305.909V294.73C175.058 294.928 176.202 295.601 177.028 296.627C177.855 297.653 178.31 298.964 178.31 300.32C178.31 301.675 177.855 302.986 177.028 304.012C176.202 305.038 175.058 305.712 173.807 305.909Z" fill="#219EBC"/>
<path d="M433.936 310.702H446.507L442.788 281.189H433.936V310.702Z" fill="#263238"/>
<path d="M415.505 310.702H439.32L443.74 276.156H419.937L415.505 310.702Z" fill="#219EBC"/>
<path opacity="0.3" d="M415.505 310.702H439.32L443.74 276.156H419.937L415.505 310.702Z" fill="black"/>
<path d="M412.324 310.702H437.104L441.536 276.156H416.757L412.324 310.702Z" fill="#219EBC"/>
<path opacity="0.4" d="M434.912 307.977L438.644 278.881H418.948L415.217 307.977H434.912Z" fill="white"/>
<path d="M247.344 259.703L246.318 260.884L245.216 262.226C244.477 263.139 243.738 264.065 243.037 265.018C241.635 266.924 240.282 268.87 239.018 270.869C236.502 274.737 234.401 278.897 232.757 283.27C231.991 285.349 231.396 287.495 230.979 289.685C230.779 290.92 230.654 291.456 230.591 291.98C230.522 292.397 230.522 292.824 230.591 293.241C230.801 293.897 231.13 294.502 231.56 295.021C231.99 295.539 232.512 295.961 233.095 296.261C233.941 296.819 234.829 297.3 235.75 297.697C236.234 297.912 236.735 298.113 237.252 298.301C237.728 298.489 238.329 298.677 238.705 298.838V306.233C237.828 306.367 237.19 306.474 236.451 306.528C235.712 306.581 234.998 306.595 234.26 306.528C232.741 306.495 231.23 306.288 229.752 305.91C228.087 305.491 226.491 304.803 225.019 303.871C223.288 302.785 221.801 301.305 220.662 299.536C219.489 297.652 218.712 295.518 218.383 293.282C218.299 292.758 218.245 292.229 218.22 291.698C218.195 291.188 218.195 290.678 218.22 290.168V289.416C218.206 289.215 218.206 289.014 218.22 288.813L218.32 287.632C218.64 284.564 219.244 281.539 220.123 278.599C221.819 272.954 224.206 267.574 227.223 262.602C228.672 260.161 230.248 257.808 231.943 255.556C232.782 254.429 233.646 253.328 234.548 252.241C234.986 251.691 235.449 251.154 235.925 250.618C236.401 250.081 236.839 249.611 237.49 248.94L247.344 259.703Z" fill="#B55B52"/>
<path d="M236.213 298.676L242.048 294.086L245.366 306.944C245.366 306.944 240.195 308.997 236.25 306.232L236.213 298.676Z" fill="#B55B52"/>
<path d="M250.149 291L252.428 301.763L245.366 306.943L242.048 294.087L250.149 291Z" fill="#B55B52"/>
<path d="M287.049 210.368C286.786 211.16 286.974 211.952 287.462 212.126C287.951 212.301 288.552 211.818 288.802 211.026C289.053 210.234 288.877 209.429 288.402 209.255C287.926 209.08 287.312 209.563 287.049 210.368Z" fill="#263238"/>
<path d="M286.912 211.925C287.009 214.689 287.46 217.426 288.251 220.059C287.621 220.252 286.958 220.298 286.31 220.191C285.662 220.084 285.042 219.829 284.495 219.441L286.912 211.925Z" fill="#A02724"/>
<path d="M285.847 204.974C285.941 205.007 286.042 205.007 286.135 204.974C286.685 204.777 287.27 204.723 287.842 204.817C288.415 204.91 288.958 205.148 289.428 205.511C289.523 205.584 289.639 205.616 289.755 205.602C289.87 205.587 289.976 205.526 290.052 205.432C290.128 205.337 290.168 205.215 290.163 205.091C290.159 204.966 290.111 204.848 290.029 204.759C289.442 204.289 288.758 203.977 288.034 203.849C287.311 203.721 286.57 203.779 285.872 204.021C285.781 204.054 285.702 204.118 285.646 204.202C285.59 204.286 285.559 204.387 285.559 204.49C285.559 204.594 285.59 204.695 285.646 204.779C285.702 204.863 285.781 204.927 285.872 204.96L285.847 204.974Z" fill="#263238"/>
<path d="M259.59 213.294C260.993 220.93 262.382 234.928 257.399 240.028C257.399 240.028 259.352 247.771 272.6 247.771C287.162 247.771 279.562 240.028 279.562 240.028C271.611 237.988 271.811 231.667 273.201 225.735L259.59 213.294Z" fill="#B55B52"/>
<path d="M255.496 242.686C254.444 240.23 253.304 237.425 255.671 236.552C258.288 235.586 272.612 234.593 277.545 236.405C278.198 236.595 278.808 236.923 279.341 237.369C279.873 237.815 280.318 238.37 280.648 239.003C280.978 239.635 281.187 240.332 281.262 241.052C281.338 241.772 281.279 242.501 281.089 243.196L255.496 242.686Z" fill="#263238"/>
<path d="M305.518 255.784C308.586 261.703 311.879 267.796 315.21 273.647C318.54 279.498 322.034 285.323 325.765 290.637C326.692 291.98 327.656 293.254 328.607 294.529C329.083 295.187 329.584 295.724 330.072 296.328L330.799 297.214L330.986 297.442L331.074 297.549L331.162 297.67C331.745 298.275 332.446 298.733 333.215 299.012C334.399 299.453 335.619 299.772 336.859 299.965C342.945 300.623 349.082 300.547 355.152 299.737L357.055 306.85C355.365 307.655 353.787 308.192 352.11 308.863C350.432 309.534 348.779 309.977 347.101 310.433C343.545 311.389 339.899 311.911 336.233 311.99C334.175 312.025 332.12 311.805 330.11 311.332C327.642 310.807 325.315 309.697 323.298 308.084L322.459 307.346L322.259 307.158L322.134 307.024L321.896 306.769L320.919 305.736C320.281 305.051 319.58 304.394 319.004 303.669C317.751 302.26 316.574 300.851 315.485 299.401C311.111 293.735 307.075 287.778 303.402 281.565C301.574 278.505 299.813 275.414 298.118 272.292C296.415 269.138 294.775 266.051 293.185 262.723L305.518 255.784Z" fill="#B55B52"/>
<path d="M239.957 242.391C230.816 244.632 220.348 271.326 220.348 271.326L238.692 284.746C243.254 277.734 247.302 270.353 250.8 262.669C256.222 250.51 249.298 240.096 239.957 242.391Z" fill="#219EBC"/>
<path opacity="0.2" d="M246.493 259.407L237.828 284.155L238.68 284.799C238.68 284.799 242.436 279.149 246.493 271.526V259.407Z" fill="black"/>
<path d="M294.549 242.912C294.549 242.912 304.917 255.474 295.125 333.18H242.999C242.649 324.604 247.67 282.785 239.957 242.376C245.717 241.187 251.543 240.398 257.399 240.014C264.78 239.55 272.18 239.55 279.561 240.014C284.62 240.559 289.631 241.529 294.549 242.912Z" fill="#219EBC"/>
<path opacity="0.2" d="M288.752 265.393C290.112 274.213 293.668 282.475 299.045 289.309C299.257 284.303 299.345 279.807 299.333 275.794L288.752 265.393Z" fill="black"/>
<path d="M284.232 251.396C282.98 261.287 301.136 286.544 301.136 286.544L319.404 273.124C319.404 273.124 314.333 259.207 305.806 250.081C296.09 239.613 285.659 240.633 284.232 251.396Z" fill="#219EBC"/>
<path d="M353.099 299.804L360.536 296.529L368.187 302.73C368.187 302.73 360.887 309.655 354.251 306.957L353.099 299.804Z" fill="#B55B52"/>
<path d="M365.445 296.207L371.054 300.502L368.149 302.73L360.499 296.529L365.445 296.207Z" fill="#B55B52"/>
<path d="M262.833 199.445C260.229 209.43 258.225 215.133 261.205 221.857C265.676 231.989 278.385 231.708 283.744 222.77C288.552 214.717 292.008 199.74 284.345 192.533C282.662 190.931 280.626 189.817 278.428 189.297C276.231 188.776 273.946 188.867 271.791 189.559C269.635 190.252 267.681 191.523 266.113 193.254C264.545 194.984 263.416 197.115 262.833 199.445Z" fill="#B55B52"/>
<path d="M282.667 199.552C278.91 211.013 274.49 223.601 263.697 221.213C256.735 219.669 256.184 207.658 253.68 202.196C251.464 197.405 251.602 187.769 256.184 187.648C254.131 184.454 264.511 172.764 271.598 178.938C273.414 176.254 286.498 168.349 296.19 180.897C305.318 192.761 300.848 202.652 282.667 199.552Z" fill="#263238"/>
<path d="M274.215 206.879C273.964 209.439 274.501 212.017 275.743 214.22C277.408 217.092 279.85 215.991 280.751 213.052C281.553 210.368 281.64 205.738 279.324 203.873C277.007 202.007 274.566 203.792 274.215 206.879Z" fill="#B55B52"/>
<path d="M354.201 472.246C355.453 472.246 356.705 472.058 357.068 471.454C357.171 471.294 357.227 471.105 357.227 470.91C357.227 470.716 357.171 470.526 357.068 470.367C356.901 470.084 356.642 469.878 356.342 469.79C354.714 469.32 351.333 471.4 351.17 471.494C351.128 471.517 351.093 471.554 351.073 471.601C351.052 471.647 351.047 471.699 351.058 471.749C351.066 471.797 351.087 471.842 351.118 471.877C351.149 471.913 351.189 471.938 351.233 471.95C352.212 472.142 353.205 472.24 354.201 472.246ZM355.753 470.219C355.899 470.197 356.046 470.197 356.191 470.219C356.286 470.238 356.375 470.279 356.453 470.339C356.531 470.4 356.596 470.478 356.642 470.568C356.805 470.877 356.755 471.024 356.642 471.105C356.191 471.789 353.725 471.803 351.909 471.521C353.1 470.824 354.405 470.382 355.753 470.219Z" fill="#219EBC"/>
<path d="M351.258 471.95H351.358C352.535 471.387 354.864 469.132 354.676 467.924C354.676 467.642 354.451 467.307 353.825 467.226C353.6 467.205 353.374 467.232 353.159 467.306C352.944 467.38 352.745 467.499 352.573 467.656C351.321 468.743 351.07 471.561 351.058 471.682C351.053 471.725 351.059 471.768 351.074 471.808C351.089 471.848 351.114 471.883 351.145 471.91C351.18 471.932 351.218 471.946 351.258 471.95ZM353.637 467.723H353.775C354.188 467.723 354.213 467.951 354.226 468.005C354.338 468.716 352.748 470.487 351.546 471.253C351.646 470.071 352.083 468.951 352.798 468.045C353.032 467.831 353.33 467.716 353.637 467.723Z" fill="#219EBC"/>
<path d="M339.927 471.709H349.668L351.884 447.511H342.143L339.927 471.709Z" fill="#B55B52"/>
<path d="M350.219 470.501H339.588C339.393 470.502 339.203 470.574 339.051 470.706C338.898 470.838 338.792 471.021 338.749 471.226L336.821 480.459C336.772 480.684 336.771 480.918 336.818 481.143C336.866 481.369 336.961 481.579 337.096 481.759C337.232 481.939 337.404 482.084 337.599 482.182C337.794 482.28 338.008 482.328 338.224 482.324C342.055 482.257 347.602 482.015 352.423 482.015C358.07 482.015 362.94 482.338 369.552 482.338C373.558 482.338 374.673 478.003 372.995 477.614C365.37 475.829 359.147 475.641 352.56 471.279C351.862 470.794 351.051 470.524 350.219 470.501Z" fill="#263238"/>
<path opacity="0.2" d="M351.872 447.525L350.745 459.993H340.991L342.13 447.525H351.872Z" fill="black"/>
<path d="M315.147 472.232C315.56 472.29 315.98 472.259 316.382 472.142C316.784 472.024 317.16 471.822 317.488 471.548C317.603 471.378 317.665 471.174 317.665 470.964C317.665 470.754 317.603 470.55 317.488 470.38C317.414 470.233 317.311 470.105 317.185 470.005C317.06 469.905 316.915 469.836 316.762 469.803C315.335 469.441 312.643 471.413 312.53 471.494C312.494 471.524 312.466 471.563 312.449 471.607C312.431 471.652 312.425 471.701 312.43 471.749C312.439 471.795 312.46 471.838 312.491 471.871C312.522 471.904 312.562 471.927 312.605 471.937C313.44 472.132 314.292 472.231 315.147 472.232ZM316.399 470.246C316.49 470.232 316.583 470.232 316.674 470.246C316.764 470.26 316.849 470.297 316.923 470.352C316.997 470.408 317.058 470.482 317.1 470.568C317.313 470.984 317.188 471.145 317.1 471.212C316.687 471.789 314.696 471.803 313.231 471.548C314.173 470.864 315.248 470.419 316.374 470.246H316.399Z" fill="#219EBC"/>
<path d="M312.668 471.951H312.768C313.782 471.36 315.735 469.079 315.522 467.925C315.49 467.74 315.399 467.573 315.264 467.453C315.129 467.333 314.959 467.267 314.784 467.267C314.609 467.244 314.432 467.261 314.263 467.317C314.095 467.372 313.94 467.465 313.807 467.589C312.68 468.582 312.442 471.615 312.43 471.723C312.429 471.768 312.439 471.812 312.459 471.852C312.479 471.892 312.507 471.926 312.543 471.951C312.583 471.964 312.627 471.964 312.668 471.951ZM314.634 467.724H314.734C315.034 467.724 315.059 467.911 315.072 467.979C315.197 468.663 313.945 470.394 312.943 471.213C313.011 470.022 313.412 468.88 314.095 467.938C314.245 467.8 314.436 467.724 314.634 467.724Z" fill="#219EBC"/>
<path d="M301.499 471.709H311.24L316.136 447.511H306.395L301.499 471.709Z" fill="#B55B52"/>
<path d="M311.929 470.502H300.985C300.791 470.503 300.603 470.576 300.453 470.708C300.303 470.84 300.199 471.023 300.159 471.226L298.231 480.459C298.186 480.686 298.189 480.921 298.24 481.146C298.291 481.371 298.388 481.581 298.526 481.76C298.663 481.94 298.836 482.083 299.032 482.181C299.228 482.279 299.442 482.328 299.658 482.325C303.477 482.258 305.343 482.016 310.151 482.016C313.118 482.016 316.912 482.338 321.007 482.338C325.101 482.338 325.627 478.004 323.949 477.614C316.437 475.856 315.923 473.427 313.519 471.106C313.076 470.703 312.51 470.488 311.929 470.502Z" fill="#263238"/>
<g opacity="0.2">
<path opacity="0.2" d="M306.395 447.525H316.136L313.607 459.993H303.865L306.395 447.525Z" fill="black"/>
</g>
<path d="M295.125 333.194C295.125 333.194 368.124 341.475 367.323 381.388C366.806 406.454 362.309 431.243 354.025 454.691H339.551C339.551 454.691 340.29 429.366 339.801 388.501C339.651 376.248 316.574 372.208 294.024 370.785C284.474 370.142 275.282 366.651 267.486 360.706C259.689 354.761 253.598 346.598 249.899 337.14L248.359 333.194H295.125Z" fill="#263238"/>
<path d="M357.569 450.531C357.644 450.531 356.63 457.872 356.63 457.872H336.596L336.045 451.323L357.569 450.531Z" fill="#219EBC"/>
<path d="M279.499 333.194C279.499 333.194 332.414 351.983 333.753 375.281C336.258 418.147 316.587 454.691 316.587 454.691H301.975C301.975 454.691 307.521 436.573 309.487 397.734C311.992 348.95 227.06 397.654 242.974 333.194H279.499Z" fill="#263238"/>
<path d="M321.007 450.531C321.082 450.531 319.166 457.872 319.166 457.872H299.132L299.495 451.323L321.007 450.531Z" fill="#219EBC"/>
<path d="M317.663 374.288H236.275C236.275 371.647 237.254 369.114 238.997 367.247C240.739 365.379 243.102 364.33 245.566 364.33H308.373C310.837 364.33 313.2 365.379 314.942 367.247C316.685 369.114 317.663 371.647 317.663 374.288Z" fill="#219EBC"/>
<path d="M240.044 374.274L227.774 484.539H230.403L245.967 374.274H240.044Z" fill="#219EBC"/>
<path opacity="0.4" d="M240.044 374.274L227.774 484.539H230.403L245.967 374.274H240.044Z" fill="black"/>
<path d="M256.46 374.274L256.222 484.539H258.839L262.382 374.274H256.46Z" fill="#219EBC"/>
<path opacity="0.4" d="M256.46 374.274L256.222 484.539H258.839L262.382 374.274H256.46Z" fill="black"/>
<path d="M313.895 374.274L326.166 484.539H323.536L307.985 374.274H313.895Z" fill="#219EBC"/>
<path opacity="0.4" d="M313.895 374.274L326.166 484.539H323.536L307.985 374.274H313.895Z" fill="black"/>
<path d="M297.479 374.274L297.717 484.539H295.1L291.557 374.274H297.479Z" fill="#219EBC"/>
<path opacity="0.4" d="M297.479 374.274L297.717 484.539H295.1L291.557 374.274H297.479Z" fill="black"/>
</svg>
