<svg width="537" height="500" viewBox="0 0 537 500" fill="none" xmlns="http://www.w3.org/2000/svg">
<g clip-path="url(#clip0)">
<path d="M536.517 382.399H0V382.649H536.517V382.399Z" fill="#EBEBEB"/>
<path d="M482.758 398.49H447.219V398.74H482.758V398.49Z" fill="#EBEBEB"/>
<path d="M355.41 401.21H346.086V401.46H355.41V401.21Z" fill="#EBEBEB"/>
<path d="M446.146 389.21H425.554V389.46H446.146V389.21Z" fill="#EBEBEB"/>
<path d="M102.636 390.89H56.2915V391.14H102.636V390.89Z" fill="#EBEBEB"/>
<path d="M118.989 390.89H112.196V391.14H118.989V390.89Z" fill="#EBEBEB"/>
<path d="M241.594 395.11H141.072V395.36H241.594V395.11Z" fill="#EBEBEB"/>
<path d="M254.309 337.8H47.1168C45.4937 337.797 43.938 337.195 42.7913 336.124C41.6445 335.054 41.0005 333.603 41.0005 332.09V60.66C41.0146 59.156 41.6649 57.718 42.8101 56.6582C43.9553 55.5985 45.5029 55.0026 47.1168 55H254.309C255.934 55 257.492 55.6016 258.641 56.6724C259.79 57.7433 260.436 59.1956 260.436 60.71V332.09C260.436 333.604 259.79 335.057 258.641 336.128C257.492 337.198 255.934 337.8 254.309 337.8ZM47.1168 55.2C45.5648 55.2026 44.0774 55.7791 42.9809 56.8027C41.8845 57.8264 41.2687 59.2136 41.2687 60.66V332.09C41.2687 333.536 41.8845 334.924 42.9809 335.947C44.0774 336.971 45.5648 337.547 47.1168 337.55H254.309C255.862 337.547 257.35 336.971 258.449 335.948C259.547 334.925 260.165 333.537 260.168 332.09V60.66C260.165 59.2127 259.547 57.8255 258.449 56.8021C257.35 55.7787 255.862 55.2026 254.309 55.2H47.1168Z" fill="#EBEBEB"/>
<path d="M486.417 337.8H279.214C277.59 337.797 276.033 337.195 274.885 336.125C273.736 335.054 273.09 333.604 273.087 332.09V60.66C273.104 59.1551 273.757 57.7171 274.904 56.6576C276.051 55.5981 277.599 55.0025 279.214 55H486.417C488.029 55.0052 489.574 55.6022 490.717 56.6617C491.86 57.7212 492.508 59.1578 492.523 60.66V332.09C492.523 333.601 491.88 335.05 490.736 336.121C489.591 337.191 488.038 337.795 486.417 337.8ZM279.214 55.2C277.661 55.2026 276.173 55.7787 275.075 56.8021C273.976 57.8255 273.358 59.2127 273.355 60.66V332.09C273.358 333.537 273.976 334.925 275.075 335.948C276.173 336.971 277.661 337.547 279.214 337.55H486.417C487.97 337.547 489.458 336.971 490.557 335.948C491.655 334.925 492.273 333.537 492.276 332.09V60.66C492.273 59.2127 491.655 57.8255 490.557 56.8021C489.458 55.7787 487.97 55.2026 486.417 55.2H279.214Z" fill="#EBEBEB"/>
<path d="M494.894 160.7H305.729V336.1H494.894V160.7Z" fill="#F0F0F0"/>
<path d="M488.209 168.84H312.414V216.58H488.209V168.84Z" fill="#E0E0E0"/>
<path d="M322.404 176.57H312.414V216.58H322.404V176.57Z" fill="#EBEBEB"/>
<path d="M370.69 176.57H360.7V216.58H370.69V176.57Z" fill="#EBEBEB"/>
<path d="M425.506 175.563L415.661 177.145L422.954 216.573L432.799 214.992L425.506 175.563Z" fill="#EBEBEB"/>
<path d="M334.776 181.84H324.786V216.58H334.776V181.84Z" fill="#EBEBEB"/>
<path d="M357.728 181.84H347.738V216.58H357.728V181.84Z" fill="#EBEBEB"/>
<path d="M415.672 181.84H405.682V216.58H415.672V181.84Z" fill="#EBEBEB"/>
<path d="M383.812 180.623L374.06 182.643L382.147 216.555L391.899 214.535L383.812 180.623Z" fill="#EBEBEB"/>
<path d="M343.403 174.58H338.413V216.57H343.403V174.58Z" fill="#EBEBEB"/>
<path d="M402.806 174.58H397.817V216.57H402.806V174.58Z" fill="#EBEBEB"/>
<path d="M312.414 271.87H488.209V224.13L312.414 224.13V271.87Z" fill="#E0E0E0"/>
<path d="M478.219 271.87H488.209V231.86H478.219V271.87Z" fill="#EBEBEB"/>
<path d="M429.932 271.87H439.922V231.86H429.932V271.87Z" fill="#EBEBEB"/>
<path d="M367.831 270.277L377.676 271.858L384.968 232.43L375.124 230.848L367.831 270.277Z" fill="#EBEBEB"/>
<path d="M465.847 271.87H475.837V237.13H465.847V271.87Z" fill="#EBEBEB"/>
<path d="M442.895 271.87H452.885V237.13H442.895V271.87Z" fill="#EBEBEB"/>
<path d="M384.951 271.87H394.941V237.13H384.951V271.87Z" fill="#EBEBEB"/>
<path d="M407.91 267.727L417.7 269.775L425.901 235.73L416.111 233.682L407.91 267.727Z" fill="#EBEBEB"/>
<path d="M457.22 271.87H462.209V229.88H457.22V271.87Z" fill="#EBEBEB"/>
<path d="M397.817 271.87H402.806V229.88H397.817V271.87Z" fill="#EBEBEB"/>
<path d="M322.404 231.86H312.414V271.87H322.404V231.86Z" fill="#EBEBEB"/>
<path d="M334.776 237.13H324.786V271.87H334.776V237.13Z" fill="#EBEBEB"/>
<path d="M357.728 237.13H347.738V271.87H357.728V237.13Z" fill="#EBEBEB"/>
<path d="M343.403 229.87H338.413V271.86H343.403V229.87Z" fill="#EBEBEB"/>
<path d="M488.209 279.43H312.414V327.17H488.209V279.43Z" fill="#E0E0E0"/>
<path d="M423.301 287.15H413.311V327.16H423.301V287.15Z" fill="#EBEBEB"/>
<path d="M478.12 286.148L468.275 287.729L475.568 327.158L485.413 325.576L478.12 286.148Z" fill="#EBEBEB"/>
<path d="M387.386 292.43H377.396V327.17H387.386V292.43Z" fill="#EBEBEB"/>
<path d="M410.35 292.43H400.36V327.17H410.35V292.43Z" fill="#EBEBEB"/>
<path d="M468.283 292.43H458.293V327.17H468.283V292.43Z" fill="#EBEBEB"/>
<path d="M436.428 291.212L426.676 293.231L434.764 327.144L444.516 325.124L436.428 291.212Z" fill="#EBEBEB"/>
<path d="M396.014 285.17H391.024V327.16H396.014V285.17Z" fill="#EBEBEB"/>
<path d="M455.417 285.17H450.427V327.16H455.417V285.17Z" fill="#EBEBEB"/>
<path d="M363.247 286.153L353.403 287.735L360.695 327.163L370.54 325.582L363.247 286.153Z" fill="#EBEBEB"/>
<path d="M353.393 292.43H343.403V327.17H353.393V292.43Z" fill="#EBEBEB"/>
<path d="M321.549 291.218L311.797 293.238L319.884 327.151L329.636 325.131L321.549 291.218Z" fill="#EBEBEB"/>
<path d="M340.527 285.17H335.538V327.16H340.527V285.17Z" fill="#EBEBEB"/>
<path d="M40.2174 336.101H229.383L229.383 160.701L40.2174 160.701L40.2174 336.101Z" fill="#F0F0F0"/>
<path d="M46.9022 216.57L222.697 216.57V168.83L46.9022 168.83V216.57Z" fill="#E0E0E0"/>
<path d="M212.707 216.57H222.697V176.56H212.707V216.57Z" fill="#EBEBEB"/>
<path d="M164.421 216.57H174.411V176.56H164.421V216.57Z" fill="#EBEBEB"/>
<path d="M102.322 214.985L112.167 216.566L119.459 177.138L109.615 175.556L102.322 214.985Z" fill="#EBEBEB"/>
<path d="M200.336 216.57H210.325V181.83H200.336V216.57Z" fill="#EBEBEB"/>
<path d="M177.372 216.57H187.362V181.83H177.372V216.57Z" fill="#EBEBEB"/>
<path d="M119.439 216.57H129.429V181.83H119.439V216.57Z" fill="#EBEBEB"/>
<path d="M143.227 214.556L152.979 216.576L161.066 182.664L151.314 180.644L143.227 214.556Z" fill="#EBEBEB"/>
<path d="M191.708 216.57H196.698V174.58H191.708V216.57Z" fill="#EBEBEB"/>
<path d="M132.305 216.57H137.295V174.58H132.305V216.57Z" fill="#EBEBEB"/>
<path d="M222.697 224.13H46.9023V271.87H222.697V224.13Z" fill="#E0E0E0"/>
<path d="M56.8923 231.86H46.9023V271.87H56.8923V231.86Z" fill="#EBEBEB"/>
<path d="M105.179 231.86H95.1887V271.87H105.179V231.86Z" fill="#EBEBEB"/>
<path d="M160.778 231.88L150.888 233.462L158.187 273.072L168.077 271.49L160.778 231.88Z" fill="#EBEBEB"/>
<path d="M69.2644 237.13H59.2744V271.87H69.2644V237.13Z" fill="#EBEBEB"/>
<path d="M92.2165 237.13H82.2266V271.87H92.2165V237.13Z" fill="#EBEBEB"/>
<path d="M150.16 237.13H140.17V271.87H150.16V237.13Z" fill="#EBEBEB"/>
<path d="M118.301 235.938L108.549 237.958L116.637 271.87L126.389 269.85L118.301 235.938Z" fill="#EBEBEB"/>
<path d="M77.8917 229.87H72.9021V271.86H77.8917V229.87Z" fill="#EBEBEB"/>
<path d="M137.295 229.87H132.305V271.86H137.295V229.87Z" fill="#EBEBEB"/>
<path d="M212.707 271.87H222.697V231.86H212.707V271.87Z" fill="#EBEBEB"/>
<path d="M200.336 271.87H210.325V237.13H200.336V271.87Z" fill="#EBEBEB"/>
<path d="M177.372 271.87H187.362V237.13H177.372V271.87Z" fill="#EBEBEB"/>
<path d="M191.708 271.87H196.698V229.88H191.708V271.87Z" fill="#EBEBEB"/>
<path d="M46.9022 327.16H222.697V279.42H46.9022V327.16Z" fill="#E0E0E0"/>
<path d="M111.81 327.17H121.8V287.16H111.81V327.17Z" fill="#EBEBEB"/>
<path d="M49.7036 325.581L59.5483 327.162L66.841 287.734L56.9963 286.152L49.7036 325.581Z" fill="#EBEBEB"/>
<path d="M147.714 327.16H157.704V292.42H147.714V327.16Z" fill="#EBEBEB"/>
<path d="M124.762 327.16H134.751V292.42H124.762V327.16Z" fill="#EBEBEB"/>
<path d="M66.8287 327.16H76.8186V292.42H66.8287V327.16Z" fill="#EBEBEB"/>
<path d="M90.6208 325.148L100.373 327.167L108.46 293.255L98.7081 291.235L90.6208 325.148Z" fill="#EBEBEB"/>
<path d="M139.097 327.16H144.087V285.17H139.097V327.16Z" fill="#EBEBEB"/>
<path d="M79.6942 327.16H84.6838V285.17H79.6942V327.16Z" fill="#EBEBEB"/>
<path d="M164.589 325.573L174.434 327.155L181.726 287.726L171.882 286.145L164.589 325.573Z" fill="#EBEBEB"/>
<path d="M181.718 327.16H191.708V292.42H181.718V327.16Z" fill="#EBEBEB"/>
<path d="M205.511 325.138L215.263 327.158L223.35 293.246L213.598 291.226L205.511 325.138Z" fill="#EBEBEB"/>
<path d="M194.584 327.16H199.573V285.17H194.584V327.16Z" fill="#EBEBEB"/>
<path d="M270.447 119.26C282.798 119.26 292.81 109.93 292.81 98.4201C292.81 86.9105 282.798 77.5801 270.447 77.5801C258.097 77.5801 248.085 86.9105 248.085 98.4201C248.085 109.93 258.097 119.26 270.447 119.26Z" fill="#E0E0E0"/>
<path d="M270.447 115.94C280.83 115.94 289.247 108.096 289.247 98.4199C289.247 88.7439 280.83 80.8999 270.447 80.8999C260.065 80.8999 251.648 88.7439 251.648 98.4199C251.648 108.096 260.065 115.94 270.447 115.94Z" fill="#EBEBEB"/>
<path d="M270.404 99.4197C270.243 99.4076 270.087 99.3617 269.948 99.2855C269.809 99.2093 269.69 99.1048 269.6 98.9797L261.82 88.2297C261.741 88.1207 261.686 87.9983 261.658 87.8695C261.63 87.7406 261.629 87.6079 261.656 87.4788C261.683 87.3497 261.737 87.2268 261.815 87.1172C261.893 87.0075 261.993 86.9132 262.11 86.8397C262.227 86.7662 262.358 86.7148 262.497 86.6886C262.635 86.6624 262.777 86.6618 262.916 86.6868C263.054 86.7119 263.186 86.7621 263.304 86.8347C263.421 86.9073 263.523 87.0007 263.601 87.1097L270.619 96.8097L275.512 91.8097C275.604 91.7032 275.719 91.6155 275.849 91.5519C275.979 91.4883 276.121 91.4503 276.267 91.4401C276.414 91.4298 276.561 91.4477 276.699 91.4925C276.838 91.5374 276.965 91.6082 277.073 91.7007C277.181 91.7932 277.268 91.9054 277.328 92.0303C277.387 92.1552 277.419 92.2902 277.421 92.427C277.422 92.5637 277.393 92.6993 277.337 92.8253C277.28 92.9514 277.196 93.0652 277.09 93.1597L271.274 99.0797C271.166 99.1943 271.032 99.2845 270.881 99.3434C270.731 99.4023 270.568 99.4284 270.404 99.4197Z" fill="#E0E0E0"/>
<path d="M268.259 427.56C383.162 427.56 476.309 422.492 476.309 416.24C476.309 409.988 383.162 404.92 268.259 404.92C153.355 404.92 60.208 409.988 60.208 416.24C60.208 422.492 153.355 427.56 268.259 427.56Z" fill="#F5F5F5"/>
<path d="M326.202 276.141L320.086 327.021H360.969L365.797 276.141H326.202Z" fill="#219EBC"/>
<path opacity="0.3" d="M326.202 276.141L320.086 327.021H356.215L361.044 276.141H326.202Z" fill="white"/>
<path opacity="0.1" d="M361.044 276.141L356.215 327.021H360.969L365.797 276.141H361.044Z" fill="white"/>
<path d="M379.478 286.461H315.568C315.095 286.461 314.627 286.372 314.192 286.199C313.756 286.026 313.363 285.772 313.036 285.453C312.709 285.134 312.455 284.757 312.289 284.344C312.123 283.931 312.049 283.491 312.07 283.051L315.933 207.951C315.975 207.115 316.36 206.326 317.01 205.749C317.659 205.171 318.523 204.85 319.421 204.851H383.674L379.478 286.461Z" fill="#219EBC"/>
<path opacity="0.2" d="M378.363 204.851L374.167 286.461H379.478L383.674 204.851H378.363Z" fill="white"/>
<path opacity="0.1" d="M372.504 208.341L368.694 282.621C368.67 283.116 368.753 283.61 368.939 284.075C369.125 284.539 369.411 284.964 369.778 285.323C370.145 285.681 370.586 285.967 371.075 286.163C371.563 286.358 372.09 286.46 372.622 286.461H374.167L378.362 204.851H376.442C375.431 204.852 374.459 205.215 373.726 205.864C372.993 206.513 372.556 207.4 372.504 208.341Z" fill="black"/>
<path d="M314.656 328.841L315.161 344.411L317.436 414.841H324.947L327.211 344.411L327.715 328.841H314.656Z" fill="#219EBC"/>
<path opacity="0.4" d="M314.656 328.841L315.161 344.411L317.436 414.841H324.947L327.211 344.411L327.715 328.841H314.656Z" fill="white"/>
<path opacity="0.2" d="M314.656 328.841L315.161 344.841H327.211L327.715 328.841H314.656Z" fill="black"/>
<path d="M273.86 414.591L280.802 329.941H292.144L282.433 414.591H273.86Z" fill="#219EBC"/>
<path opacity="0.5" d="M282.455 414.591H273.87L280.169 337.541L280.802 329.841H292.144L291.264 337.541L282.455 414.591Z" fill="white"/>
<path opacity="0.2" d="M292.144 329.841L291.264 337.841H280.169L280.802 329.841H292.144Z" fill="black"/>
<path d="M359.949 414.591L350.228 329.941H361.569L368.512 414.591H359.949Z" fill="#219EBC"/>
<path opacity="0.5" d="M359.928 414.591L351.107 337.541L350.238 329.841H361.58L362.203 337.541L368.501 414.591H359.928Z" fill="white"/>
<path opacity="0.2" d="M350.238 329.841L351.107 337.841H362.203L361.58 329.841H350.238Z" fill="black"/>
<path d="M367.675 332.86H274.75V326.17C274.75 324.844 275.315 323.572 276.322 322.634C277.328 321.697 278.692 321.17 280.115 321.17H362.31C363.733 321.17 365.097 321.697 366.103 322.634C367.11 323.572 367.675 324.844 367.675 326.17V332.86Z" fill="#219EBC"/>
<path d="M272.422 332.871H369.939C371.13 332.871 372.096 331.971 372.096 330.861V329.041C372.096 327.931 371.13 327.031 369.939 327.031H272.422C271.231 327.031 270.265 327.931 270.265 329.041V330.861C270.265 331.971 271.231 332.871 272.422 332.871Z" fill="#219EBC"/>
<path opacity="0.6" d="M272.422 332.871H369.939C371.13 332.871 372.096 331.971 372.096 330.861V329.041C372.096 327.931 371.13 327.031 369.939 327.031H272.422C271.231 327.031 270.265 327.931 270.265 329.041V330.861C270.265 331.971 271.231 332.871 272.422 332.871Z" fill="white"/>
<path opacity="0.1" d="M352.738 321.18H337.018L305.954 320L306.448 321.92L282.412 322.1L281.178 322.42L282.412 332.86H310.235L308.229 323.45C319.002 323.39 346.375 325.71 352.738 321.18Z" fill="black"/>
<path d="M289.311 240.71C289.311 240.71 258.848 246.71 257.12 246.97C255.393 247.23 247.248 244.97 245.682 245.18C244.115 245.39 241.551 252.24 241.39 253.77C241.229 255.3 254.17 256.43 255.339 256.01C256.597 255.382 257.786 254.642 258.891 253.8L290.749 250.67L289.311 240.71Z" fill="#E6AE76"/>
<path d="M348.79 201.96L331.868 202.75L328.059 206.92L349.605 206.48L348.79 201.96Z" fill="#219EBC"/>
<path d="M315.944 227.6C315.944 227.6 315.644 228.36 315.096 229.6C314.549 230.84 313.712 232.73 312.693 234.79C310.225 239.79 306.641 246.15 302.896 249.58C301.956 250.503 300.824 251.237 299.57 251.74C295.578 253.17 285.76 253.84 276.821 253.74C267.883 253.64 260.05 254.42 260.05 254.42V245.58L289.44 239.22C289.44 239.22 304.935 213.35 314.12 209.49L315.944 227.6Z" fill="#263238"/>
<path opacity="0.2" d="M315.097 229.611C314.539 230.911 313.712 232.741 312.693 234.801C310.225 239.801 306.641 246.161 302.896 249.591C299.087 236.511 313.176 224.061 313.176 224.061L315.097 229.611Z" fill="black"/>
<path d="M311.298 408.88L302.756 407.78L301.565 388.85L310.107 389.95L311.298 408.88Z" fill="#E6AE76"/>
<path opacity="0.2" d="M310.107 389.95L301.565 388.86L302.252 399.68L310.772 400.38L310.107 389.95Z" fill="black"/>
<path d="M310.955 297.56L313.047 285.38L360.969 282.71C360.969 282.71 366.065 308.05 362.149 314.8C355.153 326.85 317.489 320.8 306.469 321.95C313.058 347.06 312.414 396.13 312.414 396.13L296.672 397.25C296.672 397.25 284.558 344.38 282.111 319.25C280.459 302.3 295.524 302.72 310.955 297.56Z" fill="#219EBC"/>
<path d="M291.586 401.81L282.98 402.39L277.583 384.1L286.178 383.52L291.586 401.81Z" fill="#E6AE76"/>
<path d="M281.811 402.671H281.671C281.671 402.551 281.242 400.311 280.19 399.771C280.056 399.711 279.91 399.68 279.761 399.68C279.613 399.68 279.466 399.711 279.332 399.771C279.168 399.818 279.027 399.916 278.931 400.049C278.835 400.182 278.791 400.341 278.806 400.501C279.017 401.165 279.468 401.741 280.083 402.131C279.297 401.881 278.44 401.902 277.669 402.191C277.568 402.263 277.489 402.357 277.438 402.466C277.388 402.574 277.367 402.693 277.379 402.811C277.362 403 277.404 403.19 277.499 403.358C277.594 403.527 277.739 403.666 277.916 403.761C278.453 403.961 279.052 403.961 279.59 403.761C280.337 403.558 281.057 403.277 281.736 402.921C281.747 402.928 281.76 402.932 281.773 402.932C281.787 402.932 281.8 402.928 281.811 402.921C281.811 402.921 281.811 402.921 281.811 402.861C281.829 402.851 281.843 402.837 281.854 402.82C281.864 402.804 281.869 402.785 281.869 402.766C281.869 402.746 281.864 402.727 281.854 402.711C281.843 402.694 281.829 402.68 281.811 402.671ZM279.225 400.431C279.225 400.321 279.225 400.181 279.514 400.071H279.611C279.688 400.051 279.769 400.046 279.848 400.056C279.928 400.067 280.004 400.092 280.072 400.131C280.695 400.441 281.145 401.651 281.328 402.391L281.135 402.341C280.287 401.871 279.3 401.001 279.225 400.431ZM278.098 403.361C277.992 403.295 277.906 403.206 277.848 403.101C277.789 402.996 277.761 402.879 277.765 402.761C277.759 402.701 277.77 402.641 277.796 402.587C277.822 402.532 277.864 402.485 277.916 402.451C278.398 402.111 279.976 402.401 281.135 402.721C279.708 403.381 278.602 403.621 278.098 403.361Z" fill="#219EBC"/>
<path opacity="0.2" d="M286.178 383.52L277.583 384.11L280.673 394.57L289.161 393.6L286.178 383.52Z" fill="black"/>
<path d="M274.697 393.281L289.848 389.131C289.848 389.131 280.802 341.551 271.606 325.051C272.293 324.841 273.205 324.571 274.332 324.261C276.36 323.691 279.053 322.981 282.219 322.161C304.237 316.471 348.865 305.801 348.865 305.801L328.477 288.071C328.477 288.071 247.27 299.611 245.585 319.551C244.781 329.141 274.697 393.281 274.697 393.281Z" fill="#219EBC"/>
<path opacity="0.2" d="M274.332 324.26C276.36 323.69 279.246 322.93 282.412 322.11C281.779 317.27 281.575 311.77 284.075 308.94C289.043 303.3 301.823 299.99 309.098 298.79C315.182 297.79 335.624 295.79 335.624 295.79C335.624 295.79 309.098 293.42 281.972 300.79C268.58 304.45 271.188 316.66 274.332 324.26Z" fill="black"/>
<path d="M363.63 295.44C366.849 293.15 363.748 271.85 365.389 250.89C367.89 219 365.389 208.75 362.868 207.76C358.216 207.003 353.51 206.568 348.79 206.46C341.876 206.222 334.954 206.359 328.059 206.87C323.342 207.418 318.679 208.304 314.109 209.52C314.109 209.52 302.821 243.01 310.032 291.27L363.63 295.44Z" fill="#263238"/>
<path opacity="0.1" d="M363.63 295.44C366.849 293.15 363.748 271.85 365.389 250.89C367.89 219 365.389 208.75 362.868 207.76C358.216 207.003 353.51 206.568 348.79 206.46C341.876 206.222 334.954 206.359 328.059 206.87C323.342 207.418 318.679 208.304 314.109 209.52C314.109 209.52 302.821 243.01 310.032 291.27L363.63 295.44Z" fill="white"/>
<path d="M346.236 184.801C345.066 191.041 344.025 202.451 348.789 206.511C346.859 208.44 344.537 209.995 341.959 211.085C339.381 212.174 336.597 212.778 333.767 212.861C325.183 213.211 328.069 206.921 328.069 206.921C335.473 205.121 335.162 199.981 333.756 195.171L346.236 184.801Z" fill="#E6AE76"/>
<path opacity="0.2" d="M341.15 189L333.714 195.171C334.055 196.29 334.296 197.434 334.433 198.591C337.265 198.151 343.36 192.51 343.607 189.73C343.789 188.61 341.439 190.13 341.15 189Z" fill="black"/>
<path d="M330.012 168.651C333.714 170.991 332.029 174.961 323.659 181.161C320.258 177.051 319.689 169.081 322.393 167.071C325.097 165.061 326.782 166.631 330.012 168.651Z" fill="#263238"/>
<path d="M345.925 175.08C345.517 183.51 345.742 188.45 341.268 192.85C334.518 199.45 323.305 195.78 320.987 187.41C318.927 179.89 319.914 167.41 328.703 163.88C330.634 163.104 332.746 162.8 334.839 162.998C336.932 163.196 338.935 163.889 340.66 165.01C342.385 166.132 343.774 167.646 344.696 169.408C345.617 171.17 346.04 173.123 345.925 175.08Z" fill="#E6AE76"/>
<path d="M332.48 177.6C332.48 178.29 332.104 178.85 331.621 178.85C331.138 178.85 330.752 178.32 330.741 177.63C330.73 176.94 331.106 176.39 331.578 176.37C332.05 176.35 332.415 176.93 332.48 177.6Z" fill="#263238"/>
<path d="M324.121 177.741C324.121 178.431 323.745 178.991 323.273 179.001C322.801 179.011 322.382 178.461 322.372 177.771C322.361 177.081 322.736 176.521 323.219 176.521C323.702 176.521 324.11 177.061 324.121 177.741Z" fill="#263238"/>
<path d="M326.846 178C326.008 180.109 324.863 182.101 323.445 183.92C323.956 184.244 324.536 184.46 325.145 184.555C325.755 184.65 326.379 184.621 326.975 184.47L326.846 178Z" fill="#D08245"/>
<path d="M334.711 175.11C334.809 175.12 334.908 175.099 334.99 175.05C335.081 174.983 335.139 174.886 335.153 174.779C335.167 174.673 335.136 174.565 335.066 174.48C334.655 173.97 334.119 173.558 333.503 173.28C332.887 173.001 332.209 172.864 331.525 172.88C331.47 172.881 331.416 172.893 331.367 172.914C331.317 172.935 331.272 172.965 331.235 173.002C331.198 173.039 331.17 173.083 331.151 173.131C331.133 173.179 331.125 173.229 331.128 173.28C331.143 173.385 331.2 173.481 331.287 173.549C331.375 173.618 331.486 173.654 331.6 173.65C332.14 173.644 332.673 173.758 333.156 173.982C333.64 174.207 334.059 174.535 334.379 174.94C334.417 174.99 334.467 175.031 334.524 175.06C334.582 175.09 334.646 175.107 334.711 175.11Z" fill="#263238"/>
<path d="M320.268 175.18C320.35 175.176 320.429 175.152 320.497 175.11C320.565 175.067 320.62 175.009 320.655 174.94C320.869 174.478 321.198 174.069 321.613 173.748C322.029 173.427 322.521 173.201 323.047 173.09C323.161 173.073 323.264 173.015 323.334 172.93C323.404 172.844 323.436 172.737 323.423 172.63C323.405 172.526 323.345 172.432 323.255 172.367C323.166 172.302 323.053 172.271 322.94 172.28C322.265 172.41 321.634 172.69 321.1 173.095C320.566 173.501 320.145 174.02 319.871 174.61C319.823 174.705 319.818 174.815 319.856 174.914C319.894 175.013 319.973 175.094 320.075 175.14C320.136 175.165 320.202 175.179 320.268 175.18Z" fill="#263238"/>
<path d="M342.191 167.68C337.984 169.09 338.585 173.33 345.066 181.25C349.444 178.04 352.095 170.42 349.992 167.87C347.888 165.32 345.85 166.45 342.191 167.68Z" fill="#263238"/>
<path d="M350.345 181.75C350.054 182.765 349.55 183.717 348.863 184.551C348.176 185.385 347.32 186.084 346.343 186.61C343.714 187.99 341.686 185.96 341.815 183.3C341.922 180.91 343.435 177.3 346.354 177.01C349.272 176.72 351.064 179.23 350.345 181.75Z" fill="#E6AE76"/>
<path d="M333.713 185.89C333.713 185.89 332.147 188.65 327.769 188.52" stroke="#263238" stroke-width="0.526291" stroke-linecap="round" stroke-linejoin="round"/>
<path d="M333.016 166.34C333.016 166.34 334.357 174.78 343.081 175.34C351.805 175.9 351.526 171 351.526 171C352.17 169.742 352.504 168.365 352.504 166.97C352.504 165.576 352.17 164.199 351.526 162.94C349.519 159.24 338.832 160.39 333.756 159.49C312.178 154.16 312.296 160.24 316.652 168.49C316.652 168.49 315.236 171.64 320.472 174.01C320.472 174 321.47 165.45 333.016 166.34Z" fill="#263238"/>
<path d="M318.176 246.1C318.176 246.1 287.058 245.44 285.298 245.27C283.538 245.1 276.177 241.27 274.568 241.07C272.958 240.87 268.795 247.07 268.28 248.51C267.765 249.95 280.083 253.84 281.264 253.68C282.643 253.338 283.983 252.872 285.266 252.29L317.038 256.1L318.176 246.1Z" fill="#E6AE76"/>
<path opacity="0.2" d="M366.323 234.48C361.698 241.48 355.228 248.93 348.779 248.58C342.03 248.21 348.779 235.37 356.086 224.19C356.356 224.701 356.596 225.225 356.805 225.76C358.447 230.04 363.458 224.76 366.012 217.88C366.447 223.404 366.55 228.946 366.323 234.48Z" fill="black"/>
<path d="M282.133 401.58L291.447 399.16C291.523 399.135 291.603 399.125 291.684 399.13C291.764 399.134 291.843 399.154 291.915 399.188C291.987 399.221 292.051 399.268 292.103 399.325C292.156 399.382 292.195 399.449 292.219 399.52L294.73 406.28C294.784 406.461 294.799 406.649 294.774 406.835C294.749 407.021 294.684 407.201 294.585 407.363C294.485 407.526 294.352 407.669 294.192 407.783C294.033 407.898 293.851 407.982 293.657 408.03C290.438 408.82 288.786 409.03 284.676 410.09C282.154 410.74 277.25 412.24 273.656 412.62C270.061 413 269.75 409.68 271.241 409.22C274.75 408.13 278.967 404.71 280.791 402.39C281.128 401.987 281.6 401.701 282.133 401.58Z" fill="#263238"/>
<path d="M301.898 407.801C301.898 407.661 301.758 405.391 300.825 404.661C300.548 404.478 300.205 404.403 299.87 404.451C299.695 404.468 299.53 404.536 299.399 404.646C299.268 404.755 299.178 404.9 299.14 405.061C299.17 405.75 299.472 406.406 299.988 406.901C299.268 406.503 298.42 406.358 297.595 406.491C297.477 406.54 297.374 406.618 297.299 406.716C297.223 406.815 297.178 406.93 297.166 407.051C297.114 407.228 297.116 407.415 297.171 407.591C297.226 407.768 297.332 407.927 297.477 408.051C297.967 408.333 298.551 408.44 299.119 408.351C299.88 408.281 300.631 408.14 301.361 407.931H301.522C301.522 407.931 301.522 407.931 301.522 407.871C301.522 407.811 301.737 407.871 301.737 407.791H301.919L301.898 407.801ZM299.527 405.131C299.527 405.021 299.602 404.891 299.891 404.841H299.988C300.068 404.836 300.148 404.845 300.223 404.869C300.299 404.893 300.368 404.931 300.428 404.981C300.941 405.709 301.196 406.57 301.158 407.441L300.975 407.351C300.226 406.793 299.713 406.007 299.527 405.131ZM297.767 407.781C297.676 407.698 297.611 407.594 297.579 407.479C297.546 407.365 297.548 407.244 297.584 407.131C297.589 407.071 297.611 407.014 297.646 406.965C297.682 406.916 297.731 406.877 297.788 406.851C298.336 406.621 299.816 407.201 300.857 407.741C299.376 408.111 298.196 408.131 297.767 407.781Z" fill="#219EBC"/>
<path d="M302.113 406.82L311.77 406.26C311.85 406.252 311.931 406.259 312.007 406.28C312.084 406.301 312.156 406.337 312.218 406.384C312.28 406.432 312.331 406.491 312.369 406.557C312.406 406.623 312.429 406.696 312.435 406.77L313.39 413.87C313.414 414.242 313.28 414.608 313.017 414.888C312.754 415.169 312.383 415.342 311.985 415.37C308.604 415.52 306.984 415.43 302.735 415.64C300.128 415.79 294.988 416.31 291.393 415.98C287.798 415.65 288.228 412.35 289.783 412.19C293.475 411.8 298.368 409.28 300.664 407.36C301.069 407.034 301.579 406.844 302.113 406.82Z" fill="#263238"/>
<path d="M362.868 207.761C357.739 210.126 353.522 213.912 350.796 218.601C345.882 226.681 337.351 243.801 333.756 244.651C330.162 245.501 287.358 243.781 287.358 243.781L285.674 254.051C285.674 254.051 333.499 261.541 342.18 257.401C350.861 253.261 378.781 213.101 362.868 207.761Z" fill="#263238"/>
<path opacity="0.3" d="M328.059 206.92C321.942 210.86 319.796 226.6 319.796 226.6C318.723 233.2 318.948 235.23 323.444 236.05C334.668 238.45 339.755 233.24 340.72 227.95C340.72 227.95 344.154 210.56 349.616 206.48L334.282 212.88L328.059 206.92Z" fill="white"/>
<path d="M328.059 206.92C321.942 210.86 319.796 226.6 319.796 226.6C318.723 233.2 318.948 235.23 323.444 236.05C334.668 238.45 339.755 233.24 340.72 227.95C340.72 227.95 344.154 210.56 349.616 206.48L334.282 212.88L328.059 206.92Z" fill="#219EBC"/>
<path opacity="0.5" d="M328.059 206.92C321.942 210.86 319.796 226.6 319.796 226.6C318.723 233.2 318.948 235.23 323.444 236.05C334.668 238.45 339.755 233.24 340.72 227.95C340.72 227.95 344.154 210.56 349.616 206.48L334.282 212.88L328.059 206.92Z" fill="white"/>
<path d="M334.282 212.88L337.018 205.79L348.79 201.96L349.605 206.48L334.282 212.88Z" fill="#219EBC"/>
<path opacity="0.05" d="M334.282 212.88L337.018 205.79L348.79 201.96L349.605 206.48L334.282 212.88Z" fill="white"/>
<path d="M337.018 205.79L340.313 212.88L349.605 206.48L348.789 201.96L337.018 205.79Z" fill="#219EBC"/>
<path opacity="0.2" d="M337.018 205.79L340.313 212.88L349.605 206.48L348.789 201.96L337.018 205.79Z" fill="white"/>
<path d="M334.282 212.88L331.127 205.77L331.868 202.75L328.059 206.92L334.282 212.88Z" fill="#219EBC"/>
<path opacity="0.05" d="M334.282 212.88L331.127 205.77L331.868 202.75L328.059 206.92L334.282 212.88Z" fill="white"/>
<path d="M331.127 205.77L327.812 213.55L328.059 206.92L331.868 202.75L331.127 205.77Z" fill="#219EBC"/>
<path opacity="0.2" d="M331.127 205.77L327.812 213.55L328.059 206.92L331.868 202.75L331.127 205.77Z" fill="white"/>
<path d="M138.89 214.986L136.529 215.457L140.701 233.625L143.062 233.154L138.89 214.986Z" fill="#219EBC"/>
<path opacity="0.3" d="M138.89 214.986L136.529 215.457L140.701 233.625L143.062 233.154L138.89 214.986Z" fill="white"/>
<path d="M146.92 213.21H144.505V231.79H146.92V213.21Z" fill="#219EBC"/>
<path opacity="0.3" d="M146.92 213.21H144.505V231.79H146.92V213.21Z" fill="white"/>
<path d="M157.903 217.493L155.605 216.802L149.484 234.485L151.782 235.176L157.903 217.493Z" fill="#219EBC"/>
<path opacity="0.3" d="M157.903 217.493L155.605 216.802L149.484 234.485L151.782 235.176L157.903 217.493Z" fill="white"/>
<path d="M138.421 231.8H155.354V252.93C155.354 253.347 155.266 253.759 155.095 254.143C154.924 254.528 154.673 254.877 154.358 255.172C154.042 255.466 153.667 255.7 153.254 255.859C152.841 256.018 152.399 256.1 151.952 256.1H141.855C140.953 256.1 140.088 255.766 139.45 255.172C138.812 254.577 138.454 253.771 138.454 252.93V231.8H138.421Z" fill="#219EBC"/>
<path opacity="0.1" d="M138.421 231.8H155.354V252.93C155.354 253.347 155.266 253.759 155.095 254.143C154.924 254.528 154.673 254.877 154.358 255.172C154.042 255.466 153.667 255.7 153.254 255.859C152.841 256.018 152.399 256.1 151.952 256.1H141.855C140.953 256.1 140.088 255.766 139.45 255.172C138.812 254.577 138.454 253.771 138.454 252.93V231.8H138.421Z" fill="white"/>
<path d="M376.485 362.64L374.8 365.57V368.42L378.416 369.62L383.245 369.17L382.204 365.72L376.485 362.64Z" fill="#219EBC"/>
<path opacity="0.3" d="M376.485 362.64L374.8 365.57V368.42L378.416 369.62L383.245 369.17L382.204 365.72L376.485 362.64Z" fill="white"/>
<path opacity="0.3" d="M375.68 365.34L378.094 366.13V368.72L377.45 367.03L376.324 367.44L376.892 366.54L375.68 365.34Z" fill="#263238"/>
<path opacity="0.3" d="M379.865 366.13H381.625L382.762 368.72L381.313 367.03L379.865 366.13Z" fill="#263238"/>
<path d="M370.497 371.75L366.87 369.24L369.123 365.53L373.952 364.48L376.688 366.5L376.206 371.75H370.497Z" fill="#219EBC"/>
<path opacity="0.2" d="M370.497 371.75L366.87 369.24L369.123 365.53L373.952 364.48L376.688 366.5L376.206 371.75H370.497Z" fill="white"/>
<path opacity="0.3" d="M367.6 369.06L370.733 368.12L373.791 369.06L375.723 371.38L372.75 369.62L370.658 370.18V368.75L367.6 369.06Z" fill="#263238"/>
<path opacity="0.3" d="M370.089 366.13L371.785 367.33H373.555L375.24 366.73H372.665L370.089 366.13Z" fill="#263238"/>
<path d="M384.972 363.75L382.311 367.27L384.972 371.1L387.301 370.57L390.445 370.65L391.733 367.42L387.022 363.75H384.972Z" fill="#219EBC"/>
<path opacity="0.2" d="M384.972 363.75L382.311 367.27L384.972 371.1L387.301 370.57L390.445 370.65L391.733 367.42L387.022 363.75H384.972Z" fill="white"/>
<path opacity="0.3" d="M383.202 366.95H386.013L385.294 370.27L385.133 367.8L383.202 366.95Z" fill="#263238"/>
<path opacity="0.3" d="M386.764 369.9L387.022 366.95L390.842 367.8L388.803 368.25L389.715 369.9L387.784 367.8L386.764 369.9Z" fill="#263238"/>
<path opacity="0.3" d="M384.607 365.66L386.013 364.87L387.784 365.66L389.64 366.95L386.013 365.66H384.607Z" fill="#263238"/>
<path d="M387.118 365.079L389.222 370.999L392.913 371.749L398.063 370.779L400.639 367.559L398.224 362.679L390.745 362.149L387.118 365.079Z" fill="#219EBC"/>
<path opacity="0.1" d="M387.118 365.079L389.222 370.999L392.913 371.749L398.063 370.779L400.639 367.559L398.224 362.679L390.745 362.149L387.118 365.079Z" fill="white"/>
<path opacity="0.3" d="M389.844 369.76L392.086 367.39L395.166 367.51L395.585 369.9L394.619 368.35L392.43 368.15L389.844 369.76Z" fill="#263238"/>
<path opacity="0.3" d="M396.057 367.251L398.868 366.831L400.134 367.391L398.096 370.261L399.415 367.681L398.664 367.391L396.057 367.251Z" fill="#263238"/>
<path opacity="0.3" d="M389.694 368.35L387.762 365.29L390.423 363.74L395.585 364.92L390.981 364.47L388.824 365.65L389.694 368.35Z" fill="#263238"/>
<path opacity="0.3" d="M392.719 362.78L397.462 363.18L399.351 366.05L397.119 363.74L392.719 362.78Z" fill="#263238"/>
<path d="M365.218 370.8H402.291V411.45C402.291 412.688 401.763 413.876 400.823 414.752C399.884 415.628 398.609 416.12 397.28 416.12H370.197C368.868 416.12 367.593 415.628 366.653 414.752C365.714 413.876 365.186 412.688 365.186 411.45V370.8H365.218Z" fill="#219EBC"/>
<path opacity="0.3" d="M365.218 370.8H402.291V411.45C402.291 412.688 401.763 413.876 400.823 414.752C399.884 415.628 398.609 416.12 397.28 416.12H370.197C368.868 416.12 367.593 415.628 366.653 414.752C365.714 413.876 365.186 412.688 365.186 411.45V370.8H365.218Z" fill="white"/>
<path d="M366.044 368.64H401.454C401.816 368.64 402.162 368.773 402.418 369.012C402.673 369.25 402.817 369.573 402.817 369.91V371.28H364.681V369.91C364.681 369.573 364.825 369.25 365.081 369.012C365.336 368.773 365.683 368.64 366.044 368.64Z" fill="#219EBC"/>
<path opacity="0.4" d="M366.044 368.64H401.454C401.816 368.64 402.162 368.773 402.418 369.012C402.673 369.25 402.817 369.573 402.817 369.91V371.28H364.681V369.91C364.681 369.573 364.825 369.25 365.081 369.012C365.336 368.773 365.683 368.64 366.044 368.64Z" fill="white"/>
<path d="M190.743 281.31H177.383V416.24H190.743V281.31Z" fill="#219EBC"/>
<path opacity="0.4" d="M190.753 281.24H183.821V416.17H190.753V281.24Z" fill="black"/>
<path d="M414.491 281.24H407.56V416.17H414.491V281.24Z" fill="#219EBC"/>
<path d="M112.111 281.24H105.179V416.17H112.111V281.24Z" fill="#219EBC"/>
<path d="M421.606 416.13H414.674V281.27H304.259V416.13H291.586V281.27H105.64V416.13H99.2878V256.1H421.606V416.13Z" fill="#219EBC"/>
<path opacity="0.1" d="M421.606 416.13H414.674V281.27H304.259V416.13H297.402V263.95H421.606V416.13Z" fill="white"/>
<path opacity="0.3" d="M421.606 256.1H297.402V263.95H421.606V256.1Z" fill="black"/>
<path opacity="0.1" d="M297.477 256.1H99.2878V263.95H297.477V256.1Z" fill="black"/>
<path opacity="0.4" d="M297.488 416.13L291.393 415.99L291.586 281.27H105.64V416.13H99.2878V263.95H297.488V416.13Z" fill="white"/>
<path opacity="0.4" d="M112.111 281.24H105.179V416.17H112.111V281.24Z" fill="black"/>
<path opacity="0.4" d="M414.491 281.24H407.56V416.17H414.491V281.24Z" fill="black"/>
<path d="M206.537 252.1V254.74C206.537 255.54 208.007 256.1 208.844 256.1H275.158C276.006 256.1 277.358 255.54 277.358 254.74V252.1H206.537Z" fill="#263238"/>
<path opacity="0.6" d="M206.537 252.1V254.74C206.537 255.54 208.007 256.1 208.844 256.1H275.158C276.006 256.1 277.358 255.54 277.358 254.74V252.1H206.537Z" fill="white"/>
<path opacity="0.2" d="M206.537 252.1V254.74C206.537 255.54 208.007 256.1 208.844 256.1H252.581C253.429 256.1 254.824 255.54 254.824 254.74V252.1H206.537Z" fill="black"/>
<path d="M195.914 219.609L203.801 253.089C203.941 253.636 204.266 254.125 204.728 254.485C205.19 254.846 205.764 255.057 206.366 255.089H249.48C249.757 255.066 250.024 254.986 250.264 254.855C250.503 254.723 250.707 254.543 250.863 254.329C251.018 254.114 251.12 253.87 251.161 253.614C251.202 253.358 251.181 253.097 251.1 252.849L243.224 219.729C243.064 219.223 242.721 218.784 242.254 218.486C241.787 218.187 241.224 218.047 240.66 218.089H197.535C196.365 218.099 195.657 218.519 195.914 219.609Z" fill="#263238"/>
<path opacity="0.6" d="M195.914 219.609L203.801 253.089C203.941 253.636 204.266 254.125 204.728 254.485C205.19 254.846 205.764 255.057 206.366 255.089H249.48C249.757 255.066 250.024 254.986 250.264 254.855C250.503 254.723 250.707 254.543 250.863 254.329C251.018 254.114 251.12 253.87 251.161 253.614C251.202 253.358 251.181 253.097 251.1 252.849L243.224 219.729C243.064 219.223 242.721 218.784 242.254 218.486C241.787 218.187 241.224 218.047 240.66 218.089H197.535C196.365 218.099 195.657 218.519 195.914 219.609Z" fill="white"/>
<path opacity="0.4" d="M195.914 219.609L203.801 253.089C203.941 253.636 204.266 254.125 204.728 254.485C205.19 254.846 205.764 255.057 206.366 255.089H248.021C248.298 255.066 248.565 254.986 248.805 254.854C249.044 254.723 249.249 254.543 249.405 254.329C249.561 254.115 249.664 253.871 249.707 253.615C249.75 253.359 249.731 253.098 249.652 252.849L241.754 219.729C241.594 219.223 241.251 218.784 240.784 218.486C240.317 218.187 239.754 218.047 239.19 218.089H197.535C196.365 218.099 195.657 218.519 195.914 219.609Z" fill="white"/>
<path opacity="0.2" d="M221.27 241.07C219.264 241.07 217.203 239.07 216.678 236.59C216.152 234.11 217.364 232.1 219.382 232.1C219.749 232.107 220.112 232.175 220.455 232.3C220.641 233.184 221.048 234.015 221.642 234.725C222.237 235.436 223.003 236.006 223.878 236.39C223.883 236.456 223.883 236.523 223.878 236.59C224.5 239.06 223.288 241.07 221.27 241.07Z" fill="black"/>
<path d="M385.766 194.788L409.674 199.918C410.01 208.164 413.709 215.979 420.017 221.77C426.325 227.56 434.765 230.89 443.617 231.079C452.469 231.269 461.065 228.303 467.651 222.788C474.237 217.274 478.317 209.625 479.059 201.402C479.801 193.18 477.148 185.003 471.643 178.541C466.137 172.079 458.193 167.818 449.432 166.627C440.67 165.436 431.752 167.405 424.495 172.133C417.238 176.861 412.191 183.991 410.382 192.068L385.766 194.788Z" fill="#219EBC"/>
<path opacity="0.7" d="M385.766 194.788L409.674 199.918C410.01 208.164 413.709 215.979 420.017 221.77C426.325 227.56 434.765 230.89 443.617 231.079C452.469 231.269 461.065 228.303 467.651 222.788C474.237 217.274 478.317 209.625 479.059 201.402C479.801 193.18 477.148 185.003 471.643 178.541C466.137 172.079 458.193 167.818 449.432 166.627C440.67 165.436 431.752 167.405 424.495 172.133C417.238 176.861 412.191 183.991 410.382 192.068L385.766 194.788Z" fill="white"/>
<path d="M466.158 177C463.527 176.999 460.922 177.474 458.486 178.4C457.354 174.512 454.744 171.139 451.143 168.909C447.542 166.679 443.195 165.745 438.909 166.279C434.624 166.814 430.693 168.78 427.848 171.814C425.002 174.847 423.436 178.741 423.441 182.77C423.441 183.11 423.441 183.45 423.494 183.77H423.441C419.253 183.825 415.24 185.341 412.193 188.019C409.146 190.697 407.287 194.342 406.982 198.234C406.678 202.127 407.95 205.985 410.548 209.046C413.146 212.107 416.881 214.149 421.016 214.77V215H466.158C471.565 215 476.751 212.998 480.574 209.435C484.398 205.872 486.546 201.039 486.546 196C486.546 190.961 484.398 186.128 480.574 182.565C476.751 179.002 471.565 177 466.158 177Z" fill="#219EBC"/>
<path opacity="0.9" d="M466.158 177C463.527 176.999 460.922 177.474 458.486 178.4C457.354 174.512 454.744 171.139 451.143 168.909C447.542 166.679 443.195 165.745 438.909 166.279C434.624 166.814 430.693 168.78 427.848 171.814C425.002 174.847 423.436 178.741 423.441 182.77C423.441 183.11 423.441 183.45 423.494 183.77H423.441C419.253 183.825 415.24 185.341 412.193 188.019C409.146 190.697 407.287 194.342 406.982 198.234C406.678 202.127 407.95 205.985 410.548 209.046C413.146 212.107 416.881 214.149 421.016 214.77V215H466.158C471.565 215 476.751 212.998 480.574 209.435C484.398 205.872 486.546 201.039 486.546 196C486.546 190.961 484.398 186.128 480.574 182.565C476.751 179.002 471.565 177 466.158 177Z" fill="white"/>
<path d="M455.16 221.93V205.83H436.478V221.93H430.48L445.288 234.09L460.095 221.93H455.16Z" fill="#219EBC"/>
<path d="M354.852 150.76L372.278 133.63C380.317 137.664 389.704 138.687 398.524 136.492C407.344 134.297 414.934 129.048 419.744 121.817C424.554 114.585 426.223 105.916 424.41 97.5775C422.596 89.2388 417.438 81.859 409.986 76.9435C402.534 72.028 393.351 69.947 384.31 71.1252C375.268 72.3034 367.049 76.6519 361.33 83.2837C355.611 89.9155 352.822 98.3309 353.533 106.813C354.243 115.296 358.399 123.206 365.153 128.93L354.852 150.76Z" fill="#219EBC"/>
<path opacity="0.7" d="M354.852 150.76L372.278 133.63C380.317 137.664 389.704 138.687 398.524 136.492C407.344 134.297 414.934 129.048 419.744 121.817C424.554 114.585 426.223 105.916 424.41 97.5775C422.596 89.2388 417.438 81.859 409.986 76.9435C402.534 72.028 393.351 69.947 384.31 71.1252C375.268 72.3034 367.049 76.6519 361.33 83.2837C355.611 89.9155 352.822 98.3309 353.533 106.813C354.243 115.296 358.399 123.206 365.153 128.93L354.852 150.76Z" fill="white"/>
<path d="M359.295 81.9702L392.119 57.4102L425.855 81.9702L395.692 109.77L359.295 81.9702Z" fill="#219EBC"/>
<path d="M422.85 68.6997H361.58V102.44H422.85V68.6997Z" fill="#219EBC"/>
<path opacity="0.5" d="M422.85 68.6997H361.58V102.44H422.85V68.6997Z" fill="white"/>
<path d="M419.76 76.4502H371.635V77.5302H419.76V76.4502Z" fill="white"/>
<path d="M419.749 79.6899H364.477V80.9499H419.749V79.6899Z" fill="white"/>
<path d="M419.749 83.1104H364.477V84.3704H419.749V83.1104Z" fill="white"/>
<path d="M419.749 86.3501H364.477V87.6101H419.749V86.3501Z" fill="white"/>
<path d="M419.749 89.7202H364.477V90.9802H419.749V89.7202Z" fill="white"/>
<path d="M419.846 92.6597H364.574V93.9197H419.846V92.6597Z" fill="white"/>
<path d="M419.846 95.9004H364.574V97.1604H419.846V95.9004Z" fill="white"/>
<path d="M419.749 98.4204H364.477V99.6804H419.749V98.4204Z" fill="white"/>
<path d="M425.855 118.35H359.295V81.9697L392.569 102.5L425.855 81.9697V118.35Z" fill="#219EBC"/>
<path opacity="0.2" d="M425.855 118.35H359.295V81.9697L392.569 102.5L425.855 81.9697V118.35Z" fill="white"/>
<path d="M294.623 156.05L284.966 131.64C293.161 126.219 298.828 118.088 300.812 108.907C302.795 99.7249 300.946 90.1839 295.64 82.2296C290.334 74.2753 281.972 68.507 272.259 66.1013C262.547 63.6956 252.215 64.8336 243.372 69.2833C234.528 73.733 227.84 81.1591 224.67 90.047C221.5 98.9349 222.088 108.615 226.314 117.113C230.54 125.61 238.085 132.285 247.411 135.777C256.736 139.268 267.14 139.312 276.499 135.9L294.623 156.05Z" fill="#219EBC"/>
<path opacity="0.7" d="M294.623 156.05L284.966 131.64C293.161 126.219 298.828 118.088 300.812 108.907C302.795 99.7249 300.946 90.1839 295.64 82.2296C290.334 74.2753 281.972 68.507 272.259 66.1013C262.547 63.6956 252.215 64.8336 243.372 69.2833C234.528 73.733 227.84 81.1591 224.67 90.047C221.5 98.9349 222.088 108.615 226.314 117.113C230.54 125.61 238.085 132.285 247.411 135.777C256.736 139.268 267.14 139.312 276.499 135.9L294.623 156.05Z" fill="white"/>
<path d="M290.599 65.1001H236.915V129.68H290.599V65.1001Z" fill="#219EBC"/>
<path opacity="0.4" d="M290.599 68.54H236.915V129.68H290.599V68.54Z" fill="white"/>
<path opacity="0.7" d="M264.578 72.6304H245.263C244.921 72.6291 244.583 72.6907 244.266 72.8117C243.95 72.9328 243.662 73.1108 243.42 73.3357C243.178 73.5605 242.986 73.8277 242.854 74.122C242.723 74.4162 242.656 74.7318 242.656 75.0504V78.6204C242.656 79.2649 242.93 79.883 243.419 80.3387C243.908 80.7944 244.572 81.0504 245.263 81.0504H245.95C245.709 81.7312 245.276 82.3392 244.697 82.8107C244.117 83.2822 243.412 83.5998 242.656 83.7304C245.134 83.6304 246.755 82.7304 247.538 81.0504H264.567C264.91 81.0517 265.251 80.9898 265.568 80.8683C265.886 80.7468 266.175 80.568 266.418 80.3422C266.661 80.1164 266.854 79.8481 266.986 79.5526C267.118 79.2572 267.185 78.9404 267.185 78.6204V75.0504C267.185 74.7318 267.118 74.4162 266.987 74.122C266.855 73.8277 266.663 73.5605 266.421 73.3357C266.179 73.1108 265.891 72.9328 265.575 72.8117C265.259 72.6907 264.92 72.6291 264.578 72.6304Z" fill="white"/>
<path opacity="0.7" d="M265.039 95.3398H244.856C244.286 95.3398 243.74 95.5506 243.338 95.9256C242.936 96.3007 242.709 96.8094 242.709 97.3398V99.1199C242.709 99.6503 242.936 100.159 243.338 100.534C243.74 100.909 244.286 101.12 244.856 101.12H246.014C245.801 101.843 245.374 102.495 244.782 103.002C244.19 103.51 243.457 103.852 242.667 103.99C245.231 103.88 246.873 102.92 247.624 101.12H265.039C265.614 101.12 266.165 100.911 266.576 100.537C266.987 100.163 267.225 99.6548 267.239 99.1199V97.3898C267.239 96.8462 267.007 96.3247 266.595 95.9403C266.182 95.5558 265.623 95.3398 265.039 95.3398Z" fill="white"/>
<path opacity="0.7" d="M282.626 105.94H271.124C270.533 105.94 269.967 106.158 269.549 106.546C269.131 106.934 268.894 107.461 268.892 108.01V109.01C268.894 109.56 269.131 110.087 269.549 110.475C269.967 110.863 270.533 111.08 271.124 111.08H279.203C279.955 112.88 281.596 113.85 284.161 113.96C283.371 113.82 282.639 113.475 282.049 112.966C281.459 112.457 281.035 111.804 280.824 111.08H282.626C283.216 111.08 283.78 110.862 284.197 110.474C284.614 110.086 284.848 109.559 284.848 109.01V108.01C284.848 107.461 284.614 106.935 284.197 106.547C283.78 106.159 283.216 105.94 282.626 105.94Z" fill="white"/>
<path opacity="0.7" d="M282.659 82.5796H255.135C254.561 82.5794 254.01 82.7885 253.598 83.1622C253.187 83.5359 252.95 84.0446 252.936 84.5796V89.3096C252.95 89.8446 253.187 90.3532 253.598 90.7269C254.01 91.1007 254.561 91.3097 255.135 91.3096H279.128C279.837 93.2296 281.51 94.3096 284.161 94.3696C283.339 94.2224 282.58 93.8543 281.98 93.3105C281.379 92.7668 280.963 92.0713 280.781 91.3096H282.659C283.228 91.3096 283.774 91.0989 284.176 90.7238C284.579 90.3487 284.805 89.84 284.805 89.3096V84.6196C284.81 84.3536 284.759 84.0892 284.654 83.8419C284.548 83.5946 284.391 83.3694 284.191 83.1794C283.992 82.9895 283.753 82.8386 283.49 82.7356C283.227 82.6326 282.944 82.5795 282.659 82.5796Z" fill="white"/>
<path opacity="0.8" d="M284.923 121.72H242.592C241.525 121.72 240.66 122.526 240.66 123.52V124.34C240.66 125.334 241.525 126.14 242.592 126.14H284.923C285.989 126.14 286.854 125.334 286.854 124.34V123.52C286.854 122.526 285.989 121.72 284.923 121.72Z" fill="white"/>
<path d="M244.813 186.75L219.725 177.69C220.733 168.714 218.028 159.718 212.163 152.537C206.298 145.356 197.714 140.531 188.162 139.045C178.611 137.56 168.811 139.527 160.762 144.544C152.712 149.561 147.02 157.251 144.846 166.045C142.672 174.839 144.179 184.075 149.061 191.869C153.943 199.663 161.832 205.427 171.118 207.987C180.404 210.546 190.388 209.708 199.034 205.643C207.679 201.577 214.335 194.591 217.643 186.11L244.813 186.75Z" fill="#219EBC"/>
<path opacity="0.7" d="M244.813 186.75L219.725 177.69C220.733 168.714 218.028 159.718 212.163 152.537C206.298 145.356 197.714 140.531 188.162 139.045C178.611 137.56 168.811 139.527 160.762 144.544C152.712 149.561 147.02 157.251 144.846 166.045C142.672 174.839 144.179 184.075 149.061 191.869C153.943 199.663 161.832 205.427 171.118 207.987C180.404 210.546 190.388 209.708 199.034 205.643C207.679 201.577 214.335 194.591 217.643 186.11L244.813 186.75Z" fill="white"/>
<path d="M219.414 183.56H143.583V185.1H219.414V183.56Z" fill="#219EBC"/>
<path opacity="0.3" d="M219.414 183.56H143.583V185.1H219.414V183.56Z" fill="black"/>
<path d="M162.382 170.35H153.809V183.56H162.382V170.35Z" fill="#219EBC"/>
<path opacity="0.4" d="M162.382 170.35H153.809V183.56H162.382V170.35Z" fill="white"/>
<path d="M177.544 162.98H168.97V183.57H177.544V162.98Z" fill="#219EBC"/>
<path opacity="0.4" d="M177.544 162.98H168.97V183.57H177.544V162.98Z" fill="white"/>
<path d="M193.371 155.609H184.798V183.569H193.371V155.609Z" fill="#219EBC"/>
<path opacity="0.4" d="M193.371 155.609H184.798V183.569H193.371V155.609Z" fill="white"/>
<path d="M209.199 148.54H200.625V183.57H209.199V148.54Z" fill="#219EBC"/>
<path opacity="0.2" d="M209.199 148.54H200.625V183.57H209.199V148.54Z" fill="#263238"/>
</g>
<defs>
<clipPath id="clip0">
<rect width="536.517" height="500" fill="white"/>
</clipPath>
</defs>
</svg>
