<svg width="631" height="450" viewBox="0 0 631 450" fill="none" xmlns="http://www.w3.org/2000/svg">
<path d="M630.971 395.452H0V395.753H630.971V395.452Z" fill="#E6E6E6"/>
<path d="M133.753 409.777H65.179V410.078H133.753V409.777Z" fill="#E6E6E6"/>
<path d="M316.747 403.22H290.928V403.521H316.747V403.22Z" fill="#E6E6E6"/>
<path d="M228.765 403.22H190.982V403.521H228.765V403.22Z" fill="#E6E6E6"/>
<path d="M541.259 406.698H461.328V406.999H541.259V406.698Z" fill="#E6E6E6"/>
<path d="M301.882 406.698H283.848V406.999H301.882V406.698Z" fill="#E6E6E6"/>
<path d="M162.79 409.777H145.969V410.078H162.79V409.777Z" fill="#E6E6E6"/>
<path d="M562.308 406.698H551.569V406.999H562.308V406.698Z" fill="#E6E6E6"/>
<path d="M299.08 341.582H55.4121C53.5032 341.579 51.6736 340.851 50.325 339.558C48.9764 338.265 48.219 336.513 48.219 334.685V6.83648C48.2356 5.01989 49.0004 3.28293 50.3472 2.00289C51.694 0.722853 53.5141 0.00311191 55.4121 0H299.08C300.991 0 302.824 0.726633 304.175 2.02005C305.527 3.31346 306.286 5.06771 306.286 6.89687V334.685C306.286 336.515 305.527 338.269 304.175 339.562C302.824 340.856 300.991 341.582 299.08 341.582ZM55.4121 0.241573C53.5869 0.244772 51.8375 0.941 50.5481 2.17744C49.2587 3.41388 48.5345 5.08949 48.5345 6.83648V334.685C48.5345 336.432 49.2587 338.108 50.5481 339.344C51.8375 340.581 53.5869 341.277 55.4121 341.28H299.08C300.907 341.277 302.657 340.581 303.949 339.345C305.24 338.109 305.967 336.434 305.97 334.685V6.83648C305.967 5.08838 305.24 3.41279 303.949 2.1767C302.657 0.940608 300.907 0.244765 299.08 0.241573H55.4121Z" fill="#E6E6E6"/>
<path d="M572.051 341.582H328.37C326.46 341.579 324.629 340.851 323.278 339.559C321.928 338.266 321.167 336.514 321.164 334.685V6.83648C321.184 5.01879 321.952 3.28184 323.3 2.00214C324.649 0.72243 326.471 0.00307797 328.37 0H572.051C573.946 0.00628629 575.763 0.727432 577.107 2.00713C578.451 3.28683 579.214 5.02198 579.231 6.83648V334.685C579.231 336.51 578.475 338.261 577.129 339.554C575.784 340.846 573.957 341.576 572.051 341.582ZM328.37 0.241573C326.543 0.244765 324.793 0.940608 323.501 2.1767C322.21 3.41279 321.483 5.08838 321.48 6.83648V334.685C321.483 336.434 322.21 338.109 323.501 339.345C324.793 340.581 326.543 341.277 328.37 341.28H572.051C573.877 341.277 575.628 340.581 576.919 339.345C578.21 338.109 578.937 336.434 578.941 334.685V6.83648C578.937 5.08838 578.21 3.41279 576.919 2.1767C575.628 0.940608 573.877 0.244765 572.051 0.241573H328.37Z" fill="#E6E6E6"/>
<path d="M520.122 36.9121H238.848V193.402H520.122V36.9121Z" fill="#E6E6E6"/>
<path d="M523.92 36.9121H242.646V193.402H523.92V36.9121Z" fill="#F5F5F5"/>
<path d="M517.093 186.059V44.2563L249.473 44.2563V186.059L517.093 186.059Z" fill="white"/>
<path d="M517.106 186.059V44.2563H514.229V186.059H517.106Z" fill="#E6E6E6"/>
<path d="M521.106 141.983H245.473V151.839H521.106V141.983Z" fill="#F5F5F5"/>
<path d="M319.272 291.227H273.084V389.245H319.272V291.227Z" fill="#E6E6E6"/>
<path d="M485.267 389.244H281.943V395.452H485.267V389.244Z" fill="#E6E6E6"/>
<path d="M319.259 389.244H494.138V291.226H319.259V389.244Z" fill="#F5F5F5"/>
<path d="M337.431 335.435H475.992V303.293H337.431V335.435Z" fill="#E6E6E6"/>
<path d="M337.431 377.165H475.992V345.024H337.431V377.165Z" fill="#E6E6E6"/>
<path d="M427.483 317.159H385.939C384.817 317.159 383.908 318.03 383.908 319.104V319.623C383.908 320.697 384.817 321.568 385.939 321.568H427.483C428.605 321.568 429.514 320.697 429.514 319.623V319.104C429.514 318.03 428.605 317.159 427.483 317.159Z" fill="#F5F5F5"/>
<path d="M427.483 358.902H385.939C384.817 358.902 383.908 359.773 383.908 360.847V361.366C383.908 362.44 384.817 363.311 385.939 363.311H427.483C428.605 363.311 429.514 362.44 429.514 361.366V360.847C429.514 359.773 428.605 358.902 427.483 358.902Z" fill="#F5F5F5"/>
<path d="M180.937 395.453H82.5434L68.9775 83.0161H167.371L180.937 395.453Z" fill="#E6E6E6"/>
<path d="M195.184 395.453H85.0673L71.5015 83.0161H181.618L195.184 395.453Z" fill="#F5F5F5"/>
<path d="M95.9453 384.582L83.3259 93.8872H170.728L183.36 384.582H95.9453Z" fill="white"/>
<path d="M359.565 276.105C360.827 243.106 362.089 197.389 359.426 180.841L355.072 177.616C355.072 177.616 356.019 180.696 356.524 231.257C357.028 281.818 357.647 268.592 357.117 276.105H359.565Z" fill="#E0E0E0"/>
<path d="M367.667 166.793C375.718 156.345 392.666 148.917 410.219 148.953C417.11 148.953 389.7 161.104 378.608 174.499C369.989 184.899 360.486 202.401 357.382 212.112C358.871 191.675 359.653 177.229 367.667 166.793Z" fill="#E0E0E0"/>
<path d="M351.514 194.007C344.119 183.137 327.651 174.766 310.135 173.824C303.257 173.449 329.872 187.11 340.131 201.085C348.094 211.956 356.537 229.953 359.06 239.833C358.783 219.348 358.922 204.89 351.514 194.007Z" fill="#E0E0E0"/>
<path d="M354.82 149.352C348.081 136.669 332.358 124.434 315.258 119.457C308.532 117.5 336.383 139.822 344.346 156.901C350.529 170.187 358.025 186.88 359.994 197.424C360.726 176.625 361.546 162.046 354.82 149.352Z" fill="#E0E0E0"/>
<path d="M357.937 291.227C362.035 291.227 365.976 289.724 368.952 287.028C371.929 284.333 373.713 280.648 373.939 276.732L375.352 253.179H340.522L341.948 276.732C342.171 280.647 343.953 284.332 346.927 287.028C349.901 289.724 353.841 291.226 357.937 291.227Z" fill="#F0F0F0"/>
<path d="M338.276 258.554H377.611L378.734 248.782H337.14L338.276 258.554Z" fill="#EBEBEB"/>
<path d="M505.495 96.8213H531.542V29.1812H505.495V96.8213Z" fill="#E6E6E6"/>
<path d="M505.496 29.1938H492.586V91.3985H505.496V29.1938Z" fill="#F5F5F5"/>
<path d="M466.54 96.8213H492.586V29.1812H466.54V96.8213Z" fill="#E6E6E6"/>
<path d="M466.54 29.1938H453.63V91.3985H466.54V29.1938Z" fill="#F5F5F5"/>
<path d="M427.584 96.8213H453.63V29.1812H427.584V96.8213Z" fill="#E6E6E6"/>
<path d="M427.584 29.1938H414.674V91.3985H427.584V29.1938Z" fill="#F5F5F5"/>
<path d="M388.615 96.8213H414.661V29.1812H388.615V96.8213Z" fill="#E6E6E6"/>
<path d="M388.615 29.1938H375.705V91.3985H388.615V29.1938Z" fill="#F5F5F5"/>
<path d="M349.671 96.8213H375.718V29.1812H349.671V96.8213Z" fill="#E6E6E6"/>
<path d="M349.659 29.1938H336.749V91.3985H349.659V29.1938Z" fill="#F5F5F5"/>
<path d="M310.703 96.8213H336.749V29.1812H310.703V96.8213Z" fill="#E6E6E6"/>
<path d="M310.702 29.1938H297.793V91.3985H310.702V29.1938Z" fill="#F5F5F5"/>
<path d="M271.746 96.8213H297.793V29.1812H271.746V96.8213Z" fill="#E6E6E6"/>
<path d="M271.747 29.1938H258.837V91.3985H271.747V29.1938Z" fill="#F5F5F5"/>
<path d="M232.79 96.8213H258.837V29.1812H232.79V96.8213Z" fill="#E6E6E6"/>
<path d="M315.485 450C450.617 450 560.163 443.879 560.163 436.327C560.163 428.776 450.617 422.654 315.485 422.654C180.353 422.654 70.8074 428.776 70.8074 436.327C70.8074 443.879 180.353 450 315.485 450Z" fill="#F5F5F5"/>
<path d="M444.733 198.73L450.097 206.581L458.072 204.999L452.053 195.239L444.733 198.73Z" fill="#9F5B53"/>
<path d="M459.94 131.439C461.076 132.756 462.022 133.928 462.994 135.208C463.966 136.488 464.899 137.72 465.821 139.001C467.663 141.549 469.417 144.17 471.058 146.864C472.698 149.557 474.288 152.311 475.676 155.198C476.421 156.611 477.052 158.109 477.733 159.57C478.415 161.032 478.995 162.566 479.487 164.148L479.891 165.356L480.093 165.948C480.207 166.298 480.32 166.673 480.396 167.023C480.674 168.277 480.767 169.561 480.674 170.84C480.507 172.843 480.053 174.814 479.323 176.698C478.088 179.838 476.506 182.842 474.604 185.66C471.06 190.892 466.948 195.75 462.338 200.155L456.823 196.024C459.855 191.07 462.627 185.975 465.126 180.756C466.275 178.374 467.191 175.895 467.865 173.352C468.116 172.397 468.231 171.414 468.206 170.429C468.205 170.221 468.157 170.015 468.067 169.825L467.865 169.366L467.448 168.448C465.086 163.367 462.301 158.476 459.12 153.821C457.53 151.405 455.851 149.074 454.16 146.719C452.469 144.364 450.627 142.008 448.961 139.87L459.94 131.439Z" fill="#9F5B53"/>
<path d="M456.823 125.496C465.518 127.405 475.487 150.076 475.487 150.076L458.085 161.527C453.74 155.568 449.884 149.297 446.551 142.769C441.389 132.393 447.989 123.552 456.823 125.496Z" fill="#FB8500"/>
<path opacity="0.8" d="M456.823 125.496C465.518 127.405 475.487 150.076 475.487 150.076L458.085 161.527C453.74 155.568 449.884 149.297 446.551 142.769C441.389 132.393 447.989 123.552 456.823 125.496Z" fill="white"/>
<path d="M450.639 139.955L458.893 160.983L458.072 161.527C458.072 161.527 454.501 156.696 450.639 150.258V139.955Z" fill="#FB8500"/>
<path opacity="0.6" d="M450.639 139.955L458.893 160.983L458.072 161.527C458.072 161.527 454.501 156.696 450.639 150.258V139.955Z" fill="white"/>
<path d="M428.606 428.354H419.33L418.409 407.809H427.684L428.606 428.354Z" fill="#9F5B53"/>
<path d="M484.27 428.354H474.994L470.338 407.809H479.601L484.27 428.354Z" fill="#9F5B53"/>
<path d="M418.409 407.822L418.889 418.403H428.164L427.684 407.822H418.409Z" fill="#8A4743"/>
<path d="M479.613 407.822H470.338L472.736 418.403H482.011L479.613 407.822Z" fill="#8A4743"/>
<path d="M421.968 202.655C421.968 202.655 432.492 270.464 438.259 295.866C444.569 323.646 468.42 416.362 468.42 416.362H485.406C485.406 416.362 469.682 325.929 466.073 298.342C462.161 268.447 453.971 202.607 453.971 202.607L421.968 202.655Z" fill="#FB8500"/>
<path opacity="0.5" d="M421.968 202.655C421.968 202.655 432.492 270.464 438.259 295.866C444.569 323.646 468.42 416.362 468.42 416.362H485.406C485.406 416.362 469.682 325.929 466.073 298.342C462.161 268.447 453.971 202.607 453.971 202.607L421.968 202.655Z" fill="black"/>
<path opacity="0.4" d="M428.619 226.812C440.784 229.095 439.496 272.518 438.033 294.851C434.524 279.064 429.388 248.687 425.88 227.127C426.729 226.726 427.695 226.615 428.619 226.812Z" fill="black"/>
<path d="M404.377 202.655C404.377 202.655 403.115 268.991 404.112 296.059C405.159 324.202 415.469 416.362 415.469 416.362H431.168C431.168 416.362 431.749 325.845 432.43 298.209C433.187 268.073 436.986 202.655 436.986 202.655H404.377Z" fill="#FB8500"/>
<path opacity="0.5" d="M404.377 202.655C404.377 202.655 403.115 268.991 404.112 296.059C405.159 324.202 415.469 416.362 415.469 416.362H431.168C431.168 416.362 431.749 325.845 432.43 298.209C433.187 268.073 436.986 202.655 436.986 202.655H404.377Z" fill="black"/>
<path d="M458.829 194.127L452.053 195.238L458.072 204.998C458.072 204.998 462.792 202.824 463.65 198.608L458.829 194.127Z" fill="#9F5B53"/>
<path d="M414.043 92.5229C414.043 93.2355 413.652 93.8153 413.16 93.8153C412.668 93.8153 412.277 93.2355 412.277 92.5229C412.277 91.8102 412.668 91.2305 413.16 91.2305C413.652 91.2305 414.043 91.7982 414.043 92.5229Z" fill="#263238"/>
<path d="M413.715 93.814C412.822 96.0015 411.62 98.0619 410.144 99.9378C410.654 100.287 411.238 100.526 411.855 100.636C412.472 100.747 413.107 100.727 413.715 100.578V93.814Z" fill="#892B29"/>
<path d="M416.693 88.561C416.601 88.562 416.512 88.5321 416.441 88.4764C416.002 88.1536 415.489 87.9358 414.945 87.8412C414.4 87.7467 413.84 87.7781 413.311 87.9329C413.258 87.9522 413.202 87.9613 413.145 87.9596C413.088 87.9579 413.032 87.9454 412.981 87.923C412.929 87.9005 412.883 87.8685 412.844 87.8287C412.805 87.7889 412.775 87.7422 412.756 87.6913C412.733 87.6406 412.722 87.5862 412.722 87.5311C412.722 87.4761 412.733 87.4216 412.755 87.3709C412.778 87.3202 412.811 87.2743 412.852 87.236C412.893 87.1977 412.942 87.1677 412.996 87.1478C413.66 86.9426 414.366 86.8948 415.054 87.0084C415.742 87.122 416.391 87.3936 416.945 87.8C416.994 87.8301 417.035 87.8696 417.067 87.9158C417.098 87.9621 417.12 88.0141 417.129 88.0686C417.139 88.1232 417.136 88.179 417.122 88.2325C417.108 88.2861 417.082 88.3362 417.046 88.3798C417.009 88.4368 416.957 88.4835 416.895 88.5153C416.833 88.5471 416.763 88.5628 416.693 88.561Z" fill="#263238"/>
<path d="M438.184 100.772C436.846 107.271 435.521 119.156 440.266 123.492C440.266 123.492 438.411 130.075 425.804 130.075C411.923 130.075 419.192 123.492 419.192 123.492C426.763 121.765 426.562 116.39 425.237 111.353L438.184 100.772Z" fill="#9F5B53"/>
<path d="M442.083 125.75C443.08 123.672 444.165 121.281 441.907 120.532C439.383 119.711 425.792 118.877 421.097 120.411C420.478 120.575 419.899 120.856 419.393 121.236C418.888 121.616 418.467 122.088 418.153 122.625C417.84 123.162 417.641 123.753 417.568 124.364C417.495 124.975 417.549 125.594 417.728 126.185L442.083 125.75Z" fill="#FB8500"/>
<path d="M471.272 428.79C470.881 428.84 470.482 428.815 470.101 428.715C469.719 428.615 469.363 428.444 469.051 428.21C468.94 428.065 468.879 427.89 468.879 427.709C468.879 427.529 468.94 427.353 469.051 427.208C469.121 427.083 469.218 426.974 469.335 426.889C469.453 426.803 469.589 426.743 469.733 426.713C471.096 426.423 473.645 428.09 473.758 428.162C473.793 428.187 473.82 428.22 473.836 428.259C473.851 428.297 473.855 428.339 473.847 428.38C473.84 428.419 473.82 428.455 473.791 428.483C473.761 428.511 473.724 428.53 473.683 428.537C472.891 428.7 472.083 428.785 471.272 428.79ZM470.124 427.099H469.846C469.761 427.116 469.68 427.151 469.611 427.201C469.541 427.251 469.483 427.315 469.443 427.389C469.241 427.727 469.367 427.872 469.443 427.921C469.834 428.428 471.727 428.428 473.115 428.21C472.215 427.639 471.193 427.268 470.124 427.123V427.099Z" fill="#FB8500"/>
<path d="M473.644 428.572H473.543C472.584 428.065 470.729 426.156 470.919 425.142C470.951 424.985 471.039 424.844 471.168 424.743C471.297 424.641 471.459 424.586 471.625 424.586C471.792 424.569 471.96 424.584 472.12 424.629C472.28 424.675 472.43 424.75 472.559 424.852C473.632 425.697 473.821 428.258 473.821 428.367C473.826 428.405 473.819 428.444 473.801 428.478C473.783 428.512 473.755 428.541 473.72 428.56C473.696 428.569 473.67 428.573 473.644 428.572ZM471.777 424.948H471.676C471.386 424.948 471.36 425.118 471.348 425.166C471.234 425.758 472.42 427.219 473.367 427.908C473.301 426.899 472.923 425.932 472.282 425.13C472.137 425.024 471.959 424.969 471.777 424.973V424.948Z" fill="#FB8500"/>
<path d="M415.608 428.789C414.422 428.789 413.273 428.632 412.882 428.125C412.785 427.99 412.733 427.83 412.733 427.666C412.733 427.502 412.785 427.342 412.882 427.207C412.955 427.082 413.054 426.974 413.174 426.889C413.294 426.803 413.431 426.743 413.576 426.712C415.103 426.313 418.359 428.077 418.498 428.149C418.535 428.172 418.564 428.205 418.582 428.244C418.6 428.282 418.606 428.325 418.599 428.367C418.594 428.41 418.573 428.45 418.541 428.481C418.509 428.511 418.467 428.531 418.422 428.536C417.494 428.704 416.552 428.789 415.608 428.789ZM414.132 427.074C413.994 427.055 413.853 427.055 413.715 427.074C413.626 427.091 413.542 427.125 413.468 427.175C413.394 427.225 413.332 427.29 413.286 427.364C413.135 427.63 413.185 427.751 413.286 427.823C413.715 428.379 416.05 428.415 417.791 428.186C416.657 427.599 415.414 427.23 414.132 427.098V427.074Z" fill="#FB8500"/>
<path d="M418.409 428.573H418.321C417.198 428.102 414.989 426.157 415.153 425.179C415.153 424.937 415.368 424.647 415.974 424.587C416.199 424.554 416.429 424.57 416.647 424.632C416.865 424.695 417.066 424.803 417.236 424.949C418.422 425.867 418.662 428.259 418.674 428.368C418.679 428.405 418.674 428.442 418.658 428.476C418.642 428.51 418.618 428.539 418.586 428.561C418.559 428.575 418.529 428.583 418.499 428.585C418.468 428.587 418.438 428.583 418.409 428.573ZM416.15 424.949H416.012C415.62 424.949 415.595 425.143 415.582 425.191C415.482 425.795 416.996 427.305 418.106 427.957C417.997 426.942 417.556 425.987 416.844 425.227C416.651 425.068 416.405 424.978 416.15 424.974V424.949Z" fill="#FB8500"/>
<path d="M474.339 427.328H484.75C484.936 427.329 485.115 427.391 485.26 427.503C485.404 427.615 485.505 427.77 485.545 427.944L487.375 435.831C487.416 436.023 487.412 436.222 487.363 436.412C487.313 436.603 487.22 436.78 487.089 436.931C486.958 437.082 486.793 437.203 486.606 437.284C486.42 437.366 486.217 437.406 486.012 437.402C482.377 437.341 480.61 437.136 476.03 437.136C473.216 437.136 467.411 437.426 463.511 437.426C459.612 437.426 459.12 433.802 460.71 433.404C467.852 431.906 470.54 429.84 472.837 427.884C473.246 427.523 473.783 427.325 474.339 427.328Z" fill="#263238"/>
<path d="M419.393 427.328H429.489C429.675 427.329 429.855 427.391 429.999 427.503C430.144 427.615 430.244 427.77 430.284 427.944L432.114 435.831C432.158 436.022 432.156 436.219 432.109 436.409C432.062 436.598 431.97 436.775 431.842 436.926C431.713 437.077 431.55 437.198 431.366 437.281C431.181 437.363 430.98 437.404 430.776 437.402C427.129 437.341 421.854 437.136 417.261 437.136C411.898 437.136 407.254 437.426 400.957 437.426C397.171 437.426 396.098 433.802 397.688 433.404C404.944 431.882 410.863 431.725 417.135 428.029C417.802 427.594 418.586 427.351 419.393 427.328Z" fill="#263238"/>
<path d="M406.156 143.651C402.484 148.844 398.685 153.688 394.584 158.495C390.487 163.352 386.106 167.981 381.46 172.361L379.643 174.004L379.176 174.415L378.86 174.693L378.393 175.079C377.794 175.531 377.156 175.935 376.488 176.287C374.357 177.359 372.013 177.985 369.61 178.123C365.943 178.341 362.263 178.053 358.682 177.265C352.194 175.89 345.902 173.773 339.942 170.96L342.251 164.679C348.165 165.805 354.145 166.584 360.158 167.011C362.799 167.216 365.456 167.111 368.071 166.697C368.821 166.593 369.537 166.328 370.165 165.924V165.839L370.254 165.742L370.632 165.344L372.121 163.774C376.071 159.461 379.895 154.884 383.605 150.185C387.315 145.487 391.025 140.703 394.571 136.005L406.156 143.651Z" fill="#9F5B53"/>
<path d="M410.434 145.04C409.144 152.533 405.76 159.553 400.641 165.356C400.439 161.104 400.363 157.287 400.376 153.869L410.434 145.04Z" fill="#BED3FC"/>
<path d="M438.979 90.9999C438.424 99.7931 438.563 104.963 433.931 109.48C426.953 116.268 415.621 112.234 413.425 103.441C411.456 95.5415 412.706 82.4966 421.703 78.9938C423.682 78.2154 425.836 77.9345 427.961 78.1778C430.085 78.421 432.109 79.1804 433.841 80.3836C435.572 81.5868 436.953 83.1939 437.853 85.0521C438.752 86.9103 439.14 88.9578 438.979 90.9999Z" fill="#9F5B53"/>
<path d="M421.135 85.1543C421.211 95.4936 424.719 108.176 435.168 107.294C442.109 106.715 447.384 94.5998 448.103 89.4664C449.201 81.6153 449.365 80.1176 444.746 79.2117C446.765 78.1608 447.497 73.1724 442.778 71.9645C436.215 70.3098 423.848 68.6912 427.735 64.8623C419.987 66.203 418.044 69.1744 419.457 72.7859C414.927 72.4477 412.138 70.1769 412.276 66.7466C404.768 69.6575 399.897 86.1206 421.135 85.1543Z" fill="#263238"/>
<path d="M426.536 93.5617C426.024 95.694 424.791 97.6047 423.028 98.9971C420.693 100.809 418.826 99.1903 418.876 96.5814C418.876 94.226 420.214 90.4455 422.839 89.6483C425.464 88.8511 427.18 90.989 426.536 93.5617Z" fill="#9F5B53"/>
<path d="M451.775 81.0112C450.54 80.2584 449.129 79.8113 447.668 79.7101C446.208 79.6089 444.744 79.8567 443.408 80.4314C443.408 80.4314 448.658 73.6794 451.775 81.0112Z" fill="#263238"/>
<path d="M465.656 410.37C465.581 410.37 467.41 416.615 467.41 416.615H486.516L486.163 411.047L465.656 410.37Z" fill="#FB8500"/>
<path d="M412.415 410.37C412.339 410.37 413.299 416.615 413.299 416.615H432.404L432.922 411.047L412.415 410.37Z" fill="#FB8500"/>
<path d="M418.7 405.563C418.662 405.563 418.625 405.549 418.597 405.525C418.569 405.5 418.551 405.466 418.548 405.43C415.772 379.92 409.248 318.198 408.453 296.058C407.607 273.459 408.377 222.753 408.629 207.752C408.629 207.667 408.705 207.619 408.793 207.607C408.833 207.61 408.869 207.626 408.897 207.652C408.925 207.679 408.942 207.714 408.945 207.752C408.692 222.753 407.923 273.459 408.768 296.046C409.588 318.186 416.113 379.884 418.864 405.394C418.864 405.435 418.849 405.474 418.821 405.506C418.793 405.537 418.755 405.557 418.712 405.563H418.7Z" fill="#FB8500"/>
<path opacity="0.3" d="M418.7 405.563C418.662 405.563 418.625 405.549 418.597 405.525C418.569 405.5 418.551 405.466 418.548 405.43C415.772 379.92 409.248 318.198 408.453 296.058C407.607 273.459 408.377 222.753 408.629 207.752C408.629 207.667 408.705 207.619 408.793 207.607C408.833 207.61 408.869 207.626 408.897 207.652C408.925 207.679 408.942 207.714 408.945 207.752C408.692 222.753 407.923 273.459 408.768 296.046C409.588 318.186 416.113 379.884 418.864 405.394C418.864 405.435 418.849 405.474 418.821 405.506C418.793 405.537 418.755 405.557 418.712 405.563H418.7Z" fill="black"/>
<path d="M414.712 133.142C415.974 141.597 398.635 163.012 398.635 163.012L381.258 151.562C381.258 151.562 386.078 139.737 394.193 131.982C403.455 123.201 413.374 123.998 414.712 133.142Z" fill="#FB8500"/>
<path opacity="0.8" d="M414.712 133.142C415.974 141.597 398.635 163.012 398.635 163.012L381.258 151.562C381.258 151.562 386.078 139.737 394.193 131.982C403.455 123.201 413.374 123.998 414.712 133.142Z" fill="white"/>
<path d="M404.932 125.956C404.932 125.956 395.064 136.621 404.377 202.655H453.971C454.312 195.408 449.529 159.824 456.861 125.497C451.381 124.487 445.837 123.817 440.267 123.492C433.248 123.105 426.211 123.105 419.192 123.492C414.379 123.956 409.611 124.78 404.932 125.956Z" fill="#FB8500"/>
<path opacity="0.8" d="M404.932 125.956C404.932 125.956 395.064 136.621 404.377 202.655H453.971C454.312 195.408 449.529 159.824 456.861 125.497C451.381 124.487 445.837 123.817 440.267 123.492C433.248 123.105 426.211 123.105 419.192 123.492C414.379 123.956 409.611 124.78 404.932 125.956Z" fill="white"/>
<path d="M259.024 77.4779C262.985 60.7788 252.052 44.1684 234.605 40.3775C217.158 36.5866 199.804 47.0508 195.843 63.7499C191.883 80.449 202.816 97.0594 220.262 100.85C237.709 104.641 255.063 94.177 259.024 77.4779Z" fill="#FB8500"/>
<path opacity="0.2" d="M259.024 77.4779C262.985 60.7788 252.052 44.1684 234.605 40.3775C217.158 36.5866 199.804 47.0508 195.843 63.7499C191.883 80.449 202.816 97.0594 220.262 100.85C237.709 104.641 255.063 94.177 259.024 77.4779Z" fill="white"/>
<path d="M224.108 110.821C215.729 110.202 207.738 107.188 201.17 102.17C194.602 97.1519 189.76 90.3613 187.272 82.6783L188.471 82.3159C190.886 89.7687 195.584 96.3554 201.956 101.223C208.328 106.09 216.081 109.013 224.209 109.614L224.108 110.821Z" fill="#FB8500"/>
<path opacity="0.2" d="M224.108 110.821C215.729 110.202 207.738 107.188 201.17 102.17C194.602 97.1519 189.76 90.3613 187.272 82.6783L188.471 82.3159C190.886 89.7687 195.584 96.3554 201.956 101.223C208.328 106.09 216.081 109.013 224.209 109.614L224.108 110.821Z" fill="white"/>
<path d="M188.294 59.4508L187.032 59.1126C188.659 53.9102 191.367 49.0759 194.993 44.8999C198.62 40.7238 203.091 37.292 208.137 34.8103C213.184 32.3287 218.702 30.8484 224.361 30.4582C230.02 30.068 235.703 30.7761 241.069 32.5398L240.665 33.6872C235.456 31.9781 229.94 31.2936 224.448 31.6747C218.956 32.0559 213.601 33.4949 208.705 35.9054C203.808 38.3159 199.471 41.6483 195.953 45.7026C192.434 49.7569 189.808 54.4496 188.231 59.4991L188.294 59.4508Z" fill="#FB8500"/>
<path opacity="0.2" d="M188.294 59.4508L187.032 59.1126C188.659 53.9102 191.367 49.0759 194.993 44.8999C198.62 40.7238 203.091 37.292 208.137 34.8103C213.184 32.3287 218.702 30.8484 224.361 30.4582C230.02 30.068 235.703 30.7761 241.069 32.5398L240.665 33.6872C235.456 31.9781 229.94 31.2936 224.448 31.6747C218.956 32.0559 213.601 33.4949 208.705 35.9054C203.808 38.3159 199.471 41.6483 195.953 45.7026C192.434 49.7569 189.808 54.4496 188.231 59.4991L188.294 59.4508Z" fill="white"/>
<path d="M266.446 58.9315C263.496 49.9008 257.217 42.2041 248.779 37.2746L249.435 36.2358C258.125 41.3266 264.591 49.2618 267.632 58.5691L266.446 58.9315Z" fill="#FB8500"/>
<path opacity="0.2" d="M266.446 58.9315C263.496 49.9008 257.217 42.2041 248.779 37.2746L249.435 36.2358C258.125 41.3266 264.591 49.2618 267.632 58.5691L266.446 58.9315Z" fill="white"/>
<path d="M259.039 163.066C263 146.367 252.067 129.756 234.62 125.965C217.173 122.175 199.819 132.639 195.858 149.338C191.898 166.037 202.83 182.647 220.277 186.438C237.724 190.229 255.078 179.765 259.039 163.066Z" fill="#FB8500"/>
<path opacity="0.6" d="M259.039 163.066C263 146.367 252.067 129.756 234.62 125.965C217.173 122.175 199.819 132.639 195.858 149.338C191.898 166.037 202.83 182.647 220.277 186.438C237.724 190.229 255.078 179.765 259.039 163.066Z" fill="white"/>
<path d="M259.029 248.651C262.989 231.952 252.057 215.341 234.61 211.55C217.163 207.76 199.809 218.224 195.848 234.923C191.887 251.622 202.82 268.232 220.267 272.023C237.714 275.814 255.068 265.35 259.029 248.651Z" fill="#FB8500"/>
<path opacity="0.6" d="M259.029 248.651C262.989 231.952 252.057 215.341 234.61 211.55C217.163 207.76 199.809 218.224 195.848 234.923C191.887 251.622 202.82 268.232 220.267 272.023C237.714 275.814 255.068 265.35 259.029 248.651Z" fill="white"/>
<path d="M259.03 334.25C262.991 317.551 252.058 300.941 234.611 297.15C217.165 293.359 199.81 303.823 195.85 320.522C191.889 337.221 202.822 353.832 220.269 357.623C237.716 361.414 255.07 350.949 259.03 334.25Z" fill="#FB8500"/>
<path opacity="0.6" d="M259.03 334.25C262.991 317.551 252.058 300.941 234.611 297.15C217.165 293.359 199.81 303.823 195.85 320.522C191.889 337.221 202.822 353.832 220.269 357.623C237.716 361.414 255.07 350.949 259.03 334.25Z" fill="white"/>
<path d="M169.647 77.4228C173.622 60.7265 162.698 44.1294 145.248 40.3523C127.797 36.5752 110.428 47.0483 106.453 63.7447C102.478 80.441 113.402 97.038 130.852 100.815C148.303 104.592 165.672 94.1191 169.647 77.4228Z" fill="#FB8500"/>
<path opacity="0.6" d="M169.647 77.4228C173.622 60.7265 162.698 44.1294 145.248 40.3523C127.797 36.5752 110.428 47.0483 106.453 63.7447C102.478 80.441 113.402 97.038 130.852 100.815C148.303 104.592 165.672 94.1191 169.647 77.4228Z" fill="white"/>
<path d="M169.662 163.022C173.637 146.326 162.713 129.729 145.263 125.952C127.812 122.175 110.443 132.648 106.468 149.344C102.492 166.041 113.416 182.638 130.867 186.415C148.317 190.192 165.687 179.719 169.662 163.022Z" fill="#FB8500"/>
<path opacity="0.6" d="M169.662 163.022C173.637 146.326 162.713 129.729 145.263 125.952C127.812 122.175 110.443 132.648 106.468 149.344C102.492 166.041 113.416 182.638 130.867 186.415C148.317 190.192 165.687 179.719 169.662 163.022Z" fill="white"/>
<path d="M169.652 248.607C173.627 231.911 162.703 215.314 145.252 211.537C127.802 207.76 110.433 218.233 106.457 234.929C102.482 251.626 113.406 268.223 130.857 272C148.307 275.777 165.676 265.304 169.652 248.607Z" fill="#FB8500"/>
<path opacity="0.6" d="M169.652 248.607C173.627 231.911 162.703 215.314 145.252 211.537C127.802 207.76 110.433 218.233 106.457 234.929C102.482 251.626 113.406 268.223 130.857 272C148.307 275.777 165.676 265.304 169.652 248.607Z" fill="white"/>
<path d="M169.653 334.195C173.628 317.498 162.705 300.901 145.254 297.124C127.803 293.347 110.434 303.82 106.459 320.517C102.484 337.213 113.408 353.81 130.858 357.587C148.309 361.364 165.678 350.891 169.653 334.195Z" fill="#FB8500"/>
<path opacity="0.6" d="M169.653 334.195C173.628 317.498 162.705 300.901 145.254 297.124C127.803 293.347 110.434 303.82 106.459 320.517C102.484 337.213 113.408 353.81 130.858 357.587C148.309 361.364 165.678 350.891 169.653 334.195Z" fill="white"/>
<path d="M343.5 165.332L336.698 158.592L329.442 167.555C329.442 167.555 334.969 172.652 341.544 171.178L343.5 165.332Z" fill="#9F5B53"/>
<path d="M327.348 154.895L324.243 164.292L329.442 167.553L336.699 158.591L327.348 154.895Z" fill="#9F5B53"/>
<path d="M234.721 155.404C235.283 153.804 236.201 152.34 237.411 151.112C238.621 149.884 240.094 148.922 241.73 148.29C243.365 147.659 245.124 147.374 246.886 147.455C248.647 147.537 250.369 147.982 251.934 148.761L244.362 144.992C241.559 143.636 239.392 141.32 238.293 138.504C237.194 135.689 237.243 132.58 238.431 129.797C239.103 128.33 240.082 127.011 241.308 125.92C242.534 124.83 243.981 123.992 245.558 123.457C247.136 122.923 248.811 122.704 250.481 122.814C252.15 122.924 253.779 123.36 255.265 124.096L247.694 120.34C244.888 118.984 242.719 116.666 241.619 113.847C240.52 111.028 240.571 107.917 241.762 105.133C242.433 103.653 243.416 102.322 244.65 101.223C245.883 100.124 247.341 99.2805 248.931 98.7463C250.522 98.2121 252.21 97.9983 253.891 98.1183C255.571 98.2384 257.208 98.6896 258.698 99.4438L222.745 81.4467C220.1 80.1812 218.012 78.0554 216.856 75.4502C215.7 72.8451 215.55 69.931 216.435 67.2302C217.001 65.6314 217.921 64.1685 219.133 62.9417C220.344 61.7149 221.818 60.7531 223.454 60.1222C225.09 59.4913 226.849 59.2062 228.611 59.2865C230.372 59.3667 232.095 59.8103 233.661 60.5869L309.377 98.4775L301.604 67.9428C300.838 64.8752 301.317 61.6437 302.944 58.9009C304.57 56.158 307.224 54.1082 310.368 53.1653C313.513 52.2223 316.914 52.4565 319.885 53.8206C322.856 55.1847 325.176 57.577 326.376 60.5145L351.211 122.26C353.338 127.538 357.397 131.895 362.631 134.52L366.96 136.682C367.623 137.013 368.212 137.466 368.691 138.016C369.171 138.565 369.533 139.199 369.756 139.883C369.979 140.567 370.058 141.285 369.99 141.998C369.921 142.712 369.706 143.405 369.357 144.038L339.071 199.418C338.37 200.698 337.167 201.659 335.726 202.092C334.286 202.524 332.725 202.392 331.386 201.725L320.76 196.411C316.735 194.434 312.225 193.54 307.712 193.826C296.798 194.409 285.923 192.156 276.239 187.303L240.904 169.62C238.282 168.335 236.221 166.201 235.089 163.597C233.957 160.994 233.826 158.091 234.721 155.404Z" fill="#FB8500"/>
<path d="M334.086 204.128C332.865 204.129 331.661 203.847 330.578 203.307L319.952 197.992C316.23 196.167 312.063 195.333 307.888 195.576C296.634 196.18 285.419 193.86 275.431 188.861L240.097 171.178C237.07 169.695 234.69 167.234 233.38 164.231C232.07 161.228 231.915 157.877 232.942 154.775C233.59 152.924 234.652 151.231 236.053 149.812C237.454 148.394 239.161 147.284 241.056 146.561C241.569 146.358 242.096 146.189 242.633 146.054C239.683 144.361 237.466 141.711 236.387 138.585C235.307 135.459 235.437 132.065 236.753 129.023C237.515 127.318 238.643 125.785 240.062 124.523C241.481 123.26 243.161 122.295 244.993 121.692C245.334 121.583 245.675 121.474 246.015 121.39C243.063 119.699 240.845 117.048 239.765 113.921C238.685 110.795 238.817 107.401 240.135 104.359C240.899 102.656 242.027 101.125 243.446 99.8648C244.865 98.6042 246.544 97.6418 248.375 97.0392C248.691 96.9305 249.019 96.8339 249.334 96.7493L221.874 83.0039C218.847 81.5216 216.468 79.0602 215.158 76.0571C213.848 73.054 213.692 69.7036 214.719 66.6012C215.373 64.7554 216.435 63.0664 217.834 61.6501C219.233 60.2337 220.934 59.1234 222.823 58.395C224.712 57.6666 226.743 57.3375 228.776 57.43C230.81 57.5226 232.799 58.0347 234.607 58.9313L306.652 95.0221L299.85 68.3647C298.977 64.8514 299.531 61.1521 301.398 58.0142C303.265 54.8764 306.308 52.534 309.91 51.4604C313.512 50.3868 317.406 50.662 320.804 52.2303C324.203 53.7987 326.853 56.5434 328.218 59.9097L353.053 121.655C355.015 126.523 358.76 130.542 363.59 132.961L367.906 135.123C368.79 135.564 369.574 136.167 370.213 136.898C370.853 137.629 371.335 138.474 371.633 139.384C371.931 140.294 372.038 141.251 371.949 142.201C371.859 143.151 371.575 144.074 371.112 144.919L340.825 200.311C340.172 201.475 339.199 202.445 338.011 203.118C336.823 203.791 335.466 204.14 334.086 204.128ZM309.314 191.941C313.624 191.918 317.875 192.892 321.707 194.779L332.332 200.094C332.774 200.318 333.258 200.457 333.756 200.501C334.254 200.545 334.757 200.495 335.234 200.352C335.712 200.209 336.155 199.977 336.539 199.67C336.922 199.362 337.238 198.985 337.468 198.56L367.755 143.167C367.987 142.744 368.129 142.281 368.174 141.805C368.218 141.329 368.163 140.849 368.013 140.394C367.863 139.938 367.62 139.515 367.299 139.149C366.977 138.784 366.583 138.483 366.14 138.263L361.824 136.101C356.196 133.277 351.836 128.589 349.558 122.912L324.71 61.1658C323.712 58.6229 321.735 56.542 319.185 55.3505C316.634 54.159 313.704 53.9473 310.996 54.7588C308.288 55.5704 306.007 57.3436 304.621 59.7143C303.236 62.0851 302.852 64.8736 303.547 67.5071L311.346 98.0538C311.433 98.3908 311.415 98.7445 311.297 99.0724C311.178 99.4002 310.963 99.6883 310.677 99.9019C310.392 100.12 310.047 100.253 309.683 100.285C309.32 100.318 308.955 100.247 308.633 100.083L232.916 62.1925C231.597 61.5358 230.144 61.1602 228.659 61.0914C227.173 61.0226 225.69 61.2623 224.31 61.7939C222.913 62.3149 221.654 63.1273 220.626 64.1719C219.598 65.2165 218.826 66.4673 218.366 67.8332C217.612 70.1239 217.734 72.5965 218.71 74.8092C219.685 77.0219 221.451 78.8305 223.692 79.9118L259.657 97.9089C260.102 98.1315 260.437 98.5143 260.587 98.973C260.737 99.4317 260.691 99.9287 260.458 100.355C260.343 100.566 260.186 100.753 259.995 100.906C259.804 101.058 259.584 101.174 259.346 101.245C258.867 101.389 258.348 101.344 257.903 101.122C256.647 100.498 255.271 100.128 253.86 100.035C252.449 99.9411 251.033 100.126 249.7 100.578C248.361 101.02 247.133 101.724 246.095 102.645C245.056 103.566 244.23 104.685 243.668 105.929C242.664 108.29 242.625 110.926 243.561 113.312C244.496 115.698 246.337 117.659 248.716 118.805L256.287 122.573C256.695 122.814 256.991 123.194 257.117 123.636C257.244 124.078 257.19 124.55 256.968 124.956C256.745 125.361 256.371 125.671 255.919 125.823C255.467 125.975 254.972 125.958 254.533 125.774C253.279 125.153 251.906 124.784 250.497 124.691C249.089 124.597 247.675 124.781 246.343 125.231C245.004 125.675 243.776 126.381 242.738 127.304C241.699 128.228 240.873 129.348 240.311 130.594C239.311 132.953 239.274 135.586 240.209 137.969C241.145 140.353 242.983 142.312 245.359 143.457L252.931 147.226C253.376 147.448 253.71 147.831 253.861 148.29C254.011 148.749 253.965 149.246 253.732 149.672C253.499 150.098 253.1 150.418 252.62 150.562C252.141 150.706 251.622 150.661 251.177 150.439C249.855 149.787 248.402 149.415 246.917 149.348C245.432 149.282 243.95 149.522 242.57 150.052C241.178 150.579 239.925 151.393 238.9 152.437C237.874 153.481 237.102 154.729 236.639 156.091C235.883 158.382 236.003 160.856 236.979 163.069C237.955 165.282 239.722 167.091 241.964 168.17L277.299 185.853C286.661 190.485 297.152 192.625 307.674 192.049C308.229 192.049 308.772 191.965 309.314 191.965V191.941Z" fill="#FB8500"/>
<path d="M261.386 155.295C261.078 155.297 260.775 155.227 260.502 155.09L251.126 150.367C250.906 150.257 250.71 150.106 250.551 149.923C250.391 149.741 250.271 149.53 250.196 149.303C250.122 149.076 250.095 148.837 250.117 148.6C250.139 148.362 250.21 148.132 250.325 147.921C250.44 147.71 250.597 147.523 250.788 147.37C250.979 147.217 251.199 147.102 251.436 147.031C251.674 146.96 251.923 146.934 252.171 146.955C252.419 146.976 252.66 147.044 252.88 147.154L262.307 151.877C262.682 152.064 262.981 152.366 263.156 152.735C263.33 153.104 263.371 153.519 263.271 153.912C263.17 154.306 262.935 154.656 262.603 154.907C262.27 155.157 261.859 155.294 261.436 155.295H261.386Z" fill="#FB8500"/>
<path d="M264.768 130.63C264.46 130.634 264.156 130.563 263.884 130.425L254.458 125.702C254.22 125.602 254.005 125.457 253.828 125.275C253.652 125.092 253.516 124.877 253.43 124.642C253.344 124.408 253.309 124.158 253.328 123.91C253.347 123.662 253.419 123.42 253.539 123.2C253.66 122.98 253.827 122.786 254.029 122.63C254.232 122.474 254.466 122.36 254.717 122.294C254.967 122.228 255.229 122.213 255.487 122.249C255.744 122.284 255.991 122.37 256.212 122.501L265.638 127.212C266.014 127.399 266.313 127.701 266.487 128.07C266.662 128.439 266.702 128.854 266.602 129.247C266.502 129.641 266.267 129.991 265.934 130.242C265.602 130.492 265.191 130.629 264.768 130.63Z" fill="#FB8500"/>
<path d="M268.137 105.977C267.834 105.974 267.536 105.903 267.266 105.772L257.84 101.049C257.619 100.939 257.424 100.788 257.264 100.605C257.105 100.423 256.984 100.212 256.91 99.9848C256.835 99.7577 256.808 99.5187 256.83 99.2816C256.853 99.0445 256.923 98.8139 257.038 98.603C257.154 98.392 257.311 98.2048 257.502 98.0521C257.692 97.8994 257.913 97.7841 258.15 97.7129C258.387 97.6417 258.637 97.6159 258.885 97.637C259.132 97.6581 259.373 97.7257 259.594 97.836L269.021 102.559C269.397 102.747 269.696 103.05 269.871 103.42C270.045 103.79 270.085 104.206 269.983 104.6C269.881 104.994 269.644 105.345 269.309 105.594C268.974 105.844 268.562 105.979 268.137 105.977Z" fill="#FB8500"/>
<path opacity="0.3" d="M334.086 204.128C332.865 204.129 331.661 203.847 330.578 203.307L319.952 197.992C316.23 196.167 312.063 195.333 307.888 195.576C296.634 196.18 285.419 193.86 275.431 188.861L240.097 171.178C237.07 169.695 234.69 167.234 233.38 164.231C232.07 161.228 231.915 157.877 232.942 154.775C233.59 152.924 234.652 151.231 236.053 149.812C237.454 148.394 239.161 147.284 241.056 146.561C241.569 146.358 242.096 146.189 242.633 146.054C239.683 144.361 237.466 141.711 236.387 138.585C235.307 135.459 235.437 132.065 236.753 129.023C237.515 127.318 238.643 125.785 240.062 124.523C241.481 123.26 243.161 122.295 244.993 121.692C245.334 121.583 245.675 121.474 246.015 121.39C243.063 119.699 240.845 117.048 239.765 113.921C238.685 110.795 238.817 107.401 240.135 104.359C240.899 102.656 242.027 101.125 243.446 99.8648C244.865 98.6042 246.544 97.6418 248.375 97.0392C248.691 96.9305 249.019 96.8339 249.334 96.7493L221.874 83.0039C218.847 81.5216 216.468 79.0602 215.158 76.0571C213.848 73.054 213.692 69.7036 214.719 66.6012C215.373 64.7554 216.435 63.0664 217.834 61.6501C219.233 60.2337 220.934 59.1234 222.823 58.395C224.712 57.6666 226.743 57.3375 228.776 57.43C230.81 57.5226 232.799 58.0347 234.607 58.9313L306.652 95.0221L299.85 68.3647C298.977 64.8514 299.531 61.1521 301.398 58.0142C303.265 54.8764 306.308 52.534 309.91 51.4604C313.512 50.3868 317.406 50.662 320.804 52.2303C324.203 53.7987 326.853 56.5434 328.218 59.9097L353.053 121.655C355.015 126.523 358.76 130.542 363.59 132.961L367.906 135.123C368.79 135.564 369.574 136.167 370.213 136.898C370.853 137.629 371.335 138.474 371.633 139.384C371.931 140.294 372.038 141.251 371.949 142.201C371.859 143.151 371.575 144.074 371.112 144.919L340.825 200.311C340.172 201.475 339.199 202.445 338.011 203.118C336.823 203.791 335.466 204.14 334.086 204.128ZM309.314 191.941C313.624 191.918 317.875 192.892 321.707 194.779L332.332 200.094C332.774 200.318 333.258 200.457 333.756 200.501C334.254 200.545 334.757 200.495 335.234 200.352C335.712 200.209 336.155 199.977 336.539 199.67C336.922 199.362 337.238 198.985 337.468 198.56L367.755 143.167C367.987 142.744 368.129 142.281 368.174 141.805C368.218 141.329 368.163 140.849 368.013 140.394C367.863 139.938 367.62 139.515 367.299 139.149C366.977 138.784 366.583 138.483 366.14 138.263L361.824 136.101C356.196 133.277 351.836 128.589 349.558 122.912L324.71 61.1658C323.712 58.6229 321.735 56.542 319.185 55.3505C316.634 54.159 313.704 53.9473 310.996 54.7588C308.288 55.5704 306.007 57.3436 304.621 59.7143C303.236 62.0851 302.852 64.8736 303.547 67.5071L311.346 98.0538C311.433 98.3908 311.415 98.7445 311.297 99.0724C311.178 99.4002 310.963 99.6883 310.677 99.9019C310.392 100.12 310.047 100.253 309.683 100.285C309.32 100.318 308.955 100.247 308.633 100.083L232.916 62.1925C231.597 61.5358 230.144 61.1602 228.659 61.0914C227.173 61.0226 225.69 61.2623 224.31 61.7939C222.913 62.3149 221.654 63.1273 220.626 64.1719C219.598 65.2165 218.826 66.4673 218.366 67.8332C217.612 70.1239 217.734 72.5965 218.71 74.8092C219.685 77.0219 221.451 78.8305 223.692 79.9118L259.657 97.9089C260.102 98.1315 260.437 98.5143 260.587 98.973C260.737 99.4317 260.691 99.9287 260.458 100.355C260.343 100.566 260.186 100.753 259.995 100.906C259.804 101.058 259.584 101.174 259.346 101.245C258.867 101.389 258.348 101.344 257.903 101.122C256.647 100.498 255.271 100.128 253.86 100.035C252.449 99.9411 251.033 100.126 249.7 100.578C248.361 101.02 247.133 101.724 246.095 102.645C245.056 103.566 244.23 104.685 243.668 105.929C242.664 108.29 242.625 110.926 243.561 113.312C244.496 115.698 246.337 117.659 248.716 118.805L256.287 122.573C256.695 122.814 256.991 123.194 257.117 123.636C257.244 124.078 257.19 124.55 256.968 124.956C256.745 125.361 256.371 125.671 255.919 125.823C255.467 125.975 254.972 125.958 254.533 125.774C253.279 125.153 251.906 124.784 250.497 124.691C249.089 124.597 247.675 124.781 246.343 125.231C245.004 125.675 243.776 126.381 242.738 127.304C241.699 128.228 240.873 129.348 240.311 130.594C239.311 132.953 239.274 135.586 240.209 137.969C241.145 140.353 242.983 142.312 245.359 143.457L252.931 147.226C253.376 147.448 253.71 147.831 253.861 148.29C254.011 148.749 253.965 149.246 253.732 149.672C253.499 150.098 253.1 150.418 252.62 150.562C252.141 150.706 251.622 150.661 251.177 150.439C249.855 149.787 248.402 149.415 246.917 149.348C245.432 149.282 243.95 149.522 242.57 150.052C241.178 150.579 239.925 151.393 238.9 152.437C237.874 153.481 237.102 154.729 236.639 156.091C235.883 158.382 236.003 160.856 236.979 163.069C237.955 165.282 239.722 167.091 241.964 168.17L277.299 185.853C286.661 190.485 297.152 192.625 307.674 192.049C308.229 192.049 308.772 191.965 309.314 191.965V191.941Z" fill="black"/>
</svg>
