<svg width="446" height="500" viewBox="0 0 446 500" fill="none" xmlns="http://www.w3.org/2000/svg">
<path d="M86.4104 158.13C72.362 179.33 63.329 210.48 70.1795 236.57C81.885 281.16 131.558 284.52 165.578 289.68C189.025 293.24 212.338 313.93 232.391 326.77C259.116 343.89 302.107 370.9 332.93 353.36C358.479 338.83 372.215 303.68 380.055 274.52C392.339 228.86 393.524 173.78 366.781 134C330.382 80 266.705 89 213.799 98.24C178.389 104.43 143.967 110.46 112.485 131.53C102.321 138.387 93.4602 147.426 86.4104 158.13Z" fill="#219EBC"/>
<path opacity="0.4" d="M86.4104 158.13C72.362 179.33 63.329 210.48 70.1795 236.57C81.885 281.16 131.558 284.52 165.578 289.68C189.025 293.24 212.338 313.93 232.391 326.77C259.116 343.89 302.107 370.9 332.93 353.36C358.479 338.83 372.215 303.68 380.055 274.52C392.339 228.86 393.524 173.78 366.781 134C330.382 80 266.705 89 213.799 98.24C178.389 104.43 143.967 110.46 112.485 131.53C102.321 138.387 93.4602 147.426 86.4104 158.13Z" fill="white"/>
<path d="M45.3789 412.89C45.3789 416.45 126.721 419.34 227.108 419.34C327.496 419.34 408.837 416.45 408.837 412.89C408.837 409.33 327.496 406.44 227.153 406.44C126.81 406.44 45.3789 409.33 45.3789 412.89Z" fill="#219EBC"/>
<path opacity="0.6" d="M45.3789 412.89C45.3789 416.45 126.721 419.34 227.108 419.34C327.496 419.34 408.837 416.45 408.837 412.89C408.837 409.33 327.496 406.44 227.153 406.44C126.81 406.44 45.3789 409.33 45.3789 412.89Z" fill="white"/>
<path d="M247.615 93.3999H86.2412V323.18H247.615V93.3999Z" fill="white" stroke="#263238" stroke-width="0.75" stroke-linecap="round" stroke-linejoin="round"/>
<path d="M247.615 93.3999H86.2412V107.11H247.615V93.3999Z" fill="#263238" stroke="#263238" stroke-width="0.75" stroke-linecap="round" stroke-linejoin="round"/>
<path d="M118.115 253.66H90.8379V318.65H118.115V253.66Z" fill="#219EBC"/>
<path opacity="0.6" d="M118.115 253.66H90.8379V318.65H118.115V253.66Z" fill="white"/>
<path d="M147.86 253.66H120.583V318.65H147.86V253.66Z" fill="#219EBC"/>
<path opacity="0.6" d="M147.86 253.66H120.583V318.65H147.86V253.66Z" fill="white"/>
<path d="M179.467 253.66H152.189V318.65H179.467V253.66Z" fill="#219EBC"/>
<path opacity="0.6" d="M179.467 253.66H152.189V318.65H179.467V253.66Z" fill="white"/>
<path d="M211.064 253.66H183.787V318.65H211.064V253.66Z" fill="#219EBC"/>
<path opacity="0.6" d="M211.064 253.66H183.787V318.65H211.064V253.66Z" fill="white"/>
<path d="M243.437 253.66H216.16V318.65H243.437V253.66Z" fill="white" stroke="#263238" stroke-width="0.75" stroke-linecap="round" stroke-linejoin="round"/>
<path d="M243.001 98.8201H90.8469V114.57H243.001V98.8201Z" fill="#219EBC"/>
<path opacity="0.6" d="M243.001 98.8201H90.8469V114.57H243.001V98.8201Z" fill="white"/>
<path d="M240.863 101.88H93.5818V108.85H240.863V101.88Z" fill="white"/>
<path d="M240.854 101.88H224.177V108.85H240.854V101.88Z" fill="#263238" stroke="#263238" stroke-width="0.75" stroke-linecap="round" stroke-linejoin="round"/>
<path d="M158.568 128.69H127.389C127.07 128.69 126.764 128.548 126.538 128.295C126.313 128.041 126.186 127.698 126.186 127.34C126.186 126.982 126.313 126.639 126.538 126.385C126.764 126.132 127.07 125.99 127.389 125.99H158.568C158.887 125.99 159.193 126.132 159.418 126.385C159.644 126.639 159.77 126.982 159.77 127.34C159.77 127.698 159.644 128.041 159.418 128.295C159.193 128.548 158.887 128.69 158.568 128.69Z" fill="#263238"/>
<path d="M158.568 138.1H127.389C127.223 138.116 127.055 138.093 126.898 138.033C126.74 137.972 126.595 137.876 126.472 137.75C126.349 137.623 126.251 137.469 126.184 137.298C126.117 137.127 126.083 136.942 126.083 136.755C126.083 136.568 126.117 136.383 126.184 136.211C126.251 136.04 126.349 135.886 126.472 135.76C126.595 135.634 126.74 135.537 126.898 135.477C127.055 135.417 127.223 135.394 127.389 135.41H158.568C158.868 135.439 159.147 135.593 159.35 135.842C159.554 136.091 159.667 136.417 159.667 136.755C159.667 137.093 159.554 137.418 159.35 137.667C159.147 137.916 158.868 138.071 158.568 138.1Z" fill="#263238"/>
<path d="M158.568 147.52H127.389C127.07 147.52 126.764 147.378 126.538 147.124C126.313 146.871 126.186 146.528 126.186 146.17C126.186 145.812 126.313 145.468 126.538 145.215C126.764 144.962 127.07 144.82 127.389 144.82H158.568C158.887 144.82 159.193 144.962 159.418 145.215C159.644 145.468 159.77 145.812 159.77 146.17C159.77 146.528 159.644 146.871 159.418 147.124C159.193 147.378 158.887 147.52 158.568 147.52Z" fill="#263238"/>
<path d="M158.568 156.93H93.8578C93.5578 156.901 93.2785 156.747 93.075 156.498C92.8715 156.249 92.7585 155.923 92.7585 155.585C92.7585 155.247 92.8715 154.921 93.075 154.672C93.2785 154.423 93.5578 154.269 93.8578 154.24H158.568C158.868 154.269 159.147 154.423 159.35 154.672C159.554 154.921 159.667 155.247 159.667 155.585C159.667 155.923 159.554 156.249 159.35 156.498C159.147 156.747 158.868 156.901 158.568 156.93Z" fill="#263238"/>
<path d="M158.568 166.35H93.8579C93.5389 166.35 93.233 166.208 93.0075 165.954C92.782 165.701 92.6553 165.358 92.6553 165C92.6553 164.642 92.782 164.298 93.0075 164.045C93.233 163.792 93.5389 163.65 93.8579 163.65H158.568C158.887 163.65 159.193 163.792 159.418 164.045C159.644 164.298 159.77 164.642 159.77 165C159.77 165.358 159.644 165.701 159.418 165.954C159.193 166.208 158.887 166.35 158.568 166.35Z" fill="#263238"/>
<path d="M158.568 175.77H93.8579C93.5389 175.77 93.233 175.628 93.0075 175.374C92.782 175.121 92.6553 174.778 92.6553 174.42C92.6553 174.062 92.782 173.718 93.0075 173.465C93.233 173.212 93.5389 173.07 93.8579 173.07H158.568C158.887 173.07 159.193 173.212 159.418 173.465C159.644 173.718 159.77 174.062 159.77 174.42C159.77 174.778 159.644 175.121 159.418 175.374C159.193 175.628 158.887 175.77 158.568 175.77Z" fill="#263238"/>
<path d="M158.568 185.18H93.8578C93.5578 185.151 93.2785 184.997 93.075 184.748C92.8715 184.499 92.7585 184.173 92.7585 183.835C92.7585 183.497 92.8715 183.171 93.075 182.922C93.2785 182.673 93.5578 182.519 93.8578 182.49H158.568C158.868 182.519 159.147 182.673 159.35 182.922C159.554 183.171 159.667 183.497 159.667 183.835C159.667 184.173 159.554 184.499 159.35 184.748C159.147 184.997 158.868 185.151 158.568 185.18Z" fill="#263238"/>
<path d="M158.568 193.55H93.8578C93.5578 193.521 93.2785 193.367 93.075 193.117C92.8715 192.868 92.7585 192.543 92.7585 192.205C92.7585 191.867 92.8715 191.541 93.075 191.292C93.2785 191.043 93.5578 190.889 93.8578 190.86H158.568C158.868 190.889 159.147 191.043 159.35 191.292C159.554 191.541 159.667 191.867 159.667 192.205C159.667 192.543 159.554 192.868 159.35 193.117C159.147 193.367 158.868 193.521 158.568 193.55Z" fill="#263238"/>
<path d="M158.568 203H93.8579C93.5389 203 93.233 202.858 93.0075 202.604C92.782 202.351 92.6553 202.008 92.6553 201.65C92.6553 201.292 92.782 200.948 93.0075 200.695C93.233 200.442 93.5389 200.3 93.8579 200.3H158.568C158.887 200.3 159.193 200.442 159.418 200.695C159.644 200.948 159.77 201.292 159.77 201.65C159.77 202.008 159.644 202.351 159.418 202.604C159.193 202.858 158.887 203 158.568 203Z" fill="#263238"/>
<path d="M158.568 212.38H93.8578C93.5578 212.351 93.2785 212.197 93.075 211.948C92.8715 211.699 92.7585 211.373 92.7585 211.035C92.7585 210.697 92.8715 210.371 93.075 210.122C93.2785 209.873 93.5578 209.719 93.8578 209.69H158.568C158.868 209.719 159.147 209.873 159.35 210.122C159.554 210.371 159.667 210.697 159.667 211.035C159.667 211.373 159.554 211.699 159.35 211.948C159.147 212.197 158.868 212.351 158.568 212.38Z" fill="#263238"/>
<path d="M158.568 221.8H93.8579C93.5389 221.8 93.233 221.658 93.0075 221.404C92.782 221.151 92.6553 220.808 92.6553 220.45C92.6553 220.092 92.782 219.748 93.0075 219.495C93.233 219.242 93.5389 219.1 93.8579 219.1H158.568C158.887 219.1 159.193 219.242 159.418 219.495C159.644 219.748 159.77 220.092 159.77 220.45C159.77 220.808 159.644 221.151 159.418 221.404C159.193 221.658 158.887 221.8 158.568 221.8Z" fill="#263238"/>
<path d="M158.568 231.21H93.8578C93.5578 231.181 93.2785 231.027 93.075 230.778C92.8715 230.529 92.7585 230.203 92.7585 229.865C92.7585 229.527 92.8715 229.201 93.075 228.952C93.2785 228.703 93.5578 228.549 93.8578 228.52H158.568C158.868 228.549 159.147 228.703 159.35 228.952C159.554 229.201 159.667 229.527 159.667 229.865C159.667 230.203 159.554 230.529 159.35 230.778C159.147 231.027 158.868 231.181 158.568 231.21Z" fill="#263238"/>
<path d="M158.568 240.63H93.8578C93.5578 240.601 93.2785 240.447 93.075 240.198C92.8715 239.949 92.7585 239.623 92.7585 239.285C92.7585 238.947 92.8715 238.621 93.075 238.372C93.2785 238.123 93.5578 237.969 93.8578 237.94H158.568C158.868 237.969 159.147 238.123 159.35 238.372C159.554 238.621 159.667 238.947 159.667 239.285C159.667 239.623 159.554 239.949 159.35 240.198C159.147 240.447 158.868 240.601 158.568 240.63Z" fill="#263238"/>
<path d="M241.86 128.69H177.177C176.858 128.69 176.552 128.548 176.327 128.295C176.101 128.041 175.975 127.698 175.975 127.34C175.975 126.982 176.101 126.639 176.327 126.385C176.552 126.132 176.858 125.99 177.177 125.99H241.86C242.179 125.99 242.485 126.132 242.711 126.385C242.936 126.639 243.063 126.982 243.063 127.34C243.063 127.698 242.936 128.041 242.711 128.295C242.485 128.548 242.179 128.69 241.86 128.69Z" fill="#263238"/>
<path d="M241.86 138.1H177.177C177.011 138.116 176.844 138.093 176.686 138.033C176.528 137.972 176.384 137.876 176.261 137.75C176.138 137.623 176.04 137.469 175.973 137.298C175.906 137.127 175.871 136.942 175.871 136.755C175.871 136.568 175.906 136.383 175.973 136.211C176.04 136.04 176.138 135.886 176.261 135.76C176.384 135.634 176.528 135.537 176.686 135.477C176.844 135.417 177.011 135.394 177.177 135.41H241.86C242.026 135.394 242.193 135.417 242.351 135.477C242.509 135.537 242.654 135.634 242.777 135.76C242.899 135.886 242.997 136.04 243.065 136.211C243.132 136.383 243.166 136.568 243.166 136.755C243.166 136.942 243.132 137.127 243.065 137.298C242.997 137.469 242.899 137.623 242.777 137.75C242.654 137.876 242.509 137.972 242.351 138.033C242.193 138.093 242.026 138.116 241.86 138.1Z" fill="#263238"/>
<path d="M241.86 147.52H177.177C176.858 147.52 176.552 147.378 176.327 147.124C176.101 146.871 175.975 146.528 175.975 146.17C175.975 145.812 176.101 145.468 176.327 145.215C176.552 144.962 176.858 144.82 177.177 144.82H241.86C242.179 144.82 242.485 144.962 242.711 145.215C242.936 145.468 243.063 145.812 243.063 146.17C243.063 146.528 242.936 146.871 242.711 147.124C242.485 147.378 242.179 147.52 241.86 147.52Z" fill="#263238"/>
<path d="M241.86 156.93H177.177C177.011 156.946 176.844 156.923 176.686 156.863C176.528 156.803 176.384 156.706 176.261 156.58C176.138 156.453 176.04 156.3 175.973 156.128C175.906 155.957 175.871 155.772 175.871 155.585C175.871 155.398 175.906 155.213 175.973 155.042C176.04 154.871 176.138 154.717 176.261 154.59C176.384 154.464 176.528 154.367 176.686 154.307C176.844 154.247 177.011 154.224 177.177 154.24H241.86C242.026 154.224 242.193 154.247 242.351 154.307C242.509 154.367 242.654 154.464 242.777 154.59C242.899 154.717 242.997 154.871 243.065 155.042C243.132 155.213 243.166 155.398 243.166 155.585C243.166 155.772 243.132 155.957 243.065 156.128C242.997 156.3 242.899 156.453 242.777 156.58C242.654 156.706 242.509 156.803 242.351 156.863C242.193 156.923 242.026 156.946 241.86 156.93Z" fill="#263238"/>
<path d="M241.86 166.35H177.177C176.858 166.35 176.552 166.208 176.327 165.954C176.101 165.701 175.975 165.358 175.975 165C175.975 164.642 176.101 164.298 176.327 164.045C176.552 163.792 176.858 163.65 177.177 163.65H241.86C242.179 163.65 242.485 163.792 242.711 164.045C242.936 164.298 243.063 164.642 243.063 165C243.063 165.358 242.936 165.701 242.711 165.954C242.485 166.208 242.179 166.35 241.86 166.35Z" fill="#263238"/>
<path d="M241.86 175.77H177.177C177.019 175.77 176.863 175.735 176.717 175.667C176.571 175.599 176.439 175.5 176.327 175.374C176.215 175.249 176.127 175.1 176.066 174.936C176.006 174.773 175.975 174.597 175.975 174.42C175.975 174.243 176.006 174.067 176.066 173.903C176.127 173.739 176.215 173.591 176.327 173.465C176.439 173.34 176.571 173.24 176.717 173.173C176.863 173.105 177.019 173.07 177.177 173.07H241.86C242.018 173.07 242.175 173.105 242.321 173.173C242.467 173.24 242.599 173.34 242.711 173.465C242.822 173.591 242.911 173.739 242.971 173.903C243.032 174.067 243.063 174.243 243.063 174.42C243.063 174.597 243.032 174.773 242.971 174.936C242.911 175.1 242.822 175.249 242.711 175.374C242.599 175.5 242.467 175.599 242.321 175.667C242.175 175.735 242.018 175.77 241.86 175.77Z" fill="#263238"/>
<path d="M241.86 185.18H177.177C177.011 185.196 176.844 185.173 176.686 185.113C176.528 185.053 176.384 184.956 176.261 184.83C176.138 184.703 176.04 184.549 175.973 184.378C175.906 184.207 175.871 184.022 175.871 183.835C175.871 183.648 175.906 183.463 175.973 183.292C176.04 183.12 176.138 182.967 176.261 182.84C176.384 182.714 176.528 182.617 176.686 182.557C176.844 182.497 177.011 182.474 177.177 182.49H241.86C242.026 182.474 242.193 182.497 242.351 182.557C242.509 182.617 242.654 182.714 242.777 182.84C242.899 182.967 242.997 183.12 243.065 183.292C243.132 183.463 243.166 183.648 243.166 183.835C243.166 184.022 243.132 184.207 243.065 184.378C242.997 184.549 242.899 184.703 242.777 184.83C242.654 184.956 242.509 185.053 242.351 185.113C242.193 185.173 242.026 185.196 241.86 185.18Z" fill="#263238"/>
<path d="M243.027 191.51H177.106V243.12H243.027V191.51Z" fill="#219EBC"/>
<path opacity="0.6" d="M243.027 191.51H177.106V243.12H243.027V191.51Z" fill="white"/>
<path d="M116.413 131.36C116.596 130.733 116.692 130.079 116.699 129.42C116.699 127.01 114.525 126.87 112.378 126.87H111.844V126.3H121.153V126.87C118.73 126.87 117.874 128.6 117.091 131.19L112.137 147.85C111.763 149.08 111.452 150 110.285 150H110.187L105.813 134.09L101.715 147.85C101.332 149.08 101.02 150 99.853 150H99.7728L93.4123 126.87H91.1763V126.3H99.363V126.87H97.0379L101.759 145.12H101.946L105.51 132.95L103.844 126.87H101.608V126.3H109.795V126.87H107.461L112.191 145.12H112.378L116.413 131.36Z" fill="#263238"/>
<path d="M266.064 120.4H198.878V322.71H266.064V120.4Z" fill="#219EBC"/>
<path opacity="0.4" d="M266.064 120.4H198.878V322.71H266.064V120.4Z" fill="white"/>
<path d="M365.276 112.83H203.902V342.61H365.276V112.83Z" fill="white" stroke="#263238" stroke-width="0.75" stroke-linecap="round" stroke-linejoin="round"/>
<path d="M365.276 112.83H203.902V126.54H365.276V112.83Z" fill="#263238" stroke="#263238" stroke-width="0.75" stroke-linecap="round" stroke-linejoin="round"/>
<path d="M314.926 145.37H258.26V264.28H314.926V145.37Z" fill="#219EBC"/>
<path opacity="0.6" d="M314.926 145.37H258.26V264.28H314.926V145.37Z" fill="white"/>
<path d="M360.67 273.08H208.517V338.07H360.67V273.08Z" fill="#219EBC"/>
<path opacity="0.6" d="M360.67 273.08H208.517V338.07H360.67V273.08Z" fill="white"/>
<path d="M360.67 118.25H208.517V134H360.67V118.25Z" fill="#219EBC"/>
<path opacity="0.6" d="M360.67 118.25H208.517V134H360.67V118.25Z" fill="white"/>
<path d="M358.532 121.31H211.251V128.28H358.532V121.31Z" fill="white"/>
<path d="M358.523 121.31H341.847V128.28H358.523V121.31Z" fill="#263238" stroke="#263238" stroke-width="0.75" stroke-linecap="round" stroke-linejoin="round"/>
<path d="M248.737 148.11H209.906C209.74 148.126 209.573 148.103 209.415 148.043C209.257 147.982 209.113 147.886 208.99 147.76C208.867 147.633 208.769 147.479 208.702 147.308C208.635 147.137 208.6 146.952 208.6 146.765C208.6 146.578 208.635 146.393 208.702 146.221C208.769 146.05 208.867 145.896 208.99 145.77C209.113 145.644 209.257 145.547 209.415 145.487C209.573 145.427 209.74 145.404 209.906 145.42H248.737C248.903 145.404 249.071 145.427 249.228 145.487C249.386 145.547 249.531 145.644 249.654 145.77C249.777 145.896 249.875 146.05 249.942 146.221C250.009 146.393 250.043 146.578 250.043 146.765C250.043 146.952 250.009 147.137 249.942 147.308C249.875 147.479 249.777 147.633 249.654 147.76C249.531 147.886 249.386 147.982 249.228 148.043C249.071 148.103 248.903 148.126 248.737 148.11Z" fill="#263238"/>
<path d="M248.737 157.53H209.906C209.587 157.53 209.281 157.388 209.056 157.135C208.83 156.881 208.704 156.538 208.704 156.18C208.704 155.822 208.83 155.479 209.056 155.225C209.281 154.972 209.587 154.83 209.906 154.83H248.737C249.056 154.83 249.362 154.972 249.588 155.225C249.813 155.479 249.94 155.822 249.94 156.18C249.94 156.538 249.813 156.881 249.588 157.135C249.362 157.388 249.056 157.53 248.737 157.53Z" fill="#263238"/>
<path d="M248.737 166.94H209.906C209.74 166.956 209.573 166.933 209.415 166.873C209.257 166.813 209.113 166.716 208.99 166.59C208.867 166.463 208.769 166.31 208.702 166.138C208.635 165.967 208.6 165.782 208.6 165.595C208.6 165.408 208.635 165.223 208.702 165.052C208.769 164.88 208.867 164.727 208.99 164.6C209.113 164.474 209.257 164.377 209.415 164.317C209.573 164.257 209.74 164.234 209.906 164.25H248.737C248.903 164.234 249.071 164.257 249.228 164.317C249.386 164.377 249.531 164.474 249.654 164.6C249.777 164.727 249.875 164.88 249.942 165.052C250.009 165.223 250.043 165.408 250.043 165.595C250.043 165.782 250.009 165.967 249.942 166.138C249.875 166.31 249.777 166.463 249.654 166.59C249.531 166.716 249.386 166.813 249.228 166.873C249.071 166.933 248.903 166.956 248.737 166.94Z" fill="#263238"/>
<path d="M248.737 176.36H209.906C209.748 176.36 209.592 176.325 209.446 176.257C209.3 176.189 209.168 176.09 209.056 175.964C208.944 175.839 208.856 175.69 208.795 175.527C208.735 175.363 208.704 175.187 208.704 175.01C208.704 174.833 208.735 174.657 208.795 174.493C208.856 174.329 208.944 174.181 209.056 174.055C209.168 173.93 209.3 173.831 209.446 173.763C209.592 173.695 209.748 173.66 209.906 173.66H248.737C249.056 173.66 249.362 173.802 249.588 174.055C249.813 174.308 249.94 174.652 249.94 175.01C249.94 175.368 249.813 175.711 249.588 175.964C249.362 176.218 249.056 176.36 248.737 176.36Z" fill="#263238"/>
<path d="M248.737 185.77H209.906C209.74 185.786 209.573 185.763 209.415 185.703C209.257 185.642 209.113 185.546 208.99 185.42C208.867 185.293 208.769 185.139 208.702 184.968C208.635 184.797 208.6 184.612 208.6 184.425C208.6 184.238 208.635 184.053 208.702 183.881C208.769 183.71 208.867 183.556 208.99 183.43C209.113 183.303 209.257 183.207 209.415 183.147C209.573 183.086 209.74 183.064 209.906 183.08H248.737C248.903 183.064 249.071 183.086 249.228 183.147C249.386 183.207 249.531 183.303 249.654 183.43C249.777 183.556 249.875 183.71 249.942 183.881C250.009 184.053 250.043 184.238 250.043 184.425C250.043 184.612 250.009 184.797 249.942 184.968C249.875 185.139 249.777 185.293 249.654 185.42C249.531 185.546 249.386 185.642 249.228 185.703C249.071 185.763 248.903 185.786 248.737 185.77Z" fill="#263238"/>
<path d="M248.737 195.19H209.906C209.74 195.206 209.573 195.183 209.415 195.123C209.257 195.063 209.113 194.966 208.99 194.84C208.867 194.713 208.769 194.56 208.702 194.388C208.635 194.217 208.6 194.032 208.6 193.845C208.6 193.658 208.635 193.473 208.702 193.302C208.769 193.13 208.867 192.977 208.99 192.85C209.113 192.724 209.257 192.627 209.415 192.567C209.573 192.507 209.74 192.484 209.906 192.5H248.737C248.903 192.484 249.071 192.507 249.228 192.567C249.386 192.627 249.531 192.724 249.654 192.85C249.777 192.977 249.875 193.13 249.942 193.302C250.009 193.473 250.043 193.658 250.043 193.845C250.043 194.032 250.009 194.217 249.942 194.388C249.875 194.56 249.777 194.713 249.654 194.84C249.531 194.966 249.386 195.063 249.228 195.123C249.071 195.183 248.903 195.206 248.737 195.19Z" fill="#263238"/>
<path d="M248.737 204.61H209.906C209.748 204.61 209.592 204.575 209.446 204.507C209.3 204.439 209.168 204.34 209.056 204.215C208.944 204.089 208.856 203.94 208.795 203.777C208.735 203.613 208.704 203.437 208.704 203.26C208.704 203.083 208.735 202.907 208.795 202.743C208.856 202.579 208.944 202.431 209.056 202.305C209.168 202.18 209.3 202.081 209.446 202.013C209.592 201.945 209.748 201.91 209.906 201.91H248.737C249.056 201.91 249.362 202.052 249.588 202.305C249.813 202.558 249.94 202.902 249.94 203.26C249.94 203.618 249.813 203.961 249.588 204.215C249.362 204.468 249.056 204.61 248.737 204.61Z" fill="#263238"/>
<path d="M248.737 213H209.906C209.587 213 209.281 212.858 209.056 212.605C208.83 212.351 208.704 212.008 208.704 211.65C208.704 211.292 208.83 210.949 209.056 210.695C209.281 210.442 209.587 210.3 209.906 210.3H248.737C249.056 210.3 249.362 210.442 249.588 210.695C249.813 210.949 249.94 211.292 249.94 211.65C249.94 212.008 249.813 212.351 249.588 212.605C249.362 212.858 249.056 213 248.737 213Z" fill="#263238"/>
<path d="M248.737 222.39H209.906C209.74 222.406 209.573 222.383 209.415 222.323C209.257 222.263 209.113 222.166 208.99 222.04C208.867 221.913 208.769 221.759 208.702 221.588C208.635 221.417 208.6 221.232 208.6 221.045C208.6 220.858 208.635 220.673 208.702 220.501C208.769 220.33 208.867 220.177 208.99 220.05C209.113 219.924 209.257 219.827 209.415 219.767C209.573 219.707 209.74 219.684 209.906 219.7H248.737C248.903 219.684 249.071 219.707 249.228 219.767C249.386 219.827 249.531 219.924 249.654 220.05C249.777 220.177 249.875 220.33 249.942 220.501C250.009 220.673 250.043 220.858 250.043 221.045C250.043 221.232 250.009 221.417 249.942 221.588C249.875 221.759 249.777 221.913 249.654 222.04C249.531 222.166 249.386 222.263 249.228 222.323C249.071 222.383 248.903 222.406 248.737 222.39Z" fill="#263238"/>
<path d="M248.737 231.81H209.906C209.587 231.81 209.281 231.668 209.056 231.415C208.83 231.162 208.704 230.818 208.704 230.46C208.704 230.102 208.83 229.759 209.056 229.506C209.281 229.252 209.587 229.11 209.906 229.11H248.737C249.056 229.11 249.362 229.252 249.588 229.506C249.813 229.759 249.94 230.102 249.94 230.46C249.94 230.818 249.813 231.162 249.588 231.415C249.362 231.668 249.056 231.81 248.737 231.81Z" fill="#263238"/>
<path d="M248.737 241.22H209.906C209.74 241.236 209.573 241.213 209.415 241.153C209.257 241.093 209.113 240.996 208.99 240.87C208.867 240.743 208.769 240.59 208.702 240.418C208.635 240.247 208.6 240.062 208.6 239.875C208.6 239.688 208.635 239.503 208.702 239.332C208.769 239.16 208.867 239.007 208.99 238.88C209.113 238.754 209.257 238.657 209.415 238.597C209.573 238.537 209.74 238.514 209.906 238.53H248.737C248.903 238.514 249.071 238.537 249.228 238.597C249.386 238.657 249.531 238.754 249.654 238.88C249.777 239.007 249.875 239.16 249.942 239.332C250.009 239.503 250.043 239.688 250.043 239.875C250.043 240.062 250.009 240.247 249.942 240.418C249.875 240.59 249.777 240.743 249.654 240.87C249.531 240.996 249.386 241.093 249.228 241.153C249.071 241.213 248.903 241.236 248.737 241.22Z" fill="#263238"/>
<path d="M248.737 250.64H209.906C209.587 250.64 209.281 250.498 209.056 250.245C208.83 249.991 208.704 249.648 208.704 249.29C208.704 248.932 208.83 248.589 209.056 248.335C209.281 248.082 209.587 247.94 209.906 247.94H248.737C249.056 247.94 249.362 248.082 249.588 248.335C249.813 248.589 249.94 248.932 249.94 249.29C249.94 249.648 249.813 249.991 249.588 250.245C249.362 250.498 249.056 250.64 248.737 250.64Z" fill="#263238"/>
<path d="M248.737 260.05H209.906C209.74 260.066 209.573 260.043 209.415 259.983C209.257 259.923 209.113 259.826 208.99 259.7C208.867 259.573 208.769 259.419 208.702 259.248C208.635 259.077 208.6 258.892 208.6 258.705C208.6 258.518 208.635 258.333 208.702 258.161C208.769 257.99 208.867 257.836 208.99 257.71C209.113 257.583 209.257 257.487 209.415 257.427C209.573 257.366 209.74 257.344 209.906 257.36H248.737C248.903 257.344 249.071 257.366 249.228 257.427C249.386 257.487 249.531 257.583 249.654 257.71C249.777 257.836 249.875 257.99 249.942 258.161C250.009 258.333 250.043 258.518 250.043 258.705C250.043 258.892 250.009 259.077 249.942 259.248C249.875 259.419 249.777 259.573 249.654 259.7C249.531 259.826 249.386 259.923 249.228 259.983C249.071 260.043 248.903 260.066 248.737 260.05Z" fill="#263238"/>
<path d="M248.737 269.47H209.906C209.74 269.486 209.573 269.463 209.415 269.403C209.257 269.343 209.113 269.246 208.99 269.12C208.867 268.993 208.769 268.839 208.702 268.668C208.635 268.497 208.6 268.312 208.6 268.125C208.6 267.938 208.635 267.753 208.702 267.582C208.769 267.41 208.867 267.257 208.99 267.13C209.113 267.004 209.257 266.907 209.415 266.847C209.573 266.787 209.74 266.764 209.906 266.78H248.737C248.903 266.764 249.071 266.787 249.228 266.847C249.386 266.907 249.531 267.004 249.654 267.13C249.777 267.257 249.875 267.41 249.942 267.582C250.009 267.753 250.043 267.938 250.043 268.125C250.043 268.312 250.009 268.497 249.942 268.668C249.875 268.839 249.777 268.993 249.654 269.12C249.531 269.246 249.386 269.343 249.228 269.403C249.071 269.463 248.903 269.486 248.737 269.47Z" fill="#263238"/>
<path d="M360.376 148.11H321.589C321.423 148.126 321.256 148.103 321.099 148.043C320.941 147.982 320.796 147.886 320.673 147.76C320.55 147.633 320.452 147.479 320.385 147.308C320.318 147.137 320.283 146.952 320.283 146.765C320.283 146.578 320.318 146.393 320.385 146.221C320.452 146.05 320.55 145.896 320.673 145.77C320.796 145.644 320.941 145.547 321.099 145.487C321.256 145.427 321.423 145.404 321.589 145.42H360.421C360.587 145.404 360.754 145.427 360.912 145.487C361.069 145.547 361.214 145.644 361.337 145.77C361.46 145.896 361.558 146.05 361.625 146.221C361.692 146.393 361.727 146.578 361.727 146.765C361.727 146.952 361.692 147.137 361.625 147.308C361.558 147.479 361.46 147.633 361.337 147.76C361.214 147.886 361.069 147.982 360.912 148.043C360.754 148.103 360.587 148.126 360.421 148.11H360.376Z" fill="#263238"/>
<path d="M360.376 157.53H321.59C321.432 157.53 321.275 157.495 321.129 157.427C320.983 157.359 320.851 157.26 320.739 157.135C320.628 157.009 320.539 156.86 320.479 156.697C320.418 156.533 320.387 156.357 320.387 156.18C320.387 156.003 320.418 155.827 320.479 155.663C320.539 155.5 320.628 155.351 320.739 155.225C320.851 155.1 320.983 155.001 321.129 154.933C321.275 154.865 321.432 154.83 321.59 154.83H360.421C360.74 154.83 361.046 154.972 361.271 155.225C361.497 155.479 361.623 155.822 361.623 156.18C361.623 156.538 361.497 156.881 361.271 157.135C361.046 157.388 360.74 157.53 360.421 157.53H360.376Z" fill="#263238"/>
<path d="M360.376 166.94H321.589C321.423 166.956 321.256 166.933 321.099 166.873C320.941 166.813 320.796 166.716 320.673 166.59C320.55 166.463 320.452 166.31 320.385 166.138C320.318 165.967 320.283 165.782 320.283 165.595C320.283 165.408 320.318 165.223 320.385 165.052C320.452 164.88 320.55 164.727 320.673 164.6C320.796 164.474 320.941 164.377 321.099 164.317C321.256 164.257 321.423 164.234 321.589 164.25H360.421C360.587 164.234 360.754 164.257 360.912 164.317C361.069 164.377 361.214 164.474 361.337 164.6C361.46 164.727 361.558 164.88 361.625 165.052C361.692 165.223 361.727 165.408 361.727 165.595C361.727 165.782 361.692 165.967 361.625 166.138C361.558 166.31 361.46 166.463 361.337 166.59C361.214 166.716 361.069 166.813 360.912 166.873C360.754 166.933 360.587 166.956 360.421 166.94H360.376Z" fill="#263238"/>
<path d="M360.376 176.36H321.59C321.432 176.36 321.275 176.325 321.129 176.257C320.983 176.189 320.851 176.09 320.739 175.964C320.628 175.839 320.539 175.69 320.479 175.527C320.418 175.363 320.387 175.187 320.387 175.01C320.387 174.833 320.418 174.657 320.479 174.493C320.539 174.329 320.628 174.181 320.739 174.055C320.851 173.93 320.983 173.831 321.129 173.763C321.275 173.695 321.432 173.66 321.59 173.66H360.421C360.74 173.66 361.046 173.802 361.271 174.055C361.497 174.308 361.623 174.652 361.623 175.01C361.623 175.368 361.497 175.711 361.271 175.964C361.046 176.218 360.74 176.36 360.421 176.36H360.376Z" fill="#263238"/>
<path d="M360.376 185.77H321.589C321.423 185.786 321.256 185.763 321.099 185.703C320.941 185.642 320.796 185.546 320.673 185.42C320.55 185.293 320.452 185.139 320.385 184.968C320.318 184.797 320.283 184.612 320.283 184.425C320.283 184.238 320.318 184.053 320.385 183.881C320.452 183.71 320.55 183.556 320.673 183.43C320.796 183.303 320.941 183.207 321.099 183.147C321.256 183.086 321.423 183.064 321.589 183.08H360.421C360.587 183.064 360.754 183.086 360.912 183.147C361.069 183.207 361.214 183.303 361.337 183.43C361.46 183.556 361.558 183.71 361.625 183.881C361.692 184.053 361.727 184.238 361.727 184.425C361.727 184.612 361.692 184.797 361.625 184.968C361.558 185.139 361.46 185.293 361.337 185.42C361.214 185.546 361.069 185.642 360.912 185.703C360.754 185.763 360.587 185.786 360.421 185.77H360.376Z" fill="#263238"/>
<path d="M360.376 195.19H321.589C321.423 195.206 321.256 195.183 321.099 195.123C320.941 195.063 320.796 194.966 320.673 194.84C320.55 194.713 320.452 194.56 320.385 194.388C320.318 194.217 320.283 194.032 320.283 193.845C320.283 193.658 320.318 193.473 320.385 193.302C320.452 193.13 320.55 192.977 320.673 192.85C320.796 192.724 320.941 192.627 321.099 192.567C321.256 192.507 321.423 192.484 321.589 192.5H360.421C360.587 192.484 360.754 192.507 360.912 192.567C361.069 192.627 361.214 192.724 361.337 192.85C361.46 192.977 361.558 193.13 361.625 193.302C361.692 193.473 361.727 193.658 361.727 193.845C361.727 194.032 361.692 194.217 361.625 194.388C361.558 194.56 361.46 194.713 361.337 194.84C361.214 194.966 361.069 195.063 360.912 195.123C360.754 195.183 360.587 195.206 360.421 195.19H360.376Z" fill="#263238"/>
<path d="M360.376 204.61H321.59C321.432 204.61 321.275 204.575 321.129 204.507C320.983 204.439 320.851 204.34 320.739 204.215C320.628 204.089 320.539 203.94 320.479 203.777C320.418 203.613 320.387 203.437 320.387 203.26C320.387 203.083 320.418 202.907 320.479 202.743C320.539 202.579 320.628 202.431 320.739 202.305C320.851 202.18 320.983 202.081 321.129 202.013C321.275 201.945 321.432 201.91 321.59 201.91H360.421C360.74 201.91 361.046 202.052 361.271 202.305C361.497 202.558 361.623 202.902 361.623 203.26C361.623 203.618 361.497 203.961 361.271 204.215C361.046 204.468 360.74 204.61 360.421 204.61H360.376Z" fill="#263238"/>
<path d="M360.697 210.93H320.618V262.54H360.697V210.93Z" fill="#219EBC"/>
<path opacity="0.6" d="M360.697 210.93H320.618V262.54H360.697V210.93Z" fill="white"/>
<path d="M380.678 304.39C380.438 294.23 381.142 276.89 373.195 269.75C366.22 263.48 360.795 271.99 358.844 278.85C354.096 295.5 354.604 358.16 355.833 370.78C355.833 370.78 354.622 358.14 345.776 363.56C336.93 368.98 350.23 397.43 350.23 397.43C350.23 397.43 339.771 388.85 334.943 396.07C330.115 403.29 340.983 411.43 340.983 411.43C340.983 411.43 330.926 408.27 330.926 411.43C330.926 414.59 334.141 417.3 343.397 418.66H393.284C393.284 418.66 401.301 413.66 399.724 408.27C398.147 402.88 389.631 406 389.631 406C389.631 406 402.504 388.39 401.693 380.71C400.882 373.03 384.393 382.06 384.393 382.06C384.393 382.06 397.274 345.48 394.86 329.22C392.954 316.41 384.099 325.22 379.28 330.1C380.413 321.592 380.881 312.99 380.678 304.39Z" fill="#219EBC"/>
<path opacity="0.1" d="M380.678 304.39C380.438 294.23 381.142 276.89 373.195 269.75C366.22 263.48 360.795 271.99 358.844 278.85C354.096 295.5 354.604 358.16 355.833 370.78C355.833 370.78 354.622 358.14 345.776 363.56C336.93 368.98 350.23 397.43 350.23 397.43C350.23 397.43 339.771 388.85 334.943 396.07C330.115 403.29 340.983 411.43 340.983 411.43C340.983 411.43 330.926 408.27 330.926 411.43C330.926 414.59 334.141 417.3 343.397 418.66H393.284C393.284 418.66 401.301 413.66 399.724 408.27C398.147 402.88 389.631 406 389.631 406C389.631 406 402.504 388.39 401.693 380.71C400.882 373.03 384.393 382.06 384.393 382.06C384.393 382.06 397.274 345.48 394.86 329.22C392.954 316.41 384.099 325.22 379.28 330.1C380.413 321.592 380.881 312.99 380.678 304.39Z" fill="black"/>
<path d="M364.635 417.45L368.305 294" stroke="#219EBC" stroke-width="1.72695" stroke-linecap="round" stroke-linejoin="round"/>
<path d="M366.692 366.27L385.605 346.39" stroke="#219EBC" stroke-width="1.72695" stroke-linecap="round" stroke-linejoin="round"/>
<path d="M375.547 357.23L379.565 344.59" stroke="#219EBC" stroke-width="1.72695" stroke-linecap="round" stroke-linejoin="round"/>
<path d="M351.005 381.62L365.214 398.63" stroke="#219EBC" stroke-width="1.72695" stroke-linecap="round" stroke-linejoin="round"/>
<path d="M389.631 391.56L365.49 405.56" stroke="#219EBC" stroke-width="1.72695" stroke-linecap="round" stroke-linejoin="round"/>
<path d="M377.462 398.46L385.605 399.24" stroke="#219EBC" stroke-width="1.72695" stroke-linecap="round" stroke-linejoin="round"/>
<path d="M199.181 419.14C199.181 422.86 167.601 425.88 128.654 425.88C89.7065 425.88 58.1177 422.88 58.1177 419.14C58.1177 415.4 89.6976 412.4 128.654 412.4C167.61 412.4 199.181 415.42 199.181 419.14Z" fill="#263238"/>
<path d="M93.5369 295.35C93.5369 295.35 98.9888 292.25 101.358 294.91C103.728 297.57 102.775 326.03 103.487 335.07C103.919 340.462 104.805 345.796 106.133 351C106.133 351 98.3118 349.41 92.3878 346C92.3878 346 87.1764 317.6 93.5369 295.35Z" fill="#263238" stroke="#263238" stroke-width="0.75" stroke-linecap="round" stroke-linejoin="round"/>
<path d="M202.085 359.8C201.444 359.799 200.822 359.555 200.32 359.108C199.818 358.66 199.465 358.035 199.32 357.334C199.174 356.633 199.244 355.898 199.518 355.247C199.792 354.596 200.254 354.069 200.829 353.75L226.583 340.75L246.573 314.94C247.058 314.293 247.753 313.889 248.504 313.817C249.255 313.744 250.001 314.01 250.577 314.555C251.154 315.1 251.514 315.88 251.578 316.723C251.642 317.566 251.406 318.403 250.92 319.05L230.547 345.37C230.303 345.706 229.999 345.982 229.656 346.18L203.359 359.47C202.964 359.694 202.527 359.808 202.085 359.8Z" fill="white" stroke="#263238" stroke-width="0.75" stroke-linecap="round" stroke-linejoin="round"/>
<path d="M219.696 348.53L222.52 347.09" stroke="#263238" stroke-width="0.75" stroke-linecap="round" stroke-linejoin="round"/>
<path d="M206.672 355.18L217.834 349.48" stroke="#263238" stroke-width="0.75" stroke-linecap="round" stroke-linejoin="round"/>
<path d="M244.844 323.37L237.406 332.81" stroke="#263238" stroke-width="0.75" stroke-linecap="round" stroke-linejoin="round"/>
<path d="M236.203 334.16L234.52 336.31" stroke="#263238" stroke-width="0.75" stroke-linecap="round" stroke-linejoin="round"/>
<path d="M205.514 371.266C208.665 356.352 200.448 341.394 187.162 337.858C173.876 334.322 160.551 343.545 157.401 358.46C154.251 373.374 162.467 388.331 175.753 391.868C189.04 395.404 202.364 386.18 205.514 371.266Z" fill="#219EBC" stroke="#263238" stroke-width="0.747671" stroke-linecap="round" stroke-linejoin="round"/>
<path d="M119.665 262.14C119.665 262.14 123.228 271.52 123.977 273.35C124.725 275.18 125.438 275.68 125.268 276.26C125.099 276.84 123.282 277.51 123.282 277.51C123.534 280.396 123.088 283.305 121.99 285.93C120.208 289.93 116.734 292.02 116.396 294.53C116.196 296.944 116.166 299.371 116.307 301.79L111.051 296.95C111.051 296.95 112.512 292.21 111.22 288.73C110.125 285.882 108.173 283.557 105.706 282.16C102.634 279.897 100.448 276.402 99.5946 272.39C98.8195 267.74 101.225 262.81 104.414 259.33C107.603 255.85 113.892 256.53 114.587 256.82C115.282 257.11 112.859 254.82 115.015 254.3C117.171 253.78 118.462 257.3 118.578 257.88C118.694 258.46 119.353 255.37 120.048 257.4C120.743 259.43 119.665 262.14 119.665 262.14Z" fill="white"/>
<g style="mix-blend-mode:multiply" opacity="0.5">
<path d="M113.242 299C113.211 298.329 113.143 297.661 113.037 297C112.69 295.24 114.819 289.76 115.478 283.31C116.137 276.86 111.639 267.85 111.639 267.85L108.343 257.12C106.879 257.472 105.524 258.252 104.414 259.38C101.225 262.86 98.8195 267.79 99.5946 272.44C100.448 276.452 102.634 279.947 105.706 282.21C108.173 283.606 110.125 285.932 111.22 288.78C112.512 292.26 111.051 297 111.051 297L113.242 299Z" fill="#219EBC"/>
</g>
<path d="M119.665 262.14C119.665 262.14 123.228 271.52 123.977 273.35C124.725 275.18 125.438 275.68 125.268 276.26C125.099 276.84 123.282 277.51 123.282 277.51C123.534 280.396 123.088 283.305 121.99 285.93C120.208 289.93 116.734 292.02 116.396 294.53C116.196 296.944 116.166 299.371 116.307 301.79L111.051 296.95C111.051 296.95 112.512 292.21 111.22 288.73C110.125 285.882 108.173 283.557 105.706 282.16C102.634 279.897 100.448 276.402 99.5946 272.39C98.8195 267.74 101.225 262.81 104.414 259.33C107.603 255.85 113.892 256.53 114.587 256.82C115.282 257.11 112.859 254.82 115.015 254.3C117.171 253.78 118.462 257.3 118.578 257.88C118.694 258.46 119.353 255.37 120.048 257.4C120.743 259.43 119.665 262.14 119.665 262.14Z" stroke="#263238" stroke-width="0.75" stroke-linecap="round" stroke-linejoin="round"/>
<path d="M120.004 267.13C120.004 267.13 118.445 266.65 117.928 268.13C117.766 268.469 117.674 268.845 117.66 269.23C117.646 269.614 117.71 269.997 117.848 270.35" stroke="#263238" stroke-width="0.75" stroke-linecap="round" stroke-linejoin="round"/>
<path d="M121.821 281.87C121.821 281.87 120.271 282.74 119.318 281.58" stroke="#263238" stroke-width="0.75" stroke-linecap="round" stroke-linejoin="round"/>
<path d="M118.783 273.76L111.603 277.25" stroke="#263238" stroke-width="0.75" stroke-linecap="round" stroke-linejoin="round"/>
<path d="M108.601 281.49C107.632 283.093 107.179 285.019 107.318 286.95C107.532 290.25 107.461 294.75 105.955 294.35C104.45 293.95 106.668 288.88 106.668 286.79C106.579 285.197 106.254 283.633 105.706 282.16" stroke="#263238" stroke-width="0.75" stroke-linecap="round" stroke-linejoin="round"/>
<path d="M124.021 271.22L122.329 272.04" stroke="#263238" stroke-width="0.75" stroke-linecap="round" stroke-linejoin="round"/>
<path d="M121.251 273.1C121.473 273.95 121.473 274.7 121.251 274.77C121.028 274.84 120.672 274.21 120.449 273.36C120.226 272.51 120.235 271.76 120.449 271.68C120.663 271.6 121.037 272.24 121.251 273.1Z" fill="#263238"/>
<path d="M122.15 273.1C122.747 275.1 122.596 276.95 121.812 277.25C121.028 277.55 119.905 276.16 119.309 274.17C118.712 272.18 118.863 270.31 119.647 270.01C120.431 269.71 121.553 271.1 122.15 273.1Z" stroke="#263238" stroke-width="0.75" stroke-linecap="round" stroke-linejoin="round"/>
<path d="M110.249 280.85C110.249 280.85 108.833 278.93 110.106 279.09C110.506 279.183 110.877 279.395 111.178 279.705C111.479 280.015 111.7 280.411 111.817 280.85" stroke="#263238" stroke-width="0.5" stroke-linecap="round" stroke-linejoin="round"/>
<path d="M150.078 313.68L145.081 317.65L145.856 322.29L151.548 319.78L150.078 313.68Z" fill="white" stroke="#263238" stroke-width="0.75" stroke-linecap="round" stroke-linejoin="round"/>
<path d="M145.597 316.49L147.842 325.87C147.842 325.87 132.733 333.61 129.749 336C126.765 338.39 124.404 337.74 124.404 337.74L122.427 326.9C122.427 326.9 124.573 328.06 129.143 325.84C133.713 323.62 145.597 316.49 145.597 316.49Z" fill="white" stroke="#263238" stroke-width="0.75" stroke-linecap="round" stroke-linejoin="round"/>
<path d="M153.018 340.9C152.714 340.864 152.432 340.707 152.223 340.458C152.013 340.208 151.891 339.882 151.878 339.54L149.882 302.43C149.862 302.234 149.878 302.035 149.929 301.846C149.98 301.657 150.065 301.481 150.179 301.331C150.294 301.18 150.434 301.058 150.592 300.971C150.75 300.884 150.922 300.835 151.098 300.826C151.274 300.817 151.45 300.849 151.614 300.919C151.779 300.99 151.928 301.097 152.054 301.236C152.18 301.374 152.279 301.54 152.345 301.723C152.411 301.906 152.443 302.102 152.439 302.3L154.434 339.4C154.443 339.589 154.418 339.778 154.361 339.957C154.304 340.135 154.216 340.299 154.103 340.439C153.99 340.579 153.853 340.693 153.7 340.774C153.548 340.855 153.382 340.901 153.214 340.91L153.018 340.9Z" fill="#263238" stroke="#263238" stroke-width="0.75" stroke-linecap="round" stroke-linejoin="round"/>
<path d="M149.214 312.8C148.896 312.785 148.595 312.638 148.369 312.388C148.142 312.138 148.007 311.803 147.988 311.447C147.969 311.091 148.068 310.74 148.267 310.461C148.465 310.183 148.749 309.997 149.062 309.94L154.06 309.26C154.233 309.221 154.412 309.222 154.585 309.264C154.758 309.306 154.921 309.387 155.064 309.503C155.208 309.619 155.328 309.767 155.418 309.938C155.508 310.109 155.566 310.299 155.587 310.496C155.609 310.693 155.594 310.893 155.543 311.083C155.493 311.273 155.408 311.45 155.294 311.601C155.18 311.753 155.039 311.876 154.88 311.964C154.721 312.051 154.548 312.101 154.372 312.11L149.374 312.79L149.214 312.8Z" fill="white" stroke="#263238" stroke-width="0.75" stroke-linecap="round" stroke-linejoin="round"/>
<path d="M149.472 315.7C149.155 315.685 148.854 315.538 148.627 315.288C148.401 315.038 148.265 314.703 148.246 314.347C148.227 313.991 148.327 313.64 148.525 313.362C148.724 313.083 149.007 312.897 149.321 312.84L154.318 312.16C154.656 312.118 154.994 312.226 155.261 312.462C155.528 312.698 155.701 313.042 155.744 313.42C155.763 313.607 155.75 313.796 155.705 313.976C155.66 314.157 155.584 314.326 155.48 314.474C155.377 314.622 155.248 314.745 155.103 314.837C154.957 314.929 154.796 314.988 154.63 315.01L149.632 315.69L149.472 315.7Z" fill="white" stroke="#263238" stroke-width="0.75" stroke-linecap="round" stroke-linejoin="round"/>
<path d="M149.748 318.34C149.436 318.339 149.135 318.203 148.908 317.962C148.681 317.72 148.544 317.391 148.526 317.04C148.508 316.69 148.61 316.344 148.81 316.075C149.011 315.806 149.295 315.632 149.606 315.59L154.39 314.94C154.551 314.916 154.715 314.928 154.872 314.976C155.029 315.023 155.176 315.105 155.305 315.217C155.433 315.329 155.541 315.469 155.621 315.628C155.701 315.786 155.752 315.962 155.772 316.143C155.791 316.324 155.778 316.508 155.734 316.684C155.69 316.86 155.615 317.024 155.514 317.167C155.412 317.31 155.287 317.429 155.144 317.517C155.002 317.605 154.845 317.66 154.684 317.68L149.9 318.33L149.748 318.34Z" fill="white" stroke="#263238" stroke-width="0.75" stroke-linecap="round" stroke-linejoin="round"/>
<path d="M150.55 320.87C150.304 320.842 150.075 320.712 149.91 320.505C149.745 320.297 149.656 320.028 149.659 319.75C149.61 319.45 149.659 319.141 149.798 318.879C149.938 318.618 150.158 318.422 150.416 318.33L153.802 317.72C154.283 317.65 154.692 318.14 154.764 318.84C154.817 319.14 154.77 319.452 154.63 319.714C154.49 319.977 154.267 320.171 154.006 320.26L150.63 320.86L150.55 320.87Z" fill="white" stroke="#263238" stroke-width="0.75" stroke-linecap="round" stroke-linejoin="round"/>
<path d="M148.715 316.3C148.7 316.573 148.597 316.831 148.425 317.024C148.252 317.218 148.023 317.334 147.78 317.35C147.516 317.431 147.235 317.4 146.99 317.264C146.746 317.128 146.554 316.895 146.452 316.61L145.668 312.87C145.561 312.34 145.962 311.82 146.559 311.7C146.822 311.624 147.099 311.657 147.342 311.793C147.584 311.929 147.774 312.159 147.878 312.44L148.67 316.19C148.67 316.19 148.706 316.26 148.715 316.3Z" fill="white" stroke="#263238" stroke-width="0.75" stroke-linecap="round" stroke-linejoin="round"/>
<path d="M109.153 294.05C109.153 294.05 115.273 298.21 118.115 303.43C120.957 308.65 123.371 316.43 124.752 323.26C126.132 330.09 127.246 347.92 128.11 351.6C128.528 353.553 129.166 355.438 130.007 357.21C125.021 359.288 119.726 360.273 114.409 360.11C105.964 359.72 104.672 357.4 104.672 357.4C104.672 357.4 101.831 336.32 102.089 319.58C102.347 302.84 109.153 294.05 109.153 294.05Z" fill="white"/>
<g style="mix-blend-mode:multiply" opacity="0.5">
<path d="M105.545 313C105.545 313 104.654 314.57 105.367 310.46C105.944 307.585 106.883 304.817 108.155 302.24L112.333 307.52L114.952 307.72L114.258 309.09L119.309 312.61L116.912 309.44L117.082 304.6L113.037 306C113.037 306 110.418 300.72 109.723 299C109.26 297.82 110.81 296.82 111.897 296.29C111.016 295.52 110.1 294.803 109.153 294.14C109.153 294.14 102.347 302.94 102.089 319.67C101.884 332.94 103.63 348.93 104.36 354.99L117.723 354.16L105.545 313Z" fill="#219EBC"/>
</g>
<path d="M109.153 294.05C109.153 294.05 115.273 298.21 118.115 303.43C120.957 308.65 123.371 316.43 124.752 323.26C126.132 330.09 127.246 347.92 128.11 351.6C128.528 353.553 129.166 355.438 130.007 357.21C125.021 359.288 119.726 360.273 114.409 360.11C105.964 359.72 104.672 357.4 104.672 357.4C104.672 357.4 101.831 336.32 102.089 319.58C102.347 302.84 109.153 294.05 109.153 294.05Z" stroke="#263238" stroke-width="0.75" stroke-linecap="round" stroke-linejoin="round"/>
<path d="M107.345 297.44L113.723 306.04L117.081 304.59L116.912 309.43L121.99 316.3" stroke="#263238" stroke-width="0.75" stroke-linecap="round" stroke-linejoin="round"/>
<path d="M103.425 315.67C103.425 315.67 104.138 323.67 106.267 325.57" stroke="#263238" stroke-width="0.5" stroke-linecap="round" stroke-linejoin="round"/>
<path d="M103.853 324.3C103.853 324.3 104.744 327.3 106.98 328.3" stroke="#263238" stroke-width="0.5" stroke-linecap="round" stroke-linejoin="round"/>
<path d="M122.347 319.98L118.65 321.58L119.22 323.34L122.632 321.9" stroke="#263238" stroke-width="0.5" stroke-linecap="round" stroke-linejoin="round"/>
<path d="M147.281 350.11C146.975 350.109 146.68 349.986 146.448 349.762C146.216 349.538 146.063 349.229 146.016 348.89L141.401 315.25C141.376 315.063 141.384 314.872 141.425 314.688C141.465 314.505 141.538 314.332 141.638 314.179C141.738 314.027 141.864 313.898 142.008 313.801C142.152 313.703 142.313 313.638 142.479 313.61C142.646 313.582 142.816 313.591 142.98 313.636C143.143 313.682 143.297 313.763 143.433 313.875C143.569 313.988 143.683 314.129 143.77 314.291C143.857 314.453 143.915 314.633 143.94 314.82L148.555 348.46C148.603 348.837 148.517 349.221 148.316 349.528C148.114 349.835 147.813 350.041 147.477 350.1L147.281 350.11Z" fill="#263238" stroke="#263238" stroke-width="0.75" stroke-linecap="round" stroke-linejoin="round"/>
<path d="M119.665 262.14C119.665 262.14 120.698 259.43 120.012 257.4C119.326 255.37 118.632 258.46 118.542 257.88C118.453 257.3 117.171 253.82 114.979 254.3C112.788 254.78 115.237 257.11 114.552 256.82C113.866 256.53 107.567 255.82 104.378 259.33C101.189 262.84 98.7839 267.74 99.5589 272.39C100.412 276.402 102.598 279.897 105.67 282.16C107.282 283.088 108.689 284.411 109.786 286.03C110.711 285.195 111.556 284.253 112.307 283.22C111.859 283.38 111.384 283.421 110.92 283.337C110.455 283.254 110.015 283.049 109.634 282.74C108.253 281.67 107.567 278.58 109.296 277.03C111.024 275.48 112.69 279 112.69 279C114.471 280.07 113.803 277.26 113.117 276C112.431 274.74 113.376 273.38 113.634 271.55C113.892 269.72 111.656 269.03 111.915 267.19C112.173 265.35 119.665 262.14 119.665 262.14Z" fill="#263238" stroke="#263238" stroke-width="0.75" stroke-linecap="round" stroke-linejoin="round"/>
<path d="M115.514 263.44C115.514 263.44 112.387 261.68 110.392 264.44C108.396 267.2 108.833 271.79 107.265 274.5C106.898 275.246 106.388 275.892 105.772 276.39C105.156 276.888 104.448 277.226 103.701 277.38" stroke="white" stroke-width="0.5" stroke-linecap="round" stroke-linejoin="round"/>
<path d="M101.857 272.55C102.799 272.663 103.743 272.359 104.487 271.701C105.232 271.043 105.717 270.084 105.839 269.03C106.552 265.03 110.534 259.29 114.525 259.13C118.516 258.97 118.222 262.13 118.222 262.13" stroke="white" stroke-width="0.5" stroke-linecap="round" stroke-linejoin="round"/>
<path d="M136.297 328.19L138.791 326.35C138.791 326.35 140.947 321.9 141.116 321.61C141.286 321.32 146.55 318.42 146.978 318.81C147.22 319.048 147.409 319.347 147.528 319.682C147.647 320.018 147.694 320.38 147.664 320.74C147.495 321.23 146.889 321.74 146.889 322.2C146.889 322.66 147.584 326.35 147.584 327.32C147.584 328.29 144.02 329.93 142.586 330.42C141.152 330.91 139.228 330.9 138.791 331.29L137.589 332.35L136.297 328.19Z" fill="white" stroke="#263238" stroke-width="0.75" stroke-linecap="round" stroke-linejoin="round"/>
<path d="M107.345 308.66C107.345 308.66 105.109 309.33 105.884 316.39C106.659 323.45 112.948 347.24 115.184 350.15C117.42 353.06 139.237 336.8 139.237 336.8L136.564 327.51C136.564 327.51 121.83 333.99 120.627 334.28C119.425 334.57 115.968 313.49 114.766 310.88" fill="white"/>
<g style="mix-blend-mode:multiply" opacity="0.5">
<path d="M138.836 335.45C134.301 337.06 123.807 340.73 122.445 340.57C120.663 340.38 120.182 339.2 119.131 337.64C118.079 336.08 116.52 342.33 115.122 342.92C113.723 343.51 114.774 335.92 115.3 334.31C115.826 332.7 114.08 335.1 114.08 335.1C114.08 335.1 110.596 327.1 108.85 321.6C107.744 318.009 106.871 314.333 106.24 310.6L105.848 311.68C105.651 313.229 105.651 314.801 105.848 316.35C106.623 323.41 112.913 347.2 115.149 350.11C117.385 353.02 139.201 336.76 139.201 336.76L138.836 335.45Z" fill="#219EBC"/>
</g>
<path d="M107.345 308.66C107.345 308.66 105.109 309.33 105.884 316.39C106.659 323.45 112.948 347.24 115.184 350.15C117.42 353.06 139.237 336.8 139.237 336.8L136.564 327.51C136.564 327.51 121.83 333.99 120.627 334.28C119.425 334.57 115.968 313.49 114.766 310.88" stroke="#263238" stroke-width="0.75" stroke-linecap="round" stroke-linejoin="round"/>
<path d="M120.618 334.28C119.74 334.918 118.986 335.749 118.403 336.724C117.819 337.699 117.418 338.796 117.224 339.95" stroke="#263238" stroke-width="0.5" stroke-linecap="round" stroke-linejoin="round"/>
<path d="M117.367 336.43C116.768 337.101 116.296 337.899 115.978 338.779C115.659 339.658 115.502 340.601 115.514 341.55" stroke="#263238" stroke-width="0.5" stroke-linecap="round" stroke-linejoin="round"/>
<path d="M95.1583 344.29C95.1583 344.29 92.7887 335.42 93.1005 316.98C93.4123 298.54 94.3655 296.77 93.5726 295.35C92.7798 293.93 78.4285 303.42 67.7386 317.25C60.9326 326.09 52.2381 339.18 51.668 359.8C51.1959 376.29 58.18 389.62 62.5629 393.31C70.1438 399.69 80.4953 399.25 81.5999 399.25H187.395C187.395 399.25 194.183 396.59 195.76 389.68C197.336 382.77 202.708 363.08 191.502 339.5C184.143 324.03 170.968 307.41 168.75 308.65C166.532 309.89 158.247 327.65 146.96 338.79C136.297 349.32 116.004 357.05 95.1583 344.29Z" fill="#219EBC" stroke="#263238" stroke-width="0.75" stroke-linecap="round" stroke-linejoin="round"/>
<path d="M191.528 339.5C189.951 336.2 188.116 332.85 186.183 329.63C180.001 332.02 164.5 339.16 155.895 353.42C148.51 365.66 153.419 385.08 168.812 399.25H187.404C187.404 399.25 194.192 396.59 195.769 389.67C197.345 382.75 202.708 363.08 191.528 339.5Z" fill="white" stroke="#263238" stroke-width="0.75" stroke-linecap="round" stroke-linejoin="round"/>
<path d="M194.922 376.81C194.756 378.543 194.51 380.32 194.183 382.14" stroke="#263238" stroke-width="0.75" stroke-linecap="round" stroke-linejoin="round"/>
<path d="M189.622 342.51C189.622 342.51 196.027 354.9 195.208 372.97" stroke="#263238" stroke-width="0.75" stroke-linecap="round" stroke-linejoin="round"/>
<path d="M92.6462 396.73V379C84.406 376 79.0877 372.44 74.1258 369.1C66.9992 364.31 62.0105 351.4 65.3601 343.04C68.4334 335.32 76.9408 331.87 81.4663 335.32C85.8827 338.578 90.4437 341.582 95.1316 344.32C95.1316 344.32 92.762 335.45 93.0738 317.01C93.3856 298.57 94.3387 296.8 93.5459 295.38C92.7531 293.96 78.4018 303.45 67.7119 317.28C60.9326 326.09 52.2381 339.18 51.668 359.8C51.1959 376.29 58.18 389.62 62.5629 393.31C70.1438 399.69 80.4953 399.25 81.5999 399.25H92.6462C92.6462 398.34 92.6462 397.49 92.6462 396.73Z" fill="white" stroke="#263238" stroke-width="0.75" stroke-linecap="round" stroke-linejoin="round"/>
<path d="M55.0264 363.27C55.107 365.453 55.3153 367.628 55.6499 369.78" stroke="#263238" stroke-width="0.75" stroke-linecap="round" stroke-linejoin="round"/>
<path d="M80.4952 308.74C77.9296 311.32 74.099 314.35 71.7205 317.44C64.9057 326.28 55.5965 338.91 55.0085 359.53" stroke="#263238" stroke-width="0.75" stroke-linecap="round" stroke-linejoin="round"/>
<path d="M117.269 397.12C117.269 406.87 103.906 407.76 87.3369 407.76C70.7675 407.76 57.405 407.4 57.405 397.12C57.405 382.92 70.7675 369.12 87.3369 369.12C103.906 369.12 117.269 382.92 117.269 397.12Z" fill="#219EBC" stroke="#263238" stroke-width="0.75" stroke-linecap="round" stroke-linejoin="round"/>
<path d="M87.3011 369.11C72.0055 369.11 59.4092 380.93 57.6008 393.94C59.3825 402.13 72.0055 402.44 87.3011 402.44C102.597 402.44 115.157 401.68 116.992 393.88C115.193 380.89 102.606 369.11 87.3011 369.11Z" fill="#263238" stroke="#263238" stroke-width="0.75" stroke-linecap="round" stroke-linejoin="round"/>
<path d="M194.655 398.16C194.655 406.99 182.522 407.8 167.556 407.8C152.59 407.8 140.448 407.48 140.448 398.16C140.448 385.31 152.581 372.79 167.556 372.79C182.531 372.79 194.655 385.31 194.655 398.16Z" fill="#219EBC" stroke="#263238" stroke-width="0.75" stroke-linecap="round" stroke-linejoin="round"/>
<path d="M167.556 372.79C153.704 372.79 142.292 383.5 140.662 395.29C142.292 402.7 153.704 402.98 167.556 402.98C181.408 402.98 192.775 402.29 194.441 395.23C192.775 383.47 181.382 372.79 167.556 372.79Z" fill="#263238" stroke="#263238" stroke-width="0.75" stroke-linecap="round" stroke-linejoin="round"/>
<path d="M273.075 293C272.016 292.555 271.157 291.657 270.688 290.501C270.218 289.346 270.177 288.029 270.572 286.84L282.598 250.75C282.794 250.159 283.092 249.617 283.474 249.155C283.856 248.694 284.316 248.321 284.827 248.059C285.338 247.796 285.89 247.649 286.451 247.626C287.012 247.604 287.572 247.705 288.099 247.925C288.625 248.145 289.108 248.479 289.519 248.908C289.931 249.338 290.263 249.854 290.496 250.427C290.73 251.001 290.861 251.62 290.881 252.25C290.902 252.88 290.811 253.509 290.615 254.1L278.589 290.19C278.393 290.782 278.095 291.325 277.711 291.787C277.327 292.25 276.866 292.622 276.353 292.883C275.84 293.144 275.287 293.289 274.724 293.309C274.162 293.329 273.601 293.224 273.075 293Z" fill="white" stroke="#263238" stroke-width="0.75" stroke-linecap="round" stroke-linejoin="round"/>
<path d="M286.918 257.25L280.166 277.17" stroke="#263238" stroke-width="0.75" stroke-linecap="round" stroke-linejoin="round"/>
<path d="M254.777 348C253.844 347.609 252.989 347.016 252.26 346.255C251.531 345.493 250.943 344.578 250.529 343.561C250.116 342.544 249.884 341.445 249.849 340.328C249.814 339.211 249.975 338.097 250.323 337.05L267.489 285.52C268.198 283.405 269.626 281.692 271.46 280.759C273.293 279.826 275.382 279.749 277.266 280.545C279.15 281.341 280.676 282.944 281.507 285.002C282.338 287.06 282.407 289.405 281.698 291.52L264.496 343C263.793 345.106 262.376 346.814 260.555 347.75C258.734 348.687 256.657 348.777 254.777 348Z" fill="#263238" stroke="#263238" stroke-width="0.75" stroke-linecap="round" stroke-linejoin="round"/>
<path d="M318.498 158.18C309.94 154.587 300.625 153.924 291.731 156.275C282.837 158.625 274.763 163.883 268.531 171.384C262.299 178.885 258.189 188.292 256.72 198.415C255.25 208.539 256.488 218.924 260.277 228.258C264.065 237.591 270.235 245.454 278.004 250.852C285.774 256.25 294.794 258.941 303.926 258.583C313.058 258.226 321.89 254.837 329.306 248.845C336.722 242.853 342.388 234.527 345.589 224.92C349.878 212.037 349.434 197.769 344.354 185.254C339.273 172.738 329.973 163 318.498 158.18ZM288.932 246.92C281.856 243.948 275.724 238.688 271.312 231.804C266.899 224.92 264.404 216.722 264.142 208.247C263.88 199.771 265.863 191.399 269.84 184.188C273.816 176.978 279.608 171.253 286.483 167.737C293.358 164.222 301.008 163.073 308.464 164.438C315.92 165.802 322.849 169.618 328.373 175.403C333.898 181.187 337.77 188.681 339.501 196.936C341.232 205.191 340.743 213.837 338.097 221.78C334.545 232.431 327.371 241.063 318.151 245.778C308.932 250.492 298.421 250.903 288.932 246.92Z" fill="#263238" stroke="#263238" stroke-width="0.75" stroke-linecap="round" stroke-linejoin="round"/>
<path d="M271.338 191C273.191 186.412 275.837 182.282 279.121 178.849C282.406 175.416 286.264 172.749 290.473 171" stroke="#263238" stroke-width="0.75" stroke-linecap="round" stroke-linejoin="round"/>
<path d="M268.282 206.88C268.273 202.99 268.796 199.122 269.832 195.41" stroke="#263238" stroke-width="0.75" stroke-linecap="round" stroke-linejoin="round"/>
<path d="M258.519 217.46C256.218 205.566 257.836 193.14 263.072 182.483C268.308 171.825 276.808 163.659 286.996 159.498C297.185 155.336 308.371 155.46 318.485 159.848C328.598 164.235 336.951 172.588 341.998 183.36" stroke="white" stroke-miterlimit="10"/>
<path d="M346.827 200.76C348.132 212.743 345.557 224.854 339.57 234.883C333.583 244.912 324.583 252.19 314.214 255.39C303.844 258.59 292.795 257.498 283.082 252.314C273.37 247.13 265.641 238.199 261.307 227.15" stroke="white" stroke-miterlimit="10"/>
<path d="M343.798 187.71C344.961 190.892 345.829 194.199 346.39 197.58" stroke="white" stroke-miterlimit="10"/>
<path d="M122.934 383.55C130.034 383.55 135.789 377.09 135.789 369.12C135.789 361.151 130.034 354.69 122.934 354.69C115.835 354.69 110.08 361.151 110.08 369.12C110.08 377.09 115.835 383.55 122.934 383.55Z" fill="#263238"/>
<path d="M122.934 381.3C128.927 381.3 133.785 375.847 133.785 369.12C133.785 362.393 128.927 356.94 122.934 356.94C116.942 356.94 112.084 362.393 112.084 369.12C112.084 375.847 116.942 381.3 122.934 381.3Z" fill="white" stroke="#263238" stroke-width="0.75" stroke-linecap="round" stroke-linejoin="round"/>
<path d="M119.638 372.72C119.544 372.612 119.491 372.466 119.491 372.315C119.491 372.164 119.544 372.018 119.638 371.91L122.578 368.61C122.675 368.504 122.804 368.445 122.939 368.445C123.074 368.445 123.203 368.504 123.3 368.61C123.349 368.663 123.388 368.727 123.414 368.797C123.441 368.868 123.455 368.944 123.455 369.02C123.455 369.097 123.441 369.172 123.414 369.243C123.388 369.313 123.349 369.377 123.3 369.43L120.369 372.72C120.321 372.775 120.265 372.819 120.202 372.849C120.139 372.879 120.072 372.894 120.004 372.894C119.935 372.894 119.868 372.879 119.805 372.849C119.742 372.819 119.686 372.775 119.638 372.72Z" fill="#263238"/>
<path d="M115.166 377.74C115.079 377.647 115.009 377.534 114.961 377.41C114.914 377.285 114.889 377.151 114.889 377.015C114.889 376.879 114.914 376.745 114.961 376.621C115.009 376.496 115.079 376.383 115.166 376.29L119.353 371.59C119.437 371.49 119.537 371.41 119.649 371.356C119.761 371.302 119.882 371.273 120.004 371.273C120.126 371.273 120.246 371.302 120.358 371.356C120.47 371.41 120.571 371.49 120.654 371.59C120.742 371.683 120.811 371.796 120.859 371.921C120.907 372.045 120.931 372.179 120.931 372.315C120.931 372.451 120.907 372.585 120.859 372.71C120.811 372.834 120.742 372.947 120.654 373.04L116.467 377.74C116.384 377.84 116.283 377.92 116.171 377.974C116.059 378.028 115.939 378.057 115.817 378.057C115.695 378.057 115.574 378.028 115.462 377.974C115.35 377.92 115.25 377.84 115.166 377.74Z" fill="#263238"/>
<path d="M130.649 369.32C131.431 368.444 131.964 367.326 132.18 366.11C132.396 364.893 132.286 363.632 131.864 362.486C131.441 361.34 130.725 360.36 129.807 359.67C128.888 358.981 127.808 358.613 126.703 358.613C125.598 358.613 124.517 358.981 123.599 359.67C122.68 360.36 121.964 361.34 121.542 362.486C121.119 363.632 121.009 364.893 121.225 366.11C121.441 367.326 121.974 368.444 122.756 369.32C123.804 370.494 125.223 371.153 126.703 371.153C128.183 371.153 129.602 370.494 130.649 369.32Z" fill="#263238"/>
<path d="M129.58 368.11C130.147 367.472 130.532 366.659 130.688 365.775C130.843 364.891 130.762 363.975 130.454 363.142C130.146 362.31 129.626 361.599 128.958 361.098C128.29 360.598 127.505 360.331 126.703 360.331C125.9 360.331 125.115 360.598 124.447 361.098C123.779 361.599 123.259 362.31 122.951 363.142C122.643 363.975 122.562 364.891 122.717 365.775C122.873 366.659 123.258 367.472 123.825 368.11C124.203 368.535 124.651 368.872 125.145 369.102C125.639 369.333 126.168 369.451 126.703 369.451C127.237 369.451 127.767 369.333 128.26 369.102C128.754 368.872 129.203 368.535 129.58 368.11Z" fill="white"/>
<path d="M282.393 317.66C282.393 318.93 281.943 320.149 281.143 321.047C280.343 321.945 279.258 322.45 278.126 322.45H248.043C247.466 322.48 246.891 322.378 246.351 322.151C245.811 321.923 245.317 321.576 244.9 321.129C244.483 320.681 244.151 320.144 243.924 319.548C243.698 318.953 243.581 318.312 243.581 317.665C243.581 317.018 243.698 316.377 243.924 315.782C244.151 315.186 244.483 314.649 244.9 314.201C245.317 313.754 245.811 313.407 246.351 313.179C246.891 312.952 247.466 312.85 248.043 312.88H278.126C279.256 312.88 280.34 313.383 281.14 314.279C281.94 315.176 282.391 316.391 282.393 317.66Z" fill="#219EBC" stroke="#263238" stroke-width="0.75" stroke-linecap="round" stroke-linejoin="round"/>
<path d="M264.389 320.97C265.698 320.97 266.759 319.779 266.759 318.31C266.759 316.841 265.698 315.65 264.389 315.65C263.08 315.65 262.02 316.841 262.02 318.31C262.02 319.779 263.08 320.97 264.389 320.97Z" fill="white" stroke="#263238" stroke-width="0.75" stroke-linecap="round" stroke-linejoin="round"/>
<path d="M228.373 349.53C231.561 349.53 234.145 346.629 234.145 343.05C234.145 339.471 231.561 336.57 228.373 336.57C225.185 336.57 222.6 339.471 222.6 343.05C222.6 346.629 225.185 349.53 228.373 349.53Z" fill="#219EBC" stroke="#263238" stroke-width="0.75" stroke-linecap="round" stroke-linejoin="round"/>
<path d="M230.538 343.05C230.539 342.569 230.414 342.098 230.177 341.697C229.94 341.296 229.603 340.983 229.208 340.798C228.812 340.612 228.377 340.563 227.956 340.656C227.536 340.748 227.149 340.979 226.845 341.318C226.542 341.658 226.335 342.091 226.251 342.562C226.166 343.034 226.209 343.523 226.372 343.968C226.536 344.412 226.813 344.792 227.169 345.06C227.526 345.327 227.944 345.47 228.373 345.47C228.946 345.47 229.495 345.215 229.901 344.762C230.306 344.308 230.535 343.693 230.538 343.05Z" fill="white" stroke="#263238" stroke-width="0.75" stroke-linecap="round" stroke-linejoin="round"/>
<path d="M248.043 324.26C251.231 324.26 253.815 321.359 253.815 317.78C253.815 314.201 251.231 311.3 248.043 311.3C244.854 311.3 242.27 314.201 242.27 317.78C242.27 321.359 244.854 324.26 248.043 324.26Z" fill="#219EBC" stroke="#263238" stroke-width="0.75" stroke-linecap="round" stroke-linejoin="round"/>
<path d="M248.043 320.28C249.272 320.28 250.27 319.161 250.27 317.78C250.27 316.4 249.272 315.28 248.043 315.28C246.813 315.28 245.815 316.4 245.815 317.78C245.815 319.161 246.813 320.28 248.043 320.28Z" fill="white" stroke="#263238" stroke-width="0.75" stroke-linecap="round" stroke-linejoin="round"/>
</svg>
