<svg width="500" height="500" viewBox="0 0 500 500" fill="none" xmlns="http://www.w3.org/2000/svg">
<path d="M418.57 243.26C324.86 189.16 173.43 189.16 80.33 243.26C-12.77 297.36 -12.28 385.09 81.43 439.19C175.14 493.29 326.57 493.29 419.68 439.19C512.79 385.09 512.28 297.37 418.57 243.26Z" fill="#F5F5F5"/>
<path d="M392.84 372C364.78 355.8 319.44 355.8 291.57 372C263.7 388.2 263.84 414.47 291.89 430.67C319.94 446.87 365.3 446.87 393.17 430.67C421.04 414.47 420.9 388.23 392.84 372Z" fill="#E0E0E0"/>
<path d="M219.29 290C182.85 269 123.95 269 87.7399 290C51.5299 311 51.7399 345.16 88.1599 366.2C124.58 387.24 183.51 387.2 219.72 366.2C255.93 345.2 255.74 311.06 219.29 290Z" fill="#E0E0E0"/>
<path d="M448.77 330.45C442.08 326.59 431.28 326.59 424.64 330.45C418 334.31 418.04 340.56 424.72 344.45C431.4 348.34 442.21 348.31 448.85 344.45C455.49 340.59 455.45 334.31 448.77 330.45Z" fill="#E0E0E0"/>
<path d="M246.75 252.15L378.25 327.68L429.58 298.13L298.01 222.56L246.75 252.15Z" fill="#E0E0E0"/>
<path d="M98.24 103.16L98.31 127.55L101.26 129.26L101.18 101.46L98.24 103.16Z" fill="#F0F0F0"/>
<path d="M66.3999 145.97L66.4099 149.39L101.26 129.26L98.3099 127.55L66.3999 145.97Z" fill="#F5F5F5"/>
<path d="M104.74 95.3L62.74 119.54L62.84 155.54L104.84 131.29L104.74 95.3ZM66.41 149.39V146L66.34 121.61L98.25 103.19L101.19 101.49L101.27 129.29L66.41 149.39Z" fill="#E0E0E0"/>
<path d="M104.74 95.3L101.79 93.58L59.79 117.83L62.74 119.54L104.74 95.3Z" fill="#F5F5F5"/>
<path d="M59.79 117.83L59.89 153.84L62.85 155.55L62.74 119.54L59.79 117.83Z" fill="#F0F0F0"/>
<path d="M150.16 117.06L150.23 141.44L153.18 143.16L153.1 115.36L150.16 117.06Z" fill="#F0F0F0"/>
<path d="M118.32 159.87L118.33 163.29L153.18 143.16L150.23 141.44L118.32 159.87Z" fill="#F5F5F5"/>
<path d="M156.66 109.2L114.66 133.44L114.77 169.44L156.77 145.2L156.66 109.2ZM118.33 163.29V159.87L118.26 135.48L150.17 117.06L153.11 115.36L153.19 143.16L118.33 163.29Z" fill="#E0E0E0"/>
<path d="M156.66 109.2L153.71 107.48L111.71 131.73L114.67 133.44L156.66 109.2Z" fill="#F5F5F5"/>
<path d="M111.71 131.73L111.81 167.74L114.77 169.45L114.67 133.44L111.71 131.73Z" fill="#F0F0F0"/>
<path d="M212.66 115.94V110L212.38 110.15L211.89 110.44C207.51 113.08 203.13 117.24 199.04 121.72C198.373 122.473 197.707 123.223 197.04 123.97C193.59 127.97 190.22 132.1 186.75 135.97V145.54L190.93 143.13C196.371 132.762 203.747 123.533 212.66 115.94Z" fill="#EBEBEB"/>
<path d="M212.7 130.62V122.71C209.075 126.55 206.078 130.937 203.82 135.71L212.7 130.62Z" fill="#EBEBEB"/>
<path d="M203.8 135.76C206.058 130.987 209.055 126.6 212.68 122.76V115.99C203.765 123.601 196.391 132.852 190.96 143.24L203.82 135.81L203.8 135.76Z" fill="#FAFAFA"/>
<path d="M195.07 107.78L195.68 107.57C196.8 107.17 197.93 106.7 199.07 106.17L199.48 105.97C199.86 105.79 200.25 105.61 200.63 105.41C201.29 105.07 201.95 104.72 202.63 104.35C201.97 104.72 201.31 105.07 200.63 105.41L200.87 105.29C201.45 104.99 202.03 104.68 202.61 104.35L202.99 104.14L203.29 103.96C206.449 102.093 209.437 99.9517 212.22 97.56L212.61 97.23V87.23C206.26 90.48 200.01 91.49 194.97 89.92C191.511 88.8111 188.551 86.5208 186.61 83.45L186.69 109.45C189.548 109.289 192.369 108.726 195.07 107.78Z" fill="#FAFAFA"/>
<path d="M199 121.74C203.09 117.26 207.47 113.1 211.85 110.46L212.34 110.17L212.62 110.02V104.28C204.146 109.27 196.294 115.249 189.23 122.09C188.38 122.9 187.54 123.72 186.69 124.51V136.03C190.16 132.12 193.53 127.94 196.98 124.03C197.66 123.257 198.333 122.493 199 121.74Z" fill="#FAFAFA"/>
<path d="M212.63 104.28V97.28L212.24 97.61C209.457 100.002 206.469 102.143 203.31 104.01L203.01 104.19L202.63 104.4C202.05 104.73 201.47 105.04 200.89 105.34L200.65 105.46L200.49 105.55L200.65 105.46L199.51 106.02L199.08 106.22C197.95 106.75 196.82 107.22 195.7 107.62L196.34 107.38L195.7 107.62L195.09 107.83C192.379 108.776 189.547 109.335 186.68 109.49V124.56C187.53 123.77 188.37 122.95 189.22 122.14C196.288 115.28 204.146 109.284 212.63 104.28Z" fill="#EBEBEB"/>
<path d="M212.56 79.12V71.73C208.56 70.79 205.43 67.86 203.79 63.49L194.93 68.61C196.481 71.9235 198.99 74.6959 202.133 76.5693C205.275 78.4428 208.907 79.3312 212.56 79.12Z" fill="#FAFAFA"/>
<path d="M194.94 89.91C199.94 91.48 206.23 90.47 212.58 87.22V79.12C208.924 79.3353 205.288 78.4488 202.141 76.5751C198.995 74.7014 196.483 71.9268 194.93 68.61L186.58 73.43V83.43C188.519 86.5046 191.479 88.7986 194.94 89.91Z" fill="#EBEBEB"/>
<path d="M214 55.9399L185.09 72.5999L185.3 148.12L214.17 131.46L214 55.9399ZM186.8 145.6V136.03V124.51V109.44L186.72 83.4399V73.4399L195.07 68.6199L203.93 63.4999L212.66 58.4999V71.7699V79.1599V87.2599V97.2599V104.26V110V115.92V122.69V130.6L203.76 135.74L190.9 143.17L186.8 145.6Z" fill="white"/>
<path d="M212.54 71.73V58.46L203.81 63.46C205.41 67.86 208.53 70.79 212.54 71.73Z" fill="#EBEBEB"/>
<path d="M214.17 131.46L185.3 148.13L185.31 150.13L215.9 132.47L214.17 131.46Z" fill="#CACACA"/>
<path d="M213.96 55.9399L214.17 131.46L215.9 132.47L215.68 54.9399L213.96 55.9399Z" fill="#F0F0F0"/>
<path d="M220.33 46.9L180.41 69.9L180.66 158.13L220.58 135.13L220.33 46.9ZM185.33 150.13V148.13L185.12 72.61L214 55.94L215.72 54.94L215.94 132.46L185.33 150.13Z" fill="#E0E0E0"/>
<path d="M220.33 46.9L217.03 45.13L177.12 68.17L180.41 69.94L220.33 46.9Z" fill="#F5F5F5"/>
<path d="M177.12 68.17L177.37 156.4L180.66 158.17L180.41 69.94L177.12 68.17Z" fill="#F0F0F0"/>
<path d="M88.1001 112.42L96.8001 119.27L96.8201 125.96L67.8801 142.67L67.8601 135.98L73.3701 125.02L78.3301 128.87L76.5801 134.31L79.1201 129.48L88.1001 112.42Z" fill="#E0E0E0"/>
<path d="M78.5899 115.79C79.9499 115 81.0599 115.64 81.0699 117.2C81.0233 118.053 80.7763 118.884 80.3489 119.624C79.9215 120.364 79.3257 120.993 78.6099 121.46C77.2499 122.25 76.1399 121.61 76.1299 120.05C76.1765 119.197 76.4235 118.366 76.8509 117.626C77.2783 116.886 77.874 116.257 78.5899 115.79Z" fill="#E0E0E0"/>
<path d="M140.02 126.32L148.72 133.17L148.74 139.86L119.8 156.57L119.78 149.88L125.29 138.92L130.25 142.77L128.5 148.21L131.04 143.38L140.02 126.32Z" fill="#E0E0E0"/>
<path d="M130.51 129.69C131.87 128.9 132.98 129.54 132.99 131.1C132.943 131.953 132.696 132.784 132.269 133.524C131.842 134.264 131.246 134.893 130.53 135.36C129.17 136.15 128.06 135.52 128.05 133.95C128.097 133.097 128.344 132.266 128.771 131.526C129.198 130.786 129.794 130.157 130.51 129.69Z" fill="#E0E0E0"/>
<path d="M382.68 74.03L382.4 171L387.8 174.12L388.07 77.14L382.68 74.03Z" fill="#E0E0E0"/>
<path d="M388.08 77.14H388.07L387.8 174.12L392.49 171.39L392.75 79.84L388.08 77.14Z" fill="#F0F0F0"/>
<path opacity="0.2" d="M388.06 81.5L388.07 77.14L382.68 74.03L382.67 78.38L388.06 81.5Z" fill="black"/>
<path opacity="0.2" d="M388.06 81.5L391.85 79.32L388.08 77.14H388.07L388.06 81.5Z" fill="black"/>
<path d="M317.74 36.5299L322.43 33.8099L322.15 130.78L317.46 133.51L317.74 36.5299Z" fill="#F0F0F0"/>
<path d="M317.46 133.51L322.15 130.78L457.44 208.89L452.75 211.61L317.46 133.51Z" fill="#F5F5F5"/>
<path d="M312.36 27.22L458.43 111.55L458.12 220.93L312.05 136.59L312.36 27.22ZM452.75 211.61L453.02 114.61L317.74 36.53L317.46 133.53L452.75 211.63" fill="#E0E0E0"/>
<path d="M312.36 27.22L317.05 24.49L463.13 108.83L458.43 111.55L312.36 27.22Z" fill="#F5F5F5"/>
<path d="M458.43 111.55L463.13 108.83L462.81 218.2L458.12 220.93L458.43 111.55Z" fill="#F0F0F0"/>
<path d="M262.64 190.38V256.39L374.92 320.87V254.86L262.64 190.38Z" fill="#E0E0E0"/>
<path d="M419.21 229.37V295.38L374.92 320.87V254.86L419.21 229.37Z" fill="#E0E0E0"/>
<path opacity="0.1" d="M262.64 190.38V256.39L374.92 320.87V254.86L262.64 190.38Z" fill="black"/>
<path opacity="0.2" d="M419.21 229.37V295.38L374.92 320.87V254.86L419.21 229.37Z" fill="black"/>
<path d="M317.06 262.88L369.62 293.06V277.56L317.06 247.38V262.88Z" fill="#E0E0E0"/>
<path d="M369.62 273.86V257.93L317.06 227.75V243.68L369.62 273.86Z" fill="#E0E0E0"/>
<path d="M311.76 224.7L267.94 199.54V215.47L311.76 240.63V224.7Z" fill="#E0E0E0"/>
<path d="M317.06 281.53L369.62 311.71V296.76L317.06 266.58V281.53Z" fill="#E0E0E0"/>
<path d="M311.76 244.34L267.94 219.17V234.67L311.76 259.83V244.34Z" fill="#E0E0E0"/>
<path d="M267.94 238.37V253.32L311.76 278.48V263.54L267.94 238.37Z" fill="#E0E0E0"/>
<path d="M261.05 184.22L375.94 250.22L420.8 224.4L305.84 158.37L261.05 184.22Z" fill="#EBEBEB"/>
<path d="M261.05 184.22V190.97L375.94 256.96V250.22L261.05 184.22Z" fill="#E0E0E0"/>
<path d="M420.8 224.4V231.14L375.94 256.96V250.22L420.8 224.4Z" fill="#E0E0E0"/>
<path opacity="0.1" d="M420.8 224.4V231.14L375.94 256.96V250.22L420.8 224.4Z" fill="black"/>
<path d="M452.93 308.25L436.74 308.72L420.56 308.25C419.87 319.17 422 330.31 424.94 335.75C425.641 337.147 426.764 338.287 428.15 339.01C432.92 341.76 440.64 341.76 445.38 339.01C446.786 338.276 447.911 337.098 448.58 335.66C451.51 330.19 453.62 319.12 452.93 308.25Z" fill="white"/>
<path d="M448.15 301.62C454.49 305.28 454.52 311.21 448.22 314.87C441.92 318.53 431.68 318.53 425.34 314.87C419 311.21 418.97 305.28 425.27 301.62C431.57 297.96 441.81 298 448.15 301.62Z" fill="#EBEBEB"/>
<path d="M445.64 303.08C450.59 305.93 450.64 310.56 445.7 313.42C440.76 316.28 432.79 316.27 427.85 313.42C422.91 310.57 422.85 305.93 427.79 303.08C432.73 300.23 440.7 300.22 445.64 303.08Z" fill="#E0E0E0"/>
<g opacity="0.15">
<path opacity="0.15" d="M445.64 303.08C450.59 305.93 450.64 310.56 445.7 313.42C440.76 316.28 432.79 316.27 427.85 313.42C422.91 310.57 422.85 305.93 427.79 303.08C432.73 300.23 440.7 300.22 445.64 303.08Z" fill="black"/>
</g>
<path d="M463.35 239.2C426.88 251.14 426.55 275.53 434.77 292.91C436.85 296.42 443.12 298.31 448.58 276.71L439 277.93L450.17 272.28L453.07 263.61L443.76 264.3L455.57 259.3C457.746 252.446 460.344 245.733 463.35 239.2Z" fill="#FB8500"/>
<path opacity="0.2" d="M463.35 239.2C426.88 251.14 426.55 275.53 434.77 292.91C436.85 296.42 443.12 298.31 448.58 276.71L439 277.93L450.17 272.28L453.07 263.61L443.76 264.3L455.57 259.3C457.746 252.446 460.344 245.733 463.35 239.2Z" fill="black"/>
<path opacity="0.2" d="M463.35 239.2C426.88 251.14 426.55 275.53 434.77 292.91C436.85 296.42 443.12 298.31 448.58 276.71L439 277.93L450.17 272.28L453.07 263.61L443.76 264.3L455.57 259.3C457.746 252.446 460.344 245.733 463.35 239.2Z" fill="white"/>
<path d="M453 245.3C433.78 259.9 432 276.63 437.47 294.1C435.58 278.71 433.5 263.16 453 245.3Z" fill="white"/>
<path d="M401.59 264C437.53 269.06 441.89 291.73 437.12 309.27C435.77 312.89 430.25 315.69 421.57 296.48L430.69 296.03L419.36 292.61L415.22 285L424 284.09L412.17 281.43C409.004 275.409 405.471 269.588 401.59 264Z" fill="#FB8500"/>
<path opacity="0.2" d="M401.59 264C437.53 269.06 441.89 291.73 437.12 309.27C435.77 312.89 430.25 315.69 421.57 296.48L430.69 296.03L419.36 292.61L415.22 285L424 284.09L412.17 281.43C409.004 275.409 405.471 269.588 401.59 264Z" fill="white"/>
<path opacity="0.1" d="M401.59 264C437.53 269.06 441.89 291.73 437.12 309.27C435.77 312.89 430.25 315.69 421.57 296.48L430.69 296.03L419.36 292.61L415.22 285L424 284.09L412.17 281.43C409.004 275.409 405.471 269.588 401.59 264Z" fill="black"/>
<path d="M412.21 268C432.54 278.4 436.94 293.69 434.78 310.86C434 296.17 433.36 281.34 412.21 268Z" fill="white"/>
<path d="M473.87 272.47C440.87 273.01 434.44 292.95 436.77 309.3C437.58 312.71 442.25 315.85 452.22 299.51L444.05 298.08L454.65 296.27L459.23 289.9L451.41 288.1L462.41 287.02C465.928 281.939 469.755 277.08 473.87 272.47Z" fill="#FB8500"/>
<path d="M463.85 274.86C444.36 281.96 438.69 295.25 438.71 310.97C441 297.85 443.29 284.56 463.85 274.86Z" fill="white"/>
<path opacity="0.2" d="M473.87 272.47C440.87 273.01 434.44 292.95 436.77 309.3C437.58 312.71 442.25 315.85 452.22 299.51L444.05 298.08L454.65 296.27L459.23 289.9L451.41 288.1L462.41 287.02C465.928 281.939 469.755 277.08 473.87 272.47Z" fill="white"/>
<path d="M230.48 270.09C232.712 263.914 232.835 257.172 230.828 250.919C228.822 244.666 224.799 239.254 219.39 235.53C216 233.19 212.12 231.53 209.07 228.79C206.22 226.19 204.25 222.79 201.35 220.2C196.92 216.32 190.69 214.97 184.83 215.48C178.97 215.99 173.02 219.23 167.71 221.77C164.566 219.519 160.942 218.03 157.123 217.423C153.305 216.815 149.397 217.105 145.71 218.27C141.71 219.59 138.07 221.93 134.06 223.27C130.05 224.61 125.77 224.97 121.57 225.58C117.37 226.19 113.1 227.14 109.57 229.58C106.04 232.02 101.78 237.29 102.28 241.5C94.0299 240.5 85.7199 245.06 80.8499 251.8C75.9799 258.54 74.2299 267.14 74.4099 275.45C67.7499 278.57 63.1999 285.55 61.6499 292.73C60.8958 296.334 60.9693 300.063 61.8648 303.634C62.7603 307.206 64.4546 310.528 66.8199 313.35C63.8199 316.84 63.8199 322.74 65.2199 327.17C66.7241 331.601 69.8019 335.327 73.8699 337.64C77.9264 339.917 82.4465 341.243 87.0899 341.52C98.7199 342.52 112.17 344.74 123.65 342.69C167.34 334.84 215.42 311.83 230.48 270.09Z" fill="#FB8500"/>
<path opacity="0.2" d="M230.48 270.09C232.712 263.914 232.835 257.172 230.828 250.919C228.822 244.666 224.799 239.254 219.39 235.53C216 233.19 212.12 231.53 209.07 228.79C206.22 226.19 204.25 222.79 201.35 220.2C196.92 216.32 190.69 214.97 184.83 215.48C178.97 215.99 173.02 219.23 167.71 221.77C164.566 219.519 160.942 218.03 157.123 217.423C153.305 216.815 149.397 217.105 145.71 218.27C141.71 219.59 138.07 221.93 134.06 223.27C130.05 224.61 125.77 224.97 121.57 225.58C117.37 226.19 113.1 227.14 109.57 229.58C106.04 232.02 101.78 237.29 102.28 241.5C94.0299 240.5 85.7199 245.06 80.8499 251.8C75.9799 258.54 74.2299 267.14 74.4099 275.45C67.7499 278.57 63.1999 285.55 61.6499 292.73C60.8958 296.334 60.9693 300.063 61.8648 303.634C62.7603 307.206 64.4546 310.528 66.8199 313.35C63.8199 316.84 63.8199 322.74 65.2199 327.17C66.7241 331.601 69.8019 335.327 73.8699 337.64C77.9264 339.917 82.4465 341.243 87.0899 341.52C98.7199 342.52 112.17 344.74 123.65 342.69C167.34 334.84 215.42 311.83 230.48 270.09Z" fill="black"/>
<g opacity="0.2">
<path opacity="0.2" d="M105.39 247.52C107.271 244.54 110.092 242.273 113.406 241.077C116.721 239.882 120.34 239.826 123.69 240.92C122.279 239.386 120.459 238.289 118.444 237.757C116.429 237.225 114.304 237.282 112.32 237.92C108.34 239.23 105.74 243.34 105.39 247.52Z" fill="black"/>
<path opacity="0.2" d="M70.44 320.64C71.2114 319.35 71.794 317.956 72.17 316.5C72.42 315.02 71.78 312.81 70.43 312.17C71.5018 312.24 72.5483 312.526 73.5059 313.013C74.4634 313.499 75.312 314.175 76 315C74.4391 311.737 71.7553 309.146 68.44 307.7C66.6445 306.929 64.714 306.521 62.76 306.5C63.716 309.003 65.0887 311.326 66.82 313.37C63.82 316.86 63.82 322.76 65.22 327.19C65.9305 329.433 67.0946 331.506 68.64 333.28C67.919 328.982 68.5478 324.566 70.44 320.64Z" fill="black"/>
<path opacity="0.2" d="M153.52 231.59C153.92 227.59 161.09 222.04 167.71 221.77C167.24 221.42 166.71 221.1 166.25 220.77C158.16 218.9 152.72 223.1 153.52 231.59Z" fill="black"/>
<path opacity="0.2" d="M83 275.42C83.0438 277.106 83.4528 278.762 84.1986 280.274C84.9444 281.787 86.0094 283.119 87.32 284.18C83.32 275.55 85.38 264.18 91.76 257.07C89.0415 258.41 86.7228 260.442 85.0363 262.96C83.3497 265.479 82.3544 268.396 82.15 271.42C79.5716 271.087 76.9515 271.333 74.48 272.14C74.48 273.24 74.42 274.33 74.48 275.42C78.13 274.2 83 275.42 83 275.42Z" fill="black"/>
<path opacity="0.2" d="M230.83 250.92C228.803 244.677 224.784 239.27 219.39 235.53C216 233.19 212.12 231.53 209.07 228.79C208.363 228.133 207.695 227.435 207.07 226.7C203.22 226.08 199.31 225.11 195.42 225.04C191.518 224.879 187.625 225.547 184 227C180.363 228.495 177.371 231.225 175.55 234.71C174.27 234.327 172.9 234.375 171.649 234.847C170.399 235.318 169.339 236.187 168.63 237.32C162.524 237.896 156.592 239.676 151.177 242.556C145.762 245.435 140.971 249.359 137.08 254.1C136.338 251.299 136.362 248.349 137.15 245.56C134.43 247.69 133.22 251.64 132.44 255.01C131.66 258.38 131.02 261.93 128.86 264.63C121.1 264.96 112.86 267.89 107.28 273.25C101.627 278.69 98.1141 285.979 97.3801 293.79C97.1501 296.46 97.2301 299.21 96.3801 301.79C95.5301 304.37 93.4401 306.71 90.7601 306.86C90.0491 306.498 89.4175 305.997 88.9024 305.387C88.3873 304.778 87.9989 304.072 87.7601 303.31C87.5499 302.605 87.4956 301.862 87.6009 301.133C87.7063 300.404 87.9687 299.707 88.3701 299.09C86.4601 299.94 85.8901 302.36 85.9101 304.45C85.9301 306.54 86.3001 308.73 85.4101 310.62C84.5586 312.028 83.4532 313.266 82.1501 314.27C78.9528 317.303 76.8292 321.294 76.1001 325.64C75.3901 329.96 75.9901 336.31 80.3001 340.34C82.5143 340.947 84.7812 341.342 87.0701 341.52C98.7001 342.52 112.15 344.74 123.63 342.69C167.31 334.87 215.39 311.86 230.45 270.12C232.677 263.935 232.811 257.189 230.83 250.92Z" fill="black"/>
<path opacity="0.2" d="M102.5 253.88C103.813 255.879 104.645 258.155 104.93 260.53C106.863 260.122 108.858 260.112 110.794 260.503C112.731 260.893 114.567 261.675 116.19 262.8C115.432 260.959 114.002 259.475 112.19 258.65C110.401 257.84 108.366 257.761 106.52 258.43C106.37 256.33 104.46 254.63 102.5 253.88Z" fill="black"/>
<path opacity="0.2" d="M139.61 240.61C140.222 238.537 140.132 236.319 139.352 234.302C138.572 232.285 137.148 230.583 135.3 229.46C136.198 229.359 137.106 229.448 137.968 229.72C138.829 229.992 139.623 230.442 140.3 231.04C140.954 231.63 141.471 232.355 141.816 233.165C142.162 233.975 142.327 234.85 142.3 235.73C142.197 236.681 141.906 237.602 141.444 238.44C140.982 239.277 140.359 240.015 139.61 240.61Z" fill="black"/>
</g>
<path d="M229.58 318.55C227.104 327.468 222.267 335.552 215.58 341.95C212.222 345.182 208.437 347.938 204.33 350.14C200.72 352.07 196.78 354.56 192.58 354.29C189.99 354.12 187.34 353.52 184.82 354.2C182.3 354.88 180.07 356.94 177.71 358.4C174.884 360.073 171.665 360.968 168.381 360.996C165.097 361.024 161.864 360.184 159.01 358.56C156.35 357.04 156.26 357.72 153.73 359.27C149.928 361.598 145.558 362.833 141.1 362.84C138.933 362.848 136.775 362.572 134.68 362.02C133.6 361.74 129.68 359.46 128.86 359.7C119.34 362.5 108.86 362.76 99.6298 359.23C90.3998 355.7 82.4798 348.07 79.7598 338.54C77.0398 329.01 80.1198 317.77 88.0498 311.82C91.5998 309.15 96.2098 307.27 97.9098 303.17C98.7598 301.1 98.7098 298.79 98.9098 296.56C99.5434 288.152 103.453 280.329 109.797 274.774C116.141 269.219 124.412 266.378 132.83 266.86C136.76 258.48 142.74 250.86 150.54 245.86C158.34 240.86 169.02 238.43 178.28 238.39C178.401 236.147 179.383 234.038 181.02 232.5C182.646 230.986 184.542 229.792 186.61 228.98C195.217 225.405 204.852 225.191 213.61 228.38C217.991 230.001 222.018 232.452 225.47 235.6C231.61 235.5 238.08 239.31 242.05 243.99C244.029 246.348 245.471 249.11 246.274 252.082C247.077 255.054 247.222 258.166 246.7 261.2C257 268.67 253.51 317.47 229.58 318.55Z" fill="#FB8500"/>
<path opacity="0.1" d="M229.58 318.55C227.104 327.468 222.267 335.552 215.58 341.95C212.222 345.182 208.437 347.938 204.33 350.14C200.72 352.07 196.78 354.56 192.58 354.29C189.99 354.12 187.34 353.52 184.82 354.2C182.3 354.88 180.07 356.94 177.71 358.4C174.884 360.073 171.665 360.968 168.381 360.996C165.097 361.024 161.864 360.184 159.01 358.56C156.35 357.04 156.26 357.72 153.73 359.27C149.928 361.598 145.558 362.833 141.1 362.84C138.933 362.848 136.775 362.572 134.68 362.02C133.6 361.74 129.68 359.46 128.86 359.7C119.34 362.5 108.86 362.76 99.6298 359.23C90.3998 355.7 82.4798 348.07 79.7598 338.54C77.0398 329.01 80.1198 317.77 88.0498 311.82C91.5998 309.15 96.2098 307.27 97.9098 303.17C98.7598 301.1 98.7098 298.79 98.9098 296.56C99.5434 288.152 103.453 280.329 109.797 274.774C116.141 269.219 124.412 266.378 132.83 266.86C136.76 258.48 142.74 250.86 150.54 245.86C158.34 240.86 169.02 238.43 178.28 238.39C178.401 236.147 179.383 234.038 181.02 232.5C182.646 230.986 184.542 229.792 186.61 228.98C195.217 225.405 204.852 225.191 213.61 228.38C217.991 230.001 222.018 232.452 225.47 235.6C231.61 235.5 238.08 239.31 242.05 243.99C244.029 246.348 245.471 249.11 246.274 252.082C247.077 255.054 247.222 258.166 246.7 261.2C257 268.67 253.51 317.47 229.58 318.55Z" fill="black"/>
<g opacity="0.2">
<path opacity="0.2" d="M211.75 263.25C210.601 261.683 209.887 259.84 209.681 257.908C209.476 255.976 209.786 254.024 210.58 252.25C211.41 250.44 212.74 248.87 213.44 247C214.096 245.041 214.035 242.913 213.268 240.995C212.5 239.078 211.076 237.495 209.25 236.53C210.479 236.692 211.657 237.123 212.7 237.794C213.743 238.464 214.625 239.357 215.282 240.408C215.94 241.46 216.357 242.643 216.503 243.874C216.65 245.106 216.522 246.354 216.13 247.53C215.3 250.2 213.27 252.3 211.91 254.74C210.55 257.18 209.77 261.27 211.75 263.25Z" fill="black"/>
<path opacity="0.2" d="M174 309.94C175.196 307.054 177.11 304.522 179.561 302.585C182.011 300.647 184.916 299.369 188 298.87C184.919 298.922 181.889 299.66 179.13 301.03C179.109 299.65 178.779 298.293 178.165 297.057C177.55 295.822 176.667 294.74 175.58 293.89C173.023 292.126 170.106 290.951 167.04 290.45C165.59 290.286 164.21 289.741 163.04 288.87C162.581 288.435 162.235 287.894 162.033 287.294C161.83 286.694 161.778 286.055 161.88 285.43C161.997 284.727 162.262 284.058 162.659 283.466C163.056 282.875 163.574 282.375 164.18 282C162.904 282.617 161.733 283.43 160.71 284.41C160.196 284.899 159.801 285.5 159.554 286.165C159.308 286.831 159.218 287.544 159.29 288.25C159.527 289.406 160.205 290.425 161.18 291.09C162.146 291.743 163.209 292.239 164.33 292.56C167.24 293.56 170.26 294.18 173.01 295.56C175.575 296.686 177.648 298.699 178.85 301.23C175.552 302.903 172.752 305.414 170.73 308.51C167.657 307.637 164.457 307.298 161.27 307.51C154.8 307.76 148.27 309.29 142.85 312.9C140.319 314.604 138.153 316.795 136.478 319.344C134.802 321.894 133.65 324.751 133.09 327.75C130.09 324.88 125.65 324.8 121.5 325.62C125.475 325.714 129.25 327.383 131.995 330.26C134.74 333.136 136.231 336.985 136.14 340.96C136.811 338.79 136.925 336.485 136.472 334.259C136.02 332.033 135.015 329.956 133.55 328.22C137.136 321.93 142.605 316.923 149.188 313.907C155.771 310.891 163.134 310.018 170.24 311.41C174.07 312.16 178.09 313.84 179.86 317.3C178.945 314.174 176.841 311.532 174 309.94Z" fill="black"/>
<path opacity="0.2" d="M119.38 306.1C120.413 300.629 123.022 295.58 126.886 291.572C130.75 287.564 135.701 284.772 141.13 283.54C134.894 283.384 128.85 285.709 124.326 290.004C119.802 294.299 117.168 300.214 117 306.45C115.299 306.797 113.665 307.415 112.16 308.28C109.432 309.941 107.232 312.342 105.815 315.205C104.399 318.068 103.825 321.274 104.16 324.45C106.224 319.135 110.064 314.699 115.027 311.893C119.991 309.088 125.772 308.087 131.39 309.06C127.839 306.738 123.603 305.694 119.38 306.1Z" fill="black"/>
<path opacity="0.2" d="M239.35 268.74C238.102 266.631 236.42 264.811 234.415 263.402C232.409 261.994 230.127 261.028 227.72 260.57C227.114 258.981 226.285 257.486 225.26 256.13C227.002 260.711 227.139 265.747 225.647 270.415C224.156 275.084 221.125 279.108 217.05 281.83C219.614 280.977 221.949 279.552 223.88 277.661C225.81 275.771 227.284 273.465 228.19 270.92C228.916 268.552 229.046 266.041 228.57 263.61C232.654 264.003 236.469 265.819 239.35 268.74Z" fill="black"/>
<path opacity="0.2" d="M222 286C220.93 287.67 221.23 289.84 221.64 291.78C222.05 293.72 222.51 295.78 221.64 297.62C220.75 299.62 218.64 300.62 216.64 301.46C218.316 301.797 220.057 301.463 221.49 300.53C222.117 300.079 222.64 299.498 223.023 298.827C223.406 298.155 223.64 297.41 223.71 296.64C223.87 294.86 223.13 293.14 222.52 291.46C221.91 289.78 221.41 287.73 222 286Z" fill="black"/>
<path opacity="0.2" d="M188.39 255.12C188.12 256.61 184.06 261.5 176.44 262.8C179.243 263.035 182.058 262.503 184.582 261.261C187.106 260.019 189.245 258.114 190.77 255.75C190.77 255.75 186.53 277.87 199.09 284.26C191.31 275.26 190.77 255.75 196.61 243.54C196.61 243.54 190.77 247.08 190.42 253.1C185.82 252.03 178.03 244.78 178.25 238.43H177.14C176 242.56 177.15 251.42 188.39 255.12Z" fill="black"/>
<path opacity="0.2" d="M160.58 273.4C155.25 260.13 143.04 260.73 133.68 265.08C133.38 265.67 133.08 266.26 132.8 266.86C149.4 263.45 158.08 270.22 160.58 273.4Z" fill="black"/>
<path opacity="0.2" d="M124 355.27C120.52 351.14 120.58 344.7 123.71 340.27C119.56 341.49 116.27 345.61 116.44 349.93C104.812 352.438 92.667 350.538 82.3599 344.6C83.8762 347.279 85.7764 349.721 87.9999 351.85L88.8099 352.1C97.9084 354.764 107.519 355.169 116.81 353.28C118.051 355.165 119.778 356.678 121.81 357.66C123.307 358.445 124.721 359.38 126.03 360.45C126.897 360.243 127.767 360.013 128.64 359.76C127.15 358.19 125.36 356.92 124 355.27Z" fill="black"/>
<path opacity="0.2" d="M164.78 349.63C166.502 346.674 168.936 344.196 171.86 342.42C173.67 341.24 175.6 340.24 177.33 338.94C179.181 337.371 180.583 335.339 181.39 333.05C184.602 333.186 187.806 332.626 190.782 331.409C193.758 330.191 196.435 328.345 198.631 325.996C200.827 323.647 202.489 320.852 203.504 317.801C204.518 314.75 204.862 311.516 204.51 308.32C203.671 314.471 200.702 320.133 196.12 324.32C191.57 328.45 184.86 330.52 178.73 330.74C177.85 333.283 176.234 335.506 174.086 337.127C171.938 338.747 169.357 339.692 166.67 339.84C162.46 340 158.36 338.39 154.15 338.44C157.76 339.88 162.38 342.17 162.81 346.04C163.21 349.63 160.02 354.8 153.73 359.3C156.26 357.75 156.35 357.07 159.01 358.59C160.752 359.58 162.643 360.279 164.61 360.66C164.381 360.293 164.18 359.908 164.01 359.51C163.401 357.908 163.155 356.192 163.288 354.484C163.421 352.776 163.931 351.118 164.78 349.63Z" fill="black"/>
<path opacity="0.2" d="M231.76 314.54C236.74 312.11 240.568 307.823 242.42 302.6C244.189 297.229 243.831 291.385 241.42 286.27C241.721 284.826 241.724 283.335 241.43 281.889C241.136 280.443 240.551 279.072 239.71 277.86C240.116 280.436 239.9 283.071 239.08 285.546C238.261 288.021 236.862 290.265 235 292.09C237.015 291.155 238.662 289.575 239.68 287.6C240.51 292.89 240.55 298.8 238.62 303.81C236.69 308.82 232.72 313.19 227.62 314.81C228.21 314.87 229.44 314.81 230.03 314.86C230.17 316.121 230.02 317.397 229.59 318.59C230.29 318.558 230.988 318.484 231.68 318.37C231.946 317.11 231.973 315.81 231.76 314.54Z" fill="black"/>
</g>
<path d="M167.07 131.92L139.62 193.12L161.44 187.33L145.69 242.34L179.99 167.98L159.01 172.83L167.07 131.92Z" fill="#FB8500"/>
<path opacity="0.5" d="M167.07 131.92L139.62 193.12L161.44 187.33L145.69 242.34L179.99 167.98L159.01 172.83L167.07 131.92Z" fill="white"/>
<path d="M198.04 183.13L175.43 205.22L185.99 206.45L169.59 227.85L197.47 201.17L187.43 199.67L198.04 183.13Z" fill="#FB8500"/>
<path opacity="0.5" d="M198.04 183.13L175.43 205.22L185.99 206.45L169.59 227.85L197.47 201.17L187.43 199.67L198.04 183.13Z" fill="white"/>
<path d="M124.29 187.61L122.11 219.14L130.82 213.03L132.81 239.91L135.87 201.45L127.38 207.01L124.29 187.61Z" fill="#FB8500"/>
<path opacity="0.5" d="M124.29 187.61L122.11 219.14L130.82 213.03L132.81 239.91L135.87 201.45L127.38 207.01L124.29 187.61Z" fill="white"/>
<path d="M314.89 175.39C301.78 176.87 299.89 183.62 298.53 193.85C297.17 204.08 293.8 222.92 293.8 222.92L269.39 245.47L262 247.59C260.94 247.878 259.928 248.323 259 248.91C257.6 249.81 256.2 250.77 254.81 251.6C254.355 251.81 253.98 252.16 253.74 252.6C253.648 252.874 253.643 253.17 253.726 253.447C253.808 253.725 253.974 253.97 254.2 254.15C254.664 254.509 255.247 254.677 255.83 254.62C256.408 254.565 256.976 254.434 257.52 254.23L260.08 253.42C260.429 253.285 260.797 253.208 261.17 253.19C261.361 253.181 261.552 253.219 261.726 253.299C261.9 253.379 262.052 253.499 262.17 253.65C262.64 254.35 253.46 265.18 249.12 267.12C247.95 267.64 248.81 271.34 253.54 268.86C253.888 269.242 254.321 269.537 254.804 269.723C255.286 269.909 255.805 269.98 256.32 269.93H260.32C261.619 269.999 262.92 269.892 264.19 269.61C266.038 269.003 267.708 267.948 269.05 266.54C272.59 263.18 274.64 258.77 275.92 254.17L302.7 234.77L306.07 231.77C308.006 230.053 309.37 227.785 309.98 225.27C311.72 218 315.32 202.54 315.78 196.89C316.35 189.46 314.89 175.39 314.89 175.39Z" fill="#FFA8A7"/>
<path opacity="0.2" d="M275.34 240L273.34 241.82C277.17 244.5 278.18 248.82 277.56 253L282.73 249.27C282.289 247.631 281.634 246.057 280.78 244.59C279.547 242.481 277.626 240.861 275.34 240Z" fill="black"/>
<path opacity="0.2" d="M271.07 251.33C270.182 252.664 268.843 253.633 267.299 254.061C265.755 254.489 264.108 254.347 262.66 253.66C263.287 254.328 264.082 254.815 264.961 255.072C265.84 255.328 266.772 255.345 267.66 255.12C268.516 254.852 269.284 254.359 269.884 253.692C270.484 253.025 270.894 252.209 271.07 251.33Z" fill="black"/>
<path d="M314.89 175.39C296 177.29 297.89 186.98 296.24 196.95C294.59 206.92 292.63 222.26 292.63 222.26C292.63 222.26 276.22 237.39 273.69 239.47C271.16 241.55 271.97 243.09 271.97 243.09L273.36 241.8C278.56 243.04 280.15 249.7 279.67 251.47L277.93 252.74C280.1 253.74 280.87 252.61 283.8 250.62C286.18 249.02 298.8 239.62 306.17 234.45C309.164 232.347 311.515 229.452 312.96 226.09C321.07 207.55 323 186 314.89 175.39Z" fill="#FB8500"/>
<path opacity="0.2" d="M314.89 175.39C296 177.29 297.89 186.98 296.24 196.95C294.59 206.92 292.63 222.26 292.63 222.26C292.63 222.26 276.22 237.39 273.69 239.47C271.16 241.55 271.97 243.09 271.97 243.09L273.36 241.8C278.56 243.04 280.15 249.7 279.67 251.47L277.93 252.74C280.1 253.74 280.87 252.61 283.8 250.62C286.18 249.02 298.8 239.62 306.17 234.45C309.164 232.347 311.515 229.452 312.96 226.09C321.07 207.55 323 186 314.89 175.39Z" fill="black"/>
<path opacity="0.2" d="M307.68 187.93C302.29 201.4 310.54 216.02 307.92 233.05C310.076 231.108 311.783 228.72 312.92 226.05C319.11 211.89 321.7 195.99 318.97 184.53L307.68 187.93Z" fill="black"/>
<path d="M288.48 410.59C289.769 411.822 291.299 412.776 292.973 413.392C294.647 414.008 296.429 414.273 298.21 414.17C301.773 413.938 305.264 413.057 308.51 411.57C311.8 410.22 315.93 406.43 319.51 406.5C322.988 406.474 326.461 406.237 329.91 405.79C330.037 401.045 329.539 396.305 328.43 391.69L311.82 391.26C307.34 397.4 298.62 402.51 292.02 404.43C291.005 404.715 290.087 405.272 289.364 406.04C288.642 406.809 288.142 407.759 287.92 408.79C287.915 408.827 287.915 408.863 287.92 408.9C288.034 409.485 288.222 410.053 288.48 410.59Z" fill="#37474F"/>
<path d="M319.49 406.5C315.93 406.43 311.8 410.22 308.49 411.57C305.244 413.057 301.753 413.938 298.19 414.17C296.409 414.273 294.626 414.008 292.953 413.392C291.279 412.776 289.749 411.822 288.46 410.59C288.199 410.053 288.007 409.485 287.89 408.9C287.885 408.864 287.885 408.827 287.89 408.79C287.73 409.521 287.73 410.279 287.89 411.01C288.007 411.595 288.199 412.163 288.46 412.7C289.749 413.932 291.279 414.886 292.953 415.502C294.626 416.118 296.409 416.383 298.19 416.28C301.752 416.044 305.242 415.163 308.49 413.68C311.78 412.33 315.91 408.54 319.49 408.61C322.912 408.639 326.333 408.442 329.73 408.02C329.81 407.28 329.86 406.53 329.89 405.79C326.441 406.237 322.968 406.474 319.49 406.5Z" fill="#263238"/>
<path d="M393.77 398C394.161 399.774 394.366 401.584 394.38 403.4C394.481 406.616 393.343 409.749 391.2 412.15C389.28 414.1 386.6 415.1 383.96 415.84C381.648 416.6 379.202 416.865 376.78 416.62C374.946 416.35 373.259 415.46 372 414.1V414.19C372.577 415.261 373.406 416.176 374.414 416.857C375.422 417.538 376.581 417.965 377.79 418.1C380.212 418.345 382.658 418.08 384.97 417.32C387.61 416.58 390.29 415.58 392.21 413.63C394.353 411.233 395.492 408.104 395.39 404.89C395.377 403.074 395.173 401.264 394.78 399.49C394.529 398.275 394.527 397.021 394.777 395.806C395.026 394.59 395.521 393.438 396.23 392.42C396.591 391.925 396.925 391.411 397.23 390.88C397.436 390.507 397.567 390.096 397.613 389.672C397.659 389.248 397.621 388.819 397.5 388.41C397.4 388.09 397.3 387.77 397.19 387.47C396.71 388.35 395.58 390.47 395.28 390.89C394.556 391.909 394.048 393.066 393.789 394.289C393.529 395.511 393.523 396.775 393.77 398Z" fill="#263238"/>
<path d="M376.49 382.41C377.844 385.912 378.17 389.729 377.43 393.41C376.687 397.089 375.453 400.651 373.76 404C372.932 405.598 372.263 407.272 371.76 409C371.253 410.704 371.334 412.528 371.99 414.18C373.268 415.536 374.973 416.411 376.82 416.66C379.241 416.905 381.687 416.64 384 415.88C386.64 415.14 389.32 414.14 391.24 412.19C393.382 409.789 394.521 406.657 394.42 403.44C394.406 401.624 394.201 399.814 393.81 398.04C393.56 396.825 393.559 395.571 393.808 394.356C394.058 393.141 394.551 391.989 395.26 390.97C395.56 390.54 396.69 388.43 397.17 387.55C396.255 384.98 394.822 382.624 392.96 380.63L376.49 382.41Z" fill="#37474F"/>
<path d="M311.11 248.38C311.11 248.38 306.91 309.12 307.27 324.47C307.63 339.82 309.18 392.47 309.18 392.47C318.04 400.03 334.3 393.89 334.3 393.89C335.3 345.46 337.73 342.84 334.62 325.12C336.82 311.96 338.9 289.12 338.9 289.12C341.83 314.34 343.62 326.69 344.45 331.98C344.797 334.143 345.472 336.24 346.45 338.2L371.6 389.2C384.6 397.54 396.11 378.62 396.11 378.62C381.54 338.57 378.17 335.73 372.03 328.55C371.79 285.79 368.68 249.22 368.68 249.22L311.11 248.38Z" fill="#455A64"/>
<path opacity="0.2" d="M326.83 277.25C328.64 281.83 335.74 284.12 335.74 284.12C335.74 284.12 335.62 302.68 334.9 323.38C336.99 310.05 338.9 289.04 338.9 289.04L338.27 281.83C334.153 281.211 330.236 279.643 326.83 277.25Z" fill="black"/>
<path d="M370.13 260.15C349.71 264.8 332.19 265.33 309.66 257.15C303.72 254.99 311.05 236.34 311.53 225.02C312.01 213.7 308.38 198.78 307.79 192.93C307.2 187.08 307.99 176.93 314.89 175.39C327.7 172.68 351.77 175.39 351.77 175.39L366.14 191.27C372.19 222.3 380.74 257.74 370.13 260.15Z" fill="#FB8500"/>
<path d="M308.11 154.9C306.872 153.486 305.953 151.821 305.416 150.019C304.88 148.218 304.738 146.321 305 144.46C305.288 142.368 306.105 140.384 307.374 138.695C308.643 137.007 310.321 135.669 312.25 134.81C311.56 134.46 310.9 133.88 310.25 133.53C310.777 133.228 311.367 133.055 311.974 133.024C312.58 132.992 313.185 133.104 313.74 133.35C313.148 132.371 312.773 131.276 312.64 130.14C313.906 130.489 314.983 131.323 315.64 132.46C315.449 131.201 315.591 129.914 316.05 128.727C316.51 127.539 317.272 126.493 318.26 125.69C319.263 124.93 320.448 124.448 321.697 124.294C322.945 124.139 324.212 124.317 325.37 124.81C327.3 125.66 328.77 127.34 330.7 128.17C332.716 128.866 334.871 129.061 336.98 128.74C339.087 128.425 341.236 128.534 343.3 129.06C345.3 129.74 347.12 131.56 347.02 133.68C348.624 134.553 349.968 135.836 350.915 137.398C351.862 138.959 352.378 140.744 352.41 142.57C352.41 146.11 351.03 149.5 349.41 152.65C347.56 156.2 345.18 159.75 341.54 161.42C338.74 162.71 335.54 162.73 332.48 162.67C328.187 162.723 323.901 162.3 319.7 161.41C315.284 160.418 311.255 158.155 308.11 154.9Z" fill="#E0E0E0"/>
<path d="M321.15 170.15C321.47 172.55 322.15 177.93 322.5 180.32C328.5 186.07 340.31 179.4 341.71 175.9C340.59 173.8 338.93 166.41 338.41 164.09C333.17 166.47 326.8 169.05 321.15 170.15Z" fill="#FFA8A7"/>
<path opacity="0.2" d="M321.15 170.15C321.47 172.55 321.93 176.06 322.25 178.45C336.67 174.61 339.87 171.45 338.89 165.88C338.71 165.29 338.55 164.7 338.41 164.1C333.17 166.46 326.8 169.05 321.15 170.15Z" fill="black"/>
<path d="M339.92 164.67C339.947 165.8 339.7 166.919 339.2 167.933C338.7 168.946 337.962 169.824 337.05 170.49C335.226 171.809 333.199 172.822 331.05 173.49C328.222 174.65 325.279 175.504 322.27 176.04C319.233 176.564 316.108 176.105 313.35 174.73C309.99 172.87 307.85 169.3 306.86 165.59C305.87 161.88 305.91 157.99 305.94 154.15C305.887 151.551 306.081 148.952 306.52 146.39C307.05 143.84 308.03 139.28 316.03 135.28C316.23 137.03 318.53 138.04 320.28 138.28C322.053 138.364 323.818 137.996 325.41 137.21C326.997 136.427 328.704 135.917 330.46 135.7C333.72 135.52 336.76 137.7 338.52 140.43C340.28 143.16 334.89 150.69 335.47 153.91C335.556 154.713 335.823 155.485 336.25 156.17C336.473 156.508 336.805 156.759 337.19 156.882C337.576 157.006 337.992 156.995 338.37 156.85C338.95 156.55 339.21 155.85 339.55 155.33C339.945 154.777 340.448 154.311 341.029 153.959C341.61 153.607 342.257 153.377 342.93 153.284C343.603 153.19 344.287 153.235 344.943 153.415C345.598 153.594 346.209 153.906 346.74 154.33C347.737 155.274 348.381 156.532 348.563 157.893C348.745 159.254 348.454 160.637 347.74 161.81C346.26 164.14 342.64 165.05 339.92 164.67Z" fill="#FFA8A7"/>
<path d="M318.5 154.52L312.21 161.48L317.6 163.66L318.5 154.52Z" fill="#F28F8F"/>
<path d="M317 170.44L323.08 168.87C322.724 168.145 322.14 167.556 321.418 167.195C320.695 166.834 319.874 166.72 319.08 166.87C317.61 167.17 316.86 168.92 317 170.44Z" fill="#F28F8F"/>
<path opacity="0.3" d="M317 170.44L323.08 168.87C322.724 168.145 322.14 167.556 321.418 167.195C320.695 166.834 319.874 166.72 319.08 166.87C317.61 167.17 316.86 168.92 317 170.44Z" fill="black"/>
<path d="M326.55 156.47C326.517 156.792 326.389 157.098 326.182 157.347C325.976 157.597 325.7 157.78 325.389 157.873C325.079 157.966 324.748 157.965 324.438 157.87C324.128 157.775 323.853 157.59 323.648 157.339C323.443 157.088 323.317 156.782 323.286 156.46C323.255 156.137 323.32 155.812 323.473 155.527C323.626 155.241 323.861 155.007 324.147 154.855C324.433 154.702 324.757 154.638 325.08 154.67C325.295 154.691 325.503 154.755 325.694 154.857C325.884 154.959 326.052 155.097 326.189 155.265C326.325 155.432 326.428 155.624 326.49 155.831C326.552 156.038 326.572 156.255 326.55 156.47Z" fill="#263238"/>
<path d="M312.89 154.58C312.859 154.903 312.732 155.21 312.527 155.461C312.321 155.712 312.046 155.896 311.735 155.991C311.425 156.085 311.093 156.086 310.782 155.992C310.472 155.898 310.196 155.714 309.99 155.463C309.784 155.212 309.657 154.906 309.625 154.583C309.594 154.26 309.658 153.935 309.811 153.648C309.964 153.362 310.199 153.128 310.485 152.975C310.772 152.822 311.097 152.758 311.42 152.79C311.852 152.833 312.249 153.046 312.525 153.381C312.8 153.717 312.932 154.148 312.89 154.58Z" fill="#263238"/>
<path d="M308.57 147.67L312.92 146.87C312.882 147.346 312.698 147.799 312.394 148.168C312.09 148.536 311.68 148.802 311.22 148.93C310.705 148.988 310.183 148.901 309.715 148.678C309.247 148.455 308.85 148.106 308.57 147.67Z" fill="#E0E0E0"/>
<path d="M329.2 150.5L325.38 148.27C325.256 148.731 325.277 149.219 325.44 149.668C325.603 150.117 325.899 150.505 326.29 150.78C326.753 151.01 327.271 151.106 327.785 151.057C328.3 151.007 328.79 150.814 329.2 150.5Z" fill="#E0E0E0"/>
<path d="M321.73 167.38C321.207 167.385 320.692 167.515 320.23 167.76C319.813 167.994 319.451 168.315 319.17 168.702C318.889 169.088 318.694 169.531 318.6 170L323.05 168.85C322.775 168.233 322.313 167.719 321.73 167.38Z" fill="#F28F8F"/>
<path d="M318.27 152.79C317.61 152.79 316.79 152.65 316.13 152.64C314.388 151.208 312.364 150.161 310.189 149.566C308.014 148.972 305.738 148.843 303.51 149.19L303.21 150.98L304.21 151.54L304.58 156.27C304.631 157.021 304.893 157.741 305.335 158.35C305.777 158.958 306.382 159.43 307.08 159.71L308.38 160.24C309.436 160.668 310.606 160.723 311.697 160.396C312.788 160.069 313.735 159.379 314.38 158.44C315.099 157.421 315.625 156.279 315.93 155.07C315.964 154.892 316.062 154.732 316.206 154.622C316.35 154.511 316.529 154.457 316.71 154.47L317.48 154.54C317.649 154.56 317.806 154.638 317.924 154.76C318.042 154.882 318.115 155.041 318.13 155.21C318.317 156.921 318.794 158.589 319.54 160.14C319.904 160.921 320.463 161.595 321.164 162.096C321.865 162.597 322.683 162.908 323.54 163L324.91 163.12C325.995 163.212 327.08 162.947 328 162.366C328.921 161.784 329.626 160.919 330.01 159.9C330.659 158.226 331.017 156.454 331.07 154.66H332.07L332.28 153.33C329 151.55 321.21 151 318.27 152.79ZM314.63 154.79C314.358 155.838 313.897 156.828 313.27 157.71C312.936 158.198 312.489 158.598 311.966 158.875C311.443 159.152 310.861 159.298 310.27 159.3C309.79 159.297 309.314 159.202 308.87 159.02L307.57 158.49C307.101 158.302 306.695 157.985 306.398 157.576C306.101 157.168 305.925 156.684 305.89 156.18C305.89 156.18 305.43 150.54 305.39 150.33H305.99C309.26 150.249 312.451 151.337 314.99 153.4C314.908 153.869 314.787 154.331 314.63 154.78V154.79ZM328.8 159.45C328.54 160.146 328.075 160.746 327.466 161.171C326.857 161.596 326.133 161.826 325.39 161.83H325.06L323.69 161.7C323.049 161.645 322.434 161.422 321.908 161.054C321.381 160.685 320.961 160.183 320.69 159.6C320.006 158.188 319.569 156.67 319.4 155.11C319.4 154.67 319.27 154.34 319.24 153.77C320.725 153.215 322.306 152.964 323.89 153.03C325.858 153.023 327.818 153.276 329.72 153.78V154.7C329.679 156.32 329.368 157.922 328.8 159.44V159.45Z" fill="#37474F"/>
<path d="M332.34 153.33L340.02 154.67C339.75 155.003 339.502 155.353 339.28 155.72L332.13 154.66L332.34 153.33Z" fill="#37474F"/>
<path opacity="0.1" d="M361.62 186.27L348.62 194.17C352.21 209.33 359.93 225.88 359.93 225.88C359.93 225.88 353.87 242.43 349.82 248.88C345.77 255.33 348.62 258.49 348.62 258.49C348.078 260.08 347.814 261.751 347.84 263.43C355.362 263.012 362.832 261.921 370.16 260.17C380.77 257.76 372.22 222.32 366.16 191.29L361.62 186.27Z" fill="black"/>
<path d="M359.83 262.8L379 234.64C380.252 232.814 381.067 230.724 381.383 228.532C381.699 226.34 381.506 224.105 380.82 222C377.58 212.27 371.9 195 370.75 190.68C369.675 186.417 367.238 182.621 363.808 179.87C360.379 177.119 356.145 175.564 351.75 175.44C336.62 174.24 365.75 226.78 365.75 226.78L350.75 258.12C349.555 260.623 348.895 263.348 348.81 266.12L348.46 277.32C348.435 277.922 348.562 278.52 348.83 279.06C350.643 282.791 353.796 285.701 357.66 287.21C358.024 287.344 358.422 287.359 358.796 287.253C359.169 287.147 359.5 286.925 359.74 286.62C359.913 286.399 360.033 286.142 360.091 285.867C360.15 285.592 360.144 285.308 360.076 285.036C360.007 284.764 359.877 284.511 359.696 284.297C359.515 284.083 359.287 283.913 359.03 283.8C356.942 282.884 355.164 281.384 353.91 279.48L359.08 281.26C359.536 281.416 360.024 281.458 360.5 281.381C360.976 281.304 361.426 281.112 361.81 280.82L366.28 277.41C366.776 277.036 367.13 276.503 367.28 275.9L367.77 273.79C367.84 273.475 367.834 273.148 367.751 272.836C367.668 272.525 367.51 272.238 367.292 272C367.074 271.762 366.802 271.581 366.498 271.471C366.195 271.361 365.87 271.327 365.55 271.37L363.5 271.67C363.74 265 359.83 262.8 359.83 262.8Z" fill="#FFA8A7"/>
<path opacity="0.2" d="M363.56 271.63V275.57L364.13 274.81C364.467 274.361 364.619 273.8 364.556 273.242C364.492 272.685 364.218 272.172 363.79 271.81L363.56 271.63Z" fill="black"/>
<path opacity="0.2" d="M360 250.73C357.986 250.393 355.919 250.583 354 251.28L351.59 256.28C356.83 255.49 360.35 257.71 361.4 260.35L365.95 253.67C364.287 252.143 362.223 251.123 360 250.73Z" fill="black"/>
<path d="M351.77 175.39C339.21 175.39 349.77 197.17 351.77 201.5C353.77 205.83 361.39 222.26 363.56 225.85C363.56 225.85 353.98 248.59 351.66 252.33C349.34 256.07 350.83 258.07 350.83 258.07L352.03 255.56C358.32 253.83 361.44 256.17 362.53 258.84L361.08 261C364.93 261.29 365.01 258.38 368.08 254L380.44 236.56C381.935 234.455 382.927 232.036 383.341 229.487C383.756 226.939 383.581 224.33 382.83 221.86C379.83 212.04 374.92 195.92 373.11 190.29C370.43 182 364.92 175.39 351.77 175.39Z" fill="#FB8500"/>
<path opacity="0.2" d="M351.77 175.39C339.21 175.39 349.77 197.17 351.77 201.5C353.77 205.83 361.39 222.26 363.56 225.85C363.56 225.85 353.98 248.59 351.66 252.33C349.34 256.07 350.83 258.07 350.83 258.07L352.03 255.56C358.32 253.83 361.44 256.17 362.53 258.84L361.08 261C364.93 261.29 365.01 258.38 368.08 254L380.44 236.56C381.935 234.455 382.927 232.036 383.341 229.487C383.756 226.939 383.581 224.33 382.83 221.86C379.83 212.04 374.92 195.92 373.11 190.29C370.43 182 364.92 175.39 351.77 175.39Z" fill="black"/>
<path opacity="0.2" d="M363.56 225.85C367.49 223.65 372.66 225.51 373.56 227.17C369.29 218.07 364.16 222.8 363 224.85L363.56 225.85Z" fill="black"/>
<path d="M247.65 257.23C247.51 257.039 247.424 256.814 247.401 256.578C247.378 256.342 247.419 256.104 247.52 255.89C247.711 255.435 248.013 255.036 248.4 254.73C248.8 254.4 249.26 254.11 249.71 253.73C250.22 253.301 250.554 252.699 250.65 252.04C250.73 251.37 250.65 250.76 250.65 250.26C250.66 250.054 250.733 249.855 250.86 249.692C250.988 249.529 251.162 249.41 251.36 249.35C251.81 249.19 252.44 249.18 253.12 248.99C253.484 248.884 253.824 248.708 254.12 248.47C254.404 248.216 254.638 247.91 254.81 247.57C255.45 246.27 255.44 244.99 255.93 244.07C256.029 243.866 256.169 243.685 256.341 243.537C256.513 243.389 256.714 243.278 256.93 243.21C257.456 243.113 257.994 243.113 258.52 243.21C259.106 243.296 259.698 243.326 260.29 243.3C260.869 243.259 261.439 243.131 261.98 242.92C262.952 242.547 263.803 241.914 264.44 241.09C263.659 241.775 262.718 242.251 261.704 242.475C260.69 242.699 259.636 242.663 258.64 242.37C258.007 242.224 257.352 242.201 256.71 242.3C256.346 242.381 256.002 242.538 255.703 242.76C255.403 242.982 255.153 243.265 254.97 243.59C254.28 244.83 254.26 246.16 253.77 247.08C253.679 247.293 253.542 247.483 253.37 247.637C253.197 247.791 252.992 247.904 252.77 247.97C252.27 248.13 251.64 248.14 250.94 248.4C250.559 248.541 250.228 248.791 249.99 249.12C249.775 249.452 249.654 249.835 249.64 250.23C249.64 250.93 249.76 251.5 249.74 252C249.74 253 248.74 253.65 247.99 254.44C247.6 254.843 247.327 255.344 247.2 255.89C247.146 256.133 247.159 256.386 247.239 256.622C247.318 256.859 247.46 257.069 247.65 257.23Z" fill="#FB8500"/>
<path d="M267.72 271.78C268.645 272.239 269.679 272.436 270.708 272.35C271.738 272.263 272.724 271.897 273.56 271.29C274.04 270.943 274.468 270.529 274.83 270.06C275.186 269.571 275.465 269.032 275.66 268.46C275.888 267.425 276.327 266.448 276.95 265.59C277.57 264.92 278.67 265.01 279.88 264.86C280.53 264.791 281.144 264.526 281.64 264.1C282.099 263.68 282.443 263.15 282.64 262.56C283.04 261.48 283.11 260.44 283.51 259.56C283.649 259.128 283.904 258.744 284.249 258.449C284.593 258.154 285.012 257.961 285.46 257.89C284.97 257.879 284.488 258.01 284.071 258.268C283.654 258.525 283.32 258.897 283.11 259.34C282.65 260.276 282.253 261.242 281.92 262.23C281.736 262.675 281.452 263.072 281.09 263.39C280.706 263.667 280.252 263.829 279.78 263.86C279.27 263.91 278.7 263.86 278.07 263.98C277.386 264.04 276.744 264.333 276.25 264.81C275.497 265.776 274.987 266.907 274.76 268.11C274.485 269.098 273.912 269.978 273.12 270.63C272.385 271.252 271.507 271.683 270.564 271.883C269.622 272.084 268.645 272.049 267.72 271.78Z" fill="#FB8500"/>
<path d="M257.13 273.28C257.322 273.705 257.598 274.086 257.942 274.4C258.286 274.715 258.69 274.956 259.13 275.11C259.632 275.306 260.172 275.388 260.71 275.35C261.247 275.312 261.77 275.155 262.24 274.89C262.663 274.632 263.108 274.411 263.57 274.23C264 274.1 264.46 274.1 264.89 274.23C265.81 274.48 266.77 275.14 267.94 275.41C269.052 275.684 270.212 275.696 271.329 275.447C272.446 275.197 273.491 274.691 274.38 273.97C275.132 273.348 275.745 272.576 276.181 271.702C276.616 270.829 276.865 269.875 276.91 268.9C276.484 270.704 275.418 272.293 273.91 273.37C273.084 273.945 272.145 274.338 271.155 274.522C270.165 274.707 269.148 274.679 268.17 274.44C267.17 274.23 266.28 273.62 265.11 273.32C264.501 273.165 263.86 273.196 263.27 273.41C262.772 273.633 262.3 273.908 261.86 274.23C261.099 274.706 260.185 274.873 259.306 274.696C258.426 274.52 257.647 274.013 257.13 273.28Z" fill="#FB8500"/>
<path d="M286.67 221.87C287.229 221.645 287.712 221.263 288.058 220.77C288.404 220.276 288.599 219.693 288.62 219.09C288.636 217.759 288.338 216.444 287.75 215.25C287.177 214.123 286.882 212.875 286.89 211.61C286.97 210.44 287.89 209.47 288.8 208.42C289.315 207.881 289.764 207.284 290.14 206.64C290.508 205.947 290.723 205.183 290.77 204.4C290.774 202.992 290.575 201.591 290.18 200.24C289.837 199.063 289.735 197.828 289.88 196.61C289.926 196.055 290.103 195.519 290.397 195.046C290.691 194.573 291.093 194.177 291.57 193.89C291.008 194.1 290.509 194.449 290.117 194.903C289.726 195.358 289.455 195.903 289.33 196.49C289.007 197.777 288.973 199.119 289.23 200.42C289.502 201.695 289.62 202.997 289.58 204.3C289.401 205.56 288.785 206.718 287.84 207.57C287.337 208.104 286.875 208.675 286.46 209.28C286.012 209.946 285.746 210.719 285.69 211.52C285.717 212.973 286.124 214.393 286.87 215.64C287.499 216.689 287.904 217.857 288.06 219.07C288.108 219.619 288.004 220.171 287.758 220.665C287.513 221.159 287.137 221.576 286.67 221.87Z" fill="#FB8500"/>
<path d="M308.39 173.73C308.187 173.442 307.912 173.213 307.593 173.066C307.273 172.918 306.92 172.858 306.57 172.89C305.791 172.979 305.05 173.273 304.42 173.74C303.807 174.192 303.134 174.555 302.42 174.82C301.671 174.968 300.895 174.892 300.19 174.6C299.72 174.505 299.234 174.536 298.78 174.69C298.343 174.851 297.952 175.115 297.64 175.46C297.06 176.089 296.654 176.857 296.46 177.69C296.1 179.24 296.1 180.69 295.53 181.83C296.32 180.83 296.53 179.27 297 177.83C297.222 177.117 297.614 176.469 298.14 175.94C298.375 175.679 298.674 175.484 299.007 175.376C299.341 175.267 299.697 175.248 300.04 175.32C300.41 175.39 300.8 175.53 301.26 175.6C301.72 175.671 302.19 175.63 302.63 175.48C303.4 175.165 304.112 174.726 304.74 174.18C305.277 173.706 305.917 173.363 306.61 173.18C306.929 173.112 307.26 173.127 307.572 173.223C307.883 173.32 308.165 173.494 308.39 173.73Z" fill="#FB8500"/>
<path d="M294.75 175.6C294.904 174.821 295.181 174.072 295.57 173.38C295.789 173.014 296.11 172.718 296.493 172.53C296.876 172.342 297.306 172.269 297.73 172.32C298.61 172.37 299.49 172.77 300.4 172.86C300.813 172.942 301.242 172.905 301.635 172.753C302.028 172.601 302.37 172.339 302.62 172C302.335 172.269 301.986 172.461 301.606 172.557C301.227 172.653 300.829 172.651 300.45 172.55C299.568 172.274 298.67 172.054 297.76 171.89C297.253 171.838 296.742 171.935 296.29 172.17C295.872 172.407 295.527 172.753 295.29 173.17C294.928 173.929 294.743 174.76 294.75 175.6Z" fill="#FB8500"/>
<path d="M381.91 242.37C383.135 241.971 384.32 241.458 385.45 240.84C386.771 240.152 387.878 239.114 388.65 237.84C389.051 237.117 389.287 236.315 389.34 235.49C389.38 234.683 389.323 233.874 389.17 233.08C388.786 231.677 388.691 230.211 388.89 228.77C389.19 227.46 390.22 226.19 390.62 224.48C390.821 223.61 390.751 222.699 390.42 221.87C390.098 221.137 389.659 220.461 389.12 219.87C388.118 218.896 387.17 217.867 386.28 216.79C385.877 216.32 385.589 215.763 385.438 215.162C385.287 214.562 385.277 213.935 385.41 213.33C385.147 213.94 385.041 214.606 385.1 215.268C385.16 215.93 385.383 216.566 385.75 217.12C386.504 218.326 387.353 219.47 388.29 220.54C388.731 221.029 389.052 221.615 389.226 222.251C389.399 222.887 389.421 223.554 389.29 224.2C388.97 225.49 387.92 226.73 387.47 228.46C387.22 230.096 387.339 231.767 387.82 233.35C388.214 234.664 388.158 236.072 387.66 237.35C387.057 238.548 386.167 239.579 385.07 240.35C384.057 241.085 383.002 241.76 381.91 242.37Z" fill="#FB8500"/>
<path d="M382.21 251C381.6 249.3 382.5 247.23 384.1 246C385.7 244.77 387.91 243.9 389.8 242.36C390.786 241.584 391.532 240.543 391.95 239.36C392.326 238.241 392.453 237.053 392.32 235.88C391.999 233.876 391.322 231.945 390.32 230.18C390.943 232.042 391.339 233.973 391.5 235.93C391.539 236.976 391.369 238.02 391 239C390.593 239.98 389.938 240.838 389.1 241.49C387.42 242.89 385.19 243.76 383.55 245.36C382.733 246.11 382.146 247.078 381.86 248.15C381.728 248.625 381.69 249.121 381.751 249.61C381.811 250.099 381.967 250.571 382.21 251Z" fill="#FB8500"/>
<path d="M366.61 284.62C367.753 284.557 368.854 284.164 369.78 283.49C370.85 282.721 371.637 281.621 372.02 280.36C372.443 278.987 372.393 277.512 371.88 276.17C371.33 274.83 370.48 273.74 370.78 272.77C370.988 272.177 371.263 271.61 371.6 271.08C372.012 270.385 372.165 269.567 372.03 268.77C371.603 267.386 370.69 266.203 369.46 265.44C368.466 264.844 367.683 263.953 367.22 262.89C367.038 262.395 367.059 261.849 367.278 261.369C367.497 260.89 367.897 260.516 368.39 260.33C368.11 260.351 367.84 260.441 367.604 260.593C367.368 260.745 367.174 260.954 367.04 261.2C366.727 261.741 366.6 262.37 366.68 262.99C367.025 264.261 367.794 265.376 368.86 266.15C369.815 266.847 370.518 267.838 370.86 268.97C370.922 269.511 370.791 270.056 370.49 270.51C370.089 271.132 369.773 271.805 369.55 272.51C369.375 273.313 369.488 274.152 369.87 274.88C370.18 275.54 370.54 276.1 370.77 276.65C371.243 277.757 371.355 278.985 371.09 280.16C370.825 281.243 370.267 282.232 369.476 283.019C368.686 283.806 367.694 284.36 366.61 284.62Z" fill="#FB8500"/>
<path d="M343.55 277.84C342.617 276.899 342.08 275.635 342.05 274.31C342.021 273.625 342.144 272.942 342.41 272.31C342.732 271.657 343.131 271.046 343.6 270.49C344.208 269.787 344.56 268.899 344.6 267.97C344.514 267.025 344.137 266.131 343.52 265.41C343.023 264.834 342.594 264.203 342.24 263.53C342.117 263.274 342.072 262.988 342.111 262.707C342.15 262.426 342.272 262.162 342.46 261.95C342.989 261.366 343.553 260.815 344.15 260.3C344.505 259.956 344.8 259.553 345.02 259.11C345.249 258.62 345.339 258.077 345.28 257.54C345.117 256.637 344.74 255.787 344.18 255.06C343.739 254.474 343.386 253.827 343.13 253.14C342.92 252.49 342.854 251.802 342.935 251.124C343.016 250.445 343.243 249.792 343.6 249.21C344.316 248.093 345.432 247.291 346.72 246.97C346.016 247.008 345.328 247.192 344.7 247.51C344.072 247.829 343.516 248.275 343.07 248.82C342.561 249.462 342.206 250.213 342.033 251.014C341.86 251.815 341.872 252.645 342.07 253.44C342.48 255.18 343.85 256.44 343.91 257.67C343.91 257.975 343.841 258.275 343.708 258.549C343.574 258.823 343.38 259.063 343.14 259.25C342.478 259.798 341.86 260.397 341.29 261.04C340.953 261.469 340.736 261.98 340.66 262.52C340.595 263.066 340.681 263.62 340.91 264.12C341.325 264.897 341.836 265.619 342.43 266.27C342.902 266.754 343.222 267.366 343.35 268.03C343.331 268.691 343.107 269.331 342.71 269.86C342.248 270.522 341.874 271.241 341.6 272C341.28 273.057 341.301 274.188 341.66 275.233C342.019 276.278 342.698 277.183 343.6 277.82L343.55 277.84Z" fill="#FB8500"/>
<path d="M350.83 243.48C350.657 243.095 350.568 242.677 350.568 242.255C350.568 241.833 350.657 241.415 350.83 241.03C351.2 240.174 351.722 239.391 352.37 238.72C353.114 237.959 353.747 237.098 354.25 236.16C354.692 235.098 354.801 233.925 354.56 232.8C354.33 231.817 354.286 230.799 354.43 229.8C354.724 228.933 355.345 228.216 356.16 227.8C357.03 227.331 357.82 226.727 358.5 226.01C358.823 225.69 359.05 225.287 359.156 224.845C359.262 224.404 359.243 223.941 359.1 223.51C359.157 223.926 359.102 224.349 358.942 224.738C358.783 225.126 358.523 225.465 358.19 225.72C357.458 226.311 356.651 226.802 355.79 227.18C355.31 227.425 354.866 227.735 354.47 228.1C354.035 228.509 353.718 229.027 353.55 229.6C353.33 230.701 353.347 231.836 353.6 232.93C353.823 233.878 353.757 234.87 353.41 235.78C352.976 236.669 352.435 237.502 351.8 238.26C351.167 239.034 350.697 239.929 350.42 240.89C350.288 241.325 350.256 241.784 350.327 242.232C350.398 242.681 350.57 243.108 350.83 243.48Z" fill="#FB8500"/>
<path d="M353.84 215.79C353.619 215.714 353.421 215.582 353.267 215.407C353.112 215.232 353.007 215.019 352.96 214.79C352.836 214.314 352.799 213.819 352.85 213.33C352.911 212.741 352.821 212.145 352.59 211.6C352.258 211.034 351.727 210.613 351.1 210.42C349.97 210.02 348.73 209.85 348.45 209.03C348.299 208.565 348.299 208.065 348.45 207.6C348.58 207.08 348.83 206.53 349.02 205.9C349.256 205.223 349.277 204.489 349.08 203.8C348.835 203.142 348.408 202.566 347.85 202.14C346.9 201.34 345.85 200.76 345.63 199.86C345.41 198.96 345.98 197.96 346.4 196.99C346.624 196.503 346.749 195.976 346.77 195.44C346.784 195.19 346.746 194.94 346.658 194.706C346.57 194.472 346.435 194.259 346.26 194.08C346.47 194.51 346.554 194.991 346.503 195.467C346.452 195.943 346.267 196.394 345.97 196.77C345.71 197.21 345.39 197.66 345.14 198.19C344.832 198.755 344.72 199.405 344.82 200.04C344.968 200.694 345.318 201.285 345.82 201.73C346.27 202.18 346.75 202.54 347.16 202.92C347.578 203.207 347.883 203.63 348.025 204.116C348.168 204.603 348.137 205.123 347.94 205.59C347.66 206.59 346.88 207.95 347.47 209.45C347.637 209.775 347.87 210.061 348.154 210.29C348.438 210.519 348.767 210.686 349.12 210.78C349.73 210.98 350.31 211.06 350.81 211.21C351.293 211.311 351.719 211.594 352 212C352.234 212.434 352.36 212.917 352.37 213.41C352.386 213.941 352.505 214.464 352.72 214.95C352.818 215.175 352.973 215.37 353.169 215.518C353.365 215.665 353.597 215.759 353.84 215.79Z" fill="#FB8500"/>
<path d="M349.75 238.19C349.692 237.63 349.841 237.067 350.17 236.61C350.535 236.1 350.944 235.621 351.39 235.18C351.894 234.66 352.241 234.008 352.39 233.3C352.451 232.544 352.303 231.786 351.96 231.11C351.66 230.521 351.447 229.891 351.33 229.24C351.31 228.94 351.356 228.64 351.465 228.36C351.574 228.08 351.743 227.827 351.96 227.62C352.406 227.182 352.884 226.777 353.39 226.41C353.86 226.03 354.31 225.67 354.72 225.32C354.25 225.58 353.72 225.87 353.23 226.18C352.66 226.495 352.121 226.863 351.62 227.28C351.33 227.524 351.1 227.831 350.945 228.178C350.791 228.524 350.718 228.901 350.73 229.28C350.819 230.009 351.035 230.716 351.37 231.37C351.664 231.942 351.811 232.577 351.8 233.22C351.678 233.836 351.395 234.409 350.98 234.88C350.556 235.369 350.19 235.906 349.89 236.48C349.755 236.742 349.674 237.028 349.65 237.321C349.626 237.614 349.66 237.91 349.75 238.19Z" fill="#FB8500"/>
<path d="M376.26 193.44C376.565 193.085 376.794 192.671 376.931 192.223C377.069 191.776 377.113 191.305 377.06 190.84C377.014 190.315 376.854 189.806 376.59 189.35C376.302 188.875 375.917 188.466 375.46 188.15C375.059 187.864 374.696 187.528 374.38 187.15C374.259 186.985 374.175 186.796 374.135 186.596C374.096 186.395 374.101 186.188 374.15 185.99C374.33 185.07 375.09 184.21 375.36 182.93C375.433 182.601 375.433 182.259 375.36 181.93C375.258 181.577 375.061 181.258 374.79 181.01C374.297 180.61 373.707 180.348 373.08 180.25C371.98 180.02 371.08 179.86 370.62 179.03C370.16 178.2 369.92 177.12 369.13 176.39C368.34 175.66 366.87 175.86 366.75 176.8C366.828 176.602 366.967 176.435 367.147 176.321C367.327 176.208 367.538 176.155 367.75 176.17C367.959 176.163 368.166 176.206 368.354 176.297C368.542 176.388 368.705 176.522 368.83 176.69C369.4 177.37 369.48 178.37 369.98 179.4C370.252 179.956 370.707 180.402 371.27 180.66C371.79 180.878 372.329 181.049 372.88 181.17C373.337 181.25 373.766 181.442 374.13 181.73C374.266 181.866 374.365 182.036 374.415 182.222C374.466 182.407 374.468 182.603 374.42 182.79C374.26 183.69 373.51 184.62 373.27 185.85C373.209 186.179 373.22 186.518 373.303 186.843C373.386 187.167 373.538 187.47 373.75 187.73C374.138 188.127 374.583 188.464 375.07 188.73C375.458 188.961 375.796 189.266 376.066 189.627C376.336 189.989 376.532 190.4 376.643 190.838C376.753 191.276 376.776 191.731 376.711 192.177C376.645 192.624 376.492 193.053 376.26 193.44Z" fill="#FB8500"/>
<path d="M379.35 202.05C379.53 201.714 379.641 201.346 379.677 200.966C379.713 200.587 379.673 200.204 379.56 199.84C379.326 199.04 378.99 198.274 378.56 197.56C378.065 196.889 377.798 196.078 377.798 195.245C377.798 194.412 378.065 193.601 378.56 192.93C379.062 192.105 379.344 191.165 379.38 190.2C379.265 189.241 378.785 188.364 378.04 187.75C377.432 187.248 376.924 186.638 376.54 185.95C376.382 185.633 376.327 185.275 376.383 184.925C376.438 184.576 376.602 184.252 376.85 184C376.532 184.228 376.297 184.554 376.18 184.927C376.063 185.3 376.07 185.701 376.2 186.07C376.504 186.863 376.978 187.58 377.59 188.17C378.158 188.715 378.513 189.446 378.59 190.23C378.507 191.06 378.237 191.86 377.8 192.57C377.305 193.399 377.036 194.344 377.02 195.31C377.121 196.237 377.466 197.12 378.02 197.87C378.49 198.521 378.892 199.218 379.22 199.95C379.525 200.609 379.571 201.358 379.35 202.05Z" fill="#FB8500"/>
<path d="M346.81 283.4C345.526 282.637 344.284 281.806 343.09 280.91C341.77 279.924 340.749 278.591 340.14 277.06C339.679 275.482 339.711 273.8 340.23 272.24C340.65 270.67 341.06 269.17 341.34 267.86C340.8 269.09 340.21 270.5 339.66 272.07C338.963 273.735 338.867 275.592 339.39 277.32C340.038 279 341.209 280.426 342.73 281.39C344.01 282.212 345.378 282.886 346.81 283.4Z" fill="#FB8500"/>
<path d="M303.1 387.48C302.591 387.103 302.222 386.567 302.052 385.956C301.882 385.346 301.92 384.696 302.16 384.11C302.57 382.84 303.55 381.77 304.32 380.33C304.73 379.562 304.959 378.71 304.99 377.84C304.994 376.885 304.637 375.963 303.99 375.26C303.4 374.59 302.75 374.1 302.3 373.56C302.088 373.347 301.926 373.089 301.828 372.805C301.729 372.521 301.696 372.219 301.73 371.92C301.892 371.246 302.203 370.618 302.64 370.08C303.142 369.42 303.597 368.725 304 368C304.444 367.167 304.589 366.207 304.41 365.28C304.227 364.453 303.887 363.669 303.41 362.97C302.53 361.66 301.57 360.58 301.33 359.29C301.175 358.681 301.266 358.036 301.585 357.495C301.903 356.953 302.423 356.56 303.03 356.4C302.692 356.389 302.357 356.465 302.057 356.619C301.756 356.772 301.499 357 301.31 357.28C300.855 357.878 300.632 358.62 300.68 359.37C300.78 360.93 301.76 362.27 302.45 363.54C302.813 364.157 303.061 364.834 303.18 365.54C303.262 366.189 303.125 366.847 302.79 367.41C302.389 368.066 301.948 368.698 301.47 369.3C300.88 370.019 300.472 370.87 300.28 371.78C300.208 372.305 300.263 372.84 300.44 373.34C300.618 373.802 300.883 374.227 301.22 374.59C301.84 375.27 302.49 375.74 302.98 376.26C303.451 376.697 303.734 377.299 303.77 377.94C303.783 378.628 303.647 379.31 303.37 379.94C302.632 381.236 302.036 382.607 301.59 384.03C301.452 384.751 301.522 385.497 301.79 386.18C301.91 386.474 302.088 386.74 302.313 386.963C302.538 387.187 302.806 387.362 303.1 387.48Z" fill="#FB8500"/>
<path d="M304.43 342.5C303.993 342.637 303.592 342.868 303.255 343.177C302.918 343.487 302.653 343.867 302.48 344.29C302.093 345.24 301.952 346.271 302.07 347.29C302.14 348.29 302.35 349.35 302.38 350.36C302.469 351.328 302.245 352.299 301.74 353.13C301.22 353.91 300.28 354.5 299.56 355.42C298.871 356.345 298.55 357.492 298.66 358.64C298.94 360.534 299.751 362.309 301 363.76C300.32 362.28 299.37 360.54 299.39 358.62C299.372 357.67 299.687 356.743 300.28 356C301.076 355.27 301.833 354.499 302.55 353.69C303.175 352.681 303.439 351.489 303.3 350.31C303.22 349.19 302.95 348.18 302.8 347.2C302.613 346.286 302.644 345.34 302.89 344.44C302.999 344.028 303.192 343.643 303.457 343.309C303.722 342.975 304.053 342.7 304.43 342.5Z" fill="#FB8500"/>
<path d="M284.94 411.5C284.297 410.631 283.947 409.581 283.94 408.5C283.933 407.36 284.337 406.255 285.08 405.39C285.96 404.528 287.028 403.881 288.2 403.5C288.889 403.179 289.495 402.703 289.97 402.11C290.227 401.777 290.408 401.391 290.5 400.98C290.575 400.608 290.609 400.229 290.6 399.85C290.533 399.292 290.601 398.726 290.8 398.2C291 397.86 291.41 397.73 292.01 397.75C292.61 397.77 293.26 397.91 294.01 397.89C294.715 397.872 295.41 397.723 296.06 397.45C297.282 396.96 298.282 396.038 298.87 394.86C299.382 393.841 299.551 392.683 299.35 391.56C299.343 392.667 298.99 393.744 298.341 394.64C297.692 395.537 296.779 396.208 295.73 396.56C295.176 396.743 294.593 396.828 294.01 396.81C293.45 396.81 292.82 396.62 292.08 396.57C291.676 396.528 291.268 396.569 290.88 396.69C290.429 396.832 290.042 397.13 289.79 397.53C289.438 398.235 289.299 399.027 289.39 399.81C289.447 400.358 289.313 400.909 289.01 401.37C288.652 401.821 288.197 402.186 287.68 402.44C287.13 402.74 286.52 403.01 285.92 403.37C285.316 403.738 284.789 404.22 284.37 404.79C283.567 405.854 283.208 407.187 283.37 408.51C283.524 409.661 284.08 410.72 284.94 411.5Z" fill="#FB8500"/>
<path d="M290.46 395.74C290.033 395.554 289.551 395.541 289.115 395.703C288.678 395.866 288.322 396.191 288.12 396.61C287.729 397.532 287.395 398.477 287.12 399.44C286.95 399.868 286.653 400.234 286.27 400.49C285.866 400.705 285.441 400.876 285 401C284.539 401.127 284.111 401.356 283.75 401.67C283.581 401.807 283.447 401.981 283.356 402.179C283.266 402.377 283.223 402.593 283.23 402.81C283.33 401.99 284.23 401.52 285.1 401.33C285.599 401.23 286.083 401.065 286.54 400.84C287.012 400.544 287.38 400.106 287.59 399.59C288.02 398.59 288.04 397.59 288.46 396.75C288.618 396.37 288.906 396.06 289.273 395.875C289.64 395.689 290.061 395.642 290.46 395.74Z" fill="#FB8500"/>
<path d="M335.17 402.6C335.783 402.21 336.237 401.615 336.45 400.92C336.676 400.182 336.768 399.41 336.72 398.64C336.64 397.05 336.18 395.48 336.44 394.03C336.55 393.331 336.905 392.693 337.44 392.23C337.99 391.7 338.71 391.23 339.39 390.48C339.768 390.071 340.043 389.577 340.19 389.04C340.324 388.465 340.286 387.863 340.08 387.31C339.694 386.476 339.232 385.679 338.7 384.93C338.514 384.705 338.401 384.428 338.376 384.137C338.351 383.846 338.415 383.554 338.56 383.3C339.088 382.725 339.694 382.227 340.36 381.82C340.77 381.526 341.134 381.172 341.44 380.77C341.759 380.32 341.958 379.798 342.02 379.25C342.084 378.27 341.832 377.296 341.3 376.47C340.3 374.9 339 374.01 338.3 372.76C337.6 371.51 337.53 369.87 338.68 369.06C338.353 369.217 338.068 369.451 337.851 369.742C337.633 370.033 337.489 370.372 337.43 370.73C337.266 371.516 337.35 372.334 337.67 373.07C338.3 374.58 339.61 375.73 340.26 377.07C340.594 377.68 340.734 378.378 340.66 379.07C340.588 379.395 340.447 379.7 340.244 379.965C340.042 380.229 339.785 380.446 339.49 380.6C338.651 381.071 337.9 381.683 337.27 382.41C336.917 382.918 336.747 383.532 336.79 384.15C336.841 384.708 337.022 385.246 337.32 385.72C337.794 386.402 338.225 387.114 338.61 387.85C338.719 388.131 338.744 388.437 338.682 388.732C338.62 389.027 338.473 389.297 338.26 389.51C337.8 390.07 337.1 390.59 336.46 391.27C335.772 391.974 335.345 392.891 335.25 393.87C335.1 395.74 335.78 397.28 336.03 398.71C336.28 400.14 336.21 401.66 335.17 402.6Z" fill="#FB8500"/>
<path d="M338 348.39C338.727 347.642 339.291 346.75 339.656 345.772C340.021 344.795 340.179 343.752 340.12 342.71C340.042 341.517 339.7 340.355 339.12 339.31C338.521 338.426 338.21 337.378 338.23 336.31C338.558 335.225 338.949 334.16 339.4 333.12C339.682 331.9 339.497 330.619 338.88 329.53C338.358 328.62 337.894 327.678 337.49 326.71C337.31 326.279 337.217 325.817 337.217 325.35C337.217 324.883 337.31 324.421 337.49 323.99C337.223 324.409 337.049 324.88 336.978 325.371C336.908 325.862 336.942 326.363 337.08 326.84C337.359 327.87 337.727 328.874 338.18 329.84C338.639 330.771 338.745 331.837 338.48 332.84C337.959 333.91 337.534 335.025 337.21 336.17C337.161 337.45 337.533 338.712 338.27 339.76C338.832 340.675 339.2 341.696 339.35 342.76C339.601 344.738 339.121 346.741 338 348.39Z" fill="#FB8500"/>
<path d="M303.14 316.54C302.369 315.786 301.911 314.768 301.86 313.69C301.776 312.531 301.983 311.369 302.46 310.31C303.35 308.07 305.17 305.89 305.66 302.99C305.785 302.262 305.785 301.518 305.66 300.79C305.512 300.107 305.305 299.437 305.04 298.79C304.478 297.732 304.315 296.508 304.58 295.34C304.9 294.22 305.58 293.17 305.96 291.99C306.171 291.457 306.238 290.878 306.154 290.311C306.069 289.743 305.837 289.209 305.48 288.76C305.736 289.228 305.869 289.752 305.869 290.285C305.869 290.818 305.736 291.342 305.48 291.81C305.04 292.81 304.23 293.81 303.74 295.05C303.477 295.72 303.388 296.446 303.48 297.16C303.578 297.843 303.749 298.513 303.99 299.16C304.206 299.753 304.376 300.361 304.5 300.98C304.595 301.576 304.595 302.184 304.5 302.78C304.12 305.25 302.45 307.47 301.65 309.98C301.217 311.192 301.12 312.498 301.37 313.76C301.465 314.318 301.67 314.852 301.974 315.329C302.278 315.806 302.674 316.218 303.14 316.54Z" fill="#FB8500"/>
<path d="M370.7 397.31C370.797 396.694 370.646 396.065 370.28 395.56C369.895 395.013 369.405 394.548 368.84 394.19C367.73 393.47 366.41 392.89 365.94 391.78C365.47 390.67 365.71 389.28 365.94 387.78C366.078 386.995 366.128 386.196 366.09 385.4C366.027 384.494 365.677 383.633 365.09 382.94C363.83 381.58 362.22 381.27 361.22 380.46C360.74 380.044 360.374 379.513 360.157 378.916C359.94 378.319 359.879 377.677 359.98 377.05C360.167 375.652 360.092 374.231 359.76 372.86C359.29 371.53 357.95 370.55 356.76 370.86C357.347 370.885 357.907 371.114 358.345 371.506C358.782 371.898 359.07 372.429 359.16 373.01C359.319 374.34 359.265 375.687 359 377C358.895 377.776 358.929 378.565 359.1 379.33C359.298 380.182 359.777 380.943 360.46 381.49C361.78 382.54 363.31 382.93 364.1 383.87C364.89 384.81 364.84 386.18 364.67 387.63C364.575 388.383 364.522 389.141 364.51 389.9C364.486 390.713 364.672 391.519 365.05 392.24C365.448 392.92 366.035 393.469 366.74 393.82C367.37 394.18 368 394.42 368.57 394.69C369.63 395.24 370.7 396.1 370.7 397.31Z" fill="#FB8500"/>
<path d="M399.92 379C400.369 378.435 400.587 377.72 400.53 377C400.48 376.232 400.28 375.481 399.94 374.79C399.25 373.36 398.15 372.15 397.73 370.74C397.31 369.33 397.98 368.05 398.73 366.46C399.222 365.582 399.461 364.585 399.42 363.58C399.363 363.021 399.175 362.483 398.87 362.01C398.568 361.575 398.192 361.196 397.76 360.89C396.13 359.78 394.42 359.38 393.56 358.26C392.717 356.962 392.269 355.447 392.27 353.9C392.259 352.257 391.879 350.637 391.16 349.16C390.757 348.489 390.198 347.927 389.53 347.52C388.914 347.143 388.182 347.001 387.47 347.12C388.153 347.18 388.805 347.434 389.349 347.852C389.893 348.27 390.306 348.835 390.54 349.48C391.009 350.924 391.193 352.446 391.08 353.96C390.945 355.794 391.401 357.623 392.38 359.18C393.68 360.85 395.63 361.28 396.82 362.18C397.091 362.353 397.321 362.583 397.493 362.855C397.666 363.126 397.778 363.431 397.82 363.75C397.844 364.478 397.675 365.199 397.33 365.84C396.941 366.636 396.607 367.458 396.33 368.3C396.067 369.234 396.12 370.229 396.48 371.13C397.18 372.84 398.48 373.92 399.21 375.13C399.94 376.34 400.59 377.82 399.92 379Z" fill="#FB8500"/>
<path d="M402.17 372C401.825 371.884 401.515 371.683 401.269 371.416C401.022 371.148 400.847 370.823 400.76 370.47C400.568 369.708 400.628 368.905 400.93 368.18C401.21 367.4 401.65 366.64 402.03 365.78C402.466 364.883 402.643 363.882 402.54 362.89C402.334 361.888 401.764 360.997 400.94 360.39C400.22 359.835 399.446 359.352 398.63 358.95C397.16 358.16 395.79 357.15 395.53 355.71C395.547 356.493 395.841 357.244 396.36 357.83C396.92 358.481 397.578 359.041 398.31 359.49C399.054 359.935 399.763 360.436 400.43 360.99C401.074 361.489 401.526 362.196 401.71 362.99C401.788 363.828 401.647 364.673 401.3 365.44C400.922 366.258 400.588 367.096 400.3 367.95C400.018 368.803 400.05 369.728 400.39 370.56C400.525 370.941 400.763 371.277 401.077 371.531C401.391 371.785 401.769 371.948 402.17 372Z" fill="#FB8500"/>
<path d="M376.08 326.16C377.099 325.515 377.93 324.612 378.489 323.542C379.047 322.473 379.313 321.275 379.26 320.07C379.244 319.387 379.116 318.711 378.88 318.07C378.634 317.442 378.354 316.827 378.04 316.23C377.45 315.08 376.98 313.91 377.42 312.94C377.86 311.97 379.02 311.19 379.91 310.05C380.404 309.451 380.685 308.706 380.71 307.93C380.7 307.211 380.518 306.505 380.18 305.87C379.6 304.66 378.78 303.76 378.41 302.71C378.161 302.24 378.049 301.709 378.088 301.178C378.127 300.648 378.315 300.139 378.63 299.71C378.193 300.05 377.9 300.543 377.81 301.09C377.71 301.676 377.741 302.277 377.9 302.85C378.302 304.005 378.783 305.131 379.34 306.22C379.602 306.71 379.711 307.268 379.652 307.821C379.594 308.374 379.37 308.896 379.01 309.32C378.29 310.24 377.01 310.94 376.3 312.44C375.995 313.19 375.949 314.021 376.17 314.8C376.374 315.478 376.66 316.13 377.02 316.74C377.704 317.763 378.155 318.923 378.34 320.14C378.463 321.25 378.322 322.374 377.929 323.42C377.537 324.466 376.903 325.405 376.08 326.16Z" fill="#FB8500"/>
<g opacity="0.3">
<path opacity="0.3" d="M247.65 257.23C247.51 257.039 247.424 256.814 247.401 256.578C247.378 256.342 247.419 256.105 247.52 255.89C247.711 255.435 248.013 255.036 248.4 254.73C248.8 254.4 249.26 254.11 249.71 253.73C250.22 253.301 250.554 252.7 250.65 252.04C250.73 251.37 250.65 250.76 250.65 250.26C250.66 250.054 250.733 249.855 250.86 249.692C250.988 249.529 251.162 249.41 251.36 249.35C251.81 249.19 252.44 249.18 253.12 248.99C253.484 248.885 253.824 248.708 254.12 248.47C254.404 248.216 254.638 247.911 254.81 247.57C255.45 246.27 255.44 244.99 255.93 244.07C256.029 243.866 256.169 243.685 256.341 243.537C256.513 243.389 256.714 243.278 256.93 243.21C257.456 243.114 257.994 243.114 258.52 243.21C259.106 243.296 259.698 243.326 260.29 243.3C260.869 243.259 261.439 243.131 261.98 242.92C262.952 242.547 263.803 241.914 264.44 241.09C263.659 241.775 262.718 242.252 261.704 242.475C260.69 242.699 259.636 242.663 258.64 242.37C258.007 242.225 257.352 242.201 256.71 242.3C256.346 242.381 256.002 242.538 255.703 242.76C255.403 242.982 255.153 243.265 254.97 243.59C254.28 244.83 254.26 246.16 253.77 247.08C253.679 247.293 253.542 247.483 253.37 247.637C253.197 247.791 252.992 247.905 252.77 247.97C252.27 248.13 251.64 248.14 250.94 248.4C250.559 248.541 250.228 248.791 249.99 249.12C249.775 249.452 249.654 249.835 249.64 250.23C249.64 250.93 249.76 251.5 249.74 252C249.74 253 248.74 253.65 247.99 254.44C247.6 254.843 247.327 255.344 247.2 255.89C247.146 256.133 247.159 256.387 247.239 256.623C247.318 256.859 247.46 257.069 247.65 257.23Z" fill="white"/>
<path opacity="0.3" d="M267.72 271.78C268.645 272.239 269.679 272.436 270.708 272.35C271.738 272.263 272.724 271.897 273.56 271.29C274.04 270.943 274.468 270.529 274.83 270.06C275.186 269.571 275.465 269.032 275.66 268.46C275.888 267.425 276.327 266.448 276.95 265.59C277.57 264.92 278.67 265.01 279.88 264.86C280.53 264.791 281.144 264.526 281.64 264.1C282.099 263.68 282.443 263.15 282.64 262.56C283.04 261.48 283.11 260.44 283.51 259.56C283.649 259.128 283.904 258.744 284.249 258.449C284.593 258.154 285.012 257.961 285.46 257.89C284.97 257.879 284.488 258.01 284.071 258.268C283.654 258.525 283.32 258.897 283.11 259.34C282.65 260.276 282.253 261.242 281.92 262.23C281.736 262.675 281.452 263.072 281.09 263.39C280.706 263.667 280.252 263.829 279.78 263.86C279.27 263.91 278.7 263.86 278.07 263.98C277.386 264.04 276.744 264.333 276.25 264.81C275.497 265.776 274.987 266.907 274.76 268.11C274.485 269.098 273.912 269.978 273.12 270.63C272.385 271.252 271.507 271.683 270.564 271.883C269.622 272.084 268.645 272.049 267.72 271.78Z" fill="white"/>
<path opacity="0.3" d="M257.13 273.28C257.322 273.705 257.598 274.086 257.942 274.4C258.286 274.715 258.69 274.956 259.13 275.11C259.632 275.306 260.172 275.388 260.71 275.35C261.247 275.312 261.77 275.155 262.24 274.89C262.663 274.632 263.108 274.411 263.57 274.23C264 274.1 264.46 274.1 264.89 274.23C265.81 274.48 266.77 275.14 267.94 275.41C269.052 275.684 270.212 275.696 271.329 275.447C272.446 275.197 273.491 274.691 274.38 273.97C275.132 273.348 275.745 272.576 276.181 271.702C276.616 270.829 276.865 269.875 276.91 268.9C276.484 270.704 275.418 272.293 273.91 273.37C273.084 273.945 272.145 274.338 271.155 274.522C270.165 274.707 269.148 274.679 268.17 274.44C267.17 274.23 266.28 273.62 265.11 273.32C264.501 273.165 263.86 273.196 263.27 273.41C262.772 273.633 262.3 273.908 261.86 274.23C261.099 274.706 260.185 274.873 259.306 274.696C258.426 274.52 257.647 274.013 257.13 273.28Z" fill="white"/>
<path opacity="0.3" d="M286.67 221.87C287.229 221.645 287.712 221.263 288.058 220.77C288.404 220.276 288.599 219.693 288.62 219.09C288.636 217.759 288.338 216.444 287.75 215.25C287.177 214.123 286.882 212.875 286.89 211.61C286.97 210.44 287.89 209.47 288.8 208.42C289.315 207.881 289.764 207.284 290.14 206.64C290.508 205.947 290.723 205.183 290.77 204.4C290.774 202.992 290.575 201.591 290.18 200.24C289.837 199.063 289.735 197.828 289.88 196.61C289.926 196.055 290.103 195.519 290.397 195.046C290.691 194.573 291.093 194.177 291.57 193.89C291.008 194.1 290.509 194.449 290.117 194.903C289.726 195.358 289.455 195.903 289.33 196.49C289.007 197.777 288.973 199.119 289.23 200.42C289.502 201.695 289.62 202.997 289.58 204.3C289.401 205.56 288.785 206.718 287.84 207.57C287.337 208.104 286.875 208.675 286.46 209.28C286.012 209.946 285.746 210.719 285.69 211.52C285.717 212.973 286.124 214.393 286.87 215.64C287.499 216.689 287.904 217.857 288.06 219.07C288.108 219.619 288.004 220.171 287.758 220.665C287.513 221.159 287.137 221.576 286.67 221.87Z" fill="white"/>
<path opacity="0.3" d="M308.39 173.73C308.187 173.442 307.912 173.213 307.593 173.066C307.273 172.918 306.92 172.858 306.57 172.89C305.791 172.979 305.05 173.273 304.42 173.74C303.807 174.192 303.134 174.555 302.42 174.82C301.671 174.968 300.895 174.892 300.19 174.6C299.72 174.505 299.234 174.536 298.78 174.69C298.343 174.851 297.952 175.115 297.64 175.46C297.06 176.089 296.654 176.857 296.46 177.69C296.1 179.24 296.1 180.69 295.53 181.83C296.32 180.83 296.53 179.27 297 177.83C297.222 177.117 297.614 176.469 298.14 175.94C298.375 175.679 298.674 175.484 299.007 175.376C299.341 175.267 299.697 175.248 300.04 175.32C300.41 175.39 300.8 175.53 301.26 175.6C301.72 175.671 302.19 175.63 302.63 175.48C303.4 175.165 304.112 174.726 304.74 174.18C305.277 173.706 305.917 173.363 306.61 173.18C306.929 173.112 307.26 173.127 307.572 173.223C307.883 173.32 308.165 173.494 308.39 173.73Z" fill="white"/>
<path opacity="0.3" d="M294.75 175.6C294.904 174.821 295.181 174.072 295.57 173.38C295.789 173.014 296.11 172.718 296.493 172.53C296.876 172.342 297.306 172.269 297.73 172.32C298.61 172.37 299.49 172.77 300.4 172.86C300.813 172.942 301.242 172.905 301.635 172.753C302.028 172.601 302.37 172.339 302.62 172C302.335 172.269 301.986 172.461 301.606 172.557C301.227 172.653 300.829 172.651 300.45 172.55C299.568 172.274 298.67 172.054 297.76 171.89C297.253 171.838 296.742 171.935 296.29 172.17C295.872 172.407 295.527 172.753 295.29 173.17C294.928 173.929 294.743 174.76 294.75 175.6Z" fill="white"/>
<path opacity="0.3" d="M381.91 242.37C383.135 241.971 384.32 241.459 385.45 240.84C386.771 240.152 387.878 239.114 388.65 237.84C389.051 237.118 389.287 236.315 389.34 235.49C389.38 234.683 389.323 233.874 389.17 233.08C388.786 231.677 388.691 230.211 388.89 228.77C389.19 227.46 390.22 226.19 390.62 224.48C390.821 223.61 390.751 222.699 390.42 221.87C390.098 221.137 389.659 220.462 389.12 219.87C388.118 218.896 387.17 217.867 386.28 216.79C385.877 216.32 385.589 215.763 385.438 215.162C385.287 214.562 385.277 213.935 385.41 213.33C385.147 213.94 385.041 214.606 385.1 215.268C385.16 215.93 385.383 216.566 385.75 217.12C386.504 218.326 387.353 219.47 388.29 220.54C388.731 221.029 389.052 221.615 389.226 222.251C389.399 222.887 389.421 223.554 389.29 224.2C388.97 225.49 387.92 226.73 387.47 228.46C387.22 230.096 387.339 231.767 387.82 233.35C388.214 234.664 388.158 236.072 387.66 237.35C387.057 238.548 386.167 239.579 385.07 240.35C384.057 241.085 383.002 241.76 381.91 242.37Z" fill="white"/>
<path opacity="0.3" d="M382.21 251C381.6 249.3 382.5 247.23 384.1 246C385.7 244.77 387.91 243.9 389.8 242.36C390.786 241.584 391.532 240.543 391.95 239.36C392.326 238.241 392.453 237.053 392.32 235.88C391.999 233.876 391.322 231.945 390.32 230.18C390.943 232.042 391.339 233.973 391.5 235.93C391.539 236.976 391.369 238.02 391 239C390.593 239.98 389.938 240.838 389.1 241.49C387.42 242.89 385.19 243.76 383.55 245.36C382.733 246.11 382.146 247.078 381.86 248.15C381.728 248.625 381.69 249.121 381.751 249.61C381.811 250.099 381.967 250.571 382.21 251Z" fill="white"/>
<path opacity="0.3" d="M366.61 284.62C367.753 284.557 368.854 284.164 369.78 283.49C370.85 282.721 371.637 281.621 372.02 280.36C372.443 278.987 372.393 277.512 371.88 276.17C371.33 274.83 370.48 273.74 370.78 272.77C370.988 272.177 371.263 271.611 371.6 271.08C372.012 270.385 372.165 269.567 372.03 268.77C371.603 267.386 370.69 266.204 369.46 265.44C368.466 264.844 367.683 263.953 367.22 262.89C367.038 262.395 367.059 261.849 367.278 261.369C367.497 260.89 367.897 260.516 368.39 260.33C368.11 260.351 367.84 260.441 367.604 260.593C367.368 260.745 367.174 260.954 367.04 261.2C366.727 261.741 366.6 262.37 366.68 262.99C367.025 264.261 367.794 265.376 368.86 266.15C369.815 266.848 370.518 267.838 370.86 268.97C370.922 269.511 370.791 270.056 370.49 270.51C370.089 271.132 369.773 271.805 369.55 272.51C369.375 273.313 369.488 274.152 369.87 274.88C370.18 275.54 370.54 276.1 370.77 276.65C371.243 277.757 371.355 278.986 371.09 280.16C370.825 281.243 370.267 282.232 369.476 283.019C368.686 283.806 367.694 284.36 366.61 284.62Z" fill="white"/>
<path opacity="0.3" d="M343.55 277.84C342.617 276.899 342.08 275.635 342.05 274.31C342.021 273.625 342.144 272.942 342.41 272.31C342.732 271.658 343.131 271.046 343.6 270.49C344.208 269.787 344.56 268.899 344.6 267.97C344.514 267.025 344.137 266.131 343.52 265.41C343.023 264.834 342.594 264.203 342.24 263.53C342.117 263.274 342.072 262.988 342.111 262.707C342.15 262.426 342.272 262.162 342.46 261.95C342.989 261.366 343.553 260.815 344.15 260.3C344.505 259.956 344.8 259.553 345.02 259.11C345.249 258.621 345.339 258.077 345.28 257.54C345.117 256.637 344.74 255.787 344.18 255.06C343.739 254.474 343.386 253.827 343.13 253.14C342.92 252.49 342.854 251.802 342.935 251.124C343.016 250.445 343.243 249.793 343.6 249.21C344.316 248.093 345.432 247.291 346.72 246.97C346.016 247.008 345.328 247.192 344.7 247.51C344.072 247.829 343.516 248.275 343.07 248.82C342.561 249.462 342.206 250.213 342.033 251.014C341.86 251.815 341.872 252.645 342.07 253.44C342.48 255.18 343.85 256.44 343.91 257.67C343.91 257.975 343.841 258.275 343.708 258.549C343.574 258.823 343.38 259.063 343.14 259.25C342.478 259.798 341.86 260.397 341.29 261.04C340.953 261.469 340.736 261.98 340.66 262.52C340.595 263.066 340.681 263.62 340.91 264.12C341.325 264.897 341.836 265.619 342.43 266.27C342.902 266.754 343.222 267.366 343.35 268.03C343.331 268.692 343.107 269.331 342.71 269.86C342.248 270.522 341.874 271.241 341.6 272C341.28 273.057 341.301 274.188 341.66 275.233C342.019 276.278 342.698 277.183 343.6 277.82L343.55 277.84Z" fill="white"/>
<path opacity="0.3" d="M350.83 243.48C350.657 243.095 350.568 242.677 350.568 242.255C350.568 241.833 350.657 241.415 350.83 241.03C351.2 240.174 351.722 239.391 352.37 238.72C353.114 237.959 353.747 237.098 354.25 236.16C354.692 235.098 354.801 233.925 354.56 232.8C354.33 231.817 354.286 230.799 354.43 229.8C354.724 228.933 355.345 228.216 356.16 227.8C357.03 227.331 357.82 226.727 358.5 226.01C358.823 225.69 359.05 225.287 359.156 224.845C359.262 224.404 359.243 223.941 359.1 223.51C359.157 223.926 359.102 224.349 358.942 224.738C358.783 225.126 358.523 225.465 358.19 225.72C357.458 226.311 356.651 226.802 355.79 227.18C355.31 227.425 354.866 227.735 354.47 228.1C354.035 228.509 353.718 229.027 353.55 229.6C353.33 230.701 353.347 231.836 353.6 232.93C353.823 233.878 353.757 234.87 353.41 235.78C352.976 236.669 352.435 237.502 351.8 238.26C351.167 239.034 350.697 239.929 350.42 240.89C350.288 241.325 350.256 241.784 350.327 242.232C350.398 242.681 350.57 243.108 350.83 243.48Z" fill="white"/>
<path opacity="0.3" d="M353.84 215.79C353.619 215.715 353.421 215.583 353.267 215.407C353.112 215.232 353.007 215.019 352.96 214.79C352.836 214.314 352.799 213.819 352.85 213.33C352.911 212.741 352.821 212.146 352.59 211.6C352.258 211.034 351.727 210.613 351.1 210.42C349.97 210.02 348.73 209.85 348.45 209.03C348.299 208.565 348.299 208.065 348.45 207.6C348.58 207.08 348.83 206.53 349.02 205.9C349.256 205.223 349.277 204.489 349.08 203.8C348.835 203.142 348.408 202.566 347.85 202.14C346.9 201.34 345.85 200.76 345.63 199.86C345.41 198.96 345.98 197.96 346.4 196.99C346.624 196.503 346.749 195.976 346.77 195.44C346.784 195.19 346.746 194.941 346.658 194.706C346.57 194.472 346.435 194.259 346.26 194.08C346.47 194.51 346.554 194.991 346.503 195.467C346.452 195.943 346.267 196.395 345.97 196.77C345.71 197.21 345.39 197.66 345.14 198.19C344.832 198.755 344.72 199.405 344.82 200.04C344.968 200.694 345.318 201.285 345.82 201.73C346.27 202.18 346.75 202.54 347.16 202.92C347.578 203.207 347.883 203.63 348.025 204.116C348.168 204.603 348.137 205.123 347.94 205.59C347.66 206.59 346.88 207.95 347.47 209.45C347.637 209.775 347.87 210.061 348.154 210.29C348.438 210.519 348.767 210.686 349.12 210.78C349.73 210.98 350.31 211.06 350.81 211.21C351.293 211.312 351.719 211.594 352 212C352.234 212.434 352.36 212.917 352.37 213.41C352.386 213.941 352.505 214.464 352.72 214.95C352.818 215.175 352.973 215.37 353.169 215.518C353.365 215.665 353.597 215.759 353.84 215.79Z" fill="white"/>
<path opacity="0.3" d="M349.75 238.19C349.692 237.63 349.841 237.068 350.17 236.61C350.535 236.1 350.944 235.621 351.39 235.18C351.894 234.66 352.241 234.008 352.39 233.3C352.451 232.544 352.303 231.786 351.96 231.11C351.66 230.521 351.447 229.891 351.33 229.24C351.31 228.94 351.356 228.64 351.465 228.36C351.574 228.08 351.743 227.827 351.96 227.62C352.406 227.182 352.884 226.777 353.39 226.41C353.86 226.03 354.31 225.67 354.72 225.32C354.25 225.58 353.72 225.87 353.23 226.18C352.66 226.495 352.121 226.863 351.62 227.28C351.33 227.525 351.1 227.832 350.945 228.178C350.791 228.524 350.718 228.901 350.73 229.28C350.819 230.009 351.035 230.717 351.37 231.37C351.664 231.942 351.811 232.577 351.8 233.22C351.678 233.836 351.395 234.409 350.98 234.88C350.556 235.369 350.19 235.906 349.89 236.48C349.755 236.742 349.674 237.028 349.65 237.321C349.626 237.615 349.66 237.91 349.75 238.19Z" fill="white"/>
<path opacity="0.3" d="M376.26 193.44C376.565 193.085 376.794 192.671 376.931 192.223C377.069 191.776 377.113 191.305 377.06 190.84C377.014 190.315 376.854 189.806 376.59 189.35C376.302 188.875 375.917 188.466 375.46 188.15C375.059 187.864 374.696 187.528 374.38 187.15C374.259 186.985 374.175 186.796 374.135 186.596C374.096 186.395 374.101 186.188 374.15 185.99C374.33 185.07 375.09 184.21 375.36 182.93C375.433 182.601 375.433 182.259 375.36 181.93C375.258 181.577 375.061 181.258 374.79 181.01C374.297 180.61 373.707 180.348 373.08 180.25C371.98 180.02 371.08 179.86 370.62 179.03C370.16 178.2 369.92 177.12 369.13 176.39C368.34 175.66 366.87 175.86 366.75 176.8C366.828 176.602 366.967 176.435 367.147 176.321C367.327 176.208 367.538 176.155 367.75 176.17C367.959 176.163 368.166 176.206 368.354 176.297C368.542 176.388 368.705 176.522 368.83 176.69C369.4 177.37 369.48 178.37 369.98 179.4C370.252 179.956 370.707 180.402 371.27 180.66C371.79 180.878 372.329 181.049 372.88 181.17C373.337 181.25 373.766 181.442 374.13 181.73C374.266 181.866 374.365 182.036 374.415 182.222C374.466 182.407 374.468 182.603 374.42 182.79C374.26 183.69 373.51 184.62 373.27 185.85C373.209 186.179 373.22 186.518 373.303 186.843C373.386 187.167 373.538 187.47 373.75 187.73C374.138 188.127 374.583 188.464 375.07 188.73C375.458 188.961 375.796 189.266 376.066 189.627C376.336 189.989 376.532 190.4 376.643 190.838C376.753 191.276 376.776 191.731 376.711 192.177C376.645 192.624 376.492 193.053 376.26 193.44Z" fill="white"/>
<path opacity="0.3" d="M379.35 202.05C379.53 201.714 379.641 201.346 379.677 200.966C379.713 200.587 379.673 200.204 379.56 199.84C379.326 199.04 378.99 198.274 378.56 197.56C378.065 196.889 377.798 196.078 377.798 195.245C377.798 194.412 378.065 193.601 378.56 192.93C379.062 192.105 379.344 191.165 379.38 190.2C379.265 189.241 378.785 188.364 378.04 187.75C377.432 187.248 376.924 186.638 376.54 185.95C376.382 185.633 376.327 185.275 376.383 184.925C376.438 184.576 376.602 184.252 376.85 184C376.532 184.228 376.297 184.554 376.18 184.927C376.063 185.3 376.07 185.701 376.2 186.07C376.504 186.863 376.978 187.58 377.59 188.17C378.158 188.715 378.513 189.446 378.59 190.23C378.507 191.06 378.237 191.86 377.8 192.57C377.305 193.399 377.036 194.344 377.02 195.31C377.121 196.237 377.466 197.12 378.02 197.87C378.49 198.521 378.892 199.218 379.22 199.95C379.525 200.609 379.571 201.358 379.35 202.05Z" fill="white"/>
<path opacity="0.3" d="M346.81 283.4C345.526 282.637 344.284 281.806 343.09 280.91C341.77 279.924 340.749 278.591 340.14 277.06C339.679 275.482 339.711 273.8 340.23 272.24C340.65 270.67 341.06 269.17 341.34 267.86C340.8 269.09 340.21 270.5 339.66 272.07C338.963 273.736 338.867 275.592 339.39 277.32C340.038 279 341.209 280.426 342.73 281.39C344.01 282.212 345.378 282.886 346.81 283.4Z" fill="white"/>
<path opacity="0.3" d="M303.1 387.48C302.591 387.103 302.222 386.567 302.052 385.956C301.882 385.346 301.92 384.696 302.16 384.11C302.57 382.84 303.55 381.77 304.32 380.33C304.73 379.562 304.959 378.71 304.99 377.84C304.994 376.885 304.637 375.963 303.99 375.26C303.4 374.59 302.75 374.1 302.3 373.56C302.088 373.347 301.926 373.089 301.828 372.805C301.729 372.521 301.696 372.219 301.73 371.92C301.892 371.246 302.203 370.618 302.64 370.08C303.142 369.42 303.597 368.725 304 368C304.444 367.167 304.589 366.207 304.41 365.28C304.227 364.453 303.887 363.669 303.41 362.97C302.53 361.66 301.57 360.58 301.33 359.29C301.175 358.681 301.266 358.036 301.585 357.495C301.903 356.953 302.423 356.56 303.03 356.4C302.692 356.389 302.357 356.465 302.057 356.619C301.756 356.772 301.499 357 301.31 357.28C300.855 357.878 300.632 358.62 300.68 359.37C300.78 360.93 301.76 362.27 302.45 363.54C302.813 364.157 303.061 364.834 303.18 365.54C303.262 366.189 303.125 366.847 302.79 367.41C302.389 368.066 301.948 368.698 301.47 369.3C300.88 370.019 300.472 370.87 300.28 371.78C300.208 372.305 300.263 372.84 300.44 373.34C300.618 373.802 300.883 374.227 301.22 374.59C301.84 375.27 302.49 375.74 302.98 376.26C303.451 376.697 303.734 377.299 303.77 377.94C303.783 378.628 303.647 379.31 303.37 379.94C302.632 381.236 302.036 382.607 301.59 384.03C301.452 384.751 301.522 385.497 301.79 386.18C301.91 386.474 302.088 386.74 302.313 386.963C302.538 387.187 302.806 387.362 303.1 387.48Z" fill="white"/>
<path opacity="0.3" d="M304.43 342.5C303.993 342.637 303.592 342.868 303.255 343.177C302.918 343.487 302.653 343.867 302.48 344.29C302.093 345.24 301.952 346.271 302.07 347.29C302.14 348.29 302.35 349.35 302.38 350.36C302.469 351.328 302.245 352.299 301.74 353.13C301.22 353.91 300.28 354.5 299.56 355.42C298.871 356.345 298.55 357.492 298.66 358.64C298.94 360.534 299.751 362.309 301 363.76C300.32 362.28 299.37 360.54 299.39 358.62C299.372 357.67 299.687 356.743 300.28 356C301.076 355.27 301.833 354.499 302.55 353.69C303.175 352.681 303.439 351.489 303.3 350.31C303.22 349.19 302.95 348.18 302.8 347.2C302.613 346.286 302.644 345.34 302.89 344.44C302.999 344.028 303.192 343.643 303.457 343.309C303.722 342.975 304.053 342.7 304.43 342.5Z" fill="white"/>
<path opacity="0.3" d="M284.94 411.5C284.297 410.631 283.947 409.581 283.94 408.5C283.933 407.36 284.337 406.255 285.08 405.39C285.96 404.528 287.028 403.881 288.2 403.5C288.889 403.179 289.495 402.703 289.97 402.11C290.227 401.777 290.408 401.391 290.5 400.98C290.575 400.608 290.609 400.229 290.6 399.85C290.533 399.292 290.601 398.726 290.8 398.2C291 397.86 291.41 397.73 292.01 397.75C292.61 397.77 293.26 397.91 294.01 397.89C294.715 397.872 295.41 397.723 296.06 397.45C297.282 396.96 298.282 396.038 298.87 394.86C299.382 393.841 299.551 392.683 299.35 391.56C299.343 392.667 298.99 393.744 298.341 394.64C297.692 395.537 296.779 396.208 295.73 396.56C295.176 396.743 294.593 396.828 294.01 396.81C293.45 396.81 292.82 396.62 292.08 396.57C291.676 396.528 291.268 396.569 290.88 396.69C290.429 396.832 290.042 397.13 289.79 397.53C289.438 398.235 289.299 399.027 289.39 399.81C289.447 400.358 289.313 400.909 289.01 401.37C288.652 401.821 288.197 402.187 287.68 402.44C287.13 402.74 286.52 403.01 285.92 403.37C285.316 403.738 284.789 404.22 284.37 404.79C283.567 405.854 283.208 407.187 283.37 408.51C283.524 409.661 284.08 410.72 284.94 411.5Z" fill="white"/>
<path opacity="0.3" d="M290.46 395.74C290.033 395.554 289.551 395.541 289.115 395.703C288.678 395.866 288.322 396.191 288.12 396.61C287.729 397.532 287.395 398.477 287.12 399.44C286.95 399.868 286.653 400.234 286.27 400.49C285.866 400.705 285.441 400.876 285 401C284.539 401.127 284.111 401.356 283.75 401.67C283.581 401.807 283.447 401.981 283.356 402.179C283.266 402.377 283.223 402.593 283.23 402.81C283.33 401.99 284.23 401.52 285.1 401.33C285.599 401.23 286.083 401.065 286.54 400.84C287.012 400.544 287.38 400.106 287.59 399.59C288.02 398.59 288.04 397.59 288.46 396.75C288.618 396.371 288.906 396.06 289.273 395.875C289.64 395.689 290.061 395.642 290.46 395.74Z" fill="white"/>
<path opacity="0.3" d="M335.17 402.6C335.783 402.21 336.237 401.615 336.45 400.92C336.676 400.183 336.768 399.41 336.72 398.64C336.64 397.05 336.18 395.48 336.44 394.03C336.55 393.331 336.905 392.693 337.44 392.23C337.99 391.7 338.71 391.23 339.39 390.48C339.768 390.071 340.043 389.577 340.19 389.04C340.324 388.465 340.286 387.863 340.08 387.31C339.694 386.476 339.232 385.679 338.7 384.93C338.514 384.705 338.401 384.428 338.376 384.137C338.351 383.846 338.415 383.554 338.56 383.3C339.088 382.725 339.694 382.227 340.36 381.82C340.77 381.526 341.134 381.172 341.44 380.77C341.759 380.321 341.958 379.798 342.02 379.25C342.084 378.27 341.832 377.296 341.3 376.47C340.3 374.9 339 374.01 338.3 372.76C337.6 371.51 337.53 369.87 338.68 369.06C338.353 369.218 338.068 369.452 337.851 369.742C337.633 370.033 337.489 370.372 337.43 370.73C337.266 371.516 337.35 372.334 337.67 373.07C338.3 374.58 339.61 375.73 340.26 377.07C340.594 377.68 340.734 378.378 340.66 379.07C340.588 379.395 340.447 379.7 340.244 379.965C340.042 380.229 339.785 380.446 339.49 380.6C338.651 381.071 337.9 381.683 337.27 382.41C336.917 382.919 336.747 383.532 336.79 384.15C336.841 384.708 337.022 385.246 337.32 385.72C337.794 386.402 338.225 387.114 338.61 387.85C338.719 388.131 338.744 388.437 338.682 388.732C338.62 389.027 338.473 389.297 338.26 389.51C337.8 390.07 337.1 390.59 336.46 391.27C335.772 391.974 335.345 392.891 335.25 393.87C335.1 395.74 335.78 397.28 336.03 398.71C336.28 400.14 336.21 401.66 335.17 402.6Z" fill="white"/>
<path opacity="0.3" d="M338 348.39C338.727 347.642 339.291 346.75 339.656 345.773C340.021 344.795 340.179 343.752 340.12 342.71C340.042 341.517 339.7 340.356 339.12 339.31C338.521 338.426 338.21 337.378 338.23 336.31C338.558 335.225 338.949 334.16 339.4 333.12C339.682 331.9 339.497 330.619 338.88 329.53C338.358 328.62 337.894 327.678 337.49 326.71C337.31 326.279 337.217 325.817 337.217 325.35C337.217 324.883 337.31 324.421 337.49 323.99C337.223 324.409 337.049 324.88 336.978 325.371C336.908 325.862 336.942 326.363 337.08 326.84C337.359 327.87 337.727 328.874 338.18 329.84C338.639 330.771 338.745 331.837 338.48 332.84C337.959 333.91 337.534 335.025 337.21 336.17C337.161 337.451 337.533 338.712 338.27 339.76C338.832 340.675 339.2 341.697 339.35 342.76C339.601 344.739 339.121 346.741 338 348.39Z" fill="white"/>
<path opacity="0.3" d="M303.14 316.54C302.369 315.786 301.911 314.768 301.86 313.69C301.776 312.531 301.983 311.369 302.46 310.31C303.35 308.07 305.17 305.89 305.66 302.99C305.785 302.262 305.785 301.518 305.66 300.79C305.512 300.107 305.305 299.437 305.04 298.79C304.478 297.732 304.315 296.508 304.58 295.34C304.9 294.22 305.58 293.17 305.96 291.99C306.171 291.457 306.238 290.878 306.154 290.311C306.069 289.744 305.837 289.209 305.48 288.76C305.736 289.228 305.869 289.752 305.869 290.285C305.869 290.818 305.736 291.342 305.48 291.81C305.04 292.81 304.23 293.81 303.74 295.05C303.477 295.72 303.388 296.446 303.48 297.16C303.578 297.843 303.749 298.513 303.99 299.16C304.206 299.753 304.376 300.361 304.5 300.98C304.595 301.576 304.595 302.184 304.5 302.78C304.12 305.25 302.45 307.47 301.65 309.98C301.217 311.192 301.12 312.498 301.37 313.76C301.465 314.318 301.67 314.852 301.974 315.329C302.278 315.807 302.674 316.218 303.14 316.54Z" fill="white"/>
<path opacity="0.3" d="M370.7 397.31C370.797 396.694 370.646 396.065 370.28 395.56C369.895 395.013 369.405 394.548 368.84 394.19C367.73 393.47 366.41 392.89 365.94 391.78C365.47 390.67 365.71 389.28 365.94 387.78C366.078 386.995 366.128 386.196 366.09 385.4C366.027 384.494 365.677 383.633 365.09 382.94C363.83 381.58 362.22 381.27 361.22 380.46C360.74 380.044 360.374 379.513 360.157 378.916C359.94 378.319 359.879 377.677 359.98 377.05C360.167 375.652 360.092 374.231 359.76 372.86C359.29 371.53 357.95 370.55 356.76 370.86C357.347 370.886 357.907 371.114 358.345 371.506C358.782 371.898 359.07 372.429 359.16 373.01C359.319 374.34 359.265 375.687 359 377C358.895 377.777 358.929 378.565 359.1 379.33C359.298 380.182 359.777 380.943 360.46 381.49C361.78 382.54 363.31 382.93 364.1 383.87C364.89 384.81 364.84 386.18 364.67 387.63C364.575 388.383 364.522 389.141 364.51 389.9C364.486 390.714 364.672 391.519 365.05 392.24C365.448 392.92 366.035 393.469 366.74 393.82C367.37 394.18 368 394.42 368.57 394.69C369.63 395.24 370.7 396.1 370.7 397.31Z" fill="white"/>
<path opacity="0.3" d="M399.92 379C400.369 378.435 400.587 377.72 400.53 377C400.48 376.232 400.28 375.481 399.94 374.79C399.25 373.36 398.15 372.15 397.73 370.74C397.31 369.33 397.98 368.05 398.73 366.46C399.222 365.582 399.461 364.585 399.42 363.58C399.363 363.021 399.175 362.483 398.87 362.01C398.568 361.575 398.192 361.196 397.76 360.89C396.13 359.78 394.42 359.38 393.56 358.26C392.717 356.962 392.269 355.448 392.27 353.9C392.259 352.257 391.879 350.637 391.16 349.16C390.757 348.489 390.198 347.927 389.53 347.52C388.914 347.143 388.182 347.001 387.47 347.12C388.153 347.18 388.805 347.434 389.349 347.852C389.893 348.27 390.306 348.835 390.54 349.48C391.009 350.924 391.193 352.446 391.08 353.96C390.945 355.794 391.401 357.623 392.38 359.18C393.68 360.85 395.63 361.28 396.82 362.18C397.091 362.353 397.321 362.583 397.493 362.855C397.666 363.126 397.778 363.431 397.82 363.75C397.844 364.478 397.675 365.199 397.33 365.84C396.941 366.636 396.607 367.458 396.33 368.3C396.067 369.234 396.12 370.229 396.48 371.13C397.18 372.84 398.48 373.92 399.21 375.13C399.94 376.34 400.59 377.82 399.92 379Z" fill="white"/>
<path opacity="0.3" d="M402.17 372C401.825 371.884 401.515 371.683 401.269 371.416C401.022 371.149 400.847 370.823 400.76 370.47C400.568 369.708 400.628 368.905 400.93 368.18C401.21 367.4 401.65 366.64 402.03 365.78C402.466 364.883 402.643 363.882 402.54 362.89C402.334 361.888 401.764 360.997 400.94 360.39C400.22 359.835 399.446 359.352 398.63 358.95C397.16 358.16 395.79 357.15 395.53 355.71C395.547 356.493 395.841 357.244 396.36 357.83C396.92 358.481 397.578 359.041 398.31 359.49C399.054 359.935 399.763 360.436 400.43 360.99C401.074 361.489 401.526 362.196 401.71 362.99C401.788 363.828 401.647 364.673 401.3 365.44C400.922 366.258 400.588 367.096 400.3 367.95C400.018 368.803 400.05 369.729 400.39 370.56C400.525 370.941 400.763 371.277 401.077 371.531C401.391 371.785 401.769 371.948 402.17 372Z" fill="white"/>
<path opacity="0.3" d="M376.08 326.16C377.099 325.515 377.93 324.612 378.489 323.543C379.047 322.473 379.313 321.275 379.26 320.07C379.244 319.387 379.116 318.711 378.88 318.07C378.634 317.442 378.354 316.827 378.04 316.23C377.45 315.08 376.98 313.91 377.42 312.94C377.86 311.97 379.02 311.19 379.91 310.05C380.404 309.451 380.685 308.706 380.71 307.93C380.7 307.211 380.518 306.505 380.18 305.87C379.6 304.66 378.78 303.76 378.41 302.71C378.161 302.24 378.049 301.709 378.088 301.178C378.127 300.648 378.315 300.139 378.63 299.71C378.193 300.05 377.9 300.543 377.81 301.09C377.71 301.676 377.741 302.277 377.9 302.85C378.302 304.005 378.783 305.131 379.34 306.22C379.602 306.71 379.711 307.268 379.652 307.821C379.594 308.374 379.37 308.896 379.01 309.32C378.29 310.24 377.01 310.94 376.3 312.44C375.995 313.19 375.949 314.021 376.17 314.8C376.374 315.479 376.66 316.13 377.02 316.74C377.704 317.763 378.155 318.924 378.34 320.14C378.463 321.25 378.322 322.374 377.929 323.42C377.537 324.466 376.903 325.405 376.08 326.16Z" fill="white"/>
</g>
</svg>
