<svg width="300" height="298" viewBox="0 0 300 298" fill="none" xmlns="http://www.w3.org/2000/svg">
<path d="M64.8319 93.061C65.3282 89.4612 60.2462 86.4967 56.428 86.1923C54.6083 86.0401 52.7158 86.318 50.9887 85.7225C47.2499 84.399 45.7611 79.5883 42.1083 78.0465C39.382 76.9017 36.2455 77.9207 33.6052 79.2508C30.9649 80.5809 28.3114 82.255 25.3932 82.4469C22.8257 82.6124 20.0333 81.6595 17.79 82.9168C16.1159 83.8498 15.2358 85.782 13.6939 86.9202C12.1521 88.0583 10.2133 88.2436 8.3406 88.3694C6.46793 88.4951 4.52246 88.4885 2.81521 89.2693C1.10797 90.0501 -0.301505 91.8566 0.0558256 93.6962L64.8319 93.061Z" fill="#EBEBEB"/>
<path d="M97.2896 13.33C97.6602 10.6169 93.8354 8.38691 90.9569 8.15531C89.5872 8.04281 88.1645 8.25456 86.8609 7.79798C84.0485 6.81862 82.9236 3.16591 80.1775 2.02775C78.1261 1.16089 75.7638 1.92849 73.772 2.93431C71.7802 3.94013 69.8016 5.19078 67.5915 5.33636C65.6592 5.46209 63.555 4.74081 61.8609 5.68708C60.6037 6.39512 59.9419 7.8443 58.7773 8.70454C57.6127 9.56478 56.1304 9.71697 54.7474 9.79638C53.3331 9.75705 51.9239 9.98145 50.5918 10.4581C49.3081 11.047 48.2427 12.4102 48.514 13.7667L97.2896 13.33Z" fill="#F5F5F5"/>
<path d="M207.215 32.9899C207.797 28.7814 201.862 25.3272 197.402 24.9632C195.277 24.7978 193.067 25.122 191.056 24.4206C186.688 22.8986 184.948 17.2608 180.693 15.4609C177.504 14.1374 173.844 15.3153 170.767 16.8703C167.69 18.4254 164.633 20.3775 161.185 20.5958C158.188 20.7877 154.926 19.676 152.305 21.1451C150.32 22.2369 149.327 24.4868 147.521 25.8168C145.714 27.1469 143.458 27.3917 141.274 27.5109C139.09 27.63 136.821 27.6498 134.829 28.563C132.837 29.4762 131.19 31.5805 131.6 33.7377L207.215 32.9899Z" fill="#F5F5F5"/>
<path d="M256.599 186.827C242.703 183.201 230.6 174.076 223.857 162.185C220.519 156.285 218.486 149.739 217.893 142.987C217.301 136.235 218.163 129.434 220.423 123.044C223.996 113.085 230.891 104.324 233.843 94.1926C237.198 82.6918 235.199 70.4896 233.128 58.7242C231.057 46.9588 228.946 34.8029 232.096 23.2492C235.245 11.6955 245.132 0.882948 257.87 0.049177C269.682 -0.711805 280.587 7.46048 285.517 17.5187C290.446 27.5769 290.473 39.0975 289.321 50.1019C288.17 61.1064 285.927 72.0976 286.635 83.1352C288.058 105.475 301.458 126.511 299.869 148.844C299.049 160.471 294.231 167.915 285.973 176.637C278.879 184.18 267.068 189.163 256.599 186.827Z" fill="#F5F5F5"/>
<path d="M260.775 297.56C260.656 297.56 260.55 248.063 260.55 187.052C260.55 126.041 260.656 76.5045 260.775 76.5045C260.894 76.5045 261.013 125.948 261.013 187.019C261.013 248.089 260.901 297.56 260.775 297.56Z" fill="#E0E0E0"/>
<path d="M260.14 148.222C259.408 147.684 258.724 147.084 258.095 146.429C256.877 145.278 255.23 143.65 253.463 141.797C251.696 139.944 250.114 138.297 248.963 137.092C248.306 136.481 247.699 135.817 247.15 135.107C247.875 135.653 248.557 136.254 249.188 136.907C250.406 138.058 252.06 139.686 253.82 141.539C255.58 143.392 257.162 145.039 258.32 146.244C258.976 146.856 259.585 147.517 260.14 148.222Z" fill="#E0E0E0"/>
<path d="M261.47 101.915C263.064 101.533 264.588 100.898 265.983 100.036C267.433 99.0865 268.668 97.8446 269.609 96.3895C270.75 94.6635 271.433 92.6755 271.594 90.6127V90.4142L271.852 90.6326C269.76 91.0069 267.849 92.0577 266.413 93.6235C265.237 94.85 264.217 96.2169 263.375 97.6931C262.648 98.9438 262.138 99.9893 261.794 100.717C261.632 101.105 261.444 101.48 261.231 101.842C261.323 101.434 261.458 101.037 261.635 100.658C262.061 99.5973 262.549 98.5632 263.098 97.5608C263.911 96.0354 264.924 94.6246 266.108 93.3655C267.599 91.7148 269.596 90.6067 271.786 90.2157L272.07 90.176V90.434V90.6392C271.911 92.5907 271.298 94.4781 270.28 96.1508C269.262 97.8235 267.868 99.2354 266.208 100.274C265.173 100.926 264.04 101.409 262.853 101.703C262.528 101.782 262.198 101.844 261.867 101.888C261.736 101.916 261.603 101.925 261.47 101.915Z" fill="#E0E0E0"/>
<path d="M261.47 101.915C261.377 101.835 262.76 100.115 264.567 98.0636C266.373 96.0122 267.915 94.4042 268.008 94.477C268.1 94.5498 266.717 96.2703 264.911 98.3282C263.104 100.386 261.562 101.988 261.47 101.915Z" fill="#E0E0E0"/>
<path d="M198.666 230.865L183.234 297.858L189.759 297.838L205.223 231.5L198.666 230.865Z" fill="#E0E0E0"/>
<path d="M226.809 230.865L242.293 297.858H248.493L233.512 230.865H226.809Z" fill="#E0E0E0"/>
<path d="M188.25 180.547L197.038 226.67H207.016L197.633 180.547H188.25Z" fill="#E0E0E0"/>
<path d="M35.2398 230.865L22.6538 297.858H29.0593L42.2077 230.865H35.2398Z" fill="#E0E0E0"/>
<path d="M61.7019 230.865L76.0878 297.494H82.4205L68.5309 230.865H61.7019Z" fill="#E0E0E0"/>
<path d="M24.824 180.547L33.6117 226.67H43.5971L34.2072 180.547H24.824Z" fill="#E0E0E0"/>
<path d="M5.05859 176.359L6.85848 184.743H207.314L204.978 176.359H5.05859Z" fill="#EBEBEB"/>
<path d="M8.88989 192.644L11.0074 201.028H210.113L208.3 192.644H8.88989Z" fill="#EBEBEB"/>
<path d="M12.8469 209.505L14.8189 217.889H213.303L211.43 209.505H12.8469Z" fill="#EBEBEB"/>
<path d="M242.055 226.67H28.0203V235.054H242.055V226.67Z" fill="#EBEBEB"/>
<path d="M289.983 297.56C289.983 297.659 225.134 297.732 145.218 297.732C65.3018 297.732 0.439697 297.659 0.439697 297.56C0.439697 297.461 65.2489 297.388 145.218 297.388C225.187 297.388 289.983 297.467 289.983 297.56Z" fill="#263238"/>
<path d="M52.7423 24.5329C52.6102 24.5212 52.4773 24.5212 52.3452 24.5329L51.1806 24.566C50.9225 24.566 50.6314 24.566 50.3204 24.6057L49.2881 24.7513L48.0904 24.9233L46.7669 25.2542C44.4577 25.8375 42.2601 26.7965 40.2622 28.093C37.3004 29.9684 34.8082 32.4982 32.9773 35.4877C31.1464 38.4772 30.0256 41.8469 29.7011 45.3375C29.6092 46.3826 29.5871 47.4326 29.6349 48.4807C29.6746 49.0101 29.6349 49.5527 29.7408 50.0887C29.8467 50.6247 29.8996 51.1673 29.9856 51.7099C30.395 53.9386 31.1308 56.0948 32.1693 58.1088C33.2746 60.2197 34.6837 62.1572 36.3514 63.8591C38.1226 65.6045 40.154 67.0645 42.3731 68.1868C44.6673 69.3653 47.1516 70.1292 49.7116 70.4433C50.3689 70.5428 51.0321 70.5981 51.6968 70.6087C52.358 70.6454 53.0207 70.6454 53.6819 70.6087C55.017 70.5555 56.3452 70.3895 57.6523 70.1124C60.4655 69.5067 63.1422 68.3849 65.5466 66.8038H65.3084L73.3483 70.033L73.8248 70.2249L73.6858 69.7286C72.8785 66.7773 72.0845 63.9121 71.3235 61.1262L71.2838 61.338C73.4649 58.4471 74.934 55.0828 75.5717 51.518C75.8795 49.8605 75.9862 48.1719 75.8894 46.4889C75.8699 45.6793 75.7925 44.8721 75.6578 44.0736L75.4791 42.8957C75.4063 42.5053 75.2872 42.1348 75.1946 41.7576C73.8488 36.4746 70.6713 31.8409 66.2282 28.6819C64.5858 27.502 62.7889 26.5534 60.8881 25.863L59.6838 25.4329L58.5257 25.188L57.4802 24.9299C57.1427 24.8638 56.8185 24.8307 56.5207 24.7844C55.9119 24.7116 55.3759 24.6057 54.9061 24.5792L53.7282 24.5395H53.007C52.9255 24.532 52.8436 24.532 52.7621 24.5395C52.8434 24.5497 52.9257 24.5497 53.007 24.5395L53.7216 24.5991L54.8995 24.6785C55.3627 24.6785 55.8921 24.8307 56.4943 24.9167C60.8557 25.678 64.9024 27.6888 68.1432 30.7053C71.384 33.7217 73.6795 37.614 74.7512 41.9098C74.8372 42.2803 74.9563 42.6509 75.0225 43.0281C75.0887 43.4053 75.1416 43.7957 75.1946 44.1861C75.3286 44.9688 75.3994 45.761 75.4063 46.5551C75.4978 48.2076 75.3889 49.8651 75.0821 51.4915C74.4447 54.9813 72.9963 58.2724 70.8537 61.0998L70.7809 61.1924V61.3115C71.5352 64.0907 72.3161 66.9582 73.1234 69.9139L73.4675 69.6161L65.4606 66.3935L65.3349 66.3406L65.2224 66.4134C61.7687 68.6885 57.7611 69.9809 53.629 70.1521C52.9847 70.1753 52.3396 70.1621 51.6968 70.1124C51.0542 70.1028 50.4131 70.0497 49.7778 69.9536C47.271 69.6391 44.84 68.8818 42.5981 67.717C40.4238 66.626 38.4307 65.2065 36.6889 63.5084C35.0574 61.8419 33.6736 59.95 32.5796 57.8904C31.5591 55.9178 30.8323 53.8066 30.4223 51.6239C30.3363 51.0945 30.2569 50.5651 30.1775 50.0357C30.0981 49.5064 30.1047 48.9836 30.065 48.4608C30.0162 47.4329 30.0339 46.4029 30.118 45.3772C30.4254 41.9417 31.5112 38.6213 33.2929 35.6678C35.0746 32.7143 37.5055 30.2054 40.4011 28.3312C42.3646 27.0307 44.5254 26.0564 46.8 25.4461L48.1234 25.0888L49.3146 24.8969L50.3336 24.7248C50.6446 24.6917 50.9292 24.6851 51.1872 24.6653L52.3452 24.5792C52.479 24.5797 52.6123 24.5642 52.7423 24.5329Z" fill="#263238"/>
<path d="M49.1357 45.5293H50.4129L53.1061 41.6053L53.0531 39.0643C53.0531 39.0643 55.0383 38.9054 54.853 42.2339C54.6677 45.5624 54.9258 44.7154 54.9258 44.7154C54.9258 44.7154 59.1013 44.6426 59.452 44.9999C59.8027 45.3572 59.9086 49.4004 60.0012 51.6502C60.0398 52.1923 59.896 52.7317 59.5926 53.1826C59.2892 53.6334 58.8437 53.9699 58.3271 54.1383C58.1805 54.1792 58.0293 54.2015 57.8771 54.2045C56.8382 54.2045 51.4981 53.4898 51.4981 53.4898L49.3012 53.5361L49.1357 45.5293Z" fill="#FB8500"/>
<path d="M45.4832 44.9073L46.4427 53.5891L48.6197 53.5494L48.4477 45.0197L45.4832 44.9073Z" fill="#FB8500"/>
<path d="M47.6339 268.22C48.3074 268.543 48.9091 268.999 49.4035 269.559C49.8979 270.12 50.275 270.773 50.5124 271.482C50.975 272.905 51.1041 274.415 50.8896 275.896C50.5654 278.761 48.9375 281.653 47.1906 283.942C44.7753 281.831 44.2194 278.159 44.054 276.279C43.7959 273.308 45.1326 267.776 47.6339 268.22Z" fill="#FB8500"/>
<path d="M49.9895 288.634C49.8262 287.816 49.8815 286.969 50.1498 286.179C50.4182 285.389 50.8902 284.684 51.5181 284.134C52.1547 283.596 52.8924 283.191 53.6878 282.942C54.4833 282.693 55.3205 282.606 56.1502 282.685C56.5359 282.68 56.9182 282.759 57.2703 282.916C57.6223 283.074 57.9356 283.307 58.1883 283.598C58.3703 283.909 58.4662 284.264 58.4662 284.624C58.4662 284.984 58.3703 285.338 58.1883 285.65C57.8208 286.273 57.2959 286.789 56.6663 287.145C54.5753 288.469 52.3122 289.342 49.9498 288.634" fill="#FB8500"/>
<path d="M46.8992 297.415C46.9123 297.216 46.941 297.019 46.9852 296.826C47.058 296.415 47.1572 295.879 47.2764 295.237C47.5445 293.466 48.0988 291.749 48.9174 290.155C49.7681 288.563 51.0263 287.225 52.5635 286.278C53.0315 285.998 53.5314 285.776 54.0524 285.616C54.1912 285.572 54.3327 285.537 54.4759 285.51C54.5283 285.5 54.5823 285.5 54.6347 285.51C53.9434 285.748 53.2782 286.057 52.6495 286.43C51.1619 287.39 49.9435 288.713 49.1093 290.275C48.2994 291.852 47.7327 293.543 47.4286 295.29C47.283 295.952 47.1639 296.495 47.0712 296.865C47.0311 297.053 46.9735 297.237 46.8992 297.415Z" fill="#263238"/>
<path d="M46.9852 272.488C46.9985 272.573 46.9985 272.66 46.9852 272.746C46.9852 272.938 46.9852 273.183 47.0316 273.487C47.0316 274.149 47.0977 275.055 47.1374 276.2C47.2102 278.496 47.2698 281.672 47.2565 285.173C47.2433 288.673 47.1573 291.85 47.058 294.146C47.0117 295.291 46.9654 296.224 46.9257 296.859C46.9257 297.163 46.9257 297.408 46.8794 297.6C46.8886 297.686 46.8886 297.772 46.8794 297.858C46.8696 297.772 46.8696 297.686 46.8794 297.6C46.8794 297.408 46.8794 297.163 46.8794 296.859C46.8794 296.197 46.9191 295.271 46.9455 294.139C46.9985 291.843 47.0646 288.673 47.0779 285.173C47.0911 281.672 47.0779 278.503 47.0249 276.207C47.0249 275.075 46.9919 274.155 46.9786 273.487V272.746C46.9738 272.66 46.976 272.573 46.9852 272.488Z" fill="#263238"/>
<path d="M45.8207 290.38C45.5297 288.643 44.8286 287 43.7756 285.588C42.7226 284.176 41.348 283.035 39.7659 282.261C38.9652 281.877 37.9131 281.599 37.2447 282.221C36.5764 282.843 36.7352 283.902 37.0594 284.736C37.7676 286.465 38.9719 287.946 40.5205 288.992C42.069 290.037 43.8925 290.601 45.7611 290.612" fill="#FB8500"/>
<path d="M40.1562 284.981C40.335 285.037 40.5079 285.11 40.6723 285.199C40.8311 285.279 41.0296 285.378 41.248 285.51C41.5014 285.651 41.7466 285.805 41.9825 285.974C42.2776 286.177 42.5605 286.398 42.8295 286.635C43.141 286.877 43.4392 287.136 43.7228 287.409C44.3727 288.073 44.9454 288.808 45.4301 289.6C45.9008 290.398 46.2762 291.249 46.5484 292.134C46.6675 292.521 46.7626 292.914 46.8329 293.312C46.901 293.658 46.9496 294.007 46.9785 294.358C47.0068 294.646 47.0201 294.935 47.0182 295.224C47.0331 295.445 47.0331 295.666 47.0182 295.886C47.0145 296.073 46.9946 296.259 46.9587 296.442C46.9124 296.442 46.9918 295.648 46.8528 294.377C46.8137 294.033 46.7563 293.69 46.6808 293.352C46.6047 292.963 46.5075 292.579 46.3896 292.2C46.1054 291.334 45.7305 290.5 45.2713 289.712C44.7965 288.932 44.2373 288.206 43.6037 287.548C43.3248 287.264 43.0287 286.996 42.717 286.748C42.4572 286.513 42.1856 286.293 41.9031 286.086C40.8642 285.352 40.1363 285.021 40.1562 284.981Z" fill="#263238"/>
<path d="M184.558 273.09L185.027 296.826L155.495 297.56C155.601 294.735 170.714 288.693 170.714 288.693L169.788 273.474L184.558 273.09Z" fill="#FB8500"/>
<g opacity="0.6">
<path opacity="0.6" d="M179.833 287.184C180.113 287.263 180.355 287.44 180.514 287.684C180.673 287.927 180.739 288.22 180.7 288.508C180.633 288.795 180.459 289.046 180.212 289.209C179.966 289.371 179.667 289.433 179.376 289.381C179.072 289.297 178.81 289.103 178.641 288.836C178.473 288.569 178.409 288.25 178.463 287.939C178.566 287.645 178.778 287.402 179.056 287.262C179.333 287.121 179.655 287.093 179.952 287.184" fill="white"/>
</g>
<g opacity="0.6">
<path opacity="0.6" d="M185.027 296.825L184.888 294.437L156.626 296.011C156.626 296.011 155.303 296.62 155.495 297.54L185.027 296.825Z" fill="white"/>
</g>
<path d="M170.251 288.554C170.251 288.7 170.986 288.746 171.707 289.216C172.428 289.686 172.819 290.262 172.951 290.202C173.083 290.143 172.845 289.315 171.965 288.786C171.085 288.257 170.218 288.422 170.251 288.554Z" fill="#263238"/>
<path d="M167.187 289.911C167.187 290.05 167.789 290.281 168.292 290.877C168.795 291.472 168.954 292.121 169.1 292.108C169.245 292.094 169.318 291.28 168.67 290.552C168.021 289.825 167.187 289.772 167.187 289.911Z" fill="#263238"/>
<path d="M165.52 293.663C165.652 293.663 165.837 292.968 165.447 292.187C165.057 291.406 164.375 291.108 164.315 291.228C164.256 291.347 164.686 291.764 164.977 292.405C165.268 293.047 165.381 293.65 165.52 293.663Z" fill="#263238"/>
<path d="M170.43 285.067C170.489 285.199 171.144 284.981 171.965 285.014C172.786 285.047 173.421 285.292 173.494 285.166C173.566 285.04 172.944 284.544 171.978 284.504C171.012 284.465 170.357 284.954 170.43 285.067Z" fill="#263238"/>
<path d="M171.019 281.546C171.506 281.664 172.015 281.648 172.494 281.5C173.343 281.33 174.15 280.995 174.87 280.514C175.035 280.421 175.182 280.3 175.307 280.157C175.399 280.053 175.454 279.92 175.463 279.781C175.471 279.642 175.432 279.504 175.353 279.389C175.276 279.287 175.176 279.205 175.061 279.149C174.946 279.094 174.819 279.067 174.691 279.072C174.504 279.075 174.319 279.106 174.142 279.164C173.827 279.247 173.522 279.36 173.229 279.502C172.742 279.743 172.296 280.058 171.905 280.435C171.244 281.096 171.019 281.626 171.065 281.652C171.111 281.679 171.455 281.242 172.143 280.699C172.547 280.382 172.993 280.122 173.467 279.925C173.739 279.808 174.02 279.713 174.307 279.641C174.618 279.548 174.89 279.541 174.969 279.68C175.048 279.819 174.969 279.753 174.969 279.846C174.873 279.948 174.764 280.037 174.645 280.11C174.397 280.278 174.141 280.433 173.877 280.574C173.425 280.814 172.951 281.009 172.461 281.156C171.971 281.249 171.489 281.379 171.019 281.546Z" fill="#263238"/>
<path d="M171.237 281.745C171.508 281.317 171.631 280.813 171.588 280.309C171.609 279.429 171.38 278.562 170.926 277.808C170.843 277.614 170.71 277.446 170.542 277.32C170.374 277.193 170.175 277.113 169.967 277.086C169.835 277.092 169.709 277.135 169.601 277.21C169.493 277.285 169.409 277.389 169.358 277.51C169.288 277.686 169.241 277.871 169.219 278.059C169.169 278.388 169.169 278.723 169.219 279.052C169.31 279.604 169.538 280.124 169.881 280.567C170.476 281.315 171.085 281.473 171.091 281.427C171.098 281.381 170.628 281.083 170.172 280.362C169.909 279.944 169.737 279.475 169.669 278.985C169.629 278.7 169.629 278.411 169.669 278.125C169.709 277.814 169.821 277.556 169.933 277.589C170.046 277.622 170.337 277.808 170.463 278.059C170.618 278.311 170.749 278.577 170.853 278.853C171.03 279.323 171.139 279.815 171.178 280.315C171.297 281.182 171.158 281.725 171.237 281.745Z" fill="#263238"/>
<path d="M208.631 272.62L209.101 296.356L179.575 297.097C179.674 294.271 194.794 288.223 194.794 288.223L193.868 273.004L208.631 272.62Z" fill="#FB8500"/>
<g opacity="0.6">
<path opacity="0.6" d="M203.906 286.747C204.183 286.831 204.421 287.01 204.578 287.252C204.736 287.494 204.802 287.784 204.767 288.071C204.698 288.357 204.524 288.607 204.278 288.77C204.032 288.932 203.733 288.994 203.443 288.944C203.139 288.862 202.878 288.669 202.709 288.403C202.54 288.137 202.476 287.818 202.53 287.508C202.63 287.213 202.842 286.968 203.12 286.827C203.399 286.686 203.721 286.66 204.019 286.754" fill="white"/>
</g>
<g opacity="0.6">
<path opacity="0.6" d="M209.101 296.356L208.962 293.967L180.7 295.568C180.7 295.568 179.376 296.171 179.575 297.097L209.101 296.356Z" fill="white"/>
</g>
<path d="M194.325 288.071C194.325 288.217 195.059 288.263 195.78 288.733C196.502 289.203 196.892 289.772 197.024 289.712C197.157 289.653 196.919 288.826 196.039 288.303C195.158 287.78 194.292 287.952 194.325 288.071Z" fill="#263238"/>
<path d="M191.261 289.447C191.261 289.586 191.863 289.818 192.366 290.413C192.869 291.009 193.028 291.651 193.173 291.644C193.319 291.637 193.391 290.817 192.75 290.082C192.108 289.348 191.261 289.308 191.261 289.447Z" fill="#263238"/>
<path d="M189.593 293.193C189.726 293.226 189.911 292.498 189.52 291.717C189.13 290.936 188.448 290.638 188.389 290.758C188.329 290.877 188.759 291.294 189.051 291.942C189.342 292.59 189.454 293.186 189.593 293.193Z" fill="#263238"/>
<path d="M194.503 284.597C194.563 284.729 195.218 284.518 196.038 284.551C196.859 284.584 197.494 284.829 197.567 284.703C197.64 284.577 197.018 284.041 196.052 284.041C195.086 284.041 194.424 284.491 194.503 284.597Z" fill="#263238"/>
<path d="M195.119 281.077C195.605 281.2 196.115 281.186 196.594 281.037C197.125 280.927 197.64 280.754 198.129 280.521C198.419 280.382 198.7 280.225 198.97 280.051C199.133 279.953 199.28 279.83 199.407 279.687C199.499 279.583 199.554 279.451 199.563 279.311C199.571 279.172 199.532 279.034 199.453 278.92C199.375 278.819 199.275 278.738 199.16 278.684C199.045 278.63 198.918 278.604 198.791 278.609C198.605 278.613 198.421 278.642 198.242 278.695C197.927 278.78 197.622 278.895 197.329 279.039C196.843 279.278 196.397 279.59 196.005 279.965C195.344 280.627 195.119 281.163 195.165 281.189C195.211 281.216 195.555 280.772 196.244 280.23C196.649 279.915 197.094 279.655 197.567 279.456C197.84 279.341 198.121 279.246 198.407 279.171C198.718 279.085 198.99 279.072 199.069 279.211C199.149 279.35 199.069 279.284 199.069 279.376C198.973 279.478 198.864 279.567 198.745 279.641C198.499 279.811 198.242 279.965 197.977 280.104C197.524 280.343 197.05 280.54 196.561 280.693C196.072 280.786 195.59 280.914 195.119 281.077Z" fill="#263238"/>
<path d="M195.31 281.282C195.58 280.854 195.703 280.35 195.661 279.846C195.679 278.965 195.45 278.096 194.999 277.338C194.915 277.145 194.782 276.978 194.614 276.852C194.446 276.725 194.248 276.644 194.04 276.617C193.907 276.619 193.778 276.661 193.669 276.738C193.561 276.815 193.478 276.922 193.431 277.047C193.36 277.22 193.313 277.403 193.292 277.589C193.245 277.921 193.245 278.257 193.292 278.589C193.385 279.138 193.612 279.657 193.954 280.097C194.549 280.852 195.158 281.004 195.171 280.958C195.185 280.911 194.708 280.62 194.245 279.892C193.981 279.475 193.809 279.005 193.742 278.516C193.702 278.233 193.702 277.945 193.742 277.662C193.782 277.345 193.894 277.087 194.013 277.12C194.133 277.153 194.41 277.345 194.543 277.589C194.692 277.843 194.82 278.109 194.927 278.383C195.103 278.856 195.212 279.35 195.251 279.853C195.37 280.719 195.231 281.262 195.31 281.282Z" fill="#263238"/>
<path d="M155.799 156.435C155.514 156.435 157.122 186.212 158.366 193.551C160.279 205.091 166.645 284.048 166.645 284.048H185.993L186.39 174.202L189.904 216.486L191.228 284.273L210.14 283.77L212.125 211.86C211.529 206.494 213.137 157.136 213.137 157.136L155.799 156.435Z" fill="#263238"/>
<path d="M164.554 45.3112C162.271 44.2524 160.841 41.9166 160.001 39.5476C159.161 37.1786 158.777 34.631 157.844 32.3216C157.182 30.5812 157.91 27.8086 156.348 26.7697C154.396 25.4793 154.416 22.0384 155.17 20.3245C155.991 18.4585 158.221 17.0688 158.373 16.4799C158.77 14.9249 157.42 13.2441 157.923 11.7221C159.101 8.14219 162.019 8.61201 162.019 8.61201C163.343 7.00403 165.143 4.87328 168.061 4.11891C171.217 3.30499 175.882 2.69621 178.695 4.35051C181.507 6.00482 183.578 7.11652 184.485 10.2531" fill="#263238"/>
<path d="M190.572 53.0268L183.955 64.3953L174.81 73.527L169.444 66.1554V58.7243V52.4975C169.444 52.4975 161.179 51.3593 160.934 43.1142C160.815 39.1439 161.238 30.912 161.715 23.4809C161.959 19.6258 163.645 16.0039 166.438 13.3358C169.231 10.6676 172.927 9.14891 176.789 9.08179H177.583C186.185 9.43912 190.672 16.9298 190.076 25.5058L190.619 53.0401" fill="#CE947A"/>
<path d="M164.084 29.5821C164.089 29.8889 164.212 30.1819 164.428 30.4001C164.643 30.6183 164.935 30.7448 165.242 30.7533C165.392 30.7622 165.543 30.7411 165.684 30.6911C165.826 30.6412 165.957 30.5634 166.069 30.4623C166.18 30.3612 166.27 30.239 166.334 30.1026C166.398 29.9662 166.434 29.8185 166.439 29.6681C166.434 29.3613 166.311 29.0683 166.096 28.8501C165.88 28.6319 165.588 28.5053 165.281 28.4969C165.131 28.4879 164.981 28.5091 164.839 28.5591C164.697 28.609 164.566 28.6868 164.455 28.7879C164.343 28.8889 164.253 29.0112 164.189 29.1476C164.125 29.284 164.09 29.4317 164.084 29.5821Z" fill="#263238"/>
<path d="M163.376 27.0476C163.528 27.1998 164.408 26.5248 165.672 26.505C166.936 26.4851 167.882 27.1071 168.014 26.9483C168.147 26.7895 167.928 26.6042 167.518 26.2866C166.964 25.9126 166.307 25.7207 165.639 25.7374C164.977 25.7582 164.34 25.9901 163.819 26.3991C163.435 26.6902 163.303 26.9814 163.376 27.0476Z" fill="#263238"/>
<path d="M175.988 29.2975C175.99 29.6042 176.111 29.8982 176.326 30.1169C176.541 30.3356 176.833 30.4618 177.14 30.4687C177.29 30.4776 177.44 30.4565 177.582 30.4065C177.724 30.3566 177.855 30.2788 177.966 30.1777C178.078 30.0766 178.168 29.9543 178.232 29.818C178.296 29.6816 178.331 29.5339 178.337 29.3835C178.334 29.0762 178.211 28.7822 177.995 28.5637C177.779 28.3451 177.487 28.2191 177.179 28.2123C177.029 28.2033 176.879 28.2245 176.738 28.2746C176.596 28.3246 176.466 28.4025 176.355 28.5036C176.244 28.6048 176.154 28.7271 176.091 28.8635C176.028 28.9998 175.993 29.1474 175.988 29.2975Z" fill="#263238"/>
<path d="M176.001 26.4786C176.134 26.644 177.08 26.0683 178.344 26.1874C179.608 26.3065 180.468 27.0212 180.62 26.8492C180.772 26.6771 180.574 26.4918 180.197 26.1874C179.687 25.7556 179.056 25.4941 178.39 25.4397C177.733 25.377 177.072 25.5253 176.504 25.8632C176.094 26.1345 175.935 26.3992 176.001 26.4786Z" fill="#263238"/>
<path d="M171.528 36.9801C170.857 36.7827 170.163 36.6694 169.464 36.6426C169.139 36.6426 168.835 36.5566 168.802 36.3382C168.772 36.0037 168.841 35.6676 169 35.3721C169.292 34.5847 169.596 33.7575 169.92 32.8973C171.184 29.3637 172.097 26.4653 171.958 26.4124C171.819 26.3594 170.668 29.185 169.397 32.7186L168.524 35.2067C168.328 35.6022 168.274 36.0533 168.372 36.4838C168.422 36.5969 168.496 36.6973 168.59 36.7775C168.684 36.8577 168.795 36.9156 168.914 36.947C169.094 36.9924 169.278 37.0147 169.464 37.0132C170.15 37.089 170.844 37.0779 171.528 36.9801Z" fill="#263238"/>
<path d="M175.274 37.794C175.068 37.794 175.088 39.1638 173.95 40.1564C172.812 41.149 171.303 41.0298 171.303 41.2217C171.303 41.3078 171.634 41.4798 172.249 41.4864C173.056 41.4861 173.837 41.2001 174.453 40.6791C175.043 40.177 175.416 39.4653 175.492 38.694C175.532 38.1249 175.366 37.7808 175.274 37.794Z" fill="#263238"/>
<path d="M176.081 22.3031C176.187 22.6538 177.457 22.5744 178.933 22.8523C180.409 23.1302 181.58 23.6199 181.792 23.3221C181.891 23.1832 181.706 22.8457 181.242 22.4751C180.627 22.019 179.913 21.7151 179.158 21.5884C178.406 21.4434 177.629 21.482 176.895 21.7009C176.313 21.8862 176.041 22.1376 176.081 22.3031Z" fill="#263238"/>
<path d="M163.912 23.8051C164.137 24.0896 165.01 23.8051 166.056 23.7455C167.101 23.6859 168.001 23.9043 168.2 23.5999C168.286 23.4543 168.14 23.1632 167.75 22.8985C167.223 22.5803 166.613 22.4261 165.997 22.4555C165.382 22.485 164.79 22.6968 164.296 23.0639C163.925 23.3816 163.813 23.6661 163.912 23.8051Z" fill="#263238"/>
<path d="M183.869 9.664C183.873 10.5807 183.674 11.4868 183.288 12.318C182.901 13.1492 182.336 13.885 181.633 14.4732C180.93 15.0613 180.106 15.4873 179.219 15.7209C178.333 15.9545 177.406 15.9899 176.504 15.8246C175.108 15.5732 173.58 14.8651 172.375 15.6129C171.171 16.3606 171.052 18.3061 169.927 19.2855C168.319 20.6817 165.758 19.3715 163.713 19.9472C162.138 20.417 161.152 21.9324 160.107 23.1896C159.061 24.4469 157.46 25.6645 155.912 25.1748C155.958 23.7528 156.167 22.3408 156.534 20.9662C156.914 19.5802 157.76 18.3674 158.929 17.5319C159.61 17.1757 160.273 16.7848 160.914 16.3606C162.238 15.3019 162.529 13.4623 163.336 11.9866C163.869 11.0382 164.619 10.2302 165.526 9.62954C166.433 9.02887 167.47 8.6528 168.551 8.53245C170.35 8.34717 172.197 8.88317 173.95 8.44643C175.241 8.11557 176.372 7.27518 177.682 7.03034C180.237 6.54067 182.606 8.35379 184.458 10.2" fill="#263238"/>
<path d="M175.703 13.2972C176.848 12.9663 179.191 12.2252 179.8 11.2326C181.123 9.07536 183.485 7.60633 185.887 7.73868C187.13 7.83499 188.307 8.33133 189.244 9.1533C190.18 9.97527 190.825 11.0786 191.082 12.298C192.574 12.3522 194.024 12.8073 195.279 13.6154C196.534 14.4235 197.548 15.5548 198.215 16.8903C198.901 18.2919 199.236 19.8391 199.191 21.3987C199.146 22.9583 198.723 24.4837 197.957 25.8434C197.462 26.4856 197.141 27.2445 197.024 28.047C197.024 29.066 197.765 29.8667 198.295 30.6939C199.737 32.9834 199.618 36.1332 198.513 38.6345C197.408 41.1359 196.607 42.0027 195.019 42.5056C191.902 43.4784 195.019 49.7449 189.818 49.7449L188.773 31.2166C188.622 31.3012 188.459 31.3615 188.289 31.3953C185.219 32.0901 184.815 26.1015 185.504 24.3876C184.347 23.4419 183.313 22.3549 182.427 21.1518C181.58 19.9012 180.832 16.5197 181.011 14.9515C179.905 14.9912 175.201 13.456 175.703 13.2972Z" fill="#263238"/>
<path d="M188.343 31.3222C188.482 31.256 193.981 29.5488 193.895 35.1867C193.809 40.8245 188.164 39.5805 188.157 39.4217C188.151 39.2629 188.343 31.3222 188.343 31.3222Z" fill="#CE947A"/>
<path d="M189.911 37.2779C189.911 37.2779 190.01 37.3507 190.176 37.4301C190.411 37.5268 190.675 37.5268 190.91 37.4301C191.512 37.2183 192.028 36.2787 192.068 35.2662C192.088 34.7837 192.002 34.3026 191.817 33.8568C191.765 33.6802 191.672 33.5185 191.545 33.385C191.419 33.2515 191.262 33.1501 191.089 33.0892C190.976 33.058 190.856 33.0666 190.748 33.1136C190.641 33.1606 190.553 33.2431 190.5 33.3472C190.427 33.5061 190.46 33.6186 190.427 33.6252C190.394 33.6318 190.308 33.5325 190.354 33.3009C190.391 33.162 190.473 33.0388 190.586 32.9502C190.742 32.8347 190.936 32.7848 191.128 32.8112C191.36 32.8606 191.574 32.9688 191.752 33.1252C191.929 33.2817 192.063 33.4812 192.141 33.7046C192.375 34.1955 192.484 34.7364 192.459 35.2795C192.406 36.4176 191.797 37.4698 190.989 37.6948C190.838 37.7366 190.679 37.7441 190.525 37.7166C190.37 37.6891 190.224 37.6274 190.096 37.536C189.924 37.4367 189.891 37.311 189.911 37.2779Z" fill="#A56349"/>
<path d="M197.699 40.3085C197.355 40.6821 197.097 41.1261 196.942 41.6097C196.787 42.0934 196.739 42.605 196.802 43.1089C196.865 43.6128 197.038 44.0969 197.307 44.5276C197.576 44.9582 197.936 45.3249 198.361 45.6023C198.13 45.8106 197.859 45.9702 197.564 46.0714C197.27 46.1725 196.958 46.2133 196.647 46.1912C196.429 46.8993 197.428 47.389 197.633 48.1036C197.68 48.3225 197.668 48.55 197.599 48.7628C197.529 48.9756 197.404 49.166 197.236 49.3146C196.901 49.6146 196.507 49.8402 196.078 49.9763C194.825 50.4254 193.511 50.6777 192.181 50.724C191.797 50.7775 191.406 50.7459 191.035 50.6316C190.665 50.5173 190.324 50.3229 190.037 50.0623C189.678 49.5217 189.51 48.8764 189.56 48.2293L189.421 43.4186C189.358 42.9469 189.446 42.4673 189.673 42.0488C190.035 41.6429 190.53 41.38 191.069 41.3077L197.905 39.5608" fill="#263238"/>
<path d="M215.036 150.241C214.156 145.079 208.869 120.159 208.869 120.159L212.138 60.6036C210.629 59.5912 190.559 52.3122 190.559 52.3122C190.559 52.3122 187.469 61.4837 177.649 63.4953C167.829 65.507 169.391 58.1552 169.391 58.1552C169.391 58.1552 150.201 68.4053 149.082 69.1597C147.964 69.914 143.187 89.1702 143.187 89.1702L139.573 101.63L154.747 105.157C154.747 105.157 155.124 134.862 154.747 137C154.37 139.137 153.609 156.388 153.609 156.388L213.164 157.142C213.164 157.142 215.917 155.402 215.036 150.241Z" fill="#FB8500"/>
<path d="M212.138 60.6233C212.138 60.6233 215.811 64.2231 217.041 67.7831C218.272 71.3432 222.077 94.6888 222.077 94.6888C222.077 94.6888 201.193 97.6401 201.193 97.2695C201.193 96.899 203.033 83.8763 203.648 79.8265C204.264 75.7768 212.138 60.6233 212.138 60.6233Z" fill="#FB8500"/>
<path d="M167.313 89.3225L165.93 92.5385H165.063L163.687 89.3225H164.673L165.546 91.4202L166.44 89.3225H167.313Z" fill="white"/>
<path d="M167.293 90.9304C167.269 90.5713 167.354 90.2133 167.536 89.903C167.718 89.5927 167.99 89.3444 168.315 89.1905C168.64 89.0365 169.004 88.9839 169.36 89.0396C169.715 89.0953 170.046 89.2566 170.308 89.5027C170.571 89.7488 170.754 90.0681 170.832 90.4193C170.911 90.7705 170.882 91.1372 170.75 91.4717C170.617 91.8063 170.387 92.0932 170.089 92.2953C169.791 92.4973 169.44 92.605 169.08 92.6045C168.851 92.619 168.621 92.5864 168.405 92.5089C168.19 92.4313 167.992 92.3104 167.825 92.1535C167.657 91.9967 167.524 91.8073 167.432 91.5969C167.341 91.3866 167.293 91.1597 167.293 90.9304ZM169.94 90.9304C169.931 90.7596 169.872 90.5952 169.77 90.4577C169.669 90.3201 169.529 90.2154 169.368 90.1566C169.208 90.0977 169.033 90.0873 168.867 90.1266C168.701 90.1659 168.549 90.2532 168.432 90.3776C168.315 90.5021 168.237 90.6582 168.207 90.8267C168.178 90.9952 168.199 91.1685 168.267 91.3253C168.335 91.4821 168.448 91.6155 168.591 91.7087C168.734 91.802 168.902 91.8512 169.073 91.8502C169.192 91.8523 169.311 91.8296 169.421 91.7835C169.531 91.7374 169.63 91.6689 169.712 91.5824C169.794 91.4959 169.858 91.3933 169.898 91.281C169.938 91.1688 169.955 91.0494 169.947 90.9304H169.94Z" fill="white"/>
<path d="M171.343 89.3225H172.25V91.8172H173.785V92.5385H171.343V89.3225Z" fill="white"/>
<path d="M174.083 91.1092V89.3225H174.989V91.0761C174.989 91.6319 175.221 91.8503 175.604 91.8503C175.988 91.8503 176.207 91.6319 176.207 91.0761V89.3225H177.107V91.1092C177.081 91.4929 176.911 91.8526 176.63 92.1154C176.349 92.3782 175.979 92.5244 175.595 92.5244C175.21 92.5244 174.84 92.3782 174.559 92.1154C174.278 91.8526 174.108 91.4929 174.083 91.1092Z" fill="white"/>
<path d="M180.779 89.3225V92.5385H180.031L178.609 90.8246V92.5385H177.715V89.3225H178.463L179.886 91.0364V89.3225H180.779Z" fill="white"/>
<path d="M182.102 90.0438H181.116V89.3225H183.995V90.0438H183.016V92.5385H182.102V90.0438Z" fill="white"/>
<path d="M186.9 91.8371V92.5385H184.319V89.3225H186.841V90.0239H185.219V90.5666H186.649V91.2283H185.219V91.8172L186.9 91.8371Z" fill="white"/>
<path d="M190.004 91.8371V92.5385H187.423V89.3225H189.944V90.0239H188.323V90.5666H189.752V91.2283H188.323V91.8172L190.004 91.8371Z" fill="white"/>
<path d="M191.909 91.6849H191.413V92.5385H190.506V89.3225H191.975C192.855 89.3225 193.405 89.7791 193.405 90.5136C193.412 90.7256 193.356 90.935 193.244 91.1152C193.132 91.2955 192.969 91.4384 192.776 91.5261L193.471 92.5385H192.492L191.909 91.6849ZM191.909 90.0372H191.4V90.9834H191.909C192.286 90.9834 192.472 90.8048 192.472 90.5136C192.472 90.2225 192.3 90.0372 191.922 90.0372H191.909Z" fill="white"/>
<path d="M154.8 115.07C154.765 114.966 154.747 114.856 154.747 114.746C154.747 114.488 154.694 114.17 154.654 113.793C154.595 112.972 154.529 111.808 154.482 110.299C154.383 107.341 154.35 103.265 154.383 98.7519C154.416 94.239 154.496 90.1495 154.582 87.2115C154.628 85.7755 154.674 84.5646 154.701 83.7176C154.701 83.3338 154.74 83.0228 154.754 82.7647C154.754 82.6528 154.769 82.5414 154.8 82.4338C154.816 82.5436 154.816 82.655 154.8 82.7647C154.8 83.0228 154.8 83.3404 154.8 83.7176C154.8 84.5977 154.8 85.7822 154.8 87.2181C154.8 90.2157 154.74 94.2721 154.701 98.7586C154.661 103.245 154.668 107.361 154.701 110.292C154.701 111.768 154.74 112.939 154.767 113.786C154.767 114.17 154.767 114.448 154.767 114.739C154.792 114.848 154.803 114.959 154.8 115.07Z" fill="#263238"/>
<path d="M203.079 76.2334C203.113 76.4904 203.113 76.7507 203.079 77.0076C203.079 77.5833 203.079 78.2848 203.046 79.1185C203.046 80.9846 203.006 83.4065 202.98 86.0931C202.954 88.7797 202.907 91.281 202.815 93.0677C202.768 93.961 202.722 94.6823 202.669 95.1786C202.657 95.4375 202.619 95.6946 202.557 95.9462C202.523 95.6892 202.523 95.4289 202.557 95.172C202.557 94.5963 202.557 93.8948 202.557 93.0611C202.557 91.195 202.596 88.7731 202.623 86.0865C202.649 83.3999 202.702 80.8986 202.788 79.1119C202.834 78.2186 202.887 77.4973 202.934 77.001C202.957 76.741 203.006 76.4839 203.079 76.2334Z" fill="#263238"/>
<path d="M211.509 61.0999C208.632 62.1102 206.119 63.9528 204.29 66.3937C204.442 65.9724 204.666 65.5806 204.952 65.2357C205.61 64.3624 206.395 63.5929 207.281 62.9527C208.163 62.3069 209.135 61.7942 210.166 61.4307C210.59 61.2401 211.045 61.128 211.509 61.0999Z" fill="#263238"/>
<path d="M153.695 75.83C153.609 75.8829 152.735 74.3742 151.445 72.6736C150.154 70.9729 148.957 69.7024 149.03 69.6296C151.025 71.317 152.61 73.4376 153.662 75.83H153.695Z" fill="#263238"/>
<path d="M190.241 113.171C190.181 113.279 190.11 113.381 190.03 113.475C189.858 113.694 189.646 113.972 189.368 114.302C188.806 115.024 187.959 116.043 186.887 117.274C184.086 120.487 181.115 123.549 177.986 126.445C174.857 129.338 171.577 132.064 168.16 134.611C166.836 135.583 165.764 136.351 165.003 136.854L164.123 137.436C164.025 137.511 163.919 137.573 163.806 137.622C163.89 137.533 163.983 137.453 164.084 137.383L164.924 136.722C165.665 136.179 166.717 135.398 168.014 134.386C170.595 132.401 174.095 129.549 177.755 126.167C181.414 122.786 184.518 119.517 186.708 117.088C187.8 115.877 188.693 114.885 189.269 114.19L189.93 113.402C190.142 113.25 190.208 113.164 190.241 113.171Z" fill="#263238"/>
<path d="M215.4 189.474L223.295 165.301C224.473 161.688 225.763 157.903 228.589 155.375C230.236 153.893 232.744 152.927 234.663 154.052C235.291 154.475 235.807 155.044 236.167 155.71C236.526 156.376 236.719 157.12 236.728 157.877C236.738 159.39 236.489 160.894 235.993 162.324C232.817 173.328 228.952 184.114 224.936 194.841L225.346 194.1" fill="#FB8500"/>
<path d="M225.942 183.942C225.942 184.048 224.691 183.777 223.295 183.175C221.899 182.572 220.833 181.898 220.893 181.798C220.952 181.699 222.064 182.209 223.454 182.791C224.843 183.373 225.988 183.83 225.942 183.942Z" fill="#263238"/>
<path d="M228.589 178.106C228.542 178.212 227.265 177.689 225.644 177.054C224.023 176.419 222.746 175.896 222.779 175.783C222.812 175.671 224.182 176.022 225.796 176.67C227.411 177.319 228.589 178 228.589 178.106Z" fill="#263238"/>
<path d="M231.01 173.282C230.944 173.381 229.687 172.574 228 171.853C226.312 171.131 224.876 170.761 224.903 170.635C224.929 170.509 226.445 170.721 228.165 171.469C229.885 172.217 231.077 173.196 231.01 173.282Z" fill="#263238"/>
<path d="M232.559 167.201C232.48 167.293 231.394 166.4 229.872 165.626C228.35 164.852 227.007 164.474 227.034 164.355C227.06 164.236 228.489 164.441 230.064 165.255C231.639 166.069 232.632 167.128 232.559 167.201Z" fill="#263238"/>
<path d="M215.241 168.802H212.886V173.467H215.241V168.802Z" fill="#263238"/>
<path d="M212.608 182.572V172.838H215.48V180.958C215.48 180.958 218.504 181.044 218.881 182.374C219.708 185.299 219.344 191.876 219.344 191.876L212.608 182.572Z" fill="#455A64"/>
<path d="M237.456 208.439C236.642 203.549 235.391 198.712 235.153 193.762C234.994 190.368 235.318 186.947 234.895 183.572C234.385 179.509 232.817 175.664 231.262 171.879C230.256 169.424 229.158 166.85 227.06 165.216C225.789 164.263 224.254 163.728 222.666 163.687C219.781 162.502 211.867 162.165 209.365 167.472C208.042 170.291 207.883 173.5 207.122 176.531C206.103 180.607 206.838 181.951 205.501 185.934C202.662 194.45 198.354 205.018 199.612 213.912C199.856 215.639 202.735 218.484 203.714 219.927C205.124 222.011 207.685 222.944 210.173 223.474C217.2 224.944 224.513 224.162 231.07 221.237C233.413 220.185 235.748 218.756 236.933 216.479C238.19 214.057 237.906 211.139 237.456 208.439ZM229.952 180.978C228.628 182.089 226.696 181.547 224.982 181.461C222.924 181.355 220.913 182.023 218.881 182.374C216.85 182.725 214.58 182.712 212.926 181.454C211.716 180.426 210.956 178.965 210.808 177.385C210.666 175.821 210.753 174.245 211.066 172.706C211.205 171.505 211.513 170.328 211.979 169.212C212.453 168.084 213.338 167.178 214.454 166.678C215.778 166.016 220.555 165.579 222.395 165.302C224.03 166.122 225.453 167.311 226.55 168.776C228.021 170.813 229.211 173.039 230.091 175.393C230.521 176.294 230.8 177.26 230.918 178.251C230.978 178.75 230.922 179.255 230.755 179.728C230.587 180.201 230.312 180.629 229.952 180.978Z" fill="#FAFAFA"/>
<path d="M229.952 180.978C230.275 180.65 230.521 180.254 230.673 179.82C230.847 179.3 230.908 178.75 230.852 178.205C230.76 177.471 230.564 176.753 230.269 176.074C229.54 174.218 228.68 172.416 227.695 170.681C226.461 168.451 224.599 166.631 222.342 165.447H222.435L218.564 165.957C217.902 166.049 217.24 166.155 216.539 166.281C215.859 166.388 215.193 166.57 214.554 166.823C213.503 167.294 212.666 168.138 212.204 169.192C211.79 170.135 211.507 171.13 211.364 172.15C211.199 173.163 211.033 174.135 210.967 175.141C210.886 176.101 210.939 177.068 211.126 178.013C211.314 178.91 211.696 179.754 212.244 180.488C212.78 181.174 213.494 181.698 214.309 182.003C215.088 182.279 215.91 182.416 216.737 182.407C218.237 182.348 219.726 182.126 221.177 181.745C222.399 181.45 223.653 181.31 224.91 181.328C226.015 181.395 226.948 181.567 227.715 181.567C228.305 181.596 228.894 181.489 229.436 181.256C229.8 181.077 229.958 180.931 229.972 180.945C229.825 181.096 229.655 181.224 229.469 181.322C228.922 181.584 228.321 181.713 227.715 181.699C226.934 181.699 225.988 181.567 224.903 181.52C223.664 181.523 222.431 181.679 221.23 181.983C219.759 182.369 218.25 182.591 216.731 182.645C215.87 182.663 215.014 182.524 214.203 182.235C213.333 181.921 212.569 181.368 211.999 180.64C210.866 179.02 210.377 177.036 210.63 175.075C210.696 174.069 210.861 173.09 211.027 172.044C211.177 170.995 211.469 169.972 211.893 169C212.391 167.863 213.298 166.953 214.434 166.453C215.106 166.187 215.805 165.999 216.519 165.89C217.181 165.765 217.882 165.659 218.557 165.566L222.421 165.07H222.474H222.521C224.827 166.287 226.721 168.162 227.96 170.456C228.941 172.208 229.786 174.034 230.488 175.915C230.779 176.615 230.966 177.353 231.044 178.106C231.089 178.67 231.01 179.237 230.812 179.767C230.687 180.097 230.501 180.4 230.263 180.66C230.177 180.782 230.072 180.89 229.952 180.978Z" fill="#263238"/>
<path d="M237.456 208.439C237.456 208.439 237.588 209.002 237.727 210.093C237.82 210.767 237.873 211.445 237.886 212.125C237.912 213.055 237.816 213.985 237.601 214.891C237.325 216.034 236.778 217.094 236.007 217.981C235.08 219.018 233.975 219.881 232.744 220.529C229.755 222.098 226.54 223.194 223.215 223.778C219.183 224.51 215.052 224.51 211.02 223.778C209.911 223.597 208.819 223.32 207.758 222.951C206.645 222.579 205.611 222.005 204.707 221.257C204.255 220.868 203.855 220.423 203.516 219.933C203.178 219.457 202.795 219 202.411 218.537C201.605 217.614 200.858 216.642 200.174 215.625C199.81 215.094 199.562 214.492 199.446 213.859C199.387 213.23 199.294 212.601 199.274 211.966C199.211 210.682 199.233 209.396 199.34 208.115C199.582 205.481 200.042 202.871 200.717 200.313C201.379 197.706 202.206 195.092 203.092 192.465C203.542 191.142 203.999 189.818 204.456 188.495C204.912 187.171 205.402 185.848 205.779 184.471C206.099 183.084 206.294 181.672 206.361 180.25C206.482 178.833 206.723 177.43 207.083 176.054C207.711 173.341 207.93 170.536 208.988 167.975C209.116 167.655 209.266 167.346 209.438 167.048C209.598 166.742 209.786 166.452 210.001 166.181C210.413 165.634 210.903 165.15 211.457 164.746C212.554 163.969 213.8 163.426 215.116 163.151C216.391 162.871 217.697 162.764 219 162.833C220.278 162.878 221.542 163.122 222.746 163.554H222.845V163.667L222.693 163.508C224.555 163.551 226.338 164.271 227.709 165.533C228.948 166.774 229.929 168.25 230.594 169.874C231.9 172.812 233.042 175.821 234.015 178.887C234.443 180.301 234.764 181.745 234.974 183.208C235.15 184.575 235.236 185.952 235.232 187.33C235.232 189.977 235.14 192.412 235.305 194.609C235.454 196.57 235.704 198.523 236.053 200.459C236.344 202.153 236.622 203.602 236.84 204.78C237.059 205.958 237.217 206.858 237.323 207.473C237.37 207.771 237.403 208.002 237.429 208.168C237.456 208.333 237.429 208.406 237.429 208.406C237.429 208.406 237.429 208.327 237.376 208.174C237.323 208.022 237.297 207.777 237.244 207.48C237.118 206.858 236.946 205.958 236.715 204.793C236.483 203.628 236.185 202.179 235.874 200.485C235.513 198.545 235.251 196.589 235.087 194.622C234.908 192.412 235.007 189.99 234.981 187.343C234.972 185.976 234.877 184.61 234.696 183.254C234.485 181.805 234.165 180.373 233.737 178.973C232.748 175.922 231.595 172.926 230.283 170C229.629 168.414 228.667 166.974 227.45 165.765C226.135 164.558 224.425 163.871 222.64 163.832H222.488V163.667L222.587 163.812C221.415 163.406 220.187 163.183 218.947 163.151C217.673 163.086 216.396 163.191 215.149 163.462C213.877 163.728 212.673 164.255 211.615 165.01C211.088 165.394 210.619 165.853 210.226 166.373C210.023 166.632 209.846 166.909 209.696 167.2C209.53 167.49 209.384 167.791 209.26 168.1C208.234 170.589 208.009 173.394 207.38 176.121C207.023 177.48 206.783 178.868 206.666 180.27C206.596 181.709 206.399 183.14 206.077 184.544C205.706 185.94 205.21 187.264 204.753 188.601C204.297 189.937 203.847 191.248 203.39 192.571C202.503 195.218 201.683 197.799 201.021 200.399C200.346 202.937 199.883 205.527 199.638 208.141C199.532 209.407 199.507 210.678 199.565 211.946C199.565 212.575 199.685 213.197 199.737 213.812C199.836 214.401 200.062 214.961 200.399 215.453C201.072 216.461 201.808 217.424 202.603 218.338C202.987 218.808 203.37 219.265 203.721 219.755C204.039 220.245 204.422 220.69 204.859 221.078C205.734 221.801 206.735 222.357 207.811 222.719C208.858 223.083 209.934 223.359 211.026 223.546C215.023 224.288 219.12 224.306 223.123 223.599C226.428 223.032 229.627 221.958 232.605 220.416C233.821 219.785 234.916 218.945 235.841 217.935C236.6 217.068 237.142 216.034 237.423 214.917C237.771 213.356 237.836 211.744 237.615 210.16C237.548 209.624 237.495 209.213 237.462 208.922C237.429 208.631 237.456 208.439 237.456 208.439Z" fill="#263238"/>
<path d="M229.952 180.978C230.265 180.645 230.506 180.25 230.66 179.82C230.833 179.3 230.894 178.75 230.838 178.205C230.747 177.472 230.549 176.756 230.249 176.081C229.52 174.226 228.657 172.426 227.669 170.695C226.438 168.467 224.578 166.651 222.322 165.474H222.434L218.563 165.983C217.902 166.082 217.24 166.182 216.545 166.307C215.866 166.415 215.201 166.595 214.56 166.843C213.52 167.315 212.69 168.153 212.231 169.199C211.818 170.14 211.537 171.133 211.397 172.15C211.225 173.156 211.066 174.135 210.993 175.141C210.753 177.002 211.205 178.886 212.264 180.435C212.794 181.117 213.505 181.638 214.315 181.937C215.09 182.212 215.908 182.351 216.73 182.347C218.228 182.284 219.714 182.063 221.164 181.686C222.387 181.387 223.644 181.247 224.903 181.269C226.014 181.335 226.941 181.514 227.708 181.514C228.295 181.545 228.882 181.441 229.422 181.209C229.786 181.037 229.945 180.892 229.965 180.905C229.822 181.062 229.651 181.192 229.462 181.289C228.917 181.557 228.315 181.689 227.708 181.672C226.928 181.672 225.981 181.54 224.896 181.5C223.659 181.506 222.428 181.664 221.23 181.97C219.759 182.37 218.247 182.605 216.724 182.672C215.862 182.683 215.004 182.544 214.189 182.261C213.312 181.945 212.541 181.388 211.966 180.653C210.83 179.025 210.339 177.032 210.59 175.062C210.656 174.056 210.821 173.077 210.987 172.031C211.132 170.976 211.426 169.947 211.86 168.974C212.36 167.83 213.272 166.916 214.414 166.413C215.087 166.142 215.789 165.951 216.505 165.844C217.167 165.712 217.875 165.612 218.544 165.52L222.415 165.024H222.474H222.527C224.838 166.245 226.735 168.124 227.98 170.423C228.957 172.179 229.799 174.006 230.501 175.889C230.794 176.589 230.979 177.33 231.05 178.086C231.093 178.653 231.012 179.222 230.812 179.753C230.687 180.083 230.501 180.387 230.263 180.647C230.18 180.775 230.075 180.887 229.952 180.978Z" fill="#263238"/>
<path d="M232.096 201.703C232.041 201.264 231.878 200.845 231.62 200.486C231.362 200.126 231.018 199.837 230.62 199.645C229.389 199.109 227.973 199.85 227.08 200.869C226.186 201.888 225.703 203.172 224.903 204.237C224.199 205.159 223.292 205.905 222.252 206.417C221.212 206.929 220.067 207.193 218.908 207.188C216.089 207.188 213.276 205.527 210.583 206.361C209.663 206.646 208.743 207.367 208.737 208.346C208.796 209.007 209.101 209.62 209.59 210.067C210.935 211.504 212.704 212.474 214.639 212.833C217.988 212.72 221.281 211.951 224.334 210.57C227.867 209.061 230.468 207.195 231.685 204.297C232.059 203.486 232.201 202.589 232.096 201.703Z" fill="#E0E0E0"/>
<path d="M231.633 205.673C231.473 205.904 231.284 206.113 231.07 206.295C230.519 206.829 229.938 207.33 229.33 207.797C225.274 210.908 220.367 212.708 215.262 212.959C214.495 213.008 213.726 213.008 212.959 212.959C212.678 212.958 212.397 212.923 212.125 212.853C212.125 212.773 213.323 212.853 215.242 212.687C220.251 212.277 225.055 210.511 229.138 207.579C230.713 206.441 231.586 205.614 231.633 205.673Z" fill="#263238"/>
<path d="M230.66 190.732C230.667 191.085 230.634 191.438 230.561 191.784C230.468 192.445 230.322 193.425 230.084 194.616C229.81 196.019 229.423 197.398 228.926 198.738C228.32 200.396 227.438 201.94 226.319 203.304C225.187 204.679 223.728 205.748 222.077 206.414C220.724 206.926 219.28 207.151 217.836 207.076C216.867 207.04 215.908 206.873 214.984 206.58C214.659 206.474 214.415 206.375 214.249 206.302C214.084 206.229 214.004 206.183 214.011 206.17C215.259 206.525 216.545 206.729 217.842 206.778C219.244 206.803 220.636 206.549 221.938 206.031C223.521 205.372 224.916 204.334 226.001 203.007C228.357 200.188 229.237 196.846 229.793 194.53C230.071 193.352 230.263 192.392 230.402 191.724C230.455 191.386 230.541 191.053 230.66 190.732Z" fill="#263238"/>
<path d="M209.273 202.312C208.854 202.039 208.497 201.68 208.227 201.259C207.498 200.301 206.965 199.208 206.659 198.043C206.346 196.877 206.261 195.662 206.408 194.464C206.437 193.966 206.568 193.48 206.791 193.034C206.93 193.034 206.321 195.284 207.056 197.931C207.791 200.578 209.399 202.232 209.273 202.312Z" fill="#263238"/>
<path d="M210.292 182.447C210.011 181.623 209.809 180.775 209.69 179.912C209.278 177.84 209.149 175.72 209.306 173.613C209.48 171.481 210.225 169.435 211.463 167.69C211.842 167.168 212.287 166.696 212.787 166.288C212.958 166.121 213.157 165.986 213.376 165.891C212.775 166.514 212.218 167.177 211.708 167.876C210.582 169.616 209.901 171.607 209.723 173.672C209.571 175.747 209.658 177.831 209.981 179.886C210.138 180.732 210.242 181.588 210.292 182.447Z" fill="#263238"/>
<path d="M204.885 96.992L210.08 120.338L211.635 156.984L222.951 156.143L224.592 118.796L220.912 94.8546L204.885 96.992Z" fill="#CE947A"/>
<path d="M212.84 170.483C212.728 170.535 212.606 170.562 212.482 170.562C212.359 170.562 212.237 170.534 212.126 170.481C212.014 170.428 211.916 170.35 211.838 170.255C211.76 170.159 211.704 170.047 211.675 169.927C211.245 168.326 210.133 163.971 210.16 162.357C210.199 160.325 211.364 152.497 211.364 152.497L223.163 152.577L226.127 163.343C226.127 163.343 225.353 167.763 224.579 168.021C224.086 168.146 223.587 168.244 223.083 168.312L222.759 169.669C222.097 171.74 219.642 171.171 219.642 171.171C219.533 171.571 219.333 171.94 219.059 172.251C218.785 172.562 218.443 172.806 218.061 172.964C217.706 173.09 217.324 173.113 216.957 173.03C216.59 172.946 216.255 172.761 215.989 172.494C215.989 172.494 214.375 173.441 213.667 172.653C212.959 171.866 213.157 170.172 213.157 170.172C213.09 170.309 212.978 170.419 212.84 170.483Z" fill="#CE947A"/>
<path d="M213.184 171.059C213.203 170.938 213.203 170.815 213.184 170.695C213.187 170.365 213.172 170.036 213.137 169.709C213.071 168.882 212.899 167.724 212.707 166.493C212.531 165.431 212.418 164.359 212.37 163.283C212.37 162.463 212.469 161.96 212.436 161.96C212.381 162.068 212.343 162.184 212.323 162.304C212.255 162.629 212.218 162.959 212.211 163.29C212.214 164.377 212.309 165.462 212.495 166.532C212.687 167.783 212.879 168.915 212.985 169.735C213.091 170.556 213.151 171.059 213.184 171.059Z" fill="#A56349"/>
<path d="M215.923 172.507C216.033 172.233 216.095 171.942 216.108 171.647C216.189 170.944 216.209 170.236 216.168 169.53C216.122 168.703 216.042 167.955 215.97 167.425C215.952 167.131 215.899 166.84 215.811 166.559C215.803 167.553 215.847 168.547 215.943 169.536C215.982 170.235 215.982 170.935 215.943 171.634C215.912 171.924 215.905 172.216 215.923 172.507Z" fill="#A56349"/>
<path d="M219.669 171.191C219.847 170.363 219.908 169.514 219.847 168.67C219.856 167.823 219.736 166.979 219.49 166.168C219.43 166.168 219.583 167.293 219.622 168.676C219.662 170.059 219.602 171.184 219.669 171.191Z" fill="#A56349"/>
<path d="M222.759 169.669C223.033 168.385 223.006 167.056 222.68 165.784C222.658 166.433 222.674 167.083 222.726 167.73C222.752 168.795 222.699 169.662 222.759 169.669Z" fill="#A56349"/>
<path d="M219.324 164.554C219.324 164.554 219.39 164.415 219.324 164.19C219.268 163.896 219.114 163.63 218.888 163.435C218.654 163.245 218.362 163.14 218.06 163.138C217.835 163.138 217.703 163.204 217.71 163.23C218.079 163.268 218.433 163.396 218.742 163.601C219.013 163.865 219.213 164.192 219.324 164.554Z" fill="#A56349"/>
<path d="M222.673 163.429C222.732 163.429 222.673 162.986 222.216 162.701C222.101 162.603 221.961 162.539 221.812 162.514C221.663 162.49 221.51 162.506 221.369 162.562C221.369 162.628 221.74 162.642 222.097 162.886C222.454 163.131 222.633 163.449 222.673 163.429Z" fill="#A56349"/>
<path d="M215.414 164.004C215.473 164.004 215.493 163.687 215.208 163.468C214.924 163.25 214.619 163.336 214.639 163.396C214.659 163.455 214.871 163.475 215.076 163.64C215.281 163.806 215.354 164.011 215.414 164.004Z" fill="#A56349"/>
<path d="M211.384 152.497C211.382 152.528 211.382 152.559 211.384 152.59L211.337 152.881C211.291 153.146 211.232 153.543 211.159 153.999C211.007 154.972 210.795 156.395 210.557 158.181C210.444 159.081 210.318 160.061 210.213 161.133C210.141 161.688 210.117 162.248 210.14 162.807C210.188 163.402 210.267 163.994 210.378 164.58C210.596 165.785 210.887 167.049 211.212 168.359C211.298 168.683 211.377 169.02 211.463 169.351C211.509 169.517 211.556 169.682 211.596 169.854C211.635 170.042 211.722 170.218 211.847 170.364C211.981 170.517 212.164 170.62 212.365 170.656C212.566 170.693 212.773 170.659 212.952 170.562C213.005 170.523 213.042 170.467 213.058 170.403C213.076 170.356 213.092 170.307 213.104 170.258C213.104 170.165 213.144 170.079 213.157 169.987C213.181 169.8 213.194 169.612 213.197 169.424C213.197 169.396 213.186 169.369 213.166 169.349C213.146 169.329 213.119 169.318 213.091 169.318C213.063 169.318 213.036 169.329 213.016 169.349C212.996 169.369 212.985 169.396 212.985 169.424C212.973 169.901 212.991 170.379 213.038 170.853C213.076 171.345 213.185 171.829 213.362 172.289C213.459 172.539 213.63 172.754 213.852 172.905C214.087 173.038 214.357 173.095 214.626 173.07C215.142 173.014 215.641 172.85 216.089 172.587H215.95C216.138 172.781 216.363 172.937 216.611 173.044C216.934 173.171 217.283 173.22 217.628 173.185C217.973 173.151 218.305 173.034 218.597 172.845C219.158 172.453 219.565 171.877 219.748 171.217L219.616 171.297C220.278 171.439 220.968 171.386 221.601 171.145C221.905 171.017 222.177 170.822 222.396 170.576C222.616 170.33 222.778 170.038 222.871 169.722C222.977 169.259 223.083 168.809 223.189 168.359L223.11 168.438C223.401 168.398 223.692 168.345 223.976 168.293L224.4 168.207L224.618 168.147C224.698 168.111 224.77 168.059 224.83 167.995C225.015 167.766 225.158 167.506 225.253 167.227C225.359 166.962 225.445 166.698 225.525 166.433C225.808 165.429 226.04 164.411 226.22 163.383V163.343L224.023 155.515C223.758 154.595 223.553 153.867 223.407 153.357C223.334 153.119 223.275 152.927 223.235 152.788C223.222 152.724 223.2 152.661 223.169 152.603C223.178 152.668 223.191 152.732 223.209 152.795C223.248 152.941 223.295 153.126 223.354 153.371C223.487 153.887 223.685 154.615 223.93 155.548C224.44 157.434 225.167 160.127 226.048 163.396V163.356C225.866 164.375 225.631 165.385 225.346 166.38C225.267 166.638 225.181 166.896 225.075 167.154C224.987 167.408 224.857 167.645 224.691 167.856C224.655 167.899 224.61 167.933 224.559 167.955L224.36 168.008L223.943 168.094C223.659 168.147 223.374 168.193 223.083 168.233C223.063 168.238 223.045 168.247 223.03 168.261C223.015 168.275 223.003 168.293 222.997 168.312C222.891 168.762 222.785 169.212 222.673 169.636C222.595 169.93 222.451 170.202 222.251 170.432C222.052 170.661 221.802 170.842 221.521 170.959C220.934 171.179 220.296 171.227 219.682 171.098C219.654 171.095 219.626 171.101 219.602 171.115C219.578 171.13 219.56 171.152 219.549 171.178C219.38 171.783 219.006 172.312 218.491 172.673C218.225 172.844 217.923 172.95 217.609 172.981C217.295 173.012 216.978 172.968 216.684 172.852C216.459 172.761 216.254 172.626 216.082 172.455C216.062 172.44 216.037 172.432 216.013 172.432C215.988 172.432 215.963 172.44 215.943 172.455C215.526 172.701 215.061 172.857 214.58 172.911C214.351 172.936 214.12 172.89 213.918 172.779C213.737 172.649 213.597 172.47 213.515 172.263C213.347 171.821 213.243 171.358 213.203 170.887C213.16 170.422 213.142 169.956 213.151 169.49H212.939C212.935 169.665 212.922 169.84 212.899 170.013C212.899 170.099 212.899 170.192 212.853 170.271C212.806 170.351 212.78 170.437 212.8 170.463C212.657 170.518 212.501 170.534 212.35 170.509C212.197 170.475 212.058 170.394 211.953 170.278C211.847 170.16 211.776 170.016 211.748 169.861C211.708 169.689 211.662 169.523 211.615 169.358C211.529 169.027 211.443 168.696 211.364 168.365C211.033 167.042 210.702 165.804 210.51 164.607C210.398 164.027 210.316 163.442 210.265 162.853C210.242 162.303 210.262 161.752 210.325 161.205C210.424 160.14 210.537 159.154 210.649 158.261C210.874 156.487 211.053 155.065 211.179 154.065C211.245 153.589 211.291 153.212 211.324 152.947C211.324 152.828 211.324 152.729 211.324 152.656C211.324 152.583 211.384 152.497 211.384 152.497Z" fill="#A56349"/>
<path d="M169.391 52.4976C173.2 52.5048 176.924 51.3784 180.091 49.2618C180.091 49.2618 177.649 55.2173 169.404 54.635L169.391 52.4976Z" fill="#A56349"/>
<path opacity="0.3" d="M202.576 97.303L204.886 96.992L209.101 115.937L208.869 120.159L210.372 127.272L210.874 139.131C210.874 139.131 205.19 121.304 204.886 117.049C204.555 112.483 202.576 97.2765 202.576 97.2765" fill="black"/>
<path d="M99.3079 283.651C99.3079 283.651 100.056 288.349 100.029 289.17L103.338 292.028L111.781 290.142L112.476 283.234L99.3079 283.651Z" fill="#F4C3AE"/>
<path d="M111.953 289.103V289.857C111.953 289.857 124.718 294.807 124.883 297.216L99.6584 297.388L99.943 288.991C101.819 289.872 103.863 290.339 105.936 290.358C108.009 290.378 110.061 289.95 111.953 289.103Z" fill="#FB8500"/>
<g opacity="0.6">
<path opacity="0.6" d="M99.6716 297.388L99.7378 295.37L123.891 295.939C123.891 295.939 125.016 296.422 124.897 297.216L99.6716 297.388Z" fill="white"/>
</g>
<path d="M112.059 289.924C112.059 290.05 111.437 290.109 110.835 290.506C110.233 290.903 109.915 291.433 109.796 291.38C109.677 291.327 109.862 290.619 110.603 290.149C111.344 289.679 112.086 289.811 112.059 289.924Z" fill="#263238"/>
<path d="M114.713 291.003C114.713 291.122 114.21 291.334 113.793 291.856C113.376 292.379 113.264 292.935 113.131 292.928C112.999 292.922 112.926 292.227 113.455 291.605C113.985 290.983 114.706 290.884 114.713 291.003Z" fill="#263238"/>
<path d="M116.234 294.159C116.122 294.159 115.95 293.57 116.234 292.895C116.519 292.22 117.121 291.942 117.174 292.048C117.227 292.154 116.87 292.511 116.625 293.074C116.38 293.636 116.36 294.146 116.234 294.159Z" fill="#263238"/>
<path d="M126.776 283.651C126.776 283.651 127.524 288.349 127.497 289.17L130.806 292.028L139.256 290.142L139.957 283.234L126.776 283.651Z" fill="#F4C3AE"/>
<path d="M139.428 289.103V289.857C139.428 289.857 152.193 294.807 152.358 297.216L127.127 297.388L127.411 288.991C129.288 289.872 131.334 290.339 133.407 290.358C135.481 290.378 137.535 289.95 139.428 289.103Z" fill="#FB8500"/>
<g opacity="0.6">
<path opacity="0.6" d="M127.14 297.388L127.213 295.37L151.366 295.939C151.366 295.939 152.491 296.422 152.371 297.216L127.14 297.388Z" fill="white"/>
</g>
<path d="M139.527 289.924C139.527 290.05 138.912 290.109 138.303 290.506C137.694 290.903 137.383 291.433 137.271 291.38C137.158 291.327 137.337 290.619 138.071 290.149C138.806 289.679 139.554 289.811 139.527 289.924Z" fill="#263238"/>
<path d="M142.181 291.003C142.181 291.122 141.678 291.334 141.261 291.856C140.844 292.379 140.732 292.935 140.599 292.928C140.467 292.922 140.394 292.227 140.923 291.605C141.453 290.983 142.181 290.884 142.181 291.003Z" fill="#263238"/>
<path d="M143.703 294.159C143.597 294.159 143.418 293.57 143.703 292.895C143.987 292.22 144.589 291.942 144.642 292.048C144.695 292.154 144.338 292.511 144.093 293.074C143.848 293.636 143.828 294.146 143.703 294.159Z" fill="#263238"/>
<path d="M147.997 165.857H92.5447L86.8142 192.115L98.2686 285.471H116.003L120.059 203.245L124.327 285.471H143.339L151.326 193.147L147.997 165.857Z" fill="#263238"/>
<path d="M105.607 284.167C105.508 284.167 105.27 267.71 105.065 247.421C104.86 227.133 104.774 210.649 104.846 210.649C104.919 210.649 105.184 227.093 105.382 247.395C105.581 267.697 105.7 284.16 105.607 284.167Z" fill="#455A64"/>
<path d="M134.002 283.849C133.996 283.781 133.996 283.712 134.002 283.644C134.002 283.492 134.035 283.293 134.062 283.042C134.121 282.493 134.201 281.718 134.313 280.733C134.538 278.747 134.842 275.829 135.186 272.243C135.531 268.656 135.848 264.381 136.199 259.624C136.55 254.866 136.761 249.638 136.92 244.146C137.079 238.654 137.099 233.406 137.066 228.642C137.033 223.877 136.9 219.589 136.755 215.989C136.609 212.39 136.47 209.471 136.351 207.46C136.305 206.474 136.265 205.7 136.232 205.144C136.232 204.892 136.232 204.694 136.232 204.542C136.228 204.473 136.228 204.405 136.232 204.337C136.253 204.403 136.264 204.472 136.265 204.542L136.325 205.137C136.364 205.693 136.431 206.461 136.51 207.453C136.669 209.438 136.847 212.376 137.019 215.976C137.191 219.576 137.33 223.871 137.403 228.642C137.476 233.413 137.403 238.654 137.284 244.152C137.165 249.651 136.854 254.892 136.536 259.65C136.219 264.408 135.828 268.683 135.451 272.269C135.074 275.856 134.736 278.754 134.465 280.752C134.326 281.732 134.227 282.499 134.148 283.049C134.148 283.3 134.081 283.499 134.062 283.651C134.049 283.719 134.029 283.785 134.002 283.849Z" fill="#455A64"/>
<path d="M117.995 81.6134L96.8196 82.7582L95.0925 90.7386C95.0925 90.7386 100.936 95.4302 101.518 95.6221C102.1 95.814 115.414 97.6735 115.414 97.6735C115.414 97.6735 129.74 90.9967 129.548 91.0562C129.357 91.1158 117.995 81.6134 117.995 81.6134Z" fill="#F4C3AE"/>
<path d="M99.5526 44.6561C98.3482 43.4054 96.3101 43.6437 94.6029 43.9944C93.5971 44.1384 92.6182 44.4305 91.6979 44.8612C91.2395 45.0824 90.8347 45.4005 90.5113 45.7935C90.188 46.1866 89.9539 46.6451 89.8252 47.1376C89.5275 48.6529 90.6061 50.155 90.4142 51.6902C90.3133 52.2247 90.0978 52.731 89.7825 53.1742C89.4672 53.6174 89.0596 53.9871 88.5878 54.2577C87.6406 54.7949 86.6194 55.1895 85.5571 55.4289C86.0785 56.0874 86.7315 56.63 87.4744 57.0219C88.2173 57.4139 89.0337 57.6466 89.8716 57.7053C89.7723 58.2545 89.0709 58.4133 88.5481 58.4861C88.0254 58.5589 87.2908 58.8699 87.3702 59.4258C87.4473 59.7024 87.6272 59.9392 87.8732 60.0875C90.8077 62.2848 94.4233 63.3768 98.0836 63.1711C99.7908 63.0719 101.597 62.6153 102.716 61.3381C103.834 60.061 104.039 58.4464 104.039 56.8517C104.007 54.6595 103.509 52.4993 102.577 50.515C101.644 48.5308 100.3 46.768 98.6328 45.3443" fill="#E0E0E0"/>
<path d="M98.6194 45.4501C98.3561 44.359 98.3465 43.222 98.5914 42.1266C98.8364 41.0312 99.3294 40.0066 100.032 39.1316C100.736 38.2566 101.63 37.5546 102.647 37.0795C103.664 36.6043 104.776 36.3688 105.898 36.3911C106.681 36.5012 107.479 36.4494 108.241 36.2389C108.873 35.8816 109.44 35.4182 109.915 34.8691C111.463 33.4663 113.621 32.9964 115.679 32.6722C118.61 32.209 121.68 31.9443 124.48 32.917C127.279 33.8898 129.734 36.4043 129.773 39.3688C129.773 40.6923 129.356 41.9363 129.284 43.2333C129.211 44.5303 129.641 46.0192 130.819 46.5419C131.58 46.8992 132.572 46.8331 133.115 47.4749C133.313 47.7704 133.415 48.1202 133.405 48.476C133.396 48.8317 133.276 49.1757 133.062 49.4601C132.604 50.0177 132.031 50.4693 131.381 50.7836C131.92 50.9288 132.396 51.2472 132.735 51.6897C133.075 52.1322 133.26 52.6741 133.261 53.2319C133.24 53.7893 133.097 54.3353 132.841 54.8307C132.584 55.3261 132.222 55.7586 131.778 56.0972C130.886 56.7657 129.859 57.231 128.768 57.4604C123.652 58.7375 118.22 57.4206 113.409 55.27C108.102 52.8858 103.295 49.5178 99.2414 45.3442L99.6517 44.8744" fill="#E0E0E0"/>
<path d="M97.3093 47.9117C97.4748 47.4419 98.8578 44.2722 99.3541 44.3053C99.7048 44.3053 98.8842 47.2698 99.0695 47.5742C100.863 50.4527 101.432 53.9599 101.26 57.3479C101.056 60.6374 100.483 63.8936 99.5526 67.0554" fill="#E0E0E0"/>
<path d="M99.5523 67.0555C98.363 63.9981 97.4419 60.843 96.7996 57.6259L99.5523 67.0555Z" fill="#E0E0E0"/>
<path d="M109.227 94.1266C106.782 94.1451 104.428 93.2061 102.667 91.5106C100.906 89.8151 99.8782 87.4978 99.8039 85.0544L98.8908 54.4828C98.3812 46.2708 102.735 39.1308 110.954 38.8529H111.715C115.407 38.9453 118.929 40.4243 121.58 42.9955C124.231 45.5668 125.816 49.0418 126.021 52.7292C126.425 59.8494 126.776 67.7173 126.637 71.5222C126.346 79.4099 118.431 80.4488 118.431 80.4488C118.431 80.4488 118.431 82.2752 118.484 84.5912C118.507 85.8269 118.285 87.0549 117.831 88.2044C117.377 89.3538 116.7 90.402 115.838 91.2884C114.977 92.1749 113.949 92.8821 112.813 93.3692C111.677 93.8563 110.456 94.1137 109.22 94.1266H109.227Z" fill="#F4C3AE"/>
<path d="M118.445 80.5413C114.799 80.4368 111.26 79.2885 108.248 77.2326C108.248 77.2326 110.61 83.0293 118.498 82.5264L118.445 80.5413Z" fill="#CC937F"/>
<path d="M112.913 67.7966C113.086 67.6089 113.299 67.4626 113.536 67.3685C113.774 67.2744 114.029 67.235 114.284 67.2532C114.539 67.2714 114.786 67.3467 115.008 67.4736C115.229 67.6004 115.42 67.7755 115.564 67.9859C115.709 68.1963 115.804 68.4366 115.843 68.6889C115.883 68.9413 115.864 69.1992 115.79 69.4435C115.716 69.6879 115.588 69.9124 115.415 70.1004C115.242 70.2884 115.029 70.435 114.792 70.5295C114.352 70.6913 113.871 70.7052 113.422 70.5692C113.077 70.487 112.766 70.297 112.536 70.0266C112.395 69.8147 112.31 69.5711 112.288 69.318C112.266 69.0649 112.308 68.8103 112.41 68.5774C112.563 68.1857 112.819 67.8427 113.151 67.5848" fill="#CC937F"/>
<path d="M124.036 58.0229C124.033 58.3167 123.915 58.5974 123.707 58.8052C123.499 59.0129 123.218 59.1312 122.925 59.1346C122.781 59.1426 122.637 59.1217 122.501 59.0732C122.365 59.0247 122.241 58.9494 122.135 58.852C122.029 58.7545 121.943 58.6368 121.883 58.5058C121.824 58.3748 121.791 58.2331 121.786 58.0891C121.791 57.7958 121.91 57.516 122.118 57.3086C122.325 57.1012 122.605 56.9825 122.898 56.9774C123.042 56.9694 123.186 56.9902 123.322 57.0388C123.457 57.0873 123.582 57.1625 123.688 57.26C123.794 57.3574 123.879 57.4752 123.939 57.6062C123.999 57.7372 124.032 57.8789 124.036 58.0229Z" fill="#263238"/>
<path d="M124.281 56.5737C124.135 56.7127 123.295 56.0642 122.084 56.0377C120.873 56.0113 119.967 56.5936 119.841 56.448C119.715 56.3024 119.927 56.1172 120.324 55.8458C120.857 55.4945 121.486 55.3166 122.124 55.3363C122.754 55.3491 123.364 55.5624 123.864 55.9451C124.228 56.2363 124.347 56.5076 124.281 56.5737Z" fill="#263238"/>
<path d="M112.688 58.0229C112.683 58.3173 112.563 58.5981 112.354 58.8056C112.145 59.0132 111.864 59.1312 111.57 59.1346C111.426 59.1417 111.283 59.1202 111.148 59.0712C111.013 59.0223 110.89 58.9469 110.784 58.8495C110.679 58.7522 110.594 58.6348 110.534 58.5042C110.475 58.3736 110.442 58.2325 110.438 58.0891C110.441 57.7953 110.56 57.5145 110.767 57.3068C110.975 57.099 111.256 56.9808 111.55 56.9774C111.694 56.9694 111.837 56.9902 111.973 57.0388C112.109 57.0873 112.233 57.1625 112.339 57.26C112.445 57.3574 112.531 57.4752 112.591 57.6062C112.651 57.7372 112.684 57.8789 112.688 58.0229Z" fill="#263238"/>
<path d="M112.608 56.5804C112.469 56.7259 111.629 56.0708 110.418 56.0444C109.207 56.0179 108.301 56.6068 108.175 56.4546C108.049 56.3024 108.254 56.1238 108.651 55.8525C109.185 55.5019 109.813 55.3241 110.451 55.3429C111.082 55.3602 111.693 55.5729 112.198 55.9517C112.562 56.2495 112.681 56.5142 112.608 56.5804Z" fill="#263238"/>
<path d="M116.506 65.6855C117.151 65.4958 117.819 65.3913 118.491 65.3745C118.802 65.3745 119.1 65.2951 119.153 65.0833C119.188 64.7649 119.124 64.4433 118.967 64.1635L118.081 61.7615C116.89 58.3801 116.036 55.5942 116.168 55.5479C116.301 55.5016 117.386 58.1948 118.57 61.596C118.862 62.4298 119.133 63.2305 119.391 63.9915C119.58 64.3681 119.627 64.8005 119.523 65.2091C119.476 65.3164 119.405 65.4116 119.316 65.4873C119.226 65.563 119.121 65.6172 119.007 65.6458C118.835 65.6922 118.656 65.7123 118.478 65.7053C117.822 65.7789 117.16 65.7722 116.506 65.6855Z" fill="#263238"/>
<path d="M112.919 66.4334C113.118 66.4334 113.085 67.7569 114.19 68.7031C115.295 69.6494 116.698 69.5568 116.704 69.742C116.704 69.8215 116.387 69.9869 115.798 69.9935C115.025 69.9827 114.281 69.7017 113.694 69.1994C113.132 68.7181 112.781 68.0367 112.714 67.3003C112.675 66.7511 112.827 66.4268 112.919 66.4334Z" fill="#263238"/>
<path d="M112.787 51.8357C112.655 52.1599 111.464 51.9746 110.028 52.1136C108.592 52.2526 107.44 52.6099 107.255 52.3121C107.176 52.1665 107.381 51.8622 107.857 51.5578C108.481 51.1727 109.19 50.9456 109.922 50.896C110.65 50.8244 111.386 50.9288 112.066 51.2004C112.549 51.4254 112.787 51.6901 112.787 51.8357Z" fill="#E0E0E0"/>
<path d="M123.884 53.1591C123.666 53.4304 122.839 53.1591 121.833 53.0863C120.827 53.0135 119.973 53.2253 119.788 52.9341C119.702 52.7951 119.841 52.5238 120.225 52.2724C120.728 51.969 121.312 51.8259 121.899 51.8621C122.49 51.8865 123.059 52.0947 123.527 52.4576C123.871 52.7091 123.983 52.9936 123.884 53.1591Z" fill="#E0E0E0"/>
<path d="M99.3872 60.4383C99.2549 60.3788 94.0074 58.7046 94.0471 64.1043C94.0868 69.5039 99.4997 68.3459 99.5063 68.1871C99.5129 68.0283 99.3872 60.4383 99.3872 60.4383Z" fill="#F4C3AE"/>
<path d="M97.8453 66.1421C97.8453 66.1421 97.7527 66.2083 97.5939 66.2811C97.3691 66.373 97.1172 66.373 96.8924 66.2811C96.3167 66.0826 95.8271 65.176 95.794 64.2033C95.7826 63.7486 95.8707 63.2969 96.0521 62.8798C96.1001 62.7102 96.1892 62.555 96.3116 62.428C96.4339 62.301 96.5857 62.2062 96.7535 62.1519C96.8609 62.1208 96.9759 62.1291 97.0778 62.1752C97.1797 62.2212 97.2618 62.3022 97.3093 62.4034C97.3821 62.5556 97.349 62.6615 97.3755 62.6681C97.402 62.6747 97.4946 62.582 97.4483 62.3571C97.4123 62.2246 97.3359 62.1067 97.2299 62.0196C97.157 61.9621 97.0727 61.9205 96.9826 61.8977C96.8926 61.8749 96.7987 61.8714 96.7072 61.8872C96.4862 61.9337 96.2809 62.036 96.1106 62.1842C95.9404 62.3325 95.8109 62.5218 95.7344 62.7342C95.5085 63.2017 95.4017 63.7177 95.4234 64.2363C95.4631 65.3282 96.0256 66.3406 96.813 66.559C96.9576 66.5999 97.1095 66.6074 97.2573 66.581C97.4052 66.5547 97.5452 66.4951 97.6667 66.4068C97.8321 66.2745 97.8652 66.1553 97.8453 66.1421Z" fill="#CC937F"/>
<path d="M122.567 44.054C123.434 43.5577 120.582 40.6594 118.431 39.7197C115.162 38.3036 110.193 37.4831 107.215 38.3963C103.629 39.4815 100.671 41.3211 98.9172 44.6297C97.2284 47.9955 96.4678 51.7508 96.7136 55.5085C96.7599 56.6466 94.5961 57.3017 95.2247 58.2612C95.9857 59.4259 95.8071 58.8766 97.1107 60.4912C97.4746 60.9478 98.0437 61.464 98.4341 61.9007C99.4532 63.072 102.001 63.3036 102.55 62.2779C103.685 60.3593 104.307 58.1806 104.357 55.9518C104.403 54.2975 104.436 51.7896 103.999 50.1948C103.835 49.6027 103.761 48.9892 103.781 48.3751C103.783 47.3668 104.077 46.3808 104.628 45.5363C104.774 45.3573 104.936 45.1913 105.111 45.04C105.755 44.4898 106.532 44.1178 107.364 43.9611C108.197 43.8043 109.055 43.8683 109.855 44.1467C112.932 45.1657 115.414 46.8465 118.934 45.3378C119.538 45.0092 120.055 44.542 120.443 43.9746C120.739 43.7131 121.122 43.572 121.516 43.5793C121.911 43.5867 122.288 43.7419 122.574 44.0143L122.567 44.054Z" fill="#E0E0E0"/>
<path d="M104.635 45.2583C105.506 44.7728 106.466 44.4681 107.457 44.3624C108.448 44.2566 109.451 44.352 110.405 44.6429C112.013 45.1392 113.402 46.1715 114.951 46.8332C116.691 47.5532 118.589 47.8044 120.456 47.5617C122.323 47.319 124.094 46.591 125.591 45.4502C126.028 45.1677 126.4 44.7967 126.684 44.3612C126.967 43.9258 127.157 43.4356 127.239 42.9224C127.242 42.4885 127.148 42.0594 126.964 41.6667C126.78 41.2739 126.51 40.9274 126.174 40.6527C125.498 40.1116 124.726 39.7051 123.897 39.455C120.1 38.2282 116.065 37.9198 112.125 38.555C108.956 39.005 105.72 39.991 103.437 42.221C103.123 42.5026 102.873 42.8477 102.702 43.2334C102.616 43.4325 102.583 43.6506 102.607 43.8662C102.63 44.0819 102.708 44.2879 102.835 44.4642C102.97 44.6323 103.166 44.7404 103.38 44.7652C103.594 44.7899 103.81 44.7294 103.98 44.5966" fill="#E0E0E0"/>
<path d="M125.717 57.6986C125.717 57.7912 125.426 57.9037 125.055 58.0228C124.685 58.1419 124.394 58.2412 124.334 58.1618C124.274 58.0824 124.539 57.8375 124.943 57.6986C125.346 57.5596 125.71 57.6059 125.717 57.6986Z" fill="#CC937F"/>
<path d="M126.18 58.5522C126.18 58.6449 125.777 58.6647 125.313 58.6713C124.85 58.6779 124.46 58.6713 124.447 58.5522C124.433 58.4331 124.817 58.3206 125.313 58.3206C125.81 58.3206 126.194 58.453 126.18 58.5522Z" fill="#CC937F"/>
<path d="M107.38 58.0559C107.38 58.1551 106.844 58.175 106.196 58.175C105.548 58.175 105.018 58.175 105.012 58.0559C105.005 57.9368 105.528 57.8243 106.196 57.8309C106.864 57.8375 107.394 57.9632 107.38 58.0559Z" fill="#CC937F"/>
<path d="M107.314 59.1479C107.314 59.2472 106.838 59.2339 106.282 59.2339C105.726 59.2339 105.276 59.2339 105.256 59.1545C105.237 59.0751 105.693 58.8898 106.282 58.8898C106.871 58.8898 107.334 59.0619 107.314 59.1479Z" fill="#CC937F"/>
<path d="M112.297 60.9146C112.297 60.9146 112.145 61.1594 111.755 61.3778C111.239 61.6526 110.655 61.77 110.074 61.7153C109.489 61.6536 108.935 61.4238 108.479 61.0536C108.142 60.7624 108.009 60.5176 108.042 60.4911C108.656 60.9325 109.362 61.2289 110.107 61.3579C110.861 61.3725 111.608 61.2212 112.297 60.9146Z" fill="#CC937F"/>
<path d="M112.847 60.6501C112.886 60.7361 112.311 61.0339 111.523 61.0339C111.289 61.0628 111.051 61.0442 110.823 60.9795C110.596 60.9147 110.384 60.8049 110.2 60.6567C110.2 60.5641 110.808 60.6964 111.523 60.6567C112.238 60.617 112.787 60.5575 112.847 60.6501Z" fill="#CC937F"/>
<path d="M124.566 59.8957C123.98 60.2672 123.315 60.4945 122.625 60.559C121.935 60.6234 121.239 60.5231 120.595 60.2663C120.595 60.167 121.495 60.3192 122.58 60.2133C123.666 60.1075 124.526 59.7766 124.566 59.8957Z" fill="#CC937F"/>
<path d="M123.977 60.3123C123.531 60.8088 122.933 61.1432 122.277 61.263C121.62 61.3827 120.943 61.2811 120.351 60.974C120.973 61.0033 121.596 60.99 122.217 60.9343C122.816 60.7656 123.404 60.5578 123.977 60.3123Z" fill="#CC937F"/>
<path d="M121.462 50.6976C121.024 50.8732 120.563 50.9847 120.093 51.0284C118.973 51.1939 117.841 51.2538 116.711 51.2071C115.581 51.1629 114.457 51.01 113.356 50.7505C112.894 50.6784 112.447 50.5309 112.033 50.3138C112.033 50.2079 114.124 50.7704 116.738 50.863C119.351 50.9557 121.442 50.5917 121.462 50.6976Z" fill="#CC937F"/>
<path d="M122.283 49.7514C119.393 50.3071 116.424 50.3071 113.535 49.7514C113.535 49.6522 115.52 49.8375 117.909 49.8375C120.297 49.8375 122.269 49.6522 122.283 49.7514Z" fill="#CC937F"/>
<path d="M116.129 53.6622C116.03 53.6622 116.003 53.4107 115.99 53.1394C115.977 52.8681 115.99 52.6299 116.089 52.6034C116.188 52.577 116.327 52.8086 116.334 53.1262C116.341 53.4438 116.215 53.6887 116.129 53.6622Z" fill="#CC937F"/>
<path d="M117.79 53.8805C117.757 53.9665 117.373 53.8805 117.214 53.4305C117.055 52.9806 117.247 52.6629 117.333 52.7093C117.419 52.7556 117.413 53.0136 117.532 53.3048C117.651 53.596 117.836 53.8209 117.79 53.8805Z" fill="#CC937F"/>
<path d="M112.741 66.0895C112.741 66.1887 112.357 66.2483 112.019 66.5328C111.682 66.8174 111.53 67.1946 111.437 67.1416C111.344 67.0887 111.344 66.6321 111.801 66.2615C112.258 65.891 112.787 65.9968 112.741 66.0895Z" fill="#CC937F"/>
<path d="M111.325 65.9899C111.325 66.0825 111.1 66.1355 110.947 66.3208C110.795 66.5061 110.756 66.7046 110.663 66.7377C110.57 66.7707 110.557 66.6913 110.537 66.559C110.527 66.4753 110.535 66.3904 110.561 66.3103C110.587 66.2302 110.631 66.1569 110.689 66.0958C110.743 66.0303 110.811 65.9774 110.888 65.9409C110.964 65.9043 111.048 65.8849 111.133 65.884C111.265 65.884 111.331 65.9436 111.325 65.9899Z" fill="#CC937F"/>
<path d="M106.203 87.1124C106.203 87.1124 106.044 87.1124 105.832 86.9271C105.551 86.6683 105.369 86.3197 105.316 85.9412C105.231 85.3951 105.254 84.8376 105.382 84.3001C105.548 83.698 105.548 83.0626 105.382 82.4605C105.27 82.1694 105.051 81.898 104.919 81.554C104.81 81.2208 104.81 80.8614 104.919 80.5283C104.994 80.2801 104.994 80.0155 104.919 79.7673C104.83 79.5479 104.717 79.3392 104.582 79.1453C104.463 78.9912 104.383 78.8117 104.346 78.621C104.309 78.4304 104.317 78.2338 104.37 78.0468C104.482 77.7689 104.668 77.7358 104.668 77.7557C104.668 77.7755 104.549 77.8549 104.496 78.0799C104.477 78.2471 104.493 78.4165 104.543 78.5771C104.593 78.7377 104.676 78.8862 104.787 79.0129C104.948 79.2162 105.083 79.4384 105.19 79.6747C105.283 79.9765 105.283 80.2992 105.19 80.6011C105.101 80.8717 105.101 81.1642 105.19 81.4348C105.296 81.7128 105.508 81.9774 105.654 82.3348C105.849 82.9956 105.849 83.6989 105.654 84.3597C105.519 84.8617 105.472 85.3834 105.515 85.9015C105.545 86.2419 105.674 86.5661 105.885 86.8345C106.09 87.0198 106.216 87.086 106.203 87.1124Z" fill="#CC937F"/>
<path d="M109.631 87.7673C109.631 87.7673 109.459 87.7673 109.22 87.6284C108.908 87.3802 108.677 87.0435 108.559 86.6622C108.133 85.4822 107.836 84.2598 107.672 83.0161C107.638 82.6555 107.627 82.293 107.639 81.9309C107.661 81.6115 107.661 81.2909 107.639 80.9714C107.639 80.3759 107.043 80.1707 106.666 79.8266C106.481 79.6717 106.356 79.4559 106.315 79.2178C106.305 79.1244 106.316 79.0297 106.348 78.9413C106.38 78.8529 106.433 78.7732 106.501 78.7083C106.746 78.4899 106.951 78.6223 106.924 78.6355C106.898 78.6488 106.752 78.6355 106.6 78.801C106.557 78.8541 106.526 78.9158 106.508 78.982C106.491 79.0483 106.489 79.1174 106.501 79.1848C106.557 79.3678 106.671 79.5278 106.825 79.6414C106.997 79.7869 107.229 79.8994 107.487 80.0781C107.622 80.1799 107.735 80.308 107.819 80.4547C107.903 80.6014 107.957 80.7637 107.976 80.9317C108.003 81.2687 108.003 81.6072 107.976 81.9441C107.97 82.2909 107.983 82.6378 108.016 82.9831C108.183 84.2007 108.442 85.404 108.79 86.5828C108.872 86.9337 109.043 87.2574 109.287 87.5225C109.478 87.7011 109.637 87.7409 109.631 87.7673Z" fill="#CC937F"/>
<path d="M111.146 35.3854C111.24 35.3199 111.343 35.2665 111.45 35.2266C111.658 35.1251 111.962 34.9994 112.364 34.8494C113.503 34.4423 114.687 34.1734 115.891 34.0487C117.681 33.8536 119.492 33.9677 121.244 34.3862C122.29 34.6138 123.298 34.9928 124.235 35.5111C125.278 36.0484 126.127 36.899 126.662 37.9434C127.198 38.9877 127.392 40.1735 127.219 41.3343C127.091 42.4092 126.715 43.4398 126.121 44.3451C125.577 45.1489 124.866 45.826 124.036 46.3303C123.322 46.7834 122.54 47.1207 121.72 47.3295C120.545 47.6397 119.322 47.7272 118.114 47.5875C117.787 47.5504 117.462 47.4952 117.141 47.4221C117.027 47.4045 116.916 47.3711 116.81 47.3229C116.81 47.3229 117.28 47.3956 118.134 47.4552C119.323 47.5359 120.518 47.4151 121.667 47.0979C122.455 46.8776 123.205 46.5384 123.891 46.092C124.683 45.5914 125.359 44.9283 125.876 44.1466C126.432 43.277 126.785 42.2931 126.908 41.2681C127.065 40.1734 126.878 39.0571 126.373 38.0733C125.868 37.0895 125.07 36.2867 124.089 35.7758C123.18 35.2716 122.204 34.8974 121.191 34.6641C119.472 34.2383 117.694 34.104 115.93 34.267C114.741 34.3618 113.565 34.5836 112.423 34.9288C111.596 35.2332 111.159 35.4184 111.146 35.3854Z" fill="white"/>
<path d="M129.542 38.8793C129.676 39.3082 129.692 39.7655 129.588 40.2027C129.385 41.2699 128.901 42.2636 128.185 43.0812C127.483 43.8872 126.67 44.5891 125.77 45.1656C125.425 45.4406 125.041 45.6635 124.632 45.8274C124.929 45.5055 125.265 45.2211 125.631 44.9804C126.463 44.3525 127.232 43.6456 127.927 42.8695C128.596 42.0839 129.075 41.1559 129.33 40.1564C129.535 39.3888 129.482 38.8859 129.542 38.8793Z" fill="white"/>
<path d="M109.479 39.8322C107.986 40.3106 106.561 40.9778 105.237 41.8174C104.191 42.5717 103.252 43.3525 102.954 44.1201C102.794 44.5419 102.748 44.9985 102.822 45.4436C102.822 45.4436 102.716 45.3443 102.656 45.0995C102.576 44.7475 102.599 44.38 102.722 44.0407C103.02 43.1474 103.966 42.3136 105.038 41.5394C105.994 40.8921 107.046 40.4007 108.155 40.0836C108.578 39.9212 109.026 39.836 109.479 39.8322Z" fill="white"/>
<path d="M104.284 38.7403C104.284 38.78 103.999 39.0315 103.51 39.4351C102.86 39.9352 102.296 40.5388 101.842 41.2218C101.407 41.9022 101.207 42.7065 101.273 43.5114C101.334 43.8463 101.414 44.1776 101.511 44.5039C101.511 44.5039 101.174 44.2194 101.035 43.5511C100.887 42.6787 101.068 41.7825 101.544 41.0365C102.023 40.3273 102.643 39.7238 103.364 39.2631C103.634 39.0315 103.947 38.8541 104.284 38.7403Z" fill="white"/>
<path d="M93.5244 48.4742C93.6392 48.0716 93.8478 47.702 94.1332 47.3956C94.7624 46.5996 95.5863 45.9793 96.5251 45.5944C97.464 45.2096 98.4863 45.0733 99.4932 45.1987C99.9123 45.2144 100.321 45.3325 100.684 45.5428C100.684 45.5958 100.214 45.4766 99.4733 45.4436C98.5109 45.387 97.548 45.5473 96.6558 45.9127C95.7636 46.2781 94.9648 46.8391 94.3185 47.5544C93.8156 48.0971 93.5972 48.5272 93.5244 48.4742Z" fill="white"/>
<path d="M97.4615 51.2733C97.2855 50.9877 97.2002 50.6555 97.2167 50.3204C97.1785 49.5099 97.4142 48.7101 97.886 48.0498C98.3577 47.3896 99.038 46.9074 99.8172 46.6809C100.128 46.5556 100.47 46.5301 100.797 46.6082C100.502 46.7257 100.202 46.8273 99.8966 46.9125C99.1999 47.1771 98.5969 47.6418 98.1636 48.2482C97.7303 48.8546 97.486 49.5755 97.4615 50.3204C97.478 50.6378 97.478 50.9559 97.4615 51.2733Z" fill="white"/>
<path d="M131.673 50.9558C131.289 51.0811 130.879 51.0949 130.488 50.9955C129.522 50.8457 128.633 50.3833 127.955 49.6793C127.277 48.9754 126.849 48.0685 126.736 47.0979C126.654 46.7054 126.682 46.298 126.815 45.92C126.875 45.92 126.815 46.37 126.974 47.0582C127.144 47.954 127.571 48.781 128.203 49.4379C128.836 50.0948 129.646 50.5533 130.534 50.7572C131.223 50.9227 131.666 50.9028 131.673 50.9558Z" fill="white"/>
<path d="M131.58 53.3775C130.583 53.6295 129.535 53.5858 128.562 53.2518C127.552 53.0299 126.63 52.5115 125.916 51.7629C126.795 52.209 127.704 52.5959 128.635 52.9209C129.607 53.1323 130.59 53.2848 131.58 53.3775Z" fill="white"/>
<path d="M122.911 81.5472C123.752 81.5472 132.678 80.3561 138.131 83.9493C143.584 87.5424 158.247 115.361 158.247 115.361C158.247 115.361 162.721 130.164 156.434 133.095C150.148 136.027 133.532 144.967 133.532 144.967L129.482 130.303L140.937 125.009V110.868L122.911 81.5472Z" fill="#455A64"/>
<path d="M140.937 112.086L147.097 112.423C148.765 112.515 150.393 112.971 151.866 113.759C153.34 114.547 154.623 115.647 155.627 116.982L159.597 122.316C159.597 122.316 161.721 125.075 161.099 126.286C160.59 127.279 159.584 127.199 158.611 126.326C157.638 125.452 154.535 120.893 154.535 120.893C154.535 120.893 160.252 128.212 158.949 129.562C157.645 130.912 156.183 129.138 156.183 129.138C156.183 129.138 157.056 131.957 155.309 131.666C153.562 131.375 151.465 128.754 151.465 128.754C151.465 128.754 151.723 130.402 150.141 130.21C148.56 130.018 144.027 123.024 143.636 123.024C143.246 123.024 141.214 122.832 141.214 122.832L140.937 112.086Z" fill="#CE947A"/>
<path d="M152.186 118.57C153.05 119.339 153.837 120.19 154.535 121.111C155.319 121.96 156.017 122.885 156.62 123.871C155.755 123.103 154.969 122.251 154.27 121.33C153.488 120.48 152.79 119.555 152.186 118.57Z" fill="#A56349"/>
<path d="M150.373 121.575C150.724 121.923 151.039 122.307 151.312 122.72C151.862 123.454 152.636 124.46 153.483 125.558C154.33 126.657 155.137 127.636 155.713 128.351C156.053 128.712 156.351 129.112 156.6 129.542C156.203 129.241 155.843 128.895 155.528 128.51C154.906 127.848 154.072 126.875 153.212 125.77C152.351 124.665 151.617 123.633 151.114 122.865C150.812 122.469 150.563 122.035 150.373 121.575Z" fill="#A56349"/>
<path d="M148.282 124.691C149.042 125.197 149.69 125.852 150.188 126.617C150.783 127.312 151.233 128.12 151.511 128.993C151.425 129.039 150.816 128 149.929 126.822C149.345 126.14 148.795 125.429 148.282 124.691Z" fill="#A56349"/>
<path d="M136.986 96.0522C136.927 96.0522 137.026 95.3111 136.986 94.1266C136.924 92.5909 136.621 91.0745 136.086 89.6335C135.542 88.1968 134.771 86.8564 133.803 85.6632C133.056 84.75 132.48 84.2603 132.539 84.214C132.599 84.1677 132.705 84.3 132.963 84.5118C133.329 84.8166 133.672 85.1484 133.989 85.5043C135.033 86.6823 135.854 88.0413 136.41 89.5144C136.969 90.9941 137.247 92.5649 137.231 94.1464C137.226 94.6208 137.187 95.0941 137.112 95.5625C137.097 95.7316 137.055 95.8971 136.986 96.0522Z" fill="#263238"/>
<path d="M98.2688 91.2215C98.2688 91.2215 106.335 95.8535 112.456 94.5301C116.359 93.5565 119.954 91.6179 122.911 88.8922L133.737 113.674L127.325 163.303L107.983 165.824L101.571 118.743L98.2688 91.2215Z" fill="#FAFAFA"/>
<path d="M97.6667 82.4737L93.4648 83.9493L85.6962 134.624C85.6962 134.624 79.7009 155.726 80.2237 164.845C80.7465 173.964 85.6565 202.206 85.6565 202.206L121.098 198.474L119.629 143.021C119.629 143.021 122.184 127.061 114.613 117.399C107.043 107.738 97.6667 82.4737 97.6667 82.4737Z" fill="#455A64"/>
<path d="M117.995 81.3552C118.485 82.0567 126.233 111.503 125.4 117.704C124.566 123.904 120.053 136.894 120.053 136.894V198.288L151.326 195.43C151.326 195.43 153.887 173.017 151.326 162.284C148.765 151.551 145.033 138.839 145.033 138.839L142.565 101.366L126.829 81.3552H117.995Z" fill="#455A64"/>
<path d="M152.848 181.719C152.784 181.696 152.724 181.665 152.669 181.626L152.166 181.322C151.716 181.05 151.068 180.66 150.181 180.197C149.129 179.635 147.991 179.253 146.813 179.065C146.081 178.966 145.338 178.996 144.616 179.151C143.813 179.358 143.046 179.684 142.34 180.117C141.592 180.567 140.851 181.117 140.076 181.692L137.655 183.479C135.98 184.703 134.207 186.033 132.301 187.403C131.337 188.15 130.198 188.639 128.993 188.826C127.712 188.861 126.443 188.577 125.3 187.999C122.978 186.946 120.575 185.901 118.068 184.915C116.81 184.425 115.573 183.936 114.335 183.532C113.133 183.105 111.866 182.892 110.59 182.903C109.365 182.973 108.18 183.366 107.156 184.041C106.166 184.693 105.25 185.449 104.423 186.298C102.762 187.913 101.247 189.607 99.3672 190.619C99.1404 190.748 98.9036 190.859 98.6592 190.95C98.4271 191.063 98.1829 191.15 97.9313 191.208C97.4538 191.366 96.9578 191.462 96.4556 191.492C95.5235 191.547 94.5881 191.49 93.6698 191.32C90.9162 190.798 88.2454 189.908 85.7291 188.674C84.8292 188.263 84.141 187.919 83.6778 187.688L83.1484 187.423C83.0293 187.357 82.9697 187.324 82.9763 187.317L83.1682 187.39L83.7042 187.628L85.782 188.554C88.311 189.732 90.9793 190.583 93.7227 191.089C94.6244 191.248 95.5421 191.297 96.4556 191.234C96.938 191.201 97.4139 191.105 97.8717 190.95C98.1005 190.89 98.3223 190.805 98.5335 190.698C98.7606 190.604 98.9816 190.496 99.1952 190.374C101.008 189.395 102.504 187.727 104.165 186.08C105.005 185.21 105.937 184.433 106.944 183.764C108.015 183.06 109.251 182.649 110.53 182.572C111.85 182.564 113.16 182.788 114.402 183.234C115.659 183.651 116.896 184.141 118.154 184.624C120.661 185.61 123.083 186.669 125.393 187.721C126.483 188.279 127.695 188.557 128.92 188.528C130.078 188.366 131.176 187.91 132.109 187.205L137.476 183.314L139.904 181.547C140.645 180.985 141.413 180.462 142.207 179.979C142.934 179.533 143.727 179.205 144.556 179.006C145.303 178.85 146.071 178.827 146.826 178.94C148.023 179.141 149.176 179.548 150.234 180.144C150.903 180.504 151.552 180.9 152.179 181.328L152.669 181.659C152.795 181.673 152.854 181.712 152.848 181.719Z" fill="#FAFAFA"/>
<path d="M110.716 134.611C110.888 134.551 116.281 131.6 117.644 131.428C119.007 131.256 129.608 130.766 129.608 130.766L132.44 141.029C132.44 141.029 123.606 145.311 122.243 145.661C120.88 146.012 115.09 148.103 114.124 148.103C113.158 148.103 110.431 147.19 110.431 146.568C110.419 146.404 110.448 146.239 110.518 146.089C110.588 145.94 110.694 145.811 110.828 145.714C112.064 145.759 113.3 145.684 114.521 145.489C115.16 145.262 115.785 144.997 116.394 144.695C116.394 144.695 106.686 146.171 106.004 145.939C105.323 145.708 104.813 144.292 104.813 144.292C104.813 144.292 103.675 143.498 103.563 142.763C103.45 142.029 103.847 141.685 104.469 141.4C105.091 141.115 109.293 139.243 110.544 138.899C111.795 138.555 115.09 137.992 115.09 137.992C115.09 137.992 105.091 139.071 104.502 138.786C103.913 138.502 103.179 137.423 104.218 136.801C105.459 136.004 106.82 135.41 108.248 135.041C109.353 134.836 110.716 134.611 110.716 134.611Z" fill="#F4C3AE"/>
<path d="M117.823 140.719C117.226 141.038 116.599 141.295 115.95 141.486C114.772 141.903 113.125 142.419 111.272 142.889C109.419 143.359 107.725 143.677 106.494 143.868C105.829 144.003 105.154 144.076 104.476 144.087C105.125 143.883 105.788 143.73 106.461 143.63C107.679 143.379 109.359 143.015 111.206 142.552C113.052 142.088 114.693 141.612 115.891 141.228C116.521 141.012 117.167 140.841 117.823 140.719Z" fill="#CC937F"/>
<path d="M116.89 133.076C115.918 133.47 114.906 133.756 113.872 133.929C112.864 134.214 111.828 134.387 110.782 134.445C111.754 134.051 112.765 133.765 113.799 133.592C114.808 133.308 115.844 133.135 116.89 133.076Z" fill="#CC937F"/>
<path d="M129.82 134.843C129.687 134.872 129.552 134.89 129.416 134.896C129.061 134.98 128.72 135.116 128.404 135.299C127.911 135.613 127.346 135.793 126.763 135.822C126.101 135.782 125.439 135.412 124.91 135.862C124.645 136.112 124.355 136.334 124.043 136.523C123.708 136.662 123.339 136.697 122.984 136.623C122.323 136.49 121.833 136.239 121.376 136.212C121.028 136.173 120.678 136.272 120.404 136.49C120.218 136.656 120.179 136.808 120.152 136.795C120.126 136.781 120.152 136.623 120.304 136.398C120.443 136.251 120.612 136.137 120.799 136.062C120.987 135.988 121.188 135.956 121.389 135.968C121.943 136.046 122.491 136.158 123.031 136.305C123.322 136.361 123.624 136.329 123.897 136.212C124.185 136.028 124.458 135.82 124.711 135.59C124.87 135.464 125.056 135.376 125.254 135.332C125.444 135.299 125.639 135.299 125.83 135.332C126.187 135.385 126.491 135.491 126.783 135.511C127.314 135.492 127.834 135.347 128.298 135.087C128.642 134.911 129.017 134.803 129.403 134.77C129.681 134.757 129.826 134.823 129.82 134.843Z" fill="#CC937F"/>
<path d="M129.926 136.947C129.644 137.318 129.245 137.584 128.794 137.701C128.317 137.868 127.807 137.92 127.305 137.853C127.04 137.796 126.769 137.774 126.498 137.787C126.369 137.809 126.247 137.861 126.142 137.938C126.036 138.015 125.95 138.115 125.889 138.23C125.705 138.525 125.421 138.744 125.088 138.846C124.785 138.911 124.472 138.911 124.169 138.846C123.709 138.729 123.239 138.658 122.766 138.634C122.462 138.643 122.173 138.763 121.952 138.971C121.806 139.13 121.773 139.256 121.74 139.249C121.707 139.243 121.707 139.104 121.846 138.892C121.953 138.75 122.088 138.632 122.243 138.546C122.398 138.459 122.569 138.406 122.746 138.389C123.24 138.375 123.733 138.424 124.215 138.535C124.475 138.596 124.748 138.577 124.997 138.48C125.246 138.383 125.46 138.213 125.611 137.992C125.709 137.852 125.825 137.726 125.955 137.615C126.102 137.505 126.276 137.437 126.458 137.416C126.758 137.405 127.059 137.434 127.351 137.502C127.81 137.58 128.279 137.557 128.728 137.436C129.138 137.302 129.539 137.139 129.926 136.947Z" fill="#CC937F"/>
<path d="M100.261 141.354C100.02 141.396 99.7758 141.407 99.5327 141.387C99.2455 141.388 98.9584 141.375 98.6725 141.347C98.3416 141.314 97.9578 141.294 97.5409 141.221C96.5628 141.068 95.5965 140.847 94.6492 140.56C93.4903 140.202 92.3544 139.773 91.2479 139.276C89.2546 138.356 87.3402 137.274 85.524 136.04C84.8226 135.57 84.2734 135.18 83.8962 134.895C83.6898 134.763 83.5009 134.605 83.3337 134.426C83.5695 134.514 83.7921 134.634 83.9955 134.783L85.6564 135.875C87.499 137.041 89.4154 138.087 91.3935 139.005C92.485 139.506 93.6027 139.948 94.7418 140.328C95.6722 140.622 96.6204 140.857 97.5806 141.03C99.2217 141.274 100.267 141.288 100.261 141.354Z" fill="#263238"/>
<path d="M107.089 150.142C106.716 150.097 106.346 150.022 105.984 149.917C105.552 149.826 105.125 149.709 104.707 149.566C104.211 149.414 103.642 149.255 103.04 149.017C101.608 148.491 100.209 147.879 98.851 147.184C97.1972 146.317 95.5933 145.358 94.0469 144.312C91.2549 142.382 88.6277 140.224 86.1923 137.86C85.2592 136.96 84.5247 136.206 84.0351 135.67C83.7682 135.405 83.5226 135.119 83.3005 134.816C83.5981 135.045 83.8769 135.297 84.1343 135.57C84.6504 136.08 85.4114 136.808 86.3643 137.681C88.8325 139.982 91.4642 142.101 94.2388 144.021C95.7746 145.059 97.3626 146.017 98.9966 146.892C100.336 147.599 101.715 148.229 103.126 148.778C103.721 149.03 104.277 149.208 104.76 149.381C105.243 149.553 105.667 149.685 106.017 149.784C106.383 149.877 106.741 149.997 107.089 150.142Z" fill="#263238"/>
<path d="M144.02 123.474C143.359 123.871 142.669 124.218 141.956 124.513C140.632 125.115 138.852 125.923 136.847 126.776C134.842 127.63 133.016 128.377 131.679 128.88C131.017 129.132 130.462 129.33 130.084 129.456C129.893 129.54 129.69 129.594 129.482 129.615C130.161 129.248 130.864 128.927 131.586 128.655L136.715 126.459L141.856 124.288C142.556 123.962 143.279 123.69 144.02 123.474Z" fill="#263238"/>
<path d="M130.733 95.7082C130.733 95.7082 130.826 95.7809 130.971 95.9398L131.593 96.6478C132.136 97.25 132.917 98.1102 133.976 99.1359C135.034 100.162 136.259 101.359 137.602 102.749C139.082 104.243 140.388 105.902 141.493 107.692C142.573 109.521 143.281 111.544 143.577 113.647C143.829 115.573 143.908 117.307 143.974 118.763C144.04 120.218 144.054 121.41 144.06 122.217C144.06 122.594 144.06 122.879 144.06 123.156C144.068 123.268 144.057 123.38 144.027 123.487C144.001 123.379 143.988 123.268 143.987 123.156C143.987 122.905 143.968 122.594 143.928 122.223C143.882 121.357 143.815 120.192 143.736 118.776C143.657 117.36 143.537 115.593 143.266 113.694C142.96 111.642 142.259 109.669 141.202 107.884C140.112 106.115 138.83 104.472 137.377 102.987C136.053 101.584 134.809 100.38 133.804 99.3212C132.798 98.2624 132.01 97.3757 131.494 96.7471L130.925 95.9993C130.849 95.9112 130.784 95.8133 130.733 95.7082Z" fill="#263238"/>
<path d="M155.799 133.374C155.484 133.589 155.154 133.784 154.813 133.956L152.06 135.451C149.731 136.695 146.502 138.396 142.929 140.249C139.256 142.161 135.934 143.862 133.578 145.046L133.446 145.119L133.406 144.974C133.102 143.789 132.85 142.81 132.665 142.069C132.56 141.72 132.483 141.364 132.434 141.003C132.582 141.337 132.702 141.682 132.791 142.036C133.003 142.77 133.294 143.736 133.638 144.914L133.466 144.835C135.795 143.591 139.097 141.85 142.77 139.945C146.442 138.039 149.592 136.424 151.948 135.233L154.747 133.837C155.084 133.652 155.436 133.497 155.799 133.374Z" fill="#263238"/>
<path d="M120.933 146.098C120.949 146.276 120.949 146.456 120.933 146.634C120.933 147.011 120.867 147.521 120.814 148.156C120.688 149.479 120.595 151.392 120.476 153.761C120.264 158.492 120.205 165.01 120.317 172.289C120.43 179.568 120.655 186.073 120.847 190.817C120.939 193.16 121.019 195.072 121.072 196.429C121.072 197.091 121.111 197.58 121.125 197.957C121.142 198.136 121.142 198.315 121.125 198.493C121.088 198.319 121.066 198.142 121.059 197.964C121.059 197.58 120.986 197.077 120.939 196.442C120.847 195.119 120.728 193.2 120.602 190.831C120.35 186.093 120.079 179.542 119.973 172.302C119.867 165.063 119.973 158.505 120.231 153.774C120.384 151.405 120.509 149.486 120.681 148.169C120.754 147.508 120.814 147.031 120.86 146.654C120.867 146.467 120.892 146.281 120.933 146.098Z" fill="#263238"/>
<path d="M93.4647 83.9492C93.4647 83.9492 81.772 88.9386 78.1656 96.8462C74.5592 104.754 67.1612 129.86 66.9891 134.498C66.8171 139.137 75.4129 153.582 75.4129 153.582L88.998 144.98L86.4173 138.621L90.5399 111.285L93.4647 83.9492Z" fill="#455A64"/>
<path d="M87.8863 296.184C87.6694 296.184 87.4546 296.141 87.2542 296.058C87.0539 295.974 86.8719 295.852 86.7189 295.699C86.5658 295.545 86.4445 295.363 86.3621 295.162C86.2797 294.961 86.2377 294.746 86.2386 294.529C86.2386 293.206 86.4437 161.066 86.3842 158.929C86.2585 154.376 83.4858 152.312 83.3667 152.199C83.0249 151.939 82.7977 151.556 82.7333 151.131C82.6689 150.706 82.7723 150.273 83.0216 149.923C83.271 149.573 83.6467 149.334 84.0692 149.256C84.4918 149.178 84.9281 149.268 85.2857 149.506C85.4578 149.632 89.5208 152.57 89.6928 158.836C89.7524 161.02 89.5538 289.083 89.5472 294.529C89.5455 294.969 89.3697 295.389 89.0584 295.699C88.7471 296.01 88.3257 296.184 87.8863 296.184Z" fill="#263238"/>
<path d="M78.4965 168.755C78.0583 168.752 77.6392 168.575 77.3306 168.264C77.022 167.953 76.8488 167.533 76.8488 167.095C76.8488 162.185 76.8488 154.727 76.8488 154.29C76.8336 154.075 76.8611 153.859 76.9298 153.654C76.9985 153.45 77.107 153.261 77.2491 153.098C77.3912 152.936 77.5641 152.803 77.7578 152.708C77.9514 152.613 78.162 152.557 78.3774 152.543C78.8186 152.52 79.2515 152.67 79.5831 152.962C79.9147 153.254 80.1185 153.664 80.1508 154.105C80.1508 154.178 80.1508 154.409 80.1508 167.101C80.1508 167.54 79.9765 167.961 79.6663 168.271C79.356 168.581 78.9353 168.755 78.4965 168.755Z" fill="#263238"/>
<path d="M81.0241 145.251L77.8214 148.057C77.0207 148.758 76.0149 154.965 76.0149 154.965C76.0149 154.965 79.522 158.717 81.0241 158.87C81.9979 158.923 82.9578 158.619 83.724 158.016C83.724 158.016 85.2261 158.87 86.1326 158.122C87.0392 157.374 84.8754 152.51 84.8754 152.51C84.8754 152.51 84.0681 150.161 86.351 150.307L87.3304 152.067L89.7854 156.269C89.7854 156.269 91.2875 156.064 91.5389 155.316C91.7904 154.568 90.8772 152.067 90.8772 152.067C91.1587 151.635 91.3445 151.147 91.4221 150.637C91.4997 150.127 91.4674 149.606 91.3272 149.109C90.778 147.653 89.878 145 87.2245 144.404C84.571 143.809 81.0241 145.251 81.0241 145.251Z" fill="#F4C3AE"/>
<path d="M83.6049 157.414C83.5586 157.447 83.1549 156.918 82.4138 156.143C81.4445 155.146 80.3682 154.258 79.2045 153.496C78.8556 153.256 78.5586 152.947 78.331 152.59C78.1333 152.229 78.0612 151.812 78.1259 151.405C78.2489 150.756 78.5463 150.152 78.9861 149.658C79.3368 149.235 79.6478 148.917 79.8066 148.679C79.9654 148.441 80.0846 148.308 80.1044 148.322C79.8945 148.87 79.5823 149.373 79.1846 149.804C78.8005 150.278 78.5452 150.843 78.4435 151.445C78.3936 151.78 78.4564 152.122 78.6221 152.418C78.8284 152.735 79.0962 153.007 79.4096 153.218C80.5906 154 81.6612 154.937 82.5925 156.004C83.0005 156.419 83.342 156.895 83.6049 157.414Z" fill="#CC937F"/>
<path d="M88.045 149.533C88.1178 149.599 87.7208 150.095 87.5554 150.816C87.3899 151.538 87.4892 152.14 87.3966 152.186C87.3039 152.232 87.0128 151.564 87.2179 150.737C87.423 149.91 87.9855 149.46 88.045 149.533Z" fill="#CC937F"/>
<path d="M70.1521 132.103C70.4648 132.077 70.779 132.077 71.0917 132.103C71.3961 132.103 71.7535 132.103 72.1968 132.103L73.6526 132.288C74.1952 132.361 74.7643 132.533 75.3929 132.672C75.704 132.751 76.0083 132.877 76.3326 132.99C76.6693 133.093 76.9987 133.219 77.3186 133.367C78.7552 134.003 80.0925 134.843 81.2889 135.861C82.474 136.878 83.5637 138.001 84.5446 139.216C85.4578 140.322 86.2254 141.354 86.8805 142.207C87.5356 143.061 88.0716 143.762 88.4487 144.193C88.6598 144.427 88.8502 144.68 89.0178 144.947C88.7753 144.75 88.5535 144.528 88.3561 144.285C87.9458 143.835 87.3768 143.167 86.7018 142.3C86.0268 141.433 85.2262 140.447 84.3064 139.362C83.3252 138.17 82.245 137.063 81.0771 136.053C79.9108 135.054 78.61 134.223 77.2127 133.585C76.9029 133.439 76.5847 133.31 76.2598 133.201C75.9422 133.089 75.6444 132.957 75.34 132.871C74.7246 132.725 74.1688 132.546 73.6394 132.454L72.2034 132.222C71.7799 132.176 71.416 132.162 71.1116 132.136C70.7915 132.16 70.4698 132.149 70.1521 132.103Z" fill="#263238"/>
<path d="M88.0451 108.671C88.0213 109.062 87.9704 109.452 87.8929 109.836C87.7738 110.577 87.5885 111.649 87.3502 112.972C86.8341 115.672 86.1459 119.299 85.3651 123.302C84.5842 127.305 83.9953 130.998 83.6115 133.665C83.4262 134.948 83.274 136.014 83.1615 136.814C83.1258 137.204 83.0616 137.591 82.9696 137.972C82.9583 137.581 82.9782 137.189 83.0292 136.801C83.0887 136.047 83.2079 134.968 83.3667 133.631C83.6909 130.985 84.2666 127.279 85.0276 123.236C85.7886 119.193 86.5562 115.566 87.0988 112.926L87.7605 109.809C87.824 109.423 87.9192 109.042 88.0451 108.671Z" fill="#263238"/>
<path d="M91.2677 297.388H85.0608L86.2122 292.452H89.8847L91.2677 297.388Z" fill="#455A64"/>
</svg>
