<svg width="145" height="140" viewBox="0 0 145 140" fill="none" xmlns="http://www.w3.org/2000/svg">
<path d="M65.0771 33.9049H55.3069C45.4377 33.9049 37.8689 36.1944 32.5979 40.7705C27.3294 45.3206 24.6853 51.8413 24.6853 60.2748C24.6853 67.8099 26.6641 73.8959 30.6191 78.5039C34.552 83.1409 39.8205 85.4304 46.4271 85.4304C50.4589 85.4304 54.268 84.5899 57.8051 82.88C61.3669 81.1701 64.2609 78.9096 66.487 76.0985L66.8828 76.2434L69.0594 83.7813H79.4975V33.6151C79.4975 22.2546 77.1501 13.8211 72.4728 8.28568C67.7979 2.7532 60.4542 0 50.4094 0C34.9749 0 22.7337 5.5035 13.6288 16.4873C4.55119 27.503 0 41.8457 0 59.5271C0 76.7998 4.47946 90.8817 13.431 101.724C22.4122 112.562 34.3318 118.011 49.2716 118.011C54.9111 118.011 60.3775 117.17 65.6707 115.518C70.9392 113.869 75.5399 111.519 79.4975 108.505V108.476L78.1123 93.8407C77.3703 94.1595 76.6035 94.5362 75.8367 94.9419C75.812 94.9709 75.7848 95.0028 75.7378 95.0028C74.9958 95.5245 74.229 95.9882 73.4869 96.42C73.4869 96.4519 73.4622 96.4519 73.4375 96.4808C70.1477 98.4776 66.9817 100.017 63.9121 101.118C59.4599 102.744 54.8345 103.523 50.0384 103.523C38.6357 103.523 29.657 99.3789 23.0775 91.0904C16.5228 82.8018 13.2578 71.8759 13.2578 58.3128C13.2578 45.0684 16.4733 34.5483 22.9019 26.7495C29.3354 18.9565 38.1138 15.073 49.2691 15.073C55.0843 15.073 59.215 16.2903 61.6118 18.6957C64.0086 21.1011 65.1983 25.3323 65.1983 31.3575V32.9225C65.2008 33.2645 65.1736 33.6151 65.0771 33.9049ZM66.2396 46.4219V62.8251C65.0276 65.1436 62.9252 67.1433 59.9323 68.8532C56.9394 70.5631 53.7733 71.4325 50.4069 71.4325C46.8204 71.4325 44.0526 70.3631 42.1208 68.1895C40.1915 66.0449 39.2268 62.9411 39.2268 58.9156C39.2268 54.5076 40.6614 51.3226 43.5282 49.3518C46.3974 47.3782 50.8522 46.4219 56.838 46.4219H66.2396Z" fill="#023047"/>
<path d="M143.039 120.008C136.632 131.658 121.618 144.61 108.979 138.382C103.065 135.455 98.6892 131.397 95.8422 124.5C92.4288 116.298 90.1779 101.837 80.284 108.038C80.012 108.212 79.7646 108.354 79.4925 108.47C73.3088 111.252 68.1665 100.964 73.435 96.4721C73.4597 96.4432 73.4845 96.4432 73.4845 96.4113C73.7343 96.2374 73.9544 96.0635 74.2265 95.8896C74.7459 95.5708 75.2406 95.281 75.7353 94.9912C75.7848 94.9912 75.8095 94.9593 75.8343 94.9303C76.601 94.5246 77.3678 94.1479 78.1099 93.8291C87.0144 89.8297 95.5479 91.7424 100.544 103.277C102.991 108.928 106.035 123.158 112.142 124.81C120.478 127.044 128.319 120.842 132.699 112.902C136.855 105.314 147.246 112.354 143.039 120.008Z" fill="#023047"/>
</svg>
