<svg width="589" height="575" viewBox="0 0 589 575" fill="none" xmlns="http://www.w3.org/2000/svg">
<path d="M529.982 458.263H490.967V458.552H529.982V458.263Z" fill="#EBEBEB"/>
<path d="M390.177 461.392H379.94V461.68H390.177V461.392Z" fill="#EBEBEB"/>
<path d="M489.789 447.592H467.183V447.88H489.789V447.592Z" fill="#EBEBEB"/>
<path d="M112.676 449.523H61.7979V449.812H112.676V449.523Z" fill="#EBEBEB"/>
<path d="M130.629 449.523H123.172V449.812H130.629V449.523Z" fill="#EBEBEB"/>
<path d="M265.227 454.376H154.872V454.665H265.227V454.376Z" fill="#EBEBEB"/>
<path d="M279.186 388.47H51.7376C49.9537 388.47 48.2428 387.778 46.9813 386.547C45.7199 385.315 45.0112 383.645 45.0112 381.904V69.759C45.0268 68.0274 45.7423 66.372 47.002 65.1529C48.2618 63.9339 49.9638 63.2499 51.7376 63.25H279.186C280.97 63.25 282.681 63.9418 283.942 65.1733C285.204 66.4047 285.912 68.075 285.912 69.8165V381.904C285.912 383.645 285.204 385.315 283.942 386.547C282.681 387.778 280.97 388.47 279.186 388.47ZM51.7376 63.48C50.0327 63.483 48.3986 64.1456 47.193 65.3224C45.9875 66.4993 45.3088 68.0946 45.3057 69.759V381.904C45.3088 383.568 45.9875 385.163 47.193 386.34C48.3986 387.517 50.0327 388.179 51.7376 388.183H279.186C280.891 388.179 282.525 387.517 283.73 386.34C284.936 385.163 285.615 383.568 285.618 381.904V69.759C285.615 68.0946 284.936 66.4993 283.73 65.3224C282.525 64.1456 280.891 63.483 279.186 63.48H51.7376Z" fill="#EBEBEB"/>
<path d="M533.999 388.47H306.527C304.744 388.467 303.035 387.774 301.774 386.543C300.514 385.313 299.804 383.644 299.801 381.904V69.759C299.819 68.0284 300.536 66.3746 301.795 65.1562C303.054 63.9378 304.754 63.2529 306.527 63.25H533.999C535.769 63.256 537.465 63.9426 538.719 65.161C539.974 66.3794 540.686 68.0314 540.702 69.759V381.904C540.702 383.641 539.996 385.308 538.74 386.539C537.484 387.769 535.779 388.464 533.999 388.47ZM306.527 63.48C304.822 63.483 303.188 64.1456 301.983 65.3224C300.777 66.4993 300.098 68.0946 300.095 69.759V381.904C300.098 383.568 300.777 385.163 301.983 386.34C303.188 387.517 304.822 388.179 306.527 388.183H533.999C535.704 388.179 537.338 387.517 538.544 386.34C539.749 385.163 540.428 383.568 540.431 381.904V69.759C540.428 68.0946 539.749 66.4993 538.544 65.3224C537.338 64.1456 535.704 63.483 533.999 63.48H306.527Z" fill="#EBEBEB"/>
<path d="M589 439.76H0V440.049H589V439.76Z" fill="#EBEBEB"/>
<path d="M226.612 109.653H84.3096V439.392H226.612V109.653Z" fill="#EBEBEB"/>
<path d="M220.557 115.621H90.3525V439.392H220.557V115.621Z" fill="#F5F5F5"/>
<path d="M152.41 158.332H100.212V276.909H152.41V158.332Z" fill="#FAFAFA"/>
<path d="M211.404 158.332H159.207V276.909H211.404V158.332Z" fill="#FAFAFA"/>
<path d="M211.404 312.777H100.212V431.354H211.404V312.777Z" fill="#FAFAFA"/>
<path d="M120.568 124.2H191.048C196.447 124.2 201.624 126.294 205.442 130.02C209.259 133.747 211.404 138.802 211.404 144.072V152.179H100.212V144.095C100.209 141.483 100.734 138.897 101.755 136.483C102.777 134.07 104.276 131.876 106.166 130.028C108.057 128.181 110.302 126.715 112.773 125.715C115.244 124.715 117.893 124.2 120.568 124.2Z" fill="#FAFAFA"/>
<path d="M109.707 282.245H100.212V306.395H109.707V282.245Z" fill="#E6E6E6"/>
<path d="M109.707 306.406H111.568V282.256H109.707V306.406Z" fill="#E0E0E0"/>
<path d="M106.562 291.732C106.564 292.506 106.331 293.263 105.892 293.907C105.454 294.552 104.829 295.055 104.097 295.353C103.366 295.65 102.56 295.729 101.782 295.58C101.005 295.43 100.29 295.059 99.7285 294.512C99.1672 293.966 98.7846 293.269 98.6291 292.511C98.4736 291.752 98.5522 290.965 98.855 290.25C99.1578 289.535 99.6712 288.923 100.33 288.493C100.989 288.063 101.764 287.833 102.556 287.833C103.617 287.833 104.634 288.244 105.384 288.975C106.135 289.705 106.559 290.697 106.562 291.732Z" fill="#E0E0E0"/>
<path d="M105.796 298.494H103.735V303.381H105.796V298.494Z" fill="#E0E0E0"/>
<path d="M99.0345 297.195C102.125 297.195 104.63 294.749 104.63 291.732C104.63 288.715 102.125 286.27 99.0345 286.27C95.9442 286.27 93.439 288.715 93.439 291.732C93.439 294.749 95.9442 297.195 99.0345 297.195Z" fill="#EBEBEB"/>
<path d="M445.626 345.207C445.626 345.207 461.882 330.257 461.611 320.424C461.34 310.592 451.457 333.626 451.221 328.785C450.986 323.943 462.459 310.04 462.942 300.541C463.425 291.042 451.268 317.584 450.62 313.191C449.972 308.798 461.752 288.983 461.658 282.083C461.564 275.183 451.362 299.575 449.878 295.262C448.394 290.95 458.372 274.827 455.768 262.763C453.165 250.7 447.793 282.313 446.969 278.334C446.144 274.355 453.047 253.69 448.147 245.456C443.246 237.222 444.613 267.754 442.975 264.201C441.338 260.647 440.301 243.144 434.093 237.187C427.885 231.23 435.73 254.817 433.822 256.013C431.914 257.209 423.055 239.637 420.664 242.972C418.272 246.307 433.257 265.178 433.398 269.686C433.539 274.194 421.312 262.154 420.216 267.041C419.121 271.929 437.238 279.622 438.169 284.291C439.1 288.96 423.091 280.6 423.161 285.441C423.232 290.283 438.393 292.847 439.3 298.321C440.207 303.795 424.445 294.354 425.317 300.782C426.189 307.211 436.779 305.946 437.992 312.282C439.206 318.619 427.037 311.397 427.496 317.411C427.956 323.426 440.113 324.093 441.385 328.681C442.657 333.27 429.782 326.542 430.135 331.418C430.488 336.294 443.093 336.846 445.626 345.207Z" fill="#E0E0E0"/>
<path d="M444.283 366.482C446.45 355.411 447.594 344.173 447.699 332.902C448.311 308.419 445.154 283.728 436.802 260.579C436.19 258.888 433.374 259.498 433.987 261.2C442.233 284.2 445.414 308.545 444.813 332.81C444.73 343.847 443.63 354.855 441.526 365.7C441.161 367.46 443.882 368.311 444.283 366.54V366.482Z" fill="#F0F0F0"/>
<path d="M450.385 350.267C450.385 350.267 439.088 329.153 442.692 314.847C446.297 300.541 448.936 333.845 450.62 325.876C452.305 317.906 445.284 302.45 451.822 290.95C458.36 279.45 452.305 312.524 456.628 305.256C460.951 297.988 455.886 279.45 461.917 272.389C467.949 265.328 463.837 287.638 466.712 284.119C469.586 280.6 468.879 264.19 473.45 260.429C478.021 256.669 473.921 276.15 476.324 272.389C478.727 268.629 484.252 251.517 491.944 249.389C499.637 247.261 486.903 259.934 491.944 258.761C496.986 257.588 508.519 255.013 509.485 260.176C510.451 265.34 485.218 270.963 482.332 277.3C479.446 283.636 493.865 272.366 496.468 277.058C499.071 281.75 474.357 288.317 472.437 295.355C470.517 302.393 492.863 289.49 492.38 296.769C491.897 304.049 466.665 305.44 465.463 311.777C464.261 318.113 486.137 304.739 485.407 311.075C484.676 317.412 462.824 322.334 461.387 329.13C459.95 335.927 477.479 322.805 477.962 328.199C478.445 333.592 450.385 350.267 450.385 350.267Z" fill="#EBEBEB"/>
<path d="M434.411 349.6C434.411 349.6 445.343 330.567 442.08 321.275C438.817 311.983 436.437 336.95 434.682 332.35C432.927 327.75 439.665 311.19 437.215 301.99C434.764 292.79 431.325 321.655 429.31 317.584C427.296 313.513 432.526 291.249 430.323 284.694C428.12 278.139 425.847 304.393 423.102 300.702C420.357 297.01 424.952 278.725 418.814 267.95C412.677 257.174 417.2 288.972 415.186 285.384C413.172 281.796 413.442 260.084 406.257 253.667C399.071 247.25 409.791 275.965 407.07 273.056C404.348 270.146 398.058 253.747 390.307 249.872C382.555 245.996 397.269 266.225 395.82 267.915C394.371 269.606 380.506 255.438 379.269 259.313C378.032 263.189 398.117 276.828 399.601 281.094C401.085 285.361 385.759 277.426 386.207 282.417C386.655 287.408 406.316 289.455 408.589 293.641C410.863 297.827 393.075 294.526 394.618 299.103C396.161 303.68 411.416 301.725 413.961 306.682C416.505 311.638 398.576 307.234 401.368 313.11C404.16 318.987 413.89 314.697 416.988 320.39C420.086 326.082 406.268 322.69 408.554 328.348C410.839 334.006 422.631 331.039 425.246 335.052C427.861 339.066 413.466 336.386 415.351 340.94C417.236 345.494 429.44 342.401 434.411 349.6Z" fill="#EBEBEB"/>
<path d="M439.653 370.3C438.31 359.103 435.944 348.046 432.585 337.26C425.658 313.72 415.092 291.076 400.025 271.411C398.93 269.985 396.42 271.411 397.54 272.837C412.465 292.318 422.949 314.674 429.805 338.008C433.105 348.548 435.435 359.355 436.767 370.3C436.944 372.082 439.83 372.094 439.653 370.3Z" fill="#F0F0F0"/>
<path d="M449.902 367.621C450.354 357.825 451.535 348.074 453.436 338.445C456.899 319.85 462.424 300.852 473.073 284.878C479.14 275.759 487.091 267.95 497.257 263.293C498.942 262.522 497.481 260.096 495.808 260.855C477.62 269.204 466.723 286.971 459.809 304.658C453.388 321.126 449.831 338.664 447.946 356.155C447.534 359.962 447.169 363.791 447.039 367.655C446.98 369.472 449.854 369.461 449.925 367.655L449.902 367.621Z" fill="#F5F5F5"/>
<path d="M473.438 362.158H413.855L420.581 424.385V439.392H466.712V424.385L473.438 362.158Z" fill="#EBEBEB"/>
<path d="M487.079 170.786H444.283V203.722H487.079V170.786Z" fill="#F0F0F0"/>
<path d="M489.388 170.786H487.08V203.722H489.388V170.786Z" fill="#E0E0E0"/>
<path d="M482.721 174.145H448.653V200.365H482.721V174.145Z" fill="#FAFAFA"/>
<path d="M479.917 176.307H451.457V198.214H479.917V176.307Z" fill="#EBEBEB"/>
<path d="M435.459 117.334H388.351V175.651H435.459V117.334Z" fill="#EBEBEB"/>
<path d="M437.709 117.334H435.459V175.651H437.709V117.334Z" fill="#E0E0E0"/>
<path d="M430.653 123.28H393.158V169.706H430.653V123.28Z" fill="#F5F5F5"/>
<path d="M427.567 127.109H396.244V165.899H427.567V127.109Z" fill="#FAFAFA"/>
<path d="M418.108 140.795C418.108 140.795 412.571 148.442 409.72 148.316C407.117 148.201 402.652 140.795 402.652 140.795C402.652 140.795 408.189 133.147 411.04 133.274C413.678 133.4 418.108 140.795 418.108 140.795Z" fill="#EBEBEB"/>
<path d="M403.618 157.723C401.981 154.641 410.533 148.166 414.091 148.316C417.354 148.454 424.151 154.79 422.878 157.723C421.017 162.058 405.833 161.897 403.618 157.723Z" fill="#F0F0F0"/>
<path d="M473.98 153.41C485.723 153.41 495.243 140.451 495.243 124.465C495.243 108.478 485.723 95.519 473.98 95.519C462.237 95.519 452.717 108.478 452.717 124.465C452.717 140.451 462.237 153.41 473.98 153.41Z" fill="#E0E0E0"/>
<path d="M471.447 153.41C483.191 153.41 492.71 140.451 492.71 124.465C492.71 108.478 483.191 95.519 471.447 95.519C459.704 95.519 450.185 108.478 450.185 124.465C450.185 140.451 459.704 153.41 471.447 153.41Z" fill="#EBEBEB"/>
<path d="M471.447 149.12C481.453 149.12 489.565 138.081 489.565 124.464C489.565 110.847 481.453 99.8083 471.447 99.8083C461.441 99.8083 453.33 110.847 453.33 124.464C453.33 138.081 461.441 149.12 471.447 149.12Z" fill="#E6E6E6"/>
<path d="M471.447 146.499C480.387 146.499 487.633 136.634 487.633 124.465C487.633 112.296 480.387 102.431 471.447 102.431C462.508 102.431 455.262 112.296 455.262 124.465C455.262 136.634 462.508 146.499 471.447 146.499Z" fill="#FAFAFA"/>
<path d="M466.37 136.436C464.689 134.864 463.374 132.958 462.512 130.847C461.651 128.737 461.263 126.47 461.375 124.2C461.375 124.2 468.055 123.441 467.855 134.366C467.855 134.366 475.382 126.742 473.156 121.9C469.692 114.356 469.692 114.356 472.142 109.641C472.142 109.641 478.704 112.229 475.676 120.946C475.648 123.21 475.331 125.462 474.734 127.65C474.734 127.65 481.343 121.475 483.463 125.523C483.463 125.523 479.929 132.066 474.734 129.341C474.734 129.306 468.844 139.334 466.37 136.436Z" fill="#EBEBEB"/>
<path d="M288.822 487.267C414.965 487.267 517.224 481.438 517.224 474.249C517.224 467.059 414.965 461.23 288.822 461.23C162.679 461.23 60.4194 467.059 60.4194 474.249C60.4194 481.438 162.679 487.267 288.822 487.267Z" fill="#F5F5F5"/>
<path d="M351.315 363.779C351.315 362.813 351.256 361.859 351.173 360.916L356.922 357.799C356.494 355.138 355.779 352.529 354.79 350.014L348.217 350.129C347.392 348.391 346.411 346.728 345.283 345.161L348.664 339.664C346.91 337.571 344.936 335.663 342.774 333.971L337.143 337.272C335.542 336.168 333.843 335.206 332.066 334.397L332.172 327.991C329.6 327.023 326.931 326.322 324.209 325.898L321.017 331.51C320.039 331.43 319.073 331.384 318.083 331.384C317.094 331.384 316.116 331.384 315.15 331.51L311.958 325.898C309.231 326.32 306.558 327.022 303.983 327.991L304.089 334.397C302.313 335.208 300.615 336.17 299.012 337.272L293.381 333.971C291.216 335.659 289.241 337.567 287.491 339.664L290.86 345.161C289.733 346.728 288.751 348.391 287.927 350.129L281.365 350.014C280.372 352.528 279.653 355.138 279.221 357.799L284.97 360.916C284.887 361.859 284.84 362.813 284.84 363.779C284.84 364.745 284.84 365.7 284.97 366.643L279.221 369.759C279.653 372.417 280.372 375.023 281.365 377.533L287.927 377.43C288.749 379.165 289.73 380.824 290.86 382.386L287.491 387.883C289.242 389.997 291.216 391.924 293.381 393.633L299.012 390.333C300.617 391.43 302.316 392.392 304.089 393.208L303.983 399.613C306.557 400.585 309.231 401.283 311.958 401.695L315.15 396.083C316.116 396.175 317.094 396.221 318.083 396.221C319.073 396.221 320.039 396.221 321.017 396.083L324.209 401.695C326.932 401.281 329.602 400.583 332.172 399.613L332.066 393.208C333.841 392.395 335.539 391.433 337.143 390.333L342.774 393.633C344.936 391.921 346.91 389.994 348.664 387.883L345.283 382.386C346.413 380.824 347.395 379.165 348.217 377.43L354.79 377.533C355.779 375.023 356.494 372.417 356.922 369.759L351.173 366.643C351.256 365.7 351.315 364.745 351.315 363.779ZM318.131 385.767C313.672 385.77 309.314 384.481 305.606 382.065C301.899 379.648 299.008 376.212 297.301 372.192C295.594 368.172 295.147 363.747 296.016 359.479C296.885 355.21 299.032 351.289 302.184 348.212C305.336 345.135 309.353 343.039 313.725 342.191C318.098 341.342 322.63 341.779 326.748 343.445C330.866 345.112 334.386 347.933 336.861 351.553C339.336 355.172 340.656 359.427 340.654 363.779C340.654 369.611 338.281 375.204 334.057 379.327C329.833 383.451 324.104 385.767 318.131 385.767Z" fill="#219EBC"/>
<path opacity="0.5" d="M351.315 363.779C351.315 362.813 351.256 361.859 351.173 360.916L356.922 357.799C356.494 355.138 355.779 352.529 354.79 350.014L348.217 350.129C347.392 348.391 346.411 346.728 345.283 345.161L348.664 339.664C346.91 337.571 344.936 335.663 342.774 333.971L337.143 337.272C335.542 336.168 333.843 335.206 332.066 334.397L332.172 327.991C329.6 327.023 326.931 326.322 324.209 325.898L321.017 331.51C320.039 331.43 319.073 331.384 318.083 331.384C317.094 331.384 316.116 331.384 315.15 331.51L311.958 325.898C309.231 326.32 306.558 327.022 303.983 327.991L304.089 334.397C302.313 335.208 300.615 336.17 299.012 337.272L293.381 333.971C291.216 335.659 289.241 337.567 287.491 339.664L290.86 345.161C289.733 346.728 288.751 348.391 287.927 350.129L281.365 350.014C280.372 352.528 279.653 355.138 279.221 357.799L284.97 360.916C284.887 361.859 284.84 362.813 284.84 363.779C284.84 364.745 284.84 365.7 284.97 366.643L279.221 369.759C279.653 372.417 280.372 375.023 281.365 377.533L287.927 377.43C288.749 379.165 289.73 380.824 290.86 382.386L287.491 387.883C289.242 389.997 291.216 391.924 293.381 393.633L299.012 390.333C300.617 391.43 302.316 392.392 304.089 393.208L303.983 399.613C306.557 400.585 309.231 401.283 311.958 401.695L315.15 396.083C316.116 396.175 317.094 396.221 318.083 396.221C319.073 396.221 320.039 396.221 321.017 396.083L324.209 401.695C326.932 401.281 329.602 400.583 332.172 399.613L332.066 393.208C333.841 392.395 335.539 391.433 337.143 390.333L342.774 393.633C344.936 391.921 346.91 389.994 348.664 387.883L345.283 382.386C346.413 380.824 347.395 379.165 348.217 377.43L354.79 377.533C355.779 375.023 356.494 372.417 356.922 369.759L351.173 366.643C351.256 365.7 351.315 364.745 351.315 363.779ZM318.131 385.767C313.672 385.77 309.314 384.481 305.606 382.065C301.899 379.648 299.008 376.212 297.301 372.192C295.594 368.172 295.147 363.747 296.016 359.479C296.885 355.21 299.032 351.289 302.184 348.212C305.336 345.135 309.353 343.039 313.725 342.191C318.098 341.342 322.63 341.779 326.748 343.445C330.866 345.112 334.386 347.933 336.861 351.553C339.336 355.172 340.656 359.427 340.654 363.779C340.654 369.611 338.281 375.204 334.057 379.327C329.833 383.451 324.104 385.767 318.131 385.767Z" fill="white"/>
<path d="M174.827 194.592C174.827 193.89 174.827 193.2 174.721 192.51L178.903 190.21C178.586 188.277 178.065 186.38 177.348 184.552L172.577 184.633C171.978 183.37 171.26 182.165 170.433 181.033L172.895 177.031C171.632 175.511 170.211 174.123 168.654 172.891L164.555 175.283C163.392 174.483 162.158 173.786 160.868 173.202L160.938 168.602C159.073 167.889 157.134 167.38 155.154 167.083L152.798 171.155C152.091 171.097 151.385 171.063 150.666 171.063C149.948 171.063 149.229 171.063 148.534 171.155L146.178 167.083C144.195 167.38 142.251 167.889 140.382 168.602L140.465 173.202C139.171 173.786 137.933 174.483 136.766 175.283L132.678 172.891C131.117 174.123 129.692 175.511 128.425 177.031L130.887 181.033C130.064 182.168 129.347 183.373 128.744 184.633L124.032 184.552C123.314 186.38 122.793 188.277 122.477 190.21L126.658 192.51C126.658 193.2 126.564 193.89 126.564 194.592C126.564 195.293 126.564 195.983 126.658 196.673L122.512 198.95C122.827 200.884 123.348 202.78 124.067 204.608L128.779 204.528C129.385 205.79 130.102 206.998 130.923 208.139L128.461 212.129C129.727 213.649 131.153 215.037 132.713 216.269L136.801 213.877C137.968 214.677 139.206 215.374 140.5 215.958L140.418 220.616C142.286 221.328 144.23 221.837 146.213 222.134L148.569 218.063C149.264 218.063 149.983 218.155 150.701 218.155C151.42 218.155 152.127 218.155 152.834 218.063L155.19 222.134C157.169 221.837 159.109 221.328 160.974 220.616L160.903 215.958C162.193 215.374 163.427 214.677 164.59 213.877L168.69 216.269C170.247 215.037 171.668 213.649 172.93 212.129L170.433 208.15C171.258 207.012 171.976 205.804 172.577 204.539L177.348 204.619C178.067 202.792 178.588 200.895 178.903 198.961L174.721 196.661C174.78 195.983 174.827 195.293 174.827 194.592ZM150.701 203.872C148.821 203.872 146.983 203.328 145.42 202.308C143.857 201.288 142.638 199.839 141.919 198.143C141.199 196.447 141.011 194.581 141.378 192.781C141.744 190.981 142.65 189.327 143.979 188.029C145.309 186.731 147.003 185.847 148.847 185.489C150.691 185.131 152.602 185.315 154.339 186.017C156.076 186.72 157.561 187.909 158.606 189.436C159.65 190.962 160.208 192.756 160.208 194.592C160.208 197.053 159.206 199.413 157.424 201.154C155.641 202.894 153.223 203.872 150.701 203.872Z" fill="#219EBC"/>
<path opacity="0.6" d="M174.827 194.592C174.827 193.89 174.827 193.2 174.721 192.51L178.903 190.21C178.586 188.277 178.065 186.38 177.348 184.552L172.577 184.633C171.978 183.37 171.26 182.165 170.433 181.033L172.895 177.031C171.632 175.511 170.211 174.123 168.654 172.891L164.555 175.283C163.392 174.483 162.158 173.786 160.868 173.202L160.938 168.602C159.073 167.889 157.134 167.38 155.154 167.083L152.798 171.155C152.091 171.097 151.385 171.063 150.666 171.063C149.948 171.063 149.229 171.063 148.534 171.155L146.178 167.083C144.195 167.38 142.251 167.889 140.382 168.602L140.465 173.202C139.171 173.786 137.933 174.483 136.766 175.283L132.678 172.891C131.117 174.123 129.692 175.511 128.425 177.031L130.887 181.033C130.064 182.168 129.347 183.373 128.744 184.633L124.032 184.552C123.314 186.38 122.793 188.277 122.477 190.21L126.658 192.51C126.658 193.2 126.564 193.89 126.564 194.592C126.564 195.293 126.564 195.983 126.658 196.673L122.512 198.95C122.827 200.884 123.348 202.78 124.067 204.608L128.779 204.528C129.385 205.79 130.102 206.998 130.923 208.139L128.461 212.129C129.727 213.649 131.153 215.037 132.713 216.269L136.801 213.877C137.968 214.677 139.206 215.374 140.5 215.958L140.418 220.616C142.286 221.328 144.23 221.837 146.213 222.134L148.569 218.063C149.264 218.063 149.983 218.155 150.701 218.155C151.42 218.155 152.127 218.155 152.834 218.063L155.19 222.134C157.169 221.837 159.109 221.328 160.974 220.616L160.903 215.958C162.193 215.374 163.427 214.677 164.59 213.877L168.69 216.269C170.247 215.037 171.668 213.649 172.93 212.129L170.433 208.15C171.258 207.012 171.976 205.804 172.577 204.539L177.348 204.619C178.067 202.792 178.588 200.895 178.903 198.961L174.721 196.661C174.78 195.983 174.827 195.293 174.827 194.592ZM150.701 203.872C148.821 203.872 146.983 203.328 145.42 202.308C143.857 201.288 142.638 199.839 141.919 198.143C141.199 196.447 141.011 194.581 141.378 192.781C141.744 190.981 142.65 189.327 143.979 188.029C145.309 186.731 147.003 185.847 148.847 185.489C150.691 185.131 152.602 185.315 154.339 186.017C156.076 186.72 157.561 187.909 158.606 189.436C159.65 190.962 160.208 192.756 160.208 194.592C160.208 197.053 159.206 199.413 157.424 201.154C155.641 202.894 153.223 203.872 150.701 203.872Z" fill="white"/>
<path d="M317.365 123.958H286.737L255.933 468.165H286.561C293.547 468.04 300.245 465.422 305.389 460.805C310.533 456.188 313.766 449.892 314.479 443.106L340.796 149.017C341.154 145.826 340.813 142.597 339.793 139.545C338.773 136.493 337.099 133.688 334.882 131.317C332.666 128.947 329.957 127.064 326.936 125.795C323.916 124.526 320.653 123.9 317.365 123.958Z" fill="#263238"/>
<path d="M280.258 468.165H154.212C150.923 468.227 147.657 467.603 144.634 466.335C141.611 465.068 138.899 463.186 136.679 460.815C134.46 458.443 132.784 455.637 131.763 452.584C130.742 449.53 130.399 446.299 130.758 443.106L157.122 149.017C157.832 142.23 161.065 135.933 166.21 131.315C171.354 126.698 178.053 124.081 185.041 123.958H311.087C314.377 123.895 317.644 124.518 320.669 125.784C323.693 127.051 326.407 128.933 328.627 131.304C330.848 133.676 332.525 136.482 333.547 139.537C334.569 142.591 334.911 145.823 334.552 149.017L308.177 443.106C307.467 449.893 304.233 456.191 299.089 460.808C293.945 465.426 287.245 468.043 280.258 468.165Z" fill="#219EBC"/>
<path d="M310.592 129.709H277.831C276.758 129.727 275.723 130.103 274.898 130.775C274.073 131.446 273.508 132.372 273.296 133.4L273.084 134.401C272.517 136.883 271.113 139.107 269.096 140.717C267.08 142.327 264.568 143.229 261.964 143.279H230.794C228.327 143.325 225.941 142.418 224.156 140.755C222.371 139.092 221.332 136.808 221.264 134.401V133.4C221.239 132.414 220.815 131.477 220.084 130.796C219.353 130.115 218.375 129.744 217.365 129.766H184.557C179.174 129.86 174.012 131.876 170.048 135.434C166.084 138.992 163.594 143.845 163.047 149.075L136.648 443.106C136.371 445.566 136.635 448.054 137.421 450.406C138.207 452.758 139.497 454.92 141.206 456.747C142.914 458.574 145.002 460.024 147.33 461.002C149.658 461.979 152.173 462.461 154.707 462.415H280.753C286.136 462.319 291.296 460.301 295.26 456.744C299.223 453.186 301.714 448.335 302.263 443.106L328.662 149.017C328.939 146.557 328.675 144.067 327.889 141.715C327.102 139.362 325.811 137.2 324.101 135.372C322.391 133.545 320.301 132.095 317.972 131.118C315.642 130.142 313.126 129.661 310.592 129.709Z" fill="#219EBC"/>
<path opacity="0.7" d="M310.592 129.709H277.831C276.758 129.727 275.723 130.103 274.898 130.775C274.073 131.446 273.508 132.372 273.296 133.4L273.084 134.401C272.517 136.883 271.113 139.107 269.096 140.717C267.08 142.327 264.568 143.229 261.964 143.279H230.794C228.327 143.325 225.941 142.418 224.156 140.755C222.371 139.092 221.332 136.808 221.264 134.401V133.4C221.239 132.414 220.815 131.477 220.084 130.796C219.353 130.115 218.375 129.744 217.365 129.766H184.557C179.174 129.86 174.012 131.876 170.048 135.434C166.084 138.992 163.594 143.845 163.047 149.075L136.648 443.106C136.371 445.566 136.635 448.054 137.421 450.406C138.207 452.758 139.497 454.92 141.206 456.747C142.914 458.574 145.002 460.024 147.33 461.002C149.658 461.979 152.173 462.461 154.707 462.415H280.753C286.136 462.319 291.296 460.301 295.26 456.744C299.223 453.186 301.714 448.335 302.263 443.106L328.662 149.017C328.939 146.557 328.675 144.067 327.889 141.715C327.102 139.362 325.811 137.2 324.101 135.372C322.391 133.545 320.301 132.095 317.972 131.118C315.642 130.142 313.126 129.661 310.592 129.709Z" fill="white"/>
<g opacity="0.2">
<path opacity="0.2" d="M239.664 132.963C239.595 133.627 239.278 134.244 238.775 134.695C238.271 135.147 237.615 135.402 236.931 135.413C236.611 135.418 236.293 135.356 235.998 135.232C235.704 135.108 235.441 134.923 235.225 134.691C235.01 134.459 234.848 134.185 234.75 133.887C234.652 133.589 234.621 133.274 234.658 132.963C234.727 132.302 235.042 131.689 235.544 131.239C236.045 130.79 236.698 130.536 237.379 130.525C237.699 130.52 238.016 130.582 238.31 130.705C238.604 130.829 238.867 131.012 239.083 131.242C239.299 131.473 239.463 131.745 239.563 132.042C239.663 132.339 239.698 132.653 239.664 132.963Z" fill="black"/>
<path opacity="0.2" d="M257.629 130.525H249.041C248.36 130.536 247.707 130.79 247.206 131.239C246.704 131.689 246.389 132.302 246.32 132.963C246.285 133.275 246.318 133.59 246.417 133.888C246.516 134.186 246.68 134.46 246.896 134.692C247.112 134.923 247.376 135.108 247.671 135.232C247.966 135.356 248.284 135.418 248.605 135.413H257.193C257.874 135.399 258.528 135.143 259.029 134.691C259.53 134.24 259.845 133.625 259.914 132.963C259.947 132.653 259.913 132.339 259.813 132.042C259.712 131.745 259.549 131.473 259.333 131.242C259.117 131.012 258.853 130.829 258.56 130.705C258.266 130.582 257.948 130.52 257.629 130.525Z" fill="black"/>
</g>
<path d="M177.289 143.175H179.94L180.163 140.587H177.513L177.289 143.175Z" fill="#219EBC"/>
<path d="M182.814 140.588L182.59 143.175H185.241L185.465 140.588L185.7 138H183.05L182.814 140.588Z" fill="#219EBC"/>
<path d="M188.586 135.412L188.351 138L188.115 140.587L187.891 143.175H190.542L190.765 140.587L191.001 138L191.237 135.412H188.586Z" fill="#219EBC"/>
<path d="M302.546 135.585L302.381 137.482H301.085L300.744 141.277H302.039L301.863 143.175H313.525L314.208 135.585H302.546ZM307.258 141.277H303.371L303.712 137.482H307.6L307.258 141.277Z" fill="#219EBC"/>
<g opacity="0.4">
<path opacity="0.4" d="M230.888 143.221L143.881 459.045C147.042 461.27 150.847 462.45 154.743 462.415H161.54L249.477 143.221H230.888Z" fill="white"/>
<path opacity="0.4" d="M310.592 129.708H277.832C276.758 129.727 275.723 130.103 274.898 130.775C274.073 131.446 273.508 132.372 273.296 133.4L273.084 134.4C272.529 136.816 271.182 138.989 269.248 140.589C267.313 142.189 264.896 143.129 262.365 143.267L174.403 462.415H241.49L328.662 145.969C328.381 141.507 326.343 137.323 322.976 134.293C319.608 131.262 315.171 129.62 310.592 129.708Z" fill="white"/>
</g>
<path d="M208.376 219.65H170.021C169.417 219.662 168.818 219.548 168.264 219.315C167.709 219.083 167.212 218.737 166.806 218.301C166.4 217.865 166.094 217.35 165.909 216.789C165.724 216.228 165.664 215.635 165.733 215.05L169.396 174.202C169.521 172.958 170.109 171.802 171.049 170.954C171.99 170.106 173.217 169.625 174.497 169.602H212.865C213.468 169.59 214.066 169.704 214.62 169.937C215.174 170.17 215.67 170.516 216.076 170.952C216.481 171.388 216.786 171.903 216.97 172.464C217.153 173.025 217.212 173.618 217.141 174.202L213.489 215.05C213.36 216.294 212.768 217.449 211.826 218.297C210.884 219.144 209.657 219.626 208.376 219.65Z" fill="white"/>
<path d="M306.127 255.507H222.336C221.732 255.519 221.133 255.405 220.579 255.172C220.024 254.94 219.527 254.594 219.121 254.158C218.715 253.722 218.409 253.207 218.224 252.646C218.039 252.085 217.979 251.492 218.048 250.907L224.927 174.156C225.051 172.912 225.64 171.756 226.58 170.908C227.521 170.059 228.748 169.578 230.028 169.556H313.819C314.422 169.546 315.02 169.661 315.574 169.895C316.127 170.128 316.623 170.474 317.029 170.909C317.435 171.344 317.741 171.859 317.927 172.419C318.113 172.979 318.174 173.571 318.107 174.156L311.228 250.907C311.104 252.151 310.515 253.307 309.575 254.155C308.634 255.004 307.407 255.485 306.127 255.507Z" fill="white"/>
<path d="M299.824 325.761H160.502C159.899 325.771 159.301 325.656 158.748 325.422C158.194 325.189 157.698 324.843 157.292 324.408C156.886 323.972 156.58 323.458 156.395 322.898C156.209 322.338 156.147 321.746 156.214 321.161L161.056 267.111C161.185 265.866 161.777 264.712 162.719 263.864C163.661 263.017 164.888 262.535 166.168 262.511H305.49C306.093 262.5 306.691 262.616 307.245 262.849C307.798 263.082 308.295 263.428 308.7 263.864C309.106 264.299 309.412 264.814 309.598 265.374C309.784 265.934 309.845 266.526 309.778 267.111L304.937 321.161C304.808 322.405 304.216 323.56 303.274 324.407C302.332 325.255 301.105 325.736 299.824 325.761Z" fill="white"/>
<path d="M289.953 435.919H150.631C150.028 435.929 149.43 435.814 148.876 435.58C148.323 435.347 147.826 435.001 147.421 434.566C147.015 434.131 146.709 433.616 146.523 433.056C146.337 432.496 146.276 431.904 146.343 431.319L154.765 337.376C154.89 336.13 155.48 334.972 156.423 334.123C157.366 333.275 158.596 332.795 159.878 332.776H299.212C299.815 332.763 300.413 332.877 300.967 333.11C301.521 333.343 302.018 333.689 302.423 334.125C302.828 334.561 303.133 335.077 303.317 335.637C303.5 336.198 303.559 336.791 303.488 337.376L295.077 431.319C294.947 432.565 294.354 433.722 293.41 434.569C292.465 435.417 291.235 435.897 289.953 435.919Z" fill="white"/>
<path d="M193.357 208.955H155.001C154.398 208.967 153.799 208.853 153.244 208.62C152.69 208.388 152.193 208.042 151.787 207.606C151.381 207.17 151.075 206.655 150.889 206.094C150.704 205.533 150.644 204.94 150.713 204.355L154.377 163.496C154.504 162.251 155.094 161.094 156.037 160.246C156.979 159.398 158.208 158.918 159.489 158.896H197.904C198.507 158.885 199.105 159.001 199.658 159.234C200.212 159.467 200.708 159.813 201.114 160.249C201.52 160.684 201.826 161.199 202.012 161.759C202.198 162.319 202.259 162.911 202.192 163.496L198.528 204.355C198.4 205.61 197.801 206.774 196.846 207.624C195.892 208.473 194.649 208.947 193.357 208.955Z" fill="#219EBC"/>
<path opacity="0.4" d="M193.357 208.955H155.001C154.398 208.967 153.799 208.853 153.244 208.62C152.69 208.388 152.193 208.042 151.787 207.606C151.381 207.17 151.075 206.655 150.889 206.094C150.704 205.533 150.644 204.94 150.713 204.355L154.377 163.496C154.504 162.251 155.094 161.094 156.037 160.246C156.979 159.398 158.208 158.918 159.489 158.896H197.904C198.507 158.885 199.105 159.001 199.658 159.234C200.212 159.467 200.708 159.813 201.114 160.249C201.52 160.684 201.826 161.199 202.012 161.759C202.198 162.319 202.259 162.911 202.192 163.496L198.528 204.355C198.4 205.61 197.801 206.774 196.846 207.624C195.892 208.473 194.649 208.947 193.357 208.955Z" fill="white"/>
<path opacity="0.8" d="M198.599 163.519C198.616 163.373 198.601 163.226 198.555 163.087C198.509 162.948 198.434 162.82 198.333 162.711C198.233 162.603 198.111 162.516 197.974 162.457C197.837 162.398 197.689 162.368 197.539 162.369H159.171C158.853 162.376 158.549 162.497 158.317 162.709C158.084 162.921 157.94 163.209 157.911 163.519L154.247 204.378C154.229 204.524 154.242 204.672 154.287 204.812C154.332 204.952 154.408 205.081 154.508 205.19C154.609 205.299 154.732 205.385 154.87 205.444C155.008 205.502 155.157 205.531 155.308 205.528H193.675C193.993 205.521 194.297 205.4 194.53 205.188C194.762 204.976 194.907 204.688 194.935 204.378L198.599 163.519Z" fill="white"/>
<path d="M183.956 182.206C183.532 186.886 180.611 190.681 175.817 190.681C171.022 190.681 168.749 186.886 169.208 182.206C169.667 177.525 172.542 173.73 177.336 173.73C182.131 173.73 184.369 177.525 183.956 182.206Z" fill="#219EBC"/>
<path d="M192.65 198.617C192.063 196.566 190.794 194.764 189.043 193.494C187.293 192.224 185.159 191.559 182.979 191.602H168.454C166.14 191.641 163.885 192.321 161.952 193.563C160.019 194.805 158.487 196.558 157.534 198.617L154.483 205.172C154.583 205.278 154.705 205.363 154.841 205.421C154.977 205.478 155.124 205.507 155.272 205.505H193.64C193.955 205.5 194.257 205.382 194.488 205.172L192.65 198.617Z" fill="#219EBC"/>
<path d="M269.267 424.419H129.945C129.342 424.429 128.744 424.314 128.191 424.081C127.637 423.847 127.141 423.501 126.735 423.066C126.329 422.631 126.023 422.116 125.837 421.556C125.652 420.996 125.59 420.404 125.657 419.819L134.08 325.876C134.204 324.631 134.792 323.475 135.733 322.627C136.673 321.779 137.9 321.298 139.181 321.276H278.503C279.106 321.265 279.704 321.381 280.257 321.614C280.811 321.847 281.307 322.193 281.713 322.629C282.118 323.064 282.425 323.579 282.61 324.139C282.796 324.698 282.858 325.291 282.791 325.876L274.368 419.819C274.241 421.062 273.652 422.217 272.712 423.065C271.772 423.912 270.547 424.394 269.267 424.419Z" fill="#219EBC"/>
<path opacity="0.4" d="M269.267 424.419H129.945C129.342 424.429 128.744 424.314 128.191 424.081C127.637 423.847 127.141 423.501 126.735 423.066C126.329 422.631 126.023 422.116 125.837 421.556C125.652 420.996 125.59 420.404 125.657 419.819L134.08 325.876C134.204 324.631 134.792 323.475 135.733 322.627C136.673 321.779 137.9 321.298 139.181 321.276H278.503C279.106 321.265 279.704 321.381 280.257 321.614C280.811 321.847 281.307 322.193 281.713 322.629C282.118 323.064 282.425 323.579 282.61 324.139C282.796 324.698 282.858 325.291 282.791 325.876L274.368 419.819C274.241 421.062 273.652 422.217 272.712 423.065C271.772 423.912 270.547 424.394 269.267 424.419Z" fill="white"/>
<path d="M278.196 324.749H138.874C138.555 324.751 138.247 324.87 138.014 325.083C137.78 325.296 137.638 325.587 137.614 325.899L129.191 419.842C129.173 419.988 129.186 420.136 129.231 420.276C129.276 420.416 129.352 420.545 129.452 420.654C129.553 420.763 129.676 420.849 129.814 420.908C129.952 420.966 130.101 420.995 130.251 420.992H269.573C269.891 420.983 270.194 420.861 270.425 420.649C270.657 420.437 270.803 420.151 270.834 419.842L279.257 325.899C279.275 325.753 279.261 325.605 279.216 325.465C279.171 325.325 279.096 325.196 278.995 325.087C278.895 324.978 278.772 324.892 278.634 324.833C278.496 324.775 278.347 324.746 278.196 324.749Z" fill="#263238"/>
<path d="M216.292 385.158C223.891 378.056 224.647 366.787 217.979 359.987C211.312 353.188 199.746 353.433 192.147 360.535C184.548 367.637 183.792 378.906 190.46 385.705C197.127 392.505 208.692 392.259 216.292 385.158Z" fill="#219EBC"/>
<path opacity="0.9" d="M213.76 372.853L198.575 381.938L200.213 363.78L213.76 372.853Z" fill="white"/>
<path opacity="0.8" d="M254.024 407.066H137.249L137.331 406.111H254.106L254.024 407.066Z" fill="white"/>
<path d="M182.072 406.582C182.04 406.934 181.875 407.262 181.609 407.502C181.344 407.742 180.997 407.878 180.635 407.882H136.142C135.973 407.883 135.806 407.85 135.652 407.783C135.499 407.716 135.361 407.617 135.249 407.494C135.138 407.371 135.054 407.226 135.005 407.069C134.956 406.911 134.942 406.746 134.964 406.582C134.998 406.233 135.164 405.908 135.43 405.67C135.695 405.432 136.041 405.298 136.401 405.294H180.894C181.061 405.293 181.227 405.327 181.38 405.393C181.533 405.459 181.67 405.557 181.781 405.679C181.893 405.8 181.976 405.944 182.026 406.1C182.076 406.256 182.092 406.42 182.072 406.582Z" fill="#219EBC"/>
<g opacity="0.8">
<path opacity="0.8" d="M264.944 403.765H266.44L266.334 405.03H267.594L267.783 402.995H265.015L264.944 403.765Z" fill="white"/>
<path opacity="0.8" d="M257.088 405.03L257.205 403.765H258.702L258.772 402.995H256.004L255.815 405.03H257.088Z" fill="white"/>
<path opacity="0.8" d="M258.206 409.412H256.698L256.816 408.147H255.543L255.355 410.182H258.135L258.206 409.412Z" fill="white"/>
<path opacity="0.8" d="M266.051 408.147L265.933 409.412H264.437L264.367 410.182H267.135L267.323 408.147H266.051Z" fill="white"/>
</g>
<g opacity="0.8">
<path opacity="0.9" d="M197.503 416.806L202.027 414.104L197.986 411.39L197.503 416.806Z" fill="white"/>
<path opacity="0.9" d="M202.251 411.678L202.027 414.105L201.815 416.52H202.969L203.405 411.678H202.251Z" fill="white"/>
</g>
<g opacity="0.8">
<path opacity="0.9" d="M207.411 416.519H208.918L209.354 411.677H207.846L207.411 416.519Z" fill="white"/>
<path opacity="0.9" d="M210.509 411.677L210.073 416.519H211.569L212.005 411.677H210.509Z" fill="white"/>
</g>
<path opacity="0.8" d="M193.545 414.104L189.022 416.806L189.505 411.39L193.545 414.104Z" fill="white"/>
<path d="M278.362 313.099H139.004C138.401 313.109 137.803 312.994 137.25 312.76C136.696 312.527 136.2 312.181 135.794 311.746C135.388 311.311 135.082 310.796 134.897 310.236C134.711 309.676 134.649 309.084 134.716 308.499L139.558 254.449C139.687 253.205 140.279 252.05 141.221 251.203C142.162 250.355 143.39 249.874 144.67 249.849H284.028C284.631 249.837 285.23 249.951 285.785 250.184C286.339 250.416 286.836 250.762 287.242 251.198C287.649 251.634 287.954 252.149 288.14 252.71C288.325 253.271 288.385 253.864 288.316 254.449L283.474 308.499C283.345 309.743 282.753 310.898 281.812 311.746C280.87 312.593 279.642 313.074 278.362 313.099Z" fill="#219EBC"/>
<path opacity="0.4" d="M278.362 313.099H139.004C138.401 313.109 137.803 312.994 137.25 312.76C136.696 312.527 136.2 312.181 135.794 311.746C135.388 311.311 135.082 310.796 134.897 310.236C134.711 309.676 134.649 309.084 134.716 308.499L139.558 254.449C139.687 253.205 140.279 252.05 141.221 251.203C142.162 250.355 143.39 249.874 144.67 249.849H284.028C284.631 249.837 285.23 249.951 285.785 250.184C286.339 250.416 286.836 250.762 287.242 251.198C287.649 251.634 287.954 252.149 288.14 252.71C288.325 253.271 288.385 253.864 288.316 254.449L283.474 308.499C283.345 309.743 282.753 310.898 281.812 311.746C280.87 312.593 279.642 313.074 278.362 313.099Z" fill="white"/>
<path opacity="0.3" d="M283.769 252.77H144.447C143.97 252.776 143.512 252.953 143.161 253.266C142.809 253.58 142.587 254.009 142.538 254.472L137.697 308.522C137.673 308.74 137.698 308.96 137.768 309.168C137.838 309.376 137.952 309.568 138.104 309.73C138.255 309.891 138.44 310.02 138.646 310.107C138.852 310.194 139.074 310.238 139.299 310.235H278.621C279.098 310.224 279.554 310.044 279.905 309.729C280.256 309.414 280.478 308.985 280.529 308.522L285.371 254.472C285.394 254.254 285.37 254.035 285.3 253.827C285.229 253.619 285.115 253.429 284.963 253.268C284.812 253.107 284.627 252.979 284.421 252.893C284.215 252.807 283.992 252.765 283.769 252.77Z" fill="white"/>
<path opacity="0.4" d="M172.907 281.497H240.053L236.755 265.696L232.337 252.77H164.59L172.907 281.497Z" fill="white"/>
<path opacity="0.4" d="M172.907 281.497L140.017 282.647L137.661 308.511C137.638 308.728 137.662 308.949 137.732 309.157C137.802 309.365 137.917 309.556 138.068 309.718C138.219 309.88 138.404 310.009 138.61 310.096C138.816 310.183 139.039 310.227 139.263 310.224H181.247L172.907 281.497Z" fill="white"/>
<path d="M281.283 300.012L281.836 293.86L243.386 278.956L239.664 268.422L251.456 252.77H245.837L238.144 262.982L235.482 252.77H230.452L234.375 267.985L238.144 278.622H174.532L167.57 252.77H162.576L169.538 278.622H140.382L139.864 284.372H171.093L178.055 310.224H183.037L176.075 284.372H211.027L229.345 310.224H235.317L216.999 284.372H240.913L281.283 300.012Z" fill="white"/>
<path opacity="0.2" d="M214.355 276.119C218.422 276.102 221.715 275.383 221.711 274.512C221.707 273.642 218.408 272.951 214.341 272.968C210.275 272.986 206.982 273.705 206.986 274.575C206.99 275.445 210.289 276.137 214.355 276.119Z" fill="black"/>
<path d="M216.01 256.22C214.008 256.265 212.092 257.019 210.618 258.341C209.144 259.664 208.213 261.464 207.999 263.408C207.646 267.375 214.313 275.195 214.313 275.195C214.313 275.195 222.371 267.375 222.724 263.408C222.827 262.493 222.728 261.568 222.436 260.693C222.143 259.818 221.664 259.014 221.029 258.335C220.394 257.655 219.618 257.115 218.752 256.75C217.887 256.386 216.952 256.205 216.01 256.22ZM215.067 266.685C214.638 266.693 214.211 266.611 213.816 266.444C213.421 266.278 213.067 266.032 212.777 265.722C212.488 265.412 212.269 265.045 212.136 264.646C212.002 264.247 211.958 263.825 212.005 263.408C212.099 262.521 212.523 261.698 213.195 261.094C213.868 260.491 214.743 260.148 215.656 260.13C216.086 260.123 216.513 260.205 216.908 260.371C217.303 260.537 217.657 260.783 217.946 261.093C218.236 261.403 218.455 261.77 218.588 262.169C218.721 262.568 218.766 262.99 218.719 263.408C218.63 264.297 218.208 265.122 217.534 265.727C216.86 266.331 215.982 266.672 215.067 266.685Z" fill="#219EBC"/>
<path d="M395.172 438.138L393.323 458.792H383.734L382.744 438.138H395.172Z" fill="#B97964"/>
<path d="M379.422 458.286C378.372 458.383 377.323 458.096 376.477 457.481C376.371 457.333 376.314 457.156 376.314 456.975C376.314 456.794 376.371 456.618 376.477 456.469C376.56 456.336 376.669 456.22 376.798 456.129C376.928 456.038 377.075 455.974 377.231 455.94C378.916 455.515 382.391 457.539 382.544 457.619C382.586 457.647 382.619 457.685 382.64 457.729C382.66 457.774 382.668 457.824 382.662 457.872C382.648 457.918 382.622 457.959 382.587 457.991C382.552 458.023 382.509 458.046 382.461 458.056C381.457 458.217 380.44 458.294 379.422 458.286ZM377.855 456.343C377.704 456.338 377.553 456.358 377.408 456.4C377.308 456.413 377.213 456.447 377.13 456.501C377.046 456.555 376.976 456.627 376.925 456.711C376.748 456.998 376.807 457.136 376.925 457.217C377.372 457.872 379.917 457.93 381.79 457.734C380.583 457.027 379.247 456.554 377.855 456.343Z" fill="#219EBC"/>
<path d="M382.473 458.056H382.367C381.189 457.516 378.833 455.342 379.033 454.238C379.033 453.974 379.269 453.652 379.929 453.606C380.166 453.583 380.405 453.608 380.632 453.68C380.859 453.751 381.069 453.867 381.248 454.02C382.509 455.066 382.732 457.723 382.744 457.849C382.748 457.89 382.74 457.931 382.722 457.968C382.703 458.004 382.674 458.035 382.638 458.056C382.584 458.073 382.527 458.073 382.473 458.056ZM380.117 454.032H379.976C379.552 454.032 379.516 454.227 379.505 454.285C379.434 454.951 380.989 456.642 382.214 457.389C382.119 456.272 381.67 455.211 380.93 454.354C380.71 454.152 380.419 454.041 380.117 454.043V454.032Z" fill="#219EBC"/>
<path d="M383.557 456.7L394.536 456.884C394.737 456.885 394.932 456.955 395.086 457.081C395.241 457.207 395.346 457.381 395.384 457.574L397.222 466.325C397.259 466.512 397.259 466.705 397.22 466.892C397.181 467.079 397.104 467.257 396.995 467.415C396.886 467.573 396.745 467.709 396.582 467.814C396.419 467.919 396.236 467.991 396.044 468.027C395.938 468.038 395.831 468.038 395.726 468.027C391.779 467.901 388.257 467.625 383.333 467.556C377.514 467.464 378.986 468.165 372.142 468.142C368.019 468.142 367.348 463.542 369.103 463.347C377.113 462.496 377.985 460.161 381.118 457.413C381.812 456.887 382.682 456.633 383.557 456.7Z" fill="#263238"/>
<path d="M366.358 258.037L382.061 445.809H395.136C395.136 445.809 402.758 393.76 397.492 361.031C396.945 357.56 396.874 354.033 397.28 350.543C398.906 336.444 402.888 300.288 402.358 288.063C402.358 288.063 409.013 273.366 403.724 252.931H366.358V258.037Z" fill="#263238"/>
<path d="M397.033 442.29L396.491 445.809L397.681 448.684H381.107L381.543 445.809L380.129 442.29H397.033Z" fill="#263238"/>
<path opacity="0.3" d="M397.033 442.29L396.491 445.809L397.681 448.684H381.107L381.543 445.809L380.129 442.29H397.033Z" fill="white"/>
<path opacity="0.5" d="M396.691 275.655L403.571 284.659C403.254 285.833 402.861 286.985 402.393 288.109C402.723 295.757 401.58 309.591 400.367 321.551C387.02 291.007 390.825 279.151 390.825 279.151L396.691 275.655Z" fill="black"/>
<path d="M328.061 185.035L323.42 177.376L326.306 172.5C326.491 172.183 326.602 171.83 326.633 171.467C326.663 171.103 326.612 170.738 326.483 170.395L326.259 169.843C326.082 169.392 325.771 169.002 325.366 168.724C324.961 168.445 324.481 168.291 323.985 168.279L319.438 168.153C318.977 168.141 318.522 168.254 318.123 168.479C317.724 168.705 317.396 169.034 317.177 169.429L316.246 171.074C316.024 171.47 315.901 171.912 315.887 172.364C315.872 172.815 315.967 173.264 316.164 173.673L318.119 177.801L321.747 187.3L328.061 185.035Z" fill="#B97964"/>
<path d="M364.992 183.689L338.498 202.515L326.047 179.779L318.979 182.769C318.979 182.769 329.876 217.269 336.213 215.832C342.551 214.394 360.468 205.85 366.252 199.881C369.185 196.903 371.412 191.417 368.514 184.632C368.372 184.32 368.162 184.043 367.897 183.82C367.632 183.597 367.319 183.434 366.982 183.344C366.645 183.254 366.291 183.238 365.947 183.298C365.603 183.357 365.276 183.491 364.992 183.689Z" fill="#219EBC"/>
<path d="M374.898 138.874C374.898 138.874 365.533 141.266 369.868 152.283C369.868 152.283 374.521 151.133 375.287 148.143C376.053 145.153 376.76 141.071 376.76 141.071L374.898 138.874Z" fill="#263238"/>
<path opacity="0.3" d="M374.898 138.874C374.898 138.874 365.533 141.266 369.868 152.283C369.868 152.283 374.521 151.133 375.287 148.143C376.053 145.153 376.76 141.071 376.76 141.071L374.898 138.874Z" fill="black"/>
<path d="M396.998 182.597L379.905 182.056L372.837 183.045L371.883 195.626L385.654 200.1L400.343 197.236L401.109 185.115L400.061 182.7L396.998 182.597Z" fill="#B97964"/>
<path d="M442.269 437.609L448.594 458.792H456.829L455.168 436.977L442.269 437.609Z" fill="#B97964"/>
<path d="M442.928 458.286C441.679 458.286 440.407 458.022 440.03 457.481C439.938 457.324 439.897 457.142 439.914 456.961C439.931 456.78 440.004 456.608 440.125 456.469C440.308 456.205 440.585 456.017 440.902 455.94C442.622 455.515 445.979 457.539 446.132 457.619C446.173 457.646 446.204 457.686 446.221 457.731C446.238 457.776 446.24 457.826 446.227 457.872C446.213 457.918 446.187 457.959 446.152 457.991C446.117 458.023 446.073 458.046 446.026 458.056C445.002 458.219 443.966 458.296 442.928 458.286ZM441.467 456.343C441.312 456.339 441.157 456.359 441.008 456.4C440.907 456.414 440.811 456.448 440.725 456.502C440.64 456.556 440.567 456.627 440.513 456.711C440.325 456.998 440.372 457.136 440.431 457.217C440.855 457.872 443.388 457.93 445.272 457.734C444.104 457.026 442.802 456.553 441.444 456.343H441.467Z" fill="#219EBC"/>
<path d="M445.967 458.057H445.861C444.683 457.516 442.433 455.343 442.728 454.239C442.728 453.974 442.999 453.652 443.659 453.606C443.892 453.582 444.129 453.606 444.352 453.677C444.575 453.749 444.781 453.866 444.954 454.02C446.132 455.067 446.25 457.723 446.25 457.85C446.249 457.891 446.238 457.931 446.218 457.967C446.197 458.003 446.168 458.034 446.132 458.057C446.079 458.073 446.021 458.073 445.967 458.057ZM443.788 454.032H443.659C443.223 454.032 443.187 454.227 443.164 454.285C443.058 454.952 444.519 456.642 445.708 457.39C445.678 456.287 445.286 455.223 444.589 454.354C444.372 454.155 444.086 454.044 443.788 454.043V454.032Z" fill="#219EBC"/>
<path d="M447.121 456.7L458.089 456.884C458.288 456.884 458.48 456.954 458.631 457.08C458.782 457.207 458.882 457.382 458.913 457.574L460.268 466.325C460.323 466.701 460.233 467.083 460.015 467.398C459.797 467.712 459.468 467.937 459.09 468.027C458.988 468.039 458.885 468.039 458.784 468.027C454.826 467.901 451.327 467.625 446.403 467.556C440.595 467.464 442.021 468.165 435.188 468.142C431.065 468.142 430.641 463.542 432.396 463.347C440.454 462.496 441.455 460.161 444.73 457.413C445.42 456.915 446.264 456.663 447.121 456.7Z" fill="#263238"/>
<path d="M381.201 252.931L443.458 445.809H456.593C456.593 445.809 450.314 383.801 438.923 359.559C437.52 356.562 436.628 353.361 436.284 350.083C435.106 338.18 431.949 310.028 428.403 294.526C427.956 292.571 427.684 290.582 427.59 288.581C427.284 281.934 425.588 265.351 416.729 252.931H381.201Z" fill="#263238"/>
<path d="M458.914 442.29L458.183 445.809L459.22 448.684H442.645L441.927 445.809L440.702 442.29H458.914Z" fill="#263238"/>
<path opacity="0.3" d="M458.914 442.29L458.183 445.809L459.22 448.684H442.645L441.927 445.809L440.702 442.29H458.914Z" fill="white"/>
<path d="M399.142 184.678C399.142 184.678 393.664 192.843 384.629 192.441C376.076 192.061 374.604 183.724 374.604 183.724L373.52 196.466L372.448 227.32L373.815 240.407L373.72 254.828C381.764 255.471 389.852 255.344 397.869 254.449C397.869 254.449 399.436 201.549 399.142 201.836C398.847 202.124 401.698 192.636 401.698 192.636V188.795L399.142 184.678Z" fill="#219EBC"/>
<path opacity="0.6" d="M399.142 184.678C399.142 184.678 393.664 192.843 384.629 192.441C376.076 192.061 374.604 183.724 374.604 183.724L373.52 196.466L372.448 227.32L373.815 240.407L373.72 254.828C381.764 255.471 389.852 255.344 397.869 254.449C397.869 254.449 399.436 201.549 399.142 201.836C398.847 202.124 401.698 192.636 401.698 192.636V188.795L399.142 184.678Z" fill="white"/>
<path d="M390.436 181.619C390.436 181.619 418.708 179.917 419.886 188.243C421.064 196.569 412.818 213.624 414.185 225.308C415.551 236.992 422.242 254.529 422.242 254.529C422.242 254.529 400.838 268.433 393.381 263.833C385.924 259.233 387.903 206.528 387.903 206.528C387.903 206.528 403.783 184.483 394.854 183.333C385.924 182.183 375.711 181.263 376.489 188.243C377.365 194.21 378.588 200.123 380.152 205.953C380.152 205.953 379.492 264.419 373.155 263.649C366.817 262.878 363.613 256.174 363.613 256.174C364.969 249.071 364.969 241.784 363.613 234.68C361.375 222.628 357.275 213.152 359.502 203.63C361.728 194.108 363.613 181.941 368.325 181.78C372.342 181.504 390.436 181.619 390.436 181.619Z" fill="#219EBC"/>
<path opacity="0.2" d="M390.436 181.619C390.436 181.619 418.708 179.917 419.886 188.243C421.064 196.569 412.818 213.624 414.185 225.308C415.551 236.992 422.242 254.529 422.242 254.529C422.242 254.529 400.838 268.433 393.381 263.833C385.924 259.233 387.903 206.528 387.903 206.528C387.903 206.528 403.783 184.483 394.854 183.333C385.924 182.183 375.711 181.263 376.489 188.243C377.365 194.21 378.588 200.123 380.152 205.953C380.152 205.953 379.492 264.419 373.155 263.649C366.817 262.878 363.613 256.174 363.613 256.174C364.969 249.071 364.969 241.784 363.613 234.68C361.375 222.628 357.275 213.152 359.502 203.63C361.728 194.108 363.613 181.941 368.325 181.78C372.342 181.504 390.436 181.619 390.436 181.619Z" fill="black"/>
<path d="M378.491 181.574C384.381 181.574 390.436 181.574 390.436 181.574C390.436 181.574 394.053 181.355 398.741 181.458C400.602 182.712 403.076 185.599 401.097 191.728L396.986 193.303L397.728 197.236C397.728 197.236 393.016 204.527 387.821 207.287C387.821 206.804 387.821 206.528 387.821 206.528C387.821 206.528 403.7 184.483 394.771 183.333C385.842 182.183 375.629 181.263 376.406 188.244C377.283 194.21 378.506 200.123 380.07 205.953V206.275C377.549 204.09 375.358 200.203 373.85 195.603L375.523 191.072L371.824 189.083C372.135 187.359 372.92 185.751 374.094 184.428C375.268 183.106 376.788 182.119 378.491 181.574Z" fill="#219EBC"/>
<path opacity="0.2" d="M378.491 181.574C384.381 181.574 390.436 181.574 390.436 181.574C390.436 181.574 394.053 181.355 398.741 181.458C400.602 182.712 403.076 185.599 401.097 191.728L396.986 193.303L397.728 197.236C397.728 197.236 393.016 204.527 387.821 207.287C387.821 206.804 387.821 206.528 387.821 206.528C387.821 206.528 403.7 184.483 394.771 183.333C385.842 182.183 375.629 181.263 376.406 188.244C377.283 194.21 378.506 200.123 380.07 205.953V206.275C377.549 204.09 375.358 200.203 373.85 195.603L375.523 191.072L371.824 189.083C372.135 187.359 372.92 185.751 374.094 184.428C375.268 183.106 376.788 182.119 378.491 181.574Z" fill="white"/>
<path d="M380.117 190.9C376.347 187.024 378.668 184.23 378.668 184.23C385.383 181.999 384.77 177.077 383.227 172.511L394.053 161.724C393.405 167.474 393.169 180.676 397.021 185.276V186.3C393.536 187.629 390.137 189.166 386.843 190.9H380.117Z" fill="#B97964"/>
<path opacity="0.1" d="M383.227 172.5L391.826 163.932L393.817 164.634C393.747 165.669 393.711 166.796 393.688 167.98C392.604 170.154 389.989 173.213 383.875 174.754C383.698 173.983 383.474 173.224 383.227 172.5Z" fill="black"/>
<path d="M399.566 152.179C396.939 161.954 396.032 166.14 389.918 170.234C380.683 176.387 368.973 171.12 368.538 160.781C368.149 151.478 372.484 137.068 383.192 135.044C385.549 134.592 387.985 134.734 390.271 135.456C392.556 136.178 394.616 137.457 396.254 139.172C397.893 140.887 399.057 142.981 399.637 145.257C400.216 147.533 400.192 149.915 399.566 152.179Z" fill="#B97964"/>
<path d="M375.782 154.698C374.679 156.4 373.344 157.948 371.812 159.298C372.163 159.683 372.599 159.986 373.086 160.185C373.573 160.384 374.1 160.474 374.627 160.448L375.782 154.698Z" fill="#A24E3F"/>
<path d="M386.454 151.098C386.525 151.095 386.593 151.075 386.653 151.039C386.712 151.003 386.762 150.952 386.796 150.892C386.83 150.833 386.848 150.765 386.848 150.696C386.848 150.628 386.83 150.56 386.796 150.5C386.409 149.857 385.87 149.313 385.225 148.913C384.58 148.513 383.846 148.269 383.085 148.2C382.977 148.2 382.872 148.241 382.794 148.313C382.715 148.386 382.667 148.486 382.661 148.591C382.658 148.696 382.697 148.798 382.769 148.876C382.842 148.953 382.943 149 383.05 149.005C383.682 149.072 384.289 149.286 384.82 149.628C385.35 149.97 385.79 150.431 386.101 150.972C386.145 151.019 386.201 151.055 386.262 151.077C386.324 151.099 386.39 151.106 386.454 151.098Z" fill="#263238"/>
<path d="M369.892 148.143C369.958 148.159 370.027 148.159 370.092 148.143C370.635 147.827 371.247 147.641 371.878 147.601C372.509 147.561 373.14 147.668 373.721 147.913C373.816 147.962 373.928 147.973 374.031 147.943C374.135 147.913 374.222 147.844 374.274 147.752C374.32 147.655 374.326 147.545 374.291 147.445C374.256 147.344 374.182 147.261 374.086 147.211C373.383 146.906 372.615 146.769 371.847 146.811C371.079 146.853 370.332 147.073 369.668 147.453C369.572 147.502 369.499 147.586 369.466 147.687C369.433 147.789 369.442 147.899 369.492 147.993C369.528 148.062 369.584 148.12 369.653 148.159C369.722 148.197 369.801 148.216 369.88 148.212L369.892 148.143Z" fill="#263238"/>
<path d="M378.821 163.07C378.34 163.071 377.859 163.033 377.384 162.955C377.32 162.941 377.263 162.903 377.226 162.85C377.188 162.796 377.173 162.731 377.184 162.667C377.188 162.635 377.199 162.605 377.216 162.577C377.232 162.549 377.254 162.525 377.281 162.506C377.307 162.486 377.337 162.472 377.369 162.465C377.401 162.457 377.434 162.455 377.467 162.46C378.509 162.654 379.583 162.61 380.605 162.331C381.627 162.051 382.569 161.545 383.357 160.85C383.405 160.815 383.464 160.797 383.524 160.8C383.584 160.803 383.641 160.826 383.686 160.865C383.73 160.905 383.76 160.958 383.768 161.016C383.777 161.074 383.765 161.133 383.734 161.184C382.407 162.408 380.647 163.084 378.821 163.07Z" fill="#263238"/>
<path d="M396.197 159.85C394.985 158.508 394.087 156.926 393.562 155.213C393.037 153.5 392.899 151.696 393.157 149.925C393.157 149.925 389.129 145.9 389.329 141.588C389.329 141.588 388.151 145.038 389.329 147.476C389.329 147.476 378.88 146.728 379.127 141.588C379.127 141.588 378.444 144.175 380.011 145.521C380.011 145.521 370.728 145.9 371.977 141.208C373.226 136.516 380.517 134.205 380.517 134.205C380.517 134.205 387.444 128.455 397.009 138.621C397.009 138.621 408.295 145.521 400.296 157.021L396.197 159.85Z" fill="#263238"/>
<path d="M400.379 160.46C399.919 161.316 399.289 162.075 398.527 162.693C397.765 163.311 396.885 163.775 395.938 164.059C393.405 164.807 392.086 162.61 392.745 160.241C393.334 158.114 395.372 155.158 397.952 155.446C398.511 155.521 399.041 155.731 399.496 156.057C399.95 156.383 400.314 156.814 400.555 157.311C400.796 157.809 400.906 158.358 400.875 158.907C400.844 159.457 400.674 159.99 400.379 160.46Z" fill="#B97964"/>
<path d="M383.298 153.307C383.215 154.146 382.685 154.779 382.12 154.733C381.554 154.687 381.178 153.951 381.272 153.1C381.366 152.249 381.896 151.616 382.45 151.674C383.003 151.731 383.392 152.456 383.298 153.307Z" fill="#2E353A"/>
<path d="M373.52 152.306C373.438 153.146 372.908 153.778 372.342 153.732C371.777 153.686 371.388 152.95 371.482 152.099C371.577 151.248 372.107 150.616 372.66 150.673C373.214 150.731 373.626 151.455 373.52 152.306Z" fill="#2E353A"/>
<path d="M372.908 150.742L370.893 149.948C370.893 149.948 371.788 151.639 372.908 150.742Z" fill="#2E353A"/>
<path d="M382.685 151.8L380.671 151.006C380.671 151.006 381.578 152.639 382.685 151.8Z" fill="#2E353A"/>
<path d="M395.325 168.636C395.974 168.635 396.609 168.45 397.153 168.104C397.696 167.757 398.124 167.263 398.385 166.683C398.646 166.103 398.729 165.461 398.623 164.836C398.516 164.21 398.226 163.629 397.787 163.162L397.351 163.542C397.781 163.995 398.039 164.579 398.08 165.196C398.121 165.812 397.943 166.424 397.576 166.928C397.21 167.432 396.677 167.797 396.067 167.963C395.457 168.128 394.807 168.084 394.227 167.837C393.647 167.59 393.171 167.155 392.881 166.606C392.59 166.057 392.501 165.427 392.63 164.822C392.759 164.217 393.097 163.674 393.588 163.284C394.079 162.893 394.692 162.68 395.325 162.679C395.731 162.665 396.134 162.744 396.503 162.909L396.751 162.38C396.319 162.197 395.854 162.103 395.384 162.104C394.497 162.104 393.646 162.448 393.018 163.061C392.391 163.673 392.039 164.504 392.039 165.37C392.039 166.236 392.391 167.067 393.018 167.679C393.646 168.292 394.497 168.636 395.384 168.636H395.325Z" fill="#219EBC"/>
<g opacity="0.6">
<path opacity="0.6" d="M395.325 168.636C395.974 168.635 396.609 168.45 397.153 168.104C397.696 167.757 398.124 167.263 398.385 166.683C398.646 166.103 398.729 165.461 398.623 164.836C398.516 164.21 398.226 163.629 397.787 163.162L397.351 163.542C397.781 163.995 398.039 164.579 398.08 165.196C398.121 165.812 397.943 166.424 397.576 166.928C397.21 167.432 396.677 167.797 396.067 167.963C395.457 168.128 394.807 168.084 394.227 167.837C393.647 167.59 393.171 167.155 392.881 166.606C392.59 166.057 392.501 165.427 392.63 164.822C392.759 164.217 393.097 163.674 393.588 163.284C394.079 162.893 394.692 162.68 395.325 162.679C395.731 162.665 396.134 162.744 396.503 162.909L396.751 162.38C396.319 162.197 395.854 162.103 395.384 162.104C394.497 162.104 393.646 162.448 393.018 163.061C392.391 163.673 392.039 164.504 392.039 165.37C392.039 166.236 392.391 167.067 393.018 167.679C393.646 168.292 394.497 168.636 395.384 168.636H395.325Z" fill="white"/>
</g>
<path d="M359.29 240.407L349.725 245.571L339.606 244.352C339.234 244.302 338.856 244.388 338.545 244.593L334.741 247.066C334.539 247.192 334.37 247.361 334.246 247.56L333.15 249.389C333.02 249.609 332.947 249.858 332.94 250.113C332.932 250.368 332.989 250.62 333.106 250.848C333.222 251.076 333.395 251.272 333.608 251.419C333.822 251.565 334.069 251.658 334.328 251.689C337.194 252.297 340.098 252.712 343.022 252.931C345.577 252.577 348.104 252.051 350.585 251.355L364.002 246.663L359.29 240.407Z" fill="#B97964"/>
<path d="M416.423 185.943C410.933 182.493 404.431 190.543 399.094 201.744L389.058 222.87L351.433 244.007L354.012 250.746C354.012 250.746 390.212 240.833 399.047 230.195C407.882 219.558 423.938 190.716 416.423 185.943Z" fill="#219EBC"/>
<path d="M259.502 247.917H338.086C339.646 247.886 341.14 247.299 342.287 246.268C343.435 245.237 344.157 243.831 344.318 242.316L350.043 178.457C350.121 177.745 350.044 177.024 349.816 176.343C349.588 175.662 349.214 175.036 348.719 174.507C348.225 173.977 347.621 173.557 346.947 173.272C346.274 172.988 345.546 172.846 344.812 172.857H266.228C264.667 172.883 263.17 173.468 262.021 174.5C260.873 175.532 260.152 176.94 259.996 178.457L254.271 242.316C254.191 243.029 254.267 243.75 254.494 244.432C254.722 245.114 255.095 245.741 255.59 246.271C256.085 246.8 256.69 247.221 257.364 247.505C258.039 247.789 258.767 247.929 259.502 247.917Z" fill="#219EBC"/>
<g opacity="0.4">
<path opacity="0.4" d="M259.502 247.917H338.086C339.646 247.886 341.14 247.299 342.287 246.268C343.435 245.237 344.157 243.831 344.318 242.316L350.043 178.457C350.121 177.745 350.044 177.024 349.816 176.343C349.588 175.662 349.214 175.036 348.719 174.507C348.225 173.977 347.621 173.557 346.947 173.272C346.274 172.988 345.546 172.846 344.812 172.857H266.228C264.667 172.883 263.17 173.468 262.021 174.5C260.873 175.532 260.152 176.94 259.996 178.457L254.271 242.316C254.191 243.029 254.267 243.75 254.494 244.432C254.722 245.114 255.095 245.741 255.59 246.271C256.085 246.8 256.69 247.221 257.364 247.505C258.039 247.789 258.767 247.929 259.502 247.917Z" fill="white"/>
</g>
<path d="M265.781 176.226C265.191 176.224 264.621 176.437 264.185 176.825C263.749 177.212 263.478 177.745 263.425 178.319L257.676 242.454C257.648 242.72 257.677 242.989 257.763 243.243C257.849 243.498 257.988 243.731 258.173 243.929C258.358 244.126 258.583 244.284 258.834 244.39C259.086 244.497 259.357 244.55 259.631 244.547H338.557C339.147 244.55 339.716 244.336 340.153 243.948C340.589 243.561 340.86 243.028 340.913 242.454L346.662 178.319C346.692 178.052 346.664 177.783 346.579 177.528C346.494 177.273 346.354 177.039 346.169 176.841C345.984 176.643 345.758 176.485 345.506 176.379C345.254 176.273 344.981 176.221 344.707 176.226H265.781Z" fill="#219EBC"/>
<path opacity="0.8" d="M265.781 176.226C265.191 176.224 264.621 176.437 264.185 176.825C263.749 177.212 263.478 177.745 263.425 178.319L257.676 242.454C257.648 242.72 257.677 242.989 257.763 243.243C257.849 243.498 257.988 243.731 258.173 243.929C258.358 244.126 258.583 244.284 258.834 244.39C259.086 244.497 259.357 244.55 259.631 244.547H338.557C339.147 244.55 339.716 244.336 340.153 243.948C340.589 243.561 340.86 243.028 340.913 242.454L346.662 178.319C346.692 178.052 346.664 177.783 346.579 177.528C346.494 177.273 346.354 177.039 346.169 176.841C345.984 176.643 345.758 176.485 345.506 176.379C345.254 176.273 344.981 176.221 344.707 176.226H265.781Z" fill="white"/>
<path d="M282.484 208.288L257.841 240.959L257.699 242.454C257.671 242.72 257.701 242.989 257.786 243.243C257.872 243.497 258.012 243.731 258.197 243.929C258.381 244.126 258.607 244.284 258.858 244.39C259.109 244.497 259.381 244.55 259.655 244.547H303.335L282.484 208.288Z" fill="#219EBC"/>
<path d="M341.478 235.75L322.489 197.8L290.683 244.605H338.51C339.1 244.607 339.669 244.393 340.105 244.006C340.541 243.618 340.813 243.085 340.866 242.512L341.478 235.75Z" fill="#219EBC"/>
<path opacity="0.2" d="M341.478 235.75L322.489 197.8L290.683 244.605H338.51C339.1 244.607 339.669 244.393 340.105 244.006C340.541 243.618 340.813 243.085 340.866 242.512L341.478 235.75Z" fill="white"/>
<path d="M309.401 192.268C309.246 193.752 308.539 195.128 307.415 196.136C306.29 197.145 304.826 197.716 303.299 197.742C302.581 197.755 301.868 197.618 301.209 197.34C300.549 197.063 299.957 196.652 299.472 196.134C298.988 195.616 298.621 195.004 298.398 194.338C298.174 193.671 298.098 192.966 298.175 192.268C298.331 190.785 299.037 189.409 300.162 188.401C301.286 187.392 302.75 186.82 304.277 186.794C304.995 186.782 305.708 186.919 306.368 187.197C307.028 187.474 307.62 187.885 308.104 188.403C308.589 188.921 308.955 189.533 309.179 190.199C309.403 190.866 309.478 191.571 309.401 192.268Z" fill="#219EBC"/>
</svg>
