<svg width="506" height="109" viewBox="0 0 506 109" fill="none" xmlns="http://www.w3.org/2000/svg">
<rect width="506" height="109" rx="11" fill="#023047"/>
<path d="M32.504 61.968V70H25.56V45.584H34.168C37.496 45.584 40.0133 46.2453 41.72 47.568C43.4267 48.8907 44.28 50.8533 44.28 53.456C44.28 54.9067 43.9813 56.208 43.384 57.36C42.7867 58.512 41.944 59.4187 40.856 60.08L45.752 70H37.976L34.584 61.904C34.3707 61.9253 34.136 61.9467 33.88 61.968C33.624 61.968 33.3893 61.968 33.176 61.968H32.504ZM34.168 51.024H32.504V56.528H33.816C34.968 56.528 35.8427 56.2933 36.44 55.824C37.0373 55.3333 37.336 54.6187 37.336 53.68C37.336 52.8267 37.0587 52.176 36.504 51.728C35.9493 51.2587 35.1707 51.024 34.168 51.024ZM62.4853 69.328C61.5253 69.6693 60.5439 69.9253 59.5413 70.096C58.5599 70.2667 57.5359 70.352 56.4693 70.352C53.5893 70.352 51.2959 69.52 49.5893 67.856C47.9039 66.192 47.0613 63.92 47.0613 61.04C47.0613 58.3733 47.8399 56.24 49.3973 54.64C50.9759 53.0187 53.0986 52.208 55.7653 52.208C58.1333 52.208 59.9679 52.848 61.2693 54.128C62.5706 55.3867 63.2213 57.1573 63.2213 59.44C63.2213 60.0373 63.1786 60.6347 63.0933 61.232C63.0079 61.8293 62.8906 62.3733 62.7413 62.864H53.1093C53.3013 63.8027 53.7066 64.4853 54.3253 64.912C54.9653 65.3173 55.9039 65.52 57.1413 65.52C57.8666 65.52 58.6026 65.456 59.3493 65.328C60.0959 65.2 61.1413 64.9227 62.4853 64.496V69.328ZM58.0053 58.512C58.0053 57.7653 57.7919 57.1893 57.3653 56.784C56.9599 56.3573 56.3839 56.144 55.6373 56.144C54.8053 56.144 54.1546 56.4107 53.6853 56.944C53.2373 57.4773 53.0026 58.256 52.9813 59.28H57.9413C57.9626 59.2373 57.9733 59.1733 57.9733 59.088C57.9946 58.9813 58.0053 58.7893 58.0053 58.512ZM73.46 57.936V70H67.06V52.56H73.46V53.68L73.588 53.776C74.2493 53.264 74.9747 52.88 75.764 52.624C76.5533 52.3467 77.396 52.208 78.292 52.208C80.1267 52.208 81.5133 52.72 82.452 53.744C83.412 54.768 83.892 56.272 83.892 58.256V70H77.492V59.568C77.492 58.672 77.3853 58.0533 77.172 57.712C76.9587 57.3493 76.564 57.168 75.988 57.168C75.54 57.168 75.0813 57.2427 74.612 57.392C74.1427 57.52 73.7587 57.7013 73.46 57.936ZM98.6935 68.624C98.2242 69.1787 97.6162 69.6053 96.8695 69.904C96.1228 70.2027 95.2802 70.352 94.3415 70.352C92.3575 70.352 90.7575 69.5413 89.5415 67.92C88.3255 66.2773 87.7175 64.1013 87.7175 61.392C87.7175 58.704 88.3575 56.5067 89.6375 54.8C90.9388 53.072 92.6562 52.208 94.7895 52.208C95.4295 52.208 96.0802 52.2933 96.7415 52.464C97.4242 52.6133 98.0535 52.8373 98.6295 53.136L98.7895 53.04V44.688H105.19V70H98.7895V68.688L98.6935 68.624ZM98.7895 57.584C98.5762 57.4347 98.3095 57.328 97.9895 57.264C97.6908 57.1787 97.3815 57.136 97.0615 57.136C96.1228 57.136 95.3975 57.5093 94.8855 58.256C94.3735 58.9813 94.1175 60.0053 94.1175 61.328C94.1175 62.608 94.3628 63.6213 94.8535 64.368C95.3442 65.1147 96.0375 65.488 96.9335 65.488C97.3388 65.488 97.7015 65.4133 98.0215 65.264C98.3415 65.0933 98.5975 64.8587 98.7895 64.56V57.584ZM116.71 60.656V70H110.31V52.56H116.71V54.64L116.838 54.736C117.627 53.8187 118.374 53.168 119.078 52.784C119.803 52.4 120.571 52.208 121.382 52.208C121.595 52.208 121.819 52.2187 122.054 52.24C122.289 52.2613 122.545 52.304 122.822 52.368V58.928C122.417 58.864 122.129 58.832 121.958 58.832C121.809 58.8107 121.67 58.8 121.542 58.8C120.305 58.8 119.302 58.9493 118.534 59.248C117.787 59.5253 117.179 59.9947 116.71 60.656ZM140.173 69.328C139.213 69.6693 138.231 69.9253 137.229 70.096C136.247 70.2667 135.223 70.352 134.157 70.352C131.277 70.352 128.983 69.52 127.277 67.856C125.591 66.192 124.749 63.92 124.749 61.04C124.749 58.3733 125.527 56.24 127.085 54.64C128.663 53.0187 130.786 52.208 133.453 52.208C135.821 52.208 137.655 52.848 138.957 54.128C140.258 55.3867 140.909 57.1573 140.909 59.44C140.909 60.0373 140.866 60.6347 140.781 61.232C140.695 61.8293 140.578 62.3733 140.429 62.864H130.797C130.989 63.8027 131.394 64.4853 132.013 64.912C132.653 65.3173 133.591 65.52 134.829 65.52C135.554 65.52 136.29 65.456 137.037 65.328C137.783 65.2 138.829 64.9227 140.173 64.496V69.328ZM135.693 58.512C135.693 57.7653 135.479 57.1893 135.053 56.784C134.647 56.3573 134.071 56.144 133.325 56.144C132.493 56.144 131.842 56.4107 131.373 56.944C130.925 57.4773 130.69 58.256 130.669 59.28H135.629C135.65 59.2373 135.661 59.1733 135.661 59.088C135.682 58.9813 135.693 58.7893 135.693 58.512ZM170.144 64.56C170.144 66.288 169.462 67.696 168.096 68.784C166.752 69.8507 165.035 70.384 162.944 70.384C161.792 70.384 160.662 70.288 159.552 70.096C158.464 69.9253 157.483 69.6693 156.608 69.328V64.208C157.419 64.656 158.336 65.0293 159.36 65.328C160.384 65.6053 161.323 65.744 162.176 65.744C162.838 65.744 163.318 65.6693 163.616 65.52C163.915 65.3707 164.064 65.136 164.064 64.816C164.064 64.56 163.926 64.3467 163.648 64.176C163.392 63.984 162.795 63.76 161.856 63.504C160.747 63.184 159.915 62.896 159.36 62.64C158.806 62.384 158.336 62.0747 157.952 61.712C157.44 61.2427 157.056 60.688 156.8 60.048C156.544 59.3867 156.416 58.64 156.416 57.808C156.416 55.9947 157.046 54.6187 158.304 53.68C159.584 52.72 161.44 52.24 163.872 52.24C164.811 52.24 165.718 52.304 166.592 52.432C167.488 52.56 168.395 52.7627 169.312 53.04V58C168.758 57.68 167.979 57.4133 166.976 57.2C165.974 56.9653 165.024 56.848 164.128 56.848C163.531 56.848 163.104 56.912 162.848 57.04C162.614 57.168 162.496 57.392 162.496 57.712C162.496 57.9467 162.624 58.1493 162.88 58.32C163.136 58.4907 163.734 58.704 164.672 58.96C165.76 59.28 166.582 59.568 167.136 59.824C167.691 60.08 168.16 60.3787 168.544 60.72C169.078 61.1893 169.472 61.744 169.728 62.384C170.006 63.024 170.144 63.7493 170.144 64.56ZM190.918 61.296C190.918 64.0907 190.118 66.2987 188.518 67.92C186.918 69.52 184.731 70.32 181.958 70.32C179.185 70.32 176.998 69.52 175.398 67.92C173.819 66.2987 173.03 64.0907 173.03 61.296C173.03 58.5013 173.819 56.2933 175.398 54.672C176.998 53.0507 179.185 52.24 181.958 52.24C184.731 52.24 186.918 53.0507 188.518 54.672C190.118 56.2933 190.918 58.5013 190.918 61.296ZM184.486 61.296C184.486 59.888 184.273 58.8427 183.846 58.16C183.441 57.456 182.811 57.104 181.958 57.104C181.126 57.104 180.497 57.456 180.07 58.16C179.665 58.8427 179.462 59.888 179.462 61.296C179.462 62.704 179.665 63.7493 180.07 64.432C180.497 65.1147 181.126 65.456 181.958 65.456C182.811 65.456 183.441 65.1147 183.846 64.432C184.273 63.7493 184.486 62.704 184.486 61.296ZM201.148 57.936V70H194.748V52.56H201.148V53.68L201.276 53.776C201.937 53.264 202.662 52.88 203.452 52.624C204.241 52.3467 205.084 52.208 205.98 52.208C207.814 52.208 209.201 52.72 210.14 53.744C211.1 54.768 211.58 56.272 211.58 58.256V70H205.18V59.568C205.18 58.672 205.073 58.0533 204.86 57.712C204.646 57.3493 204.252 57.168 203.676 57.168C203.228 57.168 202.769 57.2427 202.3 57.392C201.83 57.52 201.446 57.7013 201.148 57.936ZM242.082 64.56C242.082 66.288 241.399 67.696 240.034 68.784C238.69 69.8507 236.972 70.384 234.882 70.384C233.73 70.384 232.599 70.288 231.49 70.096C230.402 69.9253 229.42 69.6693 228.546 69.328V64.208C229.356 64.656 230.274 65.0293 231.298 65.328C232.322 65.6053 233.26 65.744 234.114 65.744C234.775 65.744 235.255 65.6693 235.554 65.52C235.852 65.3707 236.002 65.136 236.002 64.816C236.002 64.56 235.863 64.3467 235.586 64.176C235.33 63.984 234.732 63.76 233.794 63.504C232.684 63.184 231.852 62.896 231.298 62.64C230.743 62.384 230.274 62.0747 229.89 61.712C229.378 61.2427 228.994 60.688 228.738 60.048C228.482 59.3867 228.354 58.64 228.354 57.808C228.354 55.9947 228.983 54.6187 230.242 53.68C231.522 52.72 233.378 52.24 235.81 52.24C236.748 52.24 237.655 52.304 238.53 52.432C239.426 52.56 240.332 52.7627 241.25 53.04V58C240.695 57.68 239.916 57.4133 238.914 57.2C237.911 56.9653 236.962 56.848 236.066 56.848C235.468 56.848 235.042 56.912 234.786 57.04C234.551 57.168 234.434 57.392 234.434 57.712C234.434 57.9467 234.562 58.1493 234.818 58.32C235.074 58.4907 235.671 58.704 236.61 58.96C237.698 59.28 238.519 59.568 239.074 59.824C239.628 60.08 240.098 60.3787 240.482 60.72C241.015 61.1893 241.41 61.744 241.666 62.384C241.943 63.024 242.082 63.7493 242.082 64.56ZM253.288 46.192C253.288 47.2587 252.914 48.1547 252.168 48.88C251.442 49.584 250.546 49.936 249.48 49.936C248.37 49.936 247.442 49.584 246.696 48.88C245.97 48.1547 245.608 47.2587 245.608 46.192C245.608 45.1253 245.97 44.24 246.696 43.536C247.442 42.832 248.37 42.48 249.48 42.48C250.568 42.48 251.474 42.832 252.2 43.536C252.925 44.24 253.288 45.1253 253.288 46.192ZM252.648 52.56V70H246.248V52.56H252.648ZM270.259 69.584C269.555 69.84 268.819 70.0213 268.051 70.128C267.283 70.256 266.493 70.32 265.683 70.32C263.507 70.32 261.789 69.7547 260.531 68.624C259.293 67.472 258.675 65.8933 258.675 63.888V57.36H255.859V52.56H258.675V47.952H265.075V52.56H269.939V57.36H265.075V61.84C265.075 62.992 265.245 63.7813 265.587 64.208C265.949 64.6133 266.557 64.816 267.411 64.816C267.773 64.816 268.189 64.784 268.659 64.72C269.149 64.6347 269.683 64.5173 270.259 64.368V69.584ZM287.923 69.328C286.963 69.6693 285.981 69.9253 284.979 70.096C283.997 70.2667 282.973 70.352 281.907 70.352C279.027 70.352 276.733 69.52 275.027 67.856C273.341 66.192 272.499 63.92 272.499 61.04C272.499 58.3733 273.277 56.24 274.835 54.64C276.413 53.0187 278.536 52.208 281.203 52.208C283.571 52.208 285.405 52.848 286.707 54.128C288.008 55.3867 288.659 57.1573 288.659 59.44C288.659 60.0373 288.616 60.6347 288.531 61.232C288.445 61.8293 288.328 62.3733 288.179 62.864H278.547C278.739 63.8027 279.144 64.4853 279.763 64.912C280.403 65.3173 281.341 65.52 282.579 65.52C283.304 65.52 284.04 65.456 284.787 65.328C285.533 65.2 286.579 64.9227 287.923 64.496V69.328ZM283.443 58.512C283.443 57.7653 283.229 57.1893 282.803 56.784C282.397 56.3573 281.821 56.144 281.075 56.144C280.243 56.144 279.592 56.4107 279.123 56.944C278.675 57.4773 278.44 58.256 278.419 59.28H283.379C283.4 59.2373 283.411 59.1733 283.411 59.088C283.432 58.9813 283.443 58.7893 283.443 58.512ZM313.99 68.304C313.222 69.072 312.476 69.6053 311.75 69.904C311.046 70.2027 310.225 70.352 309.286 70.352C307.644 70.352 306.353 69.8613 305.414 68.88C304.476 67.8773 304.006 66.544 304.006 64.88C304.006 63.0453 304.678 61.68 306.022 60.784C307.388 59.888 309.457 59.44 312.23 59.44H313.35C313.372 59.376 313.382 59.312 313.382 59.248C313.382 59.1627 313.382 58.992 313.382 58.736C313.382 58.16 313.137 57.744 312.646 57.488C312.177 57.2107 311.441 57.072 310.438 57.072C309.606 57.072 308.828 57.1467 308.102 57.296C307.377 57.424 306.524 57.6693 305.542 58.032V53.008C306.417 52.752 307.345 52.56 308.326 52.432C309.308 52.304 310.342 52.24 311.43 52.24C314.417 52.24 316.54 52.88 317.798 54.16C319.078 55.44 319.718 57.5307 319.718 60.432V70H314.758L314.118 68.336L313.99 68.304ZM312.646 62.704C311.772 62.704 311.132 62.8427 310.726 63.12C310.342 63.3973 310.15 63.8773 310.15 64.56C310.15 65.072 310.278 65.4667 310.534 65.744C310.79 66.0213 311.142 66.16 311.59 66.16C312.06 66.16 312.518 66.0533 312.966 65.84C313.436 65.6053 313.756 65.3387 313.926 65.04V62.704H312.646ZM337.009 69.104C336.219 69.5093 335.398 69.808 334.545 70C333.691 70.2133 332.817 70.32 331.921 70.32C329.297 70.32 327.195 69.488 325.617 67.824C324.038 66.16 323.249 63.984 323.249 61.296C323.249 58.5013 324.006 56.2933 325.521 54.672C327.057 53.0507 329.19 52.24 331.921 52.24C332.945 52.24 333.862 52.3467 334.673 52.56C335.483 52.752 336.23 53.0507 336.913 53.456V58.672C336.337 58.2453 335.665 57.9147 334.897 57.68C334.129 57.424 333.361 57.296 332.593 57.296C331.611 57.296 330.865 57.6267 330.353 58.288C329.862 58.9493 329.617 59.92 329.617 61.2C329.617 62.4587 329.873 63.4293 330.385 64.112C330.897 64.7733 331.633 65.104 332.593 65.104C333.403 65.104 334.193 64.9867 334.961 64.752C335.729 64.496 336.411 64.1547 337.009 63.728V69.104ZM353.321 69.104C352.532 69.5093 351.711 69.808 350.857 70C350.004 70.2133 349.129 70.32 348.233 70.32C345.609 70.32 343.508 69.488 341.929 67.824C340.351 66.16 339.561 63.984 339.561 61.296C339.561 58.5013 340.319 56.2933 341.833 54.672C343.369 53.0507 345.503 52.24 348.233 52.24C349.257 52.24 350.175 52.3467 350.985 52.56C351.796 52.752 352.543 53.0507 353.225 53.456V58.672C352.649 58.2453 351.977 57.9147 351.209 57.68C350.441 57.424 349.673 57.296 348.905 57.296C347.924 57.296 347.177 57.6267 346.665 58.288C346.175 58.9493 345.929 59.92 345.929 61.2C345.929 62.4587 346.185 63.4293 346.697 64.112C347.209 64.7733 347.945 65.104 348.905 65.104C349.716 65.104 350.505 64.9867 351.273 64.752C352.041 64.496 352.724 64.1547 353.321 63.728V69.104ZM371.298 69.328C370.338 69.6693 369.356 69.9253 368.354 70.096C367.372 70.2667 366.348 70.352 365.282 70.352C362.402 70.352 360.108 69.52 358.402 67.856C356.716 66.192 355.874 63.92 355.874 61.04C355.874 58.3733 356.652 56.24 358.21 54.64C359.788 53.0187 361.911 52.208 364.578 52.208C366.946 52.208 368.78 52.848 370.082 54.128C371.383 55.3867 372.034 57.1573 372.034 59.44C372.034 60.0373 371.991 60.6347 371.906 61.232C371.82 61.8293 371.703 62.3733 371.554 62.864H361.922C362.114 63.8027 362.519 64.4853 363.138 64.912C363.778 65.3173 364.716 65.52 365.954 65.52C366.679 65.52 367.415 65.456 368.162 65.328C368.908 65.2 369.954 64.9227 371.298 64.496V69.328ZM366.818 58.512C366.818 57.7653 366.604 57.1893 366.178 56.784C365.772 56.3573 365.196 56.144 364.45 56.144C363.618 56.144 362.967 56.4107 362.498 56.944C362.05 57.4773 361.815 58.256 361.794 59.28H366.754C366.775 59.2373 366.786 59.1733 366.786 59.088C366.807 58.9813 366.818 58.7893 366.818 58.512ZM388.801 64.56C388.801 66.288 388.118 67.696 386.753 68.784C385.409 69.8507 383.691 70.384 381.601 70.384C380.449 70.384 379.318 70.288 378.209 70.096C377.121 69.9253 376.139 69.6693 375.265 69.328V64.208C376.075 64.656 376.993 65.0293 378.016 65.328C379.041 65.6053 379.979 65.744 380.833 65.744C381.494 65.744 381.974 65.6693 382.273 65.52C382.571 65.3707 382.72 65.136 382.72 64.816C382.72 64.56 382.582 64.3467 382.305 64.176C382.049 63.984 381.451 63.76 380.513 63.504C379.403 63.184 378.571 62.896 378.016 62.64C377.462 62.384 376.993 62.0747 376.609 61.712C376.097 61.2427 375.713 60.688 375.457 60.048C375.201 59.3867 375.073 58.64 375.073 57.808C375.073 55.9947 375.702 54.6187 376.961 53.68C378.241 52.72 380.097 52.24 382.529 52.24C383.467 52.24 384.374 52.304 385.249 52.432C386.145 52.56 387.051 52.7627 387.969 53.04V58C387.414 57.68 386.635 57.4133 385.633 57.2C384.63 56.9653 383.681 56.848 382.785 56.848C382.187 56.848 381.761 56.912 381.505 57.04C381.27 57.168 381.153 57.392 381.153 57.712C381.153 57.9467 381.281 58.1493 381.536 58.32C381.793 58.4907 382.39 58.704 383.329 58.96C384.417 59.28 385.238 59.568 385.793 59.824C386.347 60.08 386.817 60.3787 387.201 60.72C387.734 61.1893 388.129 61.744 388.385 62.384C388.662 63.024 388.801 63.7493 388.801 64.56ZM405.894 64.56C405.894 66.288 405.212 67.696 403.846 68.784C402.502 69.8507 400.785 70.384 398.694 70.384C397.542 70.384 396.412 70.288 395.302 70.096C394.214 69.9253 393.233 69.6693 392.358 69.328V64.208C393.169 64.656 394.086 65.0293 395.11 65.328C396.134 65.6053 397.073 65.744 397.926 65.744C398.588 65.744 399.068 65.6693 399.366 65.52C399.665 65.3707 399.814 65.136 399.814 64.816C399.814 64.56 399.676 64.3467 399.398 64.176C399.142 63.984 398.545 63.76 397.606 63.504C396.497 63.184 395.665 62.896 395.11 62.64C394.556 62.384 394.086 62.0747 393.702 61.712C393.19 61.2427 392.806 60.688 392.55 60.048C392.294 59.3867 392.166 58.64 392.166 57.808C392.166 55.9947 392.796 54.6187 394.054 53.68C395.334 52.72 397.19 52.24 399.622 52.24C400.561 52.24 401.468 52.304 402.342 52.432C403.238 52.56 404.145 52.7627 405.062 53.04V58C404.508 57.68 403.729 57.4133 402.726 57.2C401.724 56.9653 400.774 56.848 399.878 56.848C399.281 56.848 398.854 56.912 398.598 57.04C398.364 57.168 398.246 57.392 398.246 57.712C398.246 57.9467 398.374 58.1493 398.63 58.32C398.886 58.4907 399.484 58.704 400.422 58.96C401.51 59.28 402.332 59.568 402.886 59.824C403.441 60.08 403.91 60.3787 404.294 60.72C404.828 61.1893 405.222 61.744 405.478 62.384C405.756 63.024 405.894 63.7493 405.894 64.56ZM417.1 46.192C417.1 47.2587 416.727 48.1547 415.98 48.88C415.255 49.584 414.359 49.936 413.292 49.936C412.183 49.936 411.255 49.584 410.508 48.88C409.783 48.1547 409.42 47.2587 409.42 46.192C409.42 45.1253 409.783 44.24 410.508 43.536C411.255 42.832 412.183 42.48 413.292 42.48C414.38 42.48 415.287 42.832 416.012 43.536C416.737 44.24 417.1 45.1253 417.1 46.192ZM416.46 52.56V70H410.06V52.56H416.46ZM440 60.624C440 63.5467 439.147 65.8933 437.44 67.664C435.733 69.4347 433.451 70.32 430.592 70.32C429.483 70.32 428.299 70.1707 427.04 69.872C425.803 69.5733 424.309 69.0933 422.56 68.432V44.688H428.96V53.968L429.024 54.032C429.621 53.4133 430.293 52.9547 431.04 52.656C431.808 52.3573 432.683 52.208 433.664 52.208C435.541 52.208 437.067 52.976 438.24 54.512C439.413 56.048 440 58.0853 440 60.624ZM428.96 64.912C429.237 65.04 429.515 65.136 429.792 65.2C430.069 65.264 430.347 65.296 430.624 65.296C431.584 65.296 432.32 64.944 432.832 64.24C433.344 63.5147 433.6 62.4907 433.6 61.168C433.6 59.9093 433.355 58.9493 432.864 58.288C432.373 57.6053 431.669 57.264 430.752 57.264C430.368 57.264 430.016 57.3387 429.696 57.488C429.397 57.616 429.152 57.808 428.96 58.064V64.912ZM450.241 44.688V70H443.841V44.688H450.241ZM469.517 69.328C468.557 69.6693 467.575 69.9253 466.573 70.096C465.591 70.2667 464.567 70.352 463.501 70.352C460.621 70.352 458.327 69.52 456.621 67.856C454.935 66.192 454.093 63.92 454.093 61.04C454.093 58.3733 454.871 56.24 456.429 54.64C458.007 53.0187 460.13 52.208 462.797 52.208C465.165 52.208 466.999 52.848 468.301 54.128C469.602 55.3867 470.253 57.1573 470.253 59.44C470.253 60.0373 470.21 60.6347 470.125 61.232C470.039 61.8293 469.922 62.3733 469.773 62.864H460.141C460.333 63.8027 460.738 64.4853 461.357 64.912C461.997 65.3173 462.935 65.52 464.173 65.52C464.898 65.52 465.634 65.456 466.381 65.328C467.127 65.2 468.173 64.9227 469.517 64.496V69.328ZM465.037 58.512C465.037 57.7653 464.823 57.1893 464.397 56.784C463.991 56.3573 463.415 56.144 462.669 56.144C461.837 56.144 461.186 56.4107 460.717 56.944C460.269 57.4773 460.034 58.256 460.013 59.28H464.973C464.994 59.2373 465.005 59.1733 465.005 59.088C465.026 58.9813 465.037 58.7893 465.037 58.512Z" fill="white"/>
</svg>
