<svg width="471" height="449" viewBox="0 0 471 449" fill="none" xmlns="http://www.w3.org/2000/svg">
<path d="M68.9586 408.099C160.885 461.947 309.934 461.947 401.872 408.099C493.809 354.252 493.798 266.954 401.872 213.107C309.945 159.259 160.885 159.247 68.9477 213.107C-22.9899 266.967 -22.9789 354.252 68.9586 408.099Z" fill="#FAFAFA"/>
<path d="M312.337 417.99C330.922 417.99 345.989 409.937 345.989 400.004C345.989 390.071 330.922 382.018 312.337 382.018C293.751 382.018 278.685 390.071 278.685 400.004C278.685 409.937 293.751 417.99 312.337 417.99Z" fill="#F0F0F0"/>
<path d="M49.1865 88.976V150.857C49.1865 152.887 50.4593 153.723 52.0393 152.702L180.175 69.7474C181.004 69.1398 181.694 68.3222 182.19 67.3606C182.685 66.399 182.972 65.3202 183.028 64.2113V2.28122C183.028 0.251334 181.744 -0.585227 180.175 0.435869L52.0393 83.3907C51.2025 84.0009 50.5073 84.8257 50.0112 85.797C49.5151 86.7682 49.2324 87.8579 49.1865 88.976Z" fill="#F0F0F0"/>
<path d="M58.1068 88.0037L96.5101 63.153C98.2766 62.0088 99.6921 62.9315 99.6921 65.2075V108.475C99.6318 109.709 99.3122 110.909 98.7592 111.978C98.2062 113.047 97.4355 113.955 96.5101 114.626L58.1068 139.489C56.3512 140.621 54.9248 139.698 54.9248 137.422V94.1795C54.9843 92.942 55.3034 91.7376 55.8563 90.6645C56.4093 89.5913 57.1803 88.6797 58.1068 88.0037Z" fill="#FAFAFA"/>
<path d="M89.2025 84.7437L77.7803 111.292L71.9649 107.528C71.4065 107.185 70.7514 107.099 70.1375 107.287C69.5235 107.475 68.9986 107.923 68.6732 108.536L54.9248 135.122V137.447C54.9248 139.723 56.3512 140.646 58.1068 139.514L96.5101 114.651C97.4337 113.977 98.2029 113.069 98.7557 112.001C99.3085 110.932 99.6292 109.733 99.6921 108.5V93.2816L92.0114 84.2516C91.8399 83.9827 91.6051 83.7725 91.3332 83.6445C91.0613 83.5165 90.763 83.4757 90.4717 83.5268C90.1803 83.5778 89.9073 83.7186 89.6832 83.9335C89.4591 84.1484 89.2927 84.4289 89.2025 84.7437Z" fill="#FB8500"/>
<path d="M60.6963 103.837C63.0692 102.102 65.0439 99.764 66.4603 97.0132C67.8768 94.2623 68.695 91.1758 68.8488 88.0041C68.8488 85.3345 68.0807 83.403 66.8189 82.3696L58.1068 88.0041C57.1832 88.6776 56.4139 89.5854 55.8612 90.654C55.3084 91.7226 54.9876 92.922 54.9248 94.1553V104.452C56.428 105.437 58.4469 105.289 60.6963 103.837Z" fill="#FB8500"/>
<path d="M114.023 55.8579L171.726 18.4956C173.043 17.6467 174.107 18.2496 174.107 19.8489C174.049 20.7451 173.804 21.6133 173.39 22.3829C172.976 23.1525 172.406 23.8017 171.726 24.2777L114.023 61.6277C112.706 62.4766 111.642 61.8737 111.642 60.2744C111.701 59.3803 111.948 58.5146 112.362 57.7472C112.775 56.9799 113.344 56.3327 114.023 55.8579Z" fill="#FAFAFA"/>
<path d="M114.023 68.6404L171.726 31.2781C173.043 30.4292 174.107 31.032 174.107 32.6313C174.049 33.5276 173.804 34.3958 173.39 35.1654C172.976 35.935 172.406 36.5842 171.726 37.0602L114.023 74.4102C112.706 75.2591 111.642 74.6563 111.642 73.0693C111.7 72.173 111.945 71.3048 112.359 70.5352C112.773 69.7656 113.343 69.1164 114.023 68.6404Z" fill="#FAFAFA"/>
<path d="M114.023 81.4223L171.726 44.0724C173.043 43.2235 174.107 43.8263 174.107 45.4133C174.049 46.3096 173.804 47.1778 173.39 47.9474C172.976 48.717 172.406 49.3662 171.726 49.8422L114.023 87.1921C112.706 88.0533 111.642 87.4504 111.642 85.8511C111.7 84.9549 111.945 84.0867 112.359 83.3171C112.773 82.5475 113.343 81.8983 114.023 81.4223Z" fill="#FAFAFA"/>
<path d="M114.023 94.2045L171.726 56.8545C173.043 56.0056 174.107 56.6084 174.107 58.2077C174.048 59.1018 173.801 59.9676 173.387 60.7349C172.974 61.5023 172.405 62.1495 171.726 62.6243L114.023 100.048C112.706 100.897 111.642 100.294 111.642 98.6949C111.691 97.788 111.933 96.9074 112.347 96.1264C112.761 95.3454 113.336 94.6865 114.023 94.2045Z" fill="#FAFAFA"/>
<path d="M22.4141 283.673V192.869C22.4668 191.76 22.7527 190.68 23.2485 189.718C23.7443 188.756 24.4359 187.939 25.2669 187.333L122.175 124.591C123.744 123.57 125.028 124.395 125.028 126.437V217.24C124.972 218.349 124.685 219.428 124.19 220.39C123.694 221.351 123.004 222.169 122.175 222.777L25.2669 285.519C23.6869 286.54 22.4141 285.715 22.4141 283.673Z" fill="#F0F0F0"/>
<path d="M22.4141 279.134V283.673C22.4141 285.715 23.6869 286.54 25.2669 285.518L122.175 222.776C123.004 222.169 123.694 221.351 124.19 220.39C124.685 219.428 124.972 218.349 125.028 217.24V212.688L22.4141 279.134Z" fill="#FB8500"/>
<path d="M69.2987 196.781L79.1739 196.203C80.3808 196.129 80.71 196.892 79.909 197.926L68.5636 212.393C67.7626 213.414 67.1152 213.131 67.1152 211.778V199.377C67.1195 198.715 67.347 198.08 67.7521 197.598C68.1571 197.117 68.7097 196.825 69.2987 196.781Z" fill="#FB8500"/>
<path d="M66.7531 220.328C65.5697 220.345 64.4035 220.01 63.3736 219.356C60.9378 217.769 59.5991 214.435 59.5991 210.08C59.5991 201.198 65.1841 190.396 72.0528 185.906C75.4433 183.704 78.6362 183.372 81.094 184.946C83.5519 186.521 84.8795 189.867 84.8795 194.21C84.8795 203.105 79.2836 213.894 72.4259 218.384C70.7189 219.577 68.763 220.247 66.7531 220.328ZM77.7255 184.811C75.8502 184.894 74.0268 185.526 72.4368 186.644C65.7766 190.95 60.3672 201.469 60.3672 210.08C60.3672 214.165 61.5742 217.203 63.7686 218.618C65.9631 220.033 68.9037 219.701 72.0528 217.658C78.713 213.34 84.1224 202.896 84.1224 194.21C84.1224 190.126 82.9155 187.099 80.721 185.672C79.8029 185.096 78.7665 184.799 77.7145 184.811H77.7255Z" fill="#FB8500"/>
<path d="M140.016 277.608C140.016 277.608 143.977 249.313 135.177 224.978C126.377 200.644 114.516 199.143 108.371 202.6C102.227 206.057 106.177 219.553 111.663 228.62C118.971 240.516 131.04 266.13 130.645 289.135L140.016 277.608Z" fill="#FB8500"/>
<path opacity="0.2" d="M140.016 277.608C140.016 277.608 143.977 249.313 135.177 224.978C126.377 200.644 114.516 199.143 108.371 202.6C102.227 206.057 106.177 219.553 111.663 228.62C118.971 240.516 131.04 266.13 130.645 289.135L140.016 277.608Z" fill="black"/>
<path d="M136.066 279.404C135.967 279.401 135.87 279.376 135.781 279.33C135.691 279.284 135.61 279.218 135.544 279.137C135.477 279.055 135.426 278.96 135.393 278.856C135.36 278.751 135.346 278.641 135.352 278.531C136.801 239.791 119.541 210.868 112.091 205.233C112.009 205.172 111.94 205.093 111.885 205.001C111.831 204.91 111.794 204.807 111.775 204.699C111.756 204.591 111.756 204.48 111.776 204.372C111.795 204.264 111.833 204.162 111.888 204.071C111.943 203.979 112.013 203.901 112.095 203.84C112.176 203.779 112.268 203.737 112.364 203.716C112.461 203.695 112.56 203.695 112.656 203.717C112.752 203.739 112.843 203.782 112.925 203.843C121.703 210.412 138.293 239.987 136.834 278.605C136.831 278.714 136.809 278.821 136.768 278.921C136.728 279.021 136.67 279.11 136.599 279.185C136.528 279.259 136.444 279.317 136.352 279.355C136.26 279.392 136.163 279.409 136.066 279.404Z" fill="white"/>
<path d="M138.458 311.206C136.955 306.974 133.07 302.25 123.097 297.206C113.123 292.162 105.618 285.432 104.235 280.561C103.819 279.215 103.765 277.762 104.079 276.382C104.393 275.002 105.061 273.756 106.002 272.798C106.002 272.798 96.5983 271.568 95.4132 265.109C93.932 256.965 102.15 256.436 102.15 256.436C102.15 256.436 91.3644 239.409 88.5007 231.831C85.6369 224.253 88.9395 223.798 95.896 226.689C102.853 229.58 116.107 244.133 118.159 248.574C118.159 248.574 121.747 243.654 125.609 246.889C129.471 250.125 129.658 259.807 127.376 263.3C128.915 262.979 130.504 263.165 131.951 263.835C133.398 264.505 134.64 265.631 135.528 267.077C139.456 272.847 140.751 287.278 140.751 287.278L138.458 311.206Z" fill="#FB8500"/>
<path d="M139.16 307.269C138.993 307.267 138.832 307.203 138.701 307.087C138.57 306.971 138.477 306.81 138.436 306.629C133.103 281.717 107.79 241.956 92.0665 229.309C91.9865 229.245 91.9185 229.164 91.8664 229.071C91.8143 228.978 91.7791 228.874 91.7628 228.765C91.7465 228.657 91.7494 228.546 91.7714 228.438C91.7934 228.331 91.834 228.23 91.8909 228.14C91.9478 228.051 92.0199 227.974 92.1031 227.916C92.1863 227.857 92.279 227.818 92.3758 227.8C92.4725 227.781 92.5716 227.785 92.6673 227.809C92.7629 227.834 92.8533 227.88 92.9333 227.943C108.854 240.75 134.486 281.016 139.895 306.236C139.938 306.452 139.903 306.679 139.799 306.868C139.694 307.057 139.528 307.192 139.335 307.244L139.16 307.269Z" fill="white"/>
<path d="M337.771 56.4115C337.64 56.4097 337.512 56.3717 337.398 56.3008L334.315 54.2955C334.23 54.2406 334.155 54.1674 334.095 54.0802C334.035 53.993 333.992 53.8934 333.966 53.7871C333.941 53.6809 333.934 53.5701 333.947 53.461C333.959 53.3519 333.991 53.2467 334.04 53.1514C334.089 53.0561 334.154 52.9725 334.232 52.9055C334.31 52.8384 334.399 52.7892 334.494 52.7607C334.588 52.7321 334.687 52.7247 334.784 52.739C334.882 52.7533 334.976 52.7889 335.061 52.8438L338.144 54.8491C338.229 54.9039 338.304 54.977 338.363 55.0642C338.423 55.1515 338.467 55.2511 338.493 55.3573C338.518 55.4636 338.525 55.5745 338.512 55.6836C338.499 55.7927 338.467 55.8979 338.418 55.9932C338.353 56.1206 338.258 56.2263 338.144 56.2998C338.031 56.3732 337.902 56.4117 337.771 56.4115Z" fill="white"/>
<path d="M138.458 129.352V312.387C138.458 314.429 139.73 315.253 141.299 314.232L331.714 190.975C332.543 190.367 333.233 189.55 333.729 188.588C334.224 187.626 334.511 186.548 334.567 185.439V2.40404C334.567 0.361846 333.283 -0.462412 331.714 0.558684L141.299 123.816C140.471 124.424 139.782 125.241 139.288 126.203C138.794 127.165 138.51 128.244 138.458 129.352Z" fill="#455A64"/>
<path d="M160.743 163.159C160.743 169.544 164.989 171.955 170.245 168.56L321.192 70.8422V47.7629L170.245 145.468C164.989 148.876 160.743 156.786 160.743 163.159Z" fill="#F5F5F5"/>
<path d="M334.029 39.4834C339.274 36.0879 343.531 38.4992 343.531 44.8718C343.531 51.2444 339.274 59.1672 334.029 62.5626L321.247 70.8421V47.7629L334.029 39.4834Z" fill="#FB8500"/>
<path d="M329.421 58.9332C328.874 58.9419 328.336 58.7846 327.863 58.478C327.28 58.0405 326.813 57.4347 326.512 56.7244C326.211 56.0142 326.086 55.2259 326.151 54.4428C326.23 52.5173 326.72 50.641 327.579 48.9714C328.438 47.3018 329.641 45.8874 331.089 44.847C331.641 44.3417 332.318 44.037 333.029 43.9734C333.739 43.9098 334.451 44.0904 335.068 44.491C335.685 44.8917 336.178 45.4935 336.483 46.2163C336.787 46.9392 336.888 47.7489 336.772 48.5377C336.691 50.4626 336.2 52.3377 335.341 54.0068C334.482 55.676 333.28 57.0908 331.835 58.1335C331.107 58.6326 330.274 58.9083 329.421 58.9332ZM333.492 45.7082C332.903 45.7408 332.332 45.9442 331.835 46.2987C330.623 47.2014 329.614 48.4064 328.887 49.8193C328.16 51.2322 327.734 52.8147 327.643 54.4428C327.53 54.9328 327.563 55.4508 327.738 55.9175C327.913 56.3842 328.219 56.7738 328.61 57.0266C329.001 57.2793 329.455 57.3812 329.903 57.3168C330.351 57.2523 330.767 57.0249 331.089 56.6696C332.302 55.7683 333.312 54.5636 334.039 53.1504C334.766 51.7372 335.191 50.154 335.28 48.5254C335.336 48.0376 335.277 47.5418 335.107 47.0881C334.938 46.6344 334.664 46.239 334.315 45.9419C334.064 45.7813 333.78 45.7005 333.492 45.7082Z" fill="white"/>
<path d="M336.224 89.9967L190.291 184.405C189.459 185.009 188.767 185.826 188.271 186.788C187.775 187.75 187.489 188.831 187.438 189.941V240.295C187.438 242.337 188.711 243.161 190.291 242.14L336.224 147.695C337.055 147.089 337.747 146.272 338.242 145.31C338.738 144.348 339.024 143.268 339.077 142.159V91.842C339.022 89.7998 337.749 88.9756 336.224 89.9967Z" fill="#FB8500"/>
<path opacity="0.2" d="M336.224 89.9967L190.291 184.405C189.459 185.009 188.767 185.826 188.271 186.788C187.775 187.75 187.489 188.831 187.438 189.941V240.295C187.438 242.337 188.711 243.161 190.291 242.14L336.224 147.695C337.055 147.089 337.747 146.272 338.242 145.31C338.738 144.348 339.024 143.268 339.077 142.159V91.842C339.022 89.7998 337.749 88.9756 336.224 89.9967Z" fill="white"/>
<path d="M243.342 158.46L269.786 141.335C271.103 140.486 272.167 141.089 272.167 142.688C272.107 143.582 271.861 144.448 271.447 145.215C271.033 145.982 270.464 146.63 269.786 147.105L243.342 164.229C242.026 165.078 240.961 164.475 240.961 162.876C241.021 161.982 241.268 161.116 241.681 160.349C242.095 159.582 242.664 158.934 243.342 158.46Z" fill="white"/>
<path d="M240.961 174.416C240.961 176.015 242.059 176.618 243.342 175.769L323.276 124.025C323.953 123.547 324.521 122.897 324.932 122.128C325.344 121.358 325.589 120.491 325.646 119.596C325.646 118.009 324.549 117.406 323.276 118.255L243.342 169.999C242.664 170.474 242.095 171.121 241.681 171.888C241.268 172.656 241.021 173.522 240.961 174.416Z" fill="white"/>
<path d="M240.961 185.955C240.961 187.555 242.059 188.157 243.342 187.308L323.276 135.565C323.953 135.087 324.521 134.437 324.932 133.667C325.344 132.898 325.589 132.031 325.646 131.136C325.646 129.549 324.549 128.946 323.276 129.795L243.342 181.539C242.664 182.013 242.095 182.661 241.681 183.428C241.268 184.195 241.021 185.061 240.961 185.955Z" fill="white"/>
<path d="M240.961 197.495C240.961 199.094 242.059 199.697 243.342 198.848L323.276 147.104C323.953 146.626 324.521 145.976 324.932 145.207C325.344 144.438 325.589 143.57 325.646 142.676C325.646 141.089 324.549 140.486 323.276 141.335L243.342 193.078C242.664 193.553 242.095 194.2 241.681 194.968C241.268 195.735 241.021 196.601 240.961 197.495Z" fill="white"/>
<path d="M194.79 187.284L229.199 165.005C230.779 163.996 232.052 164.82 232.052 166.85V205.639C231.998 206.749 231.712 207.828 231.216 208.79C230.721 209.752 230.03 210.569 229.199 211.176L194.79 233.443C193.221 234.464 191.937 233.64 191.937 231.61V192.82C191.99 191.711 192.276 190.631 192.771 189.669C193.267 188.707 193.959 187.89 194.79 187.284Z" fill="white"/>
<path d="M222.66 184.368L212.422 208.161L207.211 204.79C206.707 204.465 206.109 204.376 205.547 204.545C204.986 204.713 204.506 205.124 204.215 205.688L191.937 229.518V231.597C191.937 233.639 193.221 234.464 194.79 233.442L229.199 211.175C230.03 210.57 230.722 209.753 231.218 208.791C231.713 207.829 231.999 206.749 232.052 205.639V192.02L225.128 183.925C224.972 183.699 224.763 183.525 224.526 183.42C224.288 183.314 224.03 183.283 223.777 183.328C223.525 183.373 223.288 183.494 223.092 183.677C222.895 183.86 222.746 184.099 222.66 184.368Z" fill="#FB8500"/>
<path d="M197.105 201.481C199.232 199.925 201.003 197.829 202.272 195.362C203.542 192.895 204.275 190.128 204.413 187.284C204.486 186.34 204.359 185.39 204.042 184.511C203.726 183.633 203.229 182.85 202.591 182.228L194.79 187.284C193.959 187.889 193.267 188.707 192.771 189.669C192.276 190.631 191.99 191.711 191.937 192.82V202.047C193.265 202.908 195.086 202.785 197.105 201.481Z" fill="#FB8500"/>
<path d="M336.224 165.005L190.291 259.413C189.46 260.018 188.769 260.835 188.273 261.798C187.777 262.76 187.491 263.84 187.438 264.949V315.34C187.438 317.369 188.711 318.194 190.291 317.185L336.224 222.715C337.055 222.11 337.747 221.293 338.242 220.331C338.738 219.368 339.024 218.289 339.077 217.179V166.85C339.022 164.82 337.749 164.02 336.224 165.005Z" fill="#FB8500"/>
<path opacity="0.2" d="M336.224 165.005L190.291 259.413C189.46 260.018 188.769 260.835 188.273 261.798C187.777 262.76 187.491 263.84 187.438 264.949V315.34C187.438 317.369 188.711 318.194 190.291 317.185L336.224 222.715C337.055 222.11 337.747 221.293 338.242 220.331C338.738 219.368 339.024 218.289 339.077 217.179V166.85C339.022 164.82 337.749 164.02 336.224 165.005Z" fill="white"/>
<path d="M243.342 233.467L269.786 216.354C271.103 215.505 272.167 216.108 272.167 217.695C272.109 218.592 271.863 219.46 271.449 220.229C271.036 220.999 270.466 221.648 269.786 222.124L243.342 239.237C242.026 240.086 240.961 239.483 240.961 237.896C241.019 236.999 241.265 236.131 241.679 235.362C242.093 234.592 242.663 233.943 243.342 233.467Z" fill="white"/>
<path d="M240.961 249.436C240.961 251.023 242.059 251.625 243.342 250.777L323.276 199.033C323.952 198.556 324.518 197.908 324.93 197.141C325.342 196.374 325.587 195.509 325.646 194.616C325.646 193.017 324.549 192.414 323.276 193.263L243.342 245.007C242.663 245.483 242.093 246.132 241.679 246.901C241.265 247.671 241.019 248.539 240.961 249.436Z" fill="white"/>
<path d="M240.961 260.975C240.961 262.562 242.059 263.165 243.342 262.316L323.276 210.572C323.952 210.095 324.518 209.447 324.93 208.68C325.342 207.913 325.587 207.048 325.646 206.156C325.646 204.556 324.549 203.954 323.276 204.802L243.342 256.546C242.663 257.022 242.093 257.671 241.679 258.441C241.265 259.211 241.019 260.079 240.961 260.975Z" fill="white"/>
<path d="M240.961 272.515C240.961 274.102 242.059 274.704 243.342 273.856L323.276 222.112C323.952 221.635 324.518 220.987 324.93 220.22C325.342 219.453 325.587 218.588 325.646 217.695C325.646 216.096 324.549 215.493 323.276 216.342L243.342 268.086C242.663 268.562 242.093 269.211 241.679 269.981C241.265 270.75 241.019 271.618 240.961 272.515Z" fill="white"/>
<path d="M194.79 262.304L229.199 240.024C230.779 239.003 232.052 239.827 232.052 241.87V280.647C232.001 281.757 231.716 282.837 231.22 283.8C230.724 284.762 230.031 285.579 229.199 286.183L194.79 308.462C193.221 309.483 191.937 308.659 191.937 306.617V267.84C191.99 266.73 192.276 265.65 192.771 264.688C193.267 263.726 193.959 262.909 194.79 262.304Z" fill="white"/>
<path d="M222.66 259.388L212.422 283.181L207.211 279.798C206.961 279.637 206.685 279.533 206.399 279.492C206.113 279.451 205.823 279.473 205.545 279.557C205.266 279.642 205.006 279.787 204.778 279.985C204.55 280.182 204.358 280.428 204.215 280.708L191.937 304.538V306.617C191.937 308.659 193.221 309.483 194.79 308.462L229.199 286.183C230.03 285.58 230.722 284.765 231.217 283.805C231.713 282.845 231.999 281.767 232.052 280.659V267.028L225.128 258.945C224.974 258.715 224.766 258.537 224.527 258.429C224.289 258.322 224.029 258.289 223.775 258.335C223.522 258.38 223.284 258.502 223.087 258.688C222.891 258.873 222.743 259.116 222.66 259.388Z" fill="#FB8500"/>
<path d="M197.105 276.488C199.232 274.935 201.002 272.841 202.272 270.376C203.542 267.912 204.275 265.146 204.413 262.304C204.486 261.36 204.359 260.41 204.042 259.531C203.726 258.652 203.229 257.87 202.591 257.248L194.79 262.304C193.959 262.909 193.267 263.726 192.771 264.688C192.276 265.65 191.99 266.73 191.937 267.84V277.067C193.265 277.916 195.086 277.793 197.105 276.488Z" fill="#FB8500"/>
<path d="M334.567 10.2406V2.40404C334.567 0.361846 333.283 -0.462412 331.714 0.558684L141.31 123.816C140.479 124.421 139.788 125.239 139.292 126.201C138.796 127.163 138.51 128.243 138.458 129.352V137.201L334.567 10.2406Z" fill="#FB8500"/>
<path d="M311.207 16.8349C310.593 17.2868 310.083 17.8941 309.717 18.6079C309.351 19.3216 309.14 20.1218 309.1 20.9439C309.1 22.457 310.044 23.0722 311.207 22.3094C311.824 21.8638 312.338 21.2599 312.706 20.5475C313.075 19.8352 313.286 19.035 313.324 18.2128C313.324 16.6996 312.381 16.0845 311.207 16.8349Z" fill="#F5F5F5"/>
<path d="M319.601 11.4711C318.985 11.9216 318.472 12.5283 318.104 13.2422C317.736 13.956 317.524 14.7569 317.483 15.58C317.483 17.0932 318.438 17.696 319.601 16.9456C320.218 16.4972 320.732 15.891 321.1 15.1767C321.468 14.4625 321.68 13.6605 321.718 12.8366C321.718 11.2619 320.775 10.6591 319.601 11.4711Z" fill="#F5F5F5"/>
<path d="M327.995 5.98391C327.377 6.42958 326.863 7.03348 326.495 7.74579C326.127 8.4581 325.915 9.25839 325.877 10.0806C325.877 11.5938 326.821 12.2089 327.995 11.4584C328.608 11.0065 329.119 10.3992 329.485 9.68548C329.851 8.97174 330.062 8.17155 330.101 7.34947C330.101 5.83629 329.158 5.22117 327.995 5.98391Z" fill="#F5F5F5"/>
<path d="M337.606 391.884C337.938 392.83 338.167 393.817 338.287 394.825C338.596 395.867 338.668 396.979 338.495 398.06C337.756 399.44 336.581 400.459 335.203 400.914C334.223 401.167 333.207 401.189 332.219 400.977C331.231 400.765 330.293 400.325 329.465 399.684C327.457 398.343 325.954 396.707 323.101 395.809C321.066 395.317 319.15 394.34 317.483 392.942C315.903 391.528 313.796 387.591 316.814 386.681C319.831 385.77 326.404 388.981 332.384 389.276L337.606 391.884Z" fill="#263238"/>
<path d="M337.321 387.456C337.321 387.456 337.672 392.155 337.672 392.733C337.672 394.32 332.449 396.424 331.484 392.733L330.65 387.739L337.321 387.456Z" fill="#F28F8F"/>
<path d="M330.914 284.35C332.709 287.31 334.354 290.383 335.84 293.552C335.84 293.552 336.356 300.392 336.356 304.944C336.356 313.309 335.204 319.768 334.161 336.253C335.859 339.496 336.83 343.152 336.992 346.907C337.431 354.375 337.442 354.289 337.486 388.735C336.486 389.34 335.389 389.714 334.258 389.837C333.128 389.959 331.987 389.827 330.903 389.449L321.027 341.211L319.93 322.278L316.836 298.743L330.914 284.35Z" fill="#37474F"/>
<path d="M307.542 400.509C307.894 400.915 307.773 401.739 307.937 403.092C308.12 404.133 308.168 405.198 308.08 406.254C307.504 407.717 306.464 408.887 305.161 409.538C304.214 409.921 303.207 410.081 302.203 410.007C301.198 409.933 300.218 409.627 299.324 409.108C297.195 408.05 295.517 406.647 292.587 406.143C290.514 405.943 288.504 405.242 286.695 404.089C284.972 402.858 282.438 399.291 285.334 397.937C288.231 396.584 295.495 399.008 301.453 398.466L307.542 400.509Z" fill="#263238"/>
<path d="M308.913 394.603C308.913 394.603 307.816 399.967 307.52 401.16C306.862 404.027 301.189 404.174 301.189 400.865L301.573 393.237L308.913 394.603Z" fill="#F28F8F"/>
<path d="M318.109 285.813C320.951 292.075 323.694 297.599 323.781 304.267C323.99 318.378 318.767 333.916 316.847 344.114C317.419 347.805 317.581 351.562 317.33 355.297C316.946 359.566 308.266 398.356 308.266 398.356C308.266 398.356 303.439 399.487 301.387 397.039L303.823 322.352L304.481 300.662L318.109 285.813Z" fill="#37474F"/>
<path d="M314.203 247.566L315.991 258.675L324.945 257.936L323.068 245.351L314.203 247.566Z" fill="#FFA8A7"/>
<path d="M334.392 257.124C333.503 254.11 330.091 250.826 326.711 251.539C321.635 252.507 316.632 253.905 311.745 255.722C308.618 256.952 305.765 260.016 305.501 271.555L304.525 300.589C305.877 301.937 307.499 302.899 309.254 303.394C314.005 304.858 317.143 305.731 324.363 303.96C333.766 301.659 336.005 295.274 336.005 295.274C336.005 295.274 335.643 279.909 335.357 271.555C335.127 264.457 334.995 259.204 334.392 257.124Z" fill="#455A64"/>
<path d="M310.384 233.381L264.794 219.516C260.668 218.716 258.945 230.01 263.071 230.797L309.89 236.1L310.384 233.381Z" fill="#263238"/>
<path d="M297.272 256.805L287.956 257.124C287.956 257.124 289.361 241.587 290.228 239.544C291.094 237.502 293.168 237.084 295.231 236.432C297.294 235.78 297.283 234.673 297.283 234.673L295.429 234.463C293.805 234.279 293.157 232.003 293.86 230.465C294.2 229.752 294.748 228.62 295.736 228.927L298.194 229.678C298.232 228.462 297.962 227.259 297.415 226.208C296.592 225.187 296.043 225.507 294.397 224.868C293.179 224.388 290.689 223.539 288.681 224.462C286.673 225.384 285.148 229.616 284.632 232.606C284.11 236.063 283.264 239.448 282.108 242.706C280.32 248.242 277.719 259.609 277.445 264.161C277.324 266.265 277.5 267.52 279.585 268.074C281.669 268.627 297.009 268.664 297.009 268.664L297.272 256.805Z" fill="#FFA8A7"/>
<path d="M307.575 234.414C307.575 234.414 305.38 238.007 305.688 238.4C306.183 238.771 306.733 239.041 307.312 239.2L307.575 234.414Z" fill="#FFA8A7"/>
<path d="M314.191 223.071C312.107 224.302 308.508 226.43 307.509 234.993C306.489 243.776 307.838 246.606 308.892 247.775C309.616 248.562 313.5 248.611 315.475 247.947C317.911 247.135 323.408 244.785 325.921 240.27C328.872 234.956 329.531 227.845 326.206 225.015C324.514 223.576 322.524 222.643 320.423 222.303C318.321 221.963 316.177 222.228 314.191 223.071Z" fill="#FFA8A7"/>
<path d="M320.325 329.081L325.076 314.022C328.759 312.559 332.059 310.09 334.677 306.838C334.677 306.838 333.58 311.131 326.075 315.536L320.863 329.782V337.705L320.325 329.081Z" fill="#263238"/>
<path d="M307.08 225.962C307.761 228.066 308.913 233.233 313.719 235.386C313.719 235.386 314.41 232.101 316.868 232.446C319.326 232.79 319.754 236.321 318.239 238.511C316.725 240.701 315.255 239.913 315.255 239.913C315.255 239.913 314.926 244.625 317.735 246.766C318.78 247.457 319.955 247.867 321.166 247.963C322.377 248.059 323.591 247.839 324.713 247.319C326.326 246.495 328.619 242.152 329.958 238.585C332.789 231.056 333.195 225.052 328.861 223.108C328.323 219.688 326.951 218.396 324.186 217.757C318.239 216.391 313.741 220.771 308.748 219.996C306.192 219.59 306.29 223.551 307.08 225.962Z" fill="#263238"/>
<path d="M329.004 224.302L331.813 222.346C331.568 221.962 331.202 221.697 330.79 221.605C330.377 221.512 329.949 221.6 329.591 221.848C329.234 222.097 328.974 222.489 328.865 222.945C328.756 223.401 328.806 223.886 329.004 224.302Z" fill="#263238"/>
<path d="M295.187 256.595C295.187 256.595 308.299 255.746 311.646 255.722C314.993 255.697 318.548 262.107 316.463 266.474C315.08 269.34 310.768 270.325 305.337 270.62C299.906 270.915 294.43 270.915 294.43 270.915C294.43 270.915 289.548 264.678 295.187 256.595Z" fill="#455A64"/>
<path d="M305.501 270.62C305.501 270.62 313.807 270.497 316.528 266.474C316.528 266.474 315.892 268.935 312.666 270.448C310.354 271.444 307.919 272.033 305.446 272.195L305.501 270.62Z" fill="#37474F"/>
<path d="M264.794 219.516C260.668 218.716 258.945 230.01 263.071 230.797L269.654 231.536C266.977 231.228 268.832 220.734 270.872 221.349L264.794 219.516Z" fill="#455A64"/>
<path d="M430.828 216.502C430.829 218.792 430.214 221.03 429.064 222.922C427.914 224.815 426.281 226.274 424.38 227.111C422.479 227.948 420.397 228.123 418.405 227.613C416.414 227.103 414.606 225.932 413.217 224.253L412.548 223.342C410.986 221.007 410.284 218.089 410.585 215.19C410.886 212.291 412.168 209.632 414.167 207.762C416.166 205.892 418.728 204.953 421.326 205.14C423.924 205.326 426.359 206.623 428.129 208.764L428.82 209.699C430.123 211.666 430.827 214.052 430.828 216.502Z" fill="#455A64"/>
<path d="M430.828 216.502C430.829 218.792 430.214 221.029 429.064 222.922C427.913 224.814 426.281 226.274 424.38 227.111C422.478 227.948 420.396 228.123 418.405 227.613C416.414 227.103 414.606 225.932 413.217 224.253L412.548 223.342L370.238 166.05L388.068 154.51L428.129 208.739L428.82 209.674C430.127 211.648 430.832 214.043 430.828 216.502Z" fill="#455A64"/>
<path d="M395.826 200.694C397.603 202.783 400.021 204.038 402.592 204.206C405.162 204.373 407.694 203.439 409.674 201.594C411.654 199.748 412.936 197.129 413.26 194.265C413.583 191.401 412.925 188.505 411.418 186.165L406.184 179.091C407.748 181.427 408.452 184.348 408.151 187.25C407.849 190.151 406.564 192.812 404.563 194.682C402.561 196.552 399.995 197.489 397.395 197.298C394.795 197.107 392.359 195.804 390.592 193.657L395.826 200.694Z" fill="#FB8500"/>
<path d="M387.388 64.4452C390.583 64.8438 393.67 65.9699 396.463 67.7545L383.592 59.3643C374.957 52.7088 362.525 53.1024 348.711 62.0339C322.629 78.9251 301.475 120.003 301.475 153.785C301.475 170.381 306.511 182.24 314.817 187.875L314.993 187.998L328.73 196.868C326.294 195.091 324.17 192.826 322.465 190.188C325.849 190.603 329.272 190.383 332.592 189.536C333.799 189.24 335.017 188.884 336.257 188.441C336.095 188.386 335.937 188.316 335.785 188.232C335.125 187.885 334.493 187.473 333.898 187.001C332.818 186.157 331.856 185.137 331.045 183.975C329.936 182.383 329.035 180.623 328.368 178.746C327.474 178.891 326.572 178.965 325.669 178.968C323.533 179.016 321.414 178.541 319.458 177.578C319.001 177.343 318.558 177.076 318.131 176.778C317.747 176.507 317.363 176.188 317.033 175.868C316.24 171.703 315.854 167.454 315.881 163.196C315.881 129.426 337.036 88.3364 363.139 71.4452C366.472 69.2654 370.003 67.492 373.673 66.1552C374.662 66.6082 375.592 67.2082 376.438 67.9391C377.334 68.7098 378.141 69.6024 378.841 70.5964C379.954 72.1919 380.859 73.9565 381.529 75.8372C382.427 75.6962 383.333 75.6263 384.239 75.628C386.72 75.5534 389.174 76.22 391.349 77.5595C391.9 77.8959 392.425 78.2827 392.918 78.716C392.721 77.7318 392.512 76.7599 392.26 75.8372C391.269 71.7387 389.618 67.8779 387.388 64.4452Z" fill="#263238"/>
<path d="M396.462 67.7544L395.716 67.2992C393.122 65.7761 390.298 64.8082 387.388 64.4451C384.265 64.0546 381.107 64.2165 378.029 64.9249C376.546 65.24 375.08 65.6507 373.64 66.1551C369.97 67.4919 366.439 69.2653 363.106 71.4451C337.003 88.3363 315.848 129.426 315.848 163.196C315.82 167.454 316.207 171.703 317 175.868C317.143 176.618 317.307 177.332 317.472 178.045C318.45 182.399 320.147 186.51 322.475 190.163C323.515 191.771 324.711 193.244 326.041 194.555C326.89 195.391 327.792 196.156 328.741 196.843C337.354 203.08 349.588 202.539 363.084 193.78C389.188 176.889 410.342 135.811 410.342 102.029C410.331 85.1377 405.032 73.2659 396.462 67.7544ZM391.305 77.5963C391.856 77.9327 392.381 78.3194 392.874 78.7527C393.702 79.5062 394.456 80.3557 395.124 81.287C398.415 85.9127 400.16 93.1096 400.16 102.066C400.16 131.591 380.849 169.138 357.993 183.938C352.233 187.629 346.691 189.646 341.984 189.646C340.021 189.672 338.073 189.254 336.257 188.416C336.095 188.361 335.937 188.291 335.785 188.207C335.125 187.86 334.493 187.449 333.898 186.977C333.157 186.394 332.473 185.726 331.857 184.984C331.582 184.664 331.319 184.307 331.056 183.95C329.947 182.359 329.045 180.598 328.379 178.722C326.707 173.757 325.91 168.476 326.03 163.172C326.03 162.778 326.03 162.396 326.03 161.941C326.513 132.539 345.616 95.8407 368.175 81.2501C368.691 80.9179 369.218 80.5858 369.744 80.2782C373.382 77.9998 377.355 76.4706 381.474 75.7632C382.372 75.6222 383.277 75.5524 384.184 75.5541C386.136 75.5352 388.072 75.9535 389.879 76.7843C390.374 77.0048 390.851 77.2723 391.305 77.584V77.5963Z" fill="#455A64"/>
<path opacity="0.6" d="M395.749 98.6458C395.749 128.171 376.438 165.718 353.582 180.518C347.822 184.209 342.292 186.226 337.573 186.226C335.613 186.252 333.669 185.834 331.857 184.996C331.583 184.676 331.319 184.319 331.056 183.963C329.947 182.371 329.045 180.611 328.379 178.734C326.707 173.77 325.91 168.489 326.03 163.184C326.03 162.79 326.03 162.409 326.03 161.954C326.513 132.551 345.616 95.8531 368.175 81.2625C368.691 80.9303 369.218 80.5982 369.744 80.2906C373.382 78.0122 377.355 76.483 381.474 75.7757C382.372 75.6347 383.277 75.5648 384.184 75.5665C386.136 75.5476 388.072 75.9659 389.879 76.7968C390.175 77.1289 390.449 77.4857 390.713 77.8425C394.004 82.4927 395.749 89.6896 395.749 98.6458Z" fill="white"/>
</svg>
