<svg width="538" height="449" viewBox="0 0 538 449" fill="none" xmlns="http://www.w3.org/2000/svg">
<path d="M483.75 414.102H448.138V414.403H483.75V414.102Z" fill="#EBEBEB"/>
<path d="M356.141 417.381H346.797V417.682H356.141V417.381Z" fill="#EBEBEB"/>
<path d="M447.063 402.914H426.429V403.215H447.063V402.914Z" fill="#EBEBEB"/>
<path d="M102.847 404.939H56.4072V405.241H102.847V404.939Z" fill="#EBEBEB"/>
<path d="M119.233 404.939H112.427V405.241H119.233V404.939Z" fill="#EBEBEB"/>
<path d="M242.09 410.027H141.362V410.328H242.09V410.027Z" fill="#EBEBEB"/>
<path d="M254.832 340.936H47.2138C45.5874 340.932 44.0285 340.206 42.8794 338.915C41.7303 337.624 41.085 335.875 41.085 334.052V6.82353C41.0991 5.01038 41.7507 3.27672 42.8983 1.9991C44.0458 0.721484 45.5966 0.00310602 47.2138 0H254.832C256.46 0 258.022 0.725257 259.173 2.01622C260.325 3.30719 260.971 5.05811 260.971 6.88381V334.052C260.971 335.877 260.325 337.628 259.173 338.919C258.022 340.21 256.46 340.936 254.832 340.936ZM47.2138 0.241115C45.6587 0.244309 44.1682 0.939219 43.0695 2.17332C41.9708 3.40741 41.3538 5.07985 41.3538 6.82353V334.052C41.3538 335.795 41.9708 337.468 43.0695 338.702C44.1682 339.936 45.6587 340.631 47.2138 340.634H254.832C256.388 340.631 257.88 339.936 258.98 338.703C260.08 337.469 260.7 335.797 260.703 334.052V6.82353C260.7 5.07875 260.08 3.40633 258.98 2.17258C257.88 0.938827 256.388 0.244302 254.832 0.241115H47.2138Z" fill="#EBEBEB"/>
<path d="M487.417 340.936H279.788C278.161 340.932 276.601 340.206 275.45 338.916C274.299 337.626 273.651 335.876 273.648 334.052V6.82353C273.665 5.00929 274.319 3.27563 275.469 1.99835C276.618 0.721063 278.17 0.00307215 279.788 0H487.417C489.032 0.00627439 490.58 0.726054 491.725 2.00333C492.871 3.28061 493.521 5.01247 493.535 6.82353V334.052C493.535 335.873 492.891 337.621 491.744 338.911C490.598 340.201 489.041 340.929 487.417 340.936ZM279.788 0.241115C278.232 0.244302 276.74 0.938827 275.64 2.17258C274.54 3.40633 273.92 5.07875 273.917 6.82353V334.052C273.92 335.797 274.54 337.469 275.64 338.703C276.74 339.936 278.232 340.631 279.788 340.634H487.417C488.973 340.631 490.465 339.936 491.565 338.703C492.665 337.469 493.285 335.797 493.288 334.052V6.82353C493.285 5.07875 492.665 3.40633 491.565 2.17258C490.465 0.938827 488.973 0.244302 487.417 0.241115H279.788Z" fill="#EBEBEB"/>
<path d="M537.62 394.704H0V395.005H537.62V394.704Z" fill="#EBEBEB"/>
<path d="M158.738 206.104H58.6543V396.042H158.738V206.104Z" fill="#F0F0F0"/>
<path d="M163.275 206.104H58.6543V220.27H163.275V206.104Z" fill="#E6E6E6"/>
<path d="M128.749 196.327H92.6748L87.0083 157.279H134.426L128.749 196.327Z" fill="#EBEBEB"/>
<path d="M134.287 158.448L121.75 158.484L119.599 196.267L128.749 196.315L134.287 158.448Z" fill="#E0E0E0"/>
<path d="M136.394 128.067H85.6754C80.5268 128.067 76.353 132.747 76.353 138.52V147.995C76.353 153.768 80.5268 158.448 85.6754 158.448H136.394C141.543 158.448 145.717 153.768 145.717 147.995V138.52C145.717 132.747 141.543 128.067 136.394 128.067Z" fill="#EBEBEB"/>
<path d="M145.91 140.22V146.247C145.91 152.963 141.082 158.303 134.018 158.303H120.523C127.599 158.303 131.276 152.926 131.276 146.247V140.22C131.287 138.625 131.018 137.043 130.483 135.565C129.949 134.088 129.16 132.742 128.161 131.607C127.162 130.471 125.974 129.568 124.663 128.948C123.352 128.328 121.946 128.005 120.523 127.995H135.104C137.981 128.014 140.734 129.312 142.76 131.603C144.786 133.895 145.918 136.993 145.91 140.22Z" fill="#E0E0E0"/>
<path d="M117.191 168.406H104.18V176.76H117.191V168.406Z" fill="#E0E0E0"/>
<path d="M111.771 168.406H104.18V176.76H111.771V168.406Z" fill="#F5F5F5"/>
<path d="M145.394 201.33C145.394 201.988 145.278 202.64 145.053 203.248C144.828 203.856 144.499 204.408 144.083 204.872C143.668 205.337 143.175 205.705 142.632 205.956C142.089 206.207 141.508 206.335 140.921 206.333H80.5033C79.317 206.333 78.1792 205.805 77.3404 204.865C76.5015 203.924 76.0303 202.648 76.0303 201.318C76.0303 199.988 76.5015 198.713 77.3404 197.772C78.1792 196.832 79.317 196.303 80.5033 196.303H140.921C142.108 196.306 143.246 196.837 144.084 197.78C144.923 198.722 145.394 199.999 145.394 201.33Z" fill="#E0E0E0"/>
<path d="M121.857 201.33C121.857 201.988 121.741 202.64 121.516 203.248C121.291 203.856 120.962 204.408 120.546 204.872C120.131 205.337 119.638 205.705 119.095 205.956C118.552 206.207 117.971 206.335 117.384 206.333H80.5033C79.317 206.333 78.1792 205.805 77.3404 204.865C76.5015 203.924 76.0303 202.648 76.0303 201.318C76.0303 199.988 76.5015 198.713 77.3404 197.772C78.1792 196.832 79.317 196.303 80.5033 196.303H117.384C118.571 196.306 119.709 196.837 120.548 197.78C121.386 198.722 121.857 199.999 121.857 201.33Z" fill="#EBEBEB"/>
<path d="M117.492 143.318C117.489 145.331 116.774 147.261 115.504 148.685C114.235 150.108 112.513 150.91 110.718 150.913C110.074 150.913 109.433 150.811 108.814 150.611C107.406 150.153 106.168 149.194 105.287 147.878C104.406 146.563 103.93 144.963 103.93 143.318C103.93 141.673 104.406 140.073 105.287 138.757C106.168 137.442 107.406 136.483 108.814 136.024C109.432 135.819 110.073 135.717 110.718 135.723C112.513 135.726 114.235 136.527 115.504 137.951C116.774 139.374 117.489 141.304 117.492 143.318Z" fill="#E0E0E0"/>
<path d="M113.696 143.318C113.694 144.962 113.218 146.561 112.338 147.876C111.458 149.191 110.222 150.151 108.814 150.612C107.406 150.153 106.168 149.194 105.287 147.879C104.406 146.563 103.93 144.963 103.93 143.318C103.93 141.673 104.406 140.073 105.287 138.758C106.168 137.443 107.406 136.483 108.814 136.025C110.223 136.484 111.46 137.443 112.34 138.759C113.22 140.074 113.696 141.674 113.696 143.318Z" fill="#FAFAFA"/>
<path d="M121.395 158.532H99.7178V168.25H121.395V158.532Z" fill="#E0E0E0"/>
<path d="M114.76 158.532H99.7178V168.25H114.76V158.532Z" fill="#F5F5F5"/>
<path d="M125.351 146.477C126.925 146.477 128.201 145.046 128.201 143.282C128.201 141.517 126.925 140.087 125.351 140.087C123.778 140.087 122.502 141.517 122.502 143.282C122.502 145.046 123.778 146.477 125.351 146.477Z" fill="#E0E0E0"/>
<path d="M135.104 146.477C136.677 146.477 137.953 145.046 137.953 143.282C137.953 141.517 136.677 140.087 135.104 140.087C133.53 140.087 132.254 141.517 132.254 143.282C132.254 145.046 133.53 146.477 135.104 146.477Z" fill="#E0E0E0"/>
<path d="M87.0086 146.477C88.5823 146.477 89.858 145.046 89.858 143.282C89.858 141.517 88.5823 140.087 87.0086 140.087C85.4349 140.087 84.1592 141.517 84.1592 143.282C84.1592 145.046 85.4349 146.477 87.0086 146.477Z" fill="#E0E0E0"/>
<path d="M128.126 171.275H117.287V175.073H128.126V171.275Z" fill="#FAFAFA"/>
<path d="M121.416 159.63H99.8035C99.5521 159.601 99.3191 159.468 99.1498 159.258C98.9805 159.047 98.8867 158.774 98.8867 158.49C98.8867 158.207 98.9805 157.934 99.1498 157.723C99.3191 157.513 99.5521 157.38 99.8035 157.351H121.416C121.667 157.38 121.9 157.513 122.07 157.723C122.239 157.934 122.333 158.207 122.333 158.49C122.333 158.774 122.239 159.047 122.07 159.258C121.9 159.468 121.667 159.601 121.416 159.63Z" fill="#E0E0E0"/>
<path d="M125.351 147.61C124.588 147.61 123.842 147.356 123.207 146.88C122.572 146.405 122.077 145.729 121.785 144.938C121.493 144.147 121.416 143.277 121.565 142.438C121.714 141.598 122.082 140.827 122.622 140.222C123.162 139.616 123.849 139.204 124.598 139.037C125.347 138.87 126.123 138.956 126.829 139.283C127.534 139.611 128.137 140.166 128.561 140.877C128.985 141.589 129.211 142.426 129.211 143.282C129.211 144.43 128.805 145.531 128.081 146.342C127.357 147.154 126.375 147.61 125.351 147.61ZM125.351 141.232C124.99 141.232 124.636 141.353 124.336 141.578C124.035 141.803 123.801 142.123 123.663 142.498C123.524 142.872 123.488 143.284 123.559 143.682C123.629 144.079 123.803 144.444 124.059 144.731C124.314 145.018 124.64 145.213 124.995 145.292C125.349 145.371 125.717 145.33 126.051 145.175C126.385 145.02 126.67 144.758 126.871 144.42C127.072 144.083 127.179 143.687 127.179 143.282C127.179 142.738 126.987 142.217 126.644 141.833C126.301 141.448 125.836 141.232 125.351 141.232Z" fill="#FAFAFA"/>
<path d="M135.104 147.61C134.34 147.61 133.594 147.356 132.959 146.88C132.324 146.405 131.83 145.729 131.537 144.938C131.245 144.147 131.169 143.277 131.318 142.438C131.467 141.598 131.834 140.827 132.374 140.222C132.914 139.616 133.602 139.204 134.351 139.037C135.099 138.87 135.876 138.956 136.581 139.283C137.286 139.611 137.889 140.166 138.313 140.877C138.737 141.589 138.964 142.426 138.964 143.282C138.964 144.43 138.557 145.531 137.833 146.342C137.109 147.154 136.128 147.61 135.104 147.61ZM135.104 141.232C134.742 141.232 134.389 141.353 134.088 141.578C133.788 141.803 133.553 142.123 133.415 142.498C133.277 142.872 133.24 143.284 133.311 143.682C133.382 144.079 133.556 144.444 133.811 144.731C134.067 145.018 134.393 145.213 134.747 145.292C135.102 145.371 135.469 145.33 135.803 145.175C136.137 145.02 136.423 144.758 136.624 144.42C136.824 144.083 136.932 143.687 136.932 143.282C136.932 142.738 136.739 142.217 136.396 141.833C136.053 141.448 135.589 141.232 135.104 141.232Z" fill="#FAFAFA"/>
<path d="M87.0086 147.61C86.2451 147.61 85.4988 147.356 84.864 146.88C84.2292 146.405 83.7344 145.729 83.4423 144.938C83.1501 144.147 83.0737 143.277 83.2226 142.438C83.3716 141.598 83.7392 140.827 84.279 140.222C84.8189 139.616 85.5067 139.204 86.2555 139.037C87.0043 138.87 87.7804 138.956 88.4858 139.283C89.1911 139.611 89.794 140.166 90.2181 140.877C90.6423 141.589 90.8687 142.426 90.8687 143.282C90.8687 143.85 90.7688 144.413 90.5748 144.938C90.3809 145.463 90.0965 145.94 89.7381 146.342C89.3796 146.744 88.9541 147.063 88.4858 147.28C88.0174 147.498 87.5155 147.61 87.0086 147.61ZM87.0086 141.232C86.647 141.232 86.2936 141.353 85.993 141.578C85.6924 141.803 85.4581 142.123 85.3198 142.498C85.1814 142.872 85.1452 143.284 85.2158 143.682C85.2863 144.079 85.4604 144.444 85.716 144.731C85.9717 145.018 86.2974 145.213 86.652 145.292C87.0065 145.371 87.3741 145.33 87.7081 145.175C88.0421 145.02 88.3276 144.758 88.5284 144.42C88.7293 144.083 88.8365 143.687 88.8365 143.282C88.8365 142.738 88.6439 142.217 88.3011 141.833C87.9583 141.448 87.4934 141.232 87.0086 141.232Z" fill="#FAFAFA"/>
<path d="M110.621 140.859C110.356 140.845 110.105 140.721 109.916 140.512C109.728 140.303 109.615 140.023 109.599 139.726V135.928C109.584 135.769 109.6 135.608 109.644 135.455C109.689 135.303 109.761 135.163 109.857 135.044C109.953 134.925 110.07 134.829 110.2 134.764C110.331 134.699 110.472 134.666 110.615 134.666C110.758 134.666 110.9 134.699 111.03 134.764C111.161 134.829 111.278 134.925 111.374 135.044C111.469 135.163 111.542 135.303 111.586 135.455C111.631 135.608 111.646 135.769 111.631 135.928V139.726C111.631 140.026 111.525 140.314 111.335 140.527C111.146 140.74 110.889 140.859 110.621 140.859Z" fill="#E6E6E6"/>
<path d="M149.028 388.447H65.6758V229.541H149.028V388.447ZM66.751 387.242H147.953V230.746H66.751V387.242Z" fill="#E6E6E6"/>
<path d="M149.566 389.05H65.1382V228.938H149.566V389.05ZM66.2134 387.844H148.491H66.2134ZM67.2887 386.639H147.416V231.349H67.2887V386.639Z" fill="#FAFAFA"/>
<path d="M77.6428 290.024H71.2021V312.122H77.6428V290.024Z" fill="#E0E0E0"/>
<path d="M452.848 361.84L451.966 361.961C451.966 361.467 446.59 311.459 457.579 270.603C468.504 229.987 460.977 204.103 460.902 203.85L461.74 203.537C461.816 203.79 469.428 229.975 458.418 270.88C447.483 311.544 452.784 361.346 452.848 361.84Z" fill="#E0E0E0"/>
<path d="M462.461 209.42C460.551 206.863 457.957 205.066 455.063 204.296L455.257 203.332C458.343 204.146 461.111 206.058 463.149 208.781L462.461 209.42Z" fill="#E0E0E0"/>
<path d="M466.23 213.597L463.703 215.197L464.136 216.058L466.664 214.457L466.23 213.597Z" fill="#E0E0E0"/>
<path d="M461.515 236.606C459.303 230.98 455.222 226.542 450.139 224.237L450.461 223.32C455.752 225.728 459.996 230.356 462.289 236.22L461.515 236.606Z" fill="#E0E0E0"/>
<path d="M459.127 267.854H458.246C458.218 265.842 457.792 263.863 457 262.057C456.208 260.252 455.069 258.666 453.665 257.414L454.213 256.63C455.722 257.977 456.944 259.683 457.794 261.623C458.644 263.564 459.099 265.692 459.127 267.854Z" fill="#E0E0E0"/>
<path d="M457.17 275.834L456.342 275.473C456.798 274.209 457.48 273.063 458.345 272.105C459.211 271.148 460.241 270.398 461.374 269.903L461.686 270.832C460.668 271.275 459.742 271.947 458.965 272.808C458.188 273.668 457.577 274.698 457.17 275.834Z" fill="#E0E0E0"/>
<path d="M451.428 326.517L450.751 325.89C451.826 324.431 452.643 318.886 453.084 315.908C453.181 315.197 453.278 314.594 453.342 314.148L454.213 314.341C454.149 314.763 454.052 315.366 453.955 316.065C453.299 320.513 452.568 324.986 451.428 326.517Z" fill="#E0E0E0"/>
<path d="M450.923 342.382C450.312 340.431 449.164 338.747 447.646 337.573C446.127 336.399 444.316 335.795 442.472 335.848V334.859C444.508 334.81 446.507 335.483 448.183 336.782C449.859 338.081 451.126 339.939 451.805 342.093L450.923 342.382Z" fill="#E0E0E0"/>
<path d="M457.699 352.807L451.459 360.637L452.117 361.296L458.357 353.465L457.699 352.807Z" fill="#E0E0E0"/>
<path d="M462.095 301.779C463.504 306.915 453.644 316.68 453.644 316.68C453.644 316.68 440.601 314.847 439.182 309.712C437.763 304.576 441.074 296.197 447.397 294.039C453.719 291.881 460.676 296.655 462.095 301.779Z" fill="#F0F0F0"/>
<path d="M473.03 239.535C471.783 244.984 462.45 248.854 462.45 248.854C462.45 248.854 455.934 240.415 457.192 234.966C458.45 229.516 463.643 223.513 467.944 224.779C472.245 226.044 474.278 234.086 473.03 239.535Z" fill="#EBEBEB"/>
<path d="M435.569 320.935C441.429 323.503 445.031 335.125 445.031 335.125C445.031 335.125 435.354 340.96 429.504 338.404C423.655 335.848 417.44 328.627 419.118 323.805C420.795 318.982 429.709 318.38 435.569 320.935Z" fill="#F5F5F5"/>
<path d="M448.375 256.979C449.561 258.096 450.921 258.958 452.386 259.523C453.127 259.788 453.918 259.822 454.676 259.623C455.433 259.423 456.128 258.997 456.687 258.39C457.945 256.774 457.611 254.267 456.816 252.362C455.257 248.492 449.472 241.922 445.042 243.803C438.698 246.479 445.569 254.604 448.375 256.979Z" fill="#E6E6E6"/>
<path d="M461.536 266.841C460.697 268.047 459.805 269.481 460.256 270.892C460.52 271.491 460.953 271.976 461.488 272.27C462.022 272.564 462.629 272.652 463.213 272.519C464.373 272.215 465.457 271.621 466.385 270.783C468.643 269.023 473.277 265.322 470.321 261.874C467.364 258.426 463.299 264.382 461.536 266.841Z" fill="#EBEBEB"/>
<path d="M442.612 217.678C442.118 217.699 441.644 217.897 441.257 218.242C440.87 218.586 440.591 219.06 440.461 219.595C440.268 220.8 441.193 222.006 442.096 222.741C444.343 224.682 451.096 229.975 452.601 224.863C454.063 220.089 445.601 217.304 442.612 217.678Z" fill="#E0E0E0"/>
<path d="M455.052 201.065C453.665 201.21 452.278 200.643 450.88 200.74C449.482 200.836 447.934 202.102 448.246 203.633C448.557 205.164 450.095 205.514 451.385 205.61C453.589 205.762 455.801 205.592 457.966 205.104C458.48 205.05 458.957 204.778 459.299 204.344C459.869 203.416 458.966 202.162 458.009 201.837C457.016 201.69 456.039 201.427 455.095 201.053L455.052 201.065Z" fill="#E6E6E6"/>
<path d="M468.665 211.807C470.063 211.807 471.407 211.18 472.815 211.18C474.224 211.18 475.826 212.313 475.611 213.868C475.396 215.423 473.869 215.881 472.589 216.074C470.398 216.394 468.179 216.394 465.987 216.074C465.47 216.057 464.978 215.82 464.611 215.411C463.998 214.531 464.815 213.217 465.762 212.819C466.744 212.601 467.703 212.266 468.622 211.819L468.665 211.807Z" fill="#F0F0F0"/>
<path d="M467.288 327.301C467.601 326.931 468.02 326.697 468.471 326.637C468.767 326.675 469.044 326.821 469.259 327.051C469.475 327.282 469.617 327.586 469.664 327.915C469.729 328.585 469.652 329.263 469.439 329.893C468.492 333.449 457.848 359.2 455.396 354.571C453.955 351.834 457.546 342.792 458.557 340.224C460.589 335.252 463.569 330.84 467.288 327.301Z" fill="#F0F0F0"/>
<path d="M460.923 202.042C461.762 199.92 462.675 197.69 464.353 196.328C466.03 194.965 468.718 194.857 469.944 196.737C471.31 198.835 469.944 202.03 467.847 203.151C465.751 204.272 463.31 203.935 461.009 203.573C461.009 203.187 461.009 202.813 460.955 202.367L460.923 202.042Z" fill="#E6E6E6"/>
<path d="M468.245 395.922C456.956 398.453 445.331 398.453 434.042 395.922L425.106 351.882H477.18L468.245 395.922Z" fill="#E6E6E6"/>
<path d="M434.5 104.273C440.681 61.5739 414.82 21.3406 376.737 14.4095C338.654 7.47841 302.77 36.4743 296.588 79.1736C290.406 121.873 316.268 162.106 354.351 169.037C392.434 175.968 428.318 146.973 434.5 104.273Z" fill="#F0F0F0"/>
<path d="M365.721 171.782C346.777 171.782 328.609 163.344 315.214 148.325C301.818 133.306 294.293 112.936 294.293 91.6957C294.293 70.4555 301.818 50.0853 315.214 35.0663C328.609 20.0472 346.777 11.6096 365.721 11.6096V15.1299C347.823 15.4861 330.764 23.7081 318.219 38.0259C305.674 52.3438 298.644 71.6124 298.644 91.6836C298.644 111.755 305.674 131.023 318.219 145.341C330.764 159.659 347.823 167.881 365.721 168.237V171.782Z" fill="white"/>
<path d="M365.721 171.782V168.249C374.79 168.43 383.799 166.583 392.224 162.817C400.649 159.051 408.32 153.441 414.79 146.314C421.26 139.188 426.399 130.687 429.907 121.31C433.415 111.932 435.221 101.865 435.221 91.6957C435.221 81.5266 433.415 71.4594 429.907 62.0817C426.399 52.704 421.26 44.2038 414.79 37.0772C408.32 29.9507 400.649 24.3406 392.224 20.5744C383.799 16.8083 374.79 14.9615 365.721 15.1419V11.6096C384.665 11.6096 402.833 20.0472 416.229 35.0663C429.624 50.0853 437.149 70.4555 437.149 91.6957C437.149 112.936 429.624 133.306 416.229 148.325C402.833 163.344 384.665 171.782 365.721 171.782Z" fill="white"/>
<path d="M402.226 91.7078H399.086C399.086 65.7518 387.334 31.0313 364.883 14.8766L366.571 11.9109C389.979 28.7407 402.226 64.7994 402.226 91.7078Z" fill="white"/>
<path d="M366.571 169.129L364.883 166.152C387.334 150.009 399.086 115.277 399.086 89.3206H402.226C402.226 116.229 389.979 152.288 366.571 169.129Z" fill="white"/>
<path d="M332.378 91.6953H329.228C329.228 64.775 341.475 28.7285 364.872 11.8867L366.571 14.8524C344.077 31.007 332.378 65.7394 332.378 91.6953Z" fill="white"/>
<path d="M364.872 169.105C341.475 152.228 329.228 116.217 329.228 89.3088H332.378C332.378 115.253 344.12 149.985 366.571 166.14L364.872 169.105Z" fill="white"/>
<path d="M367.291 13.3696H364.151V170.009H367.291V13.3696Z" fill="white"/>
<path d="M424.859 48.2109H306.604V51.7312H424.859V48.2109Z" fill="white"/>
<path d="M435.547 91.262H295.906V94.7822H435.547V91.262Z" fill="white"/>
<path d="M423.289 134.289H308.164V137.809H423.289V134.289Z" fill="white"/>
<path d="M268.81 448.485C383.95 448.485 477.288 442.375 477.288 434.838C477.288 427.301 383.95 421.19 268.81 421.19C153.671 421.19 60.332 427.301 60.332 434.838C60.332 442.375 153.671 448.485 268.81 448.485Z" fill="#F5F5F5"/>
<path d="M248.649 433.692C248.649 434.863 248.959 436.008 249.539 436.982C250.12 437.956 250.945 438.714 251.911 439.162C252.876 439.61 253.938 439.726 254.962 439.497C255.987 439.267 256.927 438.702 257.665 437.873C258.403 437.044 258.905 435.988 259.108 434.839C259.31 433.69 259.204 432.5 258.803 431.418C258.402 430.337 257.723 429.413 256.854 428.764C255.984 428.115 254.962 427.77 253.918 427.773C253.225 427.773 252.539 427.926 251.899 428.224C251.259 428.521 250.678 428.957 250.188 429.507C249.699 430.057 249.311 430.71 249.047 431.428C248.783 432.146 248.648 432.915 248.649 433.692Z" fill="#263238"/>
<path d="M171.114 433.692C171.114 434.863 170.804 436.007 170.224 436.981C169.644 437.954 168.819 438.713 167.854 439.161C166.89 439.609 165.828 439.726 164.804 439.498C163.78 439.269 162.839 438.705 162.101 437.878C161.363 437.05 160.86 435.995 160.656 434.847C160.452 433.699 160.557 432.508 160.957 431.427C161.356 430.345 162.033 429.421 162.901 428.77C163.769 428.12 164.79 427.773 165.834 427.773C167.234 427.773 168.577 428.396 169.567 429.506C170.557 430.617 171.114 432.122 171.114 433.692Z" fill="#263238"/>
<path d="M216.844 431.799C216.844 432.97 216.534 434.114 215.954 435.088C215.374 436.061 214.549 436.82 213.584 437.268C212.62 437.716 211.558 437.833 210.534 437.605C209.51 437.376 208.569 436.812 207.831 435.985C207.093 435.157 206.59 434.102 206.386 432.954C206.182 431.806 206.287 430.615 206.687 429.534C207.086 428.452 207.763 427.528 208.631 426.877C209.499 426.227 210.52 425.88 211.564 425.88C212.257 425.88 212.944 426.033 213.584 426.33C214.225 426.628 214.807 427.064 215.297 427.613C215.787 428.163 216.176 428.816 216.442 429.534C216.707 430.252 216.844 431.022 216.844 431.799Z" fill="#263238"/>
<path d="M154.34 425.747C154.459 426.416 154.786 427.015 155.262 427.439C155.739 427.863 156.334 428.083 156.942 428.062L211.983 427.218L263.541 428.52C264.19 428.553 264.826 428.309 265.32 427.836C265.814 427.363 266.129 426.697 266.202 425.974C266.274 425.25 266.098 424.522 265.71 423.939C265.322 423.355 264.75 422.958 264.111 422.829L235.961 416.693C233.04 416.077 230.074 415.767 227.101 415.765H196.844C193.878 415.767 190.92 416.077 188.005 416.693L156.361 422.371C155.695 422.52 155.108 422.959 154.729 423.591C154.35 424.224 154.21 424.999 154.34 425.747Z" fill="#263238"/>
<path d="M221.349 364.275H202.629V424.71H221.349V364.275Z" fill="#263238"/>
<path d="M218.661 325.986H205.317V364.576H218.661V325.986Z" fill="#263238"/>
<path opacity="0.2" d="M218.661 333.135L205.307 336.909V325.986H218.661V333.135Z" fill="black"/>
<path d="M153.49 325.83V325.974H155.307C154.699 325.975 154.092 325.927 153.49 325.83Z" fill="#263238"/>
<path d="M294.992 311.194C292.987 307.387 290.132 304.232 286.708 302.04C283.283 299.848 279.409 298.694 275.466 298.692H227.198V173.662C227.204 173.566 227.204 173.469 227.198 173.373H227.424L225.403 158.195C225.066 155.632 224.232 153.183 222.959 151.021C221.687 148.859 220.007 147.036 218.037 145.681L202.468 135.024L194.318 108.357C193.817 106.737 192.88 105.331 191.635 104.335C190.391 103.339 188.901 102.802 187.371 102.799H167.888C166.188 102.8 164.541 103.463 163.229 104.675C161.917 105.886 161.021 107.571 160.695 109.442L156.394 134.228L147.942 144.138C145.341 147.178 143.79 151.157 143.566 155.362L142.771 170.227H142.91C142.816 171.026 142.769 171.831 142.771 172.638V311.845C142.769 315.234 143.854 318.512 145.828 321.079C147.801 323.646 150.533 325.332 153.523 325.829C154.121 325.926 154.725 325.974 155.329 325.974H287.476C289.021 325.985 290.541 325.535 291.88 324.669C293.218 323.804 294.327 322.555 295.093 321.051C295.859 319.547 296.255 317.841 296.239 316.109C296.223 314.377 295.796 312.68 295.003 311.194H294.992ZM159.695 157.809C159.598 158.653 159.501 159.497 159.404 160.317L157.039 160.992L150.588 162.849L151.039 155.338L151.179 153.168L160.168 144.054L160.566 147.273L160.749 148.816C160.749 148.816 160.211 153.18 159.695 157.809ZM193.092 160.22L192.199 148.297L192.963 146.2L193.113 145.814L193.92 143.535L198.135 145.814L204.962 152.336L206.478 161.595L193.092 160.22Z" fill="#219EBC"/>
<path opacity="0.3" d="M294.992 311.194C292.987 307.387 290.132 304.232 286.708 302.04C283.283 299.848 279.409 298.694 275.466 298.692H227.198V173.662C227.204 173.566 227.204 173.469 227.198 173.373H227.424L225.403 158.195C225.066 155.632 224.232 153.183 222.959 151.021C221.687 148.859 220.007 147.036 218.037 145.681L202.468 135.024L194.318 108.357C193.817 106.737 192.88 105.331 191.635 104.335C190.391 103.339 188.901 102.802 187.371 102.799H167.888C166.188 102.8 164.541 103.463 163.229 104.675C161.917 105.886 161.021 107.571 160.695 109.442L156.394 134.228L147.942 144.138C145.341 147.178 143.79 151.157 143.566 155.362L142.771 170.227H142.91C142.816 171.026 142.769 171.831 142.771 172.638V311.845C142.769 315.234 143.854 318.512 145.828 321.079C147.801 323.646 150.533 325.332 153.523 325.829C154.121 325.926 154.725 325.974 155.329 325.974H287.476C289.021 325.985 290.541 325.535 291.88 324.669C293.218 323.804 294.327 322.555 295.093 321.051C295.859 319.547 296.255 317.841 296.239 316.109C296.223 314.377 295.796 312.68 295.003 311.194H294.992ZM159.695 157.809C159.598 158.653 159.501 159.497 159.404 160.317L157.039 160.992L150.588 162.849L151.039 155.338L151.179 153.168L160.168 144.054L160.566 147.273L160.749 148.816C160.749 148.816 160.211 153.18 159.695 157.809ZM193.092 160.22L192.199 148.297L192.963 146.2L193.113 145.814L193.92 143.535L198.135 145.814L204.962 152.336L206.478 161.595L193.092 160.22Z" fill="black"/>
<path d="M214.467 276.076C229.037 269.18 261.778 273.725 277.025 278.487C278.555 279.013 280.203 278.892 281.659 278.148C283.115 277.404 284.278 276.088 284.928 274.448C286.121 271.072 283.594 260.68 279.756 259.475C261.961 253.905 226.919 255.858 209.865 263.911C206.188 265.647 204.586 270.023 206.156 273.194C206.986 274.732 208.291 275.875 209.823 276.406C211.355 276.937 213.008 276.82 214.467 276.076Z" fill="#219EBC"/>
<g opacity="0.3">
<path opacity="0.3" d="M214.467 276.076C229.037 269.18 261.778 273.725 277.025 278.487C278.555 279.013 280.203 278.892 281.659 278.148C283.115 277.404 284.278 276.088 284.928 274.448C286.121 271.072 283.594 260.68 279.756 259.475C261.961 253.905 226.919 255.858 209.865 263.911C206.188 265.647 204.586 270.023 206.156 273.194C206.986 274.732 208.291 275.875 209.823 276.406C211.355 276.937 213.008 276.82 214.467 276.076Z" fill="white"/>
</g>
<path d="M256.789 270.855H250.004V303.309H256.789V270.855Z" fill="#263238"/>
<path d="M256.789 270.855H250.004V325.986H256.789V270.855Z" fill="#263238"/>
<path d="M278.928 396.042L280.208 421.974L291.734 420.925L292.831 396.319L278.928 396.042Z" fill="#B55B52"/>
<path d="M293.745 420.515C293.692 420.504 293.643 420.477 293.603 420.436C293.563 420.396 293.534 420.344 293.519 420.286C293.507 420.226 293.511 420.164 293.533 420.108C293.554 420.051 293.59 420.004 293.637 419.972C293.798 419.852 297.594 417.139 299.486 417.622C299.837 417.707 300.145 417.94 300.347 418.273C300.479 418.449 300.557 418.668 300.57 418.898C300.584 419.128 300.532 419.356 300.422 419.551C299.992 420.25 298.562 420.611 297.196 420.684C296.044 420.743 294.888 420.687 293.745 420.515ZM294.583 420.069C296.68 420.25 299.497 420.069 299.96 419.237C300.024 419.129 300.089 418.948 299.874 418.586C299.815 418.481 299.737 418.392 299.644 418.325C299.551 418.258 299.446 418.216 299.336 418.2C299.168 418.176 298.998 418.176 298.831 418.2C297.336 418.53 295.907 419.163 294.616 420.069H294.583Z" fill="#219EBC"/>
<path d="M293.605 420.503C293.564 420.479 293.53 420.443 293.507 420.398C293.484 420.353 293.473 420.301 293.476 420.25C293.476 420.093 293.637 416.693 295.003 415.307C295.196 415.103 295.425 414.945 295.674 414.843C295.924 414.742 296.189 414.699 296.454 414.716C297.186 414.716 297.433 415.162 297.53 415.5C297.831 416.898 295.261 419.755 293.949 420.491C293.914 420.502 293.877 420.502 293.842 420.491C293.808 420.519 293.767 420.534 293.725 420.537C293.683 420.539 293.641 420.527 293.605 420.503ZM296.304 415.295C295.967 415.306 295.645 415.456 295.401 415.717C294.612 416.839 294.154 418.208 294.089 419.635C295.433 418.634 297.1 416.416 296.992 415.572C296.992 415.5 296.928 415.283 296.454 415.271H296.304V415.295Z" fill="#219EBC"/>
<path d="M292.53 418.827L280.336 419.478C280.112 419.49 279.899 419.588 279.731 419.754C279.563 419.921 279.45 420.146 279.412 420.394L277.681 431.594C277.605 432.072 277.703 432.564 277.95 432.962C278.198 433.359 278.577 433.631 279.003 433.716C279.117 433.734 279.233 433.734 279.347 433.716C283.745 433.403 287.637 432.92 293.11 432.631C299.562 432.281 297.97 433.234 305.572 432.944C310.153 432.776 310.733 426.916 308.798 426.711C299.863 425.94 298.809 422.986 295.228 419.598C294.442 418.982 293.483 418.708 292.53 418.827Z" fill="#263238"/>
<path opacity="0.1" d="M279.821 412.643L292.078 411.715L292.831 394.873L278.928 394.595L279.821 412.643Z" fill="black"/>
<path opacity="0.4" d="M275.261 298.776C275.261 299.005 275.358 299.247 275.412 299.476C275.178 296.278 274.74 293.103 274.1 289.976C270.154 272.772 229.09 269.903 212.295 269.481L192.102 271.964C192.102 271.964 190.22 290.048 195.027 301.573C199.833 313.099 275.261 298.776 275.261 298.776Z" fill="black"/>
<path d="M251.413 402.227L252.456 428.581L263.853 428.11L265.197 400.201L251.413 402.227Z" fill="#B55B52"/>
<path d="M265.649 424.542C265.594 424.535 265.543 424.51 265.502 424.469C265.462 424.427 265.434 424.373 265.423 424.313C265.408 424.256 265.41 424.195 265.427 424.139C265.445 424.083 265.477 424.034 265.52 423.999C265.681 423.867 269.38 421.009 271.283 421.407C271.64 421.468 271.961 421.685 272.175 422.01C272.311 422.186 272.394 422.403 272.415 422.634C272.437 422.865 272.394 423.097 272.294 423.3C271.885 424.011 270.477 424.433 269.068 424.566C267.93 424.671 266.786 424.663 265.649 424.542ZM266.477 424.06C268.573 424.144 271.38 423.855 271.853 422.999C271.928 422.89 271.982 422.709 271.756 422.36C271.696 422.255 271.615 422.166 271.52 422.102C271.425 422.037 271.318 421.997 271.208 421.986C271.036 421.962 270.863 421.962 270.692 421.986C269.183 422.373 267.753 423.077 266.477 424.06Z" fill="#219EBC"/>
<path d="M265.509 424.542C265.467 424.515 265.432 424.476 265.408 424.43C265.383 424.383 265.37 424.33 265.369 424.277C265.369 424.12 265.369 420.72 266.735 419.273C266.923 419.065 267.146 418.9 267.392 418.791C267.637 418.681 267.9 418.628 268.165 418.634C268.896 418.634 269.154 419.032 269.24 419.37C269.584 420.756 267.09 423.722 265.831 424.506C265.815 424.514 265.796 424.519 265.778 424.519C265.759 424.519 265.741 424.514 265.724 424.506C265.692 424.528 265.657 424.543 265.62 424.549C265.583 424.555 265.545 424.553 265.509 424.542ZM268.025 419.213C267.691 419.24 267.378 419.403 267.143 419.671C266.399 420.828 265.986 422.211 265.961 423.638C267.272 422.589 268.864 420.31 268.735 419.466C268.735 419.394 268.659 419.177 268.176 419.177H268.025V419.213Z" fill="#219EBC"/>
<path d="M264.38 422.902L252.219 424.108C251.997 424.125 251.786 424.228 251.624 424.4C251.461 424.571 251.356 424.8 251.327 425.048L249.972 436.356C249.942 436.595 249.953 436.837 250.007 437.07C250.06 437.304 250.154 437.523 250.282 437.715C250.411 437.908 250.573 438.07 250.757 438.193C250.942 438.315 251.147 438.396 251.359 438.43C251.473 438.448 251.589 438.448 251.703 438.43C256.09 437.924 259.961 437.285 265.423 436.766C271.875 436.151 270.305 437.176 277.885 436.561C282.455 436.2 282.842 430.292 280.885 430.196C271.939 429.798 270.789 426.893 267.101 423.662C266.308 423.043 265.339 422.772 264.38 422.902Z" fill="#263238"/>
<path opacity="0.1" d="M264.401 416.042L265.047 402.745L251.477 403.082L252.036 417.007L264.401 416.042Z" fill="black"/>
<path d="M224.037 267.962C224.037 267.962 295.68 261.813 300.648 283.49C305.615 305.166 294.616 407.326 294.616 407.326L276.896 409.002C276.896 409.002 274.573 348.723 274.24 298.861C274.24 298.861 198.822 313.098 194.005 301.621C189.188 290.144 191.081 272.013 191.081 272.013L224.037 267.962Z" fill="#219EBC"/>
<path d="M224.037 267.962C224.037 267.962 295.68 261.813 300.648 283.49C305.615 305.166 294.616 407.326 294.616 407.326L276.896 409.002C276.896 409.002 274.573 348.723 274.24 298.861C274.24 298.861 198.822 313.098 194.005 301.621C189.188 290.144 191.081 272.013 191.081 272.013L224.037 267.962Z" fill="#263238"/>
<path opacity="0.1" d="M224.037 267.962C224.037 267.962 295.68 261.813 300.648 283.49C305.615 305.166 294.616 407.326 294.616 407.326L276.896 409.002C276.896 409.002 274.573 348.723 274.24 298.861C274.24 298.861 198.822 313.098 194.005 301.621C189.188 290.144 191.081 272.013 191.081 272.013L224.037 267.962Z" fill="black"/>
<path d="M205.94 271.12C205.94 271.12 278.164 267.974 279.154 290.325C279.928 307.794 266.767 411.569 266.767 411.569L250.251 413.004C250.251 413.004 247.23 350.652 249.294 308.119C249.294 308.119 186.93 316.136 175.995 306.299C165.522 296.92 173.673 271.024 173.673 271.024L205.94 271.12Z" fill="#263238"/>
<path d="M234.66 217.111C243.623 225.885 253.914 232.79 265.047 237.497L266.842 238.257L267.788 232.783L245.94 207.961C245.94 207.961 227.811 169.72 217.403 171.854C205.048 174.385 234.66 217.111 234.66 217.111Z" fill="#219EBC"/>
<g opacity="0.1">
<path opacity="0.1" d="M234.66 217.111C243.623 225.885 253.914 232.79 265.047 237.497L266.842 238.257L267.788 232.783L245.94 207.961C245.94 207.961 227.811 169.72 217.403 171.854C205.048 174.385 234.66 217.111 234.66 217.111Z" fill="white"/>
</g>
<path d="M266.842 238.281L267.789 232.807L280.885 230.396C280.885 230.396 293.68 237.497 290.766 239.052H276.627L266.842 238.281Z" fill="#B55B52"/>
<path d="M230.101 269.529C219.553 272.657 208.628 273.877 197.736 273.145L174.275 271.59C173.705 266.189 170.103 254.326 165.146 223.765C163.909 208.37 160.06 203.488 164.501 180.22C164.497 180.176 164.497 180.131 164.501 180.087C164.362 179.123 164.397 178.137 164.602 177.187C164.808 176.238 165.181 175.344 165.698 174.558C166.216 173.772 166.868 173.11 167.617 172.61C168.366 172.11 169.197 171.784 170.06 171.648H170.189C173.651 170.997 178.006 170.298 182.296 169.936C190.463 169.167 198.661 168.885 206.854 169.093C209.582 169.319 212.297 169.722 214.983 170.298C216.803 170.588 218.52 171.418 219.957 172.703C221.394 173.987 222.498 175.679 223.155 177.604C226.994 189.913 228.316 219.413 230.101 269.529Z" fill="#219EBC"/>
<path d="M198.263 176.808C186.124 178.014 181.468 169.937 181.468 169.937C186.651 163.776 184.156 147.694 182.103 138.881L188.834 144.764L198.005 152.793C197.786 154.145 197.632 155.51 197.543 156.88C197.468 157.863 197.468 158.851 197.543 159.834V160.003C197.952 164.114 199.984 167.537 205.747 168.864C205.79 168.9 208.597 175.771 198.263 176.808Z" fill="#B55B52"/>
<path d="M184.533 152.637C182.932 150.525 180.904 148.871 178.619 147.814C176.705 146.946 174.651 146.5 172.737 145.644C170.755 144.91 169.105 143.341 168.135 141.268C167.8 140.362 167.666 139.378 167.747 138.401C167.827 137.424 168.119 136.484 168.598 135.662C167.03 134.794 165.708 133.454 164.781 131.792C163.974 130.032 164.35 127.452 165.974 126.705C165.137 125.475 164.56 124.049 164.286 122.532C164.013 121.016 164.049 119.45 164.393 117.952C164.817 116.599 165.527 115.381 166.464 114.405C167.4 113.428 168.535 112.722 169.77 112.347C170.558 112.14 171.293 111.729 171.914 111.147C172.536 110.565 173.028 109.828 173.35 108.995C173.909 107.319 173.931 105.463 174.597 103.835C174.956 102.969 175.487 102.207 176.15 101.607C176.813 101.007 177.589 100.585 178.42 100.374C179.251 100.163 180.114 100.169 180.942 100.391C181.771 100.613 182.543 101.044 183.199 101.653C183.427 100.719 183.817 99.8437 184.346 99.0783C184.876 98.3129 185.535 97.6721 186.285 97.1926C187.069 96.7199 187.944 96.4724 188.834 96.4724C189.723 96.4724 190.599 96.7199 191.382 97.1926C192.162 97.672 192.796 98.4027 193.203 99.2901C193.609 100.178 193.769 101.181 193.661 102.172C194.04 101.499 194.613 100.994 195.285 100.742C195.957 100.489 196.686 100.504 197.35 100.785C198.696 101.352 199.791 102.485 200.403 103.944C200.996 105.389 201.485 106.884 201.866 108.416C202.252 109.955 202.959 111.369 203.93 112.539C204.739 113.384 205.757 113.936 206.85 114.123C207.943 114.31 209.062 114.124 210.059 113.588C210.329 114.163 210.438 114.817 210.371 115.462C210.303 116.108 210.064 116.715 209.683 117.205C209.322 117.704 208.835 118.069 208.286 118.249C207.737 118.43 207.151 118.419 206.607 118.218C206.987 118.857 207.234 119.583 207.33 120.344C207.426 121.104 207.368 121.879 207.162 122.611C206.956 123.343 206.606 124.014 206.137 124.574C205.669 125.135 205.095 125.57 204.457 125.849C200.79 125.138 197.253 127.802 195.543 131.503C193.833 135.204 193.317 139.46 192.016 143.378C190.715 147.296 188.167 151.817 184.533 152.637Z" fill="#263238"/>
<path opacity="0.2" d="M198.005 152.793C197.786 154.145 197.632 155.51 197.543 156.88C197.468 157.863 197.468 158.851 197.543 159.834V160.002C194.188 159.327 189.683 155.542 189.081 151.721C188.878 150.468 188.799 149.195 188.844 147.923L198.005 152.793Z" fill="black"/>
<path d="M178.952 169.008L182.662 167.333C186.867 171.744 191.928 175 197.446 176.845C195.142 178.697 193.382 181.279 192.393 184.259C179.296 179.762 178.952 169.008 178.952 169.008Z" fill="white"/>
<path d="M205.726 168.128L202.21 167.429C202.21 167.429 201.016 175.627 197.457 176.905C203.801 179.413 204.984 182.861 204.984 182.861C213.876 179.28 205.726 168.128 205.726 168.128Z" fill="white"/>
<path d="M174.824 125.439C174.801 121.23 176.269 117.183 178.906 114.188C181.544 111.193 185.134 109.494 188.888 109.465C200.296 109.067 208.565 124.463 210.64 135.216C211.225 137.999 211.12 140.907 210.337 143.628C209.554 146.348 208.122 148.777 206.196 150.65C204.27 152.524 201.924 153.771 199.412 154.257C196.899 154.743 194.316 154.45 191.941 153.408C184.587 150.298 181.995 143.86 176.748 133.335C175.5 130.938 174.836 128.215 174.824 125.439Z" fill="#B55B52"/>
<path d="M171.662 124.909C171.645 126.518 171.926 128.114 172.488 129.594C173.051 131.075 173.881 132.408 174.928 133.509C175.975 134.61 177.215 135.455 178.568 135.99C179.922 136.524 181.36 136.737 182.791 136.615C183.844 136.579 184.856 136.155 185.673 135.41C183.969 135.224 182.399 134.298 181.297 132.83C180.741 132.133 180.315 131.318 180.044 130.434C179.772 129.55 179.661 128.615 179.716 127.682C180.429 127.651 181.125 127.435 181.751 127.05C182.376 126.665 182.913 126.122 183.318 125.464C183.702 124.783 183.939 124.011 184.012 123.21C184.085 122.409 183.991 121.6 183.737 120.846C183.891 118.873 184.252 116.926 184.813 115.047C185.272 113.384 186.224 111.947 187.511 110.973C188.162 110.502 188.918 110.247 189.692 110.237C190.466 110.226 191.227 110.46 191.888 110.912C192.58 111.597 193.237 112.325 193.855 113.094C194.554 113.77 200.694 109.478 192.49 106.283C190.063 105.432 187.486 105.262 184.986 105.79C182.487 106.318 180.142 107.526 178.157 109.309C174.189 112.841 171.727 119.243 171.662 124.909Z" fill="#263238"/>
<path d="M205.736 137.507C205.736 137.507 202.801 137.7 195.145 140.461C196.769 143.029 199.037 144.753 202.962 143.342C203.976 143.036 204.843 142.297 205.378 141.283C205.912 140.269 206.072 139.061 205.822 137.917C205.801 137.784 205.768 137.64 205.736 137.507Z" fill="#263238"/>
<path d="M200.565 141.679C202.05 141.037 203.688 140.994 205.199 141.558C204.645 142.395 203.864 143.008 202.973 143.306C201.488 143.948 199.849 143.991 198.339 143.427C198.885 142.58 199.669 141.965 200.565 141.679Z" fill="#E83F3F"/>
<path d="M205.371 137.555C205.389 137.92 205.321 138.283 205.174 138.609C205.027 138.936 204.805 139.212 204.532 139.411C202.257 140.217 199.921 140.786 197.554 141.111C197.175 141.189 196.785 141.156 196.421 141.014C196.057 140.873 195.733 140.628 195.479 140.303C198.701 139.077 202.01 138.157 205.371 137.555Z" fill="white"/>
<path opacity="0.2" d="M202.822 134.77C203.531 134.634 204.206 134.326 204.798 133.868C205.39 133.41 205.887 132.813 206.252 132.118C203.682 130.608 201.308 128.71 199.199 126.476L202.822 134.77Z" fill="black"/>
<path d="M177.415 136.072C179.888 134.867 183.479 137.664 185.189 139.978C187.081 142.558 186.866 145.572 183.974 145.669C181.645 145.61 179.406 144.657 177.63 142.968C175.436 140.834 174.995 137.266 177.415 136.072Z" fill="#B55B52"/>
<path d="M193.199 128.031C193.715 127.778 194.489 128.369 194.823 129.237C195.156 130.105 195.049 130.961 194.532 131.226C194.016 131.491 193.339 130.937 192.898 130.093C192.457 129.249 192.672 128.284 193.199 128.031Z" fill="#263238"/>
<path d="M201.952 123.076C202.478 122.835 203.21 123.329 203.586 124.209C203.962 125.089 203.855 126.03 203.328 126.283C202.801 126.536 202.07 126.017 201.694 125.137C201.317 124.257 201.435 123.329 201.952 123.076Z" fill="#263238"/>
<path d="M199.081 120.062C199.158 120.104 199.242 120.126 199.328 120.126C199.414 120.126 199.498 120.104 199.575 120.062C200.125 119.663 200.749 119.41 201.399 119.322C202.05 119.234 202.709 119.314 203.328 119.556C203.386 119.589 203.45 119.609 203.515 119.614C203.581 119.619 203.646 119.609 203.708 119.586C203.77 119.562 203.828 119.525 203.877 119.476C203.926 119.428 203.966 119.369 203.995 119.303C204.049 119.164 204.053 119.006 204.004 118.864C203.956 118.722 203.86 118.606 203.736 118.543C202.968 118.222 202.144 118.105 201.329 118.201C200.514 118.297 199.729 118.604 199.038 119.098C198.923 119.18 198.841 119.309 198.809 119.457C198.777 119.605 198.797 119.762 198.866 119.894C198.926 119.966 198.999 120.024 199.081 120.062Z" fill="#263238"/>
<path d="M190.005 127.477C190.088 127.459 190.165 127.419 190.231 127.36C190.296 127.301 190.348 127.226 190.382 127.139C190.602 126.445 190.959 125.816 191.426 125.298C191.894 124.781 192.459 124.388 193.081 124.149C193.144 124.134 193.204 124.104 193.258 124.062C193.311 124.02 193.357 123.967 193.392 123.905C193.427 123.844 193.45 123.775 193.462 123.703C193.473 123.631 193.471 123.557 193.457 123.486C193.442 123.413 193.414 123.344 193.375 123.283C193.336 123.222 193.286 123.171 193.229 123.132C193.172 123.092 193.109 123.066 193.043 123.055C192.977 123.043 192.909 123.046 192.844 123.064C192.062 123.34 191.349 123.816 190.759 124.454C190.169 125.092 189.72 125.875 189.446 126.741C189.422 126.813 189.411 126.888 189.413 126.965C189.415 127.041 189.43 127.116 189.458 127.185C189.486 127.255 189.526 127.317 189.576 127.369C189.625 127.421 189.684 127.462 189.747 127.489C189.833 127.507 189.921 127.503 190.005 127.477Z" fill="#263238"/>
<path d="M176.167 202.752L177.522 199.545C179.296 195.326 186.769 178.52 190.425 176.748L191.758 175.796L196.769 184.452C195.898 185.284 186.339 212.951 184.06 218.738C183.708 219.623 183.41 220.533 183.167 221.463C181.651 227.852 172.038 237.497 165.587 219.281C163.985 215.435 162.512 211.649 161.189 207.828C160.512 205.839 159.899 203.97 159.286 202.005C159.179 201.655 158.953 200.944 158.662 199.992C155.684 190.455 155.179 179.497 163.297 173.915L168.759 171.854L176.167 202.752Z" fill="#219EBC"/>
<g opacity="0.1">
<path opacity="0.1" d="M176.167 202.752L177.522 199.545C179.296 195.326 186.769 178.52 190.425 176.748L191.758 175.796L196.769 184.452C195.898 185.284 186.339 212.951 184.06 218.738C183.708 219.623 183.41 220.533 183.167 221.463C181.651 227.852 172.038 237.497 165.587 219.281C163.985 215.435 162.512 211.649 161.189 207.828C160.512 205.839 159.899 203.97 159.286 202.005C159.179 201.655 158.953 200.944 158.662 199.992C155.684 190.455 155.179 179.497 163.297 173.915L168.759 171.854L176.167 202.752Z" fill="white"/>
</g>
<path d="M204.984 169.563C205.03 169.973 205.113 170.377 205.231 170.769C205.393 171.345 205.606 171.902 205.865 172.432C206.227 173.124 206.676 173.754 207.199 174.301L207.554 174.651C207.87 174.978 208.212 175.272 208.575 175.531C209.254 176.095 210.024 176.505 210.844 176.736C210.92 176.753 210.991 176.79 211.051 176.845C211.111 176.9 211.158 176.97 211.188 177.05C211.285 177.279 211.414 177.484 211.521 177.689C211.629 177.894 211.704 178.062 211.779 178.243C211.872 178.521 212.046 178.755 212.274 178.906C212.705 179.189 213.179 179.381 213.672 179.473C214.954 179.774 216.267 179.883 217.575 179.798C218.252 179.773 218.926 179.704 219.596 179.594C220.324 179.482 221.043 179.308 221.747 179.075C222.312 178.909 222.852 178.649 223.349 178.304C223.564 178.177 223.734 177.973 223.833 177.725C223.886 177.58 223.897 177.46 223.962 177.315L224.392 176.109C224.607 175.519 224.779 174.904 224.94 174.301C225.122 173.713 225.273 173.113 225.392 172.505C225.499 171.878 225.628 171.299 225.714 170.624C225.854 169.563 225.962 168.502 226.069 167.429C226.069 166.923 226.069 166.344 226.069 165.838C226.083 165.432 226.043 165.025 225.951 164.632C225.875 164.356 225.743 164.104 225.564 163.897C225.06 163.329 224.456 162.885 223.79 162.595C223.163 162.318 222.51 162.124 221.844 162.016C221.564 162.016 221.295 161.896 221.016 161.859C218.085 161.397 215.1 161.648 212.263 162.595C211.695 162.783 211.138 163.012 210.597 163.282C210.127 163.545 209.687 163.869 209.285 164.246C208.978 164.521 208.722 164.861 208.532 165.247C208.469 165.401 208.423 165.563 208.392 165.729C208.392 165.922 208.392 165.934 208.177 165.898C207.725 165.786 207.254 165.809 206.812 165.965C206.371 166.122 205.974 166.407 205.661 166.79C205.419 167.124 205.24 167.51 205.134 167.923C204.981 168.452 204.93 169.011 204.984 169.563ZM212.199 167.055C211.609 166.949 211.031 166.766 210.478 166.513C210.34 166.466 210.212 166.388 210.102 166.284C210.269 165.895 210.52 165.559 210.833 165.307C211.038 165.14 211.253 164.991 211.478 164.861C211.867 164.634 212.274 164.449 212.693 164.307C213.342 164.083 214.003 163.906 214.672 163.776C215.312 163.651 215.958 163.563 216.607 163.511C217.209 163.511 217.682 163.439 218.306 163.439C219.068 163.447 219.829 163.503 220.585 163.607C221.356 163.708 222.113 163.906 222.843 164.198C223.472 164.435 224.035 164.85 224.478 165.404H224.424L224.263 165.536C224.112 165.656 223.953 165.765 223.79 165.862C223.172 166.216 222.518 166.487 221.844 166.67L221.381 166.79L221.123 166.863C220.623 166.988 220.116 167.085 219.607 167.152C219.116 167.245 218.621 167.301 218.123 167.321L216.973 167.417H216.639C216.123 167.417 215.618 167.417 215.102 167.417C214.586 167.417 214.199 167.417 213.747 167.417C213.226 167.326 212.709 167.206 212.199 167.055ZM207.339 169.033C207.377 168.789 207.481 168.565 207.637 168.391C207.793 168.216 207.993 168.099 208.209 168.056H208.543C208.672 168.888 208.855 169.672 209.016 170.467C209.22 171.516 209.511 172.529 209.801 173.541C209.933 174.044 210.128 174.523 210.381 174.964L209.844 174.506C208.834 173.501 208.024 172.269 207.468 170.889C207.247 170.302 207.202 169.651 207.339 169.033Z" fill="white"/>
<path opacity="0.7" d="M209.575 166.73C210.736 167.803 213.263 168.334 217.392 168.068C221.521 167.803 223.983 166.947 225.016 165.742C225.287 165.37 225.417 164.895 225.379 164.417C225.341 163.939 225.137 163.497 224.811 163.186C224.499 162.957 224.168 162.764 223.822 162.607C223.196 162.33 222.542 162.136 221.876 162.028L221.048 161.859C218.116 161.405 215.13 161.664 212.295 162.619C211.727 162.803 211.17 163.028 210.629 163.294C210.35 163.452 210.081 163.629 209.822 163.825C209.613 163.978 209.438 164.182 209.308 164.422C209.179 164.662 209.1 164.932 209.076 165.211C209.052 165.49 209.085 165.771 209.171 166.034C209.258 166.297 209.396 166.535 209.575 166.73ZM210.091 166.284C210.255 165.893 210.507 165.556 210.822 165.308C211.027 165.141 211.243 164.991 211.467 164.861C211.859 164.632 212.27 164.447 212.693 164.307C213.339 164.086 213.996 163.909 214.661 163.776C215.302 163.652 215.948 163.563 216.596 163.511C217.162 163.475 217.729 163.475 218.295 163.511C219.057 163.509 219.819 163.561 220.575 163.668C221.341 163.773 222.094 163.971 222.822 164.259C223.453 164.489 224.018 164.906 224.456 165.464L224.284 165.609C224.137 165.725 223.982 165.83 223.822 165.922C223.202 166.273 222.55 166.544 221.876 166.73L221.403 166.863L221.145 166.923C220.65 167.044 220.145 167.14 219.639 167.225C219.134 167.309 218.65 167.357 218.145 167.393C217.639 167.429 217.381 167.466 216.994 167.478H216.65C216.145 167.478 215.639 167.478 215.123 167.478C214.607 167.478 214.22 167.478 213.769 167.405C213.245 167.342 212.725 167.25 212.209 167.128C211.623 167.019 211.05 166.837 210.5 166.586C210.345 166.522 210.205 166.418 210.091 166.284Z" fill="white"/>
<path d="M210.102 166.284C210.212 166.388 210.34 166.466 210.478 166.513C211.031 166.767 211.608 166.949 212.198 167.055C212.71 167.177 213.227 167.27 213.747 167.333C214.198 167.333 214.65 167.333 215.101 167.333C215.553 167.333 216.123 167.333 216.639 167.333H216.972L218.123 167.236C218.62 167.217 219.116 167.161 219.607 167.068C220.116 167 220.622 166.904 221.123 166.778L221.381 166.706L221.843 166.585C222.518 166.403 223.171 166.132 223.789 165.778C223.953 165.681 224.111 165.572 224.262 165.452L224.424 165.32H224.478C224.035 164.766 223.472 164.351 222.843 164.114C222.113 163.822 221.355 163.624 220.585 163.523C219.829 163.419 219.068 163.363 218.306 163.354C217.693 163.354 217.23 163.354 216.607 163.427C215.958 163.479 215.312 163.567 214.671 163.692C214.002 163.822 213.342 163.999 212.693 164.222C212.273 164.364 211.867 164.55 211.478 164.777C211.253 164.907 211.037 165.056 210.833 165.223C210.51 165.498 210.257 165.864 210.102 166.284Z" fill="#263238"/>
<path opacity="0.3" d="M210.048 164.849C210.182 164.663 210.333 164.493 210.499 164.343C212.04 163.201 213.81 162.505 215.65 162.318C216.678 162.144 217.719 162.083 218.757 162.137C220.55 162.145 222.318 162.607 223.929 163.487C224.106 163.613 224.272 163.758 224.424 163.921C224.591 164.098 224.692 164.339 224.708 164.595C224.724 164.852 224.653 165.107 224.51 165.307C224.454 165.374 224.393 165.435 224.327 165.488C222.736 163.74 218.574 163.68 217.198 163.704C215.822 163.728 211.714 164.452 210.306 166.38C210.232 166.344 210.163 166.295 210.102 166.236C209.941 166.053 209.847 165.81 209.837 165.554C209.827 165.298 209.902 165.047 210.048 164.849Z" fill="black"/>
<path d="M207.962 170.973L208.865 175.928L206.134 179.629C203.471 182.149 200.25 183.815 196.812 184.452C195.888 184.574 194.953 184.374 194.134 183.88C193.315 183.386 192.651 182.622 192.232 181.691L191.791 180.739C191.6 180.309 191.456 179.856 191.361 179.388C190.812 176.833 191.586 175.386 193.511 173.891L200.167 167.333C200.661 166.935 208.253 166.127 208.253 166.127C209.07 166.151 208.124 170.057 207.962 170.973Z" fill="#B55B52"/>
<path d="M193.877 270.855H187.092V303.309H193.877V270.855Z" fill="#263238"/>
<path d="M193.877 270.855H187.092V325.986H193.877V270.855Z" fill="#219EBC"/>
<path opacity="0.5" d="M193.877 270.855H187.092V325.986H193.877V270.855Z" fill="white"/>
<path d="M151.609 276.076C166.178 269.18 198.919 273.725 214.166 278.487C215.696 279.013 217.345 278.892 218.801 278.148C220.257 277.404 221.42 276.088 222.069 274.448C223.263 271.072 220.736 260.68 216.897 259.475C199.102 253.905 164.049 255.858 147.007 263.911C143.33 265.647 141.727 270.023 143.287 273.194C144.121 274.731 145.427 275.873 146.961 276.404C148.494 276.934 150.147 276.818 151.609 276.076Z" fill="#219EBC"/>
<g opacity="0.3">
<path opacity="0.3" d="M151.609 276.076C166.178 269.18 198.919 273.725 214.166 278.487C215.696 279.013 217.345 278.892 218.801 278.148C220.257 277.404 221.42 276.088 222.069 274.448C223.263 271.072 220.736 260.68 216.897 259.475C199.102 253.905 164.049 255.858 147.007 263.911C143.33 265.647 141.727 270.023 143.287 273.194C144.121 274.731 145.427 275.873 146.961 276.404C148.494 276.934 150.147 276.818 151.609 276.076Z" fill="white"/>
</g>
<path d="M380.517 102.859H240.607C240.33 102.859 240.056 102.796 239.802 102.673C239.548 102.551 239.319 102.37 239.13 102.144C238.94 101.918 238.794 101.651 238.7 101.359C238.607 101.067 238.568 100.757 238.585 100.447L239.972 82.6655C240.015 82.0973 240.247 81.5678 240.621 81.1817C240.995 80.7956 241.485 80.5808 241.994 80.5798H381.904C382.186 80.5804 382.466 80.6466 382.724 80.7743C382.983 80.902 383.215 81.0885 383.406 81.3219C383.597 81.5553 383.742 81.8305 383.834 82.1302C383.925 82.43 383.96 82.7477 383.936 83.0633L382.538 100.845C382.482 101.402 382.245 101.915 381.872 102.287C381.499 102.658 381.016 102.862 380.517 102.859Z" fill="#219EBC"/>
<path opacity="0.5" d="M380.517 102.859H240.607C240.33 102.859 240.056 102.796 239.802 102.673C239.548 102.551 239.319 102.37 239.13 102.144C238.94 101.918 238.794 101.651 238.7 101.359C238.607 101.067 238.568 100.757 238.585 100.447L239.972 82.6655C240.015 82.0973 240.247 81.5678 240.621 81.1817C240.995 80.7956 241.485 80.5808 241.994 80.5798H381.904C382.186 80.5804 382.466 80.6466 382.724 80.7743C382.983 80.902 383.215 81.0885 383.406 81.3219C383.597 81.5553 383.742 81.8305 383.834 82.1302C383.925 82.43 383.96 82.7477 383.936 83.0633L382.538 100.845C382.482 101.402 382.245 101.915 381.872 102.287C381.499 102.658 381.016 102.862 380.517 102.859Z" fill="white"/>
<path d="M257.657 91.8664C257.641 91.9944 257.633 92.0864 257.633 92.1424C257.633 92.6224 257.885 92.8624 258.389 92.8624C258.701 92.8624 258.981 92.7784 259.229 92.6104L259.493 93.7144C259.085 93.9704 258.569 94.0984 257.945 94.0984C257.393 94.0984 256.949 93.9464 256.613 93.6424C256.277 93.3384 256.109 92.9184 256.109 92.3824C256.109 92.2064 256.125 92.0384 256.157 91.8784L256.769 88.8544H255.725L255.965 87.6544H257.009L257.297 86.1904H258.797L258.497 87.6544H260.225L259.985 88.8544H258.257L257.657 91.8664ZM262.591 91.8664C262.575 91.9944 262.567 92.0864 262.567 92.1424C262.567 92.6224 262.819 92.8624 263.323 92.8624C263.635 92.8624 263.915 92.7784 264.163 92.6104L264.427 93.7144C264.019 93.9704 263.503 94.0984 262.879 94.0984C262.327 94.0984 261.883 93.9464 261.547 93.6424C261.211 93.3384 261.043 92.9184 261.043 92.3824C261.043 92.2064 261.059 92.0384 261.091 91.8784L261.703 88.8544H260.659L260.899 87.6544H261.943L262.231 86.1904H263.731L263.431 87.6544H265.159L264.919 88.8544H263.191L262.591 91.8664ZM270.221 87.5344C270.749 87.5344 271.225 87.6464 271.649 87.8704C272.081 88.0944 272.421 88.4184 272.669 88.8424C272.917 89.2664 273.041 89.7664 273.041 90.3424C273.041 91.0544 272.881 91.6984 272.561 92.2744C272.249 92.8424 271.817 93.2904 271.265 93.6184C270.721 93.9384 270.113 94.0984 269.441 94.0984C268.937 94.0984 268.497 94.0104 268.121 93.8344C267.745 93.6584 267.453 93.4024 267.245 93.0664L266.597 96.3424H265.097L266.837 87.6064H268.265L268.133 88.2784C268.693 87.7824 269.389 87.5344 270.221 87.5344ZM269.321 92.8144C269.745 92.8144 270.121 92.7144 270.449 92.5144C270.785 92.3064 271.049 92.0224 271.241 91.6624C271.433 91.2944 271.529 90.8784 271.529 90.4144C271.529 89.9104 271.381 89.5184 271.085 89.2384C270.789 88.9504 270.373 88.8064 269.837 88.8064C269.413 88.8064 269.033 88.9104 268.697 89.1184C268.369 89.3184 268.109 89.6024 267.917 89.9704C267.725 90.3304 267.629 90.7424 267.629 91.2064C267.629 91.7104 267.777 92.1064 268.073 92.3944C268.369 92.6744 268.785 92.8144 269.321 92.8144ZM275.975 94.0984C275.431 94.0984 274.911 94.0344 274.415 93.9064C273.927 93.7704 273.547 93.6024 273.275 93.4024L273.899 92.2504C274.163 92.4424 274.495 92.5944 274.895 92.7064C275.295 92.8184 275.707 92.8744 276.131 92.8744C276.611 92.8744 276.971 92.8104 277.211 92.6824C277.459 92.5464 277.583 92.3544 277.583 92.1064C277.583 91.9144 277.479 91.7744 277.271 91.6864C277.071 91.5984 276.751 91.5064 276.311 91.4104C275.855 91.3224 275.479 91.2304 275.183 91.1344C274.895 91.0304 274.643 90.8664 274.427 90.6424C274.219 90.4104 274.115 90.0944 274.115 89.6944C274.115 89.0304 274.391 88.5064 274.943 88.1224C275.503 87.7304 276.243 87.5344 277.163 87.5344C277.603 87.5344 278.031 87.5864 278.447 87.6904C278.863 87.7864 279.203 87.9184 279.467 88.0864L278.915 89.2384C278.651 89.0704 278.351 88.9464 278.015 88.8664C277.687 88.7864 277.355 88.7464 277.019 88.7464C276.547 88.7464 276.187 88.8184 275.939 88.9624C275.699 89.1064 275.579 89.2944 275.579 89.5264C275.579 89.7344 275.683 89.8864 275.891 89.9824C276.107 90.0704 276.439 90.1624 276.887 90.2584C277.335 90.3464 277.703 90.4424 277.991 90.5464C278.279 90.6424 278.527 90.8024 278.735 91.0264C278.943 91.2504 279.047 91.5544 279.047 91.9384C279.047 92.6264 278.767 93.1584 278.207 93.5344C277.647 93.9104 276.903 94.0984 275.975 94.0984ZM281.491 89.5264C281.227 89.5264 281.003 89.4384 280.819 89.2624C280.643 89.0864 280.555 88.8624 280.555 88.5904C280.555 88.2864 280.655 88.0344 280.855 87.8344C281.055 87.6344 281.303 87.5344 281.599 87.5344C281.863 87.5344 282.083 87.6224 282.259 87.7984C282.435 87.9744 282.523 88.1984 282.523 88.4704C282.523 88.7824 282.419 89.0384 282.211 89.2384C282.011 89.4304 281.771 89.5264 281.491 89.5264ZM280.579 94.0984C280.315 94.0984 280.091 94.0104 279.907 93.8344C279.731 93.6584 279.643 93.4344 279.643 93.1624C279.643 92.8584 279.743 92.6064 279.943 92.4064C280.143 92.2064 280.391 92.1064 280.687 92.1064C280.951 92.1064 281.171 92.1944 281.347 92.3704C281.523 92.5464 281.611 92.7704 281.611 93.0424C281.611 93.3544 281.507 93.6104 281.299 93.8104C281.099 94.0024 280.859 94.0984 280.579 94.0984ZM288.054 83.9104H289.47L283.302 95.2144H281.886L288.054 83.9104ZM291.664 83.9104H293.08L286.912 95.2144H285.496L291.664 83.9104ZM302.546 87.6064L298.97 94.0144H297.494L296.63 89.5984L294.122 94.0144H292.67L291.494 87.6064H292.862L293.678 92.3224L296.354 87.6064H297.638L298.49 92.3224L301.13 87.6064H302.546ZM313.491 87.6064L309.915 94.0144H308.439L307.575 89.5984L305.067 94.0144H303.615L302.439 87.6064H303.807L304.623 92.3224L307.299 87.6064H308.583L309.435 92.3224L312.075 87.6064H313.491ZM324.436 87.6064L320.86 94.0144H319.384L318.52 89.5984L316.012 94.0144H314.56L313.384 87.6064H314.752L315.568 92.3224L318.244 87.6064H319.528L320.38 92.3224L323.02 87.6064H324.436ZM324.36 94.0984C324.096 94.0984 323.872 94.0104 323.688 93.8344C323.512 93.6584 323.424 93.4344 323.424 93.1624C323.424 92.8584 323.524 92.6064 323.724 92.4064C323.924 92.2064 324.172 92.1064 324.468 92.1064C324.732 92.1064 324.952 92.1944 325.128 92.3704C325.304 92.5464 325.392 92.7704 325.392 93.0424C325.392 93.3544 325.288 93.6104 325.08 93.8104C324.88 94.0024 324.64 94.0984 324.36 94.0984ZM327.29 94.0984C327.026 94.0984 326.802 94.0104 326.618 93.8344C326.442 93.6584 326.354 93.4344 326.354 93.1624C326.354 92.8584 326.454 92.6064 326.654 92.4064C326.854 92.2064 327.102 92.1064 327.398 92.1064C327.662 92.1064 327.882 92.1944 328.058 92.3704C328.234 92.5464 328.322 92.7704 328.322 93.0424C328.322 93.3544 328.218 93.6104 328.01 93.8104C327.81 94.0024 327.57 94.0984 327.29 94.0984ZM330.22 94.0984C329.956 94.0984 329.732 94.0104 329.548 93.8344C329.372 93.6584 329.284 93.4344 329.284 93.1624C329.284 92.8584 329.384 92.6064 329.584 92.4064C329.784 92.2064 330.032 92.1064 330.328 92.1064C330.592 92.1064 330.812 92.1944 330.988 92.3704C331.164 92.5464 331.252 92.7704 331.252 93.0424C331.252 93.3544 331.148 93.6104 330.94 93.8104C330.74 94.0024 330.5 94.0984 330.22 94.0984Z" fill="white"/>
<path d="M225.069 97.0356C224.138 97.0548 223.213 96.8521 222.357 96.4408C221.501 96.0295 220.732 95.419 220.102 94.6498C219.472 93.8805 218.994 92.97 218.701 91.9785C218.408 90.9869 218.307 89.937 218.403 88.898C218.607 86.7742 219.497 84.8075 220.906 83.3685C222.314 81.9296 224.143 81.1177 226.048 81.0859C226.98 81.0669 227.904 81.2697 228.761 81.6809C229.618 82.0921 230.387 82.7023 231.018 83.4713C231.649 84.2403 232.128 85.1506 232.422 86.1422C232.716 87.1337 232.819 88.1839 232.725 89.2235C232.518 91.3484 231.626 93.3152 230.216 94.754C228.806 96.1927 226.975 97.0041 225.069 97.0356ZM226.048 84.7026C224.945 84.721 223.887 85.1888 223.069 86.0185C222.252 86.8483 221.732 87.9833 221.607 89.2115C221.557 89.7458 221.608 90.2859 221.756 90.7968C221.904 91.3077 222.146 91.778 222.467 92.1772C222.801 92.5719 223.205 92.8832 223.654 93.091C224.102 93.2987 224.584 93.3981 225.069 93.3827C226.173 93.364 227.233 92.8946 228.051 92.0623C228.868 91.2301 229.387 90.0922 229.51 88.8619C229.561 88.3275 229.51 87.7872 229.362 87.2762C229.214 86.7651 228.971 86.2949 228.65 85.8962C228.315 85.5036 227.91 85.1945 227.462 84.9889C227.014 84.7833 226.532 84.6857 226.048 84.7026Z" fill="#219EBC"/>
<path d="M232.897 102.751C232.641 102.749 232.39 102.68 232.162 102.551C231.935 102.421 231.737 102.233 231.585 102.003L227.284 95.3607C227.15 95.1698 227.052 94.9507 226.996 94.7164C226.939 94.4822 226.925 94.2375 226.954 93.997C226.984 93.7566 227.056 93.5252 227.167 93.3168C227.278 93.1084 227.425 92.9271 227.6 92.7838C227.775 92.6405 227.974 92.5381 228.184 92.4827C228.395 92.4274 228.614 92.4201 228.827 92.4615C229.04 92.5028 229.244 92.5919 229.426 92.7234C229.608 92.8548 229.764 93.0261 229.886 93.2268L234.187 99.8694C234.313 100.062 234.403 100.28 234.453 100.511C234.503 100.742 234.512 100.983 234.479 101.218C234.446 101.453 234.372 101.679 234.261 101.882C234.15 102.085 234.004 102.261 233.832 102.401C233.559 102.621 233.233 102.743 232.897 102.751Z" fill="#219EBC"/>
<g opacity="0.5">
<path opacity="0.5" d="M225.069 97.0355C224.135 97.0487 223.209 96.8408 222.351 96.4253C221.493 96.0098 220.723 95.3962 220.091 94.6244C219.466 93.8571 218.992 92.9503 218.701 91.9634C218.41 90.9766 218.309 89.932 218.403 88.898C218.607 86.7741 219.497 84.8075 220.906 83.3685C222.314 81.9296 224.143 81.1177 226.048 81.0859C226.98 81.0669 227.904 81.2697 228.761 81.6809C229.618 82.0921 230.387 82.7023 231.018 83.4713C231.649 84.2403 232.128 85.1506 232.422 86.1422C232.716 87.1337 232.819 88.1839 232.725 89.2235C232.518 91.3484 231.626 93.3152 230.216 94.7539C228.806 96.1926 226.975 97.0041 225.069 97.0355ZM226.048 84.7026C224.945 84.721 223.887 85.1887 223.069 86.0185C222.252 86.8483 221.732 87.9833 221.607 89.2114C221.557 89.7457 221.608 90.2859 221.756 90.7968C221.904 91.3077 222.146 91.778 222.467 92.1771C222.801 92.5718 223.205 92.8832 223.654 93.0909C224.102 93.2986 224.584 93.3981 225.069 93.3827C226.173 93.364 227.233 92.8945 228.051 92.0623C228.868 91.2301 229.387 90.0922 229.51 88.8618C229.561 88.3275 229.51 87.7871 229.362 87.2761C229.214 86.7651 228.971 86.2949 228.65 85.8961C228.315 85.5036 227.91 85.1945 227.462 84.9889C227.014 84.7832 226.532 84.6857 226.048 84.7026Z" fill="white"/>
<path opacity="0.5" d="M232.897 102.75C232.641 102.748 232.39 102.68 232.162 102.55C231.935 102.42 231.737 102.233 231.585 102.003L227.284 95.3599C227.15 95.1691 227.052 94.95 226.996 94.7157C226.939 94.4814 226.925 94.2368 226.954 93.9963C226.984 93.7558 227.056 93.5245 227.167 93.3161C227.278 93.1076 227.425 92.9264 227.6 92.7831C227.775 92.6398 227.974 92.5374 228.184 92.482C228.395 92.4266 228.614 92.4194 228.827 92.4607C229.04 92.5021 229.244 92.5911 229.426 92.7226C229.608 92.8541 229.764 93.0253 229.886 93.2261L234.187 99.8687C234.313 100.061 234.403 100.279 234.453 100.51C234.503 100.742 234.512 100.982 234.479 101.217C234.446 101.452 234.372 101.678 234.261 101.881C234.15 102.084 234.004 102.261 233.832 102.4C233.559 102.621 233.233 102.743 232.897 102.75Z" fill="white"/>
</g>
<path opacity="0.1" d="M383.861 82.3764C383.651 82.2885 383.429 82.2436 383.205 82.2438H243.348C242.839 82.2445 242.348 82.4588 241.972 82.8447C241.596 83.2306 241.362 83.7602 241.316 84.3294L239.929 102.112C239.907 102.316 239.907 102.522 239.929 102.727C239.497 102.57 239.125 102.253 238.875 101.828C238.625 101.403 238.511 100.895 238.553 100.388L239.94 82.6054C239.983 82.0372 240.214 81.5078 240.589 81.1216C240.963 80.7355 241.453 80.5207 241.961 80.5198H381.904C382.37 80.5301 382.82 80.7204 383.176 81.0585C383.533 81.3966 383.774 81.862 383.861 82.3764Z" fill="black"/>
<path d="M174.028 254.147L160.275 439.95H164.447L186.995 254.147H174.028Z" fill="#219EBC"/>
<path d="M327.001 254.147L349.549 439.95H353.721L339.969 254.147H327.001Z" fill="#219EBC"/>
<path d="M186.737 440.094H190.909L215.284 254.147H202.317L186.737 440.094Z" fill="#219EBC"/>
<path d="M366.592 254.147H353.614L378.506 440.094H382.677L366.592 254.147Z" fill="#219EBC"/>
<path d="M378.549 251.217C378.515 250.004 378.053 248.855 377.265 248.024C376.477 247.192 375.426 246.745 374.345 246.78H151.114C150.576 246.749 150.039 246.841 149.533 247.05C149.028 247.259 148.567 247.581 148.176 247.997C147.785 248.412 147.475 248.913 147.262 249.467C147.05 250.022 146.94 250.619 146.94 251.223C146.94 251.827 147.05 252.424 147.262 252.979C147.475 253.533 147.785 254.034 148.176 254.449C148.567 254.865 149.028 255.187 149.533 255.396C150.039 255.605 150.576 255.697 151.114 255.665H374.345C374.881 255.683 375.416 255.582 375.917 255.368C376.419 255.154 376.878 254.831 377.269 254.418C377.659 254.005 377.973 253.509 378.193 252.96C378.412 252.411 378.533 251.819 378.549 251.217Z" fill="#219EBC"/>
<path opacity="0.5" d="M378.484 440.094H382.656L366.7 255.641H374.323C374.861 255.673 375.398 255.581 375.904 255.372C376.409 255.163 376.871 254.841 377.261 254.425C377.652 254.01 377.963 253.509 378.175 252.955C378.388 252.4 378.497 251.802 378.497 251.199C378.497 250.595 378.388 249.998 378.175 249.443C377.963 248.888 377.652 248.388 377.261 247.972C376.871 247.557 376.409 247.235 375.904 247.026C375.398 246.816 374.861 246.725 374.323 246.756H151.114C150.576 246.725 150.039 246.816 149.533 247.026C149.028 247.235 148.567 247.557 148.176 247.972C147.785 248.388 147.475 248.888 147.262 249.443C147.05 249.998 146.94 250.595 146.94 251.199C146.94 251.802 147.05 252.4 147.262 252.955C147.475 253.509 147.785 254.01 148.176 254.425C148.567 254.841 149.028 255.163 149.533 255.372C150.039 255.581 150.576 255.673 151.114 255.641H173.909L160.275 439.949H164.447L186.812 255.665H202.145L186.694 440.118H190.866L215.048 255.665H327.185L349.549 439.949H353.754L340.087 255.665H353.818L378.484 440.094Z" fill="white"/>
<path d="M283.121 243.285H286.013C286.159 243.285 286.298 243.22 286.401 243.105C286.504 242.989 286.562 242.833 286.562 242.67V239.258C286.548 239.106 286.485 238.964 286.383 238.862C286.282 238.759 286.15 238.703 286.013 238.703H283.938C283.817 238.702 283.699 238.747 283.604 238.83C283.508 238.913 283.44 239.03 283.411 239.162L282.594 242.573C282.582 242.66 282.586 242.748 282.607 242.833C282.628 242.917 282.664 242.996 282.714 243.063C282.764 243.13 282.826 243.185 282.896 243.223C282.966 243.261 283.043 243.282 283.121 243.285Z" fill="#219EBC"/>
<path d="M279.132 243.284H282.014C282.086 243.286 282.158 243.271 282.225 243.241C282.292 243.211 282.353 243.165 282.405 243.108C282.456 243.05 282.496 242.982 282.523 242.907C282.55 242.831 282.563 242.751 282.562 242.669V239.258C282.562 239.095 282.504 238.938 282.401 238.823C282.298 238.708 282.159 238.643 282.014 238.643H279.949C279.827 238.641 279.707 238.685 279.61 238.768C279.513 238.851 279.443 238.968 279.411 239.101L278.605 242.513C278.584 242.603 278.581 242.698 278.598 242.79C278.614 242.882 278.649 242.969 278.7 243.043C278.751 243.118 278.816 243.178 278.891 243.22C278.966 243.262 279.048 243.284 279.132 243.284Z" fill="#219EBC"/>
<path d="M275.153 243.284H278.035C278.18 243.284 278.32 243.219 278.423 243.104C278.526 242.989 278.583 242.832 278.583 242.669V239.258C278.583 239.095 278.526 238.938 278.423 238.823C278.32 238.708 278.18 238.643 278.035 238.643H275.971C275.848 238.641 275.729 238.685 275.631 238.768C275.534 238.851 275.464 238.968 275.433 239.101L274.627 242.513C274.605 242.603 274.603 242.698 274.619 242.79C274.636 242.882 274.671 242.969 274.721 243.043C274.772 243.118 274.838 243.178 274.912 243.22C274.987 243.262 275.07 243.284 275.153 243.284Z" fill="#219EBC"/>
<path d="M271.175 243.284H274.057C274.202 243.284 274.342 243.219 274.445 243.104C274.548 242.989 274.605 242.832 274.605 242.669V239.258C274.605 239.095 274.548 238.938 274.445 238.823C274.342 238.708 274.202 238.643 274.057 238.643H272.036C271.915 238.642 271.797 238.686 271.701 238.769C271.605 238.852 271.538 238.969 271.509 239.101L270.691 242.513C270.671 242.6 270.667 242.69 270.681 242.779C270.695 242.868 270.727 242.952 270.773 243.025C270.819 243.099 270.879 243.16 270.948 243.205C271.018 243.25 271.095 243.277 271.175 243.284Z" fill="#219EBC"/>
<path d="M267.197 243.284H270.079C270.224 243.284 270.363 243.219 270.466 243.104C270.569 242.989 270.627 242.832 270.627 242.669V239.258C270.627 239.095 270.569 238.938 270.466 238.823C270.363 238.708 270.224 238.643 270.079 238.643H268.003C267.882 238.642 267.764 238.686 267.669 238.769C267.573 238.852 267.505 238.969 267.476 239.101L266.659 242.513C266.638 242.604 266.635 242.7 266.652 242.793C266.669 242.886 266.705 242.973 266.757 243.048C266.809 243.123 266.876 243.183 266.952 243.224C267.029 243.265 267.112 243.285 267.197 243.284Z" fill="#219EBC"/>
<path d="M263.208 243.284H266.09C266.162 243.286 266.234 243.271 266.301 243.241C266.368 243.21 266.43 243.165 266.481 243.108C266.532 243.05 266.572 242.982 266.599 242.906C266.626 242.831 266.64 242.75 266.638 242.669V239.258C266.638 239.095 266.58 238.938 266.477 238.823C266.375 238.708 266.235 238.643 266.09 238.643H264.025C263.904 238.642 263.786 238.686 263.691 238.769C263.595 238.852 263.527 238.969 263.498 239.101L262.681 242.513C262.66 242.603 262.657 242.698 262.674 242.79C262.69 242.882 262.725 242.969 262.776 243.043C262.827 243.117 262.892 243.178 262.967 243.22C263.042 243.261 263.124 243.283 263.208 243.284Z" fill="#219EBC"/>
<path d="M259.229 243.284H262.111C262.256 243.284 262.396 243.219 262.498 243.104C262.601 242.989 262.659 242.832 262.659 242.669V239.258C262.659 239.095 262.601 238.938 262.498 238.823C262.396 238.708 262.256 238.643 262.111 238.643H260.046C259.924 238.641 259.805 238.685 259.707 238.768C259.61 238.851 259.54 238.968 259.509 239.101L258.702 242.513C258.681 242.603 258.678 242.698 258.695 242.79C258.711 242.882 258.746 242.969 258.797 243.043C258.848 243.118 258.913 243.178 258.988 243.22C259.063 243.262 259.145 243.284 259.229 243.284Z" fill="#219EBC"/>
<path d="M255.251 243.284H258.133C258.278 243.284 258.418 243.22 258.52 243.104C258.623 242.989 258.681 242.833 258.681 242.67V239.258C258.681 239.095 258.623 238.938 258.52 238.823C258.418 238.708 258.278 238.643 258.133 238.643H256.068C255.945 238.639 255.825 238.682 255.727 238.766C255.629 238.849 255.56 238.967 255.531 239.101L254.724 242.513C254.701 242.604 254.696 242.699 254.712 242.792C254.727 242.885 254.762 242.973 254.813 243.048C254.865 243.123 254.931 243.184 255.007 243.225C255.083 243.266 255.167 243.286 255.251 243.284Z" fill="#219EBC"/>
<path d="M251.273 243.284H254.154C254.3 243.284 254.439 243.219 254.542 243.104C254.645 242.989 254.703 242.832 254.703 242.669V239.258C254.703 239.095 254.645 238.938 254.542 238.823C254.439 238.708 254.3 238.643 254.154 238.643H252.079C251.958 238.642 251.84 238.686 251.745 238.769C251.649 238.852 251.581 238.969 251.552 239.101L250.735 242.513C250.713 242.604 250.711 242.7 250.728 242.793C250.745 242.886 250.781 242.973 250.833 243.048C250.885 243.123 250.952 243.183 251.028 243.224C251.104 243.265 251.188 243.285 251.273 243.284Z" fill="#219EBC"/>
<path d="M247.305 243.284H250.186C250.259 243.286 250.332 243.271 250.4 243.241C250.467 243.211 250.529 243.166 250.581 243.109C250.633 243.051 250.675 242.983 250.703 242.908C250.731 242.832 250.746 242.751 250.746 242.669V239.258C250.746 239.176 250.731 239.095 250.703 239.02C250.675 238.944 250.633 238.876 250.581 238.819C250.529 238.761 250.467 238.716 250.4 238.686C250.332 238.656 250.259 238.641 250.186 238.643H248.122C248.001 238.642 247.883 238.686 247.788 238.769C247.692 238.853 247.624 238.969 247.595 239.101L246.778 242.513C246.757 242.603 246.754 242.698 246.77 242.79C246.787 242.882 246.822 242.969 246.873 243.043C246.924 243.118 246.989 243.178 247.064 243.22C247.139 243.262 247.221 243.284 247.305 243.284Z" fill="#219EBC"/>
<path d="M243.305 243.285H246.23C246.375 243.285 246.515 243.22 246.618 243.105C246.721 242.989 246.778 242.833 246.778 242.67V239.258C246.765 239.106 246.701 238.964 246.6 238.862C246.498 238.759 246.367 238.703 246.23 238.703H244.079C243.957 238.702 243.838 238.746 243.74 238.829C243.643 238.912 243.573 239.029 243.542 239.162L242.735 242.573C242.722 242.664 242.728 242.756 242.751 242.844C242.774 242.932 242.814 243.013 242.869 243.081C242.924 243.15 242.991 243.203 243.067 243.238C243.142 243.274 243.224 243.289 243.305 243.285Z" fill="#219EBC"/>
<path d="M239.327 243.284H242.208C242.354 243.284 242.493 243.22 242.596 243.104C242.699 242.989 242.757 242.833 242.757 242.67V239.258C242.757 239.095 242.699 238.938 242.596 238.823C242.493 238.708 242.354 238.643 242.208 238.643H240.144C240.021 238.639 239.901 238.682 239.803 238.766C239.705 238.849 239.636 238.967 239.606 239.101L238.8 242.513C238.776 242.604 238.772 242.699 238.787 242.792C238.803 242.885 238.838 242.973 238.889 243.048C238.94 243.123 239.007 243.184 239.083 243.225C239.159 243.266 239.242 243.286 239.327 243.284Z" fill="#219EBC"/>
<path d="M235.348 243.284H238.23C238.375 243.284 238.515 243.219 238.618 243.104C238.72 242.989 238.778 242.832 238.778 242.669V239.258C238.778 239.095 238.72 238.938 238.618 238.823C238.515 238.708 238.375 238.643 238.23 238.643H236.155C236.034 238.642 235.916 238.686 235.82 238.769C235.725 238.852 235.657 238.969 235.628 239.101L234.811 242.513C234.789 242.604 234.787 242.7 234.804 242.793C234.821 242.886 234.857 242.973 234.909 243.048C234.961 243.123 235.028 243.183 235.104 243.224C235.18 243.265 235.264 243.285 235.348 243.284Z" fill="#219EBC"/>
<path d="M231.37 243.284H234.241C234.314 243.286 234.386 243.271 234.454 243.241C234.522 243.211 234.583 243.166 234.635 243.109C234.687 243.051 234.729 242.983 234.757 242.908C234.785 242.832 234.8 242.751 234.8 242.669V239.258C234.8 239.176 234.785 239.095 234.757 239.02C234.729 238.944 234.687 238.876 234.635 238.819C234.583 238.761 234.522 238.716 234.454 238.686C234.386 238.656 234.314 238.641 234.241 238.643H232.176C232.055 238.642 231.937 238.686 231.842 238.769C231.746 238.853 231.678 238.969 231.649 239.101L230.832 242.513C230.811 242.604 230.808 242.7 230.825 242.793C230.842 242.886 230.878 242.973 230.93 243.048C230.982 243.123 231.049 243.183 231.125 243.224C231.202 243.265 231.285 243.286 231.37 243.284Z" fill="#219EBC"/>
<path d="M227.381 243.284H230.263C230.408 243.284 230.547 243.219 230.65 243.104C230.753 242.989 230.811 242.832 230.811 242.669V239.258C230.811 239.095 230.753 238.938 230.65 238.823C230.547 238.708 230.408 238.643 230.263 238.643H228.198C228.076 238.641 227.956 238.685 227.859 238.768C227.762 238.851 227.692 238.968 227.66 239.101L226.854 242.513C226.833 242.603 226.83 242.698 226.847 242.79C226.863 242.882 226.898 242.969 226.949 243.043C227 243.118 227.065 243.178 227.14 243.22C227.215 243.262 227.297 243.284 227.381 243.284Z" fill="#219EBC"/>
<g opacity="0.6">
<path opacity="0.6" d="M283.122 243.285H286.014C286.159 243.285 286.299 243.22 286.402 243.105C286.505 242.99 286.562 242.833 286.562 242.67V239.258C286.549 239.106 286.485 238.964 286.384 238.862C286.282 238.759 286.151 238.703 286.014 238.704H283.939C283.818 238.702 283.7 238.747 283.604 238.83C283.509 238.913 283.441 239.03 283.412 239.162L282.595 242.574C282.582 242.66 282.587 242.748 282.607 242.833C282.628 242.917 282.665 242.996 282.714 243.063C282.764 243.13 282.826 243.185 282.897 243.223C282.967 243.262 283.044 243.283 283.122 243.285Z" fill="white"/>
<path opacity="0.6" d="M279.132 243.284H282.014C282.086 243.286 282.158 243.271 282.225 243.241C282.292 243.211 282.353 243.165 282.405 243.108C282.456 243.05 282.496 242.982 282.523 242.907C282.55 242.831 282.563 242.751 282.562 242.669V239.258C282.562 239.095 282.504 238.938 282.401 238.823C282.298 238.708 282.159 238.643 282.014 238.643H279.949C279.827 238.641 279.707 238.685 279.61 238.768C279.513 238.851 279.443 238.968 279.411 239.101L278.605 242.513C278.584 242.603 278.581 242.698 278.598 242.79C278.614 242.882 278.649 242.969 278.7 243.043C278.751 243.118 278.816 243.178 278.891 243.22C278.966 243.262 279.048 243.284 279.132 243.284Z" fill="white"/>
<path opacity="0.6" d="M275.154 243.284H278.036C278.181 243.284 278.32 243.219 278.423 243.104C278.526 242.989 278.584 242.832 278.584 242.669V239.258C278.584 239.095 278.526 238.938 278.423 238.823C278.32 238.708 278.181 238.643 278.036 238.643H275.971C275.849 238.641 275.729 238.685 275.632 238.768C275.534 238.851 275.465 238.968 275.433 239.101L274.627 242.513C274.606 242.603 274.603 242.698 274.62 242.79C274.636 242.882 274.671 242.969 274.722 243.043C274.773 243.118 274.838 243.178 274.913 243.22C274.988 243.262 275.07 243.284 275.154 243.284Z" fill="white"/>
<path opacity="0.6" d="M271.175 243.284H274.057C274.202 243.284 274.342 243.219 274.445 243.104C274.548 242.989 274.605 242.832 274.605 242.669V239.258C274.605 239.095 274.548 238.938 274.445 238.823C274.342 238.708 274.202 238.643 274.057 238.643H272.036C271.915 238.642 271.797 238.686 271.701 238.769C271.605 238.852 271.538 238.969 271.509 239.101L270.691 242.513C270.671 242.6 270.667 242.69 270.681 242.779C270.695 242.868 270.727 242.952 270.773 243.025C270.819 243.099 270.879 243.16 270.948 243.205C271.018 243.25 271.095 243.277 271.175 243.284Z" fill="white"/>
<path opacity="0.6" d="M267.197 243.284H270.079C270.224 243.284 270.363 243.22 270.466 243.104C270.569 242.989 270.627 242.833 270.627 242.67V239.258C270.627 239.095 270.569 238.938 270.466 238.823C270.363 238.708 270.224 238.643 270.079 238.643H268.003C267.882 238.642 267.764 238.686 267.669 238.769C267.573 238.852 267.505 238.969 267.476 239.101L266.659 242.513C266.638 242.604 266.635 242.7 266.652 242.793C266.669 242.886 266.705 242.973 266.757 243.048C266.809 243.123 266.876 243.183 266.952 243.224C267.029 243.265 267.112 243.286 267.197 243.284Z" fill="white"/>
<path opacity="0.6" d="M263.208 243.284H266.09C266.162 243.286 266.234 243.271 266.301 243.241C266.368 243.211 266.43 243.165 266.481 243.108C266.532 243.05 266.572 242.982 266.599 242.907C266.626 242.831 266.64 242.751 266.638 242.669V239.258C266.638 239.095 266.58 238.938 266.477 238.823C266.375 238.708 266.235 238.643 266.09 238.643H264.025C263.904 238.642 263.786 238.686 263.691 238.769C263.595 238.852 263.527 238.969 263.498 239.101L262.681 242.513C262.66 242.603 262.657 242.698 262.674 242.79C262.69 242.882 262.725 242.969 262.776 243.043C262.827 243.118 262.892 243.178 262.967 243.22C263.042 243.262 263.124 243.284 263.208 243.284Z" fill="white"/>
<path opacity="0.6" d="M259.23 243.284H262.111C262.257 243.284 262.396 243.219 262.499 243.104C262.602 242.989 262.66 242.832 262.66 242.669V239.258C262.66 239.095 262.602 238.938 262.499 238.823C262.396 238.708 262.257 238.643 262.111 238.643H260.047C259.924 238.641 259.805 238.685 259.708 238.768C259.61 238.851 259.54 238.968 259.509 239.101L258.703 242.513C258.681 242.603 258.679 242.698 258.695 242.79C258.712 242.882 258.747 242.969 258.798 243.043C258.848 243.118 258.914 243.178 258.989 243.22C259.063 243.262 259.146 243.284 259.23 243.284Z" fill="white"/>
<path opacity="0.6" d="M255.251 243.285H258.133C258.278 243.285 258.418 243.22 258.52 243.104C258.623 242.989 258.681 242.833 258.681 242.67V239.258C258.681 239.095 258.623 238.938 258.52 238.823C258.418 238.708 258.278 238.643 258.133 238.643H256.068C255.945 238.639 255.825 238.682 255.727 238.766C255.629 238.849 255.56 238.967 255.531 239.101L254.724 242.513C254.701 242.604 254.696 242.7 254.712 242.793C254.727 242.886 254.762 242.973 254.813 243.048C254.865 243.123 254.931 243.184 255.007 243.225C255.083 243.266 255.167 243.286 255.251 243.285Z" fill="white"/>
<path opacity="0.6" d="M251.273 243.284H254.154C254.3 243.284 254.439 243.22 254.542 243.104C254.645 242.989 254.703 242.833 254.703 242.67V239.258C254.703 239.095 254.645 238.938 254.542 238.823C254.439 238.708 254.3 238.643 254.154 238.643H252.079C251.958 238.642 251.84 238.686 251.745 238.769C251.649 238.852 251.581 238.969 251.552 239.101L250.735 242.513C250.713 242.604 250.711 242.7 250.728 242.793C250.745 242.886 250.781 242.973 250.833 243.048C250.885 243.123 250.952 243.183 251.028 243.224C251.104 243.265 251.188 243.286 251.273 243.284Z" fill="white"/>
<path opacity="0.6" d="M247.305 243.284H250.187C250.26 243.286 250.332 243.271 250.4 243.241C250.468 243.211 250.53 243.166 250.582 243.109C250.634 243.051 250.675 242.983 250.703 242.908C250.731 242.832 250.746 242.751 250.746 242.669V239.258C250.746 239.176 250.731 239.095 250.703 239.02C250.675 238.944 250.634 238.876 250.582 238.819C250.53 238.761 250.468 238.716 250.4 238.686C250.332 238.656 250.26 238.641 250.187 238.643H248.122C248.001 238.642 247.884 238.686 247.788 238.769C247.692 238.853 247.625 238.969 247.596 239.101L246.778 242.513C246.757 242.603 246.755 242.698 246.771 242.79C246.787 242.882 246.822 242.969 246.873 243.043C246.924 243.118 246.989 243.178 247.064 243.22C247.139 243.262 247.222 243.284 247.305 243.284Z" fill="white"/>
<path opacity="0.6" d="M243.305 243.285H246.23C246.375 243.285 246.515 243.22 246.618 243.105C246.721 242.989 246.778 242.833 246.778 242.67V239.258C246.765 239.106 246.701 238.965 246.6 238.862C246.498 238.759 246.367 238.703 246.23 238.704H244.079C243.957 238.702 243.838 238.746 243.74 238.829C243.643 238.912 243.573 239.029 243.542 239.162L242.735 242.574C242.722 242.664 242.728 242.757 242.751 242.845C242.774 242.932 242.814 243.014 242.869 243.082C242.924 243.15 242.991 243.203 243.067 243.239C243.142 243.274 243.224 243.29 243.305 243.285Z" fill="white"/>
<path opacity="0.6" d="M239.327 243.285H242.208C242.354 243.285 242.493 243.22 242.596 243.104C242.699 242.989 242.757 242.833 242.757 242.67V239.258C242.757 239.095 242.699 238.938 242.596 238.823C242.493 238.708 242.354 238.643 242.208 238.643H240.144C240.021 238.639 239.901 238.682 239.803 238.766C239.705 238.849 239.636 238.967 239.606 239.101L238.8 242.513C238.776 242.604 238.772 242.7 238.787 242.793C238.803 242.886 238.838 242.973 238.889 243.048C238.94 243.123 239.007 243.184 239.083 243.225C239.159 243.266 239.242 243.286 239.327 243.285Z" fill="white"/>
<path opacity="0.6" d="M235.348 243.284H238.23C238.375 243.284 238.515 243.22 238.618 243.104C238.72 242.989 238.778 242.833 238.778 242.67V239.258C238.778 239.095 238.72 238.938 238.618 238.823C238.515 238.708 238.375 238.643 238.23 238.643H236.155C236.034 238.642 235.916 238.686 235.82 238.769C235.725 238.852 235.657 238.969 235.628 239.101L234.811 242.513C234.789 242.604 234.787 242.7 234.804 242.793C234.821 242.886 234.857 242.973 234.909 243.048C234.961 243.123 235.028 243.183 235.104 243.224C235.18 243.265 235.264 243.286 235.348 243.284Z" fill="white"/>
<path opacity="0.6" d="M231.37 243.284H234.241C234.314 243.286 234.386 243.271 234.454 243.241C234.522 243.211 234.584 243.166 234.636 243.109C234.688 243.051 234.729 242.983 234.757 242.908C234.786 242.832 234.8 242.751 234.8 242.669V239.258C234.8 239.176 234.786 239.095 234.757 239.02C234.729 238.944 234.688 238.876 234.636 238.819C234.584 238.761 234.522 238.716 234.454 238.686C234.386 238.656 234.314 238.641 234.241 238.643H232.177C232.056 238.642 231.938 238.686 231.842 238.769C231.747 238.853 231.679 238.969 231.65 239.101L230.833 242.513C230.811 242.604 230.809 242.7 230.826 242.793C230.843 242.886 230.879 242.973 230.931 243.048C230.983 243.123 231.05 243.183 231.126 243.224C231.202 243.265 231.286 243.286 231.37 243.284Z" fill="white"/>
<path opacity="0.6" d="M227.381 243.284H230.263C230.408 243.284 230.547 243.22 230.65 243.104C230.753 242.989 230.811 242.833 230.811 242.67V239.258C230.811 239.095 230.753 238.939 230.65 238.823C230.547 238.708 230.408 238.643 230.263 238.643H228.198C228.076 238.641 227.956 238.685 227.859 238.768C227.762 238.851 227.692 238.969 227.66 239.101L226.854 242.513C226.833 242.604 226.83 242.699 226.847 242.79C226.863 242.882 226.898 242.969 226.949 243.043C227 243.118 227.065 243.178 227.14 243.22C227.215 243.262 227.297 243.284 227.381 243.284Z" fill="white"/>
</g>
<path d="M224.488 246.335H288.895V240.958H224.488V246.335Z" fill="#219EBC"/>
<path opacity="0.6" d="M224.488 246.335H288.895V240.958H224.488V246.335Z" fill="white"/>
<path d="M300.755 246.19H319.668V244.297C319.666 243.421 319.506 242.555 319.196 241.751C318.887 240.947 318.435 240.222 317.868 239.62C317.3 239.018 316.63 238.551 315.897 238.249C315.164 237.946 314.384 237.813 313.604 237.859L306.196 238.317C304.726 238.404 303.341 239.12 302.329 240.318C301.316 241.516 300.753 243.105 300.755 244.755V246.19Z" fill="#219EBC"/>
<path opacity="0.6" d="M300.755 246.19H319.668V244.297C319.666 243.421 319.506 242.555 319.196 241.751C318.887 240.947 318.435 240.222 317.868 239.62C317.3 239.018 316.63 238.551 315.897 238.249C315.164 237.946 314.384 237.813 313.604 237.859L306.196 238.317C304.726 238.404 303.341 239.12 302.329 240.318C301.316 241.516 300.753 243.105 300.755 244.755V246.19Z" fill="white"/>
<path d="M240.789 132.842H247.907L242.649 217.172H235.531C235.255 217.177 234.981 217.116 234.727 216.994C234.473 216.872 234.245 216.691 234.057 216.464C233.869 216.237 233.726 215.967 233.638 215.674C233.549 215.38 233.517 215.069 233.542 214.761L238.499 135.193C238.557 134.554 238.822 133.962 239.245 133.529C239.667 133.095 240.217 132.851 240.789 132.842Z" fill="#219EBC"/>
<path opacity="0.7" d="M240.789 132.842H247.907L242.649 217.172H235.531C235.255 217.177 234.981 217.116 234.727 216.994C234.473 216.872 234.245 216.691 234.057 216.464C233.869 216.237 233.726 215.967 233.638 215.674C233.549 215.38 233.517 215.069 233.542 214.761L238.499 135.193C238.557 134.554 238.822 133.962 239.245 133.529C239.667 133.095 240.217 132.851 240.789 132.842Z" fill="white"/>
<path d="M239.617 217.172H346.324C346.905 217.162 347.461 216.909 347.885 216.463C348.308 216.017 348.568 215.41 348.614 214.76L353.571 135.193C353.596 134.884 353.564 134.573 353.475 134.28C353.387 133.986 353.244 133.717 353.056 133.49C352.868 133.262 352.64 133.082 352.386 132.96C352.132 132.838 351.858 132.777 351.582 132.782H244.875C244.294 132.792 243.737 133.044 243.313 133.49C242.89 133.936 242.63 134.543 242.585 135.193L237.628 214.76C237.602 215.069 237.635 215.38 237.723 215.674C237.812 215.967 237.955 216.236 238.142 216.464C238.33 216.691 238.558 216.872 238.812 216.994C239.066 217.116 239.341 217.176 239.617 217.172Z" fill="#263238"/>
<path opacity="0.1" d="M330.206 213.591C330.392 213.589 330.57 213.508 330.705 213.365C330.841 213.222 330.923 213.028 330.937 212.82L331.12 209.962C331.127 209.864 331.116 209.765 331.088 209.672C331.059 209.578 331.014 209.493 330.954 209.42C330.894 209.348 330.822 209.29 330.741 209.25C330.66 209.211 330.573 209.191 330.485 209.191C330.299 209.193 330.121 209.274 329.986 209.417C329.85 209.56 329.767 209.755 329.754 209.962L329.571 212.82C329.565 212.918 329.577 213.016 329.607 213.109C329.636 213.201 329.681 213.286 329.741 213.358C329.8 213.431 329.872 213.488 329.952 213.528C330.032 213.569 330.118 213.59 330.206 213.591Z" fill="black"/>
<path opacity="0.1" d="M327.056 213.591C327.242 213.589 327.42 213.508 327.555 213.365C327.691 213.222 327.773 213.028 327.787 212.82L327.97 209.962C327.977 209.864 327.966 209.765 327.938 209.672C327.909 209.578 327.864 209.493 327.804 209.42C327.744 209.348 327.672 209.29 327.591 209.25C327.51 209.211 327.423 209.191 327.335 209.191C327.15 209.196 326.973 209.278 326.838 209.42C326.703 209.562 326.62 209.756 326.604 209.962L326.432 212.82C326.423 212.917 326.432 213.016 326.46 213.11C326.487 213.203 326.531 213.289 326.59 213.362C326.649 213.434 326.721 213.493 326.801 213.532C326.881 213.572 326.968 213.592 327.056 213.591Z" fill="black"/>
<path opacity="0.1" d="M323.916 213.591C324.1 213.586 324.276 213.504 324.409 213.361C324.542 213.219 324.623 213.026 324.636 212.82L324.819 209.962C324.827 209.864 324.816 209.765 324.787 209.672C324.759 209.578 324.713 209.493 324.653 209.42C324.594 209.348 324.521 209.29 324.441 209.25C324.36 209.211 324.273 209.191 324.185 209.191C324 209.196 323.823 209.278 323.688 209.42C323.553 209.562 323.469 209.756 323.454 209.962L323.282 212.82C323.274 212.918 323.285 213.017 323.314 213.11C323.342 213.204 323.388 213.29 323.447 213.362C323.507 213.435 323.579 213.493 323.66 213.532C323.741 213.571 323.828 213.592 323.916 213.591Z" fill="black"/>
<path opacity="0.1" d="M336.313 209.191C335.784 209.203 335.278 209.434 334.891 209.839C334.504 210.243 334.264 210.794 334.217 211.385C334.194 211.668 334.225 211.953 334.307 212.221C334.389 212.49 334.52 212.736 334.692 212.944C334.865 213.152 335.074 213.318 335.307 213.429C335.54 213.54 335.791 213.596 336.045 213.591C336.573 213.575 337.079 213.342 337.463 212.935C337.848 212.528 338.086 211.976 338.131 211.385C338.153 211.104 338.123 210.82 338.041 210.553C337.96 210.286 337.829 210.041 337.658 209.834C337.487 209.627 337.278 209.463 337.047 209.352C336.815 209.241 336.565 209.186 336.313 209.191ZM336.077 212.94C335.899 212.943 335.722 212.903 335.559 212.824C335.396 212.745 335.249 212.629 335.128 212.482C335.007 212.335 334.916 212.162 334.859 211.973C334.802 211.784 334.781 211.584 334.797 211.385C334.827 210.968 334.994 210.578 335.267 210.293C335.539 210.007 335.897 209.846 336.27 209.842C336.448 209.838 336.625 209.875 336.789 209.953C336.953 210.03 337.1 210.145 337.222 210.291C337.344 210.437 337.437 210.609 337.495 210.798C337.553 210.986 337.576 211.186 337.561 211.385C337.531 211.805 337.363 212.198 337.088 212.485C336.813 212.773 336.453 212.935 336.077 212.94Z" fill="black"/>
<path opacity="0.1" d="M281.035 198.509C280.303 198.525 279.601 198.834 279.054 199.38C278.508 199.926 278.154 200.674 278.057 201.487L276.412 217.16H302.443L302.755 201.487C302.767 201.097 302.707 200.708 302.581 200.344C302.454 199.98 302.263 199.648 302.019 199.37C301.774 199.091 301.482 198.871 301.159 198.723C300.837 198.575 300.491 198.503 300.142 198.509H281.035ZM284.519 209.842C284.636 208.217 285.29 206.699 286.351 205.584C287.413 204.47 288.807 203.839 290.261 203.814C290.952 203.802 291.638 203.954 292.274 204.259C292.91 204.563 293.481 205.015 293.952 205.583C294.422 206.151 294.781 206.824 295.004 207.558C295.228 208.292 295.312 209.07 295.25 209.842C295.135 211.468 294.482 212.988 293.42 214.103C292.358 215.218 290.963 215.848 289.508 215.87C288.817 215.881 288.131 215.73 287.495 215.425C286.859 215.121 286.287 214.669 285.817 214.101C285.346 213.533 284.988 212.86 284.764 212.126C284.541 211.392 284.457 210.614 284.519 209.842Z" fill="black"/>
<path d="M279.842 246.141H308.357L306.443 201.535C306.41 200.733 306.102 199.975 305.583 199.42C305.065 198.866 304.375 198.557 303.658 198.558H284.541C283.825 198.56 283.137 198.87 282.618 199.424C282.1 199.978 281.792 200.734 281.756 201.535L279.842 246.141ZM288.734 209.842C288.734 208.65 289.049 207.484 289.64 206.493C290.231 205.502 291.07 204.729 292.053 204.273C293.035 203.816 294.116 203.697 295.159 203.93C296.202 204.162 297.16 204.736 297.912 205.579C298.664 206.422 299.176 207.496 299.383 208.666C299.591 209.835 299.484 211.047 299.077 212.148C298.67 213.25 297.981 214.191 297.097 214.854C296.213 215.516 295.174 215.87 294.11 215.87C292.684 215.87 291.317 215.234 290.309 214.104C289.3 212.974 288.734 211.44 288.734 209.842Z" fill="#219EBC"/>
<path opacity="0.7" d="M279.842 246.141H308.357L306.443 201.535C306.41 200.733 306.102 199.975 305.583 199.42C305.065 198.866 304.375 198.557 303.658 198.558H284.541C283.825 198.56 283.137 198.87 282.618 199.424C282.1 199.978 281.792 200.734 281.756 201.535L279.842 246.141ZM288.734 209.842C288.734 208.65 289.049 207.484 289.64 206.493C290.231 205.502 291.07 204.729 292.053 204.273C293.035 203.816 294.116 203.697 295.159 203.93C296.202 204.162 297.16 204.736 297.912 205.579C298.664 206.422 299.176 207.496 299.383 208.666C299.591 209.835 299.484 211.047 299.077 212.148C298.67 213.25 297.981 214.191 297.097 214.854C296.213 215.516 295.174 215.87 294.11 215.87C292.684 215.87 291.317 215.234 290.309 214.104C289.3 212.974 288.734 211.44 288.734 209.842Z" fill="white"/>
<path d="M340.464 237.763L332.292 224.031L333.088 223.826L341.614 237.473L340.464 237.763Z" fill="#219EBC"/>
<path d="M373.968 237.715L382.151 223.983L381.355 223.778L372.818 237.425L373.968 237.715Z" fill="#219EBC"/>
<path d="M355.958 235.52H357.388L357.001 213.844H356.334L355.958 235.52Z" fill="#219EBC"/>
<path d="M373.71 237.666L373.248 238.63H372.291L373.108 237.498L373.71 237.666Z" fill="#263238"/>
<path d="M340.7 237.666L341.163 238.63H342.12L341.292 237.498L340.7 237.666Z" fill="#263238"/>
<path d="M356.152 235.513L356.145 237.248L357.166 237.252L357.173 235.517L356.152 235.513Z" fill="#263238"/>
<path d="M368.861 246.287H372.904V243.465H368.861V246.287Z" fill="#219EBC"/>
<path d="M341.421 246.287H345.464V243.465H341.421V246.287Z" fill="#219EBC"/>
<path d="M340.001 244.731L348.786 245.804C354.365 246.479 359.992 246.479 365.571 245.804L374.355 244.731V238.619L367.216 237.57C360.552 236.606 353.805 236.606 347.141 237.57L340.001 238.619V244.731Z" fill="#219EBC"/>
<path d="M340.001 244.731L348.786 245.804C354.365 246.479 359.992 246.479 365.571 245.804L374.355 244.731V238.619L367.216 237.57C360.552 236.606 353.805 236.606 347.141 237.57L340.001 238.619V244.731Z" fill="#263238"/>
<path d="M369.248 241.826C369.248 242.188 369.344 242.542 369.523 242.844C369.703 243.145 369.958 243.38 370.257 243.518C370.556 243.657 370.884 243.693 371.201 243.623C371.518 243.552 371.809 243.378 372.038 243.121C372.267 242.865 372.422 242.539 372.485 242.183C372.548 241.828 372.516 241.459 372.392 241.124C372.269 240.79 372.059 240.504 371.79 240.302C371.522 240.101 371.206 239.993 370.882 239.993C370.449 239.993 370.033 240.186 369.727 240.53C369.42 240.874 369.248 241.34 369.248 241.826Z" fill="white"/>
<path d="M370.882 242.935C371.423 242.935 371.861 242.444 371.861 241.838C371.861 241.232 371.423 240.741 370.882 240.741C370.342 240.741 369.904 241.232 369.904 241.838C369.904 242.444 370.342 242.935 370.882 242.935Z" fill="#219EBC"/>
<path d="M361.657 241.838C361.66 241.99 361.715 242.135 361.811 242.243C361.907 242.351 362.037 242.413 362.173 242.416C362.315 242.416 362.452 242.353 362.553 242.24C362.654 242.127 362.711 241.973 362.711 241.814C362.711 241.654 362.654 241.501 362.553 241.388C362.452 241.275 362.315 241.211 362.173 241.211C362.102 241.213 362.032 241.23 361.967 241.263C361.902 241.295 361.844 241.342 361.795 241.401C361.747 241.46 361.71 241.528 361.686 241.603C361.662 241.679 361.652 241.758 361.657 241.838Z" fill="white"/>
<path d="M359.828 241.838C359.828 241.991 359.883 242.138 359.98 242.247C360.076 242.355 360.208 242.416 360.345 242.416C360.487 242.416 360.624 242.353 360.725 242.24C360.826 242.127 360.882 241.974 360.882 241.814C360.882 241.654 360.826 241.501 360.725 241.388C360.624 241.275 360.487 241.211 360.345 241.211C360.273 241.211 360.202 241.227 360.137 241.259C360.071 241.291 360.012 241.338 359.964 241.397C359.915 241.456 359.878 241.526 359.855 241.602C359.831 241.677 359.822 241.758 359.828 241.838Z" fill="white"/>
<path d="M357.99 241.838C357.99 241.914 358.003 241.989 358.029 242.059C358.055 242.129 358.093 242.193 358.141 242.247C358.189 242.301 358.246 242.343 358.309 242.372C358.371 242.401 358.438 242.416 358.506 242.416C358.649 242.416 358.786 242.353 358.886 242.24C358.987 242.127 359.044 241.974 359.044 241.814C359.044 241.654 358.987 241.501 358.886 241.388C358.786 241.275 358.649 241.211 358.506 241.211C358.435 241.211 358.364 241.227 358.298 241.259C358.233 241.291 358.174 241.338 358.125 241.397C358.077 241.456 358.04 241.526 358.016 241.602C357.993 241.677 357.984 241.758 357.99 241.838Z" fill="white"/>
<path d="M356.151 241.838C356.154 241.99 356.209 242.135 356.306 242.243C356.402 242.351 356.531 242.413 356.667 242.416C356.81 242.416 356.947 242.353 357.048 242.24C357.148 242.127 357.205 241.973 357.205 241.814C357.205 241.654 357.148 241.501 357.048 241.388C356.947 241.275 356.81 241.211 356.667 241.211C356.596 241.213 356.526 241.23 356.461 241.263C356.397 241.295 356.338 241.342 356.29 241.401C356.242 241.46 356.205 241.528 356.181 241.603C356.157 241.679 356.147 241.758 356.151 241.838Z" fill="white"/>
<path d="M354.324 241.837C354.324 241.952 354.354 242.063 354.411 242.158C354.467 242.254 354.548 242.328 354.642 242.372C354.737 242.415 354.84 242.427 354.941 242.404C355.041 242.382 355.133 242.327 355.205 242.246C355.277 242.165 355.326 242.062 355.346 241.95C355.366 241.838 355.356 241.722 355.317 241.616C355.278 241.51 355.211 241.42 355.127 241.356C355.042 241.293 354.942 241.259 354.84 241.259C354.703 241.259 354.572 241.32 354.475 241.428C354.378 241.537 354.324 241.684 354.324 241.837Z" fill="white"/>
<path d="M352.485 241.838C352.485 241.991 352.54 242.138 352.636 242.247C352.733 242.355 352.864 242.416 353.001 242.416C353.144 242.416 353.281 242.353 353.381 242.24C353.482 242.127 353.539 241.974 353.539 241.814C353.539 241.654 353.482 241.501 353.381 241.388C353.281 241.275 353.144 241.211 353.001 241.211C352.93 241.211 352.859 241.227 352.793 241.259C352.728 241.291 352.669 241.338 352.62 241.397C352.572 241.456 352.535 241.526 352.511 241.602C352.488 241.677 352.479 241.758 352.485 241.838Z" fill="white"/>
<path d="M350.647 241.838C350.649 241.99 350.705 242.135 350.801 242.243C350.897 242.351 351.027 242.413 351.163 242.416C351.305 242.416 351.442 242.353 351.543 242.24C351.644 242.127 351.7 241.973 351.7 241.814C351.7 241.654 351.644 241.501 351.543 241.388C351.442 241.275 351.305 241.211 351.163 241.211C351.092 241.213 351.021 241.23 350.957 241.263C350.892 241.295 350.833 241.342 350.785 241.401C350.737 241.46 350.7 241.528 350.676 241.603C350.652 241.679 350.642 241.758 350.647 241.838Z" fill="white"/>
</svg>
